<?xml version="1.0" encoding="UTF-8" standalone="no"?>
<!-- Created with Inkscape (http://www.inkscape.org/) -->

<svg
   xmlns:dc="http://purl.org/dc/elements/1.1/"
   xmlns:cc="http://creativecommons.org/ns#"
   xmlns:rdf="http://www.w3.org/1999/02/22-rdf-syntax-ns#"
   xmlns:svg="http://www.w3.org/2000/svg"
   xmlns="http://www.w3.org/2000/svg"
   xmlns:xlink="http://www.w3.org/1999/xlink"
   version="1.1"
   width="1157.222"
   height="216.81371"
   viewBox="0 0 1157.222 216.81371"
   id="svg2"
   style="display:block">
  <metadata
     id="metadata244">
    <rdf:RDF>
      <cc:Work
         rdf:about="">
        <dc:format>image/svg+xml</dc:format>
        <dc:type
           rdf:resource="http://purl.org/dc/dcmitype/StillImage" />
        <dc:title></dc:title>
      </cc:Work>
    </rdf:RDF>
  </metadata>
  <defs
     id="defs4">
    <clipPath
       id="c0_1">
      <path
         d="M 36.7,452.8 V 335.1 h 27.1 v 117.7 z"
         id="path7" />
    </clipPath>
    <clipPath
       id="c1_1">
      <path
         d="M 64.5,452.8 V 335.1 h 7 v 117.7 z"
         id="path10" />
    </clipPath>
    <clipPath
       id="c2_1">
      <path
         d="M 76.6,452.8 V 335.1 h 19.1 v 117.7 z"
         id="path13" />
    </clipPath>
    <clipPath
       id="c3_1">
      <path
         d="M 103.4,452.8 V 335.1 h 20.2 v 117.7 z"
         id="path16" />
    </clipPath>
    <clipPath
       id="c4_1">
      <path
         d="M 133.1,452.8 V 335.1 h 23.1 v 117.7 z"
         id="path19" />
    </clipPath>
    <clipPath
       id="c5_1">
      <path
         d="M 163.9,452.8 V 335.1 H 183 v 117.7 z"
         id="path22" />
    </clipPath>
    <clipPath
       id="c6_1">
      <path
         d="M 197.3,452.8 V 335.1 h 17.6 v 117.7 z"
         id="path25" />
    </clipPath>
    <clipPath
       id="c7_1">
      <path
         d="M 224,452.8 V 335.1 h 24.2 v 117.7 z"
         id="path28" />
    </clipPath>
    <clipPath
       id="c8_1">
      <path
         d="M 256.3,452.8 V 335.1 h 19.1 v 117.7 z"
         id="path31" />
    </clipPath>
    <clipPath
       id="c9_1">
      <path
         d="M 284.5,452.8 V 335.1 h 24.2 v 117.7 z"
         id="path34" />
    </clipPath>
    <clipPath
       id="c10_1">
      <path
         d="M 317.9,452.8 V 335.1 H 345 v 117.7 z"
         id="path37" />
    </clipPath>
    <style
       type="text/css"
       id="style39" />
  </defs>
  <g
     transform="translate(-63.078,-350.7863)"
     id="g3221">
    <g
       transform="translate(26,0)"
       clip-path="url(#c0_1)"
       id="g45">
      <g
         id="g47"
         style="fill:#000000">
        <use
           transform="matrix(21,0,0,21.1,36.7,373.3)"
           id="use49"
           x="0"
           y="0"
           width="1286"
           height="909"
           xlink:href="#f0_1fu" />
      </g>
    </g>
    <g
       transform="translate(26,0)"
       clip-path="url(#c1_1)"
       id="g51">
      <g
         id="g53"
         style="fill:#000000">
        <use
           transform="matrix(21,0,0,21.1,64.5,373.3)"
           id="use55"
           x="0"
           y="0"
           width="1286"
           height="909"
           xlink:href="#f1_g" />
      </g>
    </g>
    <g
       transform="translate(26,0)"
       clip-path="url(#c2_1)"
       id="g59">
      <g
         id="g61"
         style="fill:#000000">
        <use
           transform="matrix(21,0,0,21.1,76.6,373.3)"
           id="use63"
           x="0"
           y="0"
           width="1286"
           height="909"
           xlink:href="#f0_1fv" />
      </g>
    </g>
    <text
       x="90"
       y="373"
       id="text65"
       style="font-size:32.27999878px;font-family:CambriaMath_a">,</text>
    <g
       transform="translate(26,0)"
       clip-path="url(#c3_1)"
       id="g67">
      <g
         id="g69"
         style="fill:#000000">
        <use
           transform="matrix(21,0,0,21.1,103.4,373.3)"
           id="use71"
           x="0"
           y="0"
           width="1286"
           height="909"
           xlink:href="#f0_15d" />
      </g>
    </g>
    <g
       transform="translate(26,0)"
       clip-path="url(#c4_1)"
       id="g73">
      <g
         id="g75"
         style="fill:#000000">
        <use
           transform="matrix(21,0,0,21.1,133.1,373.3)"
           id="use77"
           x="0"
           y="0"
           width="1286"
           height="909"
           xlink:href="#f0_110" />
      </g>
    </g>
    <g
       transform="translate(26,0)"
       clip-path="url(#c5_1)"
       id="g79">
      <g
         id="g81"
         style="fill:#000000">
        <use
           transform="matrix(21,0,0,21.1,163.9,373.3)"
           id="use83"
           x="0"
           y="0"
           width="1286"
           height="909"
           xlink:href="#f0_161" />
      </g>
    </g>
    <g
       transform="translate(26,0)"
       clip-path="url(#c6_1)"
       id="g85">
      <g
         id="g87"
         style="fill:#000000">
        <use
           transform="matrix(21,0,0,21.1,197.3,373.3)"
           id="use89"
           x="0"
           y="0"
           width="1286"
           height="909"
           xlink:href="#f1_k" />
      </g>
    </g>
    <g
       transform="translate(26,0)"
       clip-path="url(#c7_1)"
       id="g93">
      <g
         id="g95"
         style="fill:#000000">
        <use
           transform="matrix(21,0,0,21.1,224,373.3)"
           id="use97"
           x="0"
           y="0"
           width="1286"
           height="909"
           xlink:href="#f1_w" />
      </g>
    </g>
    <g
       transform="translate(26,0)"
       clip-path="url(#c8_1)"
       id="g99">
      <g
         id="g101"
         style="fill:#000000">
        <use
           transform="matrix(21,0,0,21.1,256.3,373.3)"
           id="use103"
           x="0"
           y="0"
           width="1286"
           height="909"
           xlink:href="#f0_1fv" />
      </g>
    </g>
    <g
       transform="translate(26,0)"
       clip-path="url(#c9_1)"
       id="g107">
      <g
         id="g109"
         style="fill:#000000">
        <use
           transform="matrix(21,0,0,21.1,284.5,373.3)"
           id="use111"
           x="0"
           y="0"
           width="1286"
           height="909"
           xlink:href="#f0_2mq" />
      </g>
    </g>
    <g
       transform="translate(26,0)"
       clip-path="url(#c10_1)"
       id="g113">
      <g
         id="g115"
         style="fill:#000000">
        <use
           transform="matrix(21,0,0,21.1,317.9,373.3)"
           id="use117"
           x="0"
           y="0"
           width="1286"
           height="909"
           xlink:href="#f0_1fu" />
      </g>
    </g>
    <path
       d="m 75.2,482.5 c 0.7,0 1.8,0 2.5,0 0.8,0.4 1.9,0.4 2.6,0.8 l -0.7,4 h -1.5 c 0,-0.7 -0.4,-1.5 -0.4,-1.8 -0.3,-0.8 -0.7,-1.1 -1.1,-1.1 -0.3,-0.4 -1.1,-0.4 -1.8,-0.4 -0.7,0 -1.5,0 -2.2,0.4 -0.7,0.3 -1.1,0.7 -1.5,1.4 -0.3,0.8 -0.3,1.5 -0.3,2.2 0,0.8 0,1.5 0.3,1.9 0.4,0.7 1.5,1.4 2.6,2.2 1.1,0.7 1.8,1.4 2.2,1.8 0.7,0.7 1.1,1.5 1.5,1.8 0,0.8 0.3,1.5 0.3,2.2 0,1.5 -0.3,2.6 -1.1,3.7 -0.7,0.7 -1.4,1.5 -2.5,2.2 -1.1,0.4 -2.6,0.7 -3.7,0.7 -1.1,0 -2.2,0 -3.3,-0.3 -1.1,0 -2.2,-0.4 -2.9,-0.4 l 1.1,-4.4 h 1.4 c 0,1.1 0,2.2 0.8,2.9 0.7,0.4 1.4,0.8 2.9,0.8 1.1,0 2.2,-0.4 3.3,-1.1 0.7,-0.8 1.1,-1.9 1.1,-3.3 0,-0.4 0,-1.1 -0.4,-1.5 -0.3,-0.7 -0.3,-1.1 -1.1,-1.5 -0.3,-0.3 -1.1,-1.1 -1.8,-1.4 -0.7,-0.8 -1.5,-1.1 -1.8,-1.9 -0.8,-0.3 -1.1,-1.1 -1.5,-1.4 0,-0.8 -0.4,-1.5 -0.4,-2.2 0,-1.1 0.4,-2.2 1.1,-3.3 0.4,-1.1 1.1,-1.9 2.2,-2.2 1.1,-0.4 2.6,-0.8 4.1,-0.8 z"
       id="path121"
       style="fill-rule:evenodd" />
    <path
       d="m 84.3,499 c 0.4,0 1.1,0 1.5,0.4 0,0.4 0.4,1.1 0.4,1.5 q 0,0.3 0,0.7 c 0,0 0,0.4 -0.4,0.4 h 0.4 c 0.7,-1.1 1.4,-1.9 2.2,-2.2 0.7,-0.8 1.4,-0.8 2.2,-0.8 0.7,0 1.4,0 1.8,0.8 0.4,0.3 0.7,1.1 0.7,1.8 0,0 0,0.4 0,1.1 0,0.4 -0.3,0.7 -0.3,1.1 0,0.7 -0.4,1.1 -0.4,1.8 0,0.4 -0.4,1.1 -0.4,1.5 0,0.4 -0.3,0.7 -0.3,1.1 q 0,0.4 0,0.7 c 0,0 0,0.4 0,0.4 q 0.3,0.4 0.7,0.4 c 0,0 0.4,0 0.4,0 0.3,0 0.3,-0.4 0.3,-0.4 0.4,0 0.4,-0.4 0.8,-0.4 0,-0.3 0.3,-0.3 0.3,-0.7 l 1.1,0.7 c -0.3,0.4 -0.7,0.8 -1.1,1.1 -0.3,0.4 -0.7,0.4 -1.1,0.8 -0.3,0 -0.3,0.3 -0.7,0.3 -0.4,0 -0.7,0 -1.1,0 q -0.4,0 -0.7,0 c -0.4,0 -0.4,-0.3 -0.8,-0.3 0,-0.4 0,-0.8 -0.3,-0.8 0,-0.3 0,-0.7 0,-1.1 0,-0.3 0,-0.7 0,-1.1 0,-0.3 0.3,-0.7 0.3,-1.1 0,-0.7 0.4,-1.1 0.4,-1.4 0,-0.8 0.4,-1.1 0.4,-1.5 0,-0.4 0,-0.7 0.3,-1.1 0,-0.4 0,-0.7 0,-0.7 0,-0.4 -0.3,-0.8 -0.3,-1.1 q -0.4,-0.4 -0.8,-0.4 c -0.3,0 -0.7,0 -1.1,0.4 0,0 -0.3,0 -0.7,0.3 q -0.4,0.4 -0.7,0.8 c -0.4,0.3 -0.4,0.7 -0.8,1.1 -0.3,0.3 -0.3,0.7 -0.7,1.1 q 0,0.3 -0.4,0.7 l -1.1,6.2 h -2.2 l 1.5,-7.7 c 0.4,-0.3 0.4,-0.7 0.4,-1.1 0,-0.3 0,-0.7 0,-1.1 0,-0.3 0,-0.7 -0.8,-0.7 h -0.3 c 0,0.4 -0.4,0.4 -0.4,0.4 -0.4,0 -0.4,0.3 -0.7,0.3 0,0.4 -0.4,0.4 -0.4,0.8 l -1.1,-0.8 c 0.7,-0.3 1.1,-0.7 1.1,-1.1 0.4,-0.3 0.7,-0.3 1.1,-0.7 0.4,0 0.7,-0.4 0.7,-0.4 0.4,0 0.8,0 1.1,0 z"
       id="path123"
       style="fill-rule:evenodd" />
    <path
       d="m 107.8,497.2 h 19.4 v 2.2 h -19.4 v -2.2 z m 0,-6.6 h 19.4 v 2.2 h -19.4 v -2.2 z"
       id="path125"
       style="fill-rule:evenodd" />
    <path
       d="m 160.6,423.9 v 1.4 c -3.3,0.8 -5.5,3.3 -7,7.4 -1.4,4 -1.8,10.6 -1.8,19 v 25.7 c 0,5.9 -0.7,10.3 -2.6,12.8 -1.4,3 -2.9,4.4 -4.4,5.2 v 0.3 c 1.5,0.8 3,2.2 4.4,5.2 1.5,2.5 2.2,6.9 2.6,12.8 v 25.7 c 0,8.8 0.4,15 1.8,19.4 1.5,4 3.7,6.6 7,7.3 v 1.5 c -4.4,-0.7 -7.7,-3.3 -9.5,-8.1 -1.9,-4.4 -2.6,-11 -2.6,-19.4 v -29 c 0,-4.7 -0.7,-8.4 -1.8,-10.6 -1.1,-2.6 -3,-3.7 -5.2,-4 v -1.9 c 2.2,0 3.7,-1.1 5.2,-3.6 1.1,-2.6 1.8,-6.3 1.8,-11 v -28.6 c 0,-8.8 0.7,-15.4 2.6,-19.8 1.8,-4.4 5.1,-7 9.5,-7.7 z"
       id="path127"
       style="fill-rule:evenodd" />
    <path
       d="m 173.4,430.1 c -0.7,0 -1.4,0 -1.8,0.7 -0.4,0.4 -1.1,0.8 -1.1,1.9 -0.4,0.7 -0.7,1.8 -0.7,2.9 0,1.1 -0.4,2.2 -0.4,3.7 0,3.6 0.4,6.2 1.1,7.7 0.7,1.4 1.5,2.5 2.9,2.5 1.1,0 2.2,-0.7 3,-2.5 0.3,-1.5 0.7,-3.7 0.7,-7 0,-2.2 0,-4.4 -0.4,-5.9 -0.3,-1.4 -0.7,-2.5 -1.4,-2.9 -0.4,-0.7 -1.1,-1.1 -1.9,-1.1 z m 0,-1.5 c 2.2,0 4.1,1.1 5.2,2.6 1.1,1.8 1.8,4.8 1.8,8.1 0,4 -0.7,6.6 -1.8,8.4 -1.5,2.2 -3,2.9 -5.5,2.9 -2.2,0 -3.7,-0.7 -4.8,-2.5 -1.1,-1.9 -1.8,-4.4 -1.8,-8.1 0,-2.2 0.3,-3.7 0.3,-5.1 0.4,-1.5 1.1,-2.6 1.5,-3.3 0.7,-1.1 1.5,-1.9 2.2,-2.2 1.1,-0.4 1.8,-0.8 2.9,-0.8 z"
       id="path129"
       style="fill-rule:evenodd" />
    <path
       d="m 408.1,435.2 c 0.7,0 1.1,0 1.5,0.8 0.3,0.3 0.7,0.7 0.7,1.4 0,0.8 -0.4,1.1 -0.4,1.9 1.1,-1.5 2.2,-2.2 3,-3 1.1,-0.7 1.8,-1.1 2.9,-1.1 1.1,0 1.8,0.4 2.2,0.8 0.7,0.7 0.7,1.4 0.7,2.2 0,0.7 0,1.8 -0.3,2.9 l -1.1,4 c -0.4,1.5 -0.4,2.2 -0.4,2.6 0,0.4 0,0.7 0.4,1.1 0,0 0.3,0 0.3,0 0.4,0 0.8,0 1.1,-0.4 0.4,0 0.8,-0.7 1.5,-1.4 l 1.1,1.1 c -1.1,0.7 -1.8,1.4 -2.6,1.8 -0.7,0.7 -1.4,0.7 -2.2,0.7 -0.7,0 -1.1,0 -1.4,-0.7 -0.8,-0.4 -0.8,-1.1 -0.8,-1.8 0,-0.8 0,-1.5 0.4,-3 l 0.7,-2.5 c 0.4,-1.1 0.4,-1.9 0.8,-2.2 0,-0.8 0,-1.1 0,-1.5 0,-0.7 0,-1.1 -0.4,-1.5 -0.4,-0.3 -0.7,-0.3 -1.1,-0.3 -0.7,0 -1.1,0 -1.5,0.3 -0.7,0.4 -1.1,1.1 -1.8,1.9 -0.4,0.7 -0.7,1.1 -1.1,1.8 -0.4,0.7 -0.7,1.5 -1.1,2.6 l -1.5,6.9 h -2.5 l 2.2,-10.2 c 0.3,-0.8 0.3,-1.9 0.3,-2.2 0,-0.4 0,-0.8 -0.3,-1.1 0,0 -0.4,0 -0.4,0 -0.4,0 -0.7,0 -1.1,0.3 -0.4,0 -0.7,0.8 -1.5,1.5 l -1.1,-1.1 c 1.1,-0.7 1.9,-1.5 2.6,-2.2 0.7,-0.4 1.5,-0.4 2.2,-0.4 z"
       id="path131"
       style="fill-rule:evenodd" />
    <path
       d="m 433.8,443.3 h 19 v 2.2 h -19 v -2.2 z m 0,-6.2 h 19 v 1.8 h -19 v -1.8 z"
       id="path133"
       style="fill-rule:evenodd" />
    <path
       d="m 473.7,430.1 c -0.7,0 -1.4,0 -1.8,0.7 -0.4,0.4 -1.1,0.8 -1.1,1.9 -0.4,0.7 -0.7,1.8 -0.7,2.9 0,1.1 -0.4,2.2 -0.4,3.7 0,3.6 0.4,6.2 1.1,7.7 0.7,1.4 1.5,2.5 2.9,2.5 1.5,0 2.2,-0.7 3,-2.5 0.3,-1.5 0.7,-3.7 0.7,-7 0,-2.2 0,-4.4 -0.4,-5.9 -0.3,-1.4 -0.7,-2.5 -1.4,-2.9 -0.4,-0.7 -1.1,-1.1 -1.9,-1.1 z m 0,-1.5 c 2.2,0 4.1,1.1 5.2,2.6 1.1,1.8 1.8,4.8 1.8,8.1 0,4 -0.7,6.6 -1.8,8.4 -1.5,2.2 -3,2.9 -5.5,2.9 -2.2,0 -3.7,-0.7 -4.8,-2.5 -1.1,-1.9 -1.8,-4.4 -1.8,-8.1 0,-2.2 0.3,-3.7 0.3,-5.1 0.4,-1.5 1.1,-2.6 1.5,-3.3 0.7,-1.1 1.5,-1.9 2.2,-2.2 1.1,-0.4 1.8,-0.8 2.9,-0.8 z"
       id="path135"
       style="fill-rule:evenodd" />
    <path
       d="m 161.3,480.3 h 38.2 v 9.6 h -2.2 c 0,-2.6 -0.8,-4.1 -1.5,-5.5 -0.7,-1.1 -1.8,-1.9 -3.3,-1.9 h -24.6 l 18.7,25.3 v 2.2 l -20.5,27.5 h 27.5 c 1.1,0 2.2,-0.3 2.6,-1.4 0.7,-0.8 1.4,-2.6 1.8,-5.5 h 2.2 l -0.7,11.3 H 161 v -1.4 l 22,-30.1 -21.7,-28.6 z"
       id="path137"
       style="fill-rule:evenodd" />
    <path
       d="m 215.2,481.1 h 0.8 l -2.2,9.9 c 0,1.1 -0.4,1.8 -0.4,2.5 0,0.4 0.4,0.8 0.4,0.8 0,0.3 0.3,0.3 0.7,0.3 q 0.4,0 0.7,-0.3 c 0.4,-0.4 1.1,-0.8 1.9,-1.5 l 0.7,0.7 c -1.1,1.1 -1.8,1.9 -2.6,2.2 -0.7,0.4 -1.4,0.8 -2.2,0.8 -0.7,0 -1.1,-0.4 -1.4,-0.8 -0.4,-0.3 -0.8,-1.1 -0.8,-1.8 0,-0.7 0.4,-1.8 0.4,-3.3 l 1.5,-5.1 c 0,-1.1 0.3,-1.9 0.3,-2.2 0,-0.4 -0.3,-0.8 -0.3,-1.1 -0.4,0 -0.8,0 -1.5,-0.4 l 0.4,-0.7 z m -0.3,-6.3 h 2.5 l -0.7,3.3 h -2.6 z"
       id="path139"
       style="fill-rule:evenodd" />
    <path
       d="m 229.9,488 h 19.4 v -2.2 h -19.4 v 2.2 z"
       id="path141" />
    <path
       d="m 268.4,474.5 h 1.1 c -0.4,1.1 -0.4,2.2 -0.4,4 v 13.6 c 0,0.7 0,1.1 0.4,1.4 q 0,0.4 0.4,0.8 c 0,0 0.3,0.3 0.7,0.3 0,0 0.7,0.4 1.1,0.4 0.4,0 1.1,0 1.8,0 v 1.1 H 262.2 V 495 c 1.1,0 1.8,0 2.2,0 0.7,-0.4 1.1,-0.4 1.1,-0.7 0.3,0 0.7,-0.4 0.7,-0.8 0,0 0,-0.7 0,-1.4 v -12.9 c 0,-0.3 0,-0.7 0,-0.7 q -0.4,-0.4 -0.7,-0.4 c -0.4,0 -0.8,0 -1.5,0.4 -0.4,0.4 -1.5,1.1 -2.2,1.5 l -0.7,-1.1 z"
       id="path143"
       style="fill-rule:evenodd" />
    <path
       d="m 286,488 h 19.4 v -2.2 H 286 v 2.2 z"
       id="path145" />
    <path
       d="m 325.6,474.5 c 1.1,0 2.2,0 2.9,0 0.8,0.3 1.5,0.3 2.6,0.7 l -0.7,4 h -1.5 c 0,-0.7 -0.4,-1.4 -0.4,-1.8 -0.3,-0.7 -0.7,-1.1 -1.1,-1.1 -0.3,-0.4 -1.1,-0.4 -1.8,-0.4 -0.7,0 -1.5,0 -2.2,0.4 -0.7,0.4 -1.1,0.7 -1.5,1.5 -0.3,0.7 -0.7,1.4 -0.7,2.2 0,0.7 0.4,1.4 0.7,1.8 0.4,0.7 1.1,1.5 2.6,2.2 0.7,0.7 1.8,1.5 2.2,1.8 0.4,0.8 1.1,1.5 1.1,1.9 0.4,0.7 0.4,1.4 0.4,2.2 0,1.4 -0.4,2.5 -0.8,3.6 -0.7,0.8 -1.4,1.5 -2.5,2.2 -1.1,0.4 -2.6,0.8 -4.1,0.8 -0.7,0 -1.8,0 -2.9,-0.4 -1.1,0 -2.2,-0.4 -2.9,-0.4 l 0.7,-4.4 h 1.5 c 0,1.1 0.3,2.2 1.1,3 0.3,0.3 1.4,0.7 2.5,0.7 1.5,0 2.6,-0.4 3.3,-1.1 1.1,-0.7 1.5,-1.8 1.5,-3.3 0,-0.4 -0.4,-1.1 -0.4,-1.5 -0.3,-0.7 -0.7,-1.1 -1.1,-1.4 -0.3,-0.4 -1.1,-1.1 -1.8,-1.5 -0.7,-0.7 -1.5,-1.1 -2.2,-1.8 -0.4,-0.4 -0.7,-1.1 -1.1,-1.5 -0.4,-0.7 -0.4,-1.5 -0.4,-2.2 0,-1.1 0.4,-2.2 0.8,-3.3 0.7,-1.1 1.4,-1.8 2.5,-2.2 1.1,-0.4 2.6,-0.7 3.7,-0.7 z"
       id="path147"
       style="fill-rule:evenodd" />
    <path
       d="m 336.2,491 h 0.8 l -1.9,8 c 0,0.4 0,0.8 0,1.1 -0.3,0 -0.3,0.4 -0.3,0.8 0,0 0.3,0.3 0.3,0.3 0,0.4 0.4,0.4 0.4,0.4 q 0.4,0 0.4,0 c 0.3,0 0.3,-0.4 0.7,-0.4 0,0 0.4,-0.3 0.4,-0.3 q 0.3,-0.4 0.7,-0.8 l 0.7,0.8 c -0.3,0.3 -0.7,0.7 -1.1,1.1 -0.3,0.3 -0.7,0.3 -1.1,0.7 0,0 -0.3,0.4 -0.7,0.4 -0.4,0 -0.7,0 -0.7,0 -0.4,0 -0.8,0 -1.1,0 0,-0.4 -0.4,-0.4 -0.4,-0.4 -0.4,-0.4 -0.4,-0.7 -0.4,-0.7 -0.3,-0.4 -0.3,-0.8 -0.3,-1.1 0,0 0,-0.4 0.3,-0.8 0,-0.3 0,-1.1 0,-1.4 0,-0.4 0.4,-0.8 0.4,-1.5 0,-0.4 0.4,-0.7 0.4,-1.5 0,-0.3 0.3,-0.7 0.3,-1.4 0,-0.4 0,-0.8 0,-1.1 q 0,-0.4 0,-0.4 0,-0.4 0,-0.7 c -0.3,0 -0.7,0 -1.1,0 V 491 z m -0.7,-4.8 h 2.6 l -0.8,2.6 h -2.2 z"
       id="path149"
       style="fill-rule:evenodd" />
    <path
       d="m 340.6,496.8 h 13.6 V 495 h -13.6 v 1.8 z"
       id="path151" />
    <path
       d="m 364.1,487.7 h 0.7 c 0,0.3 0,0.7 0,1.1 0,0.3 0,0.7 0,1.1 0,0.3 0,0.7 0,1.1 v 8.8 q 0,0.3 0,0.7 c 0,0 0,0.4 0,0.4 0,0 0,0.3 0.4,0.3 v 0.4 c 0,0 0.4,0 0.4,0 q 0.3,0 0.7,0.4 c 0,0 0.4,0 0.7,0 0.4,0 0.8,0 1.5,0 v 1.1 H 359 V 502 c 0.3,0 0.7,0 1.1,0 0.3,0 0.7,0 0.7,-0.4 0.4,0 0.7,0 0.7,0 0,0 0.4,0 0.4,0 0,0 0.4,-0.4 0.4,-0.4 v -0.3 c 0,0 0,-0.4 0.3,-0.4 q 0,-0.4 0,-0.7 v -8.5 q 0,-0.3 -0.3,-0.7 c 0,0 -0.4,0 -0.4,0 -0.4,0 -0.7,0 -1.1,0.4 -0.4,0 -1.1,0.3 -1.8,1.1 q -0.4,-0.4 -0.4,-0.8 c 0,0 0,-0.3 -0.4,-0.3 1.1,-0.8 2.2,-1.1 3,-1.9 1.1,-0.3 1.8,-0.7 2.9,-1.4 z"
       id="path153"
       style="fill-rule:evenodd" />
    <path
       d="m 280.5,526.5 c 0.7,0 1.5,0.4 1.8,0.8 0.4,0.3 0.4,1.1 0.4,1.8 0,0.4 0,1.1 -0.4,1.8 h 0.4 c 0.7,-1.4 1.8,-2.5 2.9,-3.3 0.8,-0.7 1.9,-1.1 3,-1.1 0.7,0 1.4,0.4 2.2,1.1 0.3,0.4 0.7,1.1 0.7,2.2 v 0.8 c 0.7,-1.5 1.8,-2.2 2.6,-3 1.1,-0.7 1.8,-1.1 2.9,-1.1 1.1,0 1.8,0.4 2.2,1.1 0.4,0.4 0.7,1.1 0.7,2.2 0,0.8 0,1.5 -0.3,3 l -1.1,4 c -0.4,1.1 -0.4,1.8 -0.4,2.6 0,0.3 0,0.7 0,0.7 q 0.4,0.4 0.7,0.4 c 0.4,0 0.8,-0.4 1.1,-0.4 0.4,-0.4 0.8,-0.7 1.5,-1.5 l 1.1,0.8 c -1.1,1.1 -1.8,1.8 -2.6,2.2 -0.7,0.3 -1.4,0.7 -2.2,0.7 -0.7,0 -1.1,-0.4 -1.8,-0.7 -0.4,-0.8 -0.4,-1.1 -0.4,-1.9 0,-0.7 0,-1.8 0.4,-3.3 l 0.7,-2.5 c 0.4,-1.1 0.4,-1.9 0.4,-2.2 0.4,-0.4 0.4,-0.8 0.4,-1.1 0,-0.8 -0.4,-1.5 -0.4,-1.5 -0.4,-0.4 -0.7,-0.7 -1.1,-0.7 -0.7,0 -1.1,0.3 -1.5,0.7 -0.7,0.4 -1.1,0.7 -1.8,1.5 -0.4,0.7 -0.7,1.4 -1.1,2.2 -0.4,0.3 -0.7,1.4 -1.1,2.2 l -1.5,6.9 h -2.5 l 1.8,-8 c 0.4,-0.8 0.4,-1.5 0.4,-2.2 0,-0.4 0,-0.8 0,-1.1 0,-0.8 0,-1.5 -0.4,-1.5 0,-0.4 -0.4,-0.7 -1.1,-0.7 -0.4,0 -0.7,0.3 -1.5,0.7 -0.3,0.4 -1.1,0.7 -1.4,1.5 -0.8,0.7 -1.1,1.4 -1.5,2.2 -0.4,0.7 -0.4,1.4 -0.7,2.2 l -1.5,6.9 h -2.9 l 2.5,-9.9 c 0,-1.1 0.4,-1.8 0.4,-2.5 0,-0.4 -0.4,-0.8 -0.4,-0.8 0,-0.3 -0.3,-0.3 -0.7,-0.3 -0.4,0 -0.4,0.3 -0.7,0.3 -0.4,0.4 -1.1,0.8 -1.9,1.5 l -0.7,-0.7 c 1.1,-1.1 1.8,-1.9 2.6,-2.2 0.3,-0.4 1.1,-0.8 1.8,-0.8 z"
       id="path155"
       style="fill-rule:evenodd" />
    <path
       d="m 208.6,512.2 h 162.5 v -1.1 H 208.6 v 1.1 z"
       id="path157" />
    <path
       d="m 178.2,458.7 c 0.4,0 1.1,0 1.1,0.4 0.4,0.3 0.7,1.1 0.7,1.4 q 0,0.4 0,0.8 c 0,0 -0.3,0.3 -0.3,0.3 h 0.3 c 0.8,-1.1 1.5,-1.8 2.2,-2.2 0.8,-0.7 1.5,-0.7 2.2,-0.7 0.8,0 1.5,0 1.9,0.7 0.3,0.4 0.7,0.8 0.7,1.9 0,0 0,0.3 0,0.7 -0.4,0.7 -0.4,1.1 -0.4,1.5 0,0.7 -0.3,1.1 -0.3,1.8 0,0.4 -0.4,0.7 -0.4,1.5 0,0.3 -0.4,0.7 -0.4,1.1 q 0,0.3 0,0.7 c 0,0 0,0.4 0,0.4 q 0.4,0.3 0.8,0.3 c 0,0 0.3,0 0.3,0 0,-0.3 0.4,-0.3 0.4,-0.3 0.4,0 0.4,-0.4 0.7,-0.4 0,-0.4 0.4,-0.4 0.4,-0.7 l 1.1,0.7 c -0.4,0.4 -0.7,0.7 -1.1,1.1 -0.4,0.4 -0.7,0.4 -1.1,0.7 -0.4,0 -0.4,0.4 -0.7,0.4 -0.4,0 -0.8,0 -1.1,0 q -0.4,0 -0.8,0 -0.3,-0.4 -0.7,-0.7 c 0,0 -0.4,-0.4 -0.4,-0.4 0,-0.4 0,-0.7 0,-1.1 0,-0.4 0,-0.7 0,-1.1 0,-0.4 0.4,-0.7 0.4,-1.5 0,-0.3 0.4,-0.7 0.4,-1.4 0,-0.4 0.3,-0.8 0.3,-1.1 0,-0.4 0,-0.8 0,-1.1 0.4,-0.4 0.4,-0.8 0.4,-0.8 0,-0.3 -0.4,-0.7 -0.4,-1.1 q -0.3,-0.3 -1.1,-0.3 c 0,0 -0.3,0 -0.7,0 0,0.3 -0.4,0.3 -0.7,0.7 -0.4,0 -0.4,0.4 -0.8,0.7 -0.3,0.4 -0.3,0.8 -0.7,1.1 -0.4,0 -0.4,0.4 -0.7,0.8 0,0.3 0,0.7 -0.4,1.1 l -1.1,6.2 H 176 l 1.5,-7.7 c 0.3,-0.7 0.3,-1.1 0.3,-1.1 0,-0.4 0,-0.7 0,-1.1 0,-0.4 0,-0.7 -0.7,-0.7 0,0 -0.4,0 -0.4,0 0,0 -0.3,0.3 -0.3,0.3 -0.4,0 -0.4,0.4 -0.8,0.4 0,0.4 -0.3,0.4 -0.3,0.7 l -1.1,-0.7 c 0.7,-0.4 0.7,-0.7 1.1,-1.1 0.3,-0.4 0.7,-0.4 1.1,-0.7 0.3,0 0.7,-0.4 0.7,-0.4 0.4,0 0.7,0 1.1,0 z"
       id="path159"
       style="fill-rule:evenodd" />
    <path
       d="m 167.6,550 h 0.3 l -1.8,8.1 c 0,0.3 0,0.7 0,1.1 q 0,0.3 0,0.7 0,0.4 0,0.7 c 0,0 0.4,0 0.7,0 h 0.4 c 0,0 0.4,0 0.4,-0.3 0,0 0.3,0 0.3,-0.4 0.4,0 0.8,-0.4 0.8,-0.7 l 0.7,0.7 c -0.4,0.7 -0.7,1.1 -1.1,1.1 -0.4,0.4 -0.4,0.7 -0.7,0.7 -0.4,0.4 -0.8,0.4 -1.1,0.4 0,0.4 -0.4,0.4 -0.8,0.4 -0.3,0 -0.7,0 -0.7,-0.4 -0.4,0 -0.7,0 -0.7,-0.4 0,-0.3 -0.4,-0.3 -0.4,-0.7 q 0,-0.4 0,-0.7 c 0,-0.4 0,-0.8 0,-1.1 0,-0.4 0,-0.8 0,-1.1 0.4,-0.8 0.4,-1.1 0.4,-1.5 0.3,-0.7 0.3,-1.1 0.3,-1.5 0.4,-0.7 0.4,-1.1 0.4,-1.4 0,-0.4 0.4,-1.1 0.4,-1.5 0,-0.4 -0.4,-0.7 -0.4,-0.7 -0.4,-0.4 -0.7,-0.4 -1.1,-0.4 v -0.7 z m -0.8,-4.4 h 2.2 l -0.3,2.2 h -2.6 z"
       id="path161"
       style="fill-rule:evenodd" />
    <path
       d="m 173.1,557 h 13.5 v 1.8 H 173.1 V 557 z m 0,-5.2 h 13.5 v 1.9 h -13.5 v -1.9 z"
       id="path163"
       style="fill-rule:evenodd" />
    <path
       d="m 196.5,547.1 h 0.8 c 0,0.3 0,0.7 0,1.1 0,0.3 0,0.7 0,0.7 0,0.4 0,0.7 0,1.1 v 9.2 c 0,0 0,0.3 0,0.3 q 0,0.4 0,0.8 0.3,0.3 0.3,0.3 c 0,0 0.4,0 0.4,0.4 q 0.4,0 0.7,0 c 0,0 0.4,0 0.8,0 0.3,0 0.7,0 1.1,0 v 1.1 h -9.2 V 561 c 0.4,0 0.7,0 1.1,0 0.4,0 0.7,0 0.7,0 0.4,0 0.8,0 0.8,0 0,-0.4 0.3,-0.4 0.3,-0.4 h 0.4 q 0,-0.3 0,-0.3 0,-0.4 0.4,-0.8 c 0,0 0,-0.3 0,-0.3 v -8.8 c 0,0 -0.4,-0.4 -0.4,-0.4 0,-0.4 -0.4,-0.4 -0.4,-0.4 -0.3,0 -0.7,0.4 -1.1,0.4 -0.7,0.4 -1.1,0.7 -1.8,1.1 -0.4,0 -0.4,-0.4 -0.4,-0.4 0,-0.3 -0.3,-0.3 -0.3,-0.7 1.1,-0.4 1.8,-1.1 2.9,-1.5 1.1,-0.7 1.8,-1.1 2.9,-1.4 z"
       id="path165"
       style="fill-rule:evenodd" />
    <path
       d="m 408.1,505.3 c 0.7,0 1.1,0 1.5,0.3 0.3,0.4 0.7,1.1 0.7,1.9 0,0.3 -0.4,1.1 -0.4,1.8 1.1,-1.5 2.2,-2.6 3,-3.3 1.1,-0.4 1.8,-0.7 2.9,-0.7 1.1,0 1.8,0 2.2,0.7 0.7,0.4 0.7,1.5 0.7,2.2 0,0.7 0,1.8 -0.3,2.9 l -1.1,4.1 c -0.4,1.1 -0.4,2.2 -0.4,2.5 0,0.4 0,0.8 0.4,0.8 0,0.3 0.3,0.3 0.3,0.3 0.4,0 0.8,0 1.1,-0.3 0.4,-0.4 0.8,-0.8 1.5,-1.5 l 1.1,0.7 c -1.1,1.1 -1.8,1.9 -2.6,2.2 -0.7,0.4 -1.4,0.8 -2.2,0.8 -0.7,0 -1.1,-0.4 -1.4,-0.8 -0.8,-0.3 -0.8,-1.1 -0.8,-1.8 0,-0.7 0,-1.8 0.4,-2.9 l 0.7,-3 c 0.4,-0.7 0.4,-1.4 0.8,-2.2 0,-0.3 0,-0.7 0,-1.1 0,-0.7 0,-1.1 -0.4,-1.4 -0.4,-0.4 -0.7,-0.4 -1.1,-0.4 -0.7,0 -1.1,0 -1.5,0.4 -0.7,0.3 -1.1,0.7 -1.8,1.4 -0.4,0.8 -0.7,1.5 -1.1,2.2 -0.4,0.8 -0.7,1.5 -1.1,2.6 l -1.5,6.6 h -2.5 l 2.2,-9.9 c 0.3,-1.1 0.3,-1.8 0.3,-2.2 0,-0.4 0,-0.7 -0.3,-1.1 0,0 -0.4,-0.4 -0.4,-0.4 -0.4,0 -0.7,0.4 -1.1,0.8 -0.4,0 -0.7,0.7 -1.5,1.4 l -1.1,-1.1 c 1.1,-1.1 1.9,-1.8 2.6,-2.2 0.7,-0.3 1.5,-0.3 2.2,-0.3 z"
       id="path167"
       style="fill-rule:evenodd" />
    <path
       d="m 433.8,501.6 19,8.4 v 2.2 l -19,8.8 v -2.5 l 16.8,-7.4 -16.8,-7.3 z"
       id="path169"
       style="fill-rule:evenodd" />
    <path
       d="m 473.7,500.1 c -0.7,0 -1.4,0 -1.8,0.4 -0.4,0.7 -1.1,1.1 -1.1,1.8 -0.4,1.1 -0.7,1.9 -0.7,3.3 0,1.1 -0.4,2.2 -0.4,3.7 0,3.7 0.4,5.9 1.1,7.7 0.7,1.5 1.5,2.2 2.9,2.2 1.5,0 2.2,-0.7 3,-2.2 0.3,-1.5 0.7,-3.7 0.7,-7 0,-2.2 0,-4.4 -0.4,-5.8 -0.3,-1.5 -0.7,-2.6 -1.4,-3.3 -0.4,-0.4 -1.1,-0.8 -1.9,-0.8 z m 0,-1.4 c 2.2,0 4.1,0.7 5.2,2.5 1.1,1.9 1.8,4.4 1.8,8.1 0,3.7 -0.7,6.6 -1.8,8.4 -1.5,1.9 -3,3 -5.5,3 -2.2,0 -3.7,-0.8 -4.8,-2.6 -1.1,-1.8 -1.8,-4.8 -1.8,-8.1 0,-2.2 0.3,-3.6 0.3,-5.1 0.4,-1.5 1.1,-2.6 1.5,-3.7 0.7,-0.7 1.5,-1.4 2.2,-1.8 1.1,-0.4 1.8,-0.7 2.9,-0.7 z"
       id="path171"
       style="fill-rule:evenodd" />
    <path
       d="m 520.7,495.4 c 1.1,0 2.5,0.7 4.4,1.8 1.8,1.1 2.9,1.5 4,1.5 0.7,0 1.5,0 2.2,-0.8 0.7,-0.3 1.1,-1.1 1.8,-2.2 l 1.1,1.1 c -0.3,0.8 -1.1,1.9 -1.8,2.6 -1.1,1.1 -2.2,1.5 -3.7,1.5 -1.4,0 -2.9,-0.4 -4.7,-1.5 -1.5,-1.1 -3,-1.8 -3.7,-1.8 -1.1,0 -1.5,0.3 -2.2,0.7 -0.7,0.7 -1.1,1.5 -1.5,2.2 l -1.1,-0.7 c 0.4,-1.1 1.1,-2.2 1.9,-3 1.1,-1.1 2.2,-1.4 3.3,-1.4 z m 0,-6.3 c 1.1,0 2.5,0.8 4.4,1.9 1.8,1.1 2.9,1.4 4,1.4 0.7,0 1.5,0 2.2,-0.7 0.7,-0.4 1.1,-1.1 1.8,-2.2 l 1.1,1.1 c -0.3,0.7 -1.1,1.8 -1.8,2.6 -1.1,1.1 -2.2,1.4 -3.7,1.4 -1.4,0 -2.9,-0.3 -4.7,-1.4 -1.5,-1.1 -3,-1.9 -3.7,-1.9 -1.1,0 -1.5,0.4 -2.2,0.8 -0.7,0.7 -1.1,1.1 -1.5,2.2 l -1.1,-0.8 c 0.4,-1.1 1.1,-2.2 1.9,-2.9 1.1,-1.1 2.2,-1.5 3.3,-1.5 z"
       id="path173"
       style="fill-rule:evenodd" />
    <path
       d="m 570.5,489.1 c 1.1,0 2.6,0 3.7,0.4 l -0.7,3.7 h -1.9 c 0,-1.1 0,-1.5 0,-1.9 0,-0.3 -0.3,-0.7 -0.7,-0.7 0,-0.4 -0.4,-0.4 -0.7,-0.4 -1.1,0 -2.2,0.4 -3,1.1 -1.1,1.1 -1.4,2.2 -2.2,3.7 -0.3,1.5 -0.7,2.9 -0.7,4.4 0,1.1 0.4,1.8 0.7,2.6 0.4,0.3 1.1,0.7 1.9,0.7 0.7,0 1.8,-0.4 2.5,-0.4 0.4,-0.3 1.1,-1.1 2.2,-1.8 l 0.8,0.7 c -0.8,1.1 -1.9,2.2 -3,2.6 -1.1,0.4 -2.2,0.7 -3.3,0.7 -1.4,0 -2.5,-0.3 -3.3,-1.4 -0.7,-0.8 -1.1,-2.2 -1.1,-3.7 0,-1.1 0,-2.6 0.4,-3.7 0.7,-1.4 1.1,-2.5 1.8,-3.6 1.1,-1.1 1.9,-1.9 3,-2.2 1.1,-0.8 2.2,-0.8 3.6,-0.8 z"
       id="path175"
       style="fill-rule:evenodd" />
    <path
       d="m 648.3,480.3 c 2.9,0.8 5.1,2.2 6.9,5.2 1.5,2.5 2.6,5.8 2.6,9.5 0,4 -1.1,7.3 -2.6,9.9 -1.8,2.6 -4,4.4 -6.9,5.1 l -0.4,-1.1 c 2.2,-0.7 4,-2.5 5.1,-4.7 1.5,-2.6 1.9,-5.5 1.9,-9.2 0,-3.7 -0.4,-6.6 -1.9,-8.8 -1.1,-2.6 -2.9,-4 -5.5,-4.8 z m -61.3,0 0.4,1.1 c -2.6,0.8 -4,2.2 -5.5,4.8 -1.1,2.2 -1.8,5.1 -1.8,8.8 0,3.7 0.7,6.6 1.8,9.2 1.5,2.2 2.9,4 5.5,4.7 L 587,510 c -2.9,-0.7 -5.5,-2.5 -6.9,-5.1 -1.9,-2.6 -2.6,-5.9 -2.6,-9.9 0,-3.7 0.7,-7 2.6,-9.5 1.4,-3 4,-4.4 6.9,-5.2 z"
       id="path177"
       style="fill-rule:evenodd" />
    <path
       d="m 592.9,488.8 c 0.7,0 1.5,0.3 1.8,0.7 0.4,0.4 0.4,1.1 0.4,1.8 0,0.8 0,1.1 -0.4,1.9 h 0.4 c 0.7,-1.5 1.8,-2.6 2.9,-3.3 0.8,-0.8 1.9,-0.8 3,-0.8 0.7,0 1.4,0 2.2,0.8 0.3,0.3 0.7,1.4 0.7,2.5 0,0 0,0.4 0,0.4 0.7,-1.5 1.8,-2.2 2.6,-2.9 1.1,-0.8 1.8,-0.8 2.9,-0.8 0.7,0 1.5,0 2.2,0.8 0.4,0.3 0.7,1.1 0.7,2.2 0,0.7 0,1.8 -0.3,2.9 l -1.1,4 c -0.4,1.1 -0.4,2.2 -0.4,2.6 0,0.4 0,0.7 0,0.7 q 0.4,0.4 0.7,0.4 c 0.4,0 0.8,0 1.1,-0.4 0.4,-0.3 0.8,-0.7 1.5,-1.4 l 0.7,0.7 c -0.7,1.1 -1.4,1.8 -2.2,2.2 -0.7,0.4 -1.4,0.7 -2.2,0.7 -0.7,0 -1.4,-0.3 -1.8,-0.7 -0.4,-0.4 -0.4,-1.1 -0.4,-1.8 0,-0.8 0,-1.9 0.4,-3 l 0.7,-2.9 c 0.4,-0.7 0.4,-1.5 0.4,-2.2 0.4,-0.4 0.4,-0.7 0.4,-1.1 0,-0.7 -0.4,-1.1 -0.4,-1.5 -0.4,-0.3 -0.7,-0.3 -1.5,-0.3 -0.3,0 -0.7,0 -1.1,0.3 -0.7,0.4 -1.1,0.8 -1.8,1.5 -0.4,0.7 -0.7,1.5 -1.1,2.2 -0.4,0.7 -0.7,1.5 -1.1,2.6 l -1.5,6.6 h -2.5 l 1.8,-8.1 c 0,-0.7 0.4,-1.5 0.4,-1.8 0,-0.8 0,-1.1 0,-1.5 0,-0.7 0,-1.1 -0.4,-1.5 0,-0.3 -0.7,-0.3 -1.1,-0.3 -0.4,0 -0.7,0 -1.5,0.3 -0.3,0.4 -1.1,0.8 -1.4,1.5 -0.8,0.7 -1.1,1.5 -1.5,2.2 -0.4,0.7 -0.7,1.5 -0.7,2.6 l -1.5,6.6 H 590 l 2.5,-9.9 c 0,-1.1 0.4,-1.9 0.4,-2.2 0,-0.4 -0.4,-0.8 -0.4,-1.1 0,0 -0.3,-0.4 -0.7,-0.4 -0.4,0 -0.7,0.4 -1.1,0.7 -0.4,0 -0.7,0.8 -1.5,1.5 l -0.7,-1.1 c 0.7,-1.1 1.8,-1.5 2.2,-2.2 0.7,-0.4 1.5,-0.7 2.2,-0.7 z"
       id="path179"
       style="fill-rule:evenodd" />
    <path
       d="m 618.2,500.5 h 2.9 c 0,0.7 0.4,1.5 0.4,2.2 0,0.7 -0.4,1.5 -0.4,2.2 -0.3,0.4 -0.7,1.1 -1.4,1.8 -0.4,0.4 -1.1,1.1 -2.2,1.9 l -0.8,-0.8 c 0.4,-0.7 0.8,-1.1 1.1,-1.4 0.4,-0.4 0.4,-1.1 0.4,-1.5 0.4,-0.4 0.4,-1.1 0.4,-1.8 0,-0.8 0,-1.9 -0.4,-2.6 z"
       id="path181"
       style="fill-rule:evenodd" />
    <path
       d="m 633.2,488.8 c 0.8,0 1.1,0.3 1.5,0.7 0.4,0.4 0.7,1.1 0.7,1.8 0,0.4 0,1.1 -0.3,1.9 1.1,-1.5 2.2,-2.6 2.9,-3.3 1.1,-0.8 2.2,-0.8 2.9,-0.8 1.1,0 1.9,0 2.2,0.8 0.8,0.3 1.1,1.1 1.1,2.2 0,0.7 -0.3,1.8 -0.7,2.9 l -1.1,4 c 0,1.1 -0.4,2.2 -0.4,2.6 0,0.4 0.4,0.7 0.4,0.7 0,0.4 0.4,0.4 0.7,0.4 q 0.4,0 0.8,-0.4 c 0.3,-0.3 1.1,-0.7 1.8,-1.4 l 0.7,0.7 c -1.1,1.1 -1.8,1.8 -2.2,2.2 -0.7,0.4 -1.4,0.7 -2.5,0.7 -0.8,0 -1.1,-0.3 -1.5,-0.7 -0.4,-0.4 -0.7,-1.1 -0.7,-1.8 0,-0.8 0.3,-1.9 0.7,-3 l 0.4,-2.9 c 0.3,-0.7 0.7,-1.5 0.7,-2.2 0,-0.4 0,-0.7 0,-1.1 0,-0.7 0,-1.1 -0.4,-1.5 -0.3,-0.3 -0.7,-0.3 -1.1,-0.3 -0.3,0 -1.1,0 -1.4,0.3 -0.4,0.4 -1.1,0.8 -1.5,1.5 -0.7,0.7 -1.1,1.5 -1.5,2.2 -0.3,0.7 -0.7,1.5 -0.7,2.6 l -1.8,6.6 h -2.6 l 2.2,-9.9 c 0.4,-1.1 0.4,-1.9 0.4,-2.2 0,-0.4 0,-0.8 0,-1.1 -0.4,0 -0.4,-0.4 -0.8,-0.4 -0.3,0 -0.7,0.4 -1.1,0.7 -0.3,0 -0.7,0.8 -1.4,1.5 l -0.8,-1.1 c 0.8,-1.1 1.5,-1.8 2.2,-2.2 0.8,-0.4 1.5,-0.7 2.2,-0.7 z"
       id="path183"
       style="fill-rule:evenodd" />
    <path
       d="m 672.1,497.2 h 19.4 v 2.2 h -19.4 v -2.2 z m 0,-6.6 h 19.4 v 2.2 h -19.4 v -2.2 z"
       id="path185"
       style="fill-rule:evenodd" />
    <path
       d="m 708.4,488.8 c 0.7,0 1.1,0.3 1.5,0.7 0.3,0.4 0.7,1.1 0.7,1.8 0,0.8 -0.4,1.1 -0.4,1.9 1.1,-1.5 1.9,-2.6 3,-3.3 1.1,-0.8 1.8,-0.8 2.9,-0.8 1.1,0 1.8,0 2.2,0.8 0.7,0.3 0.7,1.4 0.7,2.5 0,0 0,0.4 0,0.4 1.1,-1.5 1.9,-2.2 3,-2.9 0.7,-0.8 1.8,-0.8 2.5,-0.8 1.1,0 1.9,0 2.2,0.8 0.8,0.3 0.8,1.1 0.8,2.2 0,0.7 0,1.8 -0.4,2.9 l -1.1,4 c 0,1.1 -0.4,2.2 -0.4,2.6 0,0.4 0,0.7 0.4,0.7 0,0.4 0.4,0.4 0.7,0.4 0,0 0.4,0 0.8,-0.4 0.3,-0.3 1.1,-0.7 1.4,-1.4 l 1.1,0.7 c -1.1,1.1 -1.8,1.8 -2.5,2.2 -0.4,0.4 -1.1,0.7 -2.2,0.7 -0.8,0 -1.1,-0.3 -1.5,-0.7 -0.4,-0.4 -0.7,-1.1 -0.7,-1.8 0,-0.8 0.3,-1.9 0.7,-3 l 0.4,-2.9 c 0.3,-0.7 0.7,-1.5 0.7,-2.2 0,-0.4 0,-0.7 0,-1.1 0,-0.7 0,-1.1 -0.4,-1.5 -0.3,-0.3 -0.7,-0.3 -1.1,-0.3 -0.3,0 -1.1,0 -1.4,0.3 -0.4,0.4 -1.1,0.8 -1.5,1.5 -0.7,0.7 -1.1,1.5 -1.5,2.2 -0.3,0.7 -0.7,1.5 -0.7,2.6 l -1.5,6.6 h -2.9 l 1.8,-8.1 c 0.4,-0.7 0.4,-1.5 0.8,-1.8 0,-0.8 0,-1.1 0,-1.5 0,-0.7 -0.4,-1.1 -0.4,-1.5 -0.4,-0.3 -0.7,-0.3 -1.5,-0.3 -0.3,0 -0.7,0 -1.1,0.3 -0.7,0.4 -1.1,0.8 -1.8,1.5 -0.4,0.7 -1.1,1.5 -1.1,2.2 -0.4,0.7 -0.7,1.5 -1.1,2.6 l -1.5,6.6 h -2.5 l 2.2,-9.9 c 0.3,-1.1 0.3,-1.9 0.3,-2.2 0,-0.4 0,-0.8 -0.3,-1.1 0,0 0,-0.4 -0.4,-0.4 -0.4,0 -0.7,0.4 -1.1,0.7 -0.4,0 -0.7,0.8 -1.5,1.5 l -1.1,-1.1 c 1.1,-1.1 1.9,-1.5 2.6,-2.2 0.7,-0.4 1.5,-0.7 2.2,-0.7 z"
       id="path187"
       style="fill-rule:evenodd" />
    <path
       d="m 741.4,486.6 7,6.9 7.3,-6.9 1.5,1.4 -7,7 7,7.3 -1.9,1.5 -6.9,-7.3 -7.4,7.3 -1.1,-1.5 7,-7.3 -7,-7 z"
       id="path189"
       style="fill-rule:evenodd" />
    <path
       d="m 1090.1,434.9 c 5.5,6.2 9.9,14.6 12.8,25.3 3.3,10.6 4.8,22.3 4.8,34.8 0,12.1 -1.5,23.8 -4.8,34.5 -2.9,11 -7.3,19.4 -12.8,25.6 l -0.7,-1.1 c 4.7,-6.2 8.4,-15 11,-25.6 2.5,-10.7 4,-22 4,-33.4 0,-12.1 -1.5,-23.1 -4,-33.7 -2.6,-10.3 -6.3,-18.7 -11,-25.3 z m -302.5,0 1.1,1.1 c -4.8,6.6 -8.8,15 -11.4,25.3 -2.5,10.6 -3.6,21.6 -3.6,33.7 0,11.4 1.1,22.7 3.6,33.4 2.6,10.6 6.6,19.4 11.4,25.6 l -1.1,1.1 c -5.1,-6.2 -9.5,-14.6 -12.8,-25.6 -3,-10.7 -4.4,-22.4 -4.4,-34.5 0,-12.5 1.4,-24.2 4.4,-34.8 3.3,-10.7 7.7,-19.1 12.8,-25.3 z"
       id="path191"
       style="fill-rule:evenodd" />
    <path
       d="m 894.3,453.9 c 4.4,3.7 7.7,9.2 10.3,16.5 2.5,7.4 3.6,15.4 3.6,24.6 0,8.8 -1.1,17.2 -3.6,24.6 -2.6,7.3 -5.9,12.8 -10.3,16.5 l -0.7,-1.1 c 3.6,-3.7 6.6,-9.2 8.4,-16.5 2.2,-7 2.9,-15.1 2.9,-23.5 0,-8.8 -0.7,-16.5 -2.9,-23.5 -1.8,-7.3 -4.8,-12.8 -8.4,-16.5 z m -88.4,0 0.8,1.1 c -3.7,3.7 -6.6,9.2 -8.8,16.5 -1.9,7 -3,14.7 -3,23.5 0,8.4 1.1,16.5 3,23.5 2.2,7.3 5.1,12.8 8.8,16.5 l -0.8,1.1 c -4.4,-3.7 -7.7,-9.2 -10.2,-16.5 -2.6,-7.4 -3.7,-15.8 -3.7,-24.6 0,-9.2 1.1,-17.2 3.7,-24.6 2.5,-7.3 5.8,-12.8 10.2,-16.5 z"
       id="path193"
       style="fill-rule:evenodd" />
    <path
       d="m 818,482.5 h 1.1 c -0.3,1.1 -0.3,2.6 -0.3,4.1 v 13.5 c 0,0.8 0,1.1 0.3,1.5 q 0,0.4 0.4,0.7 c 0,0 0.4,0.4 0.7,0.4 0.4,0 0.8,0.4 1.1,0.4 0.4,0 1.1,0 1.9,0 v 1.1 h -11.4 v -1.1 c 1.1,0 1.8,0 2.2,0 0.7,-0.4 1.1,-0.4 1.5,-0.4 0,-0.4 0.3,-0.7 0.3,-1.1 0,0 0.4,-0.7 0.4,-1.5 v -12.8 c 0,-0.4 -0.4,-0.7 -0.4,-0.7 0,-0.4 -0.3,-0.4 -0.7,-0.4 -0.4,0 -0.7,0 -1.5,0.4 -0.3,0.3 -1.1,1.1 -2.2,1.4 l -0.7,-1.1 z"
       id="path195"
       style="fill-rule:evenodd" />
    <path
       d="m 835.6,496.1 h 19.5 v -2.2 h -19.5 v 2.2 z"
       id="path197" />
    <path
       d="m 879.6,458.3 h 1.1 c 0,1.1 0,2.2 0,4.1 v 13.5 c 0,0.8 0,1.1 0,1.5 q 0,0.4 0.4,0.7 c 0,0 0.4,0.4 0.7,0.4 0.4,0 0.8,0.4 1.1,0.4 0.8,0 1.1,0 2.2,0 v 1.1 h -11.7 v -1.1 c 1.1,0 1.8,0 2.6,0 0.3,-0.4 0.7,-0.4 1.1,-0.8 0,0 0.3,-0.3 0.3,-0.7 0.4,0 0.4,-0.7 0.4,-1.5 v -12.8 c 0,-0.4 0,-0.7 -0.4,-0.7 0,-0.4 -0.3,-0.4 -0.7,-0.4 0,0 -0.7,0 -1.1,0.4 -0.7,0.3 -1.5,1.1 -2.6,1.4 l -0.7,-1.1 z"
       id="path199"
       style="fill-rule:evenodd" />
    <path
       d="m 869.4,510.4 c 0.3,0 1.1,0.4 1.4,0.7 0.4,0.4 0.4,1.1 0.4,1.9 0,0.3 0,1.1 -0.4,1.8 h 0.4 c 1.1,-1.5 1.8,-2.6 2.9,-3.3 0.8,-0.7 1.9,-1.1 3,-1.1 0.7,0 1.8,0.4 2.2,1.1 0.3,0.4 0.7,1.1 0.7,2.2 v 0.7 c 1.1,-1.4 1.8,-2.2 2.6,-2.9 1.1,-0.7 1.8,-1.1 2.9,-1.1 1.1,0 1.8,0.4 2.2,1.1 0.7,0.4 0.7,1.1 0.7,2.2 0,0.7 0,1.5 -0.3,2.9 l -1.1,4.1 c -0.4,1.1 -0.4,1.8 -0.4,2.5 q 0,0.4 0.4,0.8 c 0,0.3 0.3,0.3 0.3,0.3 0.4,0 0.8,-0.3 1.1,-0.3 0.4,-0.4 0.8,-0.8 1.5,-1.5 l 1.1,0.7 c -1.1,1.1 -1.8,1.9 -2.6,2.2 -0.7,0.4 -1.4,0.8 -2.2,0.8 -0.7,0 -1.1,-0.4 -1.4,-0.8 -0.8,-0.7 -0.8,-1.1 -0.8,-1.8 0,-0.7 0,-1.8 0.4,-3.3 l 0.7,-2.6 c 0.4,-1.1 0.4,-1.8 0.8,-2.2 0,-0.3 0,-0.7 0,-1.1 0,-0.7 0,-1.4 -0.4,-1.4 -0.4,-0.4 -0.7,-0.8 -1.1,-0.8 -0.7,0 -1.1,0.4 -1.5,0.8 -0.7,0.3 -1.1,0.7 -1.8,1.4 -0.4,0.8 -0.7,1.5 -1.1,1.9 -0.4,0.7 -0.7,1.8 -1.1,2.5 l -1.1,7 h -2.9 l 1.8,-8.1 c 0.4,-0.7 0.4,-1.4 0.4,-2.2 0.3,-0.3 0.3,-0.7 0.3,-1.1 0,-0.7 -0.3,-1.4 -0.3,-1.4 -0.4,-0.4 -0.8,-0.8 -1.5,-0.8 -0.4,0 -0.7,0.4 -1.5,0.8 -0.3,0.3 -0.7,0.7 -1.4,1.4 -0.8,0.8 -1.1,1.5 -1.5,2.2 -0.4,0.8 -0.4,1.5 -0.7,2.2 l -1.5,7 h -2.6 l 2.2,-9.9 c 0,-1.1 0.4,-1.8 0.4,-2.6 0,-0.3 0,-0.7 -0.4,-0.7 0,-0.4 -0.3,-0.4 -0.7,-0.4 0,0 -0.4,0.4 -0.7,0.4 -0.4,0.4 -1.1,0.7 -1.5,1.5 l -1.1,-0.8 c 1.1,-1.1 1.8,-1.8 2.6,-2.2 0.3,-0.3 1.1,-0.7 2.2,-0.7 z"
       id="path201"
       style="fill-rule:evenodd" />
    <path
       d="m 864.2,496.1 h 28.3 V 495 h -28.3 v 1.1 z"
       id="path203" />
    <path
       d="m 915.6,449.2 c 0.3,0 1.1,0.3 1.1,0.7 0.3,0.4 0.7,0.7 0.7,1.5 0,0 0,0.3 0,0.3 0,0 -0.4,0.4 -0.4,0.4 l 0.4,0.4 c 0.7,-1.1 1.5,-1.9 2.2,-2.6 0.7,-0.4 1.5,-0.7 2.2,-0.7 0.7,0 1.5,0.3 1.8,0.7 0.4,0.4 0.8,1.1 0.8,1.8 0,0.4 0,0.8 0,1.1 -0.4,0.4 -0.4,0.8 -0.4,1.5 0,0.4 -0.4,0.7 -0.4,1.5 0,0.3 -0.3,1.1 -0.3,1.4 0,0.4 -0.4,0.8 -0.4,1.1 0,0.4 0,0.8 0,0.8 q 0,0.3 0,0.7 0.4,0 0.7,0 c 0,0 0.4,0 0.4,0 0,0 0.4,0 0.4,-0.4 q 0.3,0 0.7,-0.3 c 0,-0.4 0.4,-0.4 0.4,-0.8 l 1.1,0.8 c -0.4,0.3 -0.8,0.7 -1.1,1.1 -0.4,0.3 -0.8,0.3 -1.1,0.7 q -0.4,0.4 -0.8,0.4 c -0.3,0 -0.7,0 -1.1,0 q -0.3,0 -0.7,0 c -0.4,0 -0.4,-0.4 -0.7,-0.4 q 0,-0.4 -0.4,-0.7 c 0,-0.4 0,-0.8 0,-0.8 0,-0.3 0,-0.7 0,-1.1 0,-0.7 0.4,-1.1 0.4,-1.4 0,-0.8 0.3,-1.1 0.3,-1.5 0,-0.7 0.4,-1.1 0.4,-1.5 0,-0.3 0,-0.7 0,-1.1 q 0.4,-0.3 0.4,-0.7 c 0,-0.4 -0.4,-0.7 -0.4,-1.1 -0.4,0 -0.4,-0.4 -0.7,-0.4 -0.4,0 -0.8,0 -1.1,0.4 0,0 -0.4,0.4 -0.8,0.4 q -0.3,0.3 -0.7,0.7 c -0.4,0.4 -0.4,0.7 -0.7,1.1 -0.4,0.4 -0.4,0.7 -0.8,1.1 0,0.4 0,0.7 -0.3,1.1 l -1.1,5.9 h -2.2 l 1.4,-7.7 c 0.4,-0.4 0.4,-0.8 0.4,-1.1 0,-0.4 0,-0.8 0,-0.8 0,-0.7 0,-1.1 -0.7,-1.1 0,0 -0.4,0 -0.4,0.4 0,0 -0.4,0 -0.4,0 q -0.3,0.4 -0.7,0.7 c 0,0 -0.4,0.4 -0.4,0.4 l -1.1,-0.7 c 0.8,-0.4 0.8,-0.8 1.1,-1.1 0.4,0 0.8,-0.4 1.1,-0.8 0.4,0 0.8,0 0.8,-0.3 0.3,0 0.7,0 1.1,0 z"
       id="path205"
       style="fill-rule:evenodd" />
    <path
       d="m 936.5,496.1 h 19 v -2.2 h -19 v 2.2 z"
       id="path207" />
    <path
       d="m 1071,453.9 c 4.4,3.7 7.7,9.2 10.3,16.5 2.6,7.4 4,15.4 4,24.6 0,8.8 -1.4,17.2 -4,24.6 -2.6,7.3 -5.9,12.8 -10.3,16.5 l -0.7,-1.1 c 4,-3.7 6.6,-9.2 8.8,-16.5 1.8,-7 2.9,-15.1 2.9,-23.5 0,-8.8 -1.1,-16.5 -2.9,-23.5 -2.2,-7.3 -5.1,-12.8 -8.8,-16.5 z m -88,0 0.8,1.1 c -4.1,3.7 -6.6,9.2 -8.8,16.5 -1.9,7 -3,14.7 -3,23.5 0,8.4 1.1,16.5 3,23.5 2.2,7.3 4.7,12.8 8.8,16.5 l -0.8,1.1 c -4.4,-3.7 -8,-9.2 -10.2,-16.5 -2.6,-7.4 -4.1,-15.8 -4.1,-24.6 0,-9.2 1.5,-17.2 4.1,-24.6 2.2,-7.3 5.8,-12.8 10.2,-16.5 z"
       id="path209"
       style="fill-rule:evenodd" />
    <path
       d="m 995.1,482.5 h 0.8 c 0,1.1 0,2.6 0,4.1 v 13.5 c 0,0.8 0,1.1 0,1.5 0,0.4 0.3,0.4 0.3,0.7 0.4,0 0.4,0.4 0.8,0.4 0.3,0 0.7,0.4 1.4,0.4 0.4,0 1.1,0 1.9,0 v 1.1 h -11.8 v -1.1 c 1.1,0 2.2,0 2.6,0 0.4,-0.4 0.7,-0.4 1.1,-0.4 0.4,-0.4 0.4,-0.7 0.7,-1.1 0,0 0,-0.7 0,-1.5 v -12.8 c 0,-0.4 0,-0.7 0,-0.7 q -0.3,-0.4 -0.7,-0.4 c -0.4,0 -0.7,0 -1.5,0.4 -0.7,0.3 -1.4,1.1 -2.2,1.4 l -0.7,-1.1 z"
       id="path211"
       style="fill-rule:evenodd" />
    <path
       d="m 1011.3,496.1 h 19.4 v -2.2 h -19.4 v 2.2 z"
       id="path213" />
    <path
       d="m 1056.7,458.3 h 0.8 c 0,1.1 0,2.2 0,4.1 v 13.5 c 0,0.8 0,1.1 0,1.5 q 0.3,0.4 0.3,0.7 c 0.4,0 0.8,0.4 0.8,0.4 0.3,0 0.7,0.4 1.4,0.4 0.4,0 1.1,0 1.9,0 v 1.1 h -11.8 v -1.1 c 1.5,0 2.2,0 2.6,0 0.7,-0.4 1.1,-0.4 1.1,-0.8 0.4,0 0.7,-0.3 0.7,-0.7 0,0 0,-0.7 0,-1.5 v -12.8 c 0,-0.4 0,-0.7 0,-0.7 q -0.3,-0.4 -0.7,-0.4 c -0.4,0 -0.7,0 -1.5,0.4 -0.3,0.3 -1.4,1.1 -2.2,1.4 l -0.7,-1.1 z"
       id="path215"
       style="fill-rule:evenodd" />
    <path
       d="m 1046.1,510.4 c 0.7,0 1.5,0.4 1.8,0.7 0.4,0.4 0.4,1.1 0.4,1.9 0,0.3 0,1.1 -0.4,1.8 h 0.4 c 0.7,-1.5 1.8,-2.6 2.6,-3.3 1.1,-0.7 2.2,-1.1 2.9,-1.1 1.1,0 1.8,0.4 2.6,1.1 0.3,0.4 0.7,1.1 0.7,2.2 v 0.7 c 0.7,-1.4 1.8,-2.2 2.6,-2.9 1.1,-0.7 1.8,-1.1 2.9,-1.1 0.7,0 1.5,0.4 2.2,1.1 0.4,0.4 0.7,1.1 0.7,2.2 0,0.7 -0.3,1.5 -0.3,2.9 l -1.1,4.1 c -0.4,1.1 -0.4,1.8 -0.4,2.5 q 0,0.4 0,0.8 0.4,0.3 0.7,0.3 c 0.4,0 0.8,-0.3 1.1,-0.3 0.4,-0.4 0.8,-0.8 1.5,-1.5 l 0.7,0.7 c -0.7,1.1 -1.4,1.9 -2.2,2.2 -0.7,0.4 -1.4,0.8 -2.2,0.8 -0.7,0 -1.4,-0.4 -1.8,-0.8 -0.4,-0.7 -0.4,-1.1 -0.4,-1.8 0,-0.7 0,-1.8 0.4,-3.3 l 0.7,-2.6 c 0.4,-1.1 0.4,-1.8 0.4,-2.2 0,-0.3 0,-0.7 0,-1.1 0,-0.7 0,-1.4 0,-1.4 -0.4,-0.4 -0.7,-0.8 -1.5,-0.8 -0.3,0 -0.7,0.4 -1.4,0.8 -0.4,0.3 -0.8,0.7 -1.5,1.4 -0.4,0.8 -1.1,1.5 -1.5,1.9 -0.3,0.7 -0.3,1.8 -0.7,2.5 l -1.5,7 h -2.5 l 1.8,-8.1 c 0,-0.7 0.4,-1.4 0.4,-2.2 0,-0.3 0,-0.7 0,-1.1 0,-0.7 0,-1.4 -0.4,-1.4 -0.4,-0.4 -0.7,-0.8 -1.1,-0.8 -0.4,0 -1.1,0.4 -1.5,0.8 -0.3,0.3 -1.1,0.7 -1.4,1.4 -0.8,0.8 -1.1,1.5 -1.5,2.2 -0.4,0.8 -0.7,1.5 -0.7,2.2 l -1.5,7 h -2.9 l 2.2,-9.9 c 0.3,-1.1 0.3,-1.8 0.3,-2.6 0,-0.3 0,-0.7 0,-0.7 0,-0.4 -0.3,-0.4 -0.7,-0.4 -0.4,0 -0.7,0.4 -1.1,0.4 -0.4,0.4 -0.7,0.7 -1.5,1.5 l -0.7,-0.8 c 0.7,-1.1 1.5,-1.8 2.2,-2.2 0.7,-0.3 1.5,-0.7 2.2,-0.7 z"
       id="path217"
       style="fill-rule:evenodd" />
    <path
       d="m 1041.3,496.1 h 28.3 V 495 h -28.3 v 1.1 z"
       id="path219" />
    <path
       d="m 1127.1,485.1 h 2.2 v 8.8 h 8.8 v 2.2 h -8.8 v 9.2 h -2.2 v -9.2 h -8.4 v -2.2 h 8.4 z"
       id="path221"
       style="fill-rule:evenodd" />
    <path
       d="m 1152.1,488.8 c 0.7,0 1.1,0.3 1.4,0.7 0.4,0.4 0.8,1.1 0.8,1.8 0,0.4 0,1.1 -0.4,1.9 1.1,-1.5 2.2,-2.6 2.9,-3.3 1.1,-0.8 2.2,-0.8 3,-0.8 1.1,0 1.8,0 2.2,0.8 0.7,0.3 1.1,1.1 1.1,2.2 0,0.7 -0.4,1.8 -0.8,2.9 l -0.7,4 c -0.4,1.1 -0.7,2.2 -0.7,2.6 0,0.4 0.3,0.7 0.3,0.7 0,0.4 0.4,0.4 0.8,0.4 q 0.3,0 0.7,-0.4 c 0.4,-0.3 1.1,-0.7 1.8,-1.4 l 0.8,0.7 c -0.8,1.1 -1.9,1.8 -2.2,2.2 -0.8,0.4 -1.5,0.7 -2.6,0.7 -0.7,0 -1.1,-0.3 -1.5,-0.7 -0.3,-0.4 -0.7,-1.1 -0.7,-1.8 0,-0.8 0.4,-1.9 0.7,-3 l 0.4,-2.9 c 0.4,-0.7 0.7,-1.5 0.7,-2.2 0,-0.4 0,-0.7 0,-1.1 0,-0.7 0,-1.1 -0.3,-1.5 -0.4,-0.3 -0.8,-0.3 -1.1,-0.3 -0.4,0 -1.1,0 -1.5,0.3 -0.4,0.4 -1.1,0.8 -1.5,1.5 -0.7,0.7 -1.1,1.5 -1.4,2.2 -0.4,0.7 -0.8,1.5 -0.8,2.6 l -1.4,6.6 h -3 l 2.2,-9.9 c 0.4,-1.1 0.4,-1.9 0.4,-2.2 0,-0.4 0,-0.8 0,-1.1 -0.4,0 -0.4,-0.4 -0.7,-0.4 -0.4,0 -0.8,0.4 -1.1,0.7 -0.4,0 -0.8,0.8 -1.5,1.5 l -0.7,-1.1 c 0.7,-1.1 1.4,-1.8 2.2,-2.2 0.7,-0.4 1.4,-0.7 2.2,-0.7 z"
       id="path223"
       style="fill-rule:evenodd" />
    <path
       d="m 1175.2,496.1 h 19 v -2.2 h -19 v 2.2 z"
       id="path225" />
    <path
       d="m 1215.1,482.5 h 0.8 c 0,1.1 0,2.6 0,4.1 v 13.5 c 0,0.8 0,1.1 0,1.5 q 0,0.4 0.3,0.7 c 0,0 0.4,0.4 0.8,0.4 0.3,0 0.7,0.4 1.1,0.4 0.7,0 1.1,0 2.2,0 v 1.1 h -11.8 v -1.1 c 1.1,0 1.9,0 2.6,0 0.4,-0.4 0.7,-0.4 1.1,-0.4 0.4,-0.4 0.4,-0.7 0.4,-1.1 0.3,0 0.3,-0.7 0.3,-1.5 v -12.8 c 0,-0.4 0,-0.7 -0.3,-0.7 0,-0.4 -0.4,-0.4 -0.4,-0.4 -0.4,0 -1.1,0 -1.5,0.4 -0.7,0.3 -1.4,1.1 -2.5,1.4 l -0.8,-1.1 z"
       id="path227"
       style="fill-rule:evenodd" />
  </g>
  <defs
     id="defs229">
    <path
       d="m 1042,-11 c 0,0 -48,0 -77,34 0,0 -30,34 -30,88 0,0 0,49 25,143 l 33,129 c 0,0 18,70 23,103 0,0 6,34 6,55 0,0 0,51 -17,74 0,0 -17,23 -56,23 0,0 -31,0 -67,-24 0,0 -36,-23 -76,-73 0,0 -39,-49 -64,-98 0,0 -25,-48 -40,-117 L 634,0 H 505 l 86,379 c 0,0 15,69 21,103 0,0 6,33 6,57 0,0 0,53 -19,76 0,0 -19,23 -60,23 0,0 -28,0 -64,-24 0,0 -36,-23 -77,-75 0,0 -41,-52 -65,-100 0,0 -23,-47 -38,-116 L 224,0 H 95 l 109,473 c 0,0 16,72 16,110 0,0 0,30 -10,44 0,0 -9,13 -30,13 0,0 -23,0 -49,-19 0,0 -26,-19 -71,-69 l -42,42 c 0,0 66,68 113,100 0,0 47,32 104,32 0,0 47,0 74,-31 0,0 27,-31 27,-81 0,0 0,-41 -17,-87 l 9,-3 c 0,0 69,102 137,151 0,0 68,50 137,50 0,0 72,0 109,-41 0,0 37,-40 37,-117 v -10 c 0,0 0,-6 -1,-12 0,0 65,91 128,136 0,0 64,44 133,44 0,0 68,0 106,-39 0,0 37,-40 37,-112 0,0 0,-47 -22,-133 l -48,-196 c 0,0 -20,-81 -20,-114 0,0 0,-30 9,-44 0,0 10,-13 31,-13 0,0 22,0 48,18 0,0 25,18 71,70 l 43,-42 c 0,0 -64,-68 -112,-100 0,0 -48,-31 -109,-31 z"
       transform="scale(0.001,-0.001)"
       id="f0_1fu" />
    <path
       d="m 137,-195 c 0,0 70,102 70,195 H 142 V 163 H 287 V 38 c 0,0 0,-78 -14,-131 0,0 -14,-53 -44,-102 z"
       transform="scale(0.001,-0.001)"
       id="f1_g" />
    <path
       d="m 638,-11 c 0,0 -49,0 -78,34 0,0 -29,34 -29,88 0,0 0,49 25,143 l 33,129 c 0,0 17,70 23,103 0,0 6,34 6,55 0,0 0,51 -17,74 0,0 -18,23 -56,23 0,0 -32,0 -68,-25 0,0 -36,-25 -77,-76 0,0 -40,-50 -65,-97 0,0 -25,-48 -40,-117 L 224,0 H 95 l 109,473 c 0,0 16,72 16,110 0,0 0,30 -10,44 0,0 -9,13 -30,13 0,0 -23,0 -49,-19 0,0 -26,-19 -71,-69 l -42,42 c 0,0 69,71 114,102 0,0 46,30 103,30 0,0 47,0 74,-31 0,0 27,-31 27,-81 0,0 0,-40 -17,-88 l 8,-3 c 0,0 74,103 140,152 0,0 66,50 136,50 0,0 69,0 106,-40 0,0 38,-40 38,-111 0,0 0,-47 -22,-133 L 677,245 c 0,0 -21,-81 -21,-114 0,0 0,-30 10,-44 0,0 10,-13 31,-13 0,0 22,0 47,18 0,0 26,18 72,70 l 43,-42 c 0,0 -65,-69 -112,-100 0,0 -48,-31 -109,-31 z"
       transform="scale(0.001,-0.001)"
       id="f0_1fv" />
    <path
       d="m 524,0 c 0,0 -73,0 -127,9 0,0 -54,9 -97,29 0,0 -43,20 -82,61 0,0 -38,41 -62,90 0,0 -24,49 -36,111 0,0 -12,62 -12,134 0,0 0,118 23,195 0,0 23,77 78,138 0,0 54,60 130,86 0,0 77,26 197,26 H 842 V 775 H 536 c 0,0 -74,0 -120,-8 0,0 -46,-8 -77,-27 0,0 -30,-18 -55,-51 0,0 -25,-34 -39,-83 0,0 -14,-49 -18,-111 H 842 V 392 H 226 c 0,0 4,-70 20,-123 0,0 17,-54 50,-92 0,0 33,-37 86,-55 0,0 52,-18 145,-18 H 842 V 0 z"
       transform="scale(0.001,-0.001)"
       id="f0_15d" />
    <path
       d="m 847,66 v 75 L 376,953 H 257 V 909 L 747,66 z M 87,0 v 37 c 0,0 47,11 62,26 0,0 16,15 21,41 0,0 5,27 5,82 v 646 c 0,0 0,51 -4,75 0,0 -4,23 -12,36 0,0 -9,13 -23,21 0,0 -14,8 -49,18 v 36 H 433 L 693,568 c 0,0 22,-39 63,-114 0,0 40,-76 71,-143 h 12 c 0,0 -8,178 -8,389 v 132 c 0,0 0,56 -3,77 0,0 -4,21 -10,34 0,0 -7,12 -21,20 0,0 -13,9 -50,19 v 36 h 270 v -36 c 0,0 -34,-9 -48,-17 0,0 -13,-7 -22,-19 0,0 -9,-12 -13,-36 0,0 -4,-24 -4,-78 V 0 H 692 L 372,548 c 0,0 -65,113 -100,185 h -6 c 0,0 7,-160 7,-338 V 186 c 0,0 0,-60 6,-86 0,0 5,-25 22,-39 0,0 17,-13 59,-24 V 0 z"
       transform="scale(0.001,-0.001)"
       id="f0_110" />
    <path
       d="M 39,0 424,881 H 537 L 861,0 H 733 L 474,742 160,0 z"
       transform="scale(0.001,-0.001)"
       id="f0_161" />
    <path
       d="m 424,96 c 0,0 119,0 174,106 0,0 55,106 55,325 0,0 0,227 -52,329 0,0 -53,102 -174,102 0,0 -123,0 -177,-100 0,0 -55,-101 -55,-331 0,0 0,-224 55,-328 0,0 55,-103 174,-103 z m -1,-110 c 0,0 -181,0 -272,137 0,0 -91,138 -91,403 0,0 0,271 88,406 0,0 88,135 279,135 0,0 186,0 275,-137 0,0 88,-136 88,-404 0,0 0,-263 -93,-402 0,0 -93,-138 -274,-138 z"
       transform="scale(0.001,-0.001)"
       id="f1_k" />
    <path
       d="M 818,115 75,426 V 579 L 818,891 V 776 L 178,503 818,230 V 115 z"
       transform="scale(0.001,-0.001)"
       id="f1_w" />
    <path
       d="m 114,-81 v 98 h 919 v -98 z m 919,214 -922,359 v 104 l 922,359 V 843 L 234,544 1033,245 V 133 z"
       transform="scale(0.001,-0.001)"
       id="f0_2mq" />
  </defs>
  <style
     type="text/css"
     id="style240" />
</svg>
