<?xml version="1.0" encoding="UTF-8" standalone="no"?>
<svg
   xmlns:dc="http://purl.org/dc/elements/1.1/"
   xmlns:cc="http://creativecommons.org/ns#"
   xmlns:rdf="http://www.w3.org/1999/02/22-rdf-syntax-ns#"
   xmlns:svg="http://www.w3.org/2000/svg"
   xmlns="http://www.w3.org/2000/svg"
   xmlns:sodipodi="http://sodipodi.sourceforge.net/DTD/sodipodi-0.dtd"
   xmlns:inkscape="http://www.inkscape.org/namespaces/inkscape"
   width="240.52524"
   height="76.937782"
   xml:space="preserve"
   overflow="hidden"
   version="1.1"
   id="svg146"
   sodipodi:docname="01-series-raw.svg"
   style="overflow:hidden"
   inkscape:version="0.92.4 (5da689c313, 2019-01-14)"><metadata
   id="metadata152"><rdf:RDF><cc:Work
       rdf:about=""><dc:format>image/svg+xml</dc:format><dc:type
         rdf:resource="http://purl.org/dc/dcmitype/StillImage" /><dc:title></dc:title></cc:Work></rdf:RDF></metadata><defs
   id="defs150" /><sodipodi:namedview
   pagecolor="#ffffff"
   bordercolor="#666666"
   borderopacity="1"
   objecttolerance="10"
   gridtolerance="10"
   guidetolerance="10"
   inkscape:pageopacity="0"
   inkscape:pageshadow="2"
   inkscape:window-width="1939"
   inkscape:window-height="1185"
   id="namedview148"
   showgrid="false"
   inkscape:zoom="1"
   inkscape:cx="51.129888"
   inkscape:cy="-71.165251"
   inkscape:window-x="0"
   inkscape:window-y="0"
   inkscape:window-maximized="0"
   inkscape:current-layer="svg146"
   fit-margin-top="0"
   fit-margin-left="0"
   fit-margin-right="0"
   fit-margin-bottom="0" /><path
   d="m 43.648009,0 v 0.387335 c 0.242385,0.06844 0.413362,0.130675 0.513397,0.18586 0.100231,0.05538 0.180634,0.129045 0.241084,0.22128 0.06065,0.09224 0.10431,0.221005 0.130635,0.38695 0.02632,0.165945 0.03961,0.430995 0.03961,0.794475 v 6.836045 c 0,0.39 -0.01747,0.67958 -0.0518,0.86912 -0.03413,0.189735 -0.106524,0.33618 -0.217089,0.43875 -0.11076,0.102765 -0.329215,0.196075 -0.65584,0.280315 v 0.38733 h 2.892246 v -0.38733 c -0.3003,-0.07897 -0.509857,-0.16574 -0.628417,-0.26051 -0.11856,-0.09497 -0.197311,-0.233395 -0.236896,-0.415135 -0.03939,-0.18174 -0.05941,-0.485685 -0.05941,-0.91254 V 6.60677 c 0,-1.259115 -0.02619,-2.45494 -0.07884,-3.587695 h 0.07122 c 0.242385,0.5109 0.595274,1.164495 1.058789,1.9599 l 3.382411,5.808485 h 2.52091 V 1.9759 c 0,-0.38454 0.016,-0.661415 0.0476,-0.829895 0.0318,-0.168675 0.0776,-0.2949 0.13825,-0.379335 0.06045,-0.08424 0.13959,-0.15263 0.236895,-0.20528 0.0975,-0.05284 0.264855,-0.110875 0.501975,-0.174055 V 0 H 50.6421 v 0.387335 c 0.257985,0.06844 0.434625,0.13321 0.529395,0.193855 0.09477,0.06065 0.165895,0.13431 0.21328,0.22128 0.0474,0.08697 0.08305,0.205195 0.10664,0.355345 0.0238,0.15015 0.0358,0.423015 0.0358,0.818085 v 1.3909 c 0,1.49097 0.02855,2.86597 0.08646,4.125085 H 51.48761 C 51.266285,7.017645 51.01306,6.514695 50.728555,5.98254 50.44405,5.45058 50.22324,5.047665 50.0651,4.77369 L 47.306913,0 Z m 56.247976,0 v 0.387335 c 0.242385,0.06844 0.413745,0.130675 0.513775,0.18586 0.10023,0.05538 0.18064,0.129045 0.24109,0.22128 0.0606,0.09224 0.10393,0.221005 0.13025,0.38695 0.0263,0.165945 0.0396,0.430995 0.0396,0.794475 v 6.836045 c 0,0.39 -0.0171,0.67958 -0.0514,0.86912 -0.0341,0.189735 -0.10691,0.33618 -0.21748,0.43875 -0.11076,0.102765 -0.32921,0.196075 -0.655835,0.280315 v 0.38733 h 2.892625 v -0.38733 c -0.3003,-0.07897 -0.50986,-0.16574 -0.62842,-0.26051 -0.11856,-0.09497 -0.19769,-0.233395 -0.23727,-0.415135 -0.0394,-0.18174 -0.059,-0.485685 -0.059,-0.91254 V 6.60677 c 0,-1.259115 -0.0266,-2.45494 -0.0792,-3.587695 h 0.0712 c 0.24238,0.5109 0.59527,1.164495 1.05879,1.9599 l 3.38279,5.808485 h 2.52091 V 1.9759 c 0,-0.38454 0.0158,-0.661415 0.0476,-0.829895 0.0316,-0.168675 0.0776,-0.2949 0.13825,-0.379335 0.0605,-0.08424 0.1394,-0.15263 0.2369,-0.20528 0.0973,-0.05284 0.26485,-0.110875 0.50197,-0.174055 V 0 h -2.85302 v 0.387335 c 0.25818,0.06844 0.43463,0.13321 0.5294,0.193855 0.0948,0.06065 0.16589,0.13431 0.21328,0.22128 0.0474,0.08697 0.083,0.205195 0.10664,0.355345 0.0238,0.15015 0.0358,0.423015 0.0358,0.818085 v 1.3909 c 0,1.49097 0.0288,2.86597 0.0868,4.125085 h -0.12645 c -0.22133,-0.47424 -0.47417,-0.97719 -0.75867,-1.509345 -0.28451,-0.53196 -0.5057,-0.934875 -0.66384,-1.20885 L 103.55489,0 Z M 0.26850603,0.671835 4.04625,10.79546 H 5.2554785 L 9.6886815,0.671835 H 8.385 L 7.1757715,3.54047 H 2.6865821 L 1.6910156,0.671835 Z m 60.49341897,0 3.777745,10.123625 h 1.209225 L 70.1821,0.671835 H 68.87804 L 67.66919,3.54047 H 63.18038 L 62.184435,0.671835 Z m -15.31207,0.024 h 1.256455 l 4.98659,8.5979 V 10.09202 H 50.63411 L 45.449855,1.154005 Z m 56.247975,0 h 1.25646 l 4.98697,8.5979 v 0.798285 h -1.05917 l -5.18426,-8.938015 z m -67.815817,0.78228 c -0.853516,0 -1.548929,0.09223 -2.086349,0.276505 -0.53742,0.18447 -0.99836,0.488415 -1.382901,0.91254 -0.384733,0.424125 -0.658679,0.9089 -0.821894,1.45412 -0.16341,0.545415 -0.245272,1.23447 -0.245272,2.066925 0,0.511095 0.0422,0.98532 0.126445,1.42251 0.08424,0.437385 0.210856,0.829735 0.379336,1.177615 0.168675,0.347685 0.388783,0.66511 0.660028,0.95215 0.27144,0.287235 0.559747,0.50188 0.865313,0.644035 0.305565,0.14235 0.64809,0.24474 1.02756,0.308115 0.379275,0.06318 0.826931,0.09483 1.343291,0.09483 h 3.374414 V 9.689065 h -3.342803 c -0.65325,0 -1.165675,-0.06312 -1.53715,-0.18967 C 31.870556,9.373035 31.567692,9.176565 31.333302,8.910585 31.098912,8.64441 30.923547,8.32191 30.807717,7.94244 30.691887,7.563165 30.620761,7.128415 30.594436,6.63838 h 6.527548 v -1.0984 h -6.519932 c 0.02632,-0.437385 0.09001,-0.82847 0.190049,-1.173425 0.100035,-0.34515 0.23828,-0.63619 0.414755,-0.87331 0.176475,-0.23712 0.372748,-0.42011 0.588808,-0.5492 0.21606,-0.12909 0.485999,-0.22278 0.810089,-0.280695 0.32409,-0.05791 0.746637,-0.08683 1.26826,-0.08683 h 3.247971 v -1.0984 z m 56.247977,0 c -0.853515,0 -1.548925,0.09223 -2.086345,0.276505 -0.53742,0.18447 -0.99836,0.488415 -1.3829,0.91254 -0.384735,0.424125 -0.65868,0.9089 -0.821895,1.45412 -0.16341,0.545415 -0.244895,1.23447 -0.244895,2.066925 0,0.511095 0.0422,0.98532 0.126445,1.42251 0.08424,0.437385 0.210855,0.829735 0.379335,1.177615 0.168675,0.347685 0.388405,0.66511 0.65965,0.95215 0.27144,0.287235 0.55975,0.50188 0.865315,0.644035 0.305565,0.14235 0.648085,0.24474 1.027555,0.308115 0.379275,0.06318 0.82713,0.09483 1.343295,0.09483 h 3.37441 V 9.689065 h -3.3428 c -0.65325,0 -1.165295,-0.06312 -1.53677,-0.18967 C 88.118915,9.373035 87.815865,9.176565 87.58128,8.910585 87.34689,8.64441 87.17172,8.32191 87.055695,7.94244 86.939865,7.563165 86.86874,7.128415 86.842415,6.63838 h 6.527545 v -1.0984 h -6.51955 c 0.0263,-0.437385 0.08964,-0.82847 0.18967,-1.173425 0.100035,-0.34515 0.23828,-0.63619 0.414755,-0.87331 0.176475,-0.23712 0.37275,-0.42011 0.58881,-0.5492 0.21606,-0.12909 0.485995,-0.22278 0.810085,-0.280695 0.32409,-0.05791 0.74702,-0.08683 1.268645,-0.08683 H 93.36996 V 1.47812 Z M 12.425538,3.09791 c -0.400531,0 -0.767968,0.11206 -1.102588,0.33592 -0.33462,0.224055 -0.733713,0.5784 -1.197422,1.062975 l 0.450556,0.44256 C 10.892179,4.586415 11.14121,4.34285 11.32295,4.208495 11.50469,4.07414 11.677127,4.00702 11.840538,4.00702 c 0.147419,0 0.255666,0.0473 0.324111,0.142065 0.06864,0.09477 0.102832,0.24776 0.102832,0.458555 0,0.273975 -0.05822,0.663785 -0.174054,1.169615 l -1.153622,5.010205 h 1.366904 l 0.751054,-3.42164 c 0.110566,-0.48477 0.247352,-0.89587 0.410566,-1.23322 0.163411,-0.337155 0.390065,-0.68877 0.679835,-1.05498 0.28977,-0.36621 0.562635,-0.631955 0.818085,-0.7979 0.255645,-0.165945 0.483378,-0.249085 0.683643,-0.249085 0.284505,0 0.493683,0.0804 0.628038,0.241085 0.134355,0.16068 0.201474,0.43043 0.201474,0.809705 0,0.168675 -0.01944,0.37022 -0.05903,0.604805 -0.03939,0.23439 -0.114708,0.59656 -0.225469,1.086595 l -0.908731,4.014635 h 1.367285 l 0.719063,-3.45325 c 0.1053,-0.490035 0.246279,-0.90534 0.422754,-1.24503 0.176475,-0.339885 0.404403,-0.68476 0.683643,-1.035175 0.27924,-0.35022 0.545366,-0.60834 0.798281,-0.774285 0.252916,-0.165945 0.489934,-0.249085 0.711064,-0.249085 0.273975,0 0.471709,0.0804 0.592999,0.241085 0.121095,0.16068 0.18167,0.4228 0.18167,0.786475 0,0.14742 -0.01983,0.3395 -0.05941,0.57662 -0.03958,0.23712 -0.122526,0.60348 -0.249081,1.09878 L 20.106716,8.1005 c -0.173745,0.66378 -0.260508,1.166925 -0.260508,1.509345 0,0.37947 0.102781,0.691615 0.308115,0.936535 0.20553,0.24492 0.479476,0.367525 0.821896,0.367525 0.43212,0 0.816467,-0.113135 1.153622,-0.339725 0.337155,-0.22659 0.732631,-0.579665 1.185616,-1.05917 L 22.864892,9.072835 c -0.326625,0.36348 -0.57928,0.609775 -0.75829,0.738865 -0.179205,0.12909 -0.348212,0.193475 -0.506162,0.193475 -0.147615,0 -0.255471,-0.04745 -0.324111,-0.14244 -0.06845,-0.09477 -0.102451,-0.247575 -0.102451,-0.458175 0,-0.23712 0.07093,-0.64257 0.213281,-1.216845 l 0.513778,-2.07073 c 0.15288,-0.61113 0.228897,-1.082625 0.228897,-1.414515 0,-0.50583 -0.131506,-0.898375 -0.394951,-1.177615 -0.263445,-0.27924 -0.63724,-0.418945 -1.12201,-0.418945 -0.48477,0 -0.952638,0.1568 -1.403088,0.47036 -0.45045,0.313365 -0.901918,0.7914 -1.355099,1.434315 0.0053,-0.0423 0.008,-0.08159 0.008,-0.118445 V 4.78131 c 0,-0.542685 -0.131886,-0.957415 -0.39533,-1.24465 -0.263446,-0.28704 -0.647795,-0.43075 -1.153624,-0.43075 -0.490035,0 -0.974616,0.17517 -1.454121,0.525585 -0.479505,0.35022 -0.961549,0.88648 -1.446124,1.60837 l -0.09521,-0.0316 c 0.12129,-0.326625 0.18167,-0.63496 0.18167,-0.92473 0,-0.35295 -0.09604,-0.63872 -0.288309,-0.857315 -0.192271,-0.218595 -0.454205,-0.3283 -0.786094,-0.3283 z m 60.493417,0 c -0.405795,0 -0.76942,0.106975 -1.09078,0.320305 -0.32136,0.213525 -0.72446,0.572955 -1.20923,1.07859 l 0.45056,0.44256 C 71.3856,4.586415 71.63463,4.34285 71.81637,4.208495 71.99811,4.07414 72.170545,4.00702 72.333955,4.00702 c 0.14742,0 0.255665,0.0473 0.32411,0.142065 0.06845,0.09477 0.102835,0.24776 0.102835,0.458555 0,0.273975 -0.05803,0.663785 -0.174055,1.169615 l -1.15362,5.010205 h 1.367285 l 0.75067,-3.42164 c 0.110565,-0.490035 0.25282,-0.90241 0.426565,-1.23703 0.17394,-0.334425 0.4046,-0.679495 0.69164,-1.035175 0.287235,-0.35568 0.55825,-0.621805 0.813895,-0.79828 0.25545,-0.176475 0.494125,-0.2647 0.715255,-0.2647 0.273975,0 0.471525,0.0804 0.59262,0.241085 0.121095,0.16068 0.18167,0.4228 0.18167,0.786475 0,0.14742 -0.01945,0.3395 -0.05903,0.57662 -0.0394,0.23712 -0.12272,0.60348 -0.24908,1.09878 L 76.31699,8.1005 c -0.17375,0.66378 -0.26051,1.166925 -0.26051,1.509345 0,0.37947 0.102585,0.691615 0.308115,0.936535 0.205335,0.24492 0.479475,0.367525 0.821895,0.367525 0.43212,0 0.816465,-0.112055 1.153625,-0.335915 0.33735,-0.22386 0.73263,-0.57821 1.185615,-1.06298 L 79.07517,9.072835 c -0.326625,0.36348 -0.579665,0.609775 -0.758675,0.738865 -0.179205,0.12909 -0.347635,0.193475 -0.50578,0.193475 -0.14742,0 -0.255475,-0.04745 -0.324115,-0.14244 -0.06844,-0.09477 -0.10245,-0.247575 -0.10245,-0.458175 0,-0.23712 0.07093,-0.64257 0.21328,-1.216845 l 0.5134,-2.07073 c 0.15288,-0.61113 0.22928,-1.082625 0.22928,-1.414515 0,-0.500565 -0.13151,-0.89203 -0.394955,-1.173805 -0.263445,-0.28197 -0.64017,-0.422755 -1.13001,-0.422755 -0.4953,0 -0.976445,0.17517 -1.442695,0.525585 -0.46624,0.35022 -0.957185,0.889025 -1.473545,1.615985 l -0.09483,-0.0316 c 0.12636,-0.34242 0.189665,-0.653105 0.189665,-0.932345 0,-0.35295 -0.09642,-0.63872 -0.28869,-0.857315 -0.19227,-0.218595 -0.454205,-0.3283 -0.786095,-0.3283 z M 3.0583009,4.623255 H 6.717217 l -1.9995118,4.69447 z m 60.4934191,0 h 3.658915 l -1.99913,4.69447 z M 114.05748,6.5504 c -0.38337,0 -0.73533,0.07859 -1.05688,0.23537 -0.32136,0.156975 -0.59931,0.395085 -0.8337,0.714495 -0.2342,0.31941 -0.4159,0.72105 -0.54577,1.20504 -0.12968,0.48399 -0.19462,1.05698 -0.19462,1.7192 0,1.266135 0.20919,2.210935 0.62727,2.83435 0.41827,0.62342 1.05711,0.935015 1.91687,0.935015 0.86716,0 1.5293,-0.33016 1.98618,-0.990235 0.45689,-0.66027 0.68555,-1.6349 0.68555,-2.92424 0,-0.58071 -0.0487,-1.1015 -0.14549,-1.562285 C 116.40019,8.256325 116.24809,7.86614 116.041,7.54673 115.83391,7.22732 115.56688,6.981385 115.23967,6.809005 114.91246,6.63682 114.51827,6.5504 114.05748,6.5504 Z m -0.0233,0.563675 c 0.22854,0 0.43081,0.06566 0.60709,0.197285 0.17608,0.131625 0.32215,0.3359 0.43837,0.6128 0.11602,0.2769 0.20645,0.630155 0.27041,1.059935 0.0638,0.42978 0.0956,0.94274 0.0956,1.53905 0,0.5304 -0.0291,0.990255 -0.0872,1.379475 -0.0581,0.38922 -0.14396,0.710835 -0.25822,0.964335 -0.11427,0.253695 -0.25852,0.440505 -0.43266,0.560625 -0.17433,0.119925 -0.3777,0.179765 -0.61014,0.179765 -0.24765,0 -0.46066,-0.06385 -0.6387,-0.191575 -0.17803,-0.127725 -0.32629,-0.32728 -0.44446,-0.59833 -0.11798,-0.27105 -0.20511,-0.616665 -0.26127,-1.036695 -0.0562,-0.420225 -0.0842,-0.91863 -0.0842,-1.495635 0,-0.49959 0.022,-0.9456 0.0666,-1.33872 0.0444,-0.392925 0.12014,-0.725995 0.22661,-0.998995 0.10647,-0.273 0.25072,-0.48019 0.43266,-0.621565 0.18213,-0.14118 0.4084,-0.211755 0.67945,-0.211755 z m -58.6333,1.83993 c 0.03685,0.389805 0.05523,0.785085 0.05523,1.185615 0,0.389805 -0.0262,0.713775 -0.07884,0.971955 -0.05285,0.25818 -0.1396,0.48884 -0.26089,0.69164 -0.121095,0.2028 -0.31629,0.43054 -0.585,0.68326 l 0.426945,0.48217 c 0.484575,-0.363675 0.86511,-0.696925 1.141815,-0.999755 0.27651,-0.30303 0.478445,-0.606975 0.604805,-0.91254 0.126555,-0.305565 0.18967,-0.643005 0.18967,-1.011945 0,-0.358215 -0.03695,-0.721655 -0.11083,-1.0904 z m -9.187853,8.3492 c -1.92816,0.379275 -3.429779,1.6726 -4.504424,3.880195 -1.07484,2.207595 -1.612178,5.118405 -1.612178,8.732725 0,1.52256 0.166972,3.47583 0.501592,5.8599 0.334426,2.38407 0.501973,4.04465 0.501973,4.98241 0,1.99153 -0.280685,3.4695 -0.8417,4.43358 -0.561015,0.96408 -1.32101,1.46487 -2.279825,1.50173 v 0.85351 c 0.958815,0.0211 1.71881,0.53348 2.279825,1.53714 0.561015,1.00367 0.8417,2.46669 0.8417,4.38978 0,0.73223 -0.167547,2.51198 -0.501973,5.33851 -0.33462,2.82652 -0.501592,4.93006 -0.501592,6.31046 0,3.38773 0.591173,6.14829 1.774043,8.28217 1.182675,2.13369 2.630264,3.31134 4.342559,3.53247 v -0.79029 c -0.67431,-0.16867 -1.28297,-0.52429 -1.82546,-1.06678 -0.542685,-0.54269 -1.019643,-1.2803 -1.430508,-2.2128 -0.4056,-0.93248 -0.707386,-2.01517 -0.904921,-3.24796 -0.197535,-1.23279 -0.296308,-2.63436 -0.296308,-4.20431 0,-0.62185 0.155341,-2.48544 0.466171,-5.5914 0.31083,-3.10576 0.466553,-4.85348 0.466553,-5.24329 0,-2.03365 -0.324155,-3.69734 -0.972335,-4.99078 -0.647985,-1.29343 -1.335393,-2.08253 -2.062353,-2.36704 v -0.20528 c 0.72696,-0.29503 1.414368,-1.08922 2.062353,-2.38266 0.64818,-1.29343 0.972335,-2.95477 0.972335,-4.98316 0,-0.71643 -0.155723,-2.40084 -0.466553,-5.05363 -0.31083,-2.65258 -0.466171,-4.58221 -0.466171,-5.78868 0,-1.55414 0.105317,-2.95464 0.316112,-4.20049 0.210795,-1.24605 0.511308,-2.323465 0.901113,-3.23236 0.389805,-0.908895 0.858565,-1.64085 1.406513,-2.196795 0.547952,-0.55575 1.159149,-0.918115 1.833459,-1.086595 z m 5.807723,4.771405 c -0.511095,0 -0.98277,0.110405 -1.41489,0.33173 -0.431925,0.221325 -0.801912,0.56239 -1.110207,1.023375 -0.3081,0.46097 -0.547853,1.04453 -0.719063,1.75043 -0.17121,0.7059 -0.25708,1.54375 -0.25708,2.51329 0,1.82286 0.278138,3.18222 0.834083,4.07786 0.55575,0.89563 1.402692,1.34329 2.540712,1.34329 1.15908,0 2.040215,-0.47804 2.643545,-1.43432 0.603135,-0.95628 0.90454,-2.36693 0.90454,-4.23211 0,-1.8018 -0.28176,-3.14788 -0.845505,-4.03825 -0.563745,-0.89037 -1.42232,-1.335295 -2.576135,-1.335295 z m 185.08204,0 c -0.5109,0 -0.9828,0.110405 -1.41375,0.33173 -0.4329,0.221325 -0.80324,0.56239 -1.11134,1.023375 -0.3081,0.46097 -0.54823,1.04453 -0.71982,1.75043 -0.16965,0.7059 -0.25518,1.54375 -0.25518,2.51329 0,1.82286 0.27682,3.18222 0.83257,4.07786 0.55575,0.89563 1.40386,1.34329 2.54071,1.34329 1.16025,0 2.0398,-0.47804 2.6443,-1.43432 0.60255,-0.95628 0.90491,-2.36693 0.90491,-4.23211 0,-1.8018 -0.28271,-3.14788 -0.84626,-4.03825 -0.56355,-0.89037 -1.42174,-1.335295 -2.57614,-1.335295 z m -185.1216,0.671835 c 0.40053,0 0.741595,0.16316 1.02337,0.48979 0.28197,0.32662 0.50208,0.86524 0.66003,1.61599 0.158145,0.75075 0.236895,1.73211 0.236895,2.94404 0,1.58574 -0.15407,2.75665 -0.462365,3.51267 -0.3081,0.75601 -0.780865,1.13419 -1.41832,1.13419 -0.66924,0 -1.163295,-0.40202 -1.481925,-1.20542 -0.318825,-0.8034 -0.477975,-2.06399 -0.477975,-3.78155 0,-0.73242 0.03165,-1.38944 0.09484,-1.97171 0.06338,-0.58207 0.16977,-1.07613 0.31992,-1.48192 0.15015,-0.4056 0.3477,-0.71628 0.59262,-0.93234 0.245115,-0.216065 0.549435,-0.32374 0.912915,-0.32374 z m 185.08281,0 c 0.39975,0 0.741,0.16316 1.02375,0.48979 0.2808,0.32662 0.50093,0.86524 0.65888,1.61599 0.15795,0.75075 0.23804,1.73211 0.23804,2.94404 0,1.58574 -0.15421,2.75665 -0.46426,3.51267 -0.3081,0.75601 -0.77992,1.13419 -1.41757,1.13419 -0.66885,0 -1.16212,-0.40202 -1.48192,-1.20542 -0.31785,-0.8034 -0.47796,-2.06399 -0.47796,-3.78155 0,-0.73242 0.0312,-1.38944 0.0956,-1.97171 0.0624,-0.58207 0.16977,-1.07613 0.31992,-1.48192 0.15015,-0.4056 0.3473,-0.71628 0.593,-0.93234 0.24375,-0.216065 0.54789,-0.32374 0.91254,-0.32374 z m -32.54558,2.55252 c -0.4056,0 -0.76826,0.1066 -1.09001,0.31993 -0.32175,0.21352 -0.72368,0.57295 -1.20923,1.07859 l 0.45056,0.44256 c 0.3159,-0.35295 0.5655,-0.59652 0.74685,-0.73087 0.18135,-0.13436 0.35498,-0.20148 0.51683,-0.20148 0.1482,0 0.25545,0.0473 0.32565,0.14207 0.0682,0.0948 0.1013,0.24775 0.1013,0.45855 0,0.27397 -0.0567,0.66379 -0.17366,1.16962 l -1.1544,5.0102 h 1.36919 l 0.75067,-3.42164 c 0.1092,-0.49003 0.25149,-0.90241 0.42504,-1.23703 0.1755,-0.33462 0.40576,-0.67949 0.69241,-1.03517 0.28665,-0.35568 0.55768,-0.62181 0.81313,-0.79828 0.2574,-0.17648 0.49528,-0.2647 0.71563,-0.2647 0.27495,0 0.47172,0.0804 0.59262,0.24108 0.1209,0.16068 0.18129,0.4228 0.18129,0.78648 0,0.14742 -0.0193,0.3395 -0.0583,0.57661 -0.039,0.23713 -0.1231,0.6033 -0.24985,1.09841 l -0.34697,1.36728 c -0.17355,0.66378 -0.26126,1.16692 -0.26126,1.50935 0,0.37947 0.10337,0.69161 0.30812,0.93653 0.2067,0.24492 0.47984,0.36753 0.82304,0.36753 0.43095,0 0.81703,-0.11206 1.15438,-0.33592 0.3354,-0.22386 0.73092,-0.57783 1.18332,-1.0626 l -0.45018,-0.44255 c -0.32565,0.36348 -0.57927,0.60977 -0.75867,0.73886 -0.17745,0.12909 -0.34706,0.19348 -0.50501,0.19348 -0.1482,0 -0.25549,-0.0474 -0.32374,-0.14245 -0.0683,-0.0948 -0.10321,-0.24757 -0.10321,-0.45817 0,-0.23712 0.0721,-0.64276 0.21442,-1.21684 l 0.51264,-2.07074 c 0.1521,-0.61113 0.23043,-1.08262 0.23043,-1.41451 0,-0.50056 -0.13286,-0.89165 -0.39611,-1.17342 -0.26325,-0.28197 -0.63936,-0.42314 -1.13076,-0.42314 -0.4953,0 -0.97512,0.17517 -1.44117,0.52559 -0.46605,0.35022 -0.95757,0.88902 -1.47432,1.61598 l -0.0956,-0.0316 c 0.12675,-0.34242 0.1912,-0.65311 0.1912,-0.93234 0,-0.35295 -0.0976,-0.63872 -0.2887,-0.85732 -0.19305,-0.21859 -0.45417,-0.32792 -0.78762,-0.32792 z m 12.70815,0.90074 v 1.05117 h 9.73627 v -1.05118 z m 0,3.27958 v 1.05117 h 9.73627 v -1.05117 z m -85.88571,8.70035 -3.69928,2.20517 0.34696,0.60824 c 0.46019,-0.30557 0.84433,-0.54513 1.15438,-0.71907 0.312,-0.17374 0.55212,-0.2605 0.71982,-0.2605 0.14235,0 0.24963,0.0487 0.32373,0.14625 0.0741,0.0973 0.11083,0.25137 0.11083,0.46197 v 6.40911 c 0,0.36874 -0.031,0.63507 -0.0914,0.79828 -0.0605,0.16341 -0.1561,0.28964 -0.2887,0.37934 -0.13065,0.0895 -0.32168,0.15662 -0.57128,0.20147 -0.25155,0.0448 -0.66879,0.0803 -1.25379,0.10664 v 0.577 h 5.8401 v -0.577 c -0.4056,-0.0105 -0.73116,-0.03 -0.97881,-0.059 -0.24765,-0.0289 -0.45434,-0.0713 -0.61814,-0.12645 -0.16185,-0.0554 -0.28663,-0.13197 -0.37438,-0.22927 -0.0877,-0.0975 -0.14814,-0.22393 -0.18129,-0.37935 -0.0351,-0.15541 -0.0529,-0.38606 -0.0529,-0.69163 v -6.74883 c 0,-0.89563 0.0175,-1.59651 0.0487,-2.10234 z m 28.65891,0 c -0.7176,0 -1.34911,0.12915 -1.89706,0.38733 -0.54795,0.25818 -0.9714,0.62454 -1.2717,1.09878 -0.30029,0.47404 -0.45017,1.02175 -0.45017,1.64341 0,0.39 0.076,0.74307 0.22814,1.05917 0.15209,0.31609 0.35883,0.60186 0.61623,0.85731 0.25935,0.25565 0.58271,0.51503 0.97271,0.77848 0.43095,0.28977 0.76246,0.54662 0.99061,0.77048 0.2301,0.22405 0.40182,0.45853 0.51492,0.70345 0.1131,0.24511 0.16949,0.52833 0.16949,0.84969 0,0.69556 -0.2044,1.2378 -0.61585,1.6278 -0.41145,0.3898 -0.97532,0.585 -1.69292,0.585 -0.6201,0 -1.07998,-0.1568 -1.37833,-0.47036 -0.2964,-0.31337 -0.44675,-0.79161 -0.44675,-1.43433 h -0.75867 l -0.47379,2.17319 c 0.44265,0.12109 0.94394,0.22132 1.50554,0.30049 0.5616,0.079 1.08397,0.11845 1.56952,0.11845 0.71565,0 1.35531,-0.13569 1.91496,-0.40714 0.5616,-0.27124 0.99673,-0.65578 1.30482,-1.15361 0.3081,-0.49803 0.46199,-1.06829 0.46199,-1.71121 0,-0.41613 -0.0644,-0.7823 -0.1931,-1.09839 -0.1287,-0.3161 -0.32956,-0.61496 -0.60061,-0.89693 -0.27105,-0.28178 -0.66506,-0.60193 -1.18181,-0.96015 -0.59085,-0.40559 -0.98839,-0.75741 -1.19704,-1.05498 -0.20865,-0.29776 -0.31192,-0.6441 -0.31192,-1.03936 0,-0.37928 0.0858,-0.72289 0.26127,-1.03099 0.17355,-0.30829 0.42484,-0.55224 0.75829,-0.73125 0.3315,-0.17921 0.71567,-0.26851 1.15247,-0.26851 0.35881,0 0.64544,0.0551 0.86189,0.16568 0.21645,0.11056 0.38235,0.29393 0.4974,0.54958 0.117,0.25545 0.18536,0.60706 0.20681,1.05498 h 0.75829 l 0.44294,-2.03113 c -0.50115,-0.15795 -0.9577,-0.27 -1.3711,-0.33591 -0.4134,-0.0659 -0.86388,-0.099 -1.34747,-0.099 z M 5.492353,40.825465 c -0.7166249,0 -1.3487295,0.12877 -1.8966794,0.38695 -0.5479502,0.25818 -0.9721513,0.62473 -1.2724513,1.09878 -0.3003,0.47424 -0.4505567,1.02213 -0.4505567,1.64379 0,0.3898 0.076592,0.7425 0.2292773,1.05879 0.15288,0.31609 0.3582457,0.60205 0.6162307,0.85769 0.2581799,0.25545 0.5825289,0.51503 0.9723339,0.77848 0.43212,0.28977 0.7626327,0.54624 0.9917577,0.7701 0.22932,0.22386 0.4004843,0.45852 0.5137793,0.70344 0.113295,0.24492 0.169863,0.52834 0.169863,0.8497 0,0.69537 -0.205746,1.23799 -0.6166111,1.6278 -0.410865,0.39 -0.9743905,0.585 -1.6910155,0.585 -0.62166,0 -1.081327,-0.15681 -1.3790919,-0.47037 -0.2975701,-0.31356 -0.4467479,-0.7914 -0.4467479,-1.43431 H 0.47417 L 0,51.454485 c 0.44265,0.12129 0.94414125,0.22152 1.5051562,0.30049 0.56121,0.0792 1.0839899,0.11845 1.5687599,0.11845 0.716625,0 1.3554693,-0.13569 1.9164843,-0.40714 0.5610151,-0.27124 0.9957676,-0.65578 1.3040626,-1.15361 0.308295,-0.49784 0.462363,-1.0681 0.462363,-1.71082 0,-0.41614 -0.064386,-0.78231 -0.193476,-1.0984 -0.12909,-0.3161 -0.3293705,-0.61553 -0.6006155,-0.89731 -0.27144,-0.28197 -0.665447,-0.60193 -1.1818068,-0.96014 -0.59007,-0.4058 -0.9889759,-0.75722 -1.1970409,-1.05499 -0.2080649,-0.29757 -0.3123047,-0.64429 -0.3123047,-1.03936 0,-0.37928 0.086949,-0.72307 0.2608887,-1.03137 0.173745,-0.3081 0.4267819,-0.55166 0.7586719,-0.73087 0.33189,-0.17901 0.7164328,-0.26888 1.1536228,-0.26888 0.35841,0 0.645444,0.0557 0.861504,0.16643 0.21606,0.11057 0.381953,0.29337 0.497783,0.54881 0.11583,0.25565 0.1846045,0.60745 0.2056645,1.05537 h 0.7586715 l 0.442559,-2.03112 c -0.500565,-0.15795 -0.957499,-0.2702 -1.371094,-0.33592 -0.413595,-0.0659 -0.8629055,-0.0986 -1.3474805,-0.0986 z m 94.466837,0.5789 c -0.4056,0 -0.76904,0.1066 -1.0904,0.31993 -0.321555,0.21333 -0.72446,0.57276 -1.20923,1.07859 l 0.450555,0.44255 c 0.316095,-0.35294 0.56513,-0.59651 0.74687,-0.73087 0.18174,-0.13435 0.35399,-0.20147 0.517205,-0.20147 0.147615,0 0.255665,0.0471 0.32411,0.14206 0.06844,0.0948 0.102835,0.24796 0.102835,0.45856 0,0.27397 -0.05765,0.66398 -0.173675,1.16961 l -1.154005,5.01021 h 1.367285 l 0.75067,-3.42202 c 0.11057,-0.48984 0.25301,-0.90223 0.42695,-1.23665 0.17394,-0.33462 0.40422,-0.67969 0.69126,-1.03518 0.28723,-0.35568 0.55844,-0.62161 0.81389,-0.79828 0.25565,-0.17648 0.49393,-0.2647 0.71526,-0.2647 0.27397,0 0.47171,0.0804 0.593,0.24109 0.12109,0.16068 0.18167,0.42261 0.18167,0.78609 0,0.14762 -0.0199,0.33988 -0.0594,0.577 -0.0396,0.23712 -0.12253,0.6031 -0.24908,1.0984 l -0.34734,1.36729 c -0.17375,0.66397 -0.26089,1.16692 -0.26089,1.50934 0,0.37928 0.10278,0.6918 0.30811,0.93692 0.20553,0.24492 0.47948,0.36714 0.8219,0.36714 0.43212,0 0.81685,-0.11167 1.154,-0.33553 0.33716,-0.22406 0.73225,-0.57841 1.18523,-1.06298 l -0.45055,-0.44294 c -0.32663,0.36367 -0.57928,0.61016 -0.75829,0.73925 -0.17921,0.12889 -0.34783,0.19347 -0.50578,0.19347 -0.14762,0 -0.25567,-0.0473 -0.32412,-0.14206 -0.0684,-0.0948 -0.10283,-0.24776 -0.10283,-0.45855 0,-0.23693 0.0709,-0.64295 0.21328,-1.21723 l 0.51378,-2.07035 c 0.15269,-0.61113 0.22928,-1.08262 0.22928,-1.41451 0,-0.50057 -0.13189,-0.89184 -0.39533,-1.17381 -0.26345,-0.28178 -0.63998,-0.42275 -1.13001,-0.42275 -0.49511,0 -0.97607,0.17517 -1.44232,0.52558 -0.46624,0.35042 -0.95756,0.88903 -1.47392,1.61599 l -0.0948,-0.0312 c 0.12656,-0.34242 0.18967,-0.65349 0.18967,-0.93273 0,-0.35314 -0.096,-0.6389 -0.2883,-0.85769 -0.19227,-0.2186 -0.45439,-0.32754 -0.78648,-0.32754 z m 11.81273,2.53653 v 1.05117 h 9.73668 v -1.05117 z m 28.15274,0 v 1.05117 h 9.73629 v -1.05117 z m 42.45745,0.95634 c -0.4836,0.25954 -0.96132,0.51984 -1.43127,0.78113 -0.46995,0.2615 -0.94586,0.52399 -1.42556,0.78724 0.0448,0.093 0.0896,0.18358 0.13254,0.2727 0.0429,0.0891 0.0898,0.17824 0.14054,0.26736 0.3744,-0.24394 0.68039,-0.42804 0.91634,-0.55187 0.23595,-0.12402 0.41541,-0.18585 0.53435,-0.18585 0.1092,0 0.19096,0.0309 0.24946,0.0929 0.0585,0.062 0.088,0.16861 0.088,0.31955 v 4.16432 c 0,0.13162 -0.008,0.24222 -0.0198,0.33134 -0.0136,0.0891 -0.0329,0.16422 -0.0564,0.22623 -0.0234,0.0618 -0.0547,0.11311 -0.0918,0.15387 -0.039,0.0406 -0.0856,0.0786 -0.14016,0.1135 -0.0507,0.031 -0.10923,0.0572 -0.17748,0.0785 -0.0683,0.0212 -0.15812,0.0403 -0.26927,0.0579 -0.1131,0.0173 -0.24762,0.031 -0.40752,0.0408 -0.15795,0.01 -0.35109,0.0181 -0.58119,0.0259 v 0.50539 h 4.60612 v -0.50539 c -0.23595,-0.004 -0.43863,-0.0104 -0.60633,-0.0202 -0.1677,-0.01 -0.31214,-0.0232 -0.43304,-0.0407 -0.11895,-0.0174 -0.21831,-0.0385 -0.29631,-0.0636 -0.0761,-0.0251 -0.13868,-0.061 -0.18548,-0.1074 -0.039,-0.031 -0.072,-0.0679 -0.1013,-0.11045 -0.0293,-0.0427 -0.0525,-0.094 -0.0701,-0.15387 -0.0175,-0.06 -0.0296,-0.13392 -0.0373,-0.22089 -0.008,-0.0872 -0.0115,-0.19066 -0.0115,-0.31078 v -4.41416 c 0,-0.15484 -5e-5,-0.31164 0.002,-0.47036 0.002,-0.15873 0.006,-0.32245 0.01,-0.49093 0.004,-0.16848 0.01,-0.35911 0.0175,-0.57205 z m -160.606113,0.0533 v 1.05116 h 9.736289 v -1.05116 z m 142.511863,1.49754 c -0.1599,0 -0.31007,0.0215 -0.45437,0.064 -0.14235,0.0427 -0.2864,0.10927 -0.43265,0.20033 -0.1443,0.0911 -0.29866,0.20711 -0.45856,0.34849 -0.1599,0.14137 -0.33706,0.31072 -0.53206,0.50806 l 0.40143,0.37744 c 0.117,-0.11993 0.22061,-0.22434 0.31421,-0.31345 0.0917,-0.0891 0.17908,-0.16279 0.25708,-0.2209 0.0799,-0.0581 0.15636,-0.10159 0.22851,-0.13064 0.0702,-0.029 0.14199,-0.0434 0.21024,-0.0434 0.22815,0 0.34353,0.14115 0.34353,0.4239 0,0.10062 -0.012,0.23031 -0.0354,0.38924 -0.0234,0.15873 -0.0602,0.33862 -0.10892,0.54006 l -0.87179,3.78687 h 1.13877 l 0.64937,-2.91547 c 0.039,-0.17804 0.0993,-0.35721 0.18319,-0.53739 0.0838,-0.17999 0.17953,-0.35225 0.28678,-0.51683 0.1092,-0.16458 0.22813,-0.31937 0.35878,-0.46464 0.1287,-0.14508 0.26149,-0.27115 0.39799,-0.37782 0.13455,-0.10647 0.26878,-0.1896 0.40333,-0.24946 0.1326,-0.0601 0.25739,-0.0903 0.37439,-0.0903 0.20085,0 0.3471,0.0564 0.43875,0.16872 0.0897,0.11232 0.13672,0.2882 0.13672,0.52825 0,0.10081 -0.0139,0.2276 -0.0393,0.38048 -0.0253,0.15307 -0.0603,0.32733 -0.10321,0.52292 -0.0448,0.19558 -0.0976,0.4084 -0.15806,0.6387 -0.0605,0.23049 -0.12479,0.4717 -0.19499,0.72325 -0.0643,0.24785 -0.11501,0.47541 -0.14816,0.6825 -0.0312,0.20728 -0.0488,0.38827 -0.0488,0.5431 0,0.15483 0.0237,0.29689 0.0705,0.42657 0.0468,0.12986 0.1111,0.24209 0.1969,0.33706 0.0858,0.0948 0.18726,0.16935 0.30621,0.22356 0.117,0.0542 0.24541,0.0815 0.38581,0.0815 0.16575,0 0.32178,-0.0226 0.46998,-0.067 0.14625,-0.0444 0.2947,-0.11213 0.44485,-0.203 0.1482,-0.0911 0.30208,-0.20639 0.46198,-0.34582 0.15795,-0.13923 0.33144,-0.30567 0.52254,-0.4993 l -0.40181,-0.38352 c -0.117,0.12772 -0.22023,0.23723 -0.31383,0.32829 -0.0916,0.0909 -0.17755,0.16545 -0.25555,0.22356 -0.078,0.0579 -0.1518,0.10087 -0.22395,0.12797 -0.0702,0.0271 -0.14261,0.0403 -0.21671,0.0403 -0.1209,0 -0.20667,-0.0327 -0.26127,-0.0986 -0.0546,-0.0659 -0.0819,-0.17251 -0.0819,-0.31954 0,-0.0388 0.0174,-0.1372 0.0526,-0.29593 0.0351,-0.15873 0.0803,-0.35046 0.13292,-0.5751 0.0546,-0.22464 0.11279,-0.46947 0.17519,-0.73468 0.0624,-0.26519 0.11907,-0.52368 0.17367,-0.77543 0.0546,-0.25174 0.0994,-0.48402 0.13445,-0.69696 0.0331,-0.21295 0.0506,-0.37958 0.0506,-0.4997 0,-0.39877 -0.10112,-0.70874 -0.30392,-0.92929 -0.2028,-0.22074 -0.51104,-0.33097 -0.92054,-0.33097 -0.39195,0 -0.77031,0.12788 -1.13496,0.38353 -0.3666,0.25544 -0.7369,0.64053 -1.11325,1.15553 l -0.08,-0.029 c 0.0332,-0.0774 0.0583,-0.15853 0.072,-0.24375 0.0137,-0.0852 0.0194,-0.16671 0.0194,-0.24412 0,-0.30596 -0.0778,-0.55299 -0.23385,-0.74077 -0.15795,-0.18779 -0.38028,-0.28146 -0.66498,-0.28146 z m -142.511863,1.78204 v 1.05117 h 9.736289 v -1.05117 z m 149.176903,0.30316 v 0.88855 h 6.69055 v -0.88855 z M 9.780068,49.093535 c -0.15873,0 -0.3098975,0.0215 -0.453223,0.064 -0.1431295,0.0427 -0.287381,0.10927 -0.432656,0.20033 -0.14508,0.0909 -0.2980605,0.20711 -0.4589355,0.34849 -0.16068,0.14137 -0.337664,0.31053 -0.5312985,0.50806 l 0.4006635,0.37782 c 0.11622,-0.12012 0.2208135,-0.22491 0.3138285,-0.31383 0.09282,-0.0891 0.1788575,-0.16241 0.2582225,-0.22052 0.079365,-0.0581 0.1548515,-0.10158 0.2266115,-0.13064 0.071565,-0.029 0.1423285,-0.0438 0.2121385,-0.0438 0.228345,0 0.3423925,0.14153 0.3423925,0.42428 0,0.10062 -0.011455,0.23013 -0.03466,0.38886 -0.0234,0.15873 -0.059758,0.33882 -0.1100685,0.54005 l -0.871406,3.78688 H 9.780066 l 0.650508,-2.91547 c 0.03861,-0.17804 0.09955,-0.35741 0.182813,-0.53739 0.08327,-0.18019 0.179128,-0.35225 0.287548,-0.51683 0.10842,-0.16458 0.227571,-0.31937 0.357246,-0.46465 0.129675,-0.14527 0.262093,-0.27096 0.397618,-0.37743 0.135525,-0.10647 0.270136,-0.18978 0.403711,-0.24984 0.133575,-0.0599 0.258545,-0.0899 0.374765,-0.0899 0.20124,0 0.347499,0.0562 0.438369,0.16834 0.09107,0.11232 0.136729,0.28858 0.136729,0.52863 0,0.10062 -0.01255,0.2274 -0.03771,0.38048 -0.02515,0.15288 -0.06028,0.32715 -0.104737,0.52253 -0.04465,0.19559 -0.09685,0.40859 -0.156914,0.63908 -0.05987,0.2303 -0.124623,0.47113 -0.194238,0.72287 -0.06591,0.24785 -0.115199,0.47542 -0.148154,0.6825 -0.03296,0.20709 -0.04951,0.38828 -0.04951,0.54311 0,0.15483 0.02328,0.29727 0.0697,0.42694 0.0466,0.12968 0.112451,0.2421 0.197666,0.33706 0.08521,0.0948 0.186517,0.16898 0.304687,0.22319 0.117975,0.0542 0.246962,0.0815 0.386192,0.0815 0.16653,0 0.323516,-0.0222 0.470742,-0.0666 0.147225,-0.0447 0.294907,-0.11232 0.444081,-0.20339 0.148981,-0.0909 0.302872,-0.20639 0.461602,-0.34582 0.158925,-0.13942 0.333184,-0.30567 0.522919,-0.4993 l -0.400662,-0.38315 c -0.11622,0.12772 -0.220629,0.23686 -0.313449,0.32792 -0.09301,0.0909 -0.178522,0.16545 -0.255938,0.22356 -0.07742,0.0581 -0.151803,0.10087 -0.223563,0.12797 -0.07156,0.0269 -0.144142,0.0404 -0.217852,0.0404 -0.119925,0 -0.207059,-0.0329 -0.261269,-0.0986 -0.05421,-0.0659 -0.08112,-0.17231 -0.08112,-0.31954 0,-0.0386 0.01727,-0.13738 0.05218,-0.29631 0.03491,-0.15873 0.07947,-0.35027 0.133682,-0.57472 0.05421,-0.22464 0.112044,-0.46947 0.174054,-0.73467 0.06181,-0.2652 0.119841,-0.52388 0.174051,-0.77543 0.05421,-0.25175 0.09897,-0.48404 0.133682,-0.69698 0.03491,-0.21294 0.05218,-0.37975 0.05218,-0.49968 0,-0.39878 -0.101497,-0.70856 -0.304687,-0.9293 -0.203385,-0.22074 -0.510061,-0.33097 -0.920538,-0.33097 -0.39117,0 -0.769522,0.1277 -1.135342,0.38315 -0.366015,0.25564 -0.736919,0.64129 -1.112489,1.15629 l -0.08112,-0.0293 c 0.0349,-0.0776 0.05891,-0.15873 0.07236,-0.24375 0.01365,-0.0852 0.02018,-0.16672 0.02018,-0.24413 0,-0.30596 -0.07821,-0.55261 -0.23499,-0.74039 -0.156779,-0.18779 -0.378525,-0.28184 -0.66498,-0.28184 z m 42.531332,1.2637 c -0.71643,0 -1.348735,0.12877 -1.896685,0.38695 -0.547948,0.25818 -0.97215,0.62454 -1.27245,1.09877 -0.3003,0.47405 -0.450175,1.02213 -0.450175,1.64379 0,0.39 0.07621,0.7427 0.228897,1.05879 0.15288,0.3161 0.358431,0.60225 0.616611,0.8577 0.25818,0.25545 0.582147,0.51503 0.971952,0.77847 0.43212,0.28977 0.762635,0.54624 0.99176,0.77011 0.22932,0.22405 0.40048,0.45852 0.51378,0.70344 0.113295,0.24511 0.16986,0.52833 0.16986,0.8497 0,0.69537 -0.205365,1.23817 -0.61623,1.62817 -0.41106,0.3898 -0.974965,0.58462 -1.691396,0.58462 -0.62166,0 -1.081326,-0.1568 -1.379091,-0.47036 -0.297765,-0.31337 -0.446367,-0.79122 -0.446367,-1.43394 h -0.758673 l -0.47417,2.17319 c 0.442455,0.1211 0.944142,0.22095 1.505157,0.30011 0.56121,0.079 1.083989,0.11883 1.568759,0.11883 0.716626,0 1.355276,-0.13607 1.916486,-0.40751 0.561015,-0.27125 0.995765,-0.6556 1.30406,-1.15363 0.3081,-0.49783 0.462365,-1.0681 0.462365,-1.71082 0,-0.41613 -0.06439,-0.7823 -0.193475,-1.0984 -0.12909,-0.31609 -0.32937,-0.61533 -0.600615,-0.8973 -0.27144,-0.28178 -0.66507,-0.60193 -1.18143,-0.96015 -0.59007,-0.4056 -0.989355,-0.75741 -1.19742,-1.05498 -0.208065,-0.29776 -0.312305,-0.6441 -0.312305,-1.03937 0,-0.37927 0.08695,-0.72306 0.26089,-1.03136 0.173745,-0.3081 0.42678,-0.55186 0.75867,-0.73087 0.33189,-0.17921 0.716435,-0.2685 1.153625,-0.2685 0.358215,0 0.645445,0.0553 0.861505,0.16605 0.215865,0.11056 0.38233,0.29337 0.49816,0.54882 0.11583,0.25564 0.184225,0.60744 0.205285,1.05536 h 0.75867 l 0.44256,-2.03112 c -0.500565,-0.15795 -0.9575,-0.27001 -1.371095,-0.33592 -0.413595,-0.0659 -0.862705,-0.0986 -1.347475,-0.0986 z m 184.79144,0 c -0.5109,0 -0.9828,0.11078 -1.41375,0.33211 -0.4329,0.22113 -0.80325,0.56238 -1.11135,1.02336 -0.3081,0.46098 -0.54822,1.04433 -0.71982,1.75043 -0.16965,0.7059 -0.25518,1.54357 -0.25518,2.51291 0,1.82305 0.27682,3.18222 0.83258,4.07786 0.55574,0.89563 1.40386,1.34367 2.54071,1.34367 1.16025,0 2.0398,-0.47841 2.6443,-1.43469 0.60255,-0.95608 0.90491,-2.36675 0.90491,-4.23173 0,-1.8018 -0.28271,-3.14807 -0.84626,-4.03863 -0.56355,-0.89037 -1.42174,-1.33529 -2.57614,-1.33529 z m -0.0388,0.67145 c 0.39975,0 0.741,0.16354 1.02375,0.49016 0.2808,0.32663 0.50093,0.86562 0.65888,1.61637 0.15795,0.75075 0.23804,1.73193 0.23804,2.94367 0,1.58593 -0.15421,2.75645 -0.46426,3.51266 -0.30809,0.75601 -0.77992,1.1342 -1.41757,1.1342 -0.66885,0 -1.16212,-0.40164 -1.48192,-1.20504 -0.31785,-0.8034 -0.47796,-2.06438 -0.47796,-3.78194 0,-0.73222 0.0312,-1.38925 0.0956,-1.97132 0.0624,-0.58227 0.16977,-1.07633 0.31991,-1.48193 0.15015,-0.40559 0.3473,-0.71666 0.593,-0.93272 0.24375,-0.21606 0.54789,-0.32411 0.91254,-0.32411 z m -149.750095,0.53777 v 4.55203 h -4.30714 v 1.05079 h 4.30714 v 4.55242 h 1.12201 v -4.55242 h 4.307135 v -1.05079 h -4.307135 v -4.55203 z m 129.912665,0.17368 v 1.18561 l 8.58189,3.72214 -8.58189,3.72214 v 1.18561 l 9.76751,-4.35475 v -1.10639 z m -12.70815,1.84145 c -0.4056,0 -0.76826,0.10659 -1.09001,0.31992 -0.32175,0.21333 -0.72368,0.57315 -1.20923,1.07898 l 0.45056,0.44217 c 0.3159,-0.35295 0.5655,-0.59651 0.74685,-0.73086 0.18135,-0.13436 0.35498,-0.20148 0.51683,-0.20148 0.1482,0 0.25545,0.0474 0.32566,0.14244 0.0682,0.0948 0.1013,0.24738 0.1013,0.45817 0,0.27398 -0.0567,0.66399 -0.17367,1.16963 l -1.1544,5.01058 h 1.36919 l 0.75068,-3.42202 c 0.10919,-0.48985 0.25149,-0.90222 0.42504,-1.23665 0.1755,-0.33462 0.40575,-0.68007 0.6924,-1.03556 0.28665,-0.35568 0.55768,-0.62161 0.81313,-0.79828 0.2574,-0.17647 0.49528,-0.2647 0.71563,-0.2647 0.27495,0 0.47173,0.0804 0.59263,0.24109 0.1209,0.16067 0.18129,0.42299 0.18129,0.78647 0,0.14762 -0.0193,0.33988 -0.0583,0.577 -0.039,0.23712 -0.1231,0.6031 -0.24985,1.0984 l -0.34697,1.36691 c -0.17355,0.66397 -0.26126,1.1673 -0.26126,1.50972 0,0.37928 0.10338,0.69142 0.30812,0.93653 0.20671,0.24493 0.47984,0.36754 0.82304,0.36754 0.43095,0 0.81703,-0.11207 1.15438,-0.33593 0.3354,-0.22405 0.73092,-0.57839 1.18332,-1.06297 l -0.45018,-0.44256 c -0.32565,0.36348 -0.57926,0.60978 -0.75866,0.73886 -0.17745,0.1289 -0.34706,0.19349 -0.50501,0.19349 -0.1482,0 -0.25549,-0.0473 -0.32374,-0.14207 -0.0683,-0.0948 -0.10322,-0.24776 -0.10322,-0.45855 0,-0.23693 0.0721,-0.64257 0.21443,-1.21684 l 0.51263,-2.07074 c 0.1521,-0.61113 0.23043,-1.08262 0.23043,-1.41451 0,-0.50057 -0.13285,-0.89146 -0.3961,-1.17343 -0.26325,-0.28178 -0.63937,-0.42276 -1.13077,-0.42276 -0.4953,0 -0.97511,0.17479 -1.44116,0.52521 -0.46605,0.35041 -0.95757,0.88921 -1.47432,1.61637 l -0.0956,-0.0316 c 0.12675,-0.34242 0.1912,-0.65311 0.1912,-0.93235 0,-0.35314 -0.0976,-0.6389 -0.2887,-0.85769 -0.19305,-0.21859 -0.45417,-0.32792 -0.78763,-0.32792 z M 97.3812,56.222465 v 0.975 h 88.53038 v -0.975 z m -22.687035,0.85236 c -0.48399,0.25935 -0.961115,0.51985 -1.43165,0.78115 -0.470535,0.26149 -0.945845,0.5236 -1.425935,0.78685 0.0464,0.093 0.09098,0.18396 0.13368,0.27308 0.0425,0.0891 0.08909,0.17787 0.139395,0.26698 0.37557,-0.24394 0.68115,-0.42766 0.91749,-0.55149 0.236145,-0.12401 0.414225,-0.18624 0.534345,-0.18624 0.10842,0 0.191735,0.0313 0.249845,0.0933 0.05811,0.062 0.08684,0.16824 0.08684,0.31917 v 4.16469 c 0,0.13163 -0.0066,0.24186 -0.0202,0.33097 -0.01345,0.0891 -0.032,0.16442 -0.05523,0.22623 -0.0232,0.062 -0.05432,0.11349 -0.09293,0.15424 -0.0388,0.0405 -0.08518,0.0782 -0.139395,0.11312 -0.05031,0.0308 -0.10924,0.057 -0.1771,0.0785 -0.06766,0.0212 -0.15771,0.0407 -0.27003,0.0583 -0.112125,0.0173 -0.24783,0.0306 -0.406755,0.0403 -0.15873,0.01 -0.35227,0.0185 -0.58081,0.0263 v 0.50502 h 4.60611 v -0.50502 c -0.23634,-0.004 -0.43861,-0.0106 -0.60709,-0.0202 -0.16848,-0.01 -0.312535,-0.0232 -0.432655,-0.0408 -0.12012,-0.0173 -0.218895,-0.0388 -0.29631,-0.064 -0.07742,-0.0251 -0.139445,-0.061 -0.185855,-0.10741 -0.0388,-0.031 -0.07225,-0.0679 -0.10131,-0.11045 -0.02905,-0.0427 -0.05253,-0.0938 -0.07008,-0.15387 -0.01735,-0.0599 -0.0301,-0.13354 -0.0377,-0.22051 -0.0078,-0.0872 -0.01145,-0.19067 -0.01145,-0.31078 v -4.41455 c 0,-0.15482 0.001,-0.31163 0.0025,-0.47036 0.002,-0.15872 0.005,-0.32207 0.0088,-0.49054 0.0035,-0.16849 0.0097,-0.35912 0.01755,-0.57205 z m -18.09501,1.55048 c -0.158925,0 -0.309895,0.0215 -0.45322,0.064 -0.14313,0.0427 -0.28738,0.10926 -0.432655,0.20033 -0.14508,0.0911 -0.29826,0.20711 -0.45894,0.34848 -0.16068,0.14138 -0.33766,0.31073 -0.531295,0.50807 l 0.40066,0.37781 c 0.11622,-0.11993 0.220815,-0.22471 0.31383,-0.31383 0.09282,-0.0891 0.17924,-0.16241 0.258605,-0.22052 0.07937,-0.0581 0.15485,-0.10158 0.22661,-0.13063 0.07156,-0.0291 0.141945,-0.0434 0.21176,-0.0434 0.22834,0 0.34277,0.14115 0.34277,0.42389 0,0.10062 -0.01165,0.23013 -0.03505,0.38886 -0.0232,0.15893 -0.05976,0.33882 -0.11007,0.54006 l -0.871405,3.78688 h 1.138385 l 0.65051,-2.91548 c 0.0386,-0.17803 0.09955,-0.3574 0.18281,-0.53739 0.08327,-0.17998 0.17913,-0.35224 0.28755,-0.51682 0.10842,-0.16458 0.227575,-0.31938 0.35725,-0.46465 0.129675,-0.14508 0.26247,-0.27096 0.397995,-0.37743 0.135525,-0.10647 0.269755,-0.18998 0.40333,-0.24985 0.133575,-0.0601 0.25874,-0.0899 0.374765,-0.0899 0.201435,0 0.3475,0.056 0.43837,0.16834 0.09107,0.11232 0.136725,0.28859 0.136725,0.52863 0,0.10063 -0.01255,0.2276 -0.0377,0.38048 -0.02535,0.15288 -0.06008,0.32696 -0.104735,0.52254 -0.04445,0.19558 -0.09685,0.40879 -0.156915,0.63908 -0.06006,0.23049 -0.12481,0.47132 -0.19462,0.72287 -0.06572,0.24785 -0.11482,0.47541 -0.147775,0.6825 -0.03295,0.20709 -0.0495,0.38828 -0.0495,0.54311 0,0.15483 0.0233,0.29727 0.0697,0.42694 0.0464,0.12968 0.112455,0.2421 0.19767,0.33706 0.08521,0.0948 0.186895,0.16936 0.305065,0.22357 0.117975,0.0542 0.246385,0.0811 0.38581,0.0811 0.16653,0 0.32352,-0.0222 0.470745,-0.0667 0.14703,-0.0445 0.2951,-0.11251 0.44408,-0.20338 0.149175,-0.0911 0.30325,-0.2064 0.46198,-0.34582 0.158925,-0.13943 0.332805,-0.30567 0.52254,-0.49931 l -0.400665,-0.38314 c -0.11622,0.12772 -0.22081,0.23685 -0.313825,0.32792 -0.09282,0.0909 -0.17776,0.16583 -0.255175,0.22394 -0.07742,0.0579 -0.152185,0.10049 -0.223945,0.12759 -0.07156,0.0271 -0.144145,0.0404 -0.217855,0.0404 -0.119925,0 -0.20706,-0.0327 -0.26127,-0.0986 -0.05421,-0.0659 -0.08112,-0.17213 -0.08112,-0.31916 0,-0.0388 0.01725,-0.13758 0.05218,-0.29631 0.0349,-0.15873 0.07947,-0.35046 0.133685,-0.5751 0.05421,-0.22464 0.11204,-0.46948 0.17405,-0.73468 0.06181,-0.2652 0.120225,-0.52368 0.174435,-0.77542 0.05421,-0.25175 0.09859,-0.48404 0.1333,-0.69698 0.0349,-0.21294 0.05256,-0.37918 0.05256,-0.4993 0,-0.39878 -0.10188,-0.70894 -0.30507,-0.92968 -0.203385,-0.22055 -0.510255,-0.33097 -0.920535,-0.33097 -0.39117,0 -0.76952,0.12788 -1.13534,0.38353 -0.366015,0.25545 -0.736925,0.64091 -1.112495,1.1559 l -0.08112,-0.0293 c 0.0347,-0.0774 0.05891,-0.15853 0.07236,-0.24375 0.01365,-0.0852 0.02055,-0.16671 0.02055,-0.24413 0,-0.30595 -0.07859,-0.5526 -0.235375,-0.74039 -0.15678,-0.18778 -0.378525,-0.28183 -0.66498,-0.28183 z m 6.66542,2.08521 v 0.88854 h 6.69094 v -0.88854 z m 74.031445,3.63187 c -0.4017,0 -0.76833,0.11168 -1.10373,0.33553 -0.33345,0.22386 -0.73294,0.57821 -1.19704,1.06298 l 0.45018,0.44294 c 0.31784,-0.35314 0.56551,-0.59689 0.74686,-0.73125 0.1833,-0.13435 0.35494,-0.20147 0.51874,-0.20147 0.1482,0 0.25547,0.0473 0.32372,0.14206 0.0683,0.0948 0.10322,0.24776 0.10322,0.45855 0,0.27398 -0.0583,0.66379 -0.1733,1.16962 l -1.15438,5.01021 h 1.36691 l 0.75067,-3.42164 c 0.11115,-0.48477 0.24753,-0.89569 0.41133,-1.23285 0.1638,-0.33715 0.39009,-0.68877 0.67869,-1.05498 0.29055,-0.36621 0.5634,-0.63233 0.81885,-0.79828 0.25545,-0.16594 0.48359,-0.24908 0.6825,-0.24908 0.28469,0 0.49538,0.0804 0.62994,0.24108 0.1326,0.16068 0.20109,0.43082 0.20109,0.81009 0,0.16868 -0.0196,0.37022 -0.0606,0.60481 -0.039,0.23439 -0.11317,0.59617 -0.22432,1.08621 l -0.90873,4.01464 h 1.3669 l 0.71983,-3.45364 c 0.1053,-0.48984 0.24568,-0.90476 0.42313,-1.24464 0.1755,-0.33969 0.40365,-0.68477 0.6825,-1.03518 0.27885,-0.35022 0.54593,-0.60834 0.79943,-0.77429 0.25155,-0.16594 0.48919,-0.24908 0.70954,-0.24908 0.27495,0 0.4721,0.0804 0.593,0.24108 0.1209,0.16068 0.18129,0.4228 0.18129,0.78648 0,0.14742 -0.0192,0.3395 -0.0583,0.57662 -0.039,0.23712 -0.12309,0.60329 -0.24984,1.0984 l -0.34696,1.36766 c -0.17355,0.66379 -0.26127,1.16693 -0.26127,1.50935 0,0.37947 0.10336,0.69142 0.30811,0.93653 0.2067,0.24492 0.47946,0.36715 0.82266,0.36715 0.43095,0 0.81703,-0.11333 1.15438,-0.33972 0.3354,-0.22659 0.73131,-0.57929 1.18371,-1.05879 l -0.45056,-0.44294 c -0.32565,0.36367 -0.57889,0.61016 -0.75829,0.73925 -0.17744,0.12909 -0.34707,0.19347 -0.50502,0.19347 -0.1482,0 -0.25548,-0.0471 -0.32373,-0.14206 -0.0683,-0.0948 -0.10359,-0.24795 -0.10359,-0.45855 0,-0.23712 0.0725,-0.64295 0.2148,-1.21723 l 0.51264,-2.07035 c 0.1521,-0.61113 0.23004,-1.08262 0.23004,-1.41451 0,-0.50583 -0.13246,-0.89838 -0.39571,-1.17762 -0.26325,-0.27924 -0.63761,-0.41895 -1.12316,-0.41895 -0.4836,0 -0.95149,0.1568 -1.40194,0.47036 -0.45045,0.31337 -0.90308,0.7916 -1.35548,1.43432 0.006,-0.0421 0.008,-0.0816 0.008,-0.11845 v -0.11083 c 0,-0.54268 -0.13089,-0.95741 -0.39609,-1.24464 -0.26325,-0.28704 -0.64743,-0.43076 -1.15248,-0.43076 -0.4914,0 -0.97481,0.17537 -1.45451,0.52559 -0.4797,0.35042 -0.96133,0.88648 -1.44688,1.60837 l -0.0937,-0.0316 c 0.1209,-0.32663 0.18129,-0.63496 0.18129,-0.92473 0,-0.35295 -0.0957,-0.63872 -0.2887,-0.85731 -0.19305,-0.21879 -0.45421,-0.32792 -0.78571,-0.32792 z"
   id="path2"
   inkscape:connector-curvature="0"
   style="stroke-width:0.19499999" />


































</svg>