<?xml version="1.0" encoding="UTF-8" standalone="no"?>
<svg
   xmlns:dc="http://purl.org/dc/elements/1.1/"
   xmlns:cc="http://creativecommons.org/ns#"
   xmlns:rdf="http://www.w3.org/1999/02/22-rdf-syntax-ns#"
   xmlns:svg="http://www.w3.org/2000/svg"
   xmlns="http://www.w3.org/2000/svg"
   xmlns:sodipodi="http://sodipodi.sourceforge.net/DTD/sodipodi-0.dtd"
   xmlns:inkscape="http://www.inkscape.org/namespaces/inkscape"
   width="561.09155"
   height="91.563164"
   xml:space="preserve"
   overflow="hidden"
   version="1.1"
   id="svg282"
   sodipodi:docname="02-series-simplified.svg"
   style="overflow:hidden"
   inkscape:version="0.92.4 (5da689c313, 2019-01-14)"><metadata
   id="metadata288"><rdf:RDF><cc:Work
       rdf:about=""><dc:format>image/svg+xml</dc:format><dc:type
         rdf:resource="http://purl.org/dc/dcmitype/StillImage" /><dc:title></dc:title></cc:Work></rdf:RDF></metadata><defs
   id="defs286" /><sodipodi:namedview
   pagecolor="#ffffff"
   bordercolor="#666666"
   borderopacity="1"
   objecttolerance="10"
   gridtolerance="10"
   guidetolerance="10"
   inkscape:pageopacity="0"
   inkscape:pageshadow="2"
   inkscape:window-width="2043"
   inkscape:window-height="1317"
   id="namedview284"
   showgrid="false"
   inkscape:zoom="1"
   inkscape:cx="-348.88603"
   inkscape:cy="-69.657212"
   inkscape:window-x="0"
   inkscape:window-y="0"
   inkscape:window-maximized="0"
   inkscape:current-layer="svg282"
   fit-margin-top="0"
   fit-margin-left="0"
   fit-margin-right="0"
   fit-margin-bottom="0" /><path
   d="m 402.04164,0 c -2.1645,1.85445 -3.88431,4.620855 -5.1557,8.298165 -1.2714,3.6775 -1.90925,7.7814 -1.90925,12.31242 0,4.46238 0.63785,8.56032 1.90925,12.29262 1.27139,3.7323 2.9912,6.52087 5.1557,8.36557 l 0.37247,-0.585 c -1.87005,-1.90125 -3.31108,-4.65495 -4.32313,-8.25855 -1.01205,-3.6036 -1.51697,-7.53926 -1.51697,-11.80664 0,-4.36781 0.50679,-8.32183 1.52079,-11.86225 1.014,-3.540415 2.45316,-6.261685 4.31931,-8.163715 z m 43.67809,0 -0.37247,0.59262 c 1.8603,1.90203 3.2976,4.6233 4.3155,8.163715 1.01595,3.54042 1.52496,7.49444 1.52496,11.86225 0,4.26738 -0.50528,8.20304 -1.51733,11.80664 -1.01205,3.6036 -2.45308,6.3573 -4.32313,8.25855 l 0.37247,0.585 c 2.1645,-1.8447 3.88235,-4.63327 5.1557,-8.36557 1.2714,-3.7323 1.90924,-7.83024 1.90924,-12.29262 0,-4.53102 -0.63784,-8.63492 -1.90924,-12.31242 C 449.60208,4.620855 447.88423,1.85445 445.71973,0 Z m -323.9468,2.160995 -3.69853,2.204795 0.34773,0.608615 c 0.45844,-0.305565 0.84279,-0.545505 1.15362,-0.719445 0.31083,-0.173745 0.55058,-0.260505 0.71906,-0.260505 0.14235,0 0.2504,0.04875 0.32411,0.14625 0.0737,0.0975 0.11083,0.251565 0.11083,0.46236 v 6.4091 c 0,0.36894 -0.0304,0.63487 -0.091,0.79828 -0.0604,0.16322 -0.15669,0.28983 -0.28831,0.37934 -0.13163,0.0895 -0.32263,0.15644 -0.57281,0.20109 -0.25038,0.0448 -0.66823,0.0807 -1.25303,0.10702 v 0.57701 h 5.84086 v -0.57701 c -0.40618,-0.0105 -0.73288,-0.0305 -0.98033,-0.0594 -0.24765,-0.029 -0.4532,-0.0711 -0.61661,-0.12645 -0.16321,-0.0554 -0.28818,-0.13139 -0.37515,-0.22889 -0.0868,-0.0975 -0.14773,-0.22411 -0.18205,-0.37972 -0.0341,-0.15541 -0.051,-0.38569 -0.051,-0.69126 V 4.26297 c 0,-0.895635 0.0157,-1.59633 0.0473,-2.101965 z m 28.65814,0 c -0.71565,0 -1.3472,0.129155 -1.89515,0.387335 -0.54795,0.257985 -0.9733,0.62416 -1.2736,1.0984 -0.3003,0.474045 -0.45017,1.021935 -0.45017,1.64379 0,0.389805 0.076,0.74269 0.23004,1.058785 0.15209,0.316095 0.35688,0.601865 0.61623,0.857315 0.2574,0.255645 0.58119,0.515035 0.97119,0.77848 0.4329,0.28977 0.76242,0.546995 0.99252,0.770855 0.22815,0.22386 0.39953,0.45833 0.51263,0.70345 0.1131,0.24492 0.16987,0.52795 0.16987,0.84931 0,0.69557 -0.20478,1.23837 -0.61623,1.62818 -0.4095,0.3898 -0.97499,0.58462 -1.69064,0.58462 -0.62205,0 -1.08231,-0.15662 -1.37871,-0.46998 -0.29835,-0.31356 -0.44675,-0.79198 -0.44675,-1.4347 h -0.75829 l -0.47379,2.17356 c 0.44265,0.1211 0.94356,0.22115 1.50516,0.30012 0.55965,0.079 1.0844,0.11845 1.568,0.11845 0.7176,0 1.35526,-0.13552 1.91686,-0.40676 0.5616,-0.27144 0.99635,-0.65617 1.30444,-1.154 0.3081,-0.49784 0.46199,-1.0681 0.46199,-1.71082 0,-0.41633 -0.0644,-0.78269 -0.195,-1.09878 -0.1287,-0.3161 -0.32762,-0.614955 -0.60062,-0.896925 -0.27105,-0.281775 -0.66472,-0.601735 -1.17952,-0.960145 -0.59085,-0.4056 -0.99072,-0.757215 -1.19742,-1.05498 -0.20865,-0.297765 -0.31383,-0.643915 -0.31383,-1.038985 0,-0.37947 0.0877,-0.72327 0.26127,-1.03137 0.17355,-0.308295 0.42717,-0.552045 0.75867,-0.73125 0.3315,-0.179205 0.71759,-0.268505 1.15439,-0.268505 0.3588,0 0.64543,0.05511 0.86188,0.165675 0.2145,0.11076 0.38197,0.293935 0.49702,0.54958 0.11505,0.25545 0.18541,0.60726 0.20491,1.05498 h 0.75829 l 0.44294,-2.031125 c -0.4992,-0.158145 -0.9577,-0.270005 -1.3711,-0.335915 -0.4134,-0.06571 -0.86193,-0.09865 -1.34748,-0.09865 z m 85.01048,0 c -0.7176,0 -1.34949,0.129155 -1.89744,0.387335 -0.54795,0.257985 -0.97292,0.62416 -1.27322,1.0984 -0.3003,0.474045 -0.45054,1.021935 -0.45054,1.64379 0,0.389805 0.0779,0.74269 0.23004,1.058785 0.1521,0.316095 0.35882,0.601865 0.61622,0.857315 0.25935,0.255645 0.58311,0.515035 0.97311,0.77848 0.43095,0.28977 0.76247,0.546995 0.99062,0.770855 0.2301,0.22386 0.40181,0.45833 0.51491,0.70345 0.1131,0.24492 0.16948,0.52795 0.16948,0.84931 0,0.69557 -0.20672,1.23837 -0.61622,1.62818 -0.41145,0.3898 -0.97494,0.58462 -1.69254,0.58462 -0.6201,0 -1.08036,-0.15662 -1.37871,-0.46998 -0.2964,-0.31356 -0.44638,-0.79198 -0.44638,-1.4347 h -0.75866 l -0.4738,2.17356 c 0.44265,0.1211 0.94355,0.22115 1.50515,0.30012 0.5616,0.079 1.08436,0.11845 1.56991,0.11845 0.71565,0 1.3553,-0.13552 1.91496,-0.40676 0.5616,-0.27144 0.99635,-0.65617 1.30445,-1.154 0.3081,-0.49784 0.46236,-1.0681 0.46236,-1.71082 0,-0.41633 -0.0644,-0.78269 -0.19311,-1.09878 -0.1287,-0.3161 -0.32955,-0.614955 -0.6006,-0.896925 -0.27105,-0.281775 -0.66506,-0.601735 -1.18181,-0.960145 -0.59085,-0.4056 -0.98877,-0.757215 -1.19742,-1.05498 -0.20865,-0.297765 -0.31192,-0.643915 -0.31192,-1.038985 0,-0.37947 0.0858,-0.72327 0.26126,-1.03137 0.17355,-0.308295 0.42524,-0.552045 0.75869,-0.73125 0.3315,-0.179205 0.71566,-0.268505 1.15246,-0.268505 0.3588,0 0.64544,0.05511 0.86189,0.165675 0.21645,0.11076 0.38198,0.293935 0.49704,0.54958 0.11699,0.25545 0.18534,0.60726 0.20679,1.05498 h 0.75867 l 0.44257,-2.031125 C 237.65861,2.43741 237.20244,2.32555 236.78905,2.25964 c -0.4134,-0.06571 -0.86389,-0.09865 -1.3475,-0.09865 z m 79.02756,0 -3.69698,2.204795 0.34696,0.608615 c 0.45825,-0.305565 0.84238,-0.545505 1.15438,-0.719445 0.31005,-0.173745 0.54984,-0.260505 0.71754,-0.260505 0.14235,0 0.25153,0.04875 0.32563,0.14625 0.0721,0.0975 0.1093,0.251565 0.1093,0.46236 v 6.4091 c 0,0.36894 -0.0295,0.63487 -0.0899,0.79828 -0.0605,0.16322 -0.15765,0.28983 -0.2883,0.37934 -0.1326,0.0895 -0.32398,0.15644 -0.57358,0.20109 -0.2496,0.0448 -0.66688,0.0807 -1.25188,0.10702 v 0.57701 h 5.84047 v -0.57701 c -0.4056,-0.0105 -0.73344,-0.0305 -0.98109,-0.0594 -0.24765,-0.029 -0.45243,-0.0711 -0.61624,-0.12645 -0.1638,-0.0554 -0.28854,-0.13139 -0.37629,-0.22889 -0.0858,-0.0975 -0.14619,-0.22411 -0.18129,-0.37972 -0.0332,-0.15541 -0.0506,-0.38569 -0.0506,-0.69126 V 4.26297 c 0,-0.895635 0.0156,-1.59633 0.0469,-2.101965 z m 28.65928,0 c -0.71564,0 -1.34758,0.129155 -1.89553,0.387335 -0.54795,0.257985 -0.97291,0.62416 -1.27321,1.0984 -0.3003,0.474045 -0.45055,1.021935 -0.45055,1.64379 0,0.389805 0.076,0.74269 0.23004,1.058785 0.1521,0.316095 0.35687,0.601865 0.61622,0.857315 0.2574,0.255645 0.58119,0.515035 0.9712,0.77848 0.4329,0.28977 0.76243,0.546995 0.99253,0.770855 0.22815,0.22386 0.39954,0.45833 0.51263,0.70345 0.1131,0.24492 0.16987,0.52795 0.16987,0.84931 0,0.69557 -0.20479,1.23837 -0.61624,1.62818 -0.4095,0.3898 -0.97498,0.58462 -1.69063,0.58462 -0.62205,0 -1.08231,-0.15662 -1.37871,-0.46998 -0.29835,-0.31356 -0.44637,-0.79198 -0.44637,-1.4347 h -0.75867 l -0.47379,2.17356 c 0.44265,0.1211 0.94355,0.22115 1.50515,0.30012 0.55964,0.079 1.08441,0.11845 1.56801,0.11845 0.7176,0 1.35525,-0.13552 1.91685,-0.40676 0.5616,-0.27144 0.99635,-0.65617 1.30445,-1.154 0.3081,-0.49784 0.46237,-1.0681 0.46237,-1.71082 0,-0.41633 -0.0643,-0.78269 -0.195,-1.09878 -0.1287,-0.3161 -0.32957,-0.614955 -0.60062,-0.896925 -0.27105,-0.281775 -0.66505,-0.601735 -1.1818,-0.960145 -0.5889,-0.4056 -0.98879,-0.757215 -1.19744,-1.05498 -0.2067,-0.297765 -0.31192,-0.643915 -0.31192,-1.038985 0,-0.37947 0.0877,-0.72327 0.26128,-1.03137 0.17355,-0.308295 0.42717,-0.552045 0.75867,-0.73125 0.3315,-0.179205 0.71758,-0.268505 1.15438,-0.268505 0.3588,0 0.64543,0.05511 0.86188,0.165675 0.2145,0.11076 0.38199,0.293935 0.49704,0.54958 0.11505,0.25545 0.18538,0.60726 0.20488,1.05498 h 0.75869 L 345.8466,2.595555 C 345.3474,2.43741 344.88929,2.32555 344.47589,2.25964 c -0.4134,-0.06571 -0.86194,-0.09865 -1.3475,-0.09865 z m 97.8645,0 -3.69701,2.204795 0.34697,0.608615 c 0.45825,-0.305565 0.84238,-0.545505 1.15438,-0.719445 0.31005,-0.173745 0.54984,-0.260505 0.71754,-0.260505 0.14235,0 0.25153,0.04875 0.32563,0.14625 0.0722,0.0975 0.10932,0.251565 0.10932,0.46236 v 6.4091 c 0,0.36894 -0.0294,0.63487 -0.0899,0.79828 -0.0605,0.16322 -0.15766,0.28983 -0.28831,0.37934 -0.1326,0.0895 -0.32397,0.15644 -0.57357,0.20109 -0.2496,0.0448 -0.66688,0.0807 -1.25188,0.10702 v 0.57701 h 5.84048 v -0.57701 c -0.4056,-0.0105 -0.73345,-0.0305 -0.9811,-0.0594 -0.24765,-0.029 -0.45242,-0.0711 -0.61622,-0.12645 -0.1638,-0.0554 -0.28854,-0.13139 -0.37629,-0.22889 -0.0858,-0.0975 -0.14619,-0.22411 -0.18129,-0.37972 -0.0332,-0.15541 -0.0507,-0.38569 -0.0507,-0.69126 V 4.26297 c 0,-0.895635 0.0156,-1.59633 0.0468,-2.101965 z m 116.35861,0 -3.69925,2.204795 0.34695,0.608615 c 0.45825,-0.305565 0.8443,-0.545505 1.15435,-0.719445 0.31005,-0.173745 0.5502,-0.260505 0.71985,-0.260505 0.14235,0 0.24965,0.04875 0.32375,0.14625 0.0741,0.0975 0.1108,0.251565 0.1108,0.46236 v 6.4091 c 0,0.36894 -0.031,0.63487 -0.0914,0.79828 -0.0604,0.16322 -0.1561,0.28983 -0.2887,0.37934 -0.13065,0.0895 -0.3216,0.15644 -0.57315,0.20109 -0.2496,0.0448 -0.6669,0.0807 -1.2519,0.10702 v 0.57701 h 5.8401 v -0.57701 c -0.4056,-0.0105 -0.73305,-0.0305 -0.9807,-0.0594 -0.2457,-0.029 -0.45245,-0.0711 -0.61625,-0.12645 -0.16185,-0.0554 -0.2886,-0.13139 -0.3744,-0.22889 -0.0878,-0.0975 -0.14815,-0.22411 -0.1813,-0.37972 -0.035,-0.15541 -0.053,-0.38569 -0.053,-0.69126 V 4.26297 c 0,-0.895635 0.0155,-1.59633 0.049,-2.101965 z M 216.97712,4.1209 l -0.79182,0.79028 3.59571,3.548465 -3.61132,3.60331 0.73507,0.74306 3.65242,-3.58008 3.53933,3.61169 0.78954,-0.79028 -3.54695,-3.5877 3.53932,-3.603685 -0.74306,-0.73506 -3.57818,3.57208 z M 90.39164,5.38535 c -0.405795,0 -0.76904,0.106595 -1.0904,0.319925 -0.32136,0.21333 -0.72446,0.572765 -1.20923,1.078595 l 0.450175,0.442935 c 0.316095,-0.353145 0.56513,-0.596895 0.74687,-0.73125 0.18174,-0.134355 0.354555,-0.20147 0.517965,-0.20147 0.14742,0 0.25529,0.04765 0.323735,0.14244 0.06864,0.09477 0.10283,0.24738 0.10283,0.458175 0,0.273975 -0.05784,0.663785 -0.17367,1.169615 l -1.154005,5.01059 h 1.367285 l 0.750675,-3.42203 c 0.110565,-0.49003 0.252815,-0.90241 0.42656,-1.237025 0.17394,-0.33462 0.404405,-0.679495 0.69164,-1.035175 0.28704,-0.35568 0.55883,-0.621425 0.81428,-0.7979 0.25545,-0.176475 0.493925,-0.26508 0.71525,-0.26508 0.273975,0 0.471145,0.0804 0.59224,0.241085 0.12129,0.16068 0.18205,0.4228 0.18205,0.786475 0,0.14742 -0.01985,0.3395 -0.05942,0.57662 -0.0394,0.23712 -0.12234,0.60367 -0.2487,1.09878 l -0.347725,1.36728 c -0.17394,0.66378 -0.26089,1.16693 -0.26089,1.50935 0,0.37947 0.102585,0.69161 0.308115,0.93653 0.205335,0.24492 0.47928,0.36715 0.821895,0.36715 0.431925,0 0.816655,-0.11168 1.154005,-0.33554 0.337155,-0.22386 0.732055,-0.57821 1.185235,-1.06298 l -0.450175,-0.44255 c -0.326825,0.36348 -0.57985,0.60977 -0.759055,0.73886 -0.179205,0.12909 -0.347635,0.19348 -0.50578,0.19348 -0.14742,0 -0.255285,-0.0471 -0.32373,-0.14206 -0.06864,-0.0948 -0.102835,-0.24796 -0.102835,-0.45856 0,-0.23712 0.07093,-0.64257 0.213285,-1.21684 l 0.513775,-2.07073 c 0.15288,-0.61113 0.22928,-1.082625 0.22928,-1.414515 0,-0.500565 -0.131885,-0.89165 -0.39533,-1.173425 -0.263445,-0.28197 -0.64017,-0.423135 -1.13001,-0.423135 -0.4953,0 -0.97607,0.175365 -1.442315,0.525585 C 92.379075,6.26897 91.88795,6.80796 91.37159,7.53492 l -0.09484,-0.0316 c 0.12636,-0.34242 0.189665,-0.653485 0.189665,-0.932725 0,-0.35295 -0.09604,-0.63872 -0.28831,-0.857315 C 90.985835,5.49449 90.72352,5.38536 90.39163,5.38536 Z m 109.47612,0 c -0.4017,0 -0.76832,0.11206 -1.10372,0.33592 -0.33345,0.224055 -0.73333,0.578025 -1.19743,1.0626 l 0.45056,0.442935 c 0.31785,-0.353145 0.56552,-0.596895 0.74687,-0.73125 0.1833,-0.134355 0.35492,-0.20147 0.51872,-0.20147 0.14625,0 0.25549,0.04765 0.32374,0.14244 0.0682,0.09477 0.10322,0.24738 0.10322,0.458175 0,0.273975 -0.0586,0.663785 -0.17367,1.169615 l -1.1544,5.01059 h 1.36691 l 0.75106,-3.42203 c 0.11115,-0.48477 0.24751,-0.89549 0.41132,-1.232835 0.16184,-0.337155 0.39009,-0.68877 0.67869,-1.05498 0.29055,-0.36621 0.5634,-0.632335 0.81885,-0.79828 0.25545,-0.165945 0.4836,-0.249085 0.6825,-0.249085 0.2847,0 0.49543,0.0804 0.62804,0.241085 0.13454,0.16068 0.20262,0.430815 0.20262,0.81009 0,0.168675 -0.0196,0.370215 -0.0606,0.6048 -0.039,0.23439 -0.11279,0.596175 -0.22394,1.086215 l -0.90874,4.01502 h 1.36691 l 0.71945,-3.45364 c 0.1053,-0.49003 0.24568,-0.90514 0.42313,-1.245025 0.1755,-0.33969 0.40365,-0.68476 0.6825,-1.035175 0.27885,-0.35022 0.54596,-0.60834 0.79751,-0.774285 0.2535,-0.165945 0.49148,-0.249085 0.71183,-0.249085 0.27495,0 0.47209,0.0804 0.59299,0.241085 0.12091,0.16068 0.18129,0.4228 0.18129,0.786475 0,0.14742 -0.0197,0.3395 -0.0587,0.57662 -0.039,0.23712 -0.12272,0.60367 -0.24946,1.09878 l -0.34734,1.36728 c -0.17355,0.66378 -0.26126,1.16693 -0.26126,1.50935 0,0.37947 0.10335,0.69161 0.3081,0.93653 0.2067,0.24492 0.47984,0.36715 0.82304,0.36715 0.43095,0 0.81709,-0.11314 1.15249,-0.33973 0.33735,-0.22659 0.73322,-0.57928 1.18562,-1.05879 l -0.45057,-0.44255 c -0.32565,0.36348 -0.57927,0.60977 -0.75867,0.73886 -0.1794,0.12909 -0.34706,0.19348 -0.50501,0.19348 -0.1482,0 -0.25549,-0.0471 -0.32374,-0.14206 -0.0683,-0.0948 -0.10321,-0.24796 -0.10321,-0.45856 0,-0.23712 0.0721,-0.64257 0.21442,-1.21684 l 0.51303,-2.07073 c 0.1521,-0.61113 0.22813,-1.082625 0.22813,-1.414515 0,-0.50583 -0.13055,-0.898375 -0.3938,-1.177615 -0.26325,-0.27924 -0.638,-0.418945 -1.12355,-0.418945 -0.4836,0 -0.95149,0.1568 -1.40194,0.47036 -0.45045,0.313365 -0.90269,0.791595 -1.35509,1.434315 0.006,-0.0421 0.008,-0.08159 0.008,-0.118445 V 7.06837 c 0,-0.542685 -0.13246,-0.957415 -0.39571,-1.24465 -0.26325,-0.28704 -0.64742,-0.43075 -1.15247,-0.43075 -0.4914,0 -0.9752,0.175365 -1.4549,0.525585 -0.4797,0.350415 -0.96133,0.88648 -1.44688,1.60837 l -0.0933,-0.0316 c 0.1209,-0.326625 0.18129,-0.63496 0.18129,-0.92473 0,-0.35295 -0.0956,-0.63872 -0.28869,-0.857315 -0.19305,-0.21879 -0.45422,-0.32792 -0.78572,-0.32792 z m 83.22008,0 c -0.4056,0 -0.76829,0.106595 -1.09004,0.319925 -0.32175,0.21333 -0.72368,0.572765 -1.20923,1.078595 l 0.45057,0.442935 c 0.3159,-0.353145 0.56552,-0.596895 0.74687,-0.73125 0.18135,-0.134355 0.35492,-0.20147 0.51872,-0.20147 0.14625,0 0.25549,0.04765 0.32374,0.14244 0.0683,0.09477 0.1013,0.24738 0.1013,0.458175 0,0.273975 -0.0563,0.663785 -0.1733,1.169615 l -1.15247,5.01059 h 1.36689 l 0.7507,-3.42203 c 0.1092,-0.49003 0.25147,-0.90241 0.42502,-1.237025 0.1755,-0.33462 0.40575,-0.679495 0.6924,-1.035175 0.28665,-0.35568 0.55959,-0.621425 0.81504,-0.7979 0.25545,-0.176475 0.49339,-0.26508 0.71374,-0.26508 0.27495,0 0.47171,0.0804 0.59261,0.241085 0.1209,0.16068 0.18129,0.4228 0.18129,0.786475 0,0.14742 -0.0193,0.3395 -0.0583,0.57662 -0.039,0.23712 -0.1231,0.60367 -0.24985,1.09878 l -0.34696,1.36728 c -0.17355,0.66378 -0.26126,1.16693 -0.26126,1.50935 0,0.37947 0.10337,0.69161 0.30812,0.93653 0.2067,0.24492 0.47983,0.36715 0.82303,0.36715 0.43095,0 0.81703,-0.11168 1.15438,-0.33554 0.33735,-0.22386 0.73127,-0.57821 1.18562,-1.06298 l -0.45056,-0.44255 c -0.3276,0.36348 -0.58118,0.60977 -0.76058,0.73886 -0.17745,0.12909 -0.34706,0.19348 -0.50501,0.19348 -0.1482,0 -0.25549,-0.0471 -0.32374,-0.14206 -0.0682,-0.0948 -0.10322,-0.24796 -0.10322,-0.45856 0,-0.23712 0.0721,-0.64257 0.21445,-1.21684 l 0.51263,-2.07073 c 0.1521,-0.61113 0.23041,-1.082625 0.23041,-1.414515 0,-0.500565 -0.13283,-0.89165 -0.39608,-1.173425 -0.26325,-0.28197 -0.63939,-0.423135 -1.13079,-0.423135 -0.4953,0 -0.97511,0.175365 -1.44116,0.525585 -0.46605,0.350415 -0.95755,0.889405 -1.4743,1.616365 l -0.0956,-0.0316 c 0.12675,-0.34242 0.1912,-0.653485 0.1912,-0.932725 0,-0.35295 -0.0976,-0.63872 -0.2887,-0.857315 -0.19305,-0.21879 -0.45416,-0.32792 -0.7876,-0.32792 z m 122.2787,0 c -0.39975,0 -0.76642,0.11206 -1.10182,0.33592 -0.3354,0.224055 -0.73332,0.578025 -1.19742,1.0626 l 0.45055,0.442935 c 0.3159,-0.353145 0.56552,-0.596895 0.74687,-0.73125 0.18135,-0.134355 0.35497,-0.20147 0.51682,-0.20147 0.1482,0 0.25543,0.04765 0.32563,0.14244 0.0682,0.09477 0.10131,0.24738 0.10131,0.458175 0,0.273975 -0.0567,0.663785 -0.17367,1.169615 l -1.15438,5.01059 h 1.36919 l 0.75067,-3.42203 c 0.1092,-0.48477 0.24758,-0.89549 0.40943,-1.232835 0.1638,-0.337155 0.39003,-0.68877 0.68058,-1.05498 0.2886,-0.36621 0.56151,-0.632335 0.81696,-0.79828 0.25545,-0.165945 0.48354,-0.249085 0.68439,-0.249085 0.2847,0 0.49348,0.0804 0.62803,0.241085 0.13455,0.16068 0.20072,0.430815 0.20072,0.81009 0,0.168675 -0.0193,0.370215 -0.0583,0.6048 -0.039,0.23439 -0.11509,0.596175 -0.22624,1.086215 l -0.90872,4.01502 h 1.36881 l 0.71754,-3.45364 c 0.1053,-0.49003 0.24763,-0.90514 0.42313,-1.245025 0.17745,-0.33969 0.40556,-0.68476 0.68441,-1.035175 0.27885,-0.35022 0.54401,-0.60834 0.79751,-0.774285 0.2535,-0.165945 0.48953,-0.249085 0.71183,-0.249085 0.273,0 0.47209,0.0804 0.59299,0.241085 0.1209,0.16068 0.1813,0.4228 0.1813,0.786475 0,0.14742 -0.0197,0.3395 -0.0586,0.57662 -0.041,0.23712 -0.12271,0.60367 -0.24946,1.09878 l -0.34697,1.36728 c -0.1755,0.66378 -0.26165,1.16693 -0.26165,1.50935 0,0.37947 0.10335,0.69161 0.3081,0.93653 0.20475,0.24492 0.4799,0.36715 0.82115,0.36715 0.4329,0 0.81703,-0.11314 1.15438,-0.33973 0.33735,-0.22659 0.73322,-0.57928 1.18562,-1.05879 l -0.45057,-0.44255 c -0.3276,0.36348 -0.57888,0.60977 -0.75828,0.73886 -0.1794,0.12909 -0.34745,0.19348 -0.5054,0.19348 -0.1482,0 -0.25545,-0.0471 -0.32565,-0.14206 -0.0682,-0.0948 -0.1013,-0.24796 -0.1013,-0.45856 0,-0.23712 0.0702,-0.64257 0.21253,-1.21684 l 0.51492,-2.07073 c 0.1521,-0.61113 0.22813,-1.082625 0.22813,-1.414515 0,-0.50583 -0.13052,-0.898375 -0.39572,-1.177615 -0.26325,-0.27924 -0.6357,-0.418945 -1.12125,-0.418945 -0.48555,0 -0.95187,0.1568 -1.40232,0.47036 -0.45045,0.313365 -0.90269,0.791595 -1.35509,1.434315 0.004,-0.0421 0.008,-0.08159 0.008,-0.118445 V 7.06837 c 0,-0.542685 -0.13247,-0.957415 -0.39572,-1.24465 -0.26325,-0.28704 -0.64738,-0.43075 -1.15438,-0.43075 -0.48945,0 -0.97484,0.175365 -1.45259,0.525585 -0.4797,0.350415 -0.96328,0.88648 -1.44688,1.60837 l -0.0956,-0.0316 c 0.1209,-0.326625 0.18129,-0.63496 0.18129,-0.92473 0,-0.35295 -0.0957,-0.63872 -0.28679,-0.857315 -0.19305,-0.21879 -0.45415,-0.32792 -0.7876,-0.32792 z m 120.60366,0 c -0.4056,0 -0.7706,0.106595 -1.0904,0.319925 -0.32175,0.21333 -0.72515,0.572765 -1.2107,1.078595 l 0.45055,0.442935 c 0.31785,-0.353145 0.5655,-0.596895 0.74685,-0.73125 0.1833,-0.134355 0.3549,-0.20147 0.5187,-0.20147 0.1482,0 0.2551,0.04765 0.32335,0.14244 0.0683,0.09477 0.10365,0.24738 0.10365,0.458175 0,0.273975 -0.0586,0.663785 -0.1737,1.169615 l -1.1544,5.01059 h 1.3669 l 0.7507,-3.42203 c 0.11115,-0.49003 0.25375,-0.90241 0.4273,-1.237025 0.17355,-0.33462 0.4035,-0.679495 0.69015,-1.035175 0.2886,-0.35568 0.5596,-0.621425 0.81505,-0.7979 0.25545,-0.176475 0.4933,-0.26508 0.7156,-0.26508 0.273,0 0.4721,0.0804 0.593,0.241085 0.1209,0.16068 0.1813,0.4228 0.1813,0.786475 0,0.14742 -0.0195,0.3395 -0.0605,0.57662 -0.039,0.23712 -0.1208,0.60367 -0.24755,1.09878 l -0.3489,1.36728 c -0.17355,0.66378 -0.25935,1.16693 -0.25935,1.50935 0,0.37947 0.1014,0.69161 0.3081,0.93653 0.20475,0.24492 0.4795,0.36715 0.82075,0.36715 0.4329,0 0.81705,-0.11168 1.1544,-0.33554 0.33735,-0.22386 0.7332,-0.57821 1.1856,-1.06298 l -0.45055,-0.44255 c -0.3276,0.36348 -0.5789,0.60977 -0.7583,0.73886 -0.1794,0.12909 -0.34935,0.19348 -0.5073,0.19348 -0.14625,0 -0.2551,-0.0471 -0.32335,-0.14206 -0.0683,-0.0948 -0.10165,-0.24796 -0.10165,-0.45856 0,-0.23712 0.0702,-0.64257 0.2125,-1.21684 l 0.513,-2.07073 c 0.15405,-0.61113 0.23005,-1.082625 0.23005,-1.414515 0,-0.500565 -0.13245,-0.89165 -0.3957,-1.173425 -0.26325,-0.28197 -0.6398,-0.423135 -1.12925,-0.423135 -0.4953,0 -0.97705,0.175365 -1.4431,0.525585 -0.46605,0.350415 -0.95715,0.889405 -1.4739,1.616365 l -0.0937,-0.0316 c 0.12675,-0.34242 0.1893,-0.653485 0.1893,-0.932725 0,-0.35295 -0.0957,-0.63872 -0.2887,-0.857315 -0.19305,-0.21879 -0.45425,-0.32792 -0.78575,-0.32792 z M 102.20437,7.921875 v 1.05117 h 9.73629 v -1.05117 z m 28.15351,0 v 1.05117 h 9.73629 v -1.05117 z m 164.54305,0 v 1.05117 h 9.7363 v -1.05117 z m 28.15389,0 v 1.05117 h 9.73668 v -1.05117 z m 98.3699,0 v 1.05117 h 9.73629 v -1.05117 z m 116.35823,0 v 1.05117 h 9.7367 v -1.05117 z m -364.96762,0.95634 c -0.48555,0.25954 -0.96128,0.52002 -1.43318,0.78152 -0.46995,0.2613 -0.94585,0.5236 -1.42555,0.78685 0.0468,0.093 0.0915,0.18416 0.13444,0.27308 0.041,0.0891 0.0879,0.17806 0.13863,0.26698 0.37635,-0.24394 0.6823,-0.42766 0.91825,-0.55148 0.23595,-0.12402 0.41345,-0.18586 0.53435,-0.18586 0.10725,0 0.19134,0.0307 0.24984,0.0925 0.0585,0.062 0.0857,0.16861 0.0857,0.31954 v 4.16432 c 0,0.13182 -0.006,0.24223 -0.0195,0.33134 -0.0136,0.0891 -0.0314,0.16461 -0.0548,0.22662 -0.0234,0.0618 -0.0543,0.1133 -0.0933,0.15386 -0.039,0.0408 -0.086,0.0782 -0.13864,0.11312 -0.0507,0.031 -0.10923,0.0572 -0.17748,0.0785 -0.0683,0.0212 -0.15807,0.0405 -0.27117,0.0579 -0.11116,0.0173 -0.24767,0.0312 -0.40562,0.0407 -0.1599,0.01 -0.35266,0.0187 -0.58081,0.0263 v 0.5054 h 4.60573 v -0.5054 c -0.23595,-0.004 -0.43862,-0.0109 -0.60633,-0.0206 -0.16965,-0.01 -0.31408,-0.023 -0.43303,-0.0404 -0.1209,-0.0175 -0.21831,-0.0388 -0.29631,-0.064 -0.078,-0.0252 -0.14025,-0.061 -0.1851,-0.1074 -0.039,-0.031 -0.0743,-0.0677 -0.10359,-0.11045 -0.0292,-0.0425 -0.0506,-0.0938 -0.0682,-0.15387 -0.0175,-0.0601 -0.0311,-0.13373 -0.0388,-0.22089 -0.008,-0.0872 -0.0118,-0.19066 -0.0118,-0.31078 v -4.41378 c 0,-0.15503 0.002,-0.31202 0.004,-0.47075 0.002,-0.15873 0.004,-0.32206 0.008,-0.49054 0.004,-0.16848 0.01,-0.3593 0.0175,-0.57243 z m 85.00819,0 c -0.4836,0.25954 -0.96131,0.52002 -1.43126,0.78152 -0.4719,0.2613 -0.94581,0.5236 -1.42746,0.78685 0.0468,0.093 0.0919,0.18416 0.13483,0.27308 0.0429,0.0891 0.0895,0.17806 0.13823,0.26698 0.37635,-0.24394 0.6827,-0.42766 0.91865,-0.55148 0.23595,-0.12402 0.41502,-0.18586 0.53397,-0.18586 0.1092,0 0.19133,0.0307 0.24983,0.0925 0.0585,0.062 0.0876,0.16861 0.0876,0.31954 v 4.16432 c 0,0.13182 -0.008,0.24223 -0.0213,0.33134 -0.0136,0.0891 -0.031,0.16461 -0.0545,0.22662 -0.0234,0.0618 -0.0547,0.1133 -0.0937,0.15386 -0.037,0.0408 -0.084,0.0782 -0.13862,0.11312 -0.0507,0.031 -0.10924,0.0572 -0.17749,0.0785 -0.0682,0.0212 -0.15774,0.0405 -0.26889,0.0579 -0.1131,0.0173 -0.24763,0.0312 -0.40753,0.0407 -0.15795,0.01 -0.35302,0.0187 -0.58117,0.0263 v 0.5054 h 4.60572 v -0.5054 c -0.23595,-0.004 -0.43863,-0.0109 -0.60633,-0.0206 -0.16771,-0.01 -0.31214,-0.023 -0.43304,-0.0404 -0.11895,-0.0175 -0.21831,-0.0388 -0.29631,-0.064 -0.078,-0.0252 -0.13829,-0.061 -0.18509,-0.1074 -0.039,-0.031 -0.072,-0.0677 -0.1013,-0.11045 -0.0292,-0.0425 -0.0529,-0.0938 -0.0705,-0.15387 -0.0176,-0.0601 -0.0292,-0.13373 -0.0369,-0.22089 -0.008,-0.0872 -0.0119,-0.19066 -0.0119,-0.31078 v -4.41378 c 0,-0.15503 -4e-5,-0.31202 0.002,-0.47075 0.002,-0.15873 0.006,-0.32206 0.01,-0.49054 0.004,-0.16848 0.01,-0.3593 0.0175,-0.57243 z m 107.68684,0 c -0.4836,0.25954 -0.95936,0.52002 -1.43126,0.78152 -0.46995,0.2613 -0.94585,0.5236 -1.42555,0.78685 0.0468,0.093 0.0919,0.18416 0.13483,0.27308 0.041,0.0891 0.0875,0.17806 0.13823,0.26698 0.37635,-0.24394 0.6827,-0.42766 0.91865,-0.55148 0.23595,-0.12402 0.41307,-0.18586 0.53397,-0.18586 0.10725,0 0.19133,0.0307 0.24983,0.0925 0.0585,0.062 0.0857,0.16861 0.0857,0.31954 v 4.16432 c 0,0.13182 -0.006,0.24223 -0.0195,0.33134 -0.0137,0.0891 -0.031,0.16461 -0.0545,0.22662 -0.0234,0.0618 -0.0547,0.1133 -0.0937,0.15386 -0.039,0.0408 -0.086,0.0782 -0.13862,0.11312 -0.0507,0.031 -0.11119,0.0572 -0.17749,0.0785 -0.0683,0.0212 -0.1577,0.0405 -0.2708,0.0579 -0.11115,0.0173 -0.24767,0.0312 -0.40562,0.0407 -0.1599,0.01 -0.35303,0.0187 -0.58118,0.0263 v 0.5054 h 4.60573 v -0.5054 c -0.23595,-0.004 -0.43864,-0.0109 -0.60634,-0.0206 -0.16965,-0.01 -0.31408,-0.023 -0.43303,-0.0404 -0.1209,-0.0175 -0.21831,-0.0388 -0.2963,-0.064 -0.078,-0.0252 -0.14021,-0.061 -0.18701,-0.1074 -0.0371,-0.031 -0.0724,-0.0677 -0.10169,-0.11045 -0.0292,-0.0425 -0.0506,-0.0938 -0.0682,-0.15387 -0.0175,-0.0601 -0.031,-0.13373 -0.0388,-0.22089 -0.008,-0.0872 -0.0119,-0.19066 -0.0119,-0.31078 v -4.41378 c 0,-0.15503 0.002,-0.31202 0.003,-0.47075 0.002,-0.15873 0.004,-0.32206 0.008,-0.49054 0.004,-0.16848 0.01,-0.3593 0.0175,-0.57243 z m -210.79119,1.55086 c -0.15795,0 -0.31011,0.0213 -0.45246,0.064 -0.1443,0.0425 -0.28835,0.10946 -0.43265,0.20033 -0.14625,0.0911 -0.29828,0.20731 -0.45818,0.34849 -0.16185,0.14137 -0.33939,0.31091 -0.53244,0.50845 l 0.40181,0.37743 c 0.11505,-0.12012 0.22027,-0.22472 0.31192,-0.31383 0.0936,-0.0889 0.17942,-0.16241 0.25937,-0.22052 0.0799,-0.0579 0.15408,-0.10158 0.22623,-0.13063 0.0722,-0.029 0.14232,-0.0438 0.21252,-0.0438 0.22815,0 0.34315,0.14134 0.34315,0.42389 0,0.10062 -0.0117,0.23051 -0.0351,0.38924 -0.0234,0.15873 -0.0605,0.33901 -0.11121,0.54044 l -0.87179,3.78689 h 1.13877 l 0.65127,-2.91586 c 0.039,-0.17823 0.0997,-0.35722 0.18358,-0.5374 0.0819,-0.17998 0.1772,-0.35244 0.2864,-0.51682 0.1092,-0.16458 0.22816,-0.31957 0.35687,-0.46465 0.13065,-0.14528 0.26345,-0.27096 0.398,-0.37743 0.1365,-0.10647 0.2711,-0.18979 0.4037,-0.24985 0.13455,-0.0601 0.25934,-0.0899 0.37439,-0.0899 0.2028,0 0.3471,0.056 0.43875,0.16834 0.0917,0.11232 0.13634,0.28859 0.13634,0.52863 0,0.10082 -0.0116,0.22722 -0.037,0.3801 -0.0254,0.15308 -0.0606,0.32734 -0.1055,0.52292 -0.0448,0.19559 -0.0953,0.40841 -0.15577,0.6387 -0.0605,0.23049 -0.12479,0.47151 -0.19499,0.72326 -0.0663,0.24784 -0.11501,0.47541 -0.14816,0.6825 -0.0331,0.20728 -0.0487,0.38827 -0.0487,0.5431 0,0.15503 0.0233,0.29707 0.0682,0.42694 0.0468,0.12968 0.11301,0.24191 0.19881,0.33668 0.0839,0.095 0.18731,0.16974 0.30431,0.22395 0.11895,0.0542 0.24736,0.0811 0.38581,0.0811 0.1677,0 0.32373,-0.0224 0.46998,-0.067 0.1482,-0.0444 0.29664,-0.11213 0.44484,-0.203 0.15015,-0.0911 0.30403,-0.20621 0.46198,-0.34544 0.15795,-0.13942 0.33339,-0.30605 0.52254,-0.49968 l -0.39952,-0.38353 c -0.117,0.12792 -0.22256,0.23743 -0.31421,0.3283 -0.0936,0.0911 -0.17912,0.16546 -0.25517,0.22357 -0.078,0.0581 -0.15218,0.10086 -0.22433,0.12796 -0.0721,0.0271 -0.14451,0.0408 -0.21861,0.0408 -0.11895,0 -0.20667,-0.0331 -0.26127,-0.099 -0.0526,-0.0657 -0.08,-0.17232 -0.08,-0.31954 0,-0.0386 0.0179,-0.1372 0.051,-0.29593 0.0351,-0.15873 0.0798,-0.35046 0.13445,-0.5751 0.0546,-0.22444 0.11322,-0.46948 0.17367,-0.73468 0.0624,-0.26539 0.12059,-0.52368 0.17519,-0.77543 0.0526,-0.25174 0.0978,-0.48403 0.13292,-0.69697 0.0351,-0.21294 0.0526,-0.37957 0.0526,-0.49969 0,-0.39877 -0.10151,-0.70817 -0.30431,-0.92891 -0.20474,-0.22074 -0.51098,-0.33135 -0.92243,-0.33135 -0.39,0 -0.76836,0.12788 -1.13497,0.38353 -0.36465,0.25545 -0.73695,0.64053 -1.11134,1.15552 l -0.0819,-0.0289 c 0.0351,-0.0774 0.0583,-0.15853 0.072,-0.24375 0.0137,-0.0852 0.0217,-0.16671 0.0217,-0.24413 0,-0.30576 -0.0782,-0.5526 -0.23614,-0.74039 -0.156,-0.18778 -0.37833,-0.28183 -0.66498,-0.28183 z m 85.00859,0 c -0.15795,0 -0.30816,0.0213 -0.45246,0.064 -0.14235,0.0425 -0.28679,0.10946 -0.43304,0.20033 -0.1443,0.0911 -0.29827,0.20731 -0.45817,0.34849 -0.1599,0.14137 -0.33745,0.31091 -0.53245,0.50845 l 0.4018,0.37743 c 0.11505,-0.12012 0.22023,-0.22472 0.31383,-0.31383 0.0916,-0.0889 0.17946,-0.16241 0.25746,-0.22052 0.08,-0.0579 0.15604,-0.10158 0.22624,-0.13063 0.0721,-0.029 0.14231,-0.0438 0.21251,-0.0438 0.22815,0 0.34316,0.14134 0.34316,0.42389 0,0.10062 -0.0117,0.23051 -0.0351,0.38924 -0.0234,0.15873 -0.0605,0.33901 -0.11121,0.54044 l -0.8695,3.78689 h 1.13687 l 0.65126,-2.91586 c 0.039,-0.17823 0.0994,-0.35722 0.1832,-0.5374 0.0839,-0.17998 0.17954,-0.35244 0.28679,-0.51682 0.1092,-0.16458 0.22817,-0.31957 0.35687,-0.46465 0.13065,-0.14528 0.26301,-0.27096 0.39951,-0.37743 0.13455,-0.10647 0.26916,-0.18979 0.40371,-0.24985 0.1326,-0.0601 0.25738,-0.0899 0.37438,-0.0899 0.20085,0 0.3471,0.056 0.43875,0.16834 0.0897,0.11232 0.13635,0.28859 0.13635,0.52863 0,0.10082 -0.0135,0.22722 -0.0388,0.3801 -0.0254,0.15308 -0.0603,0.32734 -0.10322,0.52292 -0.0448,0.19559 -0.0976,0.40841 -0.15804,0.6387 -0.0605,0.23049 -0.1248,0.47151 -0.195,0.72326 -0.0643,0.24784 -0.11502,0.47541 -0.14817,0.6825 -0.0312,0.20728 -0.0488,0.38827 -0.0488,0.5431 0,0.15503 0.0233,0.29707 0.0701,0.42694 0.0468,0.12968 0.11111,0.24191 0.19691,0.33668 0.0858,0.095 0.1873,0.16974 0.3043,0.22395 0.11895,0.0542 0.24769,0.0811 0.38809,0.0811 0.16575,0 0.32178,-0.0224 0.46998,-0.067 0.14625,-0.0444 0.29432,-0.11213 0.44447,-0.203 0.1482,-0.0911 0.30213,-0.20621 0.46008,-0.34544 0.1599,-0.13942 0.33376,-0.30605 0.52291,-0.49968 l -0.3999,-0.38353 c -0.117,0.12792 -0.22024,0.23743 -0.31384,0.3283 -0.0936,0.0911 -0.17754,0.16546 -0.25554,0.22357 -0.078,0.0581 -0.15218,0.10086 -0.22433,0.12796 -0.0702,0.0271 -0.14418,0.0408 -0.21634,0.0408 -0.12089,0 -0.20861,-0.0331 -0.26126,-0.099 -0.0546,-0.0657 -0.0819,-0.17232 -0.0819,-0.31954 0,-0.0386 0.0175,-0.1372 0.0526,-0.29593 0.0351,-0.15873 0.0799,-0.35046 0.13254,-0.5751 0.0546,-0.22444 0.11318,-0.46948 0.17558,-0.73468 0.0605,-0.26539 0.11906,-0.52368 0.17366,-0.77543 0.0546,-0.25174 0.0994,-0.48403 0.13445,-0.69697 0.0331,-0.21294 0.0506,-0.37957 0.0506,-0.49969 0,-0.39877 -0.1015,-0.70817 -0.3043,-0.92891 -0.2028,-0.22074 -0.51067,-0.33135 -0.92017,-0.33135 -0.39195,0 -0.77031,0.12788 -1.13496,0.38353 -0.3666,0.25545 -0.73727,0.64053 -1.11362,1.15552 l -0.0819,-0.0289 c 0.0351,-0.0774 0.0606,-0.15853 0.0743,-0.24375 0.0137,-0.0852 0.0195,-0.16671 0.0195,-0.24413 0,-0.30576 -0.0778,-0.5526 -0.23576,-0.74039 -0.156,-0.18778 -0.37832,-0.28183 -0.66497,-0.28183 z m 107.68875,0 c -0.15796,0 -0.31011,0.0213 -0.45246,0.064 -0.1443,0.0425 -0.28874,0.10946 -0.43304,0.20033 -0.14625,0.0911 -0.29827,0.20731 -0.45817,0.34849 -0.16185,0.14137 -0.3394,0.31091 -0.53245,0.50845 l 0.4018,0.37743 c 0.11505,-0.12012 0.22027,-0.22472 0.31192,-0.31383 0.0936,-0.0889 0.17942,-0.16241 0.25937,-0.22052 0.0799,-0.0579 0.15409,-0.10158 0.22624,-0.13063 0.0722,-0.029 0.14231,-0.0438 0.21251,-0.0438 0.22815,0 0.34316,0.14134 0.34316,0.42389 0,0.10062 -0.0117,0.23051 -0.0351,0.38924 -0.0234,0.15873 -0.0605,0.33901 -0.11121,0.54044 l -0.87142,3.78689 h 1.13878 l 0.65126,-2.91586 c 0.0371,-0.17823 0.0994,-0.35722 0.18129,-0.5374 0.0839,-0.17998 0.1795,-0.35244 0.2887,-0.51682 0.10725,-0.16458 0.22817,-0.31957 0.35687,-0.46465 0.13065,-0.14528 0.26306,-0.27096 0.39761,-0.37743 0.1365,-0.10647 0.2711,-0.18979 0.4037,-0.24985 0.13455,-0.0601 0.25935,-0.0899 0.3744,-0.0899 0.20085,0 0.3471,0.056 0.43875,0.16834 0.0917,0.11232 0.13635,0.28859 0.13635,0.52863 0,0.10082 -0.0117,0.22722 -0.0369,0.3801 -0.0254,0.15308 -0.0602,0.32734 -0.1051,0.52292 -0.0448,0.19559 -0.0957,0.40841 -0.15616,0.6387 -0.0605,0.23049 -0.1248,0.47151 -0.195,0.72326 -0.0663,0.24784 -0.11502,0.47541 -0.14816,0.6825 -0.0332,0.20728 -0.0487,0.38827 -0.0487,0.5431 0,0.15503 0.0233,0.29707 0.0682,0.42694 0.0468,0.12968 0.11302,0.24191 0.19882,0.33668 0.0839,0.095 0.18535,0.16974 0.3043,0.22395 0.11895,0.0542 0.24775,0.0811 0.3862,0.0811 0.16575,0 0.32372,-0.0224 0.46997,-0.067 0.14819,-0.0444 0.29626,-0.11213 0.44446,-0.203 0.15015,-0.0911 0.30404,-0.20621 0.462,-0.34544 0.15795,-0.13942 0.33375,-0.30605 0.52291,-0.49968 l -0.39991,-0.38353 c -0.117,0.12792 -0.22218,0.23743 -0.31383,0.3283 -0.0936,0.0911 -0.1795,0.16546 -0.25555,0.22357 -0.078,0.0581 -0.15218,0.10086 -0.22433,0.12796 -0.0722,0.0271 -0.14412,0.0408 -0.21822,0.0408 -0.11895,0 -0.20668,-0.0331 -0.26128,-0.099 -0.0546,-0.0657 -0.08,-0.17232 -0.08,-0.31954 0,-0.0386 0.0176,-0.1372 0.0506,-0.29593 0.0351,-0.15873 0.0798,-0.35046 0.13445,-0.5751 0.0546,-0.22444 0.11127,-0.46948 0.17367,-0.73468 0.0624,-0.26539 0.12098,-0.52368 0.17558,-0.77543 0.0526,-0.25174 0.0974,-0.48403 0.13254,-0.69697 0.0351,-0.21294 0.0526,-0.37957 0.0526,-0.49969 0,-0.39877 -0.1015,-0.70817 -0.3043,-0.92891 -0.20475,-0.22074 -0.5106,-0.33135 -0.92205,-0.33135 -0.39,0 -0.76838,0.12788 -1.13498,0.38353 -0.36465,0.25545 -0.73732,0.64053 -1.11172,1.15552 l -0.0819,-0.0289 c 0.0351,-0.0774 0.0587,-0.15853 0.0723,-0.24375 0.0137,-0.0852 0.0214,-0.16671 0.0214,-0.24413 0,-0.30576 -0.0778,-0.5526 -0.23576,-0.74039 -0.156,-0.18778 -0.37832,-0.28183 -0.66497,-0.28183 z m -186.0323,2.0852 v 0.88855 h 6.69056 v -0.88855 z m 85.01048,0 v 0.88855 h 6.69057 v -0.88855 z m 107.68685,0 v 0.88855 h 6.69018 v -0.88855 z M 5.492373,14.338215 c -0.7166249,0 -1.3487295,0.12935 -1.8966794,0.38733 -0.5479502,0.25818 -0.9721513,0.62416 -1.2724513,1.0984 -0.3003,0.47404 -0.4505567,1.02213 -0.4505567,1.64379 0,0.39 0.076592,0.74307 0.2292773,1.05917 0.15288,0.31609 0.3582457,0.60186 0.6162307,0.85731 0.25818,0.25565 0.5825289,0.51503 0.9723339,0.77848 0.43212,0.28977 0.7626327,0.54642 0.9917577,0.77048 0.22932,0.22386 0.4004843,0.45833 0.5137793,0.70344 0.113295,0.24492 0.169863,0.52796 0.169863,0.84932 0,0.69557 -0.205746,1.23837 -0.6166111,1.62817 -0.410865,0.38981 -0.9743905,0.58462 -1.6910155,0.58462 -0.62166,0 -1.0813269,-0.15661 -1.3790919,-0.46998 -0.29757,-0.31356 -0.4467479,-0.79159 -0.4467479,-1.43431 H 0.47417 L 0,24.967615 c 0.44265,0.1211 0.94414125,0.22114 1.5051562,0.30012 0.56121,0.079 1.0839899,0.11806 1.5687599,0.11806 0.716625,0 1.3554693,-0.13513 1.9164843,-0.40637 0.5610151,-0.27144 0.9957676,-0.65579 1.3040626,-1.15363 0.308295,-0.49803 0.462363,-1.06828 0.462363,-1.7112 0,-0.41613 -0.064386,-0.7823 -0.193476,-1.0984 -0.12909,-0.31609 -0.3293705,-0.61495 -0.6006155,-0.89692 -0.27144,-0.28177 -0.665447,-0.60231 -1.1818068,-0.96053 -0.59007,-0.4056 -0.9889759,-0.75703 -1.1970409,-1.0546 -0.208065,-0.29776 -0.3123047,-0.64429 -0.3123047,-1.03936 0,-0.37947 0.086949,-0.72327 0.2608887,-1.03137 0.173745,-0.30829 0.4267819,-0.55166 0.7586719,-0.73087 0.33189,-0.1792 0.7164328,-0.26888 1.1536228,-0.26888 0.35841,0 0.645444,0.0555 0.861504,0.16605 0.21606,0.11056 0.381953,0.29355 0.497783,0.5492 0.11583,0.25545 0.1846045,0.60726 0.2056645,1.05498 h 0.7586715 l 0.442559,-2.03074 c -0.500565,-0.15815 -0.957499,-0.27039 -1.371094,-0.3363 -0.413595,-0.0659 -0.8629055,-0.0986 -1.3474805,-0.0986 z m 37.251475,0 c -0.716625,0 -1.348729,0.12935 -1.896679,0.38733 -0.54795,0.25818 -0.972151,0.62416 -1.272451,1.0984 -0.3003,0.47404 -0.450557,1.02213 -0.450557,1.64379 0,0.39 0.0764,0.74307 0.229277,1.05917 0.152685,0.31609 0.358431,0.60186 0.616611,0.85731 0.25818,0.25565 0.581954,0.51503 0.971954,0.77848 0.431925,0.28977 0.762439,0.54642 0.991759,0.77048 0.229125,0.22386 0.400483,0.45833 0.513778,0.70344 0.113295,0.24492 0.169864,0.52796 0.169864,0.84932 0,0.69557 -0.205551,1.23837 -0.616611,1.62817 -0.410865,0.38981 -0.974392,0.58462 -1.691017,0.58462 -0.62166,0 -1.081325,-0.15661 -1.37909,-0.46998 -0.29757,-0.31356 -0.446369,-0.79159 -0.446369,-1.43431 h -0.758671 l -0.47417,2.17318 c 0.44265,0.1211 0.944327,0.22114 1.505537,0.30012 0.561015,0.079 1.083804,0.11806 1.568379,0.11806 0.716625,0 1.355468,-0.13513 1.916483,-0.40637 0.56121,-0.27144 0.995963,-0.65579 1.304063,-1.15363 0.308295,-0.49803 0.462364,-1.06828 0.462364,-1.7112 0,-0.41613 -0.06477,-0.7823 -0.193857,-1.0984 -0.12909,-0.31609 -0.329176,-0.61495 -0.600616,-0.89692 -0.271245,-0.28177 -0.665065,-0.60231 -1.181425,-0.96053 -0.59007,-0.4056 -0.988782,-0.75703 -1.197042,-1.0546 -0.208065,-0.29776 -0.312304,-0.64429 -0.312304,-1.03936 0,-0.37947 0.08695,-0.72327 0.260888,-1.03137 0.17394,-0.30829 0.426783,-0.55166 0.758673,-0.73087 0.33189,-0.1792 0.716619,-0.26888 1.154004,-0.26888 0.358215,0 0.645062,0.0555 0.861122,0.16605 0.21606,0.11056 0.381954,0.29355 0.497784,0.5492 0.116025,0.25545 0.184603,0.60726 0.205663,1.05498 h 0.758673 l 0.442558,-2.03074 c -0.50037,-0.15815 -0.957499,-0.27039 -1.371094,-0.3363 -0.413595,-0.0659 -0.862906,-0.0986 -1.347481,-0.0986 z m 435.577832,0 c -0.71565,0 -1.34911,0.12935 -1.89706,0.38733 -0.54795,0.25818 -0.97139,0.62416 -1.27169,1.0984 -0.3003,0.47404 -0.45018,1.02213 -0.45018,1.64379 0,0.39 0.076,0.74307 0.22813,1.05917 0.15405,0.31609 0.35879,0.60186 0.61813,0.85731 0.25741,0.25565 0.58081,0.51503 0.97081,0.77848 0.4329,0.28977 0.7628,0.54642 0.9929,0.77048 0.22816,0.22386 0.39954,0.45833 0.51264,0.70344 0.1131,0.24492 0.16986,0.52796 0.16986,0.84932 0,0.69557 -0.20477,1.23837 -0.61622,1.62817 -0.41145,0.38981 -0.97498,0.58462 -1.69063,0.58462 -0.62205,0 -1.08233,-0.15661 -1.37873,-0.46998 -0.29835,-0.31356 -0.44674,-0.79159 -0.44674,-1.43431 h -0.75828 l -0.47607,2.17318 c 0.44265,0.1211 0.94588,0.22114 1.50553,0.30012 0.5616,0.079 1.08434,0.11806 1.56989,0.11806 0.71565,0 1.3549,-0.13513 1.9165,-0.40637 0.55965,-0.27144 0.99481,-0.65579 1.30291,-1.15363 0.3081,-0.49803 0.46198,-1.06828 0.46198,-1.7112 0,-0.41613 -0.0644,-0.7823 -0.19309,-1.0984 -0.1287,-0.31609 -0.32957,-0.61495 -0.60062,-0.89692 -0.27105,-0.28177 -0.66468,-0.60231 -1.18143,-0.96053 -0.5889,-0.4056 -0.98877,-0.75703 -1.19742,-1.0546 -0.2067,-0.29776 -0.31192,-0.64429 -0.31192,-1.03936 0,-0.37947 0.0877,-0.72327 0.26126,-1.03137 0.17355,-0.30829 0.4268,-0.55166 0.7583,-0.73087 0.3315,-0.1792 0.71563,-0.26888 1.15438,-0.26888 0.35685,0 0.64549,0.0555 0.85999,0.16605 0.21645,0.11056 0.3823,0.29355 0.4993,0.5492 0.11505,0.25545 0.18345,0.60726 0.2049,1.05498 h 0.7583 l 0.44294,-2.03074 c -0.50115,-0.15815 -0.9577,-0.27039 -1.3711,-0.3363 -0.4134,-0.0659 -0.86192,-0.0986 -1.34747,-0.0986 z m -400.57533,1.20922 v 4.55204 h -4.30714 v 1.05117 h 4.30714 v 4.55127 h 1.12201 v -4.55127 h 4.30714 v -1.05117 h -4.30714 v -4.55204 z m 192.69771,0 v 4.55204 h -4.30751 v 1.05117 h 4.30751 v 4.55127 h 1.12125 v -4.55127 h 4.30752 v -1.05117 h -4.30752 v -4.55204 z m 242.88014,0 v 4.55204 h -4.30755 v 1.05117 h 4.30755 v 4.55127 h 1.12125 v -4.55127 h 4.3075 v -1.05117 h -4.3075 v -4.55204 z m -53.46697,0.75068 -0.7899,0.79028 3.59607,3.54847 -3.61167,3.60369 0.73541,0.74268 3.65017,-3.5797 3.54124,3.61131 0.78989,-0.79029 -3.54921,-3.58769 3.54122,-3.60369 -0.74268,-0.73506 -3.58046,3.57208 z m -438.081214,2.16556 v 1.0508 h 9.73629 v -1.0508 z m 160.245054,0 v 1.0508 h 9.73668 v -1.0508 z m 196.2717,0 v 1.0508 h 9.73629 v -1.0508 z m -290.466595,1.7173 v 0.975 h 88.530385 v -0.975 z m 109.590385,0 v 0.975 h 63.95999 v -0.975 z m 83.26499,0 v 0.975 h 88.53 v -0.975 z m 122.265,0 v 0.975 h 41.925 v -0.975 z m 120.51,0 v 0.975 h 37.635 v -0.975 z m -458.33036,0.87483 c -0.48399,0.25955 -0.96111,0.51985 -1.431645,0.78115 -0.47034,0.26149 -0.94547,0.5236 -1.42556,0.78685 0.0464,0.093 0.09079,0.18396 0.1333,0.27308 0.0427,0.0891 0.08909,0.17806 0.139395,0.26698 0.37557,-0.24394 0.681725,-0.42766 0.91787,-0.55148 0.236145,-0.12402 0.41442,-0.18586 0.534345,-0.18586 0.10842,0 0.191735,0.0309 0.249845,0.0929 0.05811,0.062 0.08683,0.16823 0.08683,0.31916 v 4.16393 c 5e-6,0.1326 -0.0067,0.2436 -0.0202,0.33135 -0.01365,0.0897 -0.032,0.16578 -0.05522,0.22623 -0.0232,0.0624 -0.05413,0.11292 -0.09293,0.15387 -0.0386,0.041 -0.08518,0.08 -0.13939,0.11311 -0.05031,0.0312 -0.109435,0.0585 -0.1771,0.08 -0.06786,0.0215 -0.15771,0.0392 -0.27003,0.0568 -0.11232,0.0175 -0.24803,0.031 -0.40676,0.0408 -0.15873,0.01 -0.35227,0.0196 -0.58081,0.0274 v 0.50502 h 4.606115 v -0.50502 c -0.236145,-0.004 -0.43861,-0.0116 -0.60709,-0.0213 -0.168285,-0.01 -0.31254,-0.0236 -0.43266,-0.0412 -0.119925,-0.0175 -0.218695,-0.0391 -0.296305,-0.0625 -0.07741,-0.0254 -0.139255,-0.0621 -0.18586,-0.10892 -0.0386,-0.0293 -0.07264,-0.0664 -0.10169,-0.10931 -0.02905,-0.0429 -0.05234,-0.0938 -0.06969,-0.15425 -0.01755,-0.0605 -0.0299,-0.13433 -0.0377,-0.22013 -0.0078,-0.0877 -0.0118,-0.19103 -0.0118,-0.31193 v -4.4134 c 0,-0.15502 0.001,-0.31163 0.003,-0.47036 0.002,-0.15873 0.005,-0.32245 0.0087,-0.49093 0.004,-0.16848 0.0099,-0.35911 0.0175,-0.57205 z m 435.57781,0 c -0.4836,0.25955 -0.9613,0.51985 -1.43124,0.78115 -0.46995,0.26149 -0.94588,0.5236 -1.42557,0.78685 0.0468,0.093 0.0916,0.18396 0.13254,0.27308 0.0429,0.0891 0.0898,0.17806 0.14054,0.26698 0.37439,-0.24394 0.68039,-0.42766 0.91634,-0.55148 0.2379,-0.12402 0.41541,-0.18586 0.53436,-0.18586 0.1092,0 0.19285,0.0309 0.25135,0.0929 0.0566,0.062 0.0861,0.16823 0.0861,0.31916 v 4.16393 c 0,0.1326 -0.006,0.2436 -0.0195,0.33135 -0.0136,0.0897 -0.0334,0.16578 -0.0548,0.22623 -0.0234,0.0624 -0.0547,0.11292 -0.0937,0.15387 -0.039,0.041 -0.0855,0.08 -0.14014,0.11311 -0.0487,0.0312 -0.10928,0.0585 -0.17558,0.08 -0.0683,0.0215 -0.15807,0.0392 -0.27117,0.0568 -0.1131,0.0175 -0.24767,0.031 -0.40562,0.0408 -0.1599,0.01 -0.35266,0.0196 -0.58081,0.0274 v 0.50502 h 4.60581 v -0.50502 c -0.23595,-0.004 -0.4386,-0.0116 -0.60825,-0.0213 -0.1677,-0.01 -0.3121,-0.0236 -0.433,-0.0412 -0.11895,-0.0175 -0.21835,-0.0391 -0.2944,-0.0625 -0.078,-0.0254 -0.1406,-0.0621 -0.1874,-0.10892 -0.039,-0.0293 -0.072,-0.0664 -0.1013,-0.10931 -0.029,-0.0429 -0.0525,-0.0938 -0.0701,-0.15425 -0.0175,-0.0605 -0.0295,-0.13433 -0.0375,-0.22013 -0.008,-0.0877 -0.0115,-0.19103 -0.0115,-0.31193 v -4.4134 c 0,-0.15502 0,-0.31163 0.005,-0.47036 0,-0.15873 0.005,-0.32245 0.007,-0.49093 0.005,-0.16848 0.01,-0.35911 0.018,-0.57205 z m -478.927984,0.68746 v 1.05117 h 9.73629 v -1.05117 z m 160.245054,0 v 1.05117 h 9.73668 v -1.05117 z m 196.2717,0 v 1.05117 h 9.73629 v -1.05117 z m -368.512682,0.8634 c -0.15873,0 -0.3098975,0.0213 -0.453223,0.064 -0.1431295,0.0425 -0.287381,0.10908 -0.432656,0.19995 -0.14508,0.0911 -0.2980605,0.20711 -0.4589355,0.34849 -0.16068,0.14137 -0.337664,0.3111 -0.5312985,0.50844 l 0.4006635,0.37743 c 0.11622,-0.12012 0.2208135,-0.22433 0.3138285,-0.31344 0.09282,-0.0891 0.1788575,-0.16279 0.2582225,-0.2209 0.079365,-0.0581 0.1548515,-0.10158 0.2266115,-0.13064 0.071565,-0.029 0.1423285,-0.0434 0.2121385,-0.0434 0.228345,0 0.3423925,0.14134 0.3423925,0.4239 0,0.10062 -0.011455,0.23031 -0.03466,0.38924 -0.0234,0.15873 -0.059759,0.33862 -0.1100685,0.54005 l -0.871406,3.78727 H 9.780086 l 0.650508,-2.9151 c 0.03861,-0.1794 0.09955,-0.35797 0.182813,-0.53815 0.08326,-0.17999 0.179128,-0.35263 0.287548,-0.51721 0.10842,-0.16458 0.227571,-0.31919 0.357246,-0.46427 0.129675,-0.14527 0.262092,-0.27134 0.397618,-0.37781 0.135525,-0.10647 0.270135,-0.1894 0.403711,-0.24946 0.133575,-0.0601 0.258545,-0.0903 0.374765,-0.0903 0.20124,0 0.347499,0.056 0.438369,0.16834 0.09107,0.11232 0.136729,0.28859 0.136729,0.52864 0,0.10081 -0.01255,0.2276 -0.0377,0.38048 -0.02515,0.15307 -0.06028,0.32695 -0.104737,0.52254 -0.04466,0.19558 -0.09685,0.40898 -0.156914,0.63908 -0.05987,0.2301 -0.124623,0.4717 -0.194238,0.72325 -0.06591,0.24765 -0.115199,0.4758 -0.148155,0.6825 -0.03295,0.2067 -0.04951,0.38829 -0.04951,0.54234 0,0.156 0.02328,0.29825 0.0697,0.42695 0.0466,0.13065 0.112451,0.24189 0.197666,0.33744 0.08521,0.0956 0.186518,0.16972 0.304688,0.22432 0.117975,0.0526 0.246962,0.0796 0.386192,0.0796 0.16653,0 0.323516,-0.0214 0.470741,-0.0663 0.147226,-0.0449 0.294908,-0.11096 0.444082,-0.20261 0.148981,-0.0917 0.302872,-0.20661 0.461602,-0.34506 0.158925,-0.1404 0.333184,-0.30621 0.522919,-0.50121 l -0.400662,-0.38239 c -0.11622,0.12675 -0.220629,0.23784 -0.313449,0.32754 -0.09302,0.0916 -0.178523,0.16583 -0.255938,0.22433 -0.07742,0.0585 -0.151803,0.10147 -0.223563,0.12682 -0.07156,0.0273 -0.144142,0.0412 -0.217852,0.0412 -0.119925,0 -0.207059,-0.0331 -0.261269,-0.0975 -0.05421,-0.0663 -0.08112,-0.17367 -0.08112,-0.31992 0,-0.039 0.01728,-0.13836 0.05218,-0.29631 0.0349,-0.1599 0.07947,-0.35123 0.133682,-0.57548 0.05421,-0.22425 0.112044,-0.46985 0.174054,-0.73505 0.06182,-0.2652 0.119841,-0.52272 0.174051,-0.77505 0.05421,-0.25175 0.09897,-0.48404 0.133682,-0.69698 0.03491,-0.21294 0.05218,-0.37918 0.05218,-0.4993 0,-0.39878 -0.101497,-0.70855 -0.304687,-0.9293 -0.203385,-0.22074 -0.510062,-0.33097 -0.920538,-0.33097 -0.39117,0 -0.769522,0.12751 -1.135342,0.38315 -0.366015,0.25545 -0.73692,0.64091 -1.11249,1.15591 l -0.08112,-0.029 c 0.03491,-0.0774 0.05891,-0.15892 0.07236,-0.24414 0.01365,-0.0852 0.02018,-0.16633 0.02018,-0.24375 0,-0.30595 -0.07821,-0.55298 -0.23499,-0.74077 -0.15678,-0.18798 -0.378525,-0.28145 -0.66498,-0.28145 z m 37.251474,0 c -0.15873,0 -0.30971,0.0213 -0.45284,0.064 -0.143325,0.0425 -0.287957,0.10908 -0.433037,0.19995 -0.145275,0.0911 -0.297876,0.20711 -0.458556,0.34849 -0.16068,0.14137 -0.338044,0.3111 -0.531679,0.50844 l 0.401044,0.37743 c 0.116025,-0.12012 0.220433,-0.22433 0.313447,-0.31344 0.09302,-0.0891 0.178858,-0.16279 0.258223,-0.2209 0.07956,-0.0581 0.155047,-0.10158 0.226612,-0.13064 0.07156,-0.029 0.142523,-0.0434 0.212138,-0.0434 0.22854,0 0.342773,0.14134 0.342773,0.4239 0,0.10062 -0.01183,0.23031 -0.03504,0.38924 -0.0232,0.15873 -0.06014,0.33862 -0.11045,0.54005 l -0.871026,3.78727 h 1.138389 l 0.650508,-2.9151 c 0.0388,-0.1794 0.09955,-0.35797 0.182813,-0.53815 0.08327,-0.17999 0.179128,-0.35263 0.287548,-0.51721 0.10842,-0.16458 0.227571,-0.31919 0.357246,-0.46427 0.12987,-0.14527 0.262474,-0.27134 0.397999,-0.37781 0.135525,-0.10647 0.270136,-0.1894 0.403711,-0.24946 0.133575,-0.0601 0.258164,-0.0903 0.374384,-0.0903 0.20124,0 0.347681,0.056 0.438746,0.16834 0.09087,0.11232 0.13635,0.28859 0.13635,0.52864 0,0.10081 -0.01255,0.2276 -0.0377,0.38048 -0.02515,0.15307 -0.06028,0.32695 -0.104735,0.52254 -0.04445,0.19558 -0.09667,0.40898 -0.156532,0.63908 -0.06006,0.2301 -0.125005,0.4717 -0.19462,0.72325 -0.06591,0.24765 -0.115198,0.4758 -0.148153,0.6825 -0.03276,0.2067 -0.04951,0.38829 -0.04951,0.54234 0,0.156 0.02309,0.29825 0.0697,0.42695 0.04641,0.13065 0.112451,0.24189 0.197666,0.33744 0.08522,0.0956 0.186517,0.16972 0.304687,0.22432 0.11817,0.0526 0.247145,0.0796 0.386575,0.0796 0.166525,0 0.32295,-0.0214 0.46998,-0.0663 0.147225,-0.0449 0.295285,-0.11096 0.44446,-0.20261 0.14898,-0.0917 0.303255,-0.20661 0.461985,-0.34506 0.15873,-0.1404 0.332805,-0.30621 0.52254,-0.50121 l -0.400665,-0.38239 c -0.116025,0.12675 -0.22101,0.23784 -0.31383,0.32754 -0.09302,0.0916 -0.17814,0.16583 -0.255555,0.22433 -0.07742,0.0585 -0.152,0.10147 -0.223565,0.12682 -0.07176,0.0273 -0.143955,0.0412 -0.21747,0.0412 -0.12012,0 -0.20744,-0.0331 -0.26165,-0.0975 -0.05421,-0.0663 -0.0815,-0.17367 -0.0815,-0.31992 0,-0.039 0.01785,-0.13836 0.05256,-0.29631 0.0349,-0.1599 0.07909,-0.35123 0.1333,-0.57548 0.05421,-0.22425 0.112425,-0.46985 0.174435,-0.73505 0.06201,-0.2652 0.12022,-0.52272 0.17443,-0.77505 0.05421,-0.25175 0.09878,-0.48404 0.133685,-0.69698 0.0347,-0.21294 0.05217,-0.37918 0.05217,-0.4993 0,-0.39878 -0.10188,-0.70855 -0.30507,-0.9293 -0.20319,-0.22074 -0.51006,-0.33097 -0.920535,-0.33097 -0.39117,0 -0.769327,0.12751 -1.135342,0.38315 -0.36582,0.25545 -0.736921,0.64091 -1.112489,1.15591 l -0.08112,-0.029 c 0.03491,-0.0774 0.0591,-0.15892 0.07275,-0.24414 0.01346,-0.0852 0.02018,-0.16633 0.02018,-0.24375 0,-0.30595 -0.0784,-0.55298 -0.235371,-0.74077 -0.15678,-0.18798 -0.378526,-0.28145 -0.664981,-0.28145 z m 435.578208,0 c -0.1599,0 -0.31011,0.0213 -0.45246,0.064 -0.1443,0.0425 -0.28836,0.10908 -0.43266,0.19995 -0.14625,0.0911 -0.29861,0.20711 -0.46046,0.34849 -0.1599,0.14137 -0.33709,0.3111 -0.53014,0.50844 l 0.39951,0.37743 c 0.117,-0.12012 0.22061,-0.22433 0.31421,-0.31344 0.0936,-0.0891 0.17942,-0.16279 0.25937,-0.2209 0.078,-0.0581 0.15409,-0.10158 0.22624,-0.13064 0.0722,-0.029 0.14231,-0.0434 0.21251,-0.0434 0.22815,0 0.34125,0.14134 0.34125,0.4239 0,0.10062 -0.0121,0.23031 -0.0354,0.38924 -0.0214,0.15873 -0.0582,0.33862 -0.10893,0.54005 l -0.87179,3.78727 h 1.13876 l 0.64937,-2.9151 c 0.039,-0.1794 0.10129,-0.35797 0.18319,-0.53815 0.0838,-0.17999 0.17949,-0.35263 0.28869,-0.51721 0.10725,-0.16458 0.22622,-0.31919 0.35687,-0.46427 0.1287,-0.14527 0.2615,-0.27134 0.398,-0.37781 0.13455,-0.10647 0.26879,-0.1894 0.40334,-0.24946 0.1326,-0.0601 0.25775,-0.0903 0.37475,-0.0903 0.20085,0 0.3471,0.056 0.43875,0.16834 0.0917,0.11232 0.13636,0.28859 0.13636,0.52864 0,0.10081 -0.0134,0.2276 -0.0369,0.38048 -0.0254,0.15307 -0.0606,0.32695 -0.10549,0.52254 -0.0448,0.19558 -0.0976,0.40898 -0.15807,0.63908 -0.0585,0.2301 -0.12445,0.4717 -0.1927,0.72325 -0.0663,0.24765 -0.1154,0.4758 -0.14855,0.6825 -0.0331,0.2067 -0.0506,0.38829 -0.0506,0.54234 0,0.156 0.0236,0.29825 0.0704,0.42695 0.0468,0.13065 0.11306,0.24189 0.19691,0.33744 0.0858,0.0956 0.18726,0.16972 0.30621,0.22432 0.117,0.0526 0.24541,0.0796 0.38581,0.0796 0.16575,0 0.32374,-0.0214 0.46999,-0.0663 0.1482,-0.0449 0.29663,-0.11096 0.44483,-0.20261 0.1482,-0.0917 0.30208,-0.20661 0.46198,-0.34506 0.15795,-0.1404 0.33339,-0.30621 0.52254,-0.50121 l -0.40143,-0.38239 c -0.11505,0.12675 -0.22064,0.23784 -0.31229,0.32754 -0.0936,0.0916 -0.17946,0.16583 -0.25746,0.22433 -0.0761,0.0585 -0.1499,0.10147 -0.22205,0.12682 -0.0721,0.0273 -0.14451,0.0412 -0.21861,0.0412 -0.11895,0 -0.20666,-0.0331 -0.26126,-0.0975 -0.0546,-0.0663 -0.0819,-0.17367 -0.0819,-0.31992 0,-0.039 0.0175,-0.13836 0.0526,-0.29631 0.0351,-0.1599 0.0802,-0.35123 0.13482,-0.57548 0.0526,-0.22425 0.11088,-0.46985 0.17328,-0.73505 0.0624,-0.2652 0.12104,-0.52272 0.17369,-0.77505 0.0546,-0.25175 0.0993,-0.48404 0.13443,-0.69698 0.0351,-0.21294 0.0529,-0.37918 0.0529,-0.4993 0,-0.39878 -0.10146,-0.70855 -0.30621,-0.9293 -0.2028,-0.22074 -0.50909,-0.33097 -0.92054,-0.33097 -0.38999,0 -0.76835,0.12751 -1.13495,0.38315 -0.3666,0.25545 -0.73694,0.64091 -1.11134,1.15591 l -0.0819,-0.029 c 0.0351,-0.0774 0.0583,-0.15892 0.072,-0.24414 0.0137,-0.0852 0.0217,-0.16633 0.0217,-0.24375 0,-0.30595 -0.0801,-0.55298 -0.23613,-0.74077 -0.15795,-0.18798 -0.37834,-0.28145 -0.66499,-0.28145 z m -428.912785,2.08483 v 0.8893 h 6.690935 v -0.8893 z m 435.577825,0 v 0.8893 h 6.69055 v -0.8893 z m -361.54752,3.63111 c -0.39975,0 -0.76643,0.11319 -1.10183,0.33744 -0.3354,0.2223 -0.73294,0.57705 -1.19704,1.0626 l 0.45056,0.44256 c 0.3159,-0.35295 0.56513,-0.5967 0.74648,-0.73125 0.18135,-0.13455 0.35498,-0.20262 0.51683,-0.20262 0.1482,0 0.25543,0.0489 0.32563,0.14244 0.0682,0.0955 0.10169,0.24758 0.10169,0.45818 0,0.27495 -0.0567,0.66495 -0.17367,1.17 l -1.15438,5.01134 h 1.3688 l 0.75068,-3.42202 c 0.1092,-0.48555 0.24757,-0.89511 0.40942,-1.23246 0.1638,-0.33735 0.39005,-0.69033 0.6806,-1.05498 0.2886,-0.3666 0.56187,-0.63367 0.81732,-0.79942 0.25545,-0.16575 0.48356,-0.24794 0.68441,-0.24794 0.2847,0 0.4931,0.08 0.62765,0.23994 0.13455,0.16185 0.2011,0.43098 0.2011,0.81123 0,0.1677 -0.0197,0.36847 -0.0587,0.60442 -0.039,0.234 -0.11512,0.59676 -0.22432,1.08621 l -0.91064,4.01502 h 1.36919 l 0.71754,-3.45325 c 0.1053,-0.4914 0.24764,-0.90492 0.42314,-1.24617 0.17745,-0.3393 0.40555,-0.68456 0.6844,-1.03556 0.27885,-0.34905 0.54402,-0.60815 0.79752,-0.7739 0.2535,-0.16575 0.48953,-0.24794 0.71183,-0.24794 0.273,0 0.47171,0.08 0.59261,0.23994 0.1209,0.16185 0.18129,0.42301 0.18129,0.78571 0,0.1482 -0.0192,0.34144 -0.0583,0.57739 -0.041,0.2379 -0.12309,0.60462 -0.24984,1.09992 l -0.34697,1.3669 c -0.1755,0.663 -0.26126,1.16615 -0.26126,1.50935 0,0.3783 0.10336,0.69007 0.30811,0.93577 0.20475,0.2457 0.4795,0.36867 0.82075,0.36867 0.4329,0 0.81742,-0.11504 1.15477,-0.34125 0.33735,-0.2262 0.73283,-0.57909 1.18523,-1.05879 l -0.45017,-0.44256 c -0.32565,0.36465 -0.57928,0.61017 -0.75868,0.73887 -0.1794,0.1287 -0.34706,0.195 -0.50501,0.195 -0.1482,0 -0.25544,-0.0489 -0.32564,-0.14244 -0.0683,-0.0956 -0.10131,-0.24753 -0.10131,-0.46008 0,-0.23595 0.0702,-0.6416 0.21252,-1.21685 l 0.51454,-2.06882 c 0.1521,-0.6123 0.22852,-1.08416 0.22852,-1.41566 0,-0.50505 -0.1309,-0.89915 -0.3961,-1.178 -0.26325,-0.27885 -0.6357,-0.41932 -1.12125,-0.41932 -0.48555,0 -0.95149,0.15793 -1.40194,0.47188 -0.45045,0.312 -0.90308,0.79201 -1.35548,1.43356 0.004,-0.0409 0.008,-0.0822 0.008,-0.11921 v -0.10893 c 0,-0.54405 -0.13246,-0.95757 -0.39571,-1.24617 -0.26325,-0.28665 -0.64739,-0.43113 -1.15439,-0.43113 -0.48945,0 -0.97522,0.17573 -1.45297,0.52673 -0.4797,0.351 -0.96134,0.88725 -1.44689,1.60875 l -0.0956,-0.0331 c 0.1209,-0.32565 0.18358,-0.6338 0.18358,-0.92435 0,-0.35295 -0.0976,-0.63777 -0.28869,-0.85617 -0.19305,-0.22035 -0.45455,-0.32944 -0.788,-0.32944 z m 97.24484,0 c -0.39975,0 -0.76643,0.11319 -1.10183,0.33744 -0.3354,0.2223 -0.73334,0.57705 -1.19744,1.0626 l 0.45057,0.44256 c 0.3159,-0.35295 0.56552,-0.5967 0.74687,-0.73125 0.18135,-0.13455 0.35498,-0.20262 0.51683,-0.20262 0.1482,0 0.25543,0.0489 0.32563,0.14244 0.0683,0.0955 0.1013,0.24758 0.1013,0.45818 0,0.27495 -0.0567,0.66495 -0.17367,1.17 l -1.15438,5.01134 h 1.3688 l 0.75107,-3.42202 c 0.1092,-0.48555 0.24757,-0.89511 0.40942,-1.23246 0.1638,-0.33735 0.39004,-0.69033 0.68059,-1.05498 0.2886,-0.3666 0.5615,-0.63367 0.81695,-0.79942 0.25545,-0.16575 0.48354,-0.24794 0.68439,-0.24794 0.2847,0 0.49349,0.08 0.62804,0.23994 0.13455,0.16185 0.20071,0.43098 0.20071,0.81123 0,0.1677 -0.0197,0.36847 -0.0587,0.60442 -0.039,0.234 -0.1147,0.59676 -0.22585,1.08621 l -0.90872,4.01502 h 1.3688 l 0.71754,-3.45325 c 0.1053,-0.4914 0.24763,-0.90492 0.42313,-1.24617 0.17745,-0.3393 0.40361,-0.68456 0.68441,-1.03556 0.27885,-0.34905 0.54401,-0.60815 0.79751,-0.7739 0.2535,-0.16575 0.48953,-0.24794 0.71183,-0.24794 0.273,0 0.4721,0.08 0.593,0.23994 0.1209,0.16185 0.18129,0.42301 0.18129,0.78571 0,0.1482 -0.0197,0.34144 -0.0587,0.57739 -0.041,0.2379 -0.12271,0.60462 -0.24946,1.09992 l -0.34734,1.3669 c -0.1755,0.663 -0.26126,1.16615 -0.26126,1.50935 0,0.3783 0.10335,0.69007 0.3081,0.93577 0.20475,0.2457 0.4799,0.36867 0.82115,0.36867 0.4329,0 0.81703,-0.11504 1.15438,-0.34125 0.33735,-0.2262 0.73322,-0.57909 1.18562,-1.05879 l -0.45057,-0.44256 c -0.3276,0.36465 -0.57927,0.61017 -0.75867,0.73887 -0.1794,0.1287 -0.34706,0.195 -0.50501,0.195 -0.1482,0 -0.2574,-0.0489 -0.32565,-0.14244 -0.0683,-0.0956 -0.1013,-0.24753 -0.1013,-0.46008 0,-0.23595 0.0702,-0.6416 0.21251,-1.21685 l 0.51494,-2.06882 c 0.1521,-0.6123 0.22813,-1.08416 0.22813,-1.41566 0,-0.50505 -0.1309,-0.89915 -0.3961,-1.178 -0.26325,-0.27885 -0.6357,-0.41932 -1.12125,-0.41932 -0.48555,0 -0.95149,0.15793 -1.40194,0.47188 -0.45045,0.312 -0.90269,0.79201 -1.35509,1.43356 0.004,-0.0409 0.008,-0.0822 0.008,-0.11921 v -0.10893 c 0,-0.54405 -0.13247,-0.95757 -0.39571,-1.24617 -0.26325,-0.28665 -0.64739,-0.43113 -1.15439,-0.43113 -0.48945,0 -0.97523,0.17573 -1.45298,0.52673 -0.4797,0.351 -0.96328,0.88725 -1.44688,1.60875 l -0.0952,-0.0331 c 0.1209,-0.32565 0.18129,-0.6338 0.18129,-0.92435 0,-0.35295 -0.0957,-0.63777 -0.28678,-0.85617 -0.19305,-0.22035 -0.45416,-0.32944 -0.78761,-0.32944 z m 95.4525,0 c -0.39975,0 -0.76643,0.11319 -1.10183,0.33744 -0.3354,0.2223 -0.73334,0.57705 -1.19744,1.0626 l 0.45057,0.44256 c 0.3159,-0.35295 0.56552,-0.5967 0.74687,-0.73125 0.18135,-0.13455 0.35498,-0.20262 0.51683,-0.20262 0.1482,0 0.25543,0.0489 0.32563,0.14244 0.0683,0.0955 0.1013,0.24758 0.1013,0.45818 0,0.27495 -0.0567,0.66495 -0.17367,1.17 l -1.15438,5.01134 h 1.3688 l 0.75106,-3.42202 c 0.1092,-0.48555 0.24757,-0.89511 0.40943,-1.23246 0.16379,-0.33735 0.39004,-0.69033 0.68059,-1.05498 0.28859,-0.3666 0.5615,-0.63367 0.81695,-0.79942 0.25545,-0.16575 0.48354,-0.24794 0.68439,-0.24794 0.2847,0 0.49349,0.08 0.62804,0.23994 0.13455,0.16185 0.20071,0.43098 0.20071,0.81123 0,0.1677 -0.0197,0.36847 -0.0587,0.60442 -0.039,0.234 -0.1147,0.59676 -0.22585,1.08621 l -0.90872,4.01502 h 1.3688 l 0.71754,-3.45325 c 0.1053,-0.4914 0.24763,-0.90492 0.42313,-1.24617 0.17745,-0.3393 0.40361,-0.68456 0.68441,-1.03556 0.27885,-0.34905 0.54401,-0.60815 0.79751,-0.7739 0.2535,-0.16575 0.48953,-0.24794 0.71183,-0.24794 0.273,0 0.4721,0.08 0.593,0.23994 0.1209,0.16185 0.18129,0.42301 0.18129,0.78571 0,0.1482 -0.0197,0.34144 -0.0587,0.57739 -0.041,0.2379 -0.12271,0.60462 -0.24946,1.09992 l -0.34734,1.3669 c -0.1755,0.663 -0.26126,1.16615 -0.26126,1.50935 0,0.3783 0.10335,0.69007 0.3081,0.93577 0.20475,0.2457 0.4799,0.36867 0.82115,0.36867 0.4329,0 0.81703,-0.11504 1.15438,-0.34125 0.33735,-0.2262 0.73322,-0.57909 1.18562,-1.05879 l -0.45057,-0.44256 c -0.3276,0.36465 -0.57927,0.61017 -0.75867,0.73887 -0.1794,0.1287 -0.34706,0.195 -0.50501,0.195 -0.1482,0 -0.2574,-0.0489 -0.32565,-0.14244 -0.0682,-0.0956 -0.1013,-0.24753 -0.1013,-0.46008 0,-0.23595 0.0702,-0.6416 0.21251,-1.21685 l 0.51494,-2.06882 c 0.1521,-0.6123 0.22813,-1.08416 0.22813,-1.41566 0,-0.50505 -0.1309,-0.89915 -0.3961,-1.178 -0.26325,-0.27885 -0.63765,-0.41932 -1.12125,-0.41932 -0.48555,0 -0.95149,0.15793 -1.40194,0.47188 -0.45045,0.312 -0.90269,0.79201 -1.35509,1.43356 0.004,-0.0409 0.008,-0.0822 0.008,-0.11921 v -0.10893 c 0,-0.54405 -0.13247,-0.95757 -0.39571,-1.24617 -0.26325,-0.28665 -0.64739,-0.43113 -1.15439,-0.43113 -0.48945,0 -0.97523,0.17573 -1.45298,0.52673 -0.4797,0.351 -0.96328,0.88725 -1.44688,1.60875 l -0.0952,-0.0331 c 0.1209,-0.32565 0.18129,-0.6338 0.18129,-0.92435 0,-0.35295 -0.0957,-0.63777 -0.28678,-0.85617 -0.19305,-0.22035 -0.45416,-0.32944 -0.78761,-0.32944 z m 99.01885,0 c -0.39975,0 -0.76838,0.11319 -1.10183,0.33744 -0.3354,0.2223 -0.73487,0.57705 -1.19702,1.0626 l 0.45017,0.44256 c 0.3159,-0.35295 0.56355,-0.5967 0.74685,-0.73125 0.18135,-0.13455 0.35303,-0.20262 0.51683,-0.20262 0.1482,0 0.25549,0.0489 0.32374,0.14244 0.0683,0.0955 0.10321,0.24758 0.10321,0.45818 0,0.27495 -0.0582,0.66495 -0.17329,1.17 l -1.15438,5.01134 h 1.36689 l 0.75069,-3.42202 c 0.11115,-0.48555 0.24751,-0.89511 0.41131,-1.23246 0.1638,-0.33735 0.39006,-0.69033 0.68061,-1.05498 0.2886,-0.3666 0.56148,-0.63367 0.81693,-0.79942 0.25545,-0.16575 0.48394,-0.24794 0.68479,-0.24794 0.28275,0 0.49311,0.08 0.62766,0.23994 0.13455,0.16185 0.20108,0.43098 0.20108,0.81123 0,0.1677 -0.0197,0.36847 -0.0586,0.60442 -0.041,0.234 -0.11509,0.59676 -0.22624,1.08621 l -0.90874,4.01502 h 1.36691 l 0.71945,-3.45325 c 0.1053,-0.4914 0.24605,-0.90492 0.4235,-1.24617 0.1755,-0.3393 0.40365,-0.68456 0.6825,-1.03556 0.2808,-0.34905 0.54592,-0.60815 0.79942,-0.7739 0.25155,-0.16575 0.48953,-0.24794 0.71183,-0.24794 0.27301,0 0.46982,0.08 0.59072,0.23994 0.12285,0.16185 0.1832,0.42301 0.1832,0.78571 0,0.1482 -0.0196,0.34144 -0.0606,0.57739 -0.039,0.2379 -0.12275,0.60462 -0.24755,1.09992 l -0.34888,1.3669 c -0.17355,0.663 -0.25935,1.16615 -0.25935,1.50935 0,0.3783 0.10141,0.69007 0.30811,0.93577 0.20475,0.2457 0.4795,0.36867 0.82075,0.36867 0.4329,0 0.81705,-0.11504 1.1544,-0.34125 0.33735,-0.2262 0.73125,-0.57909 1.1856,-1.05879 l -0.45017,-0.44256 c -0.3276,0.36465 -0.57927,0.61017 -0.75867,0.73887 -0.1794,0.1287 -0.34897,0.195 -0.50692,0.195 -0.14625,0 -0.25549,-0.0489 -0.32374,-0.14244 -0.0682,-0.0956 -0.10359,-0.24753 -0.10359,-0.46008 0,-0.23595 0.0725,-0.6416 0.21482,-1.21685 l 0.51263,-2.06882 c 0.15405,-0.6123 0.23004,-1.08416 0.23004,-1.41566 0,-0.50505 -0.13246,-0.89915 -0.39571,-1.178 -0.26325,-0.27885 -0.63765,-0.41932 -1.12125,-0.41932 -0.48555,0 -0.95341,0.15793 -1.40386,0.47188 -0.45045,0.312 -0.90112,0.79201 -1.35547,1.43356 0.006,-0.0409 0.008,-0.0822 0.008,-0.11921 v -0.10893 c 0,-0.54405 -0.13094,-0.95757 -0.39419,-1.24617 -0.26325,-0.28665 -0.64933,-0.43113 -1.15438,-0.43113 -0.48945,0 -0.97481,0.17573 -1.45451,0.52673 -0.4797,0.351 -0.96138,0.88725 -1.44498,1.60875 l -0.0956,-0.0331 c 0.1209,-0.32565 0.18129,-0.6338 0.18129,-0.92435 0,-0.35295 -0.0956,-0.63777 -0.2887,-0.85617 -0.1911,-0.22035 -0.45421,-0.32944 -0.78571,-0.32944 z m 118.48002,0 c -0.39975,0 -0.76835,0.11319 -1.1018,0.33744 -0.3354,0.2223 -0.7349,0.57705 -1.19705,1.0626 l 0.45015,0.44256 c 0.3159,-0.35295 0.5636,-0.5967 0.7469,-0.73125 0.18135,-0.13455 0.353,-0.20262 0.5168,-0.20262 0.1482,0 0.2555,0.0489 0.32375,0.14244 0.0683,0.0955 0.1032,0.24758 0.1032,0.45818 0,0.27495 -0.0583,0.66495 -0.1733,1.17 l -1.1544,5.01134 h 1.36695 l 0.75065,-3.42202 c 0.11115,-0.48555 0.24755,-0.89511 0.41135,-1.23246 0.1638,-0.33735 0.39005,-0.69033 0.67865,-1.05498 0.29055,-0.3666 0.5634,-0.63367 0.81885,-0.79942 0.25545,-0.16575 0.48395,-0.24794 0.6848,-0.24794 0.28275,0 0.4931,0.08 0.62765,0.23994 0.13455,0.16185 0.2011,0.43098 0.2011,0.81123 0,0.1677 -0.0195,0.36847 -0.0587,0.60442 -0.041,0.234 -0.1151,0.59676 -0.22625,1.08621 l -0.9087,4.01502 h 1.3669 l 0.7198,-3.45325 c 0.1053,-0.4914 0.2457,-0.90492 0.42315,-1.24617 0.1755,-0.3393 0.40365,-0.68456 0.6825,-1.03556 0.2808,-0.34905 0.54595,-0.60815 0.79945,-0.7739 0.25155,-0.16575 0.48915,-0.24794 0.7095,-0.24794 0.27495,0 0.4721,0.08 0.593,0.23994 0.12285,0.16185 0.1832,0.42301 0.1832,0.78571 0,0.1482 -0.0195,0.34144 -0.0602,0.57739 -0.039,0.2379 -0.1231,0.60462 -0.2479,1.09992 l -0.34885,1.3669 c -0.17355,0.663 -0.2594,1.16615 -0.2594,1.50935 0,0.3783 0.10145,0.69007 0.30815,0.93577 0.20475,0.2457 0.47755,0.36867 0.82075,0.36867 0.4329,0 0.817,-0.11504 1.15435,-0.34125 0.33735,-0.2262 0.7313,-0.57909 1.18565,-1.05879 l -0.4502,-0.44256 c -0.3276,0.36465 -0.5812,0.61017 -0.75865,0.73887 -0.1794,0.1287 -0.349,0.195 -0.50695,0.195 -0.14625,0 -0.25545,-0.0489 -0.3237,-0.14244 -0.0683,-0.0956 -0.10365,-0.24753 -0.10365,-0.46008 0,-0.23595 0.0725,-0.6416 0.21485,-1.21685 l 0.5126,-2.06882 c 0.15405,-0.6123 0.23005,-1.08416 0.23005,-1.41566 0,-0.50505 -0.13245,-0.89915 -0.3957,-1.178 -0.26325,-0.27885 -0.63765,-0.41932 -1.12125,-0.41932 -0.48555,0 -0.9534,0.15793 -1.40385,0.47188 -0.45045,0.312 -0.90115,0.79201 -1.3555,1.43356 0.006,-0.0409 0.008,-0.0822 0.008,-0.11921 v -0.10893 c 0,-0.54405 -0.13095,-0.95757 -0.3942,-1.24617 -0.26325,-0.28665 -0.6493,-0.43113 -1.15435,-0.43113 -0.48945,0 -0.9748,0.17573 -1.4545,0.52673 -0.4797,0.351 -0.9614,0.88725 -1.445,1.60875 l -0.0956,-0.0331 c 0.1209,-0.32565 0.1813,-0.6338 0.1813,-0.92435 0,-0.35295 -0.0956,-0.63777 -0.2887,-0.85617 -0.1911,-0.22035 -0.4542,-0.32944 -0.7857,-0.32944 z M 45.666944,50.295145 c -2.165475,1.85445 -3.884079,4.62165 -5.156455,8.2974 -1.272374,3.6777 -1.908866,7.78215 -1.908866,12.31395 0,4.4616 0.636491,8.55875 1.908866,12.293 1.272375,3.7323 2.99098,6.52092 5.156455,8.36367 l 0.371337,-0.5831 c -1.87044,-1.9032 -3.311092,-4.65686 -4.322752,-8.26046 -1.011465,-3.6036 -1.517344,-7.53851 -1.517344,-11.80511 0,-4.368 0.506957,-8.32257 1.521152,-11.86377 1.014195,-3.53925 2.453769,-6.26133 4.318944,-8.16258 z m 43.676191,0 -0.371335,0.593 c 1.85991,1.90125 3.298025,4.62333 4.314755,8.16258 1.016925,3.5412 1.52534,7.49577 1.52534,11.86377 0,4.2666 -0.50588,8.20151 -1.517345,11.80511 -1.01166,3.6036 -2.45231,6.35726 -4.32275,8.26046 l 0.371335,0.5831 c 2.16528,-1.84275 3.88446,-4.63137 5.156835,-8.36367 1.272375,-3.73425 1.908105,-7.8314 1.908105,-12.293 5e-6,-4.5318 -0.63573,-8.63625 -1.908105,-12.31395 -1.272375,-3.67575 -2.991555,-6.44295 -5.156835,-8.2974 z m -7.156345,2.16062 -3.69853,2.20555 0.347725,0.60823 c 0.458445,-0.30615 0.843175,-0.54589 1.154005,-0.71944 0.311025,-0.17355 0.550585,-0.26127 0.719065,-0.26127 0.14235,0 0.2504,0.0487 0.32411,0.14625 0.07371,0.0975 0.11045,0.25138 0.11045,0.46198 v 6.40987 c 0,0.36855 -0.0304,0.63562 -0.09103,0.79942 -0.06045,0.16185 -0.15649,0.28849 -0.28831,0.37819 -0.131625,0.0897 -0.32263,0.15625 -0.572815,0.2011 -0.250185,0.0448 -0.66784,0.0817 -1.252645,0.10702 v 0.57738 h 5.8401 v -0.57738 c -0.4056,-0.01 -0.73212,-0.029 -0.979575,-0.0583 -0.24765,-0.0292 -0.4532,-0.0722 -0.61661,-0.12683 -0.163215,-0.0546 -0.288555,-0.13254 -0.375525,-0.23004 -0.08678,-0.0975 -0.14735,-0.22257 -0.18167,-0.37857 -0.03415,-0.156 -0.05142,-0.38587 -0.05142,-0.69202 v -6.74921 c 0,-0.89505 0.016,-1.59496 0.0476,-2.10196 z m 118.78851,0 -3.69928,2.20555 0.34924,0.60823 c 0.45825,-0.30615 0.84244,-0.54589 1.15249,-0.71944 0.312,-0.17355 0.55174,-0.26127 0.71944,-0.26127 0.14235,0 0.24963,0.0487 0.32373,0.14625 0.0741,0.0975 0.11121,0.25138 0.11121,0.46198 v 6.40987 c 0,0.36855 -0.0314,0.63562 -0.0918,0.79942 -0.0605,0.16185 -0.1561,0.28849 -0.2887,0.37819 -0.13065,0.0897 -0.32169,0.15625 -0.57129,0.2011 -0.25155,0.0448 -0.66877,0.0817 -1.25377,0.10702 v 0.57738 h 5.84009 v -0.57738 c -0.4056,-0.01 -0.73117,-0.029 -0.97882,-0.0583 -0.24765,-0.0292 -0.45437,-0.0722 -0.61622,-0.12683 -0.1638,-0.0546 -0.28854,-0.13254 -0.37629,-0.23004 -0.0858,-0.0975 -0.14815,-0.22257 -0.1813,-0.37857 -0.0351,-0.156 -0.0507,-0.38587 -0.0507,-0.69202 v -6.74921 c 0,-0.89505 0.0156,-1.59496 0.0468,-2.10196 z m -31.38129,3.22511 c -0.4056,0 -0.76827,0.10542 -1.09002,0.31992 -0.32175,0.21255 -0.72563,0.57355 -1.20923,1.0786 l 0.45056,0.44256 c 0.3159,-0.35295 0.56552,-0.5967 0.74687,-0.73125 0.18135,-0.13455 0.35302,-0.2011 0.51682,-0.2011 0.1482,0 0.25548,0.0469 0.32374,0.14244 0.0683,0.0936 0.10321,0.24758 0.10321,0.45818 0,0.273 -0.0586,0.663 -0.17367,1.17 l -1.15439,5.00982 h 1.36691 l 0.75105,-3.4224 c 0.11115,-0.48945 0.2534,-0.90282 0.42695,-1.23627 0.17355,-0.3354 0.40537,-0.68066 0.69202,-1.03556 0.28665,-0.3549 0.55768,-0.62202 0.81313,-0.79752 0.25545,-0.17745 0.49372,-0.26507 0.71602,-0.26507 0.273,0 0.47172,0.08 0.59262,0.23994 0.1209,0.16185 0.18128,0.42296 0.18128,0.78761 0,0.14625 -0.0192,0.33949 -0.0583,0.57739 -0.0409,0.23595 -0.12309,0.60233 -0.24984,1.09763 l -0.34696,1.36691 c -0.17355,0.663 -0.26127,1.16614 -0.26127,1.50934 0,0.38025 0.10336,0.69241 0.30811,0.93616 0.20475,0.2457 0.47946,0.36829 0.82266,0.36829 0.43095,0 0.81513,-0.11286 1.15248,-0.33516 0.33735,-0.22425 0.73321,-0.57933 1.18561,-1.06488 l -0.45017,-0.44066 c -0.32565,0.3627 -0.57927,0.60865 -0.75867,0.73735 -0.1794,0.13065 -0.34707,0.195 -0.50502,0.195 -0.1482,0 -0.25548,-0.0488 -0.32373,-0.14244 -0.0702,-0.0956 -0.1036,-0.24758 -0.1036,-0.45818 0,-0.2379 0.0705,-0.64354 0.2129,-1.21684 l 0.51454,-2.07112 c 0.1521,-0.6123 0.22814,-1.0822 0.22814,-1.41565 0,-0.4992 -0.13056,-0.8911 -0.39381,-1.1719 -0.26325,-0.28275 -0.6417,-0.42314 -1.13115,-0.42314 -0.4953,0 -0.9747,0.17539 -1.4427,0.52444 -0.46605,0.351 -0.9576,0.8894 -1.4724,1.61675 l -0.0956,-0.0312 c 0.12675,-0.3432 0.18929,-0.65349 0.18929,-0.93234 0,-0.35295 -0.0956,-0.6393 -0.28869,-0.8577 -0.1911,-0.2184 -0.45421,-0.32792 -0.78571,-0.32792 z m 11.81312,2.53729 v 1.05079 h 9.73629 v -1.05079 z m -129.79992,6.41519 -3.698527,2.20556 0.347724,0.60861 c 0.45825,-0.30615 0.843174,-0.54627 1.154004,-0.71982 0.31083,-0.17355 0.550387,-0.26127 0.719064,-0.26127 0.142155,0 0.25002,0.0488 0.32373,0.14625 0.07391,0.0975 0.11083,0.25176 0.11083,0.46236 v 6.40948 c 0,0.36855 -0.0302,0.63567 -0.09064,0.79752 -0.06065,0.1638 -0.15687,0.29078 -0.28869,0.38048 -0.131625,0.0897 -0.322433,0.15587 -0.572813,0.20072 -0.250185,0.0448 -0.667842,0.0801 -1.252648,0.1074 v 0.577 h 5.840096 v -0.577 c -0.4056,-0.0117 -0.7323,-0.0313 -0.97995,-0.0587 -0.24765,-0.0292 -0.453015,-0.0722 -0.61623,-0.12682 -0.16341,-0.0566 -0.288555,-0.13254 -0.375525,-0.23005 -0.08697,-0.0975 -0.147545,-0.22414 -0.18167,-0.37819 -0.0343,-0.156 -0.05141,-0.38626 -0.05141,-0.69241 v -6.74882 c 0,-0.89505 0.01565,-1.5973 0.0472,-2.10235 z m 70.33901,0 c -0.71662,0 -1.34872,0.12875 -1.89667,0.3881 -0.54795,0.2574 -0.97216,0.62417 -1.27246,1.09802 -0.3003,0.47385 -0.45055,1.02174 -0.45055,1.64379 0,0.39 0.0764,0.74288 0.22927,1.05878 0.15269,0.3159 0.35844,0.60263 0.61662,0.85808 0.25818,0.25545 0.58195,0.51485 0.97195,0.7781 0.43192,0.2886 0.76244,0.54584 0.99176,0.77009 0.22912,0.22425 0.40048,0.45851 0.51378,0.70421 0.11329,0.24375 0.16986,0.52643 0.16986,0.84818 0,0.69615 -0.20555,1.23817 -0.61661,1.62817 -0.41087,0.39 -0.97439,0.585 -1.69102,0.585 -0.62166,0 -1.08133,-0.15603 -1.37909,-0.46998 -0.29757,-0.31395 -0.44637,-0.79158 -0.44637,-1.43508 h -0.75867 l -0.47417,2.17433 c 0.44265,0.1209 0.94433,0.22017 1.50554,0.30012 0.56101,0.078 1.0838,0.11882 1.56838,0.11882 0.71662,0 1.35547,-0.13647 1.91648,-0.40752 0.56121,-0.27105 0.99596,-0.65518 1.30406,-1.15438 0.3083,-0.49725 0.46237,-1.06851 0.46237,-1.71006 0,-0.4173 -0.0648,-0.78207 -0.19386,-1.09992 -0.12909,-0.3159 -0.32917,-0.61418 -0.60062,-0.89693 -0.27124,-0.2808 -0.66506,-0.60058 -1.18142,-0.95938 -0.59007,-0.4056 -0.98878,-0.75663 -1.19704,-1.05498 -0.20807,-0.29835 -0.31231,-0.64352 -0.31231,-1.03937 0,-0.3783 0.087,-0.72326 0.26089,-1.03136 0.17394,-0.3081 0.42659,-0.55185 0.75867,-0.73125 0.33189,-0.1794 0.71662,-0.26737 1.15401,-0.26737 0.35821,0 0.64506,0.0545 0.86112,0.16568 0.21606,0.1092 0.38195,0.2926 0.49778,0.54805 0.11603,0.25545 0.18461,0.60843 0.20567,1.05498 h 0.75791 l 0.44256,-2.02998 c -0.4992,-0.15795 -0.95674,-0.2708 -1.37034,-0.33515 -0.41359,-0.0663 -0.8629,-0.0998 -1.34748,-0.0998 z m 35.00174,1.20923 v 4.55127 h -4.30752 v 1.05117 h 4.30752 v 4.55318 h 1.12354 v -4.55318 h 4.30561 v -1.05117 h -4.30561 v -4.55127 z m -53.46618,0.75068 -0.79028,0.7899 3.59569,3.54885 -3.61131,3.60369 0.73468,0.74267 3.6513,-3.58008 3.54009,3.61131 0.79066,-0.78952 -3.54847,-3.58807 3.54047,-3.6037 -0.74305,-0.73505 -3.5797,3.57246 z m -81.564464,2.16442 v 1.05117 h 9.736289 v -1.05117 z m 38.274844,1.63617 v 1.05117 h 9.73629 v -1.05117 z m 14.36754,0.0819 v 0.975 h 13.845 v -0.975 z m 92.62576,0 v 0.975 h 37.63502 v -0.975 z m -22.85575,0.87559 c -0.48555,0.25935 -0.96127,0.5187 -1.43317,0.78 -0.46995,0.2613 -0.94586,0.52437 -1.42556,0.78762 0.0468,0.0936 0.0915,0.18337 0.13444,0.27308 0.0409,0.0897 0.0879,0.17766 0.13864,0.26736 0.37635,-0.24375 0.6823,-0.42707 0.91825,-0.55187 0.23595,-0.1248 0.41344,-0.18548 0.53434,-0.18548 0.10725,0 0.19135,0.0314 0.24985,0.0918 0.0585,0.0624 0.0857,0.1694 0.0857,0.31955 v 4.16545 c 0,0.13066 -0.006,0.24165 -0.0194,0.33135 -0.0136,0.0877 -0.0315,0.16384 -0.0548,0.22623 -0.0234,0.0624 -0.0543,0.1133 -0.0933,0.15425 -0.039,0.041 -0.086,0.078 -0.13863,0.11311 -0.0507,0.0312 -0.10923,0.0563 -0.17748,0.0777 -0.0683,0.0214 -0.15807,0.0411 -0.27117,0.0586 -0.11115,0.0175 -0.24767,0.031 -0.40562,0.0408 -0.1599,0.01 -0.35266,0.0177 -0.58081,0.0255 v 0.50503 h 4.60573 v -0.50503 c -0.23595,-0.004 -0.43862,-0.01 -0.60633,-0.0194 -0.16965,-0.01 -0.31408,-0.0236 -0.43303,-0.0411 -0.1209,-0.0175 -0.21831,-0.039 -0.29631,-0.0644 -0.078,-0.0254 -0.14025,-0.0602 -0.1851,-0.10703 -0.039,-0.0312 -0.0743,-0.0683 -0.10359,-0.1112 -0.0273,-0.0429 -0.0506,-0.0938 -0.0682,-0.15426 -0.0175,-0.0585 -0.031,-0.13238 -0.0388,-0.22013 -0.008,-0.0877 -0.0118,-0.19107 -0.0118,-0.31002 v -4.41492 c 0,-0.15405 0.002,-0.31203 0.004,-0.46998 0.002,-0.1599 0.004,-0.32166 0.008,-0.49131 0.004,-0.1677 0.01,-0.35874 0.0175,-0.57129 z m -122.412394,0.68631 v 1.05117 h 9.736289 v -1.05117 z m 104.316244,0.86379 c -0.15795,0 -0.30973,0.0215 -0.45208,0.0644 -0.1443,0.0429 -0.28874,0.10945 -0.43304,0.2011 -0.14625,0.0897 -0.29827,0.20656 -0.45817,0.34696 -0.16185,0.14235 -0.33939,0.31188 -0.53244,0.50883 l 0.4018,0.37819 c 0.11505,-0.1209 0.22028,-0.22608 0.31193,-0.31383 0.0936,-0.0897 0.17941,-0.16392 0.25936,-0.22242 0.0799,-0.0565 0.15408,-0.10138 0.22623,-0.13063 0.0722,-0.0273 0.14232,-0.0426 0.21252,-0.0426 0.22815,0 0.34316,0.14229 0.34316,0.42504 0,0.0994 -0.0117,0.23014 -0.035,0.38809 -0.0234,0.1599 -0.0605,0.33921 -0.11121,0.54006 l -0.87179,3.78689 h 1.13877 l 0.65127,-2.9151 c 0.039,-0.17745 0.0997,-0.35681 0.18357,-0.53816 0.0819,-0.1794 0.17721,-0.35107 0.28641,-0.51682 0.1092,-0.1638 0.22816,-0.31997 0.35686,-0.46427 0.13065,-0.1443 0.26345,-0.27094 0.398,-0.37819 0.1365,-0.1053 0.27111,-0.18902 0.40371,-0.24947 0.13455,-0.0585 0.25933,-0.0899 0.37438,-0.0899 0.2028,0 0.3471,0.0568 0.43875,0.16986 0.0916,0.11115 0.13635,0.28645 0.13635,0.52825 0,0.0994 -0.0116,0.22605 -0.0369,0.38011 -0.0254,0.15209 -0.0607,0.32596 -0.1055,0.52292 -0.0448,0.19499 -0.0953,0.40745 -0.15577,0.63755 -0.0604,0.23205 -0.1248,0.4717 -0.195,0.72325 -0.0663,0.24765 -0.115,0.4758 -0.14815,0.6825 -0.0332,0.2067 -0.0488,0.38825 -0.0488,0.54425 0,0.15405 0.0233,0.2963 0.0682,0.42695 0.0468,0.1287 0.113,0.24193 0.1988,0.33553 0.0838,0.0956 0.18731,0.16973 0.30431,0.22433 0.11895,0.0546 0.24774,0.0819 0.38619,0.0819 0.1677,0 0.32335,-0.0237 0.4696,-0.0685 0.1482,-0.0429 0.29665,-0.11097 0.44485,-0.20262 0.15015,-0.0897 0.30403,-0.20661 0.46198,-0.34506 0.15795,-0.13845 0.33339,-0.30625 0.52254,-0.4993 l -0.39952,-0.38429 c -0.117,0.1287 -0.22256,0.23817 -0.31421,0.32982 -0.0936,0.0897 -0.17913,0.16354 -0.25518,0.22204 -0.078,0.0585 -0.15217,0.10143 -0.22432,0.12873 -0.0721,0.0273 -0.14414,0.0412 -0.21824,0.0412 -0.11895,0 -0.20705,-0.0331 -0.26165,-0.0994 -0.0526,-0.0663 -0.0796,-0.17172 -0.0796,-0.31992 0,-0.039 0.0175,-0.13641 0.0507,-0.29631 0.0351,-0.15795 0.0798,-0.34928 0.13444,-0.57548 0.0546,-0.22425 0.11322,-0.46796 0.17367,-0.73316 0.0624,-0.2652 0.1206,-0.52464 0.1752,-0.77619 0.0526,-0.25155 0.0978,-0.48328 0.13292,-0.69583 0.0351,-0.2145 0.0526,-0.38031 0.0526,-0.50121 0,-0.3978 -0.10151,-0.7078 -0.30431,-0.92815 -0.20475,-0.22035 -0.51099,-0.33173 -0.92244,-0.33173 -0.39,0 -0.76836,0.12884 -1.13496,0.38429 -0.36465,0.25545 -0.73695,0.63958 -1.11135,1.15438 l -0.0819,-0.0293 c 0.0351,-0.0761 0.0583,-0.15795 0.072,-0.24376 0.0136,-0.0838 0.0217,-0.16575 0.0217,-0.24375 0,-0.30615 -0.0782,-0.55166 -0.23613,-0.73886 -0.15601,-0.18915 -0.37834,-0.28298 -0.66498,-0.28298 z m 6.66542,2.08444 v 0.88931 h 6.69208 v -0.88931 z m -55.75439,3.63302 c -0.40053,0 -0.767965,0.11129 -1.102585,0.33554 -0.334425,0.22425 -0.733715,0.57899 -1.197425,1.06259 l 0.450555,0.44256 c 0.316095,-0.35295 0.56513,-0.5967 0.74687,-0.73125 0.18174,-0.13455 0.354555,-0.20071 0.517965,-0.20071 0.14742,0 0.25529,0.0469 0.32373,0.14244 0.06864,0.0936 0.102835,0.24758 0.102835,0.45818 0,0.273 -0.05785,0.663 -0.173675,1.17 l -1.154,5.00944 h 1.367285 l 0.75067,-3.42202 c 0.110565,-0.4836 0.247735,-0.89511 0.41095,-1.23246 0.16341,-0.33735 0.390065,-0.68838 0.679835,-1.05498 0.28977,-0.3666 0.562255,-0.63177 0.817705,-0.79752 0.255645,-0.16575 0.483375,-0.24985 0.68364,-0.24985 0.284505,0 0.494065,0.08 0.62842,0.24185 0.134355,0.1599 0.201095,0.42907 0.201095,0.80932 0,0.1677 -0.01945,0.37043 -0.05903,0.60443 -0.0394,0.234 -0.11471,0.59676 -0.22547,1.08621 l -0.90835,4.01502 h 1.366905 l 0.719065,-3.45325 c 0.1053,-0.48945 0.24628,-0.90497 0.42275,-1.24427 0.17648,-0.34125 0.404785,-0.68651 0.684025,-1.03556 0.27924,-0.351 0.544985,-0.60815 0.7979,-0.7739 0.252915,-0.16575 0.489935,-0.24985 0.711065,-0.24985 0.273975,0 0.4719,0.08 0.592995,0.24185 0.121095,0.1599 0.181675,0.42144 0.181675,0.78609 0,0.14625 -0.01985,0.3391 -0.05942,0.577 -0.0394,0.23595 -0.12234,0.60272 -0.2487,1.09802 l -0.347725,1.36691 c -0.173745,0.66495 -0.26089,1.16809 -0.26089,1.50934 0,0.38025 0.102965,0.69202 0.308495,0.93577 0.205335,0.2457 0.479095,0.36868 0.821515,0.36868 0.43212,0 0.81685,-0.11315 1.154005,-0.33935 0.337155,-0.22815 0.73225,-0.58104 1.185235,-1.05879 l -0.45056,-0.44256 c -0.326625,0.3627 -0.57928,0.60822 -0.75829,0.73887 -0.179205,0.1287 -0.347635,0.19309 -0.50578,0.19309 -0.147615,0 -0.255475,-0.0469 -0.324115,-0.14244 -0.06845,-0.0955 -0.10283,-0.24757 -0.10283,-0.45817 0,-0.2379 0.07093,-0.64355 0.21328,-1.21684 l 0.51378,-2.07073 c 0.15288,-0.61035 0.22928,-1.08221 0.22928,-1.41566 0,-0.50505 -0.13189,-0.89725 -0.395335,-1.17609 -0.263445,-0.2808 -0.63724,-0.41895 -1.12201,-0.41895 -0.48477,0 -0.95244,0.15565 -1.403085,0.4696 -0.45045,0.31395 -0.90192,0.79196 -1.3551,1.43546 0.0053,-0.0429 0.008,-0.0822 0.008,-0.11921 v -0.11083 c 0,-0.5421 -0.13189,-0.95762 -0.395335,-1.24427 -0.263445,-0.2886 -0.64779,-0.43075 -1.15362,-0.43075 -0.48984,0 -0.974615,0.17539 -1.45412,0.52445 -0.47931,0.351 -0.96155,0.88725 -1.446125,1.60875 l -0.09522,-0.0312 c 0.12129,-0.32761 0.18205,-0.63575 0.18205,-0.92435 0,-0.35295 -0.09642,-0.63968 -0.28869,-0.85808 -0.19227,-0.2184 -0.4542,-0.32754 -0.78609,-0.32754 z m 104.4027,0 c -0.39975,0 -0.76643,0.11129 -1.10183,0.33554 -0.3354,0.22425 -0.73294,0.57899 -1.19704,1.06259 l 0.45056,0.44256 c 0.3159,-0.35295 0.56513,-0.5967 0.74648,-0.73125 0.18135,-0.13455 0.35498,-0.20071 0.51683,-0.20071 0.1482,0 0.25543,0.0469 0.32563,0.14244 0.0682,0.0936 0.10169,0.24758 0.10169,0.45818 0,0.273 -0.0567,0.663 -0.17367,1.17 l -1.15438,5.00944 h 1.3669 l 0.75258,-3.42202 c 0.1092,-0.4836 0.24562,-0.89511 0.40942,-1.23246 0.1638,-0.33735 0.39005,-0.68838 0.6806,-1.05498 0.2886,-0.3666 0.56187,-0.63177 0.81732,-0.79752 0.25545,-0.16575 0.48356,-0.24985 0.68441,-0.24985 0.2847,0 0.4931,0.08 0.62765,0.24185 0.13455,0.1599 0.2011,0.42907 0.2011,0.80932 0,0.1677 -0.0197,0.37043 -0.0587,0.60443 -0.039,0.234 -0.11508,0.59676 -0.22623,1.08621 l -0.90873,4.01502 h 1.36919 l 0.71754,-3.45325 c 0.1053,-0.48945 0.24764,-0.90497 0.42314,-1.24427 0.17745,-0.34125 0.4036,-0.68651 0.6844,-1.03556 0.27885,-0.351 0.54402,-0.60815 0.79752,-0.7739 0.2535,-0.16575 0.48953,-0.24985 0.71183,-0.24985 0.273,0 0.47171,0.08 0.59261,0.24185 0.1209,0.1599 0.18129,0.42144 0.18129,0.78609 0,0.14625 -0.0193,0.3391 -0.0583,0.577 -0.041,0.23595 -0.1231,0.60272 -0.24985,1.09802 l -0.34696,1.36691 c -0.1755,0.66495 -0.26126,1.16809 -0.26126,1.50934 0,0.38025 0.10141,0.69202 0.30811,0.93577 0.20475,0.2457 0.47951,0.36868 0.82076,0.36868 0.4329,0 0.8174,-0.11315 1.15475,-0.33935 0.33735,-0.22815 0.73285,-0.58104 1.18525,-1.05879 l -0.45018,-0.44256 c -0.3276,0.3627 -0.57928,0.60822 -0.75868,0.73887 -0.1794,0.1287 -0.34706,0.19309 -0.50501,0.19309 -0.1482,0 -0.25739,-0.0469 -0.32564,-0.14244 -0.0683,-0.0955 -0.10132,-0.24757 -0.10132,-0.45817 0,-0.2379 0.0702,-0.64355 0.21253,-1.21684 l 0.51455,-2.07073 c 0.1521,-0.61035 0.2285,-1.08221 0.2285,-1.41566 0,-0.50505 -0.13088,-0.89725 -0.39608,-1.17609 -0.26325,-0.2808 -0.63765,-0.41895 -1.12125,-0.41895 -0.48555,0 -0.95151,0.15565 -1.40195,0.4696 -0.45045,0.31395 -0.90308,0.79196 -1.35548,1.43546 0.004,-0.0429 0.008,-0.0822 0.008,-0.11921 v -0.11083 c 0,-0.5421 -0.13246,-0.95762 -0.39571,-1.24427 -0.26325,-0.2886 -0.64739,-0.43075 -1.15439,-0.43075 -0.48945,0 -0.97522,0.17539 -1.45297,0.52445 -0.4797,0.351 -0.96329,0.88725 -1.44689,1.60875 l -0.0956,-0.0312 c 0.1209,-0.32761 0.18129,-0.63575 0.18129,-0.92435 0,-0.35295 -0.0953,-0.63968 -0.2864,-0.85808 -0.19305,-0.2184 -0.45455,-0.32754 -0.788,-0.32754 z"
   id="path2"
   inkscape:connector-curvature="0"
   style="stroke-width:0.19499999" />
































































</svg>