<?xml version="1.0" encoding="UTF-8" standalone="no"?>
<svg
   xmlns:dc="http://purl.org/dc/elements/1.1/"
   xmlns:cc="http://creativecommons.org/ns#"
   xmlns:rdf="http://www.w3.org/1999/02/22-rdf-syntax-ns#"
   xmlns:svg="http://www.w3.org/2000/svg"
   xmlns="http://www.w3.org/2000/svg"
   xmlns:sodipodi="http://sodipodi.sourceforge.net/DTD/sodipodi-0.dtd"
   xmlns:inkscape="http://www.inkscape.org/namespaces/inkscape"
   width="200.23"
   height="33.978771"
   xml:space="preserve"
   overflow="hidden"
   version="1.1"
   id="svg64"
   sodipodi:docname="04-auxvar-b.svg"
   style="overflow:hidden"
   inkscape:version="0.92.4 (5da689c313, 2019-01-14)"><metadata
   id="metadata70"><rdf:RDF><cc:Work
       rdf:about=""><dc:format>image/svg+xml</dc:format><dc:type
         rdf:resource="http://purl.org/dc/dcmitype/StillImage" /><dc:title></dc:title></cc:Work></rdf:RDF></metadata><defs
   id="defs68" /><sodipodi:namedview
   pagecolor="#ffffff"
   bordercolor="#666666"
   borderopacity="1"
   objecttolerance="10"
   gridtolerance="10"
   guidetolerance="10"
   inkscape:pageopacity="0"
   inkscape:pageshadow="2"
   inkscape:window-width="1911"
   inkscape:window-height="1220"
   id="namedview66"
   showgrid="false"
   inkscape:zoom="1"
   inkscape:cx="-275.71125"
   inkscape:cy="57.090419"
   inkscape:window-x="108"
   inkscape:window-y="18"
   inkscape:window-maximized="0"
   inkscape:current-layer="svg64"
   fit-margin-top="0"
   fit-margin-left="0"
   fit-margin-right="0"
   fit-margin-bottom="0" /><path
   d="m 95.19123,0 -3.69738,2.205555 0.34696,0.608235 c 0.45825,-0.3042 0.842765,-0.543945 1.154765,-0.719445 0.31005,-0.17355 0.54984,-0.259365 0.71754,-0.259365 0.14235,0 0.251535,0.04875 0.325635,0.14625 0.07215,0.0975 0.108925,0.251765 0.108925,0.462365 v 6.40948 c 0,0.36855 -0.02905,0.63372 -0.0895,0.79752 -0.06045,0.1638 -0.158045,0.288495 -0.288695,0.378195 -0.1326,0.0897 -0.32359,0.158145 -0.57319,0.202995 -0.2496,0.04485 -0.668835,0.07977 -1.251885,0.10512 v 0.57738 H 97.7845 v -0.57738 c -0.40755,-0.0097 -0.73306,-0.029 -0.98071,-0.05827 -0.24765,-0.02925 -0.45243,-0.07028 -0.61623,-0.12683 -0.1638,-0.0546 -0.28854,-0.130635 -0.37629,-0.228135 -0.0858,-0.0975 -0.14619,-0.224095 -0.18129,-0.380095 -0.03315,-0.156 -0.05066,-0.3863 -0.05066,-0.6905 V 2.10425 c 0,-0.897 0.01525,-1.59725 0.04645,-2.10425 z m 41.72581,0 -3.6989,2.205555 0.34696,0.608235 c 0.45825,-0.3042 0.84238,-0.543945 1.15438,-0.719445 0.31005,-0.17355 0.5498,-0.259365 0.71945,-0.259365 0.14235,0 0.24963,0.04875 0.32373,0.14625 0.0741,0.0975 0.11121,0.251765 0.11121,0.462365 v 6.40948 c 0,0.36855 -0.031,0.63372 -0.0914,0.79752 -0.0604,0.1638 -0.15609,0.288495 -0.28869,0.378195 -0.1326,0.0897 -0.32164,0.158145 -0.57319,0.202995 -0.2496,0.04485 -0.66727,0.07977 -1.25227,0.10512 v 0.57738 h 5.84048 v -0.57738 c -0.4056,-0.0097 -0.73306,-0.029 -0.98071,-0.05827 -0.24765,-0.02925 -0.45243,-0.07028 -0.61623,-0.12683 -0.1638,-0.0546 -0.28859,-0.130635 -0.37439,-0.228135 -0.0877,-0.0975 -0.14847,-0.224095 -0.18357,-0.380095 -0.0332,-0.156 -0.0507,-0.3863 -0.0507,-0.6905 V 2.10425 c 0,-0.897 0.0156,-1.59725 0.0468,-2.10425 z m -106.372499,11.791785 -1.99875,0.07008 -0.09521,0.41171 c 0.34905,0.0098 0.588701,0.06036 0.723251,0.15006 0.13455,0.0897 0.202999,0.24544 0.202999,0.46579 0,0.2418 -0.06268,0.6318 -0.183575,1.17 l -2.045594,9.03246 0.505018,0.126825 0.727442,-0.512635 c 0.5421,0.34125 1.164257,0.512635 1.864307,0.512635 0.77025,0 1.464298,-0.245515 2.086348,-0.738865 0.62205,-0.49335 1.10769,-1.1583 1.45869,-1.99875 0.350999,-0.84045 0.524445,-1.696575 0.524445,-2.564325 0,-0.7956 -0.157798,-1.413795 -0.477599,-1.850595 -0.317849,-0.4368 -0.764232,-0.65508 -1.339482,-0.65508 -0.44655,0 -0.895173,0.152025 -1.343673,0.458175 -0.44655,0.30615 -0.926463,0.80128 -1.437363,1.48573 L 29.612582,17.32375 31.0031,11.791765 Z m 165.916069,0 -1.99876,0.07008 -0.0956,0.41171 c 0.34905,0.0098 0.5887,0.06036 0.72326,0.15006 0.13455,0.0897 0.20111,0.24544 0.20111,0.46579 0,0.2418 -0.0608,0.6318 -0.18168,1.17 l -2.04521,9.03246 0.50501,0.126825 0.72706,-0.512635 c 0.5421,0.34125 1.16428,0.512635 1.86433,0.512635 0.77025,0 1.46466,-0.245515 2.08671,-0.738865 0.62205,-0.49335 1.10733,-1.1583 1.45833,-1.99875 0.351,-0.84045 0.52482,-1.696575 0.52482,-2.564325 0,-0.7956 -0.15819,-1.413795 -0.47798,-1.850595 -0.31785,-0.4368 -0.76425,-0.65508 -1.3395,-0.65508 -0.44655,0 -0.89516,0.152025 -1.34366,0.458175 -0.44655,0.30615 -0.92608,0.80128 -1.43698,1.48573 l -0.1036,-0.03125 1.39052,-5.531985 z M 64.61127,12.17798 60.913885,14.383155 61.26123,14.99177 c 0.45825,-0.30615 0.842385,-0.545895 1.154385,-0.719445 0.31005,-0.17355 0.54984,-0.259365 0.71754,-0.259365 0.14235,0 0.251535,0.04645 0.325635,0.143965 0.07215,0.0975 0.109305,0.253665 0.109305,0.464265 v 6.40758 c 0,0.36855 -0.02945,0.636005 -0.08989,0.799805 -0.06045,0.16185 -0.15804,0.288495 -0.28869,0.378195 -0.1326,0.0897 -0.323595,0.157765 -0.573195,0.202615 -0.2496,0.04485 -0.66688,0.08015 -1.25188,0.1055 v 0.577 h 5.840095 v -0.577 c -0.4056,-0.0097 -0.733065,-0.0294 -0.980715,-0.05865 -0.24765,-0.02925 -0.452425,-0.07223 -0.616225,-0.126825 -0.1638,-0.0546 -0.28854,-0.13254 -0.37629,-0.23004 -0.0858,-0.0975 -0.14619,-0.22219 -0.18129,-0.37819 -0.03315,-0.156 -0.05066,-0.386255 -0.05066,-0.692405 v -6.74883 c 0,-0.89505 0.01565,-1.59496 0.04685,-2.10196 z m 104.67577,0 -3.697,2.205175 0.34696,0.608615 c 0.45825,-0.30615 0.84238,-0.545895 1.15438,-0.719445 0.31005,-0.17355 0.54984,-0.259365 0.71754,-0.259365 0.14235,0 0.25154,0.04645 0.32564,0.143965 0.0721,0.0975 0.1093,0.253665 0.1093,0.464265 v 6.40758 c 0,0.36855 -0.0291,0.636005 -0.0895,0.799805 -0.0605,0.16185 -0.15804,0.288495 -0.2887,0.378195 -0.13259,0.0897 -0.32359,0.157765 -0.57319,0.202615 -0.2496,0.04485 -0.66689,0.08015 -1.25188,0.1055 v 0.577 h 5.8401 v -0.577 c -0.4056,-0.0097 -0.73307,-0.0294 -0.98072,-0.05865 -0.24765,-0.02925 -0.45243,-0.07223 -0.61623,-0.126825 -0.1638,-0.0546 -0.28854,-0.13254 -0.37629,-0.23004 -0.0858,-0.0975 -0.14657,-0.22219 -0.18167,-0.37819 -0.0331,-0.156 -0.0507,-0.386255 -0.0507,-0.692405 v -6.74883 c 0,-0.89505 0.0156,-1.59496 0.0469,-2.10196 z M 2.0707325,12.304425 1.9831348,12.69252 c 0.2691,0.0156 0.4659586,0.07236 0.5888085,0.169865 0.1248,0.0975 0.1850977,0.269175 0.1850977,0.516825 0,0.32175 -0.056291,0.746715 -0.173291,1.273215 L 1.2400781,20.73627 c -0.11505,0.5226 -0.2028152,0.87363 -0.2593652,1.05498 -0.0585,0.1833 -0.12294145,0.33752 -0.19119145,0.46427 -0.06825,0.1248 -0.1519173,0.224205 -0.2513673,0.294405 -0.10139978,0.07215 -0.25165645,0.123 -0.45055645,0.15615 L 0,23.091885 h 6.686367 l 0.7975195,-3.10629 h -0.766289 c -0.1794,0.4641 -0.356987,0.852335 -0.530537,1.162385 -0.17355,0.312 -0.3507105,0.557515 -0.5320605,0.738865 -0.18135,0.18135 -0.374583,0.30609 -0.577383,0.37629 -0.2027999,0.06825 -0.4815127,0.10169 -0.8344628,0.10169 H 2.2988671 L 3.9914062,14.66004 c 0.1092,-0.507 0.2028304,-0.87153 0.2749804,-1.09383 0.0741,-0.22425 0.146174,-0.389815 0.2144238,-0.495115 0.06825,-0.1053 0.1465244,-0.183485 0.2323244,-0.236135 0.08775,-0.05265 0.2318518,-0.10149 0.4307517,-0.14244 l 0.087979,-0.388095 z m 17.1443845,1.28121 c -0.16965,0.53235 -0.296248,0.90489 -0.380098,1.11744 -0.08385,0.2145 -0.171569,0.3879 -0.261269,0.52635 -0.0897,0.1365 -0.18749,0.24201 -0.29669,0.31611 -0.10725,0.0741 -0.241525,0.130775 -0.401425,0.173675 -0.16185,0.0429 -0.397968,0.06618 -0.708018,0.07007 l -0.118829,0.545775 h 1.328057 l -0.932344,4.10109 c -0.0897,0.39 -0.134442,0.76221 -0.134442,1.11516 0,1.1115 0.550036,1.6674 1.651786,1.6674 0.4641,0 0.906765,-0.13246 1.331865,-0.39571 0.42315,-0.26325 0.865617,-0.671045 1.323867,-1.224845 l -0.458174,-0.47379 c -0.3588,0.42705 -0.668758,0.72747 -0.930058,0.90492 -0.25935,0.17745 -0.507197,0.26508 -0.739246,0.26508 -0.542101,0 -0.813137,-0.327465 -0.813137,-0.980715 0,-0.15795 0.01741,-0.366735 0.05446,-0.628035 0.03705,-0.2613 0.125151,-0.68832 0.261651,-1.28502 l 0.703826,-3.065535 h 2.402461 l 0.173293,-0.79752 h -2.402081 l 0.43456,-1.951905 z m 91.482423,0.77429 -3.86496,3.86496 V 18.7299 l 3.86496,3.864965 0.51264,-0.43494 -1.27131,-1.524965 h 11.05444 l -1.27131,1.524965 0.51302,0.43494 3.86496,-3.864965 v -0.505015 l -3.86496,-3.86496 -0.51302,0.434935 1.2637,1.50935 h -11.03883 l 1.26331,-1.50935 z m -68.608771,1.01194 c -0.26715,0 -0.493442,0.09564 -0.678692,0.28869 -0.18525,0.1911 -0.276885,0.434895 -0.276885,0.729345 0,0.2964 0.09163,0.54015 0.276885,0.73125 0.18525,0.19305 0.411542,0.288695 0.678692,0.288695 0.27495,0 0.502963,-0.09565 0.688214,-0.288695 0.18525,-0.1911 0.276884,-0.43485 0.276884,-0.73125 0,-0.29445 -0.09163,-0.538245 -0.276884,-0.729345 -0.185251,-0.19305 -0.413264,-0.28869 -0.688214,-0.28869 z m -28.593017,0.03125 c -0.64935,0 -1.259776,0.140385 -1.833076,0.423135 -0.57525,0.2808 -1.068615,0.678815 -1.478115,1.193615 -0.4114505,0.51285 -0.717357,1.09203 -0.920157,1.73748 -0.2027995,0.64545 -0.3043065,1.24972 -0.3043065,1.81327 0,0.83265 0.2087875,1.482045 0.6280375,1.948095 0.41925,0.46605 1.010024,0.70002 1.774424,0.70002 0.6942,0 1.304718,-0.14224 1.829268,-0.42694 0.52455,-0.2847 1.041101,-0.70776 1.552001,-1.27131 l -0.489403,-0.514925 c -0.4368,0.4368 -0.852318,0.7625 -1.244268,0.9731 -0.3939,0.2106 -0.832651,0.31573 -1.316251,0.31573 -0.48945,0 -0.844289,-0.12474 -1.058789,-0.37629 -0.21645,-0.2496 -0.32373,-0.65124 -0.32373,-1.20504 0,-0.36855 0.03129,-0.711655 0.09369,-1.027555 1.65555,0 2.901495,-0.222575 3.741945,-0.671075 0.84045,-0.4485 1.261786,-1.11927 1.261786,-2.01627 0,-0.54795 -0.160083,-0.9495 -0.479883,-1.20885 -0.31785,-0.2574 -0.795524,-0.38619 -1.433173,-0.38619 z m -0.284501,0.62423 c 0.29445,0 0.516734,0.09134 0.666884,0.272695 0.15015,0.18135 0.226229,0.433115 0.226229,0.754865 0,0.4797 -0.142623,0.85987 -0.427323,1.14067 -0.2847,0.28275 -0.692113,0.487485 -1.224463,0.618135 -0.53235,0.1287 -1.170106,0.194865 -1.913056,0.200715 0.26325,-0.9165 0.641611,-1.643745 1.134961,-2.181945 0.4914,-0.53625 1.004418,-0.805135 1.536768,-0.805135 z m 30.963866,0.276885 v 1.05079 h 9.736288 v -1.05079 z m 104.650633,0 v 1.05079 h 9.73629 V 16.30423 Z M 31.929345,16.33508 c 0.34125,0 0.590865,0.13676 0.746865,0.41171 0.15405,0.273 0.231943,0.68451 0.231943,1.23246 0,0.4056 -0.04297,0.83047 -0.126826,1.27702 -0.08385,0.4446 -0.202861,0.861885 -0.354961,1.251885 -0.152099,0.39 -0.319859,0.7178 -0.50121,0.983 -0.1833,0.26715 -0.374203,0.481375 -0.577003,0.645175 -0.2028,0.16185 -0.401805,0.28095 -0.596805,0.35115 -0.195,0.07215 -0.401732,0.107405 -0.616232,0.107405 -0.42315,0 -0.72319,-0.09164 -0.90454,-0.276885 -0.1833,-0.18525 -0.273076,-0.485765 -0.273076,-0.901115 0,-0.3471 0.03888,-0.705855 0.118827,-1.074405 l 0.07008,-0.331345 c 0.1326,-0.606455 0.292637,-1.10373 0.481787,-1.49373 0.18915,-0.39 0.434758,-0.77246 0.735058,-1.14296 0.3003,-0.37245 0.573528,-0.63762 0.819228,-0.79752 0.24375,-0.16185 0.493366,-0.241845 0.746865,-0.241845 z m 165.915685,0 c 0.34125,0 0.59087,0.13676 0.74687,0.41171 0.15405,0.273 0.23193,0.68451 0.23193,1.23246 0,0.4056 -0.043,0.83047 -0.12683,1.27702 -0.0839,0.4446 -0.20286,0.861885 -0.35496,1.251885 -0.1521,0.39 -0.31946,0.7178 -0.50081,0.983 -0.1833,0.26715 -0.3746,0.481375 -0.5774,0.645175 -0.2028,0.16185 -0.4018,0.28095 -0.5968,0.35115 -0.195,0.07215 -0.40174,0.107405 -0.61624,0.107405 -0.42315,0 -0.72319,-0.09164 -0.90454,-0.276885 -0.18331,-0.18525 -0.27307,-0.485765 -0.27307,-0.901115 0,-0.3471 0.0389,-0.705855 0.11692,-1.074405 l 0.0724,-0.331345 c 0.1326,-0.606455 0.29224,-1.10373 0.48139,-1.49373 0.18915,-0.39 0.43475,-0.77246 0.73505,-1.14296 0.3003,-0.37245 0.57354,-0.63762 0.81924,-0.79752 0.24375,-0.16185 0.49337,-0.241845 0.74687,-0.241845 z m -88.70558,1.01994 h 12.65367 l 0.90873,1.12125 -0.90112,1.10754 h -12.6769 l -0.89312,-1.10754 z m -35.94247,0.585 v 1.051175 h 9.73629 V 17.94002 Z m 104.67615,0 v 1.051175 h 9.73629 V 17.94002 Z M 87.689445,18.02 v 0.975 H 101.53445 V 18.02 Z m 41.729995,0 v 0.975 h 13.845 V 18.02 Z m -87.330671,1.499445 c -0.26715,0 -0.493442,0.09759 -0.678692,0.28869 -0.18525,0.19305 -0.276884,0.4368 -0.276884,0.73125 0,0.29445 0.09163,0.5382 0.276884,0.73125 0.18525,0.19305 0.411542,0.28869 0.678692,0.28869 0.27495,0 0.502963,-0.09564 0.688214,-0.28869 0.18525,-0.19305 0.276884,-0.4368 0.276884,-0.73125 0,-0.29445 -0.09163,-0.5382 -0.276884,-0.73125 -0.185251,-0.1911 -0.413264,-0.28869 -0.688214,-0.28869 z m 2.086348,0.06436 v 1.05117 h 9.736288 v -1.05117 z m 104.650633,0 v 1.05117 h 9.73629 v -1.05117 z M 90.14827,26.16315 c -0.39975,0 -0.766045,0.11324 -1.101445,0.33554 -0.3354,0.22425 -0.73332,0.578995 -1.19742,1.062595 l 0.450555,0.442945 c 0.3159,-0.35295 0.565515,-0.596745 0.746865,-0.729345 0.18135,-0.13455 0.354595,-0.203 0.516445,-0.203 0.1482,0 0.257385,0.04885 0.325635,0.14244 0.06825,0.09555 0.10169,0.247575 0.10169,0.458175 0,0.27495 -0.05667,0.66495 -0.17367,1.17 l -1.154385,5.009445 h 1.36881 l 0.75067,-3.42012 c 0.1092,-0.48555 0.247955,-0.897015 0.409805,-1.234365 0.1638,-0.33735 0.389665,-0.68838 0.680215,-1.05498 0.2886,-0.36465 0.561875,-0.63177 0.817325,-0.79752 0.25545,-0.16575 0.483555,-0.24946 0.684405,-0.24946 0.2847,0 0.493105,0.08195 0.627655,0.241845 0.13455,0.1599 0.201095,0.430645 0.201095,0.808945 0,0.16965 -0.01965,0.370805 -0.05866,0.604805 -0.039,0.23595 -0.115125,0.596335 -0.224325,1.087735 L 93.0089,33.851945 h 1.36919 l 0.71754,-3.45325 c 0.1053,-0.48945 0.247635,-0.90497 0.423135,-1.24427 0.17745,-0.3393 0.405555,-0.684175 0.684405,-1.035175 0.27885,-0.34905 0.54402,-0.60854 0.79752,-0.77429 0.2535,-0.16575 0.489525,-0.24946 0.711825,-0.24946 0.273,0 0.471715,0.08195 0.592615,0.241845 0.1209,0.1599 0.18129,0.42301 0.18129,0.78571 0,0.1482 -0.01925,0.339105 -0.05827,0.577005 -0.04095,0.2379 -0.123095,0.602715 -0.249845,1.098015 l -0.34696,1.36881 c -0.1755,0.663 -0.261275,1.166145 -0.261275,1.509345 0,0.3783 0.10337,0.690455 0.30812,0.936155 0.20475,0.24375 0.47988,0.366385 0.82113,0.366385 0.4329,0 0.817035,-0.113145 1.154385,-0.339345 0.337355,-0.2262 0.733225,-0.57909 1.185625,-1.05879 l -0.45056,-0.44256 c -0.32565,0.3627 -0.57927,0.61017 -0.758675,0.73887 -0.1794,0.1287 -0.347075,0.193095 -0.505025,0.193095 -0.1482,0 -0.25543,-0.0465 -0.32563,-0.14206 -0.06825,-0.0936 -0.10131,-0.247955 -0.10131,-0.458555 0,-0.23595 0.07017,-0.641595 0.21252,-1.216845 l 0.51492,-2.070735 c 0.1521,-0.61035 0.228135,-1.08225 0.228135,-1.41375 0,-0.507 -0.13094,-0.898765 -0.39419,-1.177615 -0.2652,-0.27885 -0.637605,-0.419325 -1.123155,-0.419325 -0.48555,0 -0.95149,0.15798 -1.40194,0.46998 -0.45045,0.31395 -0.9027,0.791575 -1.3551,1.435075 0.004,-0.0429 0.0076,-0.08178 0.0076,-0.118825 V 27.84617 c 0,-0.5421 -0.132465,-0.957615 -0.395715,-1.244265 -0.26325,-0.28665 -0.64738,-0.43075 -1.15438,-0.43075 -0.48945,0 -0.97523,0.175345 -1.45298,0.526345 -0.4797,0.34905 -0.961335,0.885345 -1.446885,1.606845 l -0.0956,-0.03125 c 0.1209,-0.32565 0.183575,-0.633795 0.183575,-0.924345 0,-0.35295 -0.0976,-0.639675 -0.288695,-0.858075 -0.19305,-0.2184 -0.454545,-0.32754 -0.787995,-0.32754 z m 41.72619,0 c -0.4017,0 -0.76833,0.11324 -1.10373,0.33554 -0.33345,0.22425 -0.73332,0.578995 -1.19742,1.062595 l 0.45055,0.44294 c 0.3159,-0.35295 0.56552,-0.596745 0.74687,-0.729345 0.1833,-0.13455 0.35493,-0.203 0.51873,-0.203 0.14625,0 0.25549,0.04885 0.32374,0.14244 0.0683,0.09555 0.1032,0.247575 0.1032,0.458175 0,0.27495 -0.0582,0.66495 -0.17519,1.17 l -1.15248,5.009445 h 1.3669 l 0.75068,-3.42012 c 0.11115,-0.48555 0.24752,-0.897015 0.41133,-1.234365 0.16184,-0.33735 0.39008,-0.68838 0.67868,-1.05498 0.29055,-0.36465 0.5634,-0.63177 0.81885,-0.79752 0.25545,-0.16575 0.4836,-0.24946 0.6825,-0.24946 0.2847,0 0.49544,0.08195 0.62804,0.241845 0.13455,0.1599 0.203,0.430645 0.203,0.808945 0,0.16965 -0.0196,0.370805 -0.0606,0.604805 -0.039,0.23595 -0.11318,0.596335 -0.22433,1.087735 l -0.90873,4.013115 h 1.3669 l 0.71982,-3.45325 c 0.1053,-0.48945 0.24569,-0.90497 0.42314,-1.24427 0.1755,-0.3393 0.40365,-0.684175 0.6825,-1.035175 0.27885,-0.34905 0.54597,-0.60854 0.79752,-0.77429 0.2535,-0.16575 0.49109,-0.24946 0.71144,-0.24946 0.27495,0 0.4721,0.08195 0.593,0.241845 0.1209,0.1599 0.18129,0.42301 0.18129,0.78571 0,0.1482 -0.0197,0.339105 -0.0587,0.577005 -0.039,0.2379 -0.12271,0.602715 -0.24946,1.098015 l -0.34697,1.36881 c -0.17355,0.663 -0.26127,1.166145 -0.26127,1.509345 0,0.3783 0.10337,0.690455 0.30812,0.936155 0.2067,0.24375 0.47945,0.366385 0.82265,0.366385 0.43095,0 0.81708,-0.113145 1.15248,-0.339345 0.33735,-0.2262 0.73322,-0.57909 1.18562,-1.05879 l -0.45056,-0.44256 c -0.32565,0.3627 -0.57889,0.61017 -0.75829,0.73887 -0.1794,0.1287 -0.34707,0.193095 -0.50502,0.193095 -0.1482,0 -0.25548,-0.0465 -0.32373,-0.14206 -0.0683,-0.0936 -0.10359,-0.247955 -0.10359,-0.458555 0,-0.23595 0.0721,-0.641595 0.21252,-1.216845 l 0.51492,-2.070735 c 0.1521,-0.61035 0.22813,-1.08225 0.22813,-1.41375 0,-0.507 -0.13055,-0.898765 -0.3938,-1.177615 -0.26325,-0.27885 -0.63761,-0.419325 -1.12316,-0.419325 -0.4836,0 -0.95149,0.15798 -1.40194,0.46998 -0.45045,0.31395 -0.90308,0.791575 -1.35548,1.435075 0.006,-0.0429 0.008,-0.08178 0.008,-0.118825 v -0.11121 c 0,-0.5421 -0.13284,-0.957615 -0.39609,-1.244265 -0.26325,-0.28665 -0.64743,-0.43075 -1.15248,-0.43075 -0.4914,0 -0.97481,0.175345 -1.45451,0.526345 -0.4797,0.34905 -0.96133,0.885345 -1.44688,1.606845 l -0.0937,-0.03125 c 0.1209,-0.32565 0.18129,-0.633795 0.18129,-0.924345 0,-0.35295 -0.0956,-0.639675 -0.28869,-0.858075 -0.19305,-0.2184 -0.45422,-0.32754 -0.78572,-0.32754 z"
   id="path2"
   inkscape:connector-curvature="0"
   style="stroke-width:0.19499999" />













</svg>