<?xml version="1.0" encoding="UTF-8" standalone="no"?>
<svg
   xmlns:dc="http://purl.org/dc/elements/1.1/"
   xmlns:cc="http://creativecommons.org/ns#"
   xmlns:rdf="http://www.w3.org/1999/02/22-rdf-syntax-ns#"
   xmlns:svg="http://www.w3.org/2000/svg"
   xmlns="http://www.w3.org/2000/svg"
   xmlns:sodipodi="http://sodipodi.sourceforge.net/DTD/sodipodi-0.dtd"
   xmlns:inkscape="http://www.inkscape.org/namespaces/inkscape"
   width="281.26001"
   height="50.440239"
   xml:space="preserve"
   overflow="hidden"
   version="1.1"
   id="svg108"
   sodipodi:docname="06-geo-raw.svg"
   style="overflow:hidden"
   inkscape:version="0.92.4 (5da689c313, 2019-01-14)"><metadata
   id="metadata114"><rdf:RDF><cc:Work
       rdf:about=""><dc:format>image/svg+xml</dc:format><dc:type
         rdf:resource="http://purl.org/dc/dcmitype/StillImage" /><dc:title></dc:title></cc:Work></rdf:RDF></metadata><defs
   id="defs112" /><sodipodi:namedview
   pagecolor="#ffffff"
   bordercolor="#666666"
   borderopacity="1"
   objecttolerance="10"
   gridtolerance="10"
   guidetolerance="10"
   inkscape:pageopacity="0"
   inkscape:pageshadow="2"
   inkscape:window-width="1562"
   inkscape:window-height="1192"
   id="namedview110"
   showgrid="false"
   inkscape:zoom="0.97709301"
   inkscape:cx="-199.0102"
   inkscape:cy="133.60652"
   inkscape:window-x="0"
   inkscape:window-y="0"
   inkscape:window-maximized="0"
   inkscape:current-layer="svg108"
   fit-margin-top="0"
   fit-margin-left="0"
   fit-margin-right="0"
   fit-margin-bottom="0" /><path
   d="m 249.33263,0 c -0.15795,0 -0.30974,0.02125 -0.45209,0.06398 -0.14429,0.0425 -0.28873,0.109085 -0.43303,0.199955 -0.14625,0.09107 -0.29821,0.20749 -0.46006,0.348865 -0.1599,0.14118 -0.33749,0.31053 -0.53054,0.508065 L 247.8568,1.4983 c 0.117,-0.12012 0.22218,-0.224335 0.31383,-0.31345 0.0936,-0.08892 0.17942,-0.16298 0.25937,-0.220895 0.078,-0.05811 0.15407,-0.10158 0.22622,-0.130635 0.0722,-0.02905 0.14233,-0.0434 0.21253,-0.0434 0.22815,0 0.34125,0.14134 0.34125,0.423895 0,0.100815 -0.0117,0.23051 -0.0351,0.38924 -0.0214,0.15873 -0.0586,0.338625 -0.1093,0.54006 L 248.19381,5.93 h 1.13876 l 0.65126,-2.91548 c 0.037,-0.17823 0.0998,-0.35741 0.18169,-0.537395 0.0838,-0.18018 0.1791,-0.352245 0.2883,-0.516825 0.10725,-0.16458 0.22622,-0.319565 0.35687,-0.464645 0.1287,-0.145275 0.2615,-0.271345 0.398,-0.377815 0.13455,-0.10647 0.26916,-0.189405 0.40371,-0.249465 0.1326,-0.06006 0.25933,-0.09026 0.37438,-0.09026 0.20085,0 0.3471,0.05602 0.43875,0.16834 0.0917,0.11232 0.13634,0.288585 0.13634,0.52863 0,0.10062 -0.0115,0.227405 -0.0369,0.38048 -0.0254,0.15288 -0.0606,0.326955 -0.10549,0.52254 -0.0448,0.195585 -0.0973,0.40859 -0.15579,0.63908 -0.0605,0.230295 -0.1248,0.47151 -0.195,0.723255 -0.0663,0.247845 -0.11499,0.475215 -0.14814,0.6825 -0.0331,0.20709 -0.0487,0.38789 -0.0487,0.54272 0,0.155025 0.0213,0.29727 0.0682,0.426945 0.0468,0.129675 0.113,0.24229 0.1988,0.33706 0.0839,0.09497 0.18537,0.169355 0.30432,0.223565 0.117,0.05421 0.24578,0.08113 0.38618,0.08113 0.16575,0 0.32335,-0.022 0.4696,-0.06665 0.1482,-0.04445 0.29665,-0.112315 0.44485,-0.20338 0.15015,-0.09107 0.30208,-0.206015 0.46198,-0.34544 0.15795,-0.139425 0.33339,-0.306055 0.52254,-0.49969 l -0.40143,-0.38314 c -0.11505,0.12792 -0.22064,0.23705 -0.31229,0.32792 -0.0936,0.09107 -0.17913,0.165835 -0.25518,0.223945 -0.078,0.05811 -0.15218,0.10048 -0.22433,0.127585 -0.0721,0.0271 -0.14414,0.04075 -0.21824,0.04075 -0.11895,0 -0.20705,-0.0331 -0.26165,-0.09902 -0.0546,-0.06572 -0.0819,-0.171935 -0.0819,-0.31916 0,-0.0386 0.0178,-0.13758 0.0529,-0.29631 0.0351,-0.15873 0.0798,-0.350455 0.13445,-0.575095 0.0546,-0.224445 0.11127,-0.4691 0.17367,-0.7343 0.0624,-0.265395 0.12065,-0.524065 0.1733,-0.77581 0.0546,-0.25155 0.0997,-0.48403 0.13482,-0.69697 0.0351,-0.21294 0.0526,-0.379385 0.0526,-0.49931 0,-0.39897 -0.10146,-0.708555 -0.30621,-0.929295 -0.2028,-0.22074 -0.50908,-0.330965 -0.92053,-0.330965 -0.39,0 -0.76836,0.127495 -1.13496,0.38314 -0.3666,0.255645 -0.73696,0.640915 -1.11136,1.15591 l -0.0819,-0.02895 c 0.0351,-0.07742 0.0584,-0.158915 0.072,-0.24413 0.0137,-0.08502 0.0217,-0.16614 0.0217,-0.24375 0,-0.30576 -0.0801,-0.552985 -0.23612,-0.74077 C 249.84165,0.09369 249.61931,2e-5 249.33266,2e-5 Z m -8.34576,9.74238 v 0.750675 l 10.74822,14.35916 -11.07196,15.00776 v 0.782285 h 19.43183 l 0.40334,-5.79287 h -1.17 c -0.23206,1.48044 -0.507,2.434355 -0.82876,2.861015 -0.32175,0.426855 -0.78563,0.640225 -1.39013,0.640225 H 243.39694 L 253.5758,24.53648 v -0.956335 l -9.42818,-12.80259 h 12.47047 c 0.7488,0 1.30648,0.326705 1.67503,0.979955 0.3705,0.65344 0.61415,1.54112 0.73505,2.663345 h 1.04317 V 9.74238 Z m 36.57392,6.250665 -1.59695,0.06969 -0.0876,0.39495 c 0.1443,0.004 0.26317,0.01355 0.36067,0.02895 0.0956,0.0156 0.17345,0.0398 0.23196,0.07274 0.0585,0.03275 0.0996,0.07642 0.12491,0.13063 0.0254,0.05421 0.0369,0.117865 0.0369,0.191575 0,0.09282 -0.01,0.198325 -0.0294,0.316495 -0.0195,0.11817 -0.0507,0.280075 -0.0975,0.485215 l -1.40574,6.23771 h 1.11554 l 0.63755,-2.915475 h 0.37248 c 0.0897,0 0.16165,0.0035 0.22015,0.01145 0.0585,0.0076 0.10725,0.02615 0.14625,0.05523 0.039,0.02905 0.0702,0.07181 0.0956,0.12797 0.0254,0.05616 0.0508,0.13055 0.0781,0.223565 0.117,0.394875 0.2185,0.753045 0.3043,1.074405 0.0878,0.32136 0.183,0.595305 0.2883,0.821895 0.10335,0.226395 0.23229,0.400665 0.38049,0.52254 0.1482,0.12207 0.34505,0.18319 0.5888,0.18319 0.1365,0 0.26921,-0.02035 0.40182,-0.06094 0.13065,-0.04075 0.26707,-0.10441 0.40942,-0.191575 0.1404,-0.08716 0.29037,-0.198485 0.44637,-0.33401 0.15795,-0.135525 0.3259,-0.296335 0.50921,-0.48217 l -0.39611,-0.377435 c -0.11505,0.131625 -0.21836,0.240755 -0.31001,0.327925 -0.0916,0.08716 -0.17355,0.156115 -0.24375,0.206425 -0.0722,0.05031 -0.1365,0.08505 -0.195,0.104355 -0.0585,0.0195 -0.11493,0.02895 -0.16758,0.02895 -0.078,0 -0.1442,-0.0173 -0.1988,-0.05218 -0.0527,-0.0349 -0.10326,-0.08801 -0.15006,-0.15958 -0.0468,-0.07157 -0.0897,-0.164515 -0.13065,-0.278785 -0.041,-0.114075 -0.0842,-0.250695 -0.131,-0.409425 -0.0975,-0.298155 -0.19271,-0.599395 -0.29021,-0.9034 -0.0975,-0.304005 -0.1913,-0.60305 -0.2849,-0.897305 0.22425,-0.17043 0.44478,-0.33467 0.65928,-0.493595 0.2145,-0.15873 0.42872,-0.320635 0.64517,-0.485215 0.2145,-0.16458 0.43503,-0.335545 0.65928,-0.513775 0.22425,-0.178035 0.45817,-0.37177 0.70192,-0.58081 l -0.14436,-0.360295 h -2.09243 l -0.0682,0.37172 c 0.16185,0.0195 0.27509,0.05805 0.33554,0.11616 0.0624,0.05811 0.0937,0.1336 0.0937,0.226615 0,0.07742 -0.0353,0.17218 -0.1055,0.2845 -0.0682,0.11232 -0.16173,0.23147 -0.28068,0.357245 -0.11895,0.125775 -0.25539,0.25094 -0.40944,0.374765 -0.15405,0.12402 -0.31594,0.23515 -0.48559,0.334015 -0.1677,0.09867 -0.33727,0.179075 -0.50692,0.241085 -0.1716,0.06201 -0.32979,0.09255 -0.47799,0.09255 h -0.16185 l 1.02184,-4.518515 z m -167.74342,0.40676 c -0.33306,0 -0.7074,0.0462 -1.12353,0.13901 -0.41633,0.09301 -0.87236,0.242175 -1.36805,0.44751 V 18.119 h 0.76096 c 0.13552,-0.37167 0.32506,-0.655635 0.56901,-0.85122 0.24393,-0.19539 0.54627,-0.29326 0.90644,-0.29326 0.20904,0 0.39385,0.0331 0.55453,0.09902 0.16068,0.06571 0.29309,0.156855 0.39762,0.273075 0.10452,0.116025 0.18512,0.257365 0.24108,0.423895 0.0562,0.16653 0.0842,0.348235 0.0842,0.54577 0,0.19344 -0.024,0.37554 -0.0724,0.545775 -0.0483,0.17043 -0.13841,0.35652 -0.27004,0.557955 -0.13162,0.20124 -0.31189,0.430815 -0.54043,0.688215 -0.22854,0.257595 -0.52468,0.567895 -0.88855,0.93196 -0.24004,0.240045 -0.45869,0.47162 -0.65622,0.69431 -0.19753,0.22269 -0.3738,0.43842 -0.52863,0.64746 -0.15502,0.209235 -0.29417,0.415325 -0.41818,0.618515 -0.12383,0.203385 -0.23224,0.409665 -0.32526,0.6189 v 0.301635 h 4.91956 c 0.0195,-0.274755 0.0379,-0.55142 0.0552,-0.83027 0.0175,-0.27885 0.0359,-0.555705 0.0552,-0.830655 h -0.54043 c -0.0657,0.16653 -0.12375,0.297135 -0.17406,0.391905 -0.0505,0.09497 -0.11143,0.16573 -0.18319,0.21214 -0.0716,0.0466 -0.16161,0.07643 -0.27003,0.08988 -0.10842,0.01365 -0.25357,0.0202 -0.4357,0.0202 h -2.14881 c 0.10062,-0.15483 0.23031,-0.325275 0.38924,-0.51111 0.15873,-0.185835 0.3328,-0.37738 0.52253,-0.57472 0.18974,-0.197535 0.38529,-0.39709 0.58653,-0.59833 0.20143,-0.201435 0.39426,-0.394975 0.57814,-0.58081 0.18389,-0.185835 0.35324,-0.36029 0.50807,-0.52292 0.15502,-0.162435 0.28071,-0.30559 0.37743,-0.42961 0.12792,-0.14313 0.23471,-0.278835 0.31992,-0.406755 0.085,-0.127725 0.15379,-0.25451 0.20605,-0.38048 0.0523,-0.125775 0.0892,-0.25347 0.11045,-0.383145 0.0212,-0.12987 0.032,-0.270105 0.032,-0.42123 0,-0.25155 -0.0399,-0.485845 -0.11921,-0.702685 -0.0794,-0.21684 -0.20834,-0.40275 -0.38657,-0.55758 -0.17804,-0.15483 -0.40942,-0.2778 -0.69393,-0.36867 -0.2845,-0.09107 -0.62831,-0.136345 -1.03098,-0.136345 z m 35.90818,0 c -0.3705,0 -0.76063,0.0491 -1.16428,0.14777 -0.4056,0.09867 -0.83477,0.245115 -1.29302,0.43875 v 1.144105 h 0.73925 c 0.12675,-0.38337 0.31015,-0.671875 0.54805,-0.865315 0.2379,-0.193635 0.53412,-0.290595 0.88512,-0.290595 0.41925,0 0.73709,0.107695 0.95939,0.322585 0.22035,0.21489 0.32944,0.508115 0.32944,0.879785 0,0.228345 -0.0469,0.44336 -0.14435,0.644795 -0.0975,0.201435 -0.2437,0.377325 -0.44065,0.528255 -0.1989,0.15112 -0.44437,0.274085 -0.74077,0.36905 -0.2964,0.09477 -0.64743,0.152085 -1.05498,0.17139 v 0.557575 h 0.51073 c 0.6669,0 1.17009,0.13242 1.50744,0.39762 0.3393,0.2652 0.50883,0.655385 0.50883,1.17038 0,0.48399 -0.12841,0.84545 -0.38581,1.083545 -0.2574,0.238095 -0.63576,0.357245 -1.13496,0.357245 -0.1911,0 -0.36101,-0.01965 -0.50921,-0.05827 -0.15015,-0.0388 -0.28066,-0.10194 -0.39571,-0.18891 -0.1131,-0.08716 -0.21242,-0.199205 -0.29822,-0.33668 -0.0858,-0.137475 -0.15811,-0.303 -0.22051,-0.496635 h -0.74877 v 1.25455 c 0.3315,0.11622 0.68443,0.210075 1.05688,0.281835 0.3705,0.07157 0.73727,0.1074 1.09802,0.1074 0.4563,0 0.85389,-0.0542 1.19514,-0.162625 0.34125,-0.10842 0.62793,-0.25959 0.85998,-0.453225 0.23205,-0.19344 0.40553,-0.42301 0.52253,-0.68821 0.117,-0.2652 0.17368,-0.55299 0.17368,-0.86265 0,-0.247845 -0.0468,-0.47431 -0.14435,-0.67945 -0.0975,-0.20514 -0.22992,-0.386325 -0.39762,-0.543105 -0.1677,-0.15678 -0.36494,-0.286475 -0.58919,-0.38924 -0.2262,-0.10257 -0.46771,-0.176775 -0.72706,-0.223185 v -0.07008 c 0.27495,-0.116025 0.51837,-0.237185 0.72897,-0.36296 0.2106,-0.12597 0.39004,-0.266205 0.53434,-0.42123 0.14625,-0.15483 0.25358,-0.32709 0.32183,-0.516825 0.0702,-0.189735 0.1055,-0.40838 0.1055,-0.656225 0,-0.263445 -0.0549,-0.49444 -0.16606,-0.693925 -0.1092,-0.19929 -0.26308,-0.36611 -0.46198,-0.499685 -0.19695,-0.133575 -0.43092,-0.23326 -0.70002,-0.298975 -0.2691,-0.06591 -0.55755,-0.09864 -0.8676,-0.09864 z M 9.042363,17.41936 7.943584,22.255895 8.61542,22.45356 10.520097,17.86992 v -0.45056 z m 203.324427,0.57167 c -0.15795,0 -0.3101,0.02145 -0.45245,0.06399 -0.1443,0.0427 -0.28874,0.10927 -0.43304,0.200335 -0.1443,0.09107 -0.29827,0.20711 -0.45817,0.348485 -0.16185,0.141375 -0.33939,0.310725 -0.53244,0.508065 l 0.40181,0.377435 c 0.11505,-0.119925 0.22024,-0.224335 0.31384,-0.31345 0.0916,-0.08911 0.1775,-0.162405 0.25745,-0.220515 0.08,-0.05811 0.15602,-0.10158 0.22622,-0.130635 0.0721,-0.02905 0.14233,-0.0438 0.21253,-0.0438 0.22815,0 0.34314,0.141145 0.34314,0.423895 0,0.10062 -0.0117,0.23051 -0.035,0.38924 -0.0234,0.158925 -0.0605,0.33882 -0.11122,0.54006 l -0.87179,3.78688 h 1.13915 l 0.65128,-2.915475 c 0.039,-0.178035 0.0993,-0.35741 0.18318,-0.537395 0.0819,-0.179985 0.17954,-0.352245 0.28679,-0.516825 0.1092,-0.16458 0.2278,-0.31937 0.3565,-0.464645 0.13065,-0.14508 0.26344,-0.270965 0.398,-0.377435 0.1365,-0.10647 0.27111,-0.18998 0.40371,-0.249845 0.13454,-0.06006 0.25933,-0.08988 0.37438,-0.08988 0.2028,0 0.34905,0.05602 0.43875,0.16834 0.0916,0.11232 0.13634,0.288585 0.13634,0.52863 0,0.10062 -0.0115,0.22722 -0.0369,0.3801 -0.0254,0.15288 -0.0606,0.327335 -0.10549,0.52292 -0.0448,0.19539 -0.0953,0.408405 -0.15579,0.6387 -0.0605,0.23049 -0.1248,0.471705 -0.195,0.72325 -0.0663,0.24785 -0.11499,0.475415 -0.14814,0.6825 -0.0332,0.207095 -0.0488,0.388275 -0.0488,0.543105 0,0.15483 0.0233,0.29727 0.0701,0.426945 0.0448,0.129675 0.1111,0.241715 0.19691,0.33668 0.0858,0.09477 0.18731,0.169355 0.30431,0.223565 0.11895,0.05421 0.24773,0.08151 0.38618,0.08151 0.1677,0 0.32368,-0.0222 0.47188,-0.06665 0.14625,-0.04445 0.29437,-0.112695 0.44257,-0.20376 0.15015,-0.09087 0.30402,-0.206015 0.46197,-0.34544 0.1599,-0.139425 0.33379,-0.30567 0.52294,-0.499305 l -0.39991,-0.38353 c -0.117,0.127725 -0.22023,0.23724 -0.31383,0.328305 -0.0936,0.09087 -0.17755,0.165645 -0.25555,0.22356 -0.078,0.05811 -0.15217,0.100865 -0.22432,0.12797 -0.0722,0.0271 -0.14419,0.04035 -0.21634,0.04035 -0.1209,0 -0.20857,-0.03295 -0.26317,-0.09864 -0.0526,-0.06591 -0.08,-0.17251 -0.08,-0.31954 0,-0.0388 0.0175,-0.1372 0.0526,-0.29593 0.0332,-0.15873 0.0779,-0.35046 0.13253,-0.5751 0.0546,-0.22464 0.11323,-0.469475 0.17368,-0.734675 0.0624,-0.2652 0.12098,-0.52388 0.17558,-0.77543 0.0546,-0.251745 0.0974,-0.484035 0.13252,-0.69697 0.0351,-0.21314 0.0526,-0.37957 0.0526,-0.499685 0,-0.39878 -0.10151,-0.70856 -0.30431,-0.9293 -0.20475,-0.220545 -0.51065,-0.33097 -0.92015,-0.33097 -0.39195,0 -0.77027,0.127885 -1.13687,0.38353 -0.36465,0.25545 -0.73538,0.64053 -1.11173,1.155525 l -0.0819,-0.02895 c 0.0351,-0.07742 0.0607,-0.158535 0.0724,-0.24375 0.0136,-0.08521 0.0213,-0.166715 0.0213,-0.24413 0,-0.305955 -0.0782,-0.552605 -0.23614,-0.74039 -0.156,-0.187785 -0.37795,-0.28184 -0.6646,-0.28184 z m -139.39756,0.518735 -1.99951,0.07122 -0.09483,0.410945 c 0.34788,0.01055 0.588895,0.06074 0.72325,0.15044 0.134355,0.08951 0.201475,0.24485 0.201475,0.466175 0,0.242385 -0.06058,0.632195 -0.18167,1.169615 l -2.04712,9.032845 0.50578,0.126445 0.72706,-0.51378 c 0.54249,0.34242 1.164435,0.51378 1.86507,0.51378 0.769275,0 1.46469,-0.2463 2.08635,-0.73887 0.62166,-0.492765 1.107895,-1.15906 1.45831,-1.99951 0.35022,-0.840255 0.525585,-1.695015 0.525585,-2.564325 0,-0.7956 -0.15973,-1.412265 -0.47836,-1.849455 -0.318825,-0.437385 -0.765205,-0.65584 -1.33948,-0.65584 -0.44772,0 -0.89557,0.152795 -1.34329,0.458555 -0.447915,0.305565 -0.92761,0.800695 -1.43851,1.48573 l -0.10283,-0.0316 1.390895,-5.53236 z m 28.28262,0 -1.999515,0.07122 -0.09484,0.410945 c 0.347685,0.01055 0.588895,0.06074 0.723255,0.15044 0.13434,0.08951 0.20146,0.24485 0.20146,0.466175 0,0.242385 -0.0604,0.632195 -0.18166,1.169615 l -2.046735,9.032845 0.50578,0.126445 0.72668,-0.51378 c 0.542685,0.34242 1.164615,0.51378 1.865445,0.51378 0.76908,0 1.46469,-0.2463 2.08634,-0.73887 0.62166,-0.492765 1.10752,-1.15906 1.45793,-1.99951 0.35042,-0.840255 0.52559,-1.695015 0.52559,-2.564325 0,-0.7956 -0.15954,-1.412265 -0.47836,-1.849455 -0.31863,-0.437385 -0.76519,-0.65584 -1.33948,-0.65584 -0.4479,0 -0.89538,0.152795 -1.34328,0.458555 -0.44773,0.305565 -0.92741,0.800695 -1.43851,1.48573 l -0.10283,-0.0316 1.3909,-5.53236 z m 35.91884,0 -1.99875,0.07122 -0.0937,0.410945 c 0.3471,0.01055 0.58718,0.06074 0.72173,0.15044 0.13455,0.08951 0.20262,0.24485 0.20262,0.466175 0,0.242385 -0.0603,0.632195 -0.1832,1.169615 l -2.04559,9.032845 0.50502,0.126445 0.72744,-0.51378 c 0.5421,0.34242 1.16425,0.51378 1.8643,0.51378 0.77025,0 1.46625,-0.2463 2.08635,-0.73887 0.62205,-0.492765 1.10769,-1.15906 1.45869,-1.99951 0.351,-0.840255 0.52635,-1.695015 0.52635,-2.564325 0,-0.7956 -0.1597,-1.412265 -0.4795,-1.849455 -0.31785,-0.437385 -0.76461,-0.65584 -1.33986,-0.65584 -0.44655,0 -0.89484,0.152795 -1.34139,0.458555 -0.4485,0.305565 -0.92837,0.800695 -1.43927,1.48573 l -0.10321,-0.0316 1.39204,-5.53236 z m 67.98493,0 -2.00066,0.07122 -0.0937,0.410945 c 0.3471,0.01055 0.58876,0.06074 0.72136,0.15044 0.13455,0.08951 0.203,0.24485 0.203,0.466175 0,0.242385 -0.0604,0.632195 -0.18129,1.169615 l -2.0475,9.032845 0.50501,0.126445 0.72705,-0.51378 c 0.5421,0.34242 1.16423,0.51378 1.86623,0.51378 0.7683,0 1.46467,-0.2463 2.08672,-0.73887 0.6201,-0.492765 1.10736,-1.15906 1.45641,-1.99951 0.351,-0.840255 0.52672,-1.695015 0.52672,-2.564325 0,-0.7956 -0.16012,-1.412265 -0.47797,-1.849455 -0.3198,-0.437385 -0.76619,-0.65584 -1.33949,-0.65584 -0.4485,0 -0.89712,0.152795 -1.34367,0.458555 -0.4485,0.305565 -0.92798,0.800695 -1.43888,1.48573 l -0.10359,-0.0316 1.39242,-5.53236 z m 64.1706,0 -1.99875,0.07122 -0.0956,0.410945 c 0.3471,0.01055 0.5887,0.06074 0.72325,0.15044 0.13455,0.08951 0.20109,0.24485 0.20109,0.466175 0,0.242385 -0.0604,0.632195 -0.18128,1.169615 l -2.0475,9.032845 0.50693,0.126445 0.72514,-0.51378 c 0.54405,0.34242 1.16616,0.51378 1.86621,0.51378 0.7683,0 1.46469,-0.2463 2.08674,-0.73887 0.62205,-0.492765 1.1073,-1.15906 1.4583,-1.99951 0.34905,-0.840255 0.52483,-1.695015 0.52483,-2.564325 0,-0.7956 -0.16012,-1.412265 -0.47797,-1.849455 -0.3198,-0.437385 -0.76619,-0.65584 -1.33949,-0.65584 -0.4485,0 -0.89517,0.152795 -1.34367,0.458555 -0.4485,0.305565 -0.92798,0.800695 -1.43888,1.48573 l -0.1017,-0.0316 1.39053,-5.53236 z M 45.796054,18.8971 l -3.698524,2.20479 0.347724,0.608615 c 0.45825,-0.305565 0.842792,-0.545125 1.153624,-0.719065 0.310828,-0.17394 0.550768,-0.260885 0.719443,-0.260885 0.142155,0 0.250019,0.04875 0.323729,0.14625 0.07391,0.0975 0.11083,0.25157 0.11083,0.462365 v 6.4091 c 0,0.368745 -0.03038,0.635065 -0.09102,0.79828 -0.06065,0.16341 -0.156686,0.28983 -0.288311,0.379335 -0.13182,0.0897 -0.322813,0.156625 -0.573193,0.201475 -0.250185,0.04485 -0.667462,0.08031 -1.252267,0.10664 v 0.577005 h 5.840098 V 29.234 c -0.4056,-0.01055 -0.732301,-0.03035 -0.979951,-0.05942 -0.24765,-0.02905 -0.453396,-0.07088 -0.616611,-0.126065 -0.16341,-0.05538 -0.288177,-0.131775 -0.375147,-0.229275 -0.08697,-0.0975 -0.147545,-0.22392 -0.18167,-0.379335 -0.03432,-0.155415 -0.05179,-0.386075 -0.05179,-0.69164 v -6.74883 c 0,-0.89583 0.01601,-1.59651 0.04761,-2.10234 z m 12.891711,1.209225 v 4.55203 h -4.30714 v 1.051175 h 4.30714 v 4.55203 h 1.12201 v -4.55203 h 4.30714 v -1.051175 h -4.30714 v -4.55203 z m 28.282615,0 v 4.55203 h -4.306755 v 1.051175 h 4.306755 v 4.55203 h 1.122395 v -4.55203 h 4.306755 v -1.051175 h -4.306755 v -4.55203 z m 35.91999,0 v 4.55203 h -4.30714 v 1.051175 h 4.30714 v 4.55203 h 1.12201 v -4.55203 h 4.30714 v -1.051175 h -4.30714 v -4.55203 z m 35.91961,0 v 4.55203 h -4.30752 v 1.051175 h 4.30752 v 4.55203 h 1.12315 v -4.55203 h 4.30562 v -1.051175 h -4.30562 v -4.55203 z m 32.06378,0 v 4.55203 h -4.30751 v 1.051175 h 4.30751 v 4.55203 h 1.12125 v -4.55203 h 4.30753 v -1.051175 h -4.30753 v -4.55203 z M 4.0146385,22.12945 c -0.5532149,0 -1.037796,0.08422 -1.454121,0.25289 -0.41613,0.16848 -0.7362865,0.40931 -0.9601464,0.72287 -0.22386,0.31356 -0.3355371,0.67846 -0.3355371,1.09459 0,0.305565 0.057842,0.5757 0.1736719,0.81009 0.116025,0.23439 0.2884629,0.451765 0.5175878,0.65203 0.229125,0.20007 0.5492815,0.42438 0.9601465,0.671835 0.389805,0.23712 0.6743008,0.434475 0.8535058,0.59262 0.17901,0.158145 0.308164,0.322765 0.387334,0.493975 0.078975,0.17121 0.1184473,0.3753 0.1184473,0.61242 0,0.410865 -0.140784,0.72829 -0.422754,0.95215 -0.281775,0.224055 -0.6728627,0.335915 -1.1734277,0.335915 -0.574275,0 -0.993391,-0.12877 -1.256836,-0.38695 C 1.1590648,28.675705 1.0170073,28.293515 0.9959471,27.78788 H 0.37971668 L 0,29.510505 c 0.51636,0.158145 0.9854994,0.27001 1.4068944,0.33592 0.42159,0.06591 0.8508765,0.09864 1.2880665,0.09864 0.54795,0 1.0365377,-0.08148 1.4659276,-0.24489 0.42939,-0.163215 0.7693756,-0.41225 1.0195605,-0.74687 0.250185,-0.334425 0.3755275,-0.73606 0.3755275,-1.205035 0,-0.25818 -0.02657,-0.47791 -0.079219,-0.65965 C 5.4241075,26.90688 5.339697,26.73406 5.223867,26.57065 5.108037,26.407435 4.9499623,26.24262 4.7496971,26.076675 4.5496273,25.91073 4.2833058,25.72793 3.9514159,25.52786 3.5300209,25.274945 3.2191423,25.061575 3.0190721,24.887635 2.8188073,24.713695 2.6858414,24.55416 2.6199316,24.409275 2.5540215,24.26439 2.521289,24.09722 2.521289,23.90768 c 0,-0.34788 0.1289681,-0.62817 0.3869531,-0.841695 0.25818,-0.21333 0.5956184,-0.320305 1.0119433,-0.320305 0.53742,0 0.9310459,0.121335 1.1814261,0.36372 0.250185,0.242385 0.404253,0.59781 0.462363,1.066785 h 0.639844 l 0.3557225,-1.6594 C 6.159206,22.374435 5.757567,22.2742 5.354502,22.216285 4.9514369,22.15837 4.5046735,22.12945 4.0146385,22.12945 Z m 21.3193655,0.893115 v 1.05117 h 9.735908 v -1.05117 z m 199.029116,0 v 1.05117 h 9.73629 v -1.05117 z m -150.01099,0.0316 c 0.342615,0 0.59145,0.136975 0.746865,0.41095 0.155415,0.273975 0.233085,0.68451 0.233085,1.23246 0,0.405795 -0.042,0.831455 -0.126445,1.27664 -0.08424,0.44538 -0.20304,0.862845 -0.355725,1.25265 -0.15288,0.389805 -0.31985,0.71758 -0.50159,0.983755 -0.18174,0.26598 -0.3742,0.480625 -0.577,0.644035 -0.202995,0.163215 -0.402005,0.28036 -0.59681,0.351535 -0.195,0.07118 -0.400365,0.10664 -0.61623,0.10664 -0.42159,0 -0.72318,-0.09223 -0.90492,-0.276505 -0.18174,-0.18447 -0.272695,-0.484605 -0.272695,-0.900735 0,-0.347685 0.03945,-0.70604 0.118445,-1.074785 L 71.57033,26.7287 c 0.131625,-0.605865 0.292435,-1.10335 0.48217,-1.49335 0.189735,-0.389805 0.43476,-0.770725 0.73506,-1.1422 0.3003,-0.371475 0.57259,-0.63722 0.817705,-0.7979 0.24492,-0.16068 0.49395,-0.241085 0.746865,-0.241085 z m 28.28261,0 c 0.34242,0 0.59145,0.136975 0.74687,0.41095 0.15541,0.273975 0.23308,0.68451 0.23308,1.23246 0,0.405795 -0.0422,0.831455 -0.12644,1.27664 -0.0842,0.44538 -0.20284,0.862845 -0.35572,1.25265 -0.15269,0.389805 -0.31986,0.71758 -0.5016,0.983755 -0.18174,0.26598 -0.3742,0.480625 -0.577,0.644035 -0.2028,0.163215 -0.4018,0.28036 -0.5968,0.351535 -0.19481,0.07118 -0.40017,0.10664 -0.61623,0.10664 -0.4214,0 -0.72319,-0.09223 -0.904925,-0.276505 -0.18174,-0.18447 -0.272695,-0.484605 -0.272695,-0.900735 0,-0.347685 0.03965,-0.70604 0.11883,-1.074785 L 99.85295,26.7287 c 0.13182,-0.605865 0.29262,-1.10335 0.48216,-1.49335 0.18974,-0.389805 0.43438,-0.770725 0.73468,-1.1422 0.3005,-0.371475 0.57317,-0.63722 0.81809,-0.7979 0.24492,-0.16068 0.49395,-0.241085 0.74686,-0.241085 z m 35.92037,0 c 0.34125,0 0.59087,0.136975 0.74687,0.41095 0.15405,0.273975 0.23232,0.68451 0.23232,1.23246 0,0.405795 -0.041,0.831455 -0.12682,1.27664 -0.0838,0.44538 -0.20286,0.862845 -0.35496,1.25265 -0.1521,0.389805 -0.31986,0.71758 -0.50121,0.983755 -0.1833,0.26598 -0.37421,0.480625 -0.57701,0.644035 -0.2028,0.163215 -0.4018,0.28036 -0.5968,0.351535 -0.195,0.07118 -0.39978,0.10664 -0.61623,0.10664 -0.4212,0 -0.72357,-0.09223 -0.90492,-0.276505 -0.1833,-0.18447 -0.27308,-0.484605 -0.27308,-0.900735 0,-0.347685 0.0393,-0.70604 0.11921,-1.074785 l 0.0701,-0.332105 c 0.1326,-0.605865 0.29263,-1.10335 0.48178,-1.49335 0.1911,-0.389805 0.43476,-0.770725 0.73506,-1.1422 0.3003,-0.371475 0.57315,-0.63722 0.81885,-0.7979 0.24375,-0.16068 0.49336,-0.241085 0.74686,-0.241085 z m 67.98302,0 c 0.34125,0 0.59087,0.136975 0.74687,0.41095 0.156,0.273975 0.23193,0.68451 0.23193,1.23246 0,0.405795 -0.0411,0.831455 -0.12492,1.27664 -0.0858,0.44538 -0.20282,0.862845 -0.35687,1.25265 -0.1521,0.389805 -0.31946,0.71758 -0.50081,0.983755 -0.18135,0.26598 -0.3746,0.480625 -0.5774,0.644035 -0.2028,0.163215 -0.4018,0.28036 -0.5968,0.351535 -0.195,0.07118 -0.39979,0.10664 -0.61624,0.10664 -0.4212,0 -0.72317,-0.09223 -0.90452,-0.276505 -0.18135,-0.18447 -0.27308,-0.484605 -0.27308,-0.900735 0,-0.347685 0.0389,-0.70604 0.11883,-1.074785 l 0.0705,-0.332105 c 0.1326,-0.605865 0.29224,-1.10335 0.48139,-1.49335 0.1911,-0.389805 0.43477,-0.770725 0.73507,-1.1422 0.3003,-0.371475 0.57352,-0.63722 0.81922,-0.7979 0.24375,-0.16068 0.49337,-0.241085 0.74687,-0.241085 z m 64.17062,0 c 0.3432,0 0.59087,0.136975 0.74687,0.41095 0.156,0.273975 0.23384,0.68451 0.23384,1.23246 0,0.405795 -0.043,0.831455 -0.12683,1.27664 -0.0839,0.44538 -0.20282,0.862845 -0.35687,1.25265 -0.1521,0.389805 -0.31947,0.71758 -0.50082,0.983755 -0.18135,0.26598 -0.37459,0.480625 -0.57739,0.644035 -0.2028,0.163215 -0.4018,0.28036 -0.5968,0.351535 -0.195,0.07118 -0.39979,0.10664 -0.61624,0.10664 -0.4212,0 -0.72319,-0.09223 -0.90454,-0.276505 -0.18135,-0.18447 -0.27306,-0.484605 -0.27306,-0.900735 0,-0.347685 0.0408,-0.70604 0.11881,-1.074785 l 0.0724,-0.332105 c 0.13065,-0.605865 0.29226,-1.10335 0.48141,-1.49335 0.18915,-0.389805 0.43515,-0.770725 0.73545,-1.1422 0.3003,-0.371475 0.57318,-0.63722 0.81693,-0.7979 0.2457,-0.16068 0.49337,-0.241085 0.74687,-0.241085 z m -99.60006,1.114015 c -0.27495,0 -0.50334,0.09642 -0.68859,0.28869 -0.1833,0.19227 -0.27689,0.435835 -0.27689,0.73087 0,0.295035 0.0936,0.53898 0.27689,0.73125 0.18525,0.19227 0.41364,0.28831 0.68859,0.28831 0.273,0 0.50301,-0.09604 0.68631,-0.28831 0.18525,-0.19227 0.27688,-0.436215 0.27688,-0.73125 0,-0.295035 -0.0916,-0.5386 -0.27688,-0.73087 -0.1833,-0.19227 -0.41331,-0.28869 -0.68631,-0.28869 z m 4.78892,0 c -0.27495,0 -0.50296,0.09642 -0.68821,0.28869 -0.18525,0.19227 -0.27688,0.435835 -0.27688,0.73087 0,0.295035 0.0916,0.53898 0.27688,0.73125 0.18525,0.19227 0.41326,0.28831 0.68821,0.28831 0.273,0 0.50339,-0.09604 0.68669,-0.28831 0.18525,-0.19227 0.27689,-0.436215 0.27689,-0.73125 0,-0.295035 -0.0916,-0.5386 -0.27689,-0.73087 -0.1833,-0.19227 -0.41369,-0.28869 -0.68669,-0.28869 z m 4.78931,0 c -0.27495,0 -0.50296,0.09642 -0.68821,0.28869 -0.18525,0.19227 -0.27689,0.435835 -0.27689,0.73087 0,0.295035 0.0916,0.53898 0.27689,0.73125 0.18525,0.19227 0.41326,0.28831 0.68821,0.28831 0.273,0 0.50301,-0.09604 0.68631,-0.28831 0.18525,-0.19227 0.27688,-0.436215 0.27688,-0.73125 0,-0.295035 -0.0916,-0.5386 -0.27688,-0.73087 -0.1833,-0.19227 -0.41331,-0.28869 -0.68631,-0.28869 z M 25.334004,26.302135 v 1.05117 h 9.735908 v -1.05117 z m 199.029116,0 v 1.05117 h 9.73629 v -1.05117 z m -211.025044,0.86341 c -0.15873,0 -0.309898,0.0211 -0.453223,0.0636 -0.143325,0.0427 -0.28738,0.10965 -0.432656,0.200715 -0.145275,0.09087 -0.298255,0.20711 -0.458936,0.348485 -0.160679,0.141375 -0.337858,0.310535 -0.531298,0.50807 l 0.400664,0.37743 c 0.116025,-0.119925 0.221008,-0.22453 0.313828,-0.31345 0.09301,-0.08911 0.179044,-0.162785 0.258604,-0.220895 0.07936,-0.05811 0.154665,-0.10158 0.22623,-0.130635 0.07157,-0.02905 0.142524,-0.0438 0.212139,-0.0438 0.22854,0 0.342773,0.141525 0.342773,0.424275 0,0.10062 -0.01183,0.23013 -0.03504,0.38886 -0.0232,0.15873 -0.06014,0.3392 -0.110448,0.54044 l -0.871026,3.786885 h 1.138388 l 0.650508,-2.91586 c 0.0388,-0.178035 0.09955,-0.357025 0.182813,-0.53701 0.08327,-0.179985 0.179129,-0.35263 0.287549,-0.51721 0.10842,-0.16458 0.227571,-0.319375 0.357246,-0.46465 0.12987,-0.14508 0.262474,-0.27096 0.397999,-0.37743 0.135523,-0.10647 0.269753,-0.189785 0.403328,-0.249845 0.133575,-0.05987 0.258547,-0.08988 0.374767,-0.08988 0.201239,0 0.347304,0.0564 0.438369,0.16872 0.09087,0.112125 0.136728,0.28821 0.136728,0.528255 0,0.10062 -0.01256,0.227595 -0.0377,0.380475 -0.02516,0.15288 -0.06028,0.327335 -0.104737,0.52292 -0.04446,0.19539 -0.09705,0.408405 -0.156914,0.6387 -0.06006,0.230295 -0.125006,0.471705 -0.194621,0.723255 -0.06591,0.247845 -0.115197,0.47541 -0.148152,0.6825 -0.03276,0.20709 -0.04913,0.387895 -0.04913,0.542725 0,0.15483 0.02309,0.297265 0.0697,0.42694 0.04641,0.129675 0.11207,0.2421 0.197285,0.33706 0.08522,0.09477 0.186898,0.169355 0.305068,0.223565 0.11817,0.05421 0.246766,0.08113 0.386191,0.08113 0.16653,0 0.323332,-0.0222 0.470362,-0.06665 0.147225,-0.04465 0.295286,-0.112315 0.444463,-0.20338 0.148978,-0.09087 0.30287,-0.206015 0.4616,-0.34544 0.15873,-0.139425 0.333185,-0.305865 0.52292,-0.499305 l -0.401052,-0.38353 c -0.116025,0.127725 -0.220432,0.237235 -0.313447,0.3283 -0.09301,0.09087 -0.177947,0.16527 -0.255557,0.223185 -0.07741,0.05811 -0.151999,0.100865 -0.223564,0.12797 -0.07176,0.0271 -0.144337,0.04075 -0.217852,0.04075 -0.12012,0 -0.207058,-0.03295 -0.261268,-0.09865 -0.05421,-0.06591 -0.0815,-0.17251 -0.0815,-0.31954 0,-0.0388 0.01747,-0.13758 0.05218,-0.29631 0.0349,-0.158925 0.07985,-0.350455 0.134062,-0.575095 0.05421,-0.22464 0.112043,-0.46948 0.174053,-0.73468 0.06201,-0.2652 0.120224,-0.5235 0.174434,-0.77505 0.05421,-0.251745 0.0984,-0.48403 0.1333,-0.69697 0.03471,-0.213135 0.05256,-0.37957 0.05256,-0.49969 0,-0.398775 -0.101683,-0.708555 -0.305068,-0.929295 -0.20319,-0.220545 -0.510061,-0.330965 -0.920536,-0.330965 -0.390975,0 -0.769708,0.127695 -1.135723,0.383145 -0.36582,0.255645 -0.736541,0.64091 -1.112111,1.155905 l -0.0815,-0.02895 c 0.03491,-0.07742 0.0591,-0.158915 0.07274,-0.24413 0.01346,-0.08521 0.02057,-0.166335 0.02057,-0.24375 0,-0.305955 -0.07859,-0.552985 -0.235371,-0.74077 -0.156987,-0.18778 -0.378343,-0.28145 -0.664993,-0.28145 z m 229.518804,15.22447 -1.59694,0.0697 -0.088,0.39495 c 0.14235,0.004 0.26317,0.01355 0.36067,0.02895 0.0955,0.0156 0.17383,0.04 0.23233,0.07275 0.0585,0.03295 0.0992,0.07643 0.12455,0.130635 0.0254,0.05421 0.0373,0.118055 0.0373,0.19157 0,0.09301 -0.01,0.198325 -0.0293,0.316495 -0.0195,0.117975 -0.0526,0.27988 -0.0975,0.485215 l -1.40612,6.23771 h 1.11553 l 0.63756,-2.915475 h 0.37247 c 0.0897,0 0.16202,0.0035 0.22052,0.01145 0.0585,0.0076 0.10725,0.02635 0.14625,0.05522 0.0371,0.02905 0.0702,0.07181 0.0956,0.12797 0.0254,0.05616 0.0504,0.13036 0.0777,0.22318 0.117,0.39507 0.21849,0.753425 0.30429,1.074785 0.0877,0.32136 0.1834,0.5955 0.2887,0.82189 0.10335,0.2266 0.22995,0.40048 0.3801,0.52255 0.1482,0.12187 0.34505,0.18319 0.5888,0.18319 0.1365,0 0.26922,-0.0206 0.40182,-0.0613 0.13065,-0.0405 0.26707,-0.10422 0.40942,-0.19119 0.1404,-0.0872 0.29074,-0.19887 0.44674,-0.3344 0.156,-0.13552 0.32554,-0.29595 0.50884,-0.481785 l -0.39572,-0.37743 c -0.11505,0.131625 -0.22032,0.240755 -0.31003,0.32792 -0.0917,0.08697 -0.17355,0.155735 -0.24375,0.206045 -0.0721,0.05031 -0.1365,0.08543 -0.195,0.10474 -0.0585,0.0193 -0.1153,0.0289 -0.16795,0.0289 -0.078,0 -0.1442,-0.0173 -0.1988,-0.0522 -0.0546,-0.0349 -0.10326,-0.08801 -0.15006,-0.15958 -0.0468,-0.07156 -0.0897,-0.1649 -0.13065,-0.27917 -0.041,-0.11427 -0.0838,-0.250695 -0.13063,-0.409425 -0.0975,-0.298155 -0.19504,-0.599205 -0.29059,-0.903015 -0.0975,-0.304005 -0.19129,-0.603055 -0.28489,-0.89731 0.22425,-0.17043 0.44477,-0.33486 0.65927,-0.49359 0.2145,-0.15873 0.4291,-0.320635 0.64555,-0.485215 0.2145,-0.16458 0.43271,-0.33555 0.65891,-0.51378 0.22425,-0.178035 0.45817,-0.37177 0.70192,-0.58081 l -0.14397,-0.360295 h -2.09245 l -0.0682,0.37172 c 0.16185,0.0193 0.27472,0.05805 0.33517,0.116165 0.0624,0.05811 0.0937,0.133595 0.0937,0.22661 0,0.07742 -0.0349,0.17218 -0.1051,0.2845 -0.0683,0.11232 -0.16407,0.231275 -0.28107,0.357245 -0.11895,0.125775 -0.25539,0.250945 -0.40944,0.37477 -0.156,0.123825 -0.31594,0.235145 -0.48559,0.33401 -0.1677,0.09867 -0.33728,0.179075 -0.50693,0.241085 -0.1716,0.06182 -0.32939,0.09255 -0.47759,0.09255 h -0.16187 L 243.27429,42.39 Z m 16.31563,0.40638 c -0.38415,0 -0.73513,0.07839 -1.05688,0.23537 -0.32175,0.15678 -0.60084,0.39508 -0.83484,0.71449 -0.23399,0.31941 -0.41513,0.72105 -0.54578,1.20504 -0.1287,0.48399 -0.19309,1.057175 -0.19309,1.7192 0,1.266135 0.20882,2.21094 0.62612,2.834355 0.41925,0.62342 1.05656,0.93539 1.9165,0.93539 0.86775,0 1.52908,-0.33034 1.98733,-0.990615 0.4563,-0.660075 0.68439,-1.634705 0.68439,-2.92424 0,-0.58071 -0.0488,-1.1015 -0.14434,-1.562285 -0.0975,-0.460785 -0.24956,-0.850775 -0.45626,-1.17038 -0.2067,-0.31941 -0.47373,-0.56554 -0.80133,-0.737725 -0.3276,-0.17238 -0.72162,-0.2586 -1.18182,-0.2586 z m -0.0236,0.56329 c 0.22815,0 0.43122,0.06604 0.60672,0.197665 0.1755,0.131625 0.32175,0.3361 0.43875,0.612805 0.11701,0.2769 0.20643,0.63015 0.27078,1.05993 0.0624,0.42978 0.0956,0.94274 0.0956,1.53905 0,0.530595 -0.0291,0.99045 -0.0876,1.379475 -0.0585,0.38922 -0.14432,0.71064 -0.25937,0.964335 -0.1131,0.2535 -0.2576,0.440125 -0.43115,0.560245 -0.1755,0.12012 -0.37808,0.18015 -0.61014,0.18015 -0.24765,0 -0.46201,-0.0637 -0.63945,-0.19157 -0.17746,-0.12773 -0.32589,-0.327285 -0.44484,-0.598335 -0.117,-0.270855 -0.20473,-0.61667 -0.26128,-1.0367 -0.0566,-0.420225 -0.0838,-0.91863 -0.0838,-1.495635 0,-0.499395 0.0214,-0.945795 0.0663,-1.33872 0.0448,-0.39312 0.12095,-0.725995 0.22625,-0.998995 0.10725,-0.273 0.25169,-0.48038 0.43304,-0.62156 0.18329,-0.141375 0.40914,-0.21214 0.68019,-0.21214 z m -10.95313,1.85288 v 0.888925 h 6.69057 v -0.888925 z m 0,2.52662 v 0.88893 h 6.69057 v -0.88893 z"
   id="path2"
   inkscape:connector-curvature="0"
   style="stroke-width:0.19499999" />

























</svg>