<?xml version="1.0" encoding="UTF-8" standalone="no"?>
<svg
   xmlns:dc="http://purl.org/dc/elements/1.1/"
   xmlns:cc="http://creativecommons.org/ns#"
   xmlns:rdf="http://www.w3.org/1999/02/22-rdf-syntax-ns#"
   xmlns:svg="http://www.w3.org/2000/svg"
   xmlns="http://www.w3.org/2000/svg"
   xmlns:sodipodi="http://sodipodi.sourceforge.net/DTD/sodipodi-0.dtd"
   xmlns:inkscape="http://www.inkscape.org/namespaces/inkscape"
   width="101.22365"
   height="15.434331"
   xml:space="preserve"
   overflow="hidden"
   version="1.1"
   id="svg44"
   sodipodi:docname="08-hypothesis.svg"
   style="overflow:hidden"
   inkscape:version="0.92.4 (5da689c313, 2019-01-14)"><metadata
   id="metadata50"><rdf:RDF><cc:Work
       rdf:about=""><dc:format>image/svg+xml</dc:format><dc:type
         rdf:resource="http://purl.org/dc/dcmitype/StillImage" /><dc:title></dc:title></cc:Work></rdf:RDF></metadata><defs
   id="defs48" /><sodipodi:namedview
   pagecolor="#ffffff"
   bordercolor="#666666"
   borderopacity="1"
   objecttolerance="10"
   gridtolerance="10"
   guidetolerance="10"
   inkscape:pageopacity="0"
   inkscape:pageshadow="2"
   inkscape:window-width="1839"
   inkscape:window-height="1130"
   id="namedview46"
   showgrid="false"
   inkscape:zoom="1"
   inkscape:cx="-496.93242"
   inkscape:cy="44.150396"
   inkscape:window-x="0"
   inkscape:window-y="0"
   inkscape:window-maximized="0"
   inkscape:current-layer="svg44"
   fit-margin-top="0"
   fit-margin-left="0"
   fit-margin-right="0"
   fit-margin-bottom="0" /><path
   d="M 76.12846,0 75.01292,4.900517 75.692755,5.105039 77.62676,0.452461 V 0 Z M 5.492373,1.131152 c -0.7164299,0 -1.3483489,0.130315 -1.8962989,0.387715 -0.54795,0.2574 -0.9721512,0.624167 -1.272451,1.098017 -0.3003002,0.47385 -0.4505567,1.021739 -0.4505567,1.643789 0,0.39 0.076592,0.74289 0.2292773,1.05879 0.1528801,0.3159 0.3580505,0.602626 0.6162304,0.858076 0.25818,0.25545 0.5821482,0.514845 0.9719532,0.778095 0.43212,0.29055 0.7626329,0.547798 0.9917579,0.770098 0.22932,0.22425 0.4008648,0.458509 0.5141598,0.704209 0.113295,0.2457 0.1698635,0.528328 0.1698635,0.850078 0,0.6942 -0.205746,1.238174 -0.6166112,1.628174 -0.41106,0.39 -0.9745857,0.585 -1.6910157,0.585 -0.62166,0 -1.0815218,-0.157935 -1.3790918,-0.471885 -0.297765,-0.312 -0.446748,-0.791624 -0.446748,-1.433174 H 0.4741698 L 0,11.760556 c 0.442455,0.1209 0.9445221,0.222117 1.5055371,0.300117 0.56121,0.07995 1.0839898,0.11921 1.5687597,0.11921 0.71643,0 1.3552744,-0.134901 1.9164844,-0.407901 0.5610153,-0.27105 0.9957678,-0.65485 1.3040628,-1.152099 0.3080995,-0.4992 0.462363,-1.068844 0.462363,-1.712344 0,-0.41535 -0.064768,-0.781737 -0.1938575,-1.097637 -0.12909,-0.3159 -0.32937,-0.616505 -0.600615,-0.897305 C 5.6912945,6.629847 5.2976685,6.310063 4.7813085,5.953213 4.1912385,5.545663 3.7919516,5.194678 3.5838866,4.896328 3.3758216,4.599928 3.2719629,4.252767 3.2719629,3.858867 c 0,-0.38025 0.086949,-0.723267 0.2608885,-1.031367 0.173745,-0.3081 0.4264011,-0.55185 0.7582911,-0.73125 0.33189,-0.1794 0.716814,-0.269268 1.154004,-0.269268 0.358215,0 0.645444,0.0549 0.861504,0.166055 0.215865,0.11115 0.381953,0.29413 0.497783,0.54958 0.11583,0.25545 0.184604,0.60648 0.205664,1.05498 h 0.758291 L 8.211328,1.565713 C 7.710763,1.407763 7.2534485,1.296856 6.8398535,1.230556 6.4262585,1.164256 5.977143,1.131152 5.492373,1.131152 Z m 34.129952,3.225117 c -0.4056,0 -0.769041,0.107372 -1.090401,0.319922 -0.32136,0.21255 -0.724458,0.573163 -1.209228,1.078213 l 0.450557,0.442559 c 0.316095,-0.35295 0.565123,-0.5967 0.746863,-0.73125 C 38.701856,5.331163 38.87449,5.265 39.037705,5.265 c 0.147615,0 0.255666,0.04689 0.324112,0.142441 0.06844,0.09555 0.102451,0.247574 0.102451,0.458174 0,0.273 -0.05765,0.663 -0.173671,1.17 l -1.154004,5.009443 h 1.367285 l 0.751055,-3.422021 c 0.110565,-0.48945 0.252622,-0.90087 0.426562,-1.23627 0.17394,-0.33345 0.404219,-0.678706 0.691259,-1.035556 0.287235,-0.3549 0.558633,-0.62202 0.814278,-0.79752 0.255449,-0.17745 0.493548,-0.265459 0.714873,-0.265459 0.273975,0 0.471707,0.08 0.592997,0.241846 0.121095,0.1599 0.18167,0.423394 0.18167,0.786094 0,0.1482 -0.01982,0.339101 -0.05941,0.577001 -0.03958,0.23595 -0.122146,0.602718 -0.248701,1.098018 l -0.347726,1.366904 c -0.173745,0.66495 -0.260889,1.168096 -0.260889,1.509346 0,0.380251 0.102781,0.691976 0.308116,0.937676 0.20553,0.24375 0.479473,0.366767 0.821893,0.366767 0.43212,0 0.81685,-0.111287 1.154005,-0.335537 0.337155,-0.22425 0.73225,-0.578997 1.185235,-1.062597 l -0.450557,-0.442559 c -0.326625,0.3627 -0.579281,0.608217 -0.758291,0.738867 -0.179205,0.1287 -0.347831,0.193096 -0.505781,0.193096 -0.147615,0 -0.255667,-0.04689 -0.324112,-0.142441 -0.06844,-0.09555 -0.102831,-0.247574 -0.102831,-0.458174 0,-0.2379 0.07131,-0.643545 0.213662,-1.216846 l 0.513397,-2.070732 c 0.152685,-0.61035 0.229278,-1.08225 0.229278,-1.41375 0,-0.50115 -0.131887,-0.893009 -0.395332,-1.173809 -0.263445,-0.28275 -0.639974,-0.423135 -1.130009,-0.423135 -0.495105,0 -0.976071,0.175394 -1.442316,0.524444 -0.466245,0.351 -0.957565,0.889017 -1.473925,1.616367 l -0.09483,-0.03123 c 0.126555,-0.3432 0.189669,-0.653113 0.189669,-0.931963 0,-0.35295 -0.09604,-0.639676 -0.288312,-0.858076 -0.19227,-0.2184 -0.454389,-0.327539 -0.786474,-0.327539 z m 30.68584,0.008 c -0.553215,0 -1.037795,0.08362 -1.45412,0.253272 -0.41613,0.1677 -0.73629,0.409728 -0.96015,0.721728 -0.22386,0.31395 -0.335915,0.678433 -0.335915,1.095733 0,0.3042 0.05784,0.575326 0.17367,0.809326 0.116025,0.234 0.288845,0.452324 0.51797,0.653174 0.229125,0.1989 0.549085,0.423044 0.960145,0.670694 0.389805,0.237899 0.6743,0.435047 0.853505,0.592997 0.17901,0.15795 0.308165,0.321613 0.387335,0.493213 0.07897,0.1716 0.11845,0.376472 0.11845,0.612422 0,0.41145 -0.141165,0.729041 -0.423135,0.953291 -0.281775,0.22425 -0.672865,0.335537 -1.17343,0.335537 -0.574275,0 -0.99301,-0.128746 -1.256455,-0.388096 -0.263445,-0.2574 -0.4055,-0.639432 -0.42656,-1.144482 H 66.67286 l -0.379335,1.721865 c 0.51636,0.15795 0.98512,0.270806 1.406515,0.335156 0.42159,0.0663 0.851255,0.09979 1.288445,0.09979 0.54795,0 1.03654,-0.08224 1.46593,-0.246036 0.42939,-0.16185 0.769375,-0.411465 1.01956,-0.746865 0.250185,-0.33345 0.375145,-0.735089 0.375145,-1.205039 0,-0.2574 -0.0262,-0.477537 -0.07883,-0.658887 C 71.71764,9.141712 71.63323,8.968086 71.5174,8.806236 71.401375,8.642436 71.243495,8.476488 71.04323,8.310738 70.84316,8.144988 70.576835,7.961962 70.244945,7.763062 69.82355,7.509562 69.512675,7.296814 69.312605,7.121314 69.11234,6.947765 68.979375,6.788017 68.913465,6.643717 c -0.06591,-0.1443 -0.09865,-0.312061 -0.09865,-0.501211 0,-0.34905 0.128775,-0.627961 0.386955,-0.842461 0.25818,-0.21255 0.595235,-0.319922 1.01156,-0.319922 0.53742,0 0.931045,0.121159 1.181425,0.362959 0.250185,0.24375 0.404255,0.598742 0.462365,1.068691 h 0.640225 l 0.35572,-1.659785 C 72.45273,4.609638 72.050515,4.508421 71.647645,4.451871 71.24458,4.393371 70.7982,4.364271 70.308165,4.364271 Z M 21.776017,5.257384 v 1.05079 h 9.73667 v -1.05079 z m 29.659423,1.63579 v 1.051172 h 9.73629 V 6.893174 Z m 47.720915,0.955577 c -0.48399,0.25935 -0.961305,0.520604 -1.431645,0.781904 -0.470535,0.2613 -0.946035,0.522463 -1.42632,0.785713 0.0466,0.0936 0.09136,0.185327 0.13406,0.273076 0.0425,0.0897 0.0887,0.179613 0.139015,0.267363 0.37557,-0.24375 0.681725,-0.427065 0.91787,-0.551865 0.23634,-0.12285 0.414225,-0.185478 0.534345,-0.185478 0.10842,0 0.19155,0.03129 0.249465,0.09369 0.05811,0.0624 0.08722,0.167821 0.08722,0.319921 v 4.163174 c 0,0.1326 -0.0067,0.241648 -0.0202,0.331348 -0.01365,0.0897 -0.032,0.163831 -0.05522,0.226231 -0.0232,0.0624 -0.05412,0.113297 -0.09293,0.154247 -0.0386,0.04095 -0.08518,0.07802 -0.13939,0.113115 -0.05051,0.0312 -0.109245,0.05663 -0.177105,0.07808 -0.06767,0.02145 -0.157705,0.04072 -0.270025,0.05827 -0.11232,0.01755 -0.24803,0.03138 -0.40676,0.04113 -0.15873,0.0098 -0.352085,0.01734 -0.58043,0.02514 v 0.506924 h 4.605345 V 14.82381 c -0.23614,-0.0039 -0.43822,-0.0097 -0.6067,-0.01942 -0.16848,-0.0098 -0.31273,-0.0232 -0.43266,-0.04075 -0.12012,-0.01755 -0.21889,-0.03902 -0.296305,-0.06437 -0.07742,-0.0234 -0.13945,-0.0606 -0.18586,-0.107402 -0.0388,-0.0312 -0.07264,-0.06641 -0.10169,-0.109307 -0.02905,-0.0429 -0.05235,-0.09342 -0.0697,-0.153867 -0.01735,-0.06045 -0.0299,-0.134718 -0.0377,-0.220518 -0.0076,-0.08775 -0.01145,-0.191024 -0.01145,-0.311923 v -4.41302 c 0,-0.156 0.001,-0.311985 0.0025,-0.471885 0.002,-0.15795 0.005,-0.321704 0.0087,-0.489404 0.004,-0.16965 0.0097,-0.360643 0.0175,-0.573193 z M 21.776016,8.536963 v 1.051171 h 9.73667 V 8.536963 Z M 9.7804685,9.401133 c -0.158925,0 -0.3098975,0.01918 -0.4532225,0.06208 -0.14313,0.0429 -0.287381,0.109443 -0.432656,0.201093 -0.14508,0.09165 -0.298256,0.206517 -0.4589355,0.348868 -0.1606805,0.140399 -0.337664,0.309973 -0.531299,0.506923 l 0.400664,0.378575 c 0.11622,-0.1209 0.220813,-0.224509 0.313828,-0.314209 0.09282,-0.0897 0.1788575,-0.161637 0.2582225,-0.220137 0.079365,-0.0585 0.1548515,-0.101385 0.2266115,-0.130635 0.071565,-0.02925 0.1423285,-0.04303 0.2121385,-0.04303 0.228345,0 0.342393,0.140385 0.342393,0.423135 0,0.1014 -0.01164,0.2301 -0.03504,0.39 -0.023205,0.15795 -0.059563,0.337258 -0.1100685,0.540058 l -0.8710255,3.78688 h 1.138389 l 0.650508,-2.917001 c 0.03861,-0.17745 0.09955,-0.356851 0.182812,-0.536251 0.08327,-0.179399 0.179129,-0.353026 0.287549,-0.516825 0.10842,-0.16575 0.227571,-0.319923 0.357246,-0.466172 0.129675,-0.1443 0.262092,-0.270989 0.397617,-0.376289 0.135525,-0.107251 0.270136,-0.189013 0.403711,-0.249464 0.133575,-0.06045 0.25836,-0.08988 0.374385,-0.08988 0.201435,0 0.34788,0.05486 0.43875,0.16796 0.09107,0.113099 0.136349,0.288401 0.136349,0.528251 0,0.101401 -0.01217,0.228379 -0.03732,0.380479 -0.02535,0.15405 -0.06008,0.327539 -0.104737,0.522539 -0.04446,0.195 -0.09685,0.409363 -0.156914,0.639463 -0.06006,0.2301 -0.124809,0.472083 -0.194619,0.723633 -0.06572,0.247649 -0.115199,0.473849 -0.148154,0.682499 -0.03296,0.2067 -0.04913,0.387913 -0.04913,0.541964 0,0.155999 0.02329,0.298244 0.0697,0.426944 0.04641,0.13065 0.11207,0.241889 0.197285,0.337439 0.08521,0.0936 0.186899,0.169773 0.305069,0.222423 0.117975,0.0546 0.246766,0.08188 0.386191,0.08188 0.16653,0 0.323137,-0.02142 0.470362,-0.06627 0.14703,-0.04485 0.295483,-0.113299 0.444463,-0.202999 0.149175,-0.09165 0.30287,-0.206563 0.4616,-0.346963 0.15873,-0.13845 0.333185,-0.304306 0.52292,-0.499306 L 14.77544,13.936786 c -0.11622,0.12675 -0.220814,0.23589 -0.313829,0.32754 -0.09282,0.09165 -0.178142,0.165826 -0.255557,0.224326 -0.07742,0.05655 -0.151804,0.09915 -0.223564,0.126446 -0.07156,0.0273 -0.144142,0.04114 -0.217852,0.04114 -0.119925,0 -0.207058,-0.03311 -0.261268,-0.09941 -0.05421,-0.06435 -0.0815,-0.171768 -0.0815,-0.318018 0,-0.039 0.01727,-0.138358 0.05218,-0.296308 0.03491,-0.1599 0.07947,-0.350848 0.13368,-0.575098 0.05421,-0.22425 0.112425,-0.470239 0.174435,-0.735439 0.06181,-0.2652 0.119841,-0.524261 0.174051,-0.775811 0.05421,-0.25155 0.09878,-0.483661 0.133683,-0.696211 0.03491,-0.21255 0.05218,-0.380356 0.05218,-0.499307 0,-0.39975 -0.101498,-0.709708 -0.304688,-0.930058 -0.203385,-0.22035 -0.510256,-0.329443 -0.920537,-0.329443 -0.39117,0 -0.769903,0.126552 -1.135723,0.382001 -0.366015,0.255451 -0.736539,0.641489 -1.112109,1.156289 l -0.0815,-0.02933 c 0.03471,-0.078 0.05929,-0.15795 0.07274,-0.24375 0.01365,-0.0858 0.02018,-0.1677 0.02018,-0.24375 0,-0.30615 -0.07821,-0.553571 -0.23499,-0.740771 -0.15678,-0.1872 -0.378525,-0.280693 -0.664981,-0.280693 z m 71.2808815,0 c -0.15873,0 -0.3099,0.01918 -0.453225,0.06208 -0.143325,0.0429 -0.28738,0.109443 -0.432655,0.201093 -0.145275,0.09165 -0.298255,0.206517 -0.458935,0.348868 -0.16068,0.140399 -0.337665,0.309973 -0.5313,0.506923 l 0.400665,0.378575 c 0.11622,-0.1209 0.221005,-0.224509 0.313825,-0.314209 0.09301,-0.0897 0.17924,-0.161637 0.258605,-0.220137 0.07936,-0.0585 0.154665,-0.101385 0.22623,-0.130635 0.07176,-0.02925 0.14233,-0.04303 0.21214,-0.04303 0.228345,0 0.342775,0.140385 0.342775,0.423135 0,0.1014 -0.01185,0.2301 -0.03505,0.39 -0.0232,0.15795 -0.06014,0.337258 -0.11045,0.540058 l -0.871025,3.786885 h 1.13839 l 0.650505,-2.917001 c 0.0388,-0.17745 0.09955,-0.356851 0.182815,-0.536251 0.08307,-0.179399 0.17913,-0.353026 0.28755,-0.516825 0.10842,-0.16575 0.227375,-0.319923 0.357245,-0.466172 0.129675,-0.1443 0.26247,-0.270989 0.397995,-0.376289 0.135525,-0.107251 0.269755,-0.189013 0.40333,-0.249464 0.133575,-0.06045 0.258545,-0.08988 0.374765,-0.08988 0.201435,0 0.347685,0.05486 0.43875,0.16796 0.09107,0.113099 0.13635,0.288401 0.13635,0.528251 0,0.101401 -0.01255,0.228379 -0.0377,0.380479 -0.02515,0.15405 -0.06027,0.327539 -0.104735,0.522539 -0.04445,0.195 -0.09686,0.409363 -0.156915,0.639463 -0.06006,0.2301 -0.12443,0.472083 -0.19424,0.723633 -0.06571,0.247649 -0.115395,0.473849 -0.148155,0.682499 -0.03295,0.2067 -0.0495,0.387913 -0.0495,0.541964 0,0.155999 0.0233,0.298244 0.0697,0.426944 0.0464,0.13065 0.11245,0.241889 0.197665,0.337439 0.08502,0.0936 0.18671,0.169773 0.304685,0.222423 0.11817,0.0546 0.246765,0.08188 0.38619,0.08188 0.16653,0 0.32352,-0.02142 0.470745,-0.06627 0.14703,-0.04485 0.2951,-0.113299 0.44408,-0.202999 0.149175,-0.09165 0.303255,-0.206563 0.461985,-0.346963 0.15873,-0.13845 0.3328,-0.304306 0.522535,-0.499306 l -0.40066,-0.382003 c -0.11622,0.12675 -0.220815,0.23589 -0.31383,0.32754 -0.09282,0.09165 -0.17776,0.165826 -0.255175,0.224326 -0.07761,0.05655 -0.15238,0.09915 -0.223945,0.126446 -0.07156,0.0273 -0.144335,0.04114 -0.21785,0.04114 -0.12012,0 -0.20706,-0.0331 -0.26127,-0.09941 -0.05421,-0.06435 -0.08113,-0.171768 -0.08113,-0.318018 0,-0.039 0.01725,-0.138358 0.05218,-0.296308 0.0347,-0.1599 0.07947,-0.350848 0.13368,-0.575098 0.05421,-0.22425 0.112235,-0.470239 0.17405,-0.735439 0.06201,-0.2652 0.120225,-0.524261 0.174435,-0.775811 0.05421,-0.25155 0.09839,-0.483661 0.1333,-0.696211 0.0349,-0.21255 0.05256,-0.380357 0.05256,-0.499307 0,-0.39975 -0.101685,-0.709708 -0.30507,-0.930058 -0.20319,-0.22035 -0.51006,-0.329443 -0.920535,-0.329443 -0.390975,0 -0.769705,0.126551 -1.13572,0.382001 -0.36582,0.25545 -0.736345,0.641489 -1.11211,1.156289 l -0.0815,-0.02933 c 0.0349,-0.078 0.05909,-0.15795 0.07274,-0.24375 0.01345,-0.0858 0.02055,-0.1677 0.02055,-0.24375 0,-0.30615 -0.07859,-0.553571 -0.23537,-0.740771 -0.15678,-0.1872 -0.37833,-0.280693 -0.66498,-0.280693 z m 6.66542,2.084443 v 0.889307 h 6.690935 v -0.889307 z"
   id="path2"
   inkscape:connector-curvature="0"
   style="stroke-width:0.19499999" />









</svg>