<?xml version="1.0" encoding="UTF-8" standalone="no"?>
<svg
   xmlns:dc="http://purl.org/dc/elements/1.1/"
   xmlns:cc="http://creativecommons.org/ns#"
   xmlns:rdf="http://www.w3.org/1999/02/22-rdf-syntax-ns#"
   xmlns:svg="http://www.w3.org/2000/svg"
   xmlns="http://www.w3.org/2000/svg"
   xmlns:sodipodi="http://sodipodi.sourceforge.net/DTD/sodipodi-0.dtd"
   xmlns:inkscape="http://www.inkscape.org/namespaces/inkscape"
   width="364.8389"
   height="50.438736"
   xml:space="preserve"
   overflow="hidden"
   version="1.1"
   id="svg150"
   sodipodi:docname="09-geo-closed.svg"
   style="overflow:hidden"
   inkscape:version="0.92.4 (5da689c313, 2019-01-14)"><metadata
   id="metadata156"><rdf:RDF><cc:Work
       rdf:about=""><dc:format>image/svg+xml</dc:format><dc:type
         rdf:resource="http://purl.org/dc/dcmitype/StillImage" /><dc:title></dc:title></cc:Work></rdf:RDF></metadata><defs
   id="defs154" /><sodipodi:namedview
   pagecolor="#ffffff"
   bordercolor="#666666"
   borderopacity="1"
   objecttolerance="10"
   gridtolerance="10"
   guidetolerance="10"
   inkscape:pageopacity="0"
   inkscape:pageshadow="2"
   inkscape:window-width="1741"
   inkscape:window-height="1084"
   id="namedview152"
   showgrid="false"
   inkscape:zoom="1"
   inkscape:cx="60.83645"
   inkscape:cy="-198.6608"
   inkscape:window-x="0"
   inkscape:window-y="0"
   inkscape:window-maximized="0"
   inkscape:current-layer="svg150"
   fit-margin-top="0"
   fit-margin-left="0"
   fit-margin-right="0"
   fit-margin-bottom="0" /><path
   d="m 249.33263,5e-6 c -0.15795,0 -0.30974,0.0215 -0.45209,0.06246 -0.14429,0.0429 -0.28873,0.109065 -0.43303,0.200715 -0.14625,0.09165 -0.29821,0.206895 -0.46006,0.349245 -0.1599,0.140405 -0.33749,0.309975 -0.53054,0.506925 l 0.39989,0.378195 c 0.117,-0.1209 0.22218,-0.22413 0.31383,-0.31383 0.0936,-0.08775 0.17942,-0.162015 0.25937,-0.220515 0.078,-0.0585 0.15407,-0.101385 0.22622,-0.130635 0.0722,-0.02925 0.14233,-0.04265 0.21253,-0.04265 0.22815,0 0.34125,0.140385 0.34125,0.423135 0,0.1014 -0.0117,0.2301 -0.0351,0.39 -0.0214,0.15795 -0.0586,0.337255 -0.1093,0.540055 l -0.87178,3.786885 h 1.13876 l 0.65126,-2.917 c 0.037,-0.17745 0.0998,-0.35685 0.18168,-0.53625 0.0838,-0.1794 0.17911,-0.353025 0.28831,-0.516825 0.10725,-0.16575 0.22622,-0.31997 0.35687,-0.46427 0.1287,-0.14625 0.26149,-0.270945 0.39799,-0.378195 0.13455,-0.10725 0.26916,-0.18901 0.40371,-0.24946 0.1326,-0.06045 0.25933,-0.08989 0.37438,-0.08989 0.20085,0 0.3471,0.05448 0.43875,0.16758 0.0917,0.1131 0.13635,0.28878 0.13635,0.52863 0,0.1014 -0.0115,0.228 -0.0369,0.3801 -0.0254,0.15405 -0.0607,0.32754 -0.1055,0.52254 -0.0448,0.19695 -0.0973,0.409745 -0.15578,0.639845 -0.0605,0.2301 -0.1248,0.4717 -0.195,0.72325 -0.0663,0.24765 -0.11499,0.47385 -0.14814,0.6825 -0.0332,0.2067 -0.0487,0.388295 -0.0487,0.542345 0,0.156 0.0213,0.29824 0.0682,0.42694 0.0468,0.13065 0.113,0.241895 0.1988,0.337445 0.0839,0.09555 0.18537,0.169725 0.30432,0.224325 0.117,0.05265 0.24577,0.0796 0.38617,0.0796 0.16575,0 0.32335,-0.0214 0.4696,-0.06627 0.1482,-0.04485 0.29666,-0.11292 0.44486,-0.20262 0.15015,-0.09165 0.30207,-0.206605 0.46197,-0.345055 0.15795,-0.1404 0.33339,-0.30621 0.52254,-0.50121 l -0.4015,-0.38238 c -0.11505,0.12675 -0.22065,0.23589 -0.3123,0.32754 -0.0936,0.09165 -0.17912,0.165825 -0.25517,0.224325 -0.078,0.0585 -0.15218,0.09952 -0.22433,0.126825 -0.0721,0.0273 -0.14415,0.04115 -0.21825,0.04115 -0.11895,0 -0.20705,-0.03315 -0.26165,-0.0975 -0.0546,-0.0663 -0.0819,-0.173675 -0.0819,-0.319925 0,-0.039 0.0178,-0.138355 0.053,-0.296305 0.0351,-0.1599 0.0798,-0.35123 0.13445,-0.57548 0.0546,-0.22425 0.11126,-0.46986 0.17366,-0.73506 0.0624,-0.2652 0.12065,-0.52269 0.1733,-0.77619 0.0546,-0.25155 0.0997,-0.48366 0.13482,-0.69621 0.0351,-0.21255 0.0526,-0.379975 0.0526,-0.498925 0,-0.39975 -0.10146,-0.70814 -0.30621,-0.93044 -0.2028,-0.22035 -0.50908,-0.329445 -0.92053,-0.329445 -0.39,0 -0.76836,0.126935 -1.13496,0.382385 -0.3666,0.25545 -0.73696,0.64149 -1.11136,1.156285 l -0.0819,-0.02935 c 0.0351,-0.078 0.0584,-0.15795 0.072,-0.24375 0.0137,-0.0858 0.0217,-0.16575 0.0217,-0.24375 0,-0.30615 -0.0801,-0.55395 -0.23612,-0.74115 C 249.84166,0.093495 249.61932,0 249.33267,0 Z m 111.8405,4.26258 c -0.4836,0.25935 -0.96131,0.5187 -1.43126,0.78 -0.4719,0.2613 -0.94587,0.524745 -1.42557,0.787995 0.0448,0.0936 0.0897,0.18338 0.13254,0.27308 0.0429,0.0897 0.0898,0.17728 0.14054,0.26698 0.3744,-0.24375 0.68039,-0.427065 0.91634,-0.551865 0.23595,-0.1248 0.41541,-0.1851 0.53436,-0.1851 0.1092,0 0.19096,0.03095 0.24946,0.09141 0.0585,0.0624 0.088,0.16977 0.088,0.31992 v 4.16508 c 0,0.13065 -0.008,0.242025 -0.0213,0.331725 -0.0117,0.08775 -0.0314,0.163835 -0.0548,0.226235 -0.0234,0.06045 -0.0543,0.112915 -0.0914,0.153865 -0.039,0.039 -0.0859,0.07802 -0.14054,0.113115 -0.0507,0.0312 -0.10924,0.05663 -0.17749,0.07807 -0.0682,0.02145 -0.15812,0.0411 -0.26927,0.05866 -0.1131,0.01755 -0.24761,0.031 -0.40751,0.04075 -0.15795,0.0097 -0.35071,0.0177 -0.58081,0.0255 v 0.50502 h 4.60573 v -0.50502 c -0.23595,-0.004 -0.43863,-0.0097 -0.60634,-0.01945 -0.1677,-0.0098 -0.31213,-0.0236 -0.43303,-0.04115 -0.11895,-0.01755 -0.21831,-0.039 -0.29631,-0.06437 -0.076,-0.02535 -0.13868,-0.0606 -0.18548,-0.1074 -0.039,-0.0312 -0.072,-0.06793 -0.1013,-0.11083 -0.0292,-0.0429 -0.0525,-0.0938 -0.0701,-0.15425 -0.0176,-0.0585 -0.0292,-0.132385 -0.037,-0.220135 -0.008,-0.08775 -0.0119,-0.19145 -0.0119,-0.3104 V 5.79548 c 0,-0.15405 -4e-5,-0.312035 0.002,-0.469985 0.002,-0.1599 0.006,-0.321655 0.01,-0.491305 0.004,-0.1677 0.01,-0.35912 0.0175,-0.57167 z m -8.55487,0.58119 v 3.05373 H 349.7443 V 8.78681 h 2.87396 v 3.055635 h 0.94187 V 8.78681 h 2.87435 V 7.897505 h -2.87435 v -3.05373 z m -9.53937,0.969285 c -0.1599,0 -0.31007,0.02145 -0.45437,0.06437 -0.14236,0.0429 -0.2864,0.109065 -0.43265,0.200715 -0.1443,0.0897 -0.29827,0.206945 -0.45817,0.347345 -0.1599,0.14235 -0.33745,0.311875 -0.53245,0.508825 l 0.4018,0.37629 c 0.117,-0.11895 0.22023,-0.22417 0.31383,-0.311925 0.0917,-0.0897 0.17946,-0.16392 0.25746,-0.22242 0.08,-0.05655 0.15598,-0.101385 0.22813,-0.130635 0.0702,-0.0273 0.14042,-0.04305 0.21062,-0.04305 0.22815,0 0.34316,0.14267 0.34316,0.42542 0,0.09945 -0.0117,0.230145 -0.0351,0.388095 -0.0234,0.1599 -0.0605,0.33921 -0.1093,0.54006 l -0.87178,3.786885 h 1.13876 l 0.64937,-2.91548 c 0.039,-0.17745 0.0997,-0.356805 0.18357,-0.538155 0.0839,-0.1794 0.17915,-0.351075 0.2864,-0.516825 0.1092,-0.1638 0.22813,-0.31959 0.35878,-0.46389 0.1287,-0.1443 0.26149,-0.27094 0.39799,-0.37819 0.13455,-0.1053 0.26916,-0.189395 0.40371,-0.249845 0.1326,-0.0585 0.25738,-0.0895 0.37438,-0.0895 0.20085,0 0.3471,0.05638 0.43875,0.16948 0.0897,0.11115 0.13635,0.286835 0.13635,0.528635 0,0.09945 -0.0134,0.226045 -0.0388,0.380095 -0.0254,0.1521 -0.0607,0.32559 -0.10359,0.52254 -0.0449,0.195 -0.0972,0.40784 -0.15767,0.63794 -0.0605,0.23205 -0.1248,0.4717 -0.195,0.72325 -0.0643,0.24765 -0.11539,0.4758 -0.14854,0.6825 -0.0312,0.2067 -0.0488,0.38825 -0.0488,0.54425 0,0.15405 0.0237,0.296295 0.0705,0.426945 0.0468,0.1287 0.11111,0.241555 0.19691,0.335155 0.0858,0.09555 0.18726,0.169725 0.30621,0.224325 0.117,0.0546 0.24578,0.08188 0.38618,0.08188 0.16575,0 0.32139,-0.0233 0.46959,-0.06817 0.14625,-0.0429 0.29471,-0.110965 0.44486,-0.202615 0.1482,-0.0897 0.30213,-0.20699 0.46008,-0.34544 0.1599,-0.13845 0.33333,-0.305875 0.52443,-0.498925 l -0.40142,-0.38429 c -0.117,0.1287 -0.22061,0.237795 -0.31421,0.329445 -0.0917,0.0897 -0.17717,0.16392 -0.25517,0.22242 -0.078,0.0585 -0.15218,0.10143 -0.22433,0.12873 -0.0702,0.0273 -0.14418,0.04075 -0.21633,0.04075 -0.1209,0 -0.20706,-0.0331 -0.26166,-0.09941 -0.0546,-0.0663 -0.0819,-0.17134 -0.0819,-0.31954 0,-0.039 0.0178,-0.13679 0.053,-0.29669 0.0351,-0.15795 0.0799,-0.3489 0.13254,-0.5751 0.0546,-0.22425 0.11318,-0.46795 0.17558,-0.733155 0.0605,-0.265195 0.11869,-0.52464 0.17329,-0.77619 0.0546,-0.25155 0.0997,-0.48366 0.13482,-0.69621 0.0331,-0.2145 0.0506,-0.38031 0.0506,-0.50121 0,-0.3978 -0.1015,-0.707805 -0.3043,-0.928155 -0.2028,-0.22035 -0.51104,-0.33135 -0.92054,-0.33135 -0.39195,0 -0.77031,0.12884 -1.13496,0.38429 -0.3666,0.25545 -0.7369,0.639585 -1.11325,1.154385 l -0.08,-0.02935 c 0.0332,-0.07605 0.0583,-0.15795 0.072,-0.24375 0.0136,-0.08385 0.0198,-0.16575 0.0198,-0.24375 0,-0.30615 -0.0782,-0.552005 -0.23421,-0.741155 -0.15795,-0.1872 -0.38029,-0.280695 -0.66499,-0.280695 z m -7.2131,0.518735 -1.99874,0.07198 -0.0952,0.409425 c 0.3471,0.0117 0.58871,0.06074 0.72326,0.15044 0.13454,0.0897 0.20071,0.24544 0.20071,0.46579 0,0.24375 -0.0604,0.63375 -0.18129,1.17 l -2.0475,9.034365 0.50729,0.12492 0.72517,-0.513015 c 0.54405,0.3432 1.16615,0.513015 1.8662,0.513015 0.7683,0 1.46429,-0.245515 2.08634,-0.738865 0.62205,-0.4914 1.10771,-1.1583 1.45871,-1.99875 0.34904,-0.84045 0.52443,-1.694625 0.52443,-2.564325 0,-0.7956 -0.15974,-1.411895 -0.4776,-1.848695 -0.3198,-0.43875 -0.76617,-0.65698 -1.33947,-0.65698 -0.4485,0 -0.89517,0.153975 -1.34367,0.458175 -0.4485,0.30615 -0.92837,0.80128 -1.43927,1.48573 l -0.1013,-0.03125 1.3905,-5.53198 z m -27.17316,0.388095 -3.69892,2.20327 0.34888,0.608615 c 0.45825,-0.3042 0.84241,-0.54399 1.15246,-0.71754 0.312,-0.17355 0.55176,-0.26165 0.71946,-0.26165 0.14235,0 0.24962,0.04875 0.32371,0.14625 0.0741,0.0975 0.11122,0.25176 0.11122,0.46236 v 6.409485 c 0,0.36855 -0.0314,0.63372 -0.0918,0.79752 -0.0605,0.1638 -0.15571,0.290775 -0.28831,0.380475 -0.13065,0.0897 -0.32169,0.155865 -0.57129,0.200715 -0.25155,0.04485 -0.66916,0.08011 -1.25416,0.107405 v 0.577 h 5.84048 v -0.577 c -0.4056,-0.0117 -0.73117,-0.0313 -0.97882,-0.06056 -0.24765,-0.02925 -0.45437,-0.07028 -0.61622,-0.126825 -0.1638,-0.0546 -0.28893,-0.130635 -0.37668,-0.228135 -0.0878,-0.0975 -0.14812,-0.2241 -0.18127,-0.3801 -0.0351,-0.15405 -0.0526,-0.386295 -0.0526,-0.690495 V 8.82185 c 0,-0.897 0.0175,-1.59691 0.0487,-2.10196 z m -67.70576,3.0225 v 0.75067 l 10.74822,14.35764 -11.07196,15.009285 v 0.781905 h 19.43183 l 0.40334,-5.793255 h -1.17 c -0.23206,1.480055 -0.507,2.43359 -0.82876,2.86064 -0.32175,0.42705 -0.78563,0.641365 -1.39013,0.641365 H 243.39694 L 253.57579,24.534965 V 23.57939 l -9.42817,-12.801825 h 12.47047 c 0.7488,0 1.30648,0.32594 1.67503,0.97919 0.3705,0.65325 0.61415,1.54053 0.73505,2.66373 h 1.04317 V 9.74239 Z m 96.26182,1.132675 c 0.34321,0 0.59085,0.13871 0.74685,0.41171 0.156,0.27495 0.23387,0.68451 0.23387,1.23246 0,0.4056 -0.0429,0.83242 -0.12683,1.27702 -0.0838,0.4446 -0.20282,0.861885 -0.35687,1.251885 -0.1521,0.39 -0.31986,0.717755 -0.50121,0.984905 -0.18135,0.2652 -0.3742,0.47947 -0.577,0.64327 -0.2028,0.1638 -0.40182,0.28095 -0.59682,0.35115 -0.195,0.07215 -0.39977,0.107405 -0.61622,0.107405 -0.4212,0 -0.72357,-0.09163 -0.90492,-0.276885 -0.18135,-0.1833 -0.2727,-0.483815 -0.2727,-0.901115 0,-0.3471 0.0409,-0.705855 0.11883,-1.074405 l 0.072,-0.331345 c 0.13065,-0.60645 0.29069,-1.10373 0.48179,-1.49373 0.18915,-0.39 0.43477,-0.77051 0.73507,-1.14296 0.3003,-0.3705 0.57163,-0.63762 0.81733,-0.79752 0.2457,-0.1599 0.49336,-0.241845 0.74686,-0.241845 z m -19.97189,1.60494 v 1.05117 h 9.73629 v -1.05117 z m -39.71601,3.511905 -1.59695,0.07046 -0.0876,0.393805 c 0.1443,0.004 0.26317,0.01375 0.36067,0.02935 0.0956,0.0156 0.17345,0.04075 0.23196,0.07388 0.0585,0.0312 0.0996,0.07604 0.12491,0.130635 0.0254,0.05265 0.0369,0.11709 0.0369,0.19119 0,0.0936 -0.01,0.198735 -0.0294,0.315735 -0.0195,0.11895 -0.0507,0.280845 -0.0975,0.485595 l -1.40574,6.238095 h 1.11554 l 0.63755,-2.9151 h 0.37248 c 0.0897,0 0.16165,0.004 0.22015,0.0118 0.0585,0.0078 0.10725,0.0252 0.14625,0.05446 0.039,0.02925 0.0702,0.07223 0.0956,0.126825 0.0254,0.05655 0.0508,0.13035 0.0781,0.22395 0.117,0.39585 0.2185,0.753035 0.3043,1.074785 0.0878,0.32175 0.183,0.594505 0.2883,0.822655 0.10335,0.2262 0.23229,0.39969 0.38049,0.52254 0.1482,0.1209 0.34505,0.18357 0.5888,0.18357 0.1365,0 0.26921,-0.0215 0.40182,-0.06246 0.13065,-0.04095 0.26707,-0.10344 0.40942,-0.19119 0.1404,-0.08775 0.29037,-0.1987 0.44637,-0.33325 0.15795,-0.1365 0.3259,-0.296495 0.50921,-0.483695 l -0.39611,-0.37629 c -0.11505,0.13065 -0.21836,0.23979 -0.31001,0.32754 -0.0916,0.08775 -0.17355,0.15611 -0.24375,0.20681 -0.0722,0.0507 -0.1365,0.08566 -0.195,0.10321 -0.0585,0.0195 -0.11493,0.02935 -0.16758,0.02935 -0.078,0 -0.1442,-0.0175 -0.1988,-0.05065 -0.0527,-0.0351 -0.10326,-0.08976 -0.15006,-0.15996 -0.0468,-0.07215 -0.0897,-0.16569 -0.13065,-0.27879 -0.041,-0.11505 -0.0842,-0.251855 -0.131,-0.409805 -0.0975,-0.29835 -0.19271,-0.60039 -0.29021,-0.90264 -0.0975,-0.3042 -0.1913,-0.604755 -0.2849,-0.899205 0.22425,-0.16965 0.44478,-0.333315 0.65928,-0.493215 0.2145,-0.15795 0.42872,-0.319845 0.64517,-0.485595 0.2145,-0.1638 0.43503,-0.335185 0.65928,-0.51264 0.22425,-0.177445 0.45817,-0.372535 0.70192,-0.581185 l -0.14436,-0.360675 h -2.09243 l -0.0682,0.37248 c 0.16185,0.0195 0.27509,0.05842 0.33554,0.11692 0.0624,0.05655 0.0937,0.132635 0.0937,0.226235 0,0.07605 -0.0353,0.1714 -0.1055,0.2845 -0.0682,0.11115 -0.16173,0.230115 -0.28068,0.356865 -0.11895,0.1248 -0.25539,0.249585 -0.40944,0.374385 -0.15405,0.1248 -0.31594,0.23613 -0.48559,0.33363 -0.1677,0.09945 -0.33727,0.17945 -0.50692,0.241845 -0.1716,0.0624 -0.32979,0.09141 -0.47799,0.09141 h -0.16185 l 1.02184,-4.518135 z m -167.74342,0.40752 c -0.33306,0 -0.7074,0.047 -1.12353,0.13863 -0.41633,0.0936 -0.87236,0.241575 -1.36805,0.448275 v 1.13115 h 0.76096 c 0.13552,-0.3705 0.32506,-0.655075 0.56901,-0.850075 0.24393,-0.195 0.54627,-0.2925 0.90644,-0.2925 0.20904,0 0.39385,0.0312 0.55453,0.0975 0.16068,0.0663 0.29309,0.158025 0.39762,0.273075 0.10452,0.117 0.18512,0.25734 0.24108,0.42504 0.0562,0.16575 0.0842,0.34687 0.0842,0.54577 0,0.19305 -0.024,0.374555 -0.0724,0.546155 -0.0483,0.16965 -0.13841,0.354775 -0.27004,0.557575 -0.13162,0.20085 -0.31189,0.42891 -0.54043,0.68631 -0.22854,0.25935 -0.52468,0.569595 -0.88855,0.934245 -0.24004,0.23985 -0.45869,0.470105 -0.65622,0.692405 -0.19753,0.22425 -0.3738,0.438765 -0.52863,0.649365 -0.15502,0.20865 -0.29417,0.415335 -0.41818,0.618135 -0.12383,0.2028 -0.23224,0.409485 -0.32526,0.618135 v 0.30202 h 4.91956 c 0.0195,-0.27495 0.0379,-0.551805 0.0552,-0.830655 0.0175,-0.27885 0.0359,-0.555705 0.0552,-0.830655 h -0.54043 c -0.0657,0.16575 -0.12375,0.296355 -0.17406,0.391905 -0.0505,0.09555 -0.11143,0.16572 -0.18319,0.21252 -0.0716,0.0468 -0.16161,0.07623 -0.27003,0.08988 -0.10842,0.01365 -0.25357,0.0194 -0.4357,0.0194 h -2.14881 c 0.10062,-0.15405 0.23031,-0.323915 0.38924,-0.511115 0.15873,-0.18525 0.3328,-0.376195 0.52253,-0.575095 0.18974,-0.19695 0.38529,-0.39596 0.58653,-0.596805 0.20143,-0.2028 0.39426,-0.395565 0.57814,-0.580815 0.18389,-0.1872 0.35324,-0.36107 0.50807,-0.52292 0.15502,-0.1638 0.28071,-0.30595 0.37743,-0.43075 0.12792,-0.14235 0.23471,-0.278865 0.31992,-0.405615 0.085,-0.1287 0.15379,-0.255295 0.20605,-0.380095 0.0523,-0.12675 0.0892,-0.25364 0.11045,-0.38429 0.0212,-0.1287 0.032,-0.26913 0.032,-0.42123 0,-0.25155 -0.0399,-0.485475 -0.11921,-0.701925 -0.0794,-0.21645 -0.20834,-0.40391 -0.38657,-0.55796 -0.17804,-0.156 -0.40942,-0.27859 -0.69393,-0.36829 -0.2845,-0.09165 -0.62831,-0.136725 -1.03098,-0.136725 z m 35.90818,0 c -0.3705,0 -0.76063,0.0487 -1.16428,0.148155 -0.4056,0.0975 -0.83477,0.24375 -1.29302,0.43875 v 1.14296 h 0.73925 c 0.12675,-0.3822 0.31015,-0.67074 0.54805,-0.86379 0.2379,-0.195 0.53412,-0.290595 0.88512,-0.290595 0.41925,0 0.73709,0.107325 0.95939,0.321825 0.22035,0.2145 0.32944,0.5089 0.32944,0.8794 0,0.228155 -0.0469,0.44433 -0.14435,0.64518 -0.0975,0.20085 -0.2437,0.376535 -0.44065,0.528635 -0.1989,0.150145 -0.44437,0.27312 -0.74077,0.36867 -0.2964,0.09555 -0.64743,0.151885 -1.05498,0.171385 v 0.55758 h 0.51073 c 0.6669,0 1.17009,0.132795 1.50744,0.397995 0.3393,0.2652 0.50883,0.6552 0.50883,1.17 0,0.4836 -0.12841,0.844505 -0.38581,1.082405 -0.2574,0.23985 -0.63576,0.35877 -1.13496,0.35877 -0.1911,0 -0.36101,-0.01965 -0.50921,-0.05866 -0.15015,-0.039 -0.28066,-0.101535 -0.39571,-0.189285 -0.1131,-0.08775 -0.21242,-0.19861 -0.29822,-0.33706 -0.0858,-0.1365 -0.15811,-0.30245 -0.22051,-0.4955 h -0.74877 v 1.25379 c 0.3315,0.117 0.68443,0.210875 1.05688,0.281075 0.3705,0.07215 0.73727,0.108925 1.09802,0.108925 0.4563,0 0.85389,-0.05457 1.19514,-0.16377 0.34125,-0.10725 0.62793,-0.25941 0.85998,-0.45246 0.23205,-0.19305 0.40553,-0.423015 0.52253,-0.688215 0.117,-0.2652 0.17368,-0.553785 0.17368,-0.861885 0,-0.2496 -0.0468,-0.475845 -0.14435,-0.680595 -0.0975,-0.20475 -0.22992,-0.38596 -0.39762,-0.54196 -0.1677,-0.15795 -0.36494,-0.28665 -0.58919,-0.39 -0.2262,-0.10335 -0.46771,-0.17753 -0.72706,-0.22433 v -0.06817 c 0.27495,-0.117 0.51837,-0.238115 0.72897,-0.364865 0.2106,-0.1248 0.39004,-0.26523 0.53434,-0.42123 0.14625,-0.15405 0.25358,-0.325345 0.32183,-0.516445 0.0702,-0.18915 0.1055,-0.40781 0.1055,-0.65546 0,-0.26325 -0.0549,-0.495025 -0.16606,-0.693925 -0.1092,-0.1989 -0.26308,-0.36671 -0.46198,-0.49931 -0.19695,-0.13455 -0.43092,-0.234195 -0.70002,-0.300495 -0.2691,-0.06435 -0.55755,-0.0975 -0.8676,-0.0975 z m -136.683187,1.01994 -1.098779,4.836155 0.671836,0.1969 1.904677,-4.5825 V 17.41937 Z M 212.3668,17.99066 c -0.15795,0 -0.31011,0.02145 -0.45246,0.06436 -0.1443,0.04095 -0.28874,0.10911 -0.43304,0.19881 -0.1443,0.09165 -0.29827,0.208845 -0.45817,0.349245 -0.16185,0.14235 -0.33939,0.30993 -0.53244,0.50883 l 0.40181,0.37629 c 0.11505,-0.11895 0.22024,-0.22413 0.31384,-0.31383 0.0916,-0.08775 0.1775,-0.161635 0.25745,-0.220135 0.08,-0.0585 0.15602,-0.101385 0.22622,-0.130635 0.0721,-0.02925 0.14233,-0.04305 0.21253,-0.04305 0.22815,0 0.34314,0.14039 0.34314,0.42314 0,0.1014 -0.0117,0.2301 -0.035,0.389995 -0.0234,0.15795 -0.0605,0.33921 -0.11122,0.54006 l -0.87179,3.786885 h 1.13915 l 0.65128,-2.9151 c 0.039,-0.1794 0.0993,-0.35875 0.18318,-0.538155 0.0819,-0.1794 0.17954,-0.353025 0.28679,-0.516825 0.1092,-0.1638 0.2278,-0.319965 0.3565,-0.464265 0.13065,-0.14625 0.26344,-0.270945 0.39799,-0.378195 0.1365,-0.1053 0.27111,-0.189015 0.40371,-0.249465 0.13455,-0.06045 0.25933,-0.08988 0.37438,-0.08988 0.2028,0 0.34905,0.05643 0.43875,0.16758 0.0916,0.1131 0.13635,0.28878 0.13635,0.52863 0,0.1014 -0.0115,0.228 -0.0369,0.3801 -0.0254,0.15405 -0.0607,0.327875 -0.10549,0.52482 -0.0448,0.195 -0.0953,0.40746 -0.15579,0.63756 -0.0605,0.2301 -0.1248,0.471705 -0.195,0.723255 -0.0663,0.24765 -0.11499,0.4758 -0.14814,0.6825 -0.0332,0.2067 -0.0488,0.38829 -0.0488,0.54234 0,0.156 0.0233,0.298245 0.0701,0.426945 0.0448,0.13065 0.11111,0.24189 0.19691,0.33744 0.0858,0.09555 0.18732,0.16973 0.30432,0.22433 0.11895,0.0546 0.24773,0.08188 0.38618,0.08188 0.1677,0 0.32368,-0.0237 0.47188,-0.06855 0.14625,-0.04485 0.29437,-0.11097 0.44257,-0.20262 0.15015,-0.09165 0.30402,-0.206605 0.46197,-0.345055 0.1599,-0.1404 0.33379,-0.30626 0.52294,-0.49931 l -0.4,-0.38428 c -0.117,0.1287 -0.22023,0.23822 -0.31383,0.32792 -0.0936,0.09165 -0.17755,0.165445 -0.25555,0.223945 -0.078,0.0585 -0.15217,0.10143 -0.22432,0.12873 -0.0722,0.02535 -0.14419,0.03925 -0.21634,0.03925 -0.1209,0 -0.20857,-0.0312 -0.26317,-0.0975 -0.0526,-0.06629 -0.08,-0.17367 -0.08,-0.31992 0,-0.039 0.0175,-0.138355 0.0526,-0.296305 0.0332,-0.15795 0.0779,-0.35123 0.13253,-0.57548 0.0546,-0.22425 0.11323,-0.46986 0.17368,-0.73506 0.0624,-0.2652 0.12098,-0.522735 0.17558,-0.774285 0.0546,-0.25155 0.0974,-0.483235 0.13252,-0.697735 0.0351,-0.21255 0.0526,-0.378405 0.0526,-0.499305 0,-0.3978 -0.10151,-0.707805 -0.30431,-0.92816 -0.20475,-0.222295 -0.51065,-0.331725 -0.92015,-0.331725 -0.39195,0 -0.77027,0.126935 -1.13687,0.382385 -0.36465,0.25545 -0.73538,0.641485 -1.11173,1.156285 l -0.0819,-0.02935 c 0.0351,-0.07605 0.0607,-0.15795 0.0724,-0.24375 0.0136,-0.0858 0.0213,-0.16575 0.0213,-0.24375 0,-0.30615 -0.0782,-0.55162 -0.23614,-0.74077 -0.156,-0.1872 -0.37795,-0.281075 -0.6646,-0.281075 z m -139.39757,0.51873 -1.99951,0.07046 -0.09483,0.411325 c 0.34788,0.0117 0.588895,0.06036 0.72325,0.15006 0.134355,0.0897 0.201475,0.245825 0.201475,0.466175 0,0.24375 -0.06058,0.6318 -0.18167,1.17 l -2.04712,9.03246 0.50578,0.126445 0.72706,-0.51264 c 0.54249,0.34125 1.164435,0.51264 1.86507,0.51264 0.769275,0 1.46469,-0.24552 2.08635,-0.73887 0.62166,-0.4914 1.107895,-1.1583 1.45831,-1.99875 0.35022,-0.84045 0.525585,-1.694625 0.525585,-2.564325 0,-0.7956 -0.15973,-1.411845 -0.47836,-1.850595 -0.318825,-0.4368 -0.765205,-0.65508 -1.33948,-0.65508 -0.44772,0 -0.89557,0.152025 -1.34329,0.458175 -0.447915,0.30615 -0.92761,0.801665 -1.43851,1.486115 l -0.10283,-0.03125 1.390895,-5.532365 z m 28.28262,0 -1.999515,0.07046 -0.09484,0.411325 c 0.347685,0.0117 0.588895,0.06036 0.723255,0.15006 0.13435,0.0897 0.20147,0.245825 0.20147,0.466175 0,0.24375 -0.0604,0.6318 -0.18167,1.17 l -2.046735,9.03246 0.50578,0.126445 0.72668,-0.51264 c 0.542685,0.34125 1.164625,0.51264 1.865455,0.51264 0.76908,0 1.46469,-0.24552 2.08634,-0.73887 0.62166,-0.4914 1.10752,-1.1583 1.45793,-1.99875 0.35042,-0.84045 0.52559,-1.694625 0.52559,-2.564325 0,-0.7956 -0.15954,-1.411845 -0.47836,-1.850595 -0.31863,-0.4368 -0.7652,-0.65508 -1.33948,-0.65508 -0.44791,0 -0.89538,0.152025 -1.34329,0.458175 -0.44772,0.30615 -0.92741,0.801665 -1.43851,1.486115 l -0.10283,-0.03125 1.3909,-5.532365 z m 35.91884,0 -1.99875,0.07046 -0.0937,0.411325 c 0.3471,0.0117 0.58718,0.06036 0.72173,0.15006 0.13455,0.0897 0.20262,0.245825 0.20262,0.466175 0,0.24375 -0.0603,0.6318 -0.1832,1.17 l -2.04559,9.03246 0.50502,0.126445 0.72744,-0.51264 c 0.5421,0.34125 1.16425,0.51264 1.8643,0.51264 0.77025,0 1.46625,-0.24552 2.08635,-0.73887 0.62205,-0.4914 1.10769,-1.1583 1.45869,-1.99875 0.351,-0.84045 0.52635,-1.694625 0.52635,-2.564325 0,-0.7956 -0.1597,-1.411845 -0.4795,-1.850595 -0.31785,-0.4368 -0.76461,-0.65508 -1.33986,-0.65508 -0.44655,0 -0.89484,0.152025 -1.34139,0.458175 -0.4485,0.30615 -0.92837,0.801665 -1.43927,1.486115 l -0.10321,-0.03125 1.39204,-5.532365 z m 67.98493,0 -2.00066,0.07046 -0.0937,0.411325 c 0.3471,0.0117 0.58876,0.06036 0.72136,0.15006 0.13455,0.0897 0.203,0.245825 0.203,0.466175 0,0.24375 -0.0604,0.6318 -0.18129,1.17 l -2.0475,9.03246 0.50501,0.126445 0.72705,-0.51264 c 0.5421,0.34125 1.16423,0.51264 1.86623,0.51264 0.7683,0 1.46467,-0.24552 2.08672,-0.73887 0.6201,-0.4914 1.10736,-1.1583 1.45641,-1.99875 0.351,-0.84045 0.52672,-1.694625 0.52672,-2.564325 0,-0.7956 -0.16012,-1.411845 -0.47797,-1.850595 -0.3198,-0.4368 -0.76619,-0.65508 -1.33949,-0.65508 -0.4485,0 -0.89712,0.152025 -1.34367,0.458175 -0.4485,0.30615 -0.92798,0.801665 -1.43888,1.486115 l -0.10359,-0.03125 1.39242,-5.532365 z m 64.1706,0 -1.99875,0.07046 -0.0956,0.411325 c 0.3471,0.0117 0.5887,0.06036 0.72325,0.15006 0.13455,0.0897 0.20109,0.245825 0.20109,0.466175 0,0.24375 -0.0604,0.6318 -0.18127,1.17 l -2.0475,9.03246 0.50692,0.126445 0.72514,-0.51264 c 0.54405,0.34125 1.16616,0.51264 1.86621,0.51264 0.7683,0 1.46469,-0.24552 2.08674,-0.73887 0.62205,-0.4914 1.1073,-1.1583 1.4583,-1.99875 0.34905,-0.84045 0.52483,-1.694625 0.52483,-2.564325 0,-0.7956 -0.16012,-1.411845 -0.47797,-1.850595 -0.3198,-0.4368 -0.76619,-0.65508 -1.33949,-0.65508 -0.4485,0 -0.89517,0.152025 -1.34367,0.458175 -0.4485,0.30615 -0.92798,0.801665 -1.43888,1.486115 l -0.1017,-0.03125 1.39053,-5.532365 z m -223.530166,0.38619 -3.698524,2.205555 0.347724,0.608235 c 0.45825,-0.3042 0.842792,-0.543945 1.153624,-0.719445 0.310828,-0.17355 0.550768,-0.259365 0.719443,-0.259365 0.142155,0 0.250019,0.04875 0.323729,0.14625 0.07391,0.0975 0.11083,0.251385 0.11083,0.461985 v 6.409865 c 0,0.36855 -0.03038,0.633715 -0.09102,0.797515 -0.06065,0.1638 -0.156686,0.288495 -0.288311,0.378195 -0.13182,0.0897 -0.322813,0.15815 -0.573193,0.203 -0.250185,0.04485 -0.667462,0.07977 -1.252267,0.105115 v 0.577385 h 5.840098 v -0.577385 c -0.4056,-0.0098 -0.732301,-0.0294 -0.979951,-0.05865 -0.24765,-0.02925 -0.453396,-0.0699 -0.616611,-0.12645 -0.16341,-0.0546 -0.288177,-0.13063 -0.375147,-0.22813 -0.08697,-0.0975 -0.147545,-0.22448 -0.18167,-0.38048 -0.03432,-0.156 -0.0518,-0.385915 -0.0518,-0.690115 v -6.751115 c 0,-0.89505 0.01601,-1.594965 0.0476,-2.101965 z m 12.891711,1.210755 v 4.55165 h -4.30714 v 1.05079 h 4.30714 v 4.55127 h 1.12201 v -4.55127 h 4.30714 v -1.05079 h -4.30714 v -4.55165 z m 28.282615,0 v 4.55165 h -4.306755 v 1.05079 h 4.306755 v 4.55127 h 1.122395 v -4.55127 h 4.306755 v -1.05079 h -4.306755 v -4.55165 z m 35.91999,0 v 4.55165 h -4.30714 v 1.05079 h 4.30714 v 4.55127 h 1.12201 v -4.55127 h 4.30714 v -1.05079 h -4.30714 v -4.55165 z m 35.91961,0 v 4.55165 h -4.30752 v 1.05079 h 4.30752 v 4.55127 h 1.12315 v -4.55127 h 4.30562 v -1.05079 h -4.30562 v -4.55165 z m 32.06378,0 v 4.55165 h -4.30751 v 1.05079 h 4.30751 v 4.55127 h 1.12125 v -4.55127 h 4.30753 v -1.05079 h -4.30753 v -4.55165 z M 4.0146385,22.128695 c -0.5532149,0 -1.037796,0.08401 -1.454121,0.253655 -0.41613,0.1677 -0.7362865,0.4093 -0.9601464,0.72325 -0.22386,0.312 -0.3355371,0.67653 -0.3355371,1.09383 0,0.30615 0.057842,0.575325 0.1736719,0.809325 0.116025,0.23595 0.2884629,0.452325 0.5175878,0.653175 0.229125,0.1989 0.5492815,0.423425 0.9601465,0.671075 0.389805,0.2379 0.6743008,0.434665 0.8535058,0.592615 0.17901,0.15795 0.308164,0.323565 0.387334,0.493215 0.078975,0.1716 0.1184473,0.37647 0.1184473,0.61242 0,0.41145 -0.140784,0.72942 -0.422754,0.95367 -0.281775,0.22425 -0.6728627,0.33516 -1.1734277,0.33516 -0.574275,0 -0.993391,-0.128365 -1.256836,-0.387715 C 1.1590648,28.67497 1.0170073,28.292555 0.9959471,27.787505 H 0.37971668 L 0,29.50937 c 0.51636,0.15795 0.9854994,0.27114 1.4068944,0.33744 0.42159,0.06435 0.8508765,0.0975 1.2880665,0.0975 0.54795,0 1.0365377,-0.0819 1.4659276,-0.24375 0.42939,-0.1638 0.7693756,-0.413415 1.0195605,-0.746865 0.250185,-0.3354 0.3755275,-0.737035 0.3755275,-1.205035 0,-0.25935 -0.02657,-0.479825 -0.079219,-0.661175 C 5.4241075,26.906135 5.339697,26.73251 5.223867,26.57066 5.108037,26.40686 4.9499623,26.24129 4.7496971,26.07554 4.5496273,25.90979 4.2833058,25.726385 3.9514159,25.527485 3.5300209,25.273985 3.2191423,25.06162 3.0190721,24.88612 2.8188073,24.71257 2.6858414,24.55439 2.6199316,24.40814 c -0.06591,-0.1443 -0.098643,-0.31206 -0.098643,-0.50121 0,-0.3471 0.1289681,-0.62758 0.3869531,-0.84208 0.25818,-0.21255 0.5956184,-0.319925 1.0119434,-0.319925 0.5374199,0 0.9310457,0.120735 1.181426,0.364485 0.250185,0.2418 0.404253,0.596835 0.462363,1.066785 h 0.639844 L 6.559541,22.51679 C 6.159206,22.37444 5.757567,22.272845 5.354502,22.216295 c -0.4030651,-0.0585 -0.8498285,-0.0876 -1.3398635,-0.0876 z M 25.334004,23.02181 v 1.051175 h 9.735908 V 23.02181 Z m 199.029116,0 v 1.051175 h 9.73629 V 23.02181 Z m 63.86821,0 v 1.051175 h 9.73438 V 23.02181 Z m -213.8792,0.03125 c 0.342615,0 0.59145,0.13638 0.746865,0.41133 0.155415,0.273 0.233085,0.68451 0.233085,1.23246 0,0.4056 -0.042,0.830855 -0.126445,1.277405 -0.08424,0.4446 -0.20304,0.861885 -0.355725,1.251885 -0.15288,0.39 -0.31985,0.71737 -0.50159,0.98452 -0.18174,0.2652 -0.3742,0.47985 -0.577,0.64365 -0.202995,0.1638 -0.402005,0.280575 -0.59681,0.350775 -0.195,0.07215 -0.400365,0.1074 -0.61623,0.1074 -0.42159,0 -0.72318,-0.09163 -0.90492,-0.276885 -0.18174,-0.1833 -0.272695,-0.48343 -0.272695,-0.90073 0,-0.3471 0.03945,-0.706235 0.118445,-1.074785 l 0.07122,-0.33135 c 0.131625,-0.60645 0.292435,-1.10373 0.48217,-1.49373 0.189735,-0.39 0.43476,-0.770125 0.73506,-1.142575 0.3003,-0.3705 0.57259,-0.63762 0.817705,-0.797525 0.24492,-0.161845 0.49395,-0.241845 0.746865,-0.241845 z m 28.28261,0 c 0.34242,0 0.59145,0.13638 0.74687,0.41133 0.15541,0.273 0.23308,0.68451 0.23308,1.23246 0,0.4056 -0.0422,0.830855 -0.12644,1.277405 -0.0842,0.4446 -0.20284,0.861885 -0.35572,1.251885 -0.15269,0.39 -0.31985,0.71737 -0.5016,0.98452 -0.18174,0.2652 -0.3742,0.47985 -0.577,0.64365 -0.2028,0.1638 -0.4018,0.280575 -0.5968,0.350775 -0.19481,0.07215 -0.40017,0.1074 -0.61623,0.1074 -0.4214,0 -0.72319,-0.09163 -0.904925,-0.276885 -0.18174,-0.1833 -0.272695,-0.48343 -0.272695,-0.90073 0,-0.3471 0.03965,-0.706235 0.11883,-1.074785 l 0.07084,-0.33135 c 0.13182,-0.60645 0.29262,-1.10373 0.48216,-1.49373 0.18974,-0.39 0.43438,-0.770125 0.73468,-1.142575 0.3005,-0.3705 0.57317,-0.63762 0.81809,-0.797525 0.24492,-0.161845 0.49395,-0.241845 0.74686,-0.241845 z m 35.92037,0 c 0.34125,0 0.59087,0.13638 0.74687,0.41133 0.15405,0.273 0.23232,0.68451 0.23232,1.23246 0,0.4056 -0.041,0.830855 -0.12682,1.277405 -0.0838,0.4446 -0.20286,0.861885 -0.35496,1.251885 -0.1521,0.39 -0.31986,0.71737 -0.50121,0.98452 -0.1833,0.2652 -0.37421,0.47985 -0.57701,0.64365 -0.2028,0.1638 -0.4018,0.280575 -0.5968,0.350775 -0.195,0.07215 -0.39978,0.1074 -0.61623,0.1074 -0.4212,0 -0.72357,-0.09163 -0.90492,-0.276885 -0.1833,-0.1833 -0.27308,-0.48343 -0.27308,-0.90073 0,-0.3471 0.0393,-0.706235 0.11921,-1.074785 l 0.0701,-0.33135 c 0.1326,-0.60645 0.29263,-1.10373 0.48178,-1.49373 0.1911,-0.39 0.43476,-0.770125 0.73506,-1.142575 0.3003,-0.3705 0.57315,-0.63762 0.81885,-0.797525 0.24375,-0.161845 0.49336,-0.241845 0.74686,-0.241845 z m 67.98302,0 c 0.34125,0 0.59087,0.13638 0.74687,0.41133 0.156,0.273 0.23193,0.68451 0.23193,1.23246 0,0.4056 -0.0411,0.830855 -0.12492,1.277405 -0.0858,0.4446 -0.20282,0.861885 -0.35687,1.251885 -0.1521,0.39 -0.31946,0.71737 -0.50081,0.98452 -0.18135,0.2652 -0.3746,0.47985 -0.5774,0.64365 -0.2028,0.1638 -0.4018,0.280575 -0.5968,0.350775 -0.195,0.07215 -0.39979,0.1074 -0.61624,0.1074 -0.4212,0 -0.72317,-0.09163 -0.90452,-0.276885 -0.18135,-0.1833 -0.27308,-0.48343 -0.27308,-0.90073 0,-0.3471 0.0389,-0.706235 0.11883,-1.074785 l 0.0705,-0.33135 c 0.1326,-0.60645 0.29224,-1.10373 0.48139,-1.49373 0.1911,-0.39 0.43477,-0.770125 0.73507,-1.142575 0.3003,-0.3705 0.57352,-0.63762 0.81922,-0.797525 0.24375,-0.161845 0.49337,-0.241845 0.74687,-0.241845 z m 64.17062,0 c 0.3432,0 0.59087,0.13638 0.74687,0.41133 0.156,0.273 0.23384,0.68451 0.23384,1.23246 0,0.4056 -0.043,0.830855 -0.12683,1.277405 -0.0839,0.4446 -0.20282,0.861885 -0.35687,1.251885 -0.1521,0.39 -0.31946,0.71737 -0.50081,0.98452 -0.18136,0.2652 -0.3746,0.47985 -0.5774,0.64365 -0.2028,0.1638 -0.4018,0.280575 -0.5968,0.350775 -0.195,0.07215 -0.39979,0.1074 -0.61624,0.1074 -0.4212,0 -0.72319,-0.09163 -0.90454,-0.276885 -0.18135,-0.1833 -0.27306,-0.48343 -0.27306,-0.90073 0,-0.3471 0.0408,-0.706235 0.11881,-1.074785 l 0.0724,-0.33135 c 0.13065,-0.60645 0.29226,-1.10373 0.48141,-1.49373 0.18915,-0.39 0.43515,-0.770125 0.73545,-1.142575 0.3003,-0.3705 0.57318,-0.63762 0.81693,-0.797525 0.2457,-0.161845 0.49337,-0.241845 0.74687,-0.241845 z m -99.60006,1.11516 c -0.27495,0 -0.50334,0.09564 -0.68859,0.28869 -0.1833,0.1911 -0.27689,0.434895 -0.27689,0.729345 0,0.2964 0.0936,0.54015 0.27689,0.73125 0.18525,0.19305 0.41364,0.28869 0.68859,0.28869 0.273,0 0.50301,-0.09564 0.68631,-0.28869 0.18525,-0.1911 0.27688,-0.43485 0.27688,-0.73125 0,-0.29445 -0.0916,-0.538245 -0.27688,-0.729345 -0.1833,-0.19305 -0.41331,-0.28869 -0.68631,-0.28869 z m 4.78892,0 c -0.27495,0 -0.50296,0.09564 -0.68821,0.28869 -0.18525,0.1911 -0.27688,0.434895 -0.27688,0.729345 0,0.2964 0.0916,0.54015 0.27688,0.73125 0.18525,0.19305 0.41326,0.28869 0.68821,0.28869 0.273,0 0.50339,-0.09564 0.68669,-0.28869 0.18525,-0.1911 0.27689,-0.43485 0.27689,-0.73125 0,-0.29445 -0.0916,-0.538245 -0.27689,-0.729345 -0.1833,-0.19305 -0.41369,-0.28869 -0.68669,-0.28869 z m 4.78931,0 c -0.27495,0 -0.50296,0.09564 -0.68821,0.28869 -0.18525,0.1911 -0.27689,0.434895 -0.27689,0.729345 0,0.2964 0.0916,0.54015 0.27689,0.73125 0.18525,0.19305 0.41326,0.28869 0.68821,0.28869 0.273,0 0.50301,-0.09564 0.68631,-0.28869 0.18525,-0.1911 0.27688,-0.43485 0.27688,-0.73125 0,-0.29445 -0.0916,-0.538245 -0.27688,-0.729345 -0.1833,-0.19305 -0.41331,-0.28869 -0.68631,-0.28869 z m 122.92197,0.57167 v 0.975 h 61.23 v -0.975 z M 25.334004,26.301795 v 1.05079 h 9.735908 v -1.05079 z m 199.029116,0 v 1.05079 h 9.73629 v -1.05079 z m 63.86821,0 v 1.05079 h 9.73438 v -1.05079 z M 13.338076,27.16556 c -0.15873,0 -0.309898,0.0215 -0.453223,0.06247 -0.143325,0.0429 -0.28738,0.10906 -0.432656,0.20071 -0.145275,0.09165 -0.298255,0.2069 -0.458936,0.34925 -0.160679,0.1404 -0.337858,0.309975 -0.531298,0.506925 l 0.400664,0.37819 c 0.116025,-0.11895 0.221008,-0.224125 0.313828,-0.313825 0.09301,-0.08775 0.179044,-0.16202 0.258604,-0.22052 0.07936,-0.0585 0.154665,-0.101385 0.22623,-0.130635 0.07157,-0.02925 0.142524,-0.04305 0.212139,-0.04305 0.22854,0 0.342773,0.140765 0.342773,0.423515 0,0.1014 -0.01183,0.2301 -0.03504,0.39 -0.0232,0.15795 -0.06014,0.33726 -0.110448,0.54006 l -0.871026,3.78688 h 1.138388 l 0.650508,-2.91738 c 0.0388,-0.17745 0.09955,-0.35685 0.182813,-0.53625 0.08327,-0.1794 0.179129,-0.353025 0.287549,-0.516825 0.10842,-0.16575 0.227571,-0.31959 0.357246,-0.46389 0.12987,-0.14625 0.262474,-0.27094 0.397999,-0.37819 0.135523,-0.10725 0.269753,-0.189395 0.403328,-0.249845 0.133575,-0.06045 0.258547,-0.0895 0.374767,-0.0895 0.201239,0 0.347304,0.05643 0.438369,0.167575 0.09087,0.1131 0.136728,0.288785 0.136728,0.528635 0,0.1014 -0.01256,0.227995 -0.0377,0.380095 -0.02516,0.15405 -0.06028,0.32754 -0.104737,0.52254 -0.04446,0.19695 -0.09705,0.409745 -0.156914,0.639845 -0.06006,0.2301 -0.125006,0.4717 -0.194621,0.72325 -0.06591,0.24765 -0.115197,0.4758 -0.148152,0.6825 -0.03276,0.2067 -0.04913,0.387915 -0.04913,0.541965 0,0.156 0.02309,0.298625 0.0697,0.42732 0.04641,0.130655 0.11207,0.241515 0.197285,0.337065 0.08522,0.09555 0.186898,0.169725 0.305068,0.224325 0.11817,0.05265 0.246766,0.07998 0.386191,0.07998 0.16653,0 0.323332,-0.0214 0.470362,-0.06627 0.147225,-0.04485 0.295286,-0.112915 0.444463,-0.202615 0.148978,-0.09165 0.30287,-0.20699 0.4616,-0.34544 0.15873,-0.1404 0.333185,-0.30583 0.52292,-0.50083 l -0.401045,-0.382385 c -0.116025,0.12675 -0.220432,0.23589 -0.313447,0.32754 -0.09301,0.09165 -0.177947,0.165825 -0.255557,0.224325 -0.07741,0.0585 -0.151999,0.09953 -0.223564,0.12683 -0.07176,0.0273 -0.144337,0.04075 -0.217852,0.04075 -0.12012,0 -0.207058,-0.03315 -0.261268,-0.0975 -0.05421,-0.0663 -0.0815,-0.17329 -0.0815,-0.31954 0,-0.039 0.01747,-0.13874 0.05218,-0.29669 0.0349,-0.1599 0.07985,-0.35085 0.134062,-0.5751 0.05421,-0.22425 0.112043,-0.469855 0.174053,-0.735055 0.06201,-0.2652 0.120224,-0.52274 0.174434,-0.77429 0.05421,-0.2535 0.0984,-0.485565 0.1333,-0.698115 0.03471,-0.21255 0.05256,-0.380355 0.05256,-0.499305 0,-0.39975 -0.101683,-0.70776 -0.305068,-0.93006 -0.20319,-0.22035 -0.510061,-0.329445 -0.920536,-0.329445 -0.390975,0 -0.769708,0.126555 -1.135723,0.382005 -0.36582,0.25545 -0.736541,0.64187 -1.112111,1.15667 l -0.0815,-0.02935 c 0.03491,-0.078 0.0591,-0.15795 0.07274,-0.24375 0.01346,-0.0858 0.02057,-0.16575 0.02057,-0.24375 0,-0.30615 -0.07859,-0.553955 -0.235371,-0.741155 -0.156975,-0.1872 -0.378331,-0.280695 -0.664981,-0.280695 z m 334.491264,2.10387 -2.00065,0.07236 -0.0937,0.409425 c 0.3471,0.0117 0.58874,0.06231 0.72134,0.15006 0.13455,0.0897 0.203,0.245775 0.203,0.468075 0,0.2418 -0.0604,0.631845 -0.1813,1.168095 l -2.04749,9.034365 0.50503,0.124925 0.72705,-0.51302 c 0.5421,0.3432 1.16421,0.51302 1.86621,0.51302 0.7683,0 1.46469,-0.245945 2.08674,-0.737345 0.6201,-0.49335 1.10734,-1.160205 1.45639,-2.000655 0.351,-0.84045 0.52674,-1.694625 0.52674,-2.564325 0,-0.7956 -0.16014,-1.41151 -0.47799,-1.84831 -0.3198,-0.4368 -0.76617,-0.657365 -1.33947,-0.657365 -0.4485,0 -0.89712,0.153975 -1.34367,0.458175 -0.4485,0.30615 -0.92798,0.801665 -1.43888,1.486115 l -0.10361,-0.03125 1.39242,-5.53236 z m -27.17355,0.388095 -3.69891,2.205555 0.34697,0.608235 c 0.45825,-0.30615 0.84433,-0.545895 1.15438,-0.719445 0.31005,-0.17355 0.55016,-0.26127 0.71982,-0.26127 0.14235,0 0.24925,0.04875 0.32335,0.14625 0.0741,0.0975 0.11123,0.251385 0.11123,0.461985 v 6.40986 c 0,0.36855 -0.031,0.63372 -0.0914,0.79752 -0.0605,0.1638 -0.1561,0.2904 -0.2887,0.3801 -0.13065,0.0897 -0.32163,0.156245 -0.57318,0.201095 -0.2496,0.04485 -0.66688,0.07972 -1.25188,0.10702 v 0.57738 h 5.84009 v -0.57738 c -0.4056,-0.0117 -0.73306,-0.0309 -0.98071,-0.06018 -0.24765,-0.0273 -0.45244,-0.07032 -0.61624,-0.124925 -0.16185,-0.05655 -0.28858,-0.13254 -0.37438,-0.23004 -0.0877,-0.0975 -0.14851,-0.224475 -0.18166,-0.380475 -0.0351,-0.15405 -0.0526,-0.38397 -0.0526,-0.69012 v -6.748825 c 0,-0.89505 0.0156,-1.597295 0.0487,-2.102345 z m 28.55608,4.15746 c 0.34125,0 0.59085,0.136425 0.74685,0.409425 0.156,0.27495 0.23195,0.686415 0.23195,1.234365 0,0.4056 -0.041,0.8309 -0.12491,1.2755 -0.0858,0.4446 -0.20282,0.861885 -0.35688,1.251885 -0.1521,0.39 -0.31948,0.71932 -0.50083,0.98452 -0.18135,0.2652 -0.37458,0.47985 -0.57738,0.64365 -0.2028,0.1638 -0.40179,0.28091 -0.59679,0.353055 -0.195,0.07021 -0.39979,0.10512 -0.61624,0.10512 -0.4212,0 -0.7232,-0.09163 -0.90455,-0.276885 -0.18135,-0.1833 -0.27308,-0.48343 -0.27308,-0.900735 0,-0.347095 0.0389,-0.70585 0.11884,-1.0744 l 0.0704,-0.33173 c 0.1326,-0.60645 0.29223,-1.10373 0.48333,-1.49373 0.18915,-0.39 0.43284,-0.77013 0.73314,-1.14258 0.3003,-0.3705 0.57353,-0.63567 0.81923,-0.79752 0.2457,-0.1599 0.49337,-0.23994 0.74687,-0.23994 z m -19.9719,1.60304 v 1.05079 h 9.73629 v -1.05079 z m -86.38309,6.97125 -1.59693,0.07007 -0.088,0.39381 c 0.14235,0.004 0.26317,0.0137 0.36067,0.02935 0.0956,0.0156 0.17382,0.04115 0.23232,0.07236 0.0585,0.03315 0.0992,0.07794 0.12455,0.132535 0.0254,0.05265 0.0373,0.116715 0.0373,0.190815 0,0.09165 -0.01,0.19911 -0.0293,0.31611 -0.0195,0.11895 -0.0526,0.28085 -0.0975,0.4856 l -1.40613,6.23809 h 1.11554 l 0.63755,-2.915475 h 0.37247 c 0.0897,0 0.16203,0.004 0.22053,0.0099 0.0585,0.0078 0.10725,0.0271 0.14625,0.05637 0.037,0.02925 0.0702,0.07223 0.0956,0.126825 0.0254,0.05655 0.0504,0.130725 0.0777,0.224325 0.117,0.39585 0.2185,0.752655 0.3043,1.074405 0.0877,0.32175 0.1834,0.594935 0.2887,0.82113 0.10335,0.22815 0.22994,0.40159 0.38009,0.52444 0.1482,0.1209 0.34505,0.18129 0.5888,0.18129 0.1365,0 0.26922,-0.0196 0.40182,-0.0606 0.13065,-0.0409 0.26707,-0.10501 0.40942,-0.19081 0.1404,-0.0877 0.29075,-0.19909 0.44675,-0.33364 0.156,-0.1365 0.32553,-0.296485 0.50883,-0.483685 L 245.9925,48.9762 c -0.11505,0.13065 -0.22033,0.23979 -0.31003,0.32754 -0.0917,0.08775 -0.17355,0.156105 -0.24375,0.206805 -0.0721,0.0507 -0.1365,0.08371 -0.195,0.10321 -0.0585,0.0195 -0.11531,0.0294 -0.16796,0.0294 -0.078,0 -0.1442,-0.0175 -0.1988,-0.0526 -0.0546,-0.03315 -0.10325,-0.08785 -0.15005,-0.15805 -0.0468,-0.07215 -0.0897,-0.16569 -0.13065,-0.27879 -0.0409,-0.11505 -0.0838,-0.251475 -0.13063,-0.409425 -0.0975,-0.29835 -0.19504,-0.60072 -0.29059,-0.90492 -0.0975,-0.30225 -0.1913,-0.602475 -0.2849,-0.896925 0.22425,-0.16965 0.44477,-0.33526 0.65928,-0.49321 0.2145,-0.15795 0.4291,-0.31985 0.64554,-0.4856 0.2145,-0.163795 0.43271,-0.335565 0.65891,-0.513015 0.22425,-0.1794 0.45817,-0.37254 0.70192,-0.58119 l -0.14397,-0.360675 h -2.09245 l -0.0682,0.37248 c 0.16185,0.0195 0.27472,0.05847 0.33517,0.11502 0.0624,0.0585 0.0937,0.134535 0.0937,0.228135 0,0.07605 -0.0349,0.17178 -0.10511,0.28488 -0.0683,0.11115 -0.16407,0.230115 -0.28107,0.356865 -0.11895,0.124805 -0.25539,0.249585 -0.40944,0.374385 -0.156,0.12285 -0.31594,0.233805 -0.48559,0.333255 -0.1677,0.09945 -0.33728,0.179445 -0.50693,0.241845 -0.1716,0.06045 -0.32939,0.09179 -0.47759,0.09179 h -0.16186 l 1.02183,-4.518135 z m 16.31563,0.407515 c -0.38415,0 -0.73513,0.07785 -1.05688,0.23385 -0.32175,0.15795 -0.60083,0.395835 -0.83483,0.715635 -0.234,0.31785 -0.41514,0.71949 -0.54579,1.20504 -0.1287,0.4836 -0.19309,1.057005 -0.19309,1.718055 0,1.2675 0.20883,2.2115 0.62613,2.8355 0.41925,0.622045 1.05655,0.933865 1.9165,0.933865 0.86775,0 1.52907,-0.32957 1.98732,-0.990615 0.4563,-0.6591 0.68439,-1.634145 0.68439,-2.923095 0,-0.5811 -0.0488,-1.101705 -0.14434,-1.561905 -0.0975,-0.46215 -0.24956,-0.852105 -0.45626,-1.171905 -0.2067,-0.31785 -0.47373,-0.56536 -0.80133,-0.73696 -0.3276,-0.1716 -0.72162,-0.257465 -1.18182,-0.257465 z m -0.0236,0.56139 c 0.22815,0 0.43123,0.06659 0.60673,0.19919 0.1755,0.13065 0.32175,0.33514 0.43875,0.61204 0.117,0.2769 0.20642,0.630125 0.27077,1.061075 0.0624,0.429 0.0956,0.94159 0.0956,1.53829 0,0.5304 -0.0291,0.99066 -0.0876,1.37871 -0.0585,0.39 -0.14432,0.7116 -0.25937,0.9651 -0.1131,0.2535 -0.2576,0.44091 -0.43115,0.55986 -0.1755,0.1209 -0.37808,0.17938 -0.61013,0.17938 -0.24765,0 -0.46202,-0.0625 -0.63946,-0.19119 -0.17746,-0.126745 -0.32589,-0.327655 -0.44484,-0.598705 -0.117,-0.27105 -0.20473,-0.615925 -0.26128,-1.035175 -0.0566,-0.4212 -0.0838,-0.918435 -0.0838,-1.495635 0,-0.4992 0.0214,-0.945965 0.0663,-1.339865 0.0448,-0.39195 0.12094,-0.72523 0.22624,-0.99823 0.10725,-0.273 0.25169,-0.479975 0.43304,-0.622325 0.1833,-0.1404 0.40914,-0.21252 0.68019,-0.21252 z m -10.95313,1.854405 v 0.8874 h 6.69057 v -0.8874 z m 0,2.525475 v 0.88931 h 6.69057 v -0.88931 z"
   id="path2"
   inkscape:connector-curvature="0"
   style="stroke-width:0.19499999" />



































</svg>