<?xml version="1.0" encoding="UTF-8" standalone="no"?>
<svg
   xmlns:dc="http://purl.org/dc/elements/1.1/"
   xmlns:cc="http://creativecommons.org/ns#"
   xmlns:rdf="http://www.w3.org/1999/02/22-rdf-syntax-ns#"
   xmlns:svg="http://www.w3.org/2000/svg"
   xmlns="http://www.w3.org/2000/svg"
   xmlns:sodipodi="http://sodipodi.sourceforge.net/DTD/sodipodi-0.dtd"
   xmlns:inkscape="http://www.inkscape.org/namespaces/inkscape"
   width="324.1658"
   height="36.435341"
   xml:space="preserve"
   overflow="hidden"
   version="1.1"
   id="svg144"
   sodipodi:docname="10-series-closed-b.svg"
   style="overflow:hidden"
   inkscape:version="0.92.4 (5da689c313, 2019-01-14)"><metadata
   id="metadata150"><rdf:RDF><cc:Work
       rdf:about=""><dc:format>image/svg+xml</dc:format><dc:type
         rdf:resource="http://purl.org/dc/dcmitype/StillImage" /><dc:title></dc:title></cc:Work></rdf:RDF></metadata><defs
   id="defs148" /><sodipodi:namedview
   pagecolor="#ffffff"
   bordercolor="#666666"
   borderopacity="1"
   objecttolerance="10"
   gridtolerance="10"
   guidetolerance="10"
   inkscape:pageopacity="0"
   inkscape:pageshadow="2"
   inkscape:window-width="1460"
   inkscape:window-height="1109"
   id="namedview146"
   showgrid="false"
   inkscape:zoom="1"
   inkscape:cx="-4.4602304"
   inkscape:cy="366.51513"
   inkscape:window-x="0"
   inkscape:window-y="0"
   inkscape:window-maximized="0"
   inkscape:current-layer="svg144"
   fit-margin-top="0"
   fit-margin-left="0"
   fit-margin-right="0"
   fit-margin-bottom="0" /><path
   d="m 209.66764,5e-6 c -0.4836,0.259545 -0.96131,0.519845 -1.43126,0.781145 -0.46995,0.261495 -0.94547,0.523985 -1.42517,0.787235 0.0468,0.09302 0.0896,0.183775 0.13254,0.272695 0.0429,0.08911 0.0894,0.178445 0.14014,0.267365 0.3744,-0.243945 0.68079,-0.42804 0.91674,-0.551865 0.23595,-0.12402 0.41539,-0.18586 0.53434,-0.18586 0.1092,0 0.19291,0.0309 0.24946,0.09293 0.0585,0.06201 0.0876,0.16861 0.0876,0.31954 v 4.164315 c 0,0.131625 -0.006,0.242235 -0.0195,0.33135 -0.0137,0.08911 -0.0329,0.16422 -0.0564,0.22623 -0.0234,0.06181 -0.0528,0.113305 -0.0918,0.153865 -0.039,0.04075 -0.0856,0.07859 -0.14016,0.1135 -0.0507,0.031 -0.10922,0.0572 -0.17747,0.07845 -0.0663,0.02125 -0.15813,0.04035 -0.26928,0.05789 -0.1131,0.01735 -0.24761,0.0312 -0.40751,0.04075 -0.15795,0.0097 -0.35114,0.0183 -0.57929,0.0259 v 0.50578 h 4.60612 V 6.97544 c -0.2379,-0.004 -0.43897,-0.01045 -0.60862,-0.0202 -0.1677,-0.0097 -0.31176,-0.023 -0.43266,-0.04035 -0.11895,-0.01755 -0.21869,-0.03885 -0.29669,-0.06399 -0.0761,-0.02515 -0.1383,-0.06099 -0.1851,-0.1074 -0.039,-0.031 -0.072,-0.06794 -0.1013,-0.11045 -0.0292,-0.0425 -0.0529,-0.09401 -0.0704,-0.15387 -0.0175,-0.06006 -0.0291,-0.13373 -0.0369,-0.220895 -0.008,-0.08716 -0.0119,-0.190665 -0.0119,-0.310785 V 1.53372 c 0,-0.155025 0,-0.31201 0.002,-0.47074 0.002,-0.15873 0.006,-0.32245 0.01,-0.49093 0.004,-0.16848 0.01,-0.35911 0.0175,-0.57205 z m 15.30561,0 c -0.4836,0.259545 -0.96133,0.519845 -1.43128,0.781145 -0.46995,0.261495 -0.94548,0.523985 -1.42518,0.787235 0.0468,0.09302 0.0896,0.183775 0.13255,0.272695 0.0429,0.08911 0.0895,0.178445 0.14016,0.267365 0.3744,-0.243945 0.68077,-0.42804 0.91672,-0.551865 0.23595,-0.12402 0.41541,-0.18586 0.53436,-0.18586 0.1092,0 0.19291,0.0309 0.24946,0.09293 0.0585,0.06201 0.0876,0.16861 0.0876,0.31954 v 4.164315 c 0,0.131625 -0.006,0.242235 -0.0195,0.33135 -0.0137,0.08911 -0.0329,0.16422 -0.0564,0.22623 -0.0234,0.06181 -0.0528,0.113305 -0.0918,0.153865 -0.039,0.04075 -0.0859,0.07859 -0.14053,0.1135 -0.0507,0.031 -0.10922,0.0572 -0.17747,0.07845 -0.0663,0.02125 -0.15774,0.04035 -0.26889,0.05789 -0.1131,0.01735 -0.24763,0.0312 -0.40753,0.04075 -0.15795,0.0097 -0.35114,0.0183 -0.57929,0.0259 v 0.50578 h 4.60421 V 6.97544 c -0.23595,-0.004 -0.43706,-0.01045 -0.60671,-0.0202 -0.1677,-0.0097 -0.31174,-0.023 -0.43264,-0.04035 -0.11895,-0.01755 -0.2187,-0.03885 -0.2967,-0.06399 -0.0761,-0.02515 -0.13829,-0.06099 -0.18509,-0.1074 -0.039,-0.031 -0.0721,-0.06794 -0.10132,-0.11045 -0.0293,-0.0425 -0.0529,-0.09401 -0.0705,-0.15387 -0.0175,-0.06006 -0.0292,-0.13373 -0.037,-0.220895 -0.008,-0.08716 -0.0119,-0.190665 -0.0119,-0.310785 V 1.53372 c 0,-0.155025 -4e-5,-0.31201 0.002,-0.47074 0.002,-0.15873 0.006,-0.32245 0.01,-0.49093 0.004,-0.16848 0.01,-0.35911 0.0175,-0.57205 z m -8.55449,0.58081 V 3.63607 h -2.87434 v 0.888545 h 2.87434 V 7.57987 h 0.94187 V 4.524615 h 2.87434 V 3.63607 h -2.87434 V 0.580815 Z m 101.37449,0.97005 c -0.1599,0 -0.31011,0.0213 -0.45245,0.06398 -0.1443,0.0425 -0.28837,0.10946 -0.43267,0.20033 -0.14625,0.09107 -0.29823,0.20731 -0.46008,0.34849 -0.1599,0.141375 -0.33749,0.31091 -0.53054,0.508445 l 0.39954,0.37743 c 0.117,-0.12012 0.2206,-0.22471 0.3142,-0.313825 0.0936,-0.08911 0.17942,-0.16279 0.25937,-0.2209 0.078,-0.05811 0.15407,-0.10158 0.22622,-0.130635 0.0721,-0.02905 0.14233,-0.0434 0.21253,-0.0434 0.22815,0 0.34125,0.14134 0.34125,0.423895 0,0.10062 -0.0117,0.23051 -0.0351,0.38924 -0.0214,0.15873 -0.0586,0.33862 -0.10932,0.540055 l -0.87178,3.787265 h 1.13878 l 0.64937,-2.915855 c 0.039,-0.178035 0.10167,-0.357215 0.18357,-0.537395 0.0838,-0.179985 0.1791,-0.352245 0.28831,-0.516825 0.10725,-0.164385 0.22622,-0.31957 0.35687,-0.46465 0.1287,-0.145275 0.26149,-0.27096 0.39799,-0.37743 0.13455,-0.10647 0.26916,-0.189785 0.40371,-0.249845 0.1326,-0.06006 0.25738,-0.09027 0.37438,-0.09027 0.20085,0 0.3471,0.0564 0.43875,0.16872 0.0917,0.11232 0.13634,0.28821 0.13634,0.528255 0,0.100815 -0.0134,0.2276 -0.0369,0.38048 -0.0254,0.153075 -0.0606,0.327335 -0.10549,0.52292 -0.0449,0.195585 -0.0973,0.408405 -0.15579,0.6387 -0.0605,0.23049 -0.12675,0.471505 -0.195,0.72325 -0.0663,0.24765 -0.11499,0.47541 -0.14814,0.6825 -0.0331,0.207285 -0.051,0.388275 -0.051,0.543105 0,0.155025 0.0236,0.29689 0.0705,0.426565 0.0468,0.12987 0.11304,0.24229 0.19689,0.33706 0.0858,0.09497 0.18726,0.169355 0.30621,0.223565 0.117,0.05421 0.24543,0.0815 0.38583,0.0815 0.16575,0 0.32372,-0.0224 0.46997,-0.06703 0.1482,-0.04445 0.29665,-0.112125 0.44485,-0.202995 0.1482,-0.09107 0.30208,-0.20621 0.46198,-0.34544 0.15795,-0.139425 0.33339,-0.306055 0.52254,-0.49969 l -0.40143,-0.383525 c -0.11505,0.127725 -0.22066,0.237235 -0.31231,0.3283 -0.0936,0.09107 -0.17907,0.165455 -0.25707,0.223565 -0.0761,0.05811 -0.15027,0.100865 -0.22242,0.12797 -0.0722,0.0271 -0.14451,0.04075 -0.21861,0.04075 -0.11895,0 -0.20668,-0.0331 -0.26128,-0.09902 -0.0546,-0.06572 -0.0819,-0.17232 -0.0819,-0.319545 0,-0.0388 0.0178,-0.137195 0.0529,-0.295925 0.0351,-0.15873 0.0798,-0.35046 0.13443,-0.5751 0.0526,-0.224445 0.11129,-0.46966 0.17369,-0.735055 0.0624,-0.2652 0.12063,-0.523305 0.17328,-0.77505 0.0546,-0.251745 0.0997,-0.484035 0.13482,-0.696975 0.0351,-0.21294 0.0526,-0.379565 0.0526,-0.499685 0,-0.398775 -0.10146,-0.708555 -0.30621,-0.929295 -0.2028,-0.22074 -0.50909,-0.33097 -0.92053,-0.33097 -0.39,0 -0.76838,0.12788 -1.13498,0.383525 -0.3666,0.25545 -0.73695,0.640535 -1.11135,1.15553 l -0.0819,-0.02895 c 0.0351,-0.07742 0.0583,-0.15892 0.072,-0.244135 0.0136,-0.08522 0.0217,-0.166335 0.0217,-0.24375 0,-0.305955 -0.0802,-0.552605 -0.23615,-0.74039 -0.15795,-0.187785 -0.37832,-0.281835 -0.66497,-0.281835 z m -126.01266,0.07541 c -0.33345,0 -0.64957,0.07931 -0.94987,0.23804 -0.3003,0.15873 -0.6433,0.43558 -1.03135,0.83065 l 0.41933,0.418185 c 0.18525,-0.21294 0.3471,-0.373365 0.4875,-0.481785 0.13845,-0.10842 0.26875,-0.16263 0.3877,-0.16263 0.1053,0 0.17953,0.03475 0.22243,0.104355 0.041,0.06981 0.0625,0.168585 0.0625,0.29631 0,0.131625 -0.0292,0.323355 -0.0857,0.5751 l -0.93616,4.036725 h 1.66741 l 0.65128,-2.97984 c 0.0838,-0.402675 0.20071,-0.729015 0.34697,-0.97881 0.1482,-0.249795 0.34314,-0.486805 0.58689,-0.711445 0.24375,-0.224445 0.46018,-0.33668 0.65128,-0.33668 0.13455,0 0.24014,0.04235 0.31229,0.12759 0.0741,0.08521 0.11084,0.214905 0.11084,0.389235 0,0.15483 -0.0233,0.35329 -0.0701,0.595285 -0.0448,0.241995 -0.10129,0.487215 -0.16759,0.73506 l -0.25554,0.963955 c -0.1131,0.44148 -0.16759,0.80346 -0.16759,1.08621 0,0.394875 0.0934,0.693735 0.2826,0.896925 0.1911,0.203385 0.49161,0.305065 0.90111,0.305065 0.36075,0 0.68995,-0.08112 0.99025,-0.24375 0.3003,-0.16263 0.63968,-0.437865 1.01993,-0.82494 L 196.79767,6.0869 c -0.18916,0.21684 -0.35282,0.378745 -0.49322,0.485215 -0.13845,0.10647 -0.26508,0.15958 -0.37818,0.15958 -0.0917,0 -0.16372,-0.0289 -0.21442,-0.08684 -0.0507,-0.05811 -0.0743,-0.162705 -0.0743,-0.31383 0,-0.193635 0.0312,-0.420285 0.0975,-0.67983 l 0.45818,-1.81213 c 0.0351,-0.14313 0.0664,-0.30738 0.0918,-0.493215 0.0254,-0.18603 0.0369,-0.341205 0.0369,-0.46503 0,-0.38727 -0.11314,-0.693045 -0.33934,-0.91749 -0.2262,-0.22464 -0.53988,-0.33706 -0.93768,-0.33706 -0.43874,0 -0.82108,0.104595 -1.14868,0.31383 -0.32565,0.20904 -0.67285,0.540295 -1.03555,0.99328 l -0.0583,-0.04645 c 0.0234,-0.08911 0.035,-0.18207 0.035,-0.27879 0,-0.294255 -0.0956,-0.531645 -0.28867,-0.711825 -0.1911,-0.179985 -0.44646,-0.27003 -0.76821,-0.27003 z m -7.21919,0.4437 -1.99875,0.07084 -0.0952,0.41095 c 0.34905,0.01055 0.5887,0.06056 0.72325,0.15006 0.13455,0.08951 0.20071,0.245225 0.20071,0.46655 0,0.242385 -0.0604,0.6322 -0.18129,1.16962 l -2.04559,9.03284 0.50502,0.126445 0.72744,-0.513775 c 0.5421,0.34242 1.16426,0.513775 1.86431,0.513775 0.77025,0 1.46429,-0.246295 2.08634,-0.738865 0.62205,-0.49257 1.1077,-1.159255 1.4587,-1.99951 0.351,-0.84045 0.52444,-1.6954 0.52444,-2.56471 0,-0.795405 -0.1578,-1.411685 -0.4776,-1.84907 -0.31785,-0.437385 -0.76423,-0.65584 -1.33948,-0.65584 -0.44655,0 -0.89517,0.15261 -1.34367,0.458175 -0.44655,0.305565 -0.92647,0.80089 -1.43737,1.48573 l -0.10321,-0.0316 1.39052,-5.531605 z m 126.01874,0 -1.99875,0.07084 -0.0952,0.41095 c 0.34905,0.01055 0.58869,0.06056 0.72324,0.15006 0.13455,0.08951 0.20071,0.245225 0.20071,0.46655 0,0.242385 -0.0604,0.6322 -0.18126,1.16962 l -2.04562,9.03284 0.50503,0.126445 0.72743,-0.513775 c 0.54211,0.34242 1.16427,0.513775 1.86432,0.513775 0.77025,0 1.46429,-0.246295 2.08634,-0.738865 0.62205,-0.49257 1.1077,-1.159255 1.4587,-1.99951 0.351,-0.84045 0.52443,-1.6954 0.52443,-2.56471 0,-0.795405 -0.15779,-1.411685 -0.47759,-1.84907 -0.31785,-0.437385 -0.76423,-0.65584 -1.33948,-0.65584 -0.44655,0 -0.89518,0.15261 -1.34368,0.458175 -0.44655,0.305565 -0.92647,0.80089 -1.43737,1.48573 l -0.10321,-0.0316 1.39053,-5.531605 z m -153.19191,0.386955 -3.697,2.205175 0.34696,0.608235 c 0.45825,-0.305565 0.84239,-0.545125 1.15439,-0.719065 0.31005,-0.173745 0.54983,-0.26089 0.71753,-0.26089 0.14235,0 0.25154,0.04875 0.32564,0.14625 0.0721,0.0973 0.10931,0.251765 0.10931,0.462365 v 6.4091 c 0,0.368745 -0.029,0.63507 -0.0895,0.798285 -0.0605,0.16341 -0.15804,0.289635 -0.28869,0.379335 -0.1326,0.0895 -0.32397,0.15682 -0.57357,0.201475 -0.2496,0.04485 -0.66884,0.08031 -1.25189,0.10664 v 0.577 h 5.84048 v -0.577 c -0.40755,-0.01055 -0.73344,-0.03035 -0.98109,-0.05942 -0.24765,-0.02885 -0.45205,-0.07068 -0.61585,-0.126065 -0.1638,-0.05538 -0.28892,-0.13197 -0.37667,-0.229275 -0.0858,-0.0975 -0.14619,-0.22392 -0.18129,-0.379335 -0.0331,-0.155415 -0.0506,-0.38608 -0.0506,-0.691645 V 4.55927 c 0,-0.895635 0.0156,-1.59671 0.0469,-2.102345 z m 126.01874,0 -3.697,2.205175 0.34696,0.608235 c 0.45826,-0.305565 0.8424,-0.545125 1.15441,-0.719065 0.31004,-0.173745 0.54984,-0.26089 0.71753,-0.26089 0.14236,0 0.25153,0.04875 0.32563,0.14625 0.0722,0.0973 0.1093,0.251765 0.1093,0.462365 v 6.4091 c 0,0.368745 -0.0291,0.63507 -0.0895,0.798285 -0.0605,0.16341 -0.15802,0.289635 -0.28867,0.379335 -0.1326,0.0895 -0.32398,0.15682 -0.57358,0.201475 -0.2496,0.04485 -0.66885,0.08031 -1.2519,0.10664 v 0.577 h 5.84049 v -0.577 c -0.40755,-0.01055 -0.73343,-0.03035 -0.98109,-0.05942 -0.24765,-0.02885 -0.45205,-0.07068 -0.61585,-0.126065 -0.1638,-0.05538 -0.28893,-0.13197 -0.37668,-0.229275 -0.0858,-0.0975 -0.14619,-0.22392 -0.18129,-0.379335 -0.0331,-0.155415 -0.0506,-0.38608 -0.0506,-0.691645 V 4.55927 c 0,-0.895635 0.0156,-1.59671 0.0469,-2.102345 z m -85.16814,1.17914 v 0.888545 h 6.69055 V 3.63607 Z M 185.9443,6.61401 c 0.3432,0 0.59244,0.13659 0.74649,0.410565 0.156,0.273975 0.23423,0.685275 0.23423,1.233225 0,0.4056 -0.0429,0.831075 -0.12683,1.27626 -0.0839,0.445185 -0.20286,0.86246 -0.35496,1.252265 -0.15405,0.39 -0.31982,0.71816 -0.50312,0.98414 -0.18135,0.26598 -0.37229,0.480625 -0.57509,0.644035 -0.2028,0.16341 -0.40181,0.28055 -0.59681,0.35153 -0.195,0.07117 -0.40168,0.107025 -0.61813,0.107025 -0.4212,0 -0.72162,-0.09242 -0.90493,-0.276885 -0.18135,-0.18447 -0.27079,-0.484605 -0.27079,-0.900735 0,-0.347685 0.0389,-0.705845 0.11693,-1.074785 l 0.072,-0.33211 c 0.13065,-0.605865 0.29264,-1.10373 0.48179,-1.49373 0.18915,-0.389805 0.43475,-0.77034 0.73505,-1.141815 0.3003,-0.371475 0.57358,-0.6376 0.81733,-0.79828 0.2457,-0.16068 0.49531,-0.240705 0.74686,-0.240705 z m 126.01874,0 c 0.3432,0 0.59245,0.13659 0.7465,0.410565 0.156,0.273975 0.23422,0.685275 0.23422,1.233225 0,0.4056 -0.043,0.831075 -0.12683,1.27626 -0.0838,0.445185 -0.20285,0.86246 -0.35496,1.252265 -0.15405,0.39 -0.3198,0.71816 -0.5031,0.98414 -0.18135,0.26598 -0.37231,0.480625 -0.57511,0.644035 -0.2028,0.16341 -0.4018,0.28055 -0.5968,0.35153 -0.19499,0.07117 -0.40168,0.107025 -0.61813,0.107025 -0.4212,0 -0.72163,-0.09242 -0.90494,-0.276885 -0.18135,-0.18447 -0.27077,-0.484605 -0.27077,-0.900735 0,-0.347685 0.0389,-0.705845 0.11692,-1.074785 l 0.072,-0.33211 c 0.13065,-0.605865 0.29264,-1.10373 0.48179,-1.49373 0.18915,-0.389805 0.43477,-0.77034 0.73507,-1.141815 0.3003,-0.371475 0.57357,-0.6376 0.81732,-0.79828 0.2457,-0.16068 0.4953,-0.240705 0.74685,-0.240705 z M 165.97432,8.21819 v 1.05117 h 9.73629 V 8.21819 Z m 126.01876,0 v 1.05117 h 9.73629 V 8.21819 Z M 76.128075,13.50185 75.01292,18.403895 75.692375,18.60689 77.62638,13.954695 V 13.50185 Z M 5.492373,14.634145 c -0.7164301,0 -1.3489247,0.129155 -1.8966797,0.387335 -0.54795,0.25818 -0.9721512,0.62454 -1.2724512,1.09878 -0.3003,0.474045 -0.4501759,1.02175 -0.4501759,1.64341 0,0.39 0.076017,0.743075 0.2288967,1.05917 0.152685,0.316095 0.3584312,0.60186 0.6166112,0.857315 0.25818,0.255645 0.5819532,0.51503 0.9719532,0.778475 0.431925,0.28977 0.7626327,0.546805 0.9917577,0.77086 0.229125,0.22386 0.4004845,0.458145 0.5137795,0.703065 0.113295,0.245115 0.169863,0.52834 0.169863,0.8497 0,0.695565 -0.2053655,1.23779 -0.6162304,1.62779 -0.41106,0.389805 -0.9749665,0.585 -1.6913965,0.585 -0.62166,0 -1.0815217,-0.1568 -1.3790917,-0.47036 C 1.3814439,24.21132 1.2328417,23.73309 1.2328417,23.09037 H 0.47378897 L 0,25.263555 c 0.442455,0.12109 0.94414125,0.22152 1.5051562,0.300495 0.5610151,0.07897 1.0839897,0.118445 1.5687596,0.118445 0.71643,0 1.3552746,-0.13551 1.9164846,-0.406755 0.5610151,-0.27144 0.9957671,-0.65617 1.3040626,-1.154005 0.3080995,-0.49803 0.462363,-1.068285 0.462363,-1.7112 0,-0.41613 -0.064582,-0.782305 -0.1934765,-1.0984 -0.12909,-0.316095 -0.329556,-0.614955 -0.600996,-0.896925 -0.271245,-0.281775 -0.66488,-0.60193 -1.181045,-0.960145 -0.59007,-0.4056 -0.9893569,-0.75741 -1.1974219,-1.05498 -0.20826,-0.297765 -0.3123047,-0.6441 -0.3123047,-1.039365 0,-0.379275 0.087144,-0.722885 0.2608887,-1.030985 0.17394,-0.308295 0.4267819,-0.55224 0.7586719,-0.73125 0.33189,-0.179205 0.716238,-0.26851 1.153623,-0.26851 0.358215,0 0.645639,0.05511 0.861504,0.165675 0.21606,0.110565 0.382139,0.293935 0.498164,0.54958 0.11583,0.25545 0.184223,0.606685 0.205283,1.0546 h 0.758672 L 8.210947,15.068705 C 7.710577,14.910755 7.2534485,14.79908 6.8398535,14.73317 6.4262585,14.66726 5.977143,14.634145 5.492373,14.634145 Z m 34.129952,3.22474 c -0.4056,0 -0.769421,0.10659 -1.090781,0.31992 -0.32136,0.21333 -0.724273,0.572765 -1.208848,1.078595 l 0.450175,0.442555 c 0.316095,-0.35295 0.564931,-0.59651 0.746866,-0.730865 0.18174,-0.134355 0.354178,-0.201475 0.517588,-0.201475 0.147615,0 0.255472,0.0471 0.324112,0.14206 0.06844,0.09477 0.102831,0.247955 0.102831,0.458555 0,0.273975 -0.05822,0.663605 -0.174053,1.16924 l -1.153623,5.010585 h 1.366904 L 40.25417,22.12603 c 0.11076,-0.48984 0.253002,-0.90203 0.426942,-1.23665 0.173745,-0.33462 0.404407,-0.679495 0.691642,-1.035175 0.28704,-0.35568 0.558447,-0.621805 0.813897,-0.79828 0.255645,-0.17667 0.493929,-0.2647 0.715254,-0.2647 0.273975,0 0.471522,0.0804 0.592617,0.241085 0.12129,0.16068 0.18205,0.422615 0.18205,0.786095 0,0.147615 -0.02002,0.33988 -0.05942,0.577 -0.03958,0.23712 -0.122721,0.6031 -0.249081,1.0984 l -0.347724,1.367285 c -0.17394,0.663975 -0.260889,1.166925 -0.260889,1.509345 0,0.379275 0.102966,0.69142 0.308496,0.936535 0.20553,0.24492 0.479474,0.36753 0.821894,0.36753 0.431925,0 0.816469,-0.11206 1.153624,-0.33592 0.337155,-0.224055 0.732435,-0.57802 1.185615,-1.062595 l -0.450557,-0.44294 c -0.326625,0.363675 -0.579468,0.610155 -0.758673,0.739245 -0.17901,0.12909 -0.347636,0.19348 -0.505781,0.19348 -0.14742,0 -0.255666,-0.04765 -0.324111,-0.142445 -0.06844,-0.09477 -0.102832,-0.247375 -0.102832,-0.45817 0,-0.236925 0.07113,-0.642955 0.213282,-1.217225 l 0.51416,-2.070355 c 0.152685,-0.61113 0.228897,-1.08262 0.228897,-1.41451 0,-0.500565 -0.131888,-0.89184 -0.395333,-1.17381 -0.26325,-0.281775 -0.639975,-0.422755 -1.13001,-0.422755 -0.4953,0 -0.975688,0.175365 -1.441933,0.525585 -0.466245,0.350415 -0.957947,0.889025 -1.474307,1.61599 l -0.09445,-0.0316 c 0.126555,-0.34242 0.189669,-0.653105 0.189669,-0.932345 0,-0.35295 -0.09642,-0.638715 -0.288692,-0.85731 -0.192465,-0.21879 -0.454203,-0.32792 -0.786093,-0.32792 z m 86.385385,0 c -0.40561,0 -0.76942,0.10659 -1.09078,0.31992 -0.32136,0.21333 -0.72428,0.572765 -1.20885,1.078595 l 0.45018,0.442555 c 0.31609,-0.35295 0.56492,-0.59651 0.74686,-0.730865 0.18174,-0.134355 0.35437,-0.201475 0.51759,-0.201475 0.14761,0 0.25547,0.0471 0.32411,0.14206 0.0684,0.09477 0.10283,0.247955 0.10283,0.458555 0,0.273975 -0.0582,0.663605 -0.17405,1.16924 l -1.15362,5.010585 h 1.3669 l 0.75105,-3.422025 c 0.11076,-0.48984 0.25263,-0.90203 0.42657,-1.23665 0.17374,-0.33462 0.4044,-0.679495 0.69164,-1.035175 0.28704,-0.35568 0.55844,-0.621805 0.81389,-0.79828 0.25564,-0.17667 0.49393,-0.2647 0.71526,-0.2647 0.27397,0 0.47132,0.0804 0.59261,0.241085 0.1211,0.16068 0.18205,0.422615 0.18205,0.786095 0,0.147615 -0.02,0.33988 -0.0594,0.577 -0.0396,0.23712 -0.12253,0.6031 -0.24909,1.0984 l -0.34772,1.367285 c -0.17394,0.663975 -0.26089,1.166925 -0.26089,1.509345 0,0.379275 0.10297,0.69142 0.3085,0.936535 0.20553,0.24492 0.47947,0.36753 0.82189,0.36753 0.43193,0 0.81647,-0.11206 1.15362,-0.33592 0.33638,-0.224055 0.73246,-0.57802 1.18486,-1.062595 l -0.45056,-0.44294 c -0.32565,0.363675 -0.5787,0.610155 -0.75791,0.739245 -0.17901,0.12909 -0.34783,0.19348 -0.50578,0.19348 -0.14761,0 -0.25567,-0.04765 -0.32411,-0.142445 -0.0684,-0.09477 -0.10283,-0.247375 -0.10283,-0.45817 0,-0.236925 0.0715,-0.642955 0.21366,-1.217225 l 0.51378,-2.070355 c 0.15268,-0.61113 0.22889,-1.08262 0.22889,-1.41451 0,-0.500565 -0.1317,-0.89184 -0.39495,-1.17381 -0.26344,-0.281775 -0.64035,-0.422755 -1.13039,-0.422755 -0.4953,0 -0.97569,0.175365 -1.44193,0.525585 -0.46625,0.350415 -0.95776,0.889025 -1.47393,1.61599 l -0.0948,-0.0316 c 0.12655,-0.34242 0.18967,-0.653105 0.18967,-0.932345 0,-0.35295 -0.096,-0.638715 -0.28831,-0.85731 -0.19247,-0.21879 -0.45459,-0.32792 -0.78648,-0.32792 z m 126.01797,0 c -0.40559,0 -0.76826,0.10659 -1.09001,0.31992 -0.32175,0.21333 -0.72329,0.572765 -1.20884,1.078595 l 0.45017,0.442555 c 0.3159,-0.35295 0.56552,-0.59651 0.74687,-0.730865 0.18136,-0.134355 0.35497,-0.201475 0.51681,-0.201475 0.1482,0 0.25545,0.0471 0.32565,0.14206 0.0682,0.09477 0.1013,0.247955 0.1013,0.458555 0,0.273975 -0.0563,0.663605 -0.17329,1.16924 l -1.15438,5.010585 h 1.3688 l 0.75067,-3.422025 c 0.1092,-0.48984 0.25149,-0.90203 0.42504,-1.23665 0.1755,-0.33462 0.40576,-0.679495 0.69241,-1.035175 0.28665,-0.35568 0.55768,-0.621805 0.81313,-0.79828 0.25545,-0.17667 0.4953,-0.2647 0.71565,-0.2647 0.27495,0 0.4717,0.0804 0.5926,0.241085 0.1209,0.16068 0.18169,0.422615 0.18169,0.786095 0,0.147615 -0.0197,0.33988 -0.0587,0.577 -0.039,0.23712 -0.12271,0.6031 -0.24946,1.0984 l -0.34735,1.367285 c -0.17355,0.663975 -0.26126,1.166925 -0.26126,1.509345 0,0.379275 0.10337,0.69142 0.30812,0.936535 0.2067,0.24492 0.47983,0.36753 0.82303,0.36753 0.43095,0 0.81707,-0.11206 1.15247,-0.33592 0.33735,-0.224055 0.73322,-0.57802 1.18562,-1.062595 l -0.45055,-0.44294 c -0.32565,0.363675 -0.57929,0.610155 -0.75869,0.739245 -0.1794,0.12909 -0.34706,0.19348 -0.50501,0.19348 -0.1482,0 -0.25549,-0.04765 -0.32374,-0.142445 -0.0682,-0.09477 -0.10321,-0.247375 -0.10321,-0.45817 0,-0.236925 0.0721,-0.642955 0.21442,-1.217225 l 0.51303,-2.070355 c 0.1521,-0.61113 0.22813,-1.08262 0.22813,-1.41451 0,-0.500565 -0.13095,-0.89184 -0.3942,-1.17381 -0.26325,-0.281775 -0.63936,-0.422755 -1.13076,-0.422755 -0.4953,0 -0.97512,0.175365 -1.44117,0.525585 -0.46605,0.350415 -0.95757,0.889025 -1.47432,1.61599 l -0.0952,-0.0316 c 0.12675,-0.34242 0.18889,-0.653105 0.18889,-0.932345 0,-0.35295 -0.0953,-0.638715 -0.28639,-0.85731 -0.19305,-0.21879 -0.45457,-0.32792 -0.78802,-0.32792 z m -181.7179,0.0076 c -0.55321,0 -1.03799,0.08422 -1.45412,0.25289 -0.416325,0.168675 -0.736285,0.409885 -0.960145,0.72325 -0.224055,0.31356 -0.335915,0.67846 -0.335915,1.09459 0,0.305565 0.05803,0.57532 0.17405,0.80971 0.11583,0.234585 0.288465,0.452145 0.51759,0.65241 0.22932,0.200265 0.54928,0.423805 0.960145,0.671455 0.39,0.23712 0.674495,0.43467 0.853505,0.59262 0.179205,0.158145 0.30836,0.32276 0.387335,0.49397 0.07917,0.17121 0.11845,0.375305 0.11845,0.612425 0,0.410865 -0.14098,0.728475 -0.422755,0.95253 -0.28197,0.22386 -0.67306,0.335915 -1.17343,0.335915 -0.574275,0 -0.99339,-0.129155 -1.256835,-0.387335 -0.263445,-0.25818 -0.4055,-0.64037 -0.42656,-1.146005 H 66.67248 l -0.379335,1.72301 c 0.51636,0.15795 0.985305,0.270005 1.406895,0.335915 0.421395,0.06591 0.85068,0.09864 1.288065,0.09864 0.54795,0 1.03654,-0.08149 1.465925,-0.244895 0.42939,-0.163215 0.769185,-0.41244 1.019565,-0.74686 0.250185,-0.334625 0.375525,-0.73645 0.375525,-1.205425 0,-0.25818 -0.0264,-0.477905 -0.07922,-0.659645 -0.05265,-0.18174 -0.136865,-0.354375 -0.25289,-0.51759 -0.11583,-0.16341 -0.2739,-0.32803 -0.474165,-0.493975 -0.200265,-0.16614 -0.466015,-0.34893 -0.797905,-0.549195 -0.42159,-0.252915 -0.732455,-0.46629 -0.93272,-0.64023 -0.20007,-0.173745 -0.33343,-0.33347 -0.399145,-0.478355 -0.06591,-0.144885 -0.09864,-0.312055 -0.09864,-0.501595 0,-0.347685 0.12877,-0.62837 0.38695,-0.8417 0.25818,-0.213525 0.595435,-0.31992 1.011565,-0.31992 0.53742,0 0.93124,0.120955 1.181425,0.36334 0.25038,0.24219 0.40445,0.598195 0.462365,1.06717 h 0.640225 l 0.35572,-1.65979 c -0.40053,-0.14235 -0.802355,-0.24258 -1.20542,-0.300495 -0.403065,-0.05792 -0.84964,-0.08684 -1.339485,-0.08684 z M 21.776017,18.75965 v 1.05117 h 9.736287 v -1.05117 z m 86.385383,0 v 1.05117 h 9.73629 v -1.05117 z m 126.01798,0 v 1.05117 h 9.73629 V 18.75965 Z M 51.43506,20.39544 v 1.051175 h 9.73629 V 20.39544 Z m 86.385,0 v 1.051175 h 9.73629 V 20.39544 Z m 126.01874,0 v 1.051175 h 9.73629 V 20.39544 Z m -111.46801,0.08264 v 0.975 h 76.245 v -0.975 z m 125.97001,0 v 0.975 h 45.82499 v -0.975 z m -179.385915,0.8737 c -0.48399,0.259545 -0.96112,0.51984 -1.431655,0.78114 -0.47034,0.261495 -0.945845,0.52399 -1.425935,0.78724 0.0464,0.09301 0.09117,0.183575 0.13368,0.27269 0.0425,0.08911 0.08908,0.178445 0.139395,0.267365 0.37557,-0.243945 0.681345,-0.42804 0.91749,-0.551865 0.236145,-0.12402 0.41442,-0.18586 0.534345,-0.18586 0.10842,0 0.191735,0.0309 0.249845,0.09293 0.05811,0.06201 0.08722,0.16861 0.08722,0.31954 v 4.16432 c 0,0.131625 -0.007,0.24185 -0.02055,0.330965 -0.01345,0.08912 -0.0318,0.1646 -0.05523,0.22661 -0.0232,0.06181 -0.05393,0.113115 -0.09255,0.15387 -0.0388,0.04055 -0.08557,0.07859 -0.13978,0.113495 -0.05031,0.031 -0.10905,0.0572 -0.176715,0.07846 -0.06786,0.02125 -0.158285,0.04035 -0.27041,0.05789 -0.11232,0.01735 -0.24765,0.0312 -0.40638,0.04075 -0.158925,0.0097 -0.35227,0.0181 -0.58081,0.0259 v 0.505405 h 4.605735 V 28.32722 c -0.23634,-0.004 -0.43861,-0.01045 -0.60709,-0.0202 -0.16848,-0.0097 -0.31254,-0.0232 -0.43266,-0.04075 -0.119925,-0.01735 -0.21889,-0.03845 -0.296305,-0.0636 -0.07742,-0.02515 -0.13945,-0.06099 -0.18586,-0.1074 -0.0388,-0.031 -0.07225,-0.06794 -0.10131,-0.11045 -0.02905,-0.0427 -0.05253,-0.094 -0.07008,-0.153865 -0.01735,-0.06006 -0.0297,-0.13393 -0.0373,-0.2209 -0.0078,-0.08716 -0.0118,-0.19066 -0.0118,-0.31078 v -4.41416 c 0,-0.15483 0.001,-0.311635 0.003,-0.470365 0.002,-0.15873 0.005,-0.322445 0.0087,-0.490925 0.004,-0.16848 0.0093,-0.35911 0.01715,-0.57205 z m -77.178868,0.68745 v 1.05117 h 9.736287 v -1.05117 z m 86.385383,0 v 1.05117 h 9.73629 v -1.05117 z m 126.01798,0 v 1.05117 h 9.73629 V 22.03923 Z M 9.780088,22.90263 c -0.15873,0 -0.309898,0.0211 -0.453223,0.0636 -0.143325,0.0427 -0.287381,0.10965 -0.432656,0.200715 -0.145275,0.09107 -0.2982555,0.20711 -0.4589355,0.348485 -0.16068,0.141375 -0.337664,0.31073 -0.531299,0.50807 l 0.400664,0.37743 c 0.11622,-0.119925 0.221008,-0.224335 0.313828,-0.31345 0.093015,-0.08911 0.1792385,-0.162785 0.2586035,-0.220895 0.079365,-0.05811 0.1546655,-0.10158 0.2262305,-0.130635 0.07176,-0.02905 0.142524,-0.0434 0.212139,-0.0434 0.22854,0 0.3427735,0.14115 0.3427735,0.4239 0,0.10062 -0.011835,0.230315 -0.03504,0.38924 -0.023205,0.15873 -0.06014,0.33862 -0.1104495,0.540055 L 8.641698,28.83263 h 1.138389 l 0.650508,-2.91548 c 0.0388,-0.178035 0.09974,-0.35721 0.182812,-0.53739 0.08326,-0.179985 0.179129,-0.352245 0.287549,-0.516825 0.10842,-0.16458 0.227376,-0.31957 0.357246,-0.46465 0.129675,-0.145275 0.262473,-0.271145 0.397998,-0.37781 0.135525,-0.10647 0.269755,-0.1896 0.403331,-0.249465 0.133575,-0.06006 0.258545,-0.09026 0.374765,-0.09026 0.201435,0 0.347304,0.0564 0.438369,0.16872 0.09107,0.11232 0.136728,0.28821 0.136728,0.528255 0,0.100815 -0.01254,0.227595 -0.0377,0.380475 -0.02515,0.153075 -0.06028,0.327335 -0.104738,0.52292 -0.04446,0.195585 -0.09685,0.40841 -0.156914,0.638705 -0.06006,0.23049 -0.124809,0.4717 -0.194619,0.72325 -0.06571,0.247845 -0.115013,0.47541 -0.147773,0.6825 -0.03296,0.207285 -0.04951,0.388275 -0.04951,0.543105 0,0.15483 0.02329,0.29689 0.0697,0.426565 0.04641,0.12987 0.112451,0.242095 0.197666,0.33706 0.08502,0.09477 0.186713,0.169355 0.304688,0.223565 0.11817,0.05421 0.246765,0.0815 0.386192,0.0815 0.166528,0 0.323517,-0.02255 0.470742,-0.06703 0.14703,-0.04445 0.295101,-0.11213 0.444081,-0.203 0.149175,-0.09107 0.303252,-0.20639 0.461982,-0.345815 0.15873,-0.13923 0.332805,-0.305675 0.52254,-0.49931 L 14.775065,27.43869 c -0.11622,0.127725 -0.220812,0.237235 -0.313827,0.3283 -0.09282,0.09107 -0.177762,0.165455 -0.255177,0.223565 -0.07761,0.05791 -0.152379,0.100485 -0.223944,0.12759 -0.07156,0.0271 -0.144337,0.04075 -0.217852,0.04075 -0.12012,0 -0.20706,-0.03275 -0.26127,-0.09865 -0.05421,-0.06591 -0.08112,-0.17251 -0.08112,-0.31954 0,-0.0388 0.01727,-0.137195 0.05218,-0.295925 0.03471,-0.15873 0.07947,-0.35046 0.13368,-0.5751 0.05421,-0.22464 0.112238,-0.46986 0.174053,-0.73506 0.06201,-0.2652 0.120224,-0.5233 0.174434,-0.775045 0.05421,-0.251745 0.0984,-0.484035 0.133302,-0.696975 0.03491,-0.21294 0.05256,-0.379565 0.05256,-0.499685 0,-0.398775 -0.101683,-0.708755 -0.305068,-0.9293 -0.20319,-0.22074 -0.510063,-0.330965 -0.920538,-0.330965 -0.390975,0 -0.769708,0.12788 -1.135723,0.383525 -0.36582,0.25545 -0.736344,0.64053 -1.112109,1.155525 l -0.0815,-0.02895 c 0.03491,-0.07742 0.05909,-0.158915 0.07274,-0.24413 0.01346,-0.08521 0.02056,-0.166335 0.02056,-0.24375 0,-0.305955 -0.07859,-0.552985 -0.235371,-0.74077 -0.156975,-0.187785 -0.37833,-0.281455 -0.6649805,-0.281455 z m 71.286972,0.07541 c -0.33306,0 -0.64976,0.0793 -0.949865,0.23804 -0.300105,0.158725 -0.643715,0.43558 -1.030985,0.83065 l 0.418185,0.418185 c 0.185835,-0.21294 0.348455,-0.373365 0.48788,-0.481785 0.13923,-0.10842 0.269315,-0.16301 0.38924,-0.16301 0.10452,0 0.178005,0.0351 0.220515,0.104735 0.0425,0.06961 0.06399,0.168585 0.06399,0.29631 0,0.131625 -0.02875,0.32335 -0.08684,0.575095 l -0.93539,4.03635 h 1.66702 l 0.65051,-2.979465 c 0.08522,-0.402675 0.20126,-0.72901 0.348485,-0.978805 0.14703,-0.249795 0.34258,-0.486805 0.586525,-0.711445 0.243945,-0.224445 0.46077,-0.33668 0.650505,-0.33668 0.135525,0 0.239935,0.04235 0.313445,0.127585 0.07371,0.08521 0.11045,0.21491 0.11045,0.38924 0,0.15483 -0.0233,0.35329 -0.0697,0.595285 -0.0464,0.241995 -0.10243,0.487025 -0.16834,0.734675 l -0.255555,0.964335 c -0.11232,0.441285 -0.16834,0.803465 -0.16834,1.086215 0,0.394875 0.09476,0.69373 0.2845,0.89692 0.189735,0.203385 0.489875,0.30507 0.90035,0.30507 0.360165,0 0.690325,-0.08112 0.990235,-0.24375 0.300105,-0.16263 0.64009,-0.437865 1.01956,-0.82494 l -0.41856,-0.418185 c -0.189735,0.21684 -0.35417,0.378745 -0.493595,0.485215 -0.13923,0.10647 -0.265115,0.15958 -0.377435,0.15958 -0.09282,0 -0.16449,-0.0291 -0.2148,-0.08722 -0.05031,-0.05791 -0.07579,-0.16252 -0.07579,-0.31345 0,-0.193635 0.03295,-0.42029 0.09865,-0.679835 l 0.459315,-1.812125 c 0.0347,-0.14313 0.06473,-0.307565 0.08989,-0.493595 0.02515,-0.185835 0.0377,-0.340825 0.0377,-0.46465 0,-0.38727 -0.11314,-0.693045 -0.33973,-0.91749 -0.226395,-0.22464 -0.53928,-0.33706 -0.938055,-0.33706 -0.43758,0 -0.81994,0.104405 -1.147145,0.313445 -0.32702,0.209235 -0.67283,0.540485 -1.0367,0.993665 L 82.0889,24.2383 c 0.0232,-0.08892 0.03505,-0.18169 0.03505,-0.27841 0,-0.294255 -0.09586,-0.53184 -0.28755,-0.711825 -0.191685,-0.179985 -0.447975,-0.27003 -0.769335,-0.27003 z m 6.458235,2.009795 v 0.888545 h 6.690935 v -0.888545 z m 116.551725,0.0202 -1.99875,0.07084 -0.0952,0.410945 c 0.3471,0.01055 0.58871,0.06056 0.72326,0.15006 0.13455,0.08951 0.20071,0.24523 0.20071,0.466555 0,0.242385 -0.0604,0.6322 -0.18129,1.16962 l -2.0475,9.03284 0.50692,0.126445 0.72554,-0.51378 c 0.54405,0.34242 1.16617,0.51378 1.86622,0.51378 0.7683,0 1.4643,-0.246295 2.08635,-0.738865 0.62205,-0.49257 1.10768,-1.15926 1.45868,-1.999515 0.34905,-0.84045 0.52445,-1.695015 0.52445,-2.564325 0,-0.7956 -0.15975,-1.412065 -0.4776,-1.84945 -0.3198,-0.43719 -0.76619,-0.65584 -1.33949,-0.65584 -0.4485,0 -0.89517,0.152985 -1.34367,0.45855 -0.4485,0.305565 -0.92836,0.800515 -1.43926,1.48535 l -0.10131,-0.03125 1.39052,-5.531985 z m 110.81103,0 -1.99876,0.07084 -0.0956,0.410945 c 0.34905,0.01055 0.5887,0.06056 0.72325,0.15006 0.13455,0.08951 0.203,0.24523 0.203,0.466555 0,0.242385 -0.0627,0.6322 -0.18358,1.16962 l -2.04559,9.03284 0.50541,0.126445 0.72705,-0.51378 c 0.5421,0.34242 1.16425,0.51378 1.8643,0.51378 0.77025,0 1.46429,-0.246295 2.08634,-0.738865 0.62205,-0.49257 1.1077,-1.15926 1.4587,-1.999515 0.351,-0.84045 0.52674,-1.695015 0.52674,-2.564325 0,-0.7956 -0.1601,-1.412065 -0.4799,-1.84945 -0.31785,-0.43719 -0.76422,-0.65584 -1.33947,-0.65584 -0.44655,0 -0.89517,0.152985 -1.34367,0.45855 -0.44655,0.305565 -0.92609,0.800515 -1.43699,1.48535 l -0.10359,-0.03125 1.39051,-5.531985 z m -137.9842,0.386955 -3.69891,2.205175 0.34887,0.60823 c 0.45825,-0.305565 0.84243,-0.54512 1.15248,-0.71906 0.312,-0.173745 0.55174,-0.26089 0.71944,-0.26089 0.14235,0 0.24964,0.04875 0.32374,0.14625 0.0741,0.0975 0.11121,0.25157 0.11121,0.462365 v 6.4091 c 0,0.36894 -0.0314,0.63487 -0.0918,0.79828 -0.0605,0.163215 -0.15571,0.289835 -0.2883,0.37934 -0.13065,0.0895 -0.32207,0.156815 -0.57168,0.20147 -0.25155,0.04485 -0.66879,0.08051 -1.25379,0.107025 v 0.57662 h 5.84048 v -0.57662 c -0.40559,-0.01055 -0.73153,-0.03055 -0.97918,-0.05942 -0.24765,-0.02905 -0.45401,-0.07106 -0.61585,-0.126445 -0.1638,-0.05538 -0.28892,-0.131775 -0.37667,-0.229275 -0.0877,-0.0975 -0.14814,-0.223925 -0.18129,-0.37934 -0.0351,-0.15561 -0.0506,-0.386075 -0.0506,-0.69164 v -6.74883 c 0,-0.895635 0.0156,-1.59651 0.0468,-2.10234 z m 110.81066,0 -3.69701,2.205175 0.34697,0.60823 c 0.45825,-0.305565 0.84238,-0.54512 1.15438,-0.71906 0.31005,-0.173745 0.5498,-0.26089 0.71945,-0.26089 0.1404,0 0.24962,0.04875 0.32372,0.14625 0.0741,0.0975 0.10932,0.25157 0.10932,0.462365 v 6.4091 c 0,0.36894 -0.029,0.63487 -0.0895,0.79828 -0.0605,0.163215 -0.15805,0.289835 -0.2887,0.37934 -0.1326,0.0895 -0.32358,0.156815 -0.57318,0.20147 -0.2496,0.04485 -0.6669,0.08051 -1.2519,0.107025 v 0.57662 h 5.84011 v -0.57662 c -0.4056,-0.01055 -0.73306,-0.03055 -0.98071,-0.05942 -0.24765,-0.02905 -0.45244,-0.07106 -0.61624,-0.126445 -0.1638,-0.05538 -0.28858,-0.131775 -0.37438,-0.229275 -0.0878,-0.0975 -0.14847,-0.223925 -0.18357,-0.37934 -0.0331,-0.15561 -0.0507,-0.386075 -0.0507,-0.69164 v -6.74883 c 0,-0.895635 0.0156,-1.59651 0.0469,-2.10234 z m -82.25496,4.15708 c 0.3432,0 0.59085,0.13697 0.74685,0.410945 0.156,0.273975 0.23423,0.684895 0.23423,1.232845 0,0.4056 -0.043,0.83107 -0.12683,1.276255 -0.0838,0.445185 -0.20281,0.86265 -0.35686,1.25265 -0.1521,0.389805 -0.31986,0.71778 -0.50121,0.98376 -0.18135,0.266175 -0.37421,0.48082 -0.57701,0.644035 -0.2028,0.16341 -0.4018,0.280735 -0.5968,0.35191 -0.195,0.07098 -0.39978,0.10664 -0.61623,0.10664 -0.4212,0 -0.72357,-0.09242 -0.90492,-0.276885 -0.18135,-0.184275 -0.27269,-0.484405 -0.27269,-0.90073 0,-0.347685 0.0409,-0.705845 0.11883,-1.074785 l 0.072,-0.33211 c 0.13065,-0.605865 0.29263,-1.103545 0.48178,-1.49335 0.18915,-0.39 0.43476,-0.77072 0.73506,-1.142195 0.3003,-0.37128 0.57357,-0.637225 0.81732,-0.797905 0.2457,-0.16068 0.493,-0.24108 0.7465,-0.24108 z m 110.81292,0 c 0.34125,0 0.59087,0.13697 0.74687,0.410945 0.15405,0.273975 0.23195,0.684895 0.23195,1.232845 0,0.4056 -0.0429,0.83107 -0.12682,1.276255 -0.0838,0.445185 -0.20286,0.86265 -0.35496,1.25265 -0.1521,0.389805 -0.31986,0.71778 -0.50121,0.98376 -0.1833,0.266175 -0.37421,0.48082 -0.57701,0.644035 -0.2028,0.16341 -0.40181,0.280735 -0.59681,0.35191 -0.195,0.07098 -0.40172,0.10664 -0.61622,0.10664 -0.42315,0 -0.7232,-0.09242 -0.90455,-0.276885 -0.1833,-0.184275 -0.27308,-0.484405 -0.27308,-0.90073 0,-0.347685 0.0389,-0.705845 0.11884,-1.074785 l 0.0701,-0.33211 c 0.1326,-0.605865 0.29264,-1.103545 0.48179,-1.49335 0.18915,-0.39 0.43475,-0.77072 0.73505,-1.142195 0.3003,-0.37128 0.57353,-0.637225 0.81923,-0.797905 0.24375,-0.16068 0.49335,-0.24108 0.74685,-0.24108 z m -130.78481,1.604175 v 1.051175 h 9.73667 v -1.051175 z m 110.81293,0 v 1.051175 h 9.73629 v -1.051175 z"
   id="path2"
   inkscape:connector-curvature="0"
   style="stroke-width:0.19499999" />

































</svg>