<?xml version="1.0" encoding="UTF-8" standalone="no"?>
<svg
   xmlns:dc="http://purl.org/dc/elements/1.1/"
   xmlns:cc="http://creativecommons.org/ns#"
   xmlns:rdf="http://www.w3.org/1999/02/22-rdf-syntax-ns#"
   xmlns:svg="http://www.w3.org/2000/svg"
   xmlns="http://www.w3.org/2000/svg"
   xmlns:sodipodi="http://sodipodi.sourceforge.net/DTD/sodipodi-0.dtd"
   xmlns:inkscape="http://www.inkscape.org/namespaces/inkscape"
   width="487.49207"
   height="65.395073"
   xml:space="preserve"
   overflow="hidden"
   version="1.1"
   id="svg194"
   sodipodi:docname="11-series-closed.svg"
   style="overflow:hidden"
   inkscape:version="0.92.4 (5da689c313, 2019-01-14)"><metadata
   id="metadata200"><rdf:RDF><cc:Work
       rdf:about=""><dc:format>image/svg+xml</dc:format><dc:type
         rdf:resource="http://purl.org/dc/dcmitype/StillImage" /><dc:title></dc:title></cc:Work></rdf:RDF></metadata><defs
   id="defs198" /><sodipodi:namedview
   pagecolor="#ffffff"
   bordercolor="#666666"
   borderopacity="1"
   objecttolerance="10"
   gridtolerance="10"
   guidetolerance="10"
   inkscape:pageopacity="0"
   inkscape:pageshadow="2"
   inkscape:window-width="1703"
   inkscape:window-height="1165"
   id="namedview196"
   showgrid="false"
   inkscape:zoom="1"
   inkscape:cx="-66.710637"
   inkscape:cy="402.93836"
   inkscape:window-x="0"
   inkscape:window-y="0"
   inkscape:window-maximized="0"
   inkscape:current-layer="svg194"
   fit-margin-top="0"
   fit-margin-left="0"
   fit-margin-right="0"
   fit-margin-bottom="0" /><path
   d="m 153.88813,0 c -0.15795,0 -0.31011,0.02145 -0.45246,0.06398 -0.14429,0.0427 -0.28873,0.10965 -0.43304,0.200715 -0.14625,0.09087 -0.29827,0.20711 -0.45817,0.348485 -0.16184,0.141375 -0.33939,0.310535 -0.53244,0.50807 l 0.40181,0.37743 c 0.11505,-0.119925 0.22027,-0.22453 0.31193,-0.31345 0.0936,-0.08911 0.1794,-0.162785 0.25935,-0.220895 0.0799,-0.05811 0.15409,-0.10158 0.22624,-0.130635 0.0721,-0.02905 0.14231,-0.0434 0.21251,-0.0434 0.22815,0 0.34316,0.14115 0.34316,0.4239 0,0.10062 -0.0117,0.230505 -0.0351,0.389235 -0.0234,0.15873 -0.0605,0.33882 -0.11121,0.54006 L 152.7493,5.93038 h 1.13877 l 0.65127,-2.91586 c 0.039,-0.178035 0.0994,-0.357025 0.1832,-0.53701 0.0819,-0.179985 0.17758,-0.35225 0.28678,-0.51683 0.1092,-0.16458 0.22817,-0.31937 0.35687,-0.464645 0.13065,-0.14508 0.26307,-0.271345 0.39761,-0.377815 0.13651,-0.10647 0.27112,-0.189785 0.40372,-0.249845 0.13455,-0.05987 0.25933,-0.08988 0.37438,-0.08988 0.2028,0 0.34711,0.05622 0.43875,0.16834 0.0916,0.11232 0.13673,0.288585 0.13673,0.52863 0,0.10062 -0.012,0.227405 -0.0373,0.38048 -0.0254,0.15288 -0.0603,0.327335 -0.10511,0.52292 -0.0448,0.19539 -0.0957,0.40821 -0.15615,0.6387 -0.0605,0.230295 -0.1248,0.47151 -0.195,0.723255 -0.0663,0.247845 -0.11501,0.47541 -0.14816,0.6825 -0.0332,0.20709 -0.0487,0.388275 -0.0487,0.543105 0,0.15483 0.0233,0.296885 0.0682,0.42656 0.0468,0.129675 0.11339,0.242095 0.19919,0.33706 0.0838,0.09477 0.18692,0.169355 0.30392,0.223565 0.11895,0.05421 0.24775,0.08113 0.3862,0.08113 0.1677,0 0.32373,-0.0222 0.46998,-0.06665 0.1482,-0.04465 0.29626,-0.112315 0.44446,-0.20338 0.15015,-0.09087 0.30441,-0.206015 0.46236,-0.34544 0.15795,-0.139425 0.33339,-0.305865 0.52254,-0.499305 l -0.3999,-0.383525 c -0.117,0.127725 -0.22218,0.237235 -0.31383,0.3283 -0.0936,0.09087 -0.17951,0.165455 -0.25556,0.223565 -0.078,0.05811 -0.15217,0.10048 -0.22432,0.127585 -0.0721,0.0271 -0.14413,0.04075 -0.21823,0.04075 -0.11895,0 -0.20667,-0.03295 -0.26127,-0.09864 -0.0526,-0.06591 -0.08,-0.17251 -0.08,-0.31954 0,-0.0388 0.0175,-0.137385 0.0507,-0.29631 0.0351,-0.15873 0.0798,-0.35027 0.13444,-0.574715 0.0546,-0.22464 0.11323,-0.46986 0.17368,-0.73506 0.0624,-0.2652 0.12097,-0.523495 0.17557,-0.775045 0.0526,-0.251745 0.0974,-0.484415 0.13254,-0.697355 0.0351,-0.21294 0.0526,-0.379385 0.0526,-0.49931 0,-0.398775 -0.10112,-0.708555 -0.30392,-0.929295 -0.20476,-0.22074 -0.511,-0.331345 -0.92245,-0.331345 -0.39,0 -0.76836,0.128075 -1.13496,0.383525 -0.36465,0.255645 -0.73695,0.64091 -1.11135,1.155905 l -0.0819,-0.02895 c 0.0351,-0.07761 0.0583,-0.15911 0.072,-0.24413 0.0136,-0.08522 0.0213,-0.166335 0.0213,-0.24375 0,-0.305955 -0.0778,-0.552985 -0.23574,-0.74077 C 154.3972,0.09407 154.17487,2e-5 153.88822,2e-5 Z m 144.1088,0 c -0.15989,0 -0.31004,0.02145 -0.45434,0.06398 -0.14236,0.0427 -0.28646,0.10965 -0.43076,0.200715 -0.14625,0.09087 -0.2986,0.20711 -0.46045,0.348485 -0.1599,0.141375 -0.33712,0.310535 -0.53017,0.50807 l 0.39952,0.37743 c 0.117,-0.119925 0.22062,-0.22453 0.31422,-0.31345 0.0936,-0.08911 0.1794,-0.162785 0.25935,-0.220895 0.078,-0.05811 0.1537,-0.10158 0.22585,-0.130635 0.0702,-0.02905 0.14237,-0.0434 0.21062,-0.0434 0.2301,0 0.34353,0.14115 0.34353,0.4239 0,0.10062 -0.0121,0.230505 -0.0354,0.389235 -0.0234,0.15873 -0.0582,0.33882 -0.10892,0.54006 l -0.87179,3.786885 h 1.13876 l 0.64937,-2.91586 c 0.039,-0.178035 0.0994,-0.357025 0.1832,-0.53701 0.0838,-0.179985 0.17948,-0.35225 0.28868,-0.51683 0.10725,-0.16458 0.22622,-0.31937 0.35687,-0.464645 0.12869,-0.14508 0.26149,-0.271345 0.39799,-0.377815 0.13455,-0.10647 0.26879,-0.189785 0.40334,-0.249845 0.1326,-0.05987 0.25738,-0.08988 0.37438,-0.08988 0.20085,0 0.3471,0.05622 0.43875,0.16834 0.0897,0.11232 0.13673,0.288585 0.13673,0.52863 0,0.10062 -0.0138,0.227405 -0.0392,0.38048 -0.0234,0.15288 -0.0584,0.327335 -0.10322,0.52292 -0.0448,0.19539 -0.0976,0.40821 -0.15804,0.6387 -0.0585,0.230295 -0.12486,0.47151 -0.19311,0.723255 -0.0663,0.247845 -0.11499,0.47541 -0.14814,0.6825 -0.0332,0.20709 -0.0507,0.388275 -0.0507,0.543105 0,0.15483 0.0237,0.296885 0.0705,0.42656 0.0468,0.129675 0.11306,0.242095 0.19691,0.33706 0.0858,0.09477 0.18689,0.169355 0.30584,0.223565 0.117,0.05421 0.24578,0.08113 0.38618,0.08113 0.16575,0 0.32374,-0.0222 0.46999,-0.06665 0.1482,-0.04465 0.29468,-0.112315 0.44483,-0.20338 0.1482,-0.09087 0.30209,-0.206015 0.46199,-0.34544 0.15795,-0.139425 0.33145,-0.305865 0.52255,-0.499305 L 302.99082,4.53644 c -0.11505,0.127725 -0.22023,0.237235 -0.31383,0.3283 -0.0917,0.09087 -0.17755,0.165455 -0.25555,0.223565 -0.076,0.05811 -0.15185,0.10048 -0.22205,0.127585 -0.0722,0.0271 -0.14451,0.04075 -0.21861,0.04075 -0.1209,0 -0.20666,-0.03295 -0.26126,-0.09864 -0.0546,-0.06591 -0.0819,-0.17251 -0.0819,-0.31954 0,-0.0388 0.0176,-0.137385 0.0525,-0.29631 0.0351,-0.15873 0.0802,-0.35027 0.13482,-0.574715 0.0527,-0.22464 0.1109,-0.46986 0.1733,-0.73506 0.0624,-0.2652 0.12101,-0.523495 0.17366,-0.775045 0.0546,-0.251745 0.0994,-0.484415 0.13446,-0.697355 0.0351,-0.21294 0.0529,-0.379385 0.0529,-0.49931 0,-0.398775 -0.10341,-0.708555 -0.30621,-0.929295 -0.2028,-0.22074 -0.50908,-0.331345 -0.92053,-0.331345 -0.39,0 -0.77031,0.128075 -1.13496,0.383525 -0.3666,0.255645 -0.73691,0.64091 -1.11326,1.155905 l -0.08,-0.02895 c 0.0351,-0.07761 0.0583,-0.15911 0.072,-0.24413 0.0136,-0.08522 0.0195,-0.166335 0.0195,-0.24375 0,-0.305955 -0.0779,-0.552985 -0.23385,-0.74077 C 298.504,0.09407 298.28361,2e-5 297.99696,2e-5 Z m -160.37378,2.25164 -3.69738,2.204795 0.34734,0.60861 c 0.45825,-0.305565 0.84239,-0.545695 1.15439,-0.71944 0.31005,-0.17394 0.54984,-0.26089 0.71754,-0.26089 0.14235,0 0.25158,0.04875 0.32373,0.14625 0.0741,0.0975 0.11121,0.25157 0.11121,0.462365 v 6.40948 c 0,0.368745 -0.0294,0.63449 -0.0899,0.7979 -0.0605,0.163215 -0.15804,0.28983 -0.28869,0.379335 -0.1326,0.0895 -0.32359,0.157005 -0.5732,0.201855 -0.24959,0.04465 -0.66883,0.08032 -1.25188,0.106645 v 0.57662 h 5.83819 v -0.57662 c -0.4056,-0.01055 -0.73115,-0.03055 -0.9788,-0.05942 -0.24765,-0.02905 -0.45244,-0.07107 -0.61624,-0.126445 -0.1638,-0.05518 -0.28853,-0.13178 -0.37628,-0.22928 -0.0858,-0.0975 -0.14619,-0.22392 -0.18129,-0.379335 -0.0332,-0.155415 -0.0507,-0.385695 -0.0507,-0.69126 v -6.74921 c 0,-0.895635 0.0157,-1.59613 0.0469,-2.10196 z m 144.10881,0 -3.69891,2.204795 0.34696,0.60861 c 0.4602,-0.305565 0.84435,-0.545695 1.1544,-0.71944 0.312,-0.17394 0.55174,-0.26089 0.71943,-0.26089 0.14236,0 0.24964,0.04875 0.32374,0.14625 0.0741,0.0975 0.11121,0.25157 0.11121,0.462365 v 6.40948 c 0,0.368745 -0.0313,0.63449 -0.0918,0.7979 -0.0605,0.163215 -0.1557,0.28983 -0.2883,0.379335 -0.13066,0.0895 -0.32209,0.157005 -0.57169,0.201855 -0.25155,0.04465 -0.66879,0.08032 -1.25379,0.106645 v 0.57662 h 5.84049 v -0.57662 c -0.4056,-0.01055 -0.73154,-0.03055 -0.9792,-0.05942 -0.24765,-0.02905 -0.45433,-0.07107 -0.61813,-0.126445 -0.16185,-0.05518 -0.28663,-0.13178 -0.37437,-0.22928 -0.0878,-0.0975 -0.14815,-0.22392 -0.18129,-0.379335 -0.0351,-0.155415 -0.0526,-0.385695 -0.0526,-0.69126 v -6.74921 c 0,-0.895635 0.0176,-1.59613 0.0487,-2.10196 z M 101.20347,4.61982 c -1.759675,0.895635 -3.15997,2.539305 -4.20049,4.93137 -1.040715,2.39187 -1.56076,5.194815 -1.56076,8.40861 0,3.192735 0.520045,5.99549 1.56076,8.408615 1.04052,2.41293 2.440815,4.06226 4.20049,4.947365 l 0.26051,-0.63223 c -1.41726,-0.916695 -2.52378,-2.49216 -3.319185,-4.72608 -0.7956,-2.233725 -1.19323,-4.89443 -1.19323,-7.98167 0,-3.14535 0.401635,-5.82334 1.205035,-8.03347 0.803595,-2.21013 1.90592,-3.773585 3.30738,-4.69028 z m 43.4572,0 -0.25137,0.63223 c 1.4001,0.916695 2.50361,2.48015 3.30701,4.69028 0.8034,2.21013 1.20504,4.88812 1.20504,8.03347 0,3.08724 -0.3995,5.747945 -1.19705,7.98167 -0.7995,2.23392 -1.9032,3.809385 -3.315,4.72608 l 0.25137,0.63223 c 1.76475,-0.885105 3.16877,-2.534435 4.20812,-4.947365 1.0413,-2.413125 1.5619,-5.21588 1.5619,-8.408615 0,-3.213795 -0.5206,-6.01674 -1.5619,-8.40861 -1.03935,-2.392065 -2.44337,-4.035735 -4.20812,-4.93137 z m 100.65124,0 c -1.76085,0.895635 -3.16117,2.539305 -4.20051,4.93137 -1.04131,2.39187 -1.5619,5.194815 -1.5619,8.40861 0,3.192735 0.52059,5.99549 1.5619,8.408615 1.03935,2.41293 2.43966,4.06226 4.20051,4.947365 l 0.26126,-0.63223 c -1.41765,-0.916695 -2.52511,-2.49216 -3.32071,-4.72608 -0.7956,-2.233725 -1.19361,-4.89443 -1.19361,-7.98167 0,-3.14535 0.4016,-5.82334 1.20695,-8.03347 0.8034,-2.21013 1.90532,-3.773585 3.30737,-4.69028 z m 43.45756,0 -0.25326,0.63223 c 1.40205,0.916695 2.5036,2.48015 3.307,4.69028 0.80341,2.21013 1.20504,4.88812 1.20504,8.03347 0,3.08724 -0.39754,5.747945 -1.19704,7.98167 -0.79755,2.23392 -1.9032,3.809385 -3.315,4.72608 l 0.25326,0.63223 c 1.76475,-0.885105 3.16682,-2.534435 4.20812,-4.947365 1.0413,-2.413125 1.56,-5.21588 1.56,-8.408615 0,-3.213795 -0.5187,-6.01674 -1.56,-8.40861 -1.04129,-2.392065 -2.44337,-4.035735 -4.20812,-4.93137 z m 193.3269,6.387015 c -0.1599,0 -0.31007,0.0213 -0.45437,0.06399 -0.14235,0.0425 -0.28641,0.10946 -0.43266,0.20033 -0.1443,0.09107 -0.29865,0.20711 -0.45855,0.348485 -0.1599,0.14118 -0.33707,0.310535 -0.53207,0.50807 l 0.40142,0.37781 c 0.117,-0.12012 0.22063,-0.224715 0.31423,-0.31383 0.0936,-0.08892 0.17946,-0.1626 0.25746,-0.220515 0.0799,-0.05811 0.15598,-0.10196 0.22813,-0.131015 0.0702,-0.02905 0.14237,-0.0434 0.21062,-0.0434 0.22815,0 0.34314,0.141345 0.34314,0.4239 0,0.100815 -0.0117,0.230505 -0.0351,0.389235 -0.0234,0.15873 -0.0606,0.338625 -0.10931,0.54006 l -0.87179,3.786885 h 1.13878 l 0.64935,-2.91548 c 0.039,-0.17823 0.0997,-0.357405 0.18357,-0.53739 0.0839,-0.18018 0.17917,-0.35225 0.28642,-0.51683 0.1092,-0.16458 0.22811,-0.31937 0.35876,-0.464645 0.1287,-0.145275 0.2615,-0.270965 0.398,-0.377435 0.13455,-0.10647 0.26918,-0.18978 0.40373,-0.24984 0.1326,-0.06006 0.25738,-0.09027 0.37438,-0.09027 0.20085,0 0.3471,0.0564 0.43875,0.16872 0.0897,0.11232 0.13634,0.288395 0.13634,0.528635 0,0.10062 -0.0134,0.2274 -0.0388,0.380475 -0.0254,0.15288 -0.0607,0.326955 -0.10361,0.52254 -0.0448,0.195585 -0.0972,0.40821 -0.15767,0.6387 -0.0604,0.230295 -0.1248,0.47151 -0.195,0.723255 -0.0643,0.247845 -0.11539,0.475215 -0.14854,0.6825 -0.0312,0.20709 -0.0487,0.38808 -0.0487,0.543105 0,0.15483 0.0236,0.297265 0.0705,0.42694 0.0468,0.129675 0.11306,0.24191 0.19691,0.33668 0.0858,0.09497 0.18726,0.169355 0.30621,0.223565 0.117,0.05421 0.2454,0.0815 0.3858,0.0815 0.16575,0 0.32179,-0.02235 0.46999,-0.06703 0.14625,-0.04445 0.29469,-0.111935 0.44484,-0.203 0.1482,-0.09106 0.30209,-0.206395 0.46199,-0.34582 0.15795,-0.139425 0.33144,-0.30567 0.52254,-0.499305 l -0.40142,-0.383525 c -0.11505,0.12792 -0.22061,0.23743 -0.31421,0.3283 -0.0917,0.09107 -0.17718,0.165455 -0.25517,0.223565 -0.078,0.05811 -0.15224,0.10048 -0.22244,0.127585 -0.0721,0.0271 -0.14452,0.04075 -0.21862,0.04075 -0.1209,0 -0.20666,-0.03275 -0.26126,-0.09864 -0.0546,-0.06572 -0.0819,-0.172315 -0.0819,-0.31954 0,-0.0386 0.0178,-0.137575 0.053,-0.296305 0.0351,-0.15873 0.0799,-0.35046 0.13252,-0.5751 0.0546,-0.224445 0.11317,-0.4691 0.17558,-0.7343 0.0624,-0.265395 0.11869,-0.524065 0.17329,-0.77581 0.0546,-0.25155 0.0993,-0.48365 0.13445,-0.69659 0.0332,-0.21294 0.051,-0.379765 0.051,-0.49969 0,-0.39897 -0.10152,-0.708555 -0.30432,-0.929295 -0.2028,-0.22074 -0.51104,-0.330965 -0.92054,-0.330965 -0.39195,0 -0.77031,0.1275 -1.13496,0.383145 -0.3666,0.255645 -0.7369,0.64091 -1.11325,1.155905 l -0.08,-0.02895 c 0.0332,-0.07742 0.0583,-0.158915 0.072,-0.24413 0.0136,-0.08502 0.0198,-0.16614 0.0198,-0.24375 0,-0.30576 -0.0782,-0.552605 -0.23423,-0.74039 -0.15795,-0.187785 -0.37832,-0.281835 -0.66497,-0.281835 z m -411.09314,0.66917 -3.698525,2.204795 0.348105,0.608615 c 0.45825,-0.305565 0.842795,-0.545125 1.153625,-0.719065 0.31083,-0.17394 0.55039,-0.26089 0.719065,-0.26089 0.142155,0 0.2504,0.04875 0.32411,0.14625 0.07371,0.0975 0.11083,0.25157 0.11083,0.462365 v 6.4091 c 0,0.368745 -0.03055,0.63487 -0.09103,0.79828 -0.06065,0.16341 -0.15687,0.289835 -0.28869,0.37934 -0.131625,0.0897 -0.32263,0.15662 -0.572815,0.20147 -0.250185,0.04465 -0.66784,0.08032 -1.252645,0.106645 v 0.577 h 5.840095 v -0.577 c -0.4056,-0.01055 -0.7323,-0.03035 -0.97995,-0.05942 -0.24765,-0.02905 -0.453015,-0.07088 -0.61623,-0.126065 -0.16341,-0.05538 -0.288755,-0.13178 -0.37553,-0.22928 -0.08697,-0.0975 -0.14735,-0.22392 -0.18167,-0.379335 -0.03415,-0.155415 -0.05142,-0.386075 -0.05142,-0.69164 v -6.74921 c 0,-0.895635 0.01565,-1.59613 0.04725,-2.10196 z m 36.04072,0 -3.69852,2.204795 0.34772,0.608615 c 0.45825,-0.305565 0.8426,-0.545125 1.15362,-0.719065 0.31083,-0.17394 0.55077,-0.26089 0.71945,-0.26089 0.14215,0 0.25002,0.04875 0.32373,0.14625 0.0737,0.0975 0.11083,0.25157 0.11083,0.462365 v 6.4091 c 0,0.368745 -0.0304,0.63487 -0.091,0.79828 -0.0605,0.16341 -0.15649,0.289835 -0.28831,0.37934 -0.13162,0.0897 -0.323,0.15662 -0.57319,0.20147 -0.25018,0.04465 -0.66784,0.08032 -1.25265,0.106645 v 0.577 h 5.84048 v -0.577 c -0.4056,-0.01055 -0.7323,-0.03035 -0.97995,-0.05942 -0.24765,-0.02905 -0.4534,-0.07088 -0.61661,-0.126065 -0.16341,-0.05538 -0.28837,-0.13178 -0.37515,-0.22928 -0.087,-0.0975 -0.14773,-0.22392 -0.18205,-0.379335 -0.0341,-0.155415 -0.0514,-0.386075 -0.0514,-0.69164 v -6.74921 c 0,-0.895635 0.016,-1.59613 0.0476,-2.10196 z m 108.06809,0 -3.69891,2.204795 0.34696,0.608615 c 0.45825,-0.305565 0.84433,-0.545125 1.15438,-0.719065 0.31005,-0.17394 0.55017,-0.26089 0.71982,-0.26089 0.14235,0 0.24925,0.04875 0.32335,0.14625 0.0741,0.0975 0.11123,0.25157 0.11123,0.462365 v 6.4091 c 0,0.368745 -0.0309,0.63487 -0.0914,0.79828 -0.0605,0.16341 -0.1561,0.289835 -0.2887,0.37934 -0.13065,0.0897 -0.32163,0.15662 -0.57318,0.20147 -0.2496,0.04465 -0.66689,0.08032 -1.25189,0.106645 v 0.577 h 5.8401 v -0.577 c -0.4056,-0.01055 -0.73306,-0.03035 -0.98071,-0.05942 -0.24765,-0.02905 -0.45244,-0.07088 -0.61624,-0.126065 -0.16185,-0.05538 -0.28858,-0.13178 -0.37438,-0.22928 -0.0877,-0.0975 -0.14852,-0.22392 -0.18167,-0.379335 -0.0351,-0.155415 -0.0526,-0.386075 -0.0526,-0.69164 v -6.74921 c 0,-0.895635 0.0156,-1.59613 0.0487,-2.10196 z m 36.03996,0 -3.69891,2.204795 0.34887,0.608615 c 0.45825,-0.305565 0.84242,-0.545125 1.15247,-0.719065 0.312,-0.17394 0.55175,-0.26089 0.71945,-0.26089 0.14235,0 0.24964,0.04875 0.32374,0.14625 0.0741,0.0975 0.11121,0.25157 0.11121,0.462365 v 6.4091 c 0,0.368745 -0.0314,0.63487 -0.0918,0.79828 -0.0605,0.16341 -0.15572,0.289835 -0.28832,0.37934 -0.13065,0.0897 -0.32168,0.15662 -0.57128,0.20147 -0.25155,0.04465 -0.66918,0.08032 -1.25418,0.106645 v 0.577 h 5.84049 v -0.577 c -0.4056,-0.01055 -0.73116,-0.03035 -0.97881,-0.05942 -0.24765,-0.02905 -0.45438,-0.07088 -0.61623,-0.126065 -0.1638,-0.05538 -0.28892,-0.13178 -0.37667,-0.22928 -0.0858,-0.0975 -0.14814,-0.22392 -0.18129,-0.379335 -0.0351,-0.155415 -0.0507,-0.386075 -0.0507,-0.69164 v -6.74921 c 0,-0.895635 0.0156,-1.59613 0.0469,-2.10196 z m 176.81814,1.49449 c -2.16645,1.85445 -3.88428,4.62066 -5.15568,8.298165 -1.27335,3.67731 -1.90887,7.781595 -1.90887,12.31242 0,4.462575 0.63552,8.560115 1.90887,12.293005 1.2714,3.73269 2.98923,6.52125 5.15568,8.36595 l 0.37059,-0.585 c -1.87005,-1.9032 -3.31113,-4.65455 -4.32122,-8.25894 -1.01205,-3.60379 -1.51888,-7.53944 -1.51888,-11.807015 0,-4.36761 0.50712,-8.32163 1.52307,-11.862245 1.014,-3.54042 2.45283,-6.261505 4.31703,-8.16334 z m 43.6762,0 -0.37058,0.593 c 1.85835,1.901835 3.29767,4.62292 4.31362,8.16334 1.0179,3.540615 1.52687,7.494635 1.52687,11.862245 0,4.267575 -0.5072,8.203225 -1.51925,11.807015 -1.0101,3.60439 -2.45119,6.35574 -4.32124,8.25894 l 0.37058,0.585 c 2.1645,-1.8447 3.8843,-4.63326 5.15571,-8.36595 1.27335,-3.73289 1.90924,-7.83043 1.90924,-12.293005 0,-4.530825 -0.63589,-8.63511 -1.90924,-12.31242 -1.27141,-3.677505 -2.9912,-6.443715 -5.15571,-8.298165 z m -7.15634,2.160995 -3.69928,2.2048 0.34924,0.60861 c 0.45825,-0.305565 0.84244,-0.545315 1.15249,-0.71906 0.312,-0.17394 0.55173,-0.26089 0.71943,-0.26089 0.14235,0 0.25159,0.04875 0.32374,0.14625 0.0741,0.0975 0.11121,0.251565 0.11121,0.46236 v 6.409105 c 0,0.368745 -0.0294,0.63487 -0.0899,0.79828 -0.0624,0.163215 -0.15803,0.28983 -0.28868,0.379335 -0.13261,0.08951 -0.3236,0.156625 -0.5732,0.201475 -0.25155,0.04465 -0.6688,0.08031 -1.2538,0.10664 V 26.2454 h 5.84012 v -0.577005 c -0.4056,-0.01055 -0.73117,-0.03055 -0.97882,-0.05942 -0.24765,-0.02905 -0.45242,-0.07106 -0.61622,-0.126445 -0.1638,-0.05519 -0.28855,-0.131395 -0.3763,-0.228895 -0.0858,-0.0975 -0.14619,-0.22392 -0.18129,-0.379335 -0.0331,-0.155415 -0.0507,-0.386075 -0.0507,-0.69164 v -6.74921 c 0,-0.895635 0.0156,-1.59613 0.0469,-2.101965 z M 79.588185,17.437265 v 1.05117 h 9.73629 v -1.05117 z m 36.040345,0 v 1.05117 h 9.73629 v -1.05117 z m 108.06769,0 v 1.05117 h 9.73629 v -1.05117 z m 36.03998,0 v 1.05117 h 9.73627 v -1.05117 z m -129.59465,0.12035 v 0.975 h 13.84424 v -0.975 z m 144.10424,0 v 0.975 h 13.84501 v -0.975 z M 132.58057,22.99324 c -0.39975,0 -0.76642,0.11206 -1.10182,0.33592 -0.33462,0.22386 -0.73371,0.578205 -1.19742,1.062975 l 0.45056,0.44256 c 0.31609,-0.35295 0.56512,-0.596895 0.74686,-0.73125 0.18174,-0.13416 0.35498,-0.201475 0.51683,-0.201475 0.1482,0 0.25543,0.04745 0.32563,0.14244 0.0683,0.09477 0.10131,0.24738 0.10131,0.458175 0,0.273975 -0.0567,0.66379 -0.17367,1.16962 l -1.15362,5.010585 h 1.36804 l 0.75106,-3.42202 c 0.1092,-0.48477 0.24757,-0.89569 0.40942,-1.232845 0.1638,-0.337155 0.39005,-0.68877 0.6806,-1.05498 0.2886,-0.366015 0.56149,-0.632335 0.81694,-0.79828 0.25545,-0.165945 0.48356,-0.2487 0.68441,-0.2487 0.2847,0 0.49348,0.0804 0.62803,0.241085 0.13455,0.16068 0.20072,0.430615 0.20072,0.810085 0,0.16848 -0.0196,0.370035 -0.0587,0.604425 -0.039,0.23439 -0.11474,0.596555 -0.22394,1.08659 l -0.91064,4.01464 h 1.36881 l 0.71754,-3.45363 c 0.1053,-0.490035 0.24764,-0.904765 0.42314,-1.24465 0.17745,-0.339885 0.40555,-0.68476 0.6844,-1.035175 0.27885,-0.350415 0.54402,-0.608725 0.79752,-0.77467 0.2535,-0.165945 0.48953,-0.2487 0.71183,-0.2487 0.273,0 0.47209,0.0804 0.59299,0.241085 0.1209,0.16068 0.18129,0.42261 0.18129,0.78609 0,0.147615 -0.0197,0.339885 -0.0587,0.577005 -0.041,0.236925 -0.12271,0.6031 -0.24946,1.0984 l -0.34735,1.367285 c -0.1755,0.66378 -0.26126,1.166925 -0.26126,1.509345 -1e-5,0.379275 0.10336,0.69161 0.30811,0.93653 0.20475,0.245115 0.47988,0.36753 0.82113,0.36753 0.4329,0 0.81704,-0.113515 1.15439,-0.340105 0.33735,-0.22659 0.73321,-0.57948 1.18561,-1.05879 l -0.45055,-0.44256 c -0.32565,0.36348 -0.57928,0.609775 -0.75868,0.73887 -0.1794,0.129085 -0.34706,0.193475 -0.50501,0.193475 -0.14821,0 -0.25544,-0.0473 -0.32564,-0.14206 -0.0682,-0.09496 -0.10131,-0.24738 -0.10131,-0.458175 0,-0.23712 0.0702,-0.64295 0.21252,-1.217225 l 0.51492,-2.070355 c 0.1521,-0.61113 0.22814,-1.082805 0.22814,-1.41489 0,-0.505635 -0.1309,-0.898 -0.3961,-1.17724 -0.26325,-0.27924 -0.6357,-0.41894 -1.12125,-0.41894 -0.48555,0 -0.95149,0.156615 -1.40194,0.46998 -0.45045,0.31356 -0.9027,0.791975 -1.3551,1.434695 0.004,-0.0421 0.008,-0.08197 0.008,-0.11883 v -0.11045 c 0,-0.54268 -0.13246,-0.957605 -0.39571,-1.244645 -0.26325,-0.287235 -0.64739,-0.43075 -1.15439,-0.43075 -0.48945,0 -0.97522,0.17517 -1.45297,0.525585 -0.4797,0.350415 -0.96134,0.88629 -1.44689,1.607985 l -0.0952,-0.0316 c 0.1209,-0.326625 0.18319,-0.63476 0.18319,-0.924725 0,-0.35295 -0.0976,-0.638525 -0.28869,-0.857315 -0.19305,-0.218595 -0.45417,-0.32792 -0.78762,-0.32792 z m 144.10881,0 c -0.39975,0 -0.76838,0.11206 -1.10183,0.33592 -0.3354,0.22386 -0.73527,0.578205 -1.19741,1.062975 l 0.45055,0.44256 c 0.3159,-0.35295 0.56357,-0.596895 0.74686,-0.73125 0.18136,-0.13416 0.35303,-0.201475 0.51683,-0.201475 0.1482,0 0.25549,0.04745 0.32374,0.14244 0.0683,0.09477 0.10322,0.24738 0.10322,0.458175 0,0.273975 -0.0586,0.66379 -0.17369,1.16962 l -1.15438,5.010585 h 1.36728 l 0.75067,-3.42202 c 0.11115,-0.48477 0.24753,-0.89569 0.41133,-1.232845 0.1638,-0.337155 0.39006,-0.68877 0.68061,-1.05498 0.2886,-0.366015 0.56149,-0.632335 0.81694,-0.79828 0.25545,-0.165945 0.48356,-0.2487 0.68441,-0.2487 0.28275,0 0.49348,0.0804 0.62803,0.241085 0.13455,0.16068 0.20072,0.430615 0.20072,0.810085 0,0.16848 -0.0193,0.370035 -0.0583,0.604425 -0.041,0.23439 -0.11507,0.596555 -0.22622,1.08659 L 279.55,30.68279 h 1.36691 l 0.71946,-3.45363 c 0.1053,-0.490035 0.24568,-0.904765 0.42313,-1.24465 0.1755,-0.339885 0.40365,-0.68476 0.6825,-1.035175 0.2808,-0.350415 0.54629,-0.608725 0.79979,-0.77467 0.25155,-0.165945 0.4892,-0.2487 0.70955,-0.2487 0.27494,0 0.47209,0.0804 0.59299,0.241085 0.12285,0.16068 0.1832,0.42261 0.1832,0.78609 0,0.147615 -0.0196,0.339885 -0.0606,0.577005 -0.039,0.236925 -0.12275,0.6031 -0.24755,1.0984 l -0.34888,1.367285 c -0.17354,0.66378 -0.25935,1.166925 -0.25935,1.509345 0,0.379275 0.10141,0.69161 0.30811,0.93653 0.20475,0.245115 0.47755,0.36753 0.82075,0.36753 0.4329,0 0.81704,-0.113515 1.15439,-0.340105 0.33735,-0.22659 0.73126,-0.57948 1.18561,-1.05879 l -0.45054,-0.44256 c -0.3276,0.36348 -0.58085,0.609775 -0.7583,0.73887 -0.1794,0.129085 -0.34936,0.193475 -0.50731,0.193475 -0.14625,0 -0.2551,-0.0473 -0.32335,-0.14206 -0.0682,-0.09496 -0.10358,-0.24738 -0.10358,-0.458175 0,-0.23712 0.0721,-0.64295 0.21442,-1.217225 l 0.51302,-2.070355 c 0.15405,-0.61113 0.23003,-1.082805 0.23003,-1.41489 0,-0.505635 -0.13247,-0.898 -0.39572,-1.17724 -0.26325,-0.27924 -0.63765,-0.41894 -1.12125,-0.41894 -0.48555,0 -0.95376,0.156615 -1.40421,0.46998 -0.45045,0.31356 -0.90075,0.791975 -1.3551,1.434695 0.006,-0.0421 0.008,-0.08197 0.008,-0.11883 V 24.67664 c 0,-0.542685 -0.13055,-0.95761 -0.3938,-1.24465 -0.26325,-0.287235 -0.64933,-0.43075 -1.15438,-0.43075 -0.48945,0 -0.9748,0.17517 -1.4545,0.525585 -0.4797,0.350415 -0.96139,0.88629 -1.44499,1.607985 l -0.0956,-0.0316 c 0.1209,-0.326625 0.18129,-0.63476 0.18129,-0.924725 0,-0.35295 -0.0956,-0.638525 -0.2887,-0.857315 -0.1911,-0.218595 -0.45421,-0.32792 -0.78571,-0.32792 z M 5.492373,27.50871 c -0.7164301,0 -1.3489247,0.129155 -1.8966797,0.387335 -0.54795,0.25818 -0.9721512,0.624155 -1.2724512,1.098395 -0.3003,0.47424 -0.4501759,1.02213 -0.4501759,1.64379 0,0.389805 0.076017,0.743075 0.2288967,1.05917 0.152685,0.31629 0.3584312,0.60167 0.6166112,0.857315 0.25818,0.25545 0.5819532,0.51503 0.9719532,0.778475 0.431925,0.28977 0.7626327,0.54662 0.9917577,0.77048 0.229125,0.22386 0.4004845,0.45853 0.5137795,0.703445 0.113295,0.24492 0.169863,0.52815 0.169863,0.8497 0,0.69537 -0.2053655,1.23799 -0.6162304,1.62779 -0.41106,0.39 -0.9749665,0.58462 -1.6913965,0.58462 -0.62166,0 -1.0815217,-0.15642 -1.3790917,-0.46998 -0.297765,-0.31356 -0.4463672,-0.7916 -0.4463672,-1.43431 H 0.47378897 L 0,38.138115 c 0.442455,0.12129 0.94414125,0.22114 1.5051562,0.30011 0.5610151,0.0792 1.0839897,0.11883 1.5687596,0.11883 0.71643,0 1.3552746,-0.13589 1.9164846,-0.40713 0.5610151,-0.27125 0.9957671,-0.65579 1.3040626,-1.15363 0.3080995,-0.49783 0.462363,-1.06848 0.462363,-1.7112 0,-0.41632 -0.064582,-0.782305 -0.1934765,-1.0984 -0.12909,-0.31629 -0.329556,-0.61515 -0.600996,-0.89692 C 5.6911085,33.0078 5.2974735,32.68784 4.7813085,32.329625 4.1912385,31.92383 3.7919516,31.57241 3.5838866,31.274645 3.3756266,30.977075 3.2715819,30.63035 3.2715819,30.23528 c 0,-0.379275 0.087144,-0.72307 0.2608887,-1.031365 0.17394,-0.308295 0.4267819,-0.551665 0.7586719,-0.73087 0.33189,-0.17901 0.716238,-0.268885 1.153623,-0.268885 0.358215,0 0.645639,0.05549 0.861504,0.16605 0.21606,0.11076 0.382139,0.29375 0.498164,0.5492 0.11583,0.25545 0.184223,0.60726 0.205283,1.05498 h 0.758672 L 8.210947,27.94365 C 7.710577,27.785505 7.2534485,27.673445 6.8398535,27.60773 6.4262585,27.54182 5.977143,27.50871 5.492373,27.50871 Z m 428.417667,0 -3.6974,2.204795 0.34736,0.60861 c 0.45825,-0.305565 0.84238,-0.545315 1.15438,-0.71906 0.31005,-0.17394 0.54984,-0.26089 0.71754,-0.26089 0.14235,0 0.25153,0.04875 0.32563,0.14625 0.0722,0.0975 0.10932,0.25157 0.10932,0.462365 v 6.409485 c 0,0.36874 -0.0294,0.63449 -0.0899,0.7979 -0.0605,0.16321 -0.15803,0.28983 -0.28868,0.37934 -0.1326,0.0895 -0.3236,0.15661 -0.5732,0.20147 -0.2496,0.0447 -0.66688,0.0803 -1.25188,0.10664 v 0.577 h 5.84049 v -0.577 c -0.4056,-0.0105 -0.73346,-0.0302 -0.98111,-0.059 -0.24765,-0.0291 -0.45242,-0.0714 -0.61622,-0.12683 -0.1638,-0.0552 -0.28854,-0.1314 -0.37629,-0.2289 -0.0858,-0.0975 -0.14619,-0.22392 -0.18129,-0.37933 -0.0332,-0.15542 -0.0507,-0.3857 -0.0507,-0.69126 V 29.61108 c 0,-0.895635 0.0156,-1.59651 0.0469,-2.10234 z m -56.94,1.209225 v 4.552035 h -4.30753 v 1.05117 h 4.30753 v 4.552035 h 1.12125 V 34.32114 h 4.30751 v -1.05117 h -4.30751 v -4.552035 z m 29.75312,0.750675 -0.7899,0.790285 3.59607,3.548465 -3.61169,3.603695 0.73544,0.74267 3.65015,-3.579695 3.54124,3.611315 0.7899,-0.78991 -3.54732,-3.588075 3.53933,-3.60369 -0.74268,-0.73506 -3.58047,3.57208 z M 39.622325,30.733065 c -0.4056,0 -0.769422,0.10659 -1.090782,0.31992 -0.32136,0.213525 -0.724272,0.57334 -1.208847,1.078975 l 0.450175,0.44256 c 0.316095,-0.35295 0.564931,-0.596515 0.746865,-0.73087 0.18174,-0.134355 0.354179,-0.201475 0.517589,-0.201475 0.147615,0 0.255472,0.0473 0.324112,0.14206 0.06844,0.09497 0.102831,0.24776 0.102831,0.458555 0,0.273975 -0.05822,0.66379 -0.174053,1.16962 l -1.153622,5.010205 h 1.366903 l 0.750674,-3.42202 c 0.11076,-0.490035 0.253003,-0.90203 0.426943,-1.23665 0.173745,-0.334425 0.404406,-0.6795 0.691641,-1.03518 0.28704,-0.355485 0.558447,-0.621805 0.813897,-0.79828 0.255645,-0.176475 0.493929,-0.264695 0.715254,-0.264695 0.273975,0 0.471522,0.08002 0.592617,0.2407 0.12129,0.160685 0.18205,0.422995 0.18205,0.786475 0,0.14742 -0.02002,0.34008 -0.05942,0.577005 -0.03958,0.23712 -0.122721,0.6031 -0.249081,1.098395 l -0.347724,1.36729 c -0.17394,0.66378 -0.260889,1.16673 -0.260889,1.50935 0,0.37927 0.102966,0.69161 0.308496,0.93653 0.20553,0.24492 0.479474,0.36753 0.821894,0.36753 0.431925,0 0.816469,-0.11206 1.153624,-0.33592 0.337155,-0.22386 0.732435,-0.57821 1.185615,-1.06298 l -0.450557,-0.44256 c -0.326625,0.36348 -0.579468,0.60978 -0.758673,0.73887 -0.17901,0.12909 -0.347636,0.19386 -0.505781,0.19386 -0.14742,0 -0.255666,-0.0473 -0.324111,-0.14206 -0.06844,-0.095 -0.102832,-0.24776 -0.102832,-0.45856 0,-0.23712 0.07113,-0.64295 0.213282,-1.21722 l 0.51416,-2.07036 c 0.152685,-0.611325 0.228897,-1.083 0.228897,-1.41489 0,-0.500565 -0.131888,-0.891655 -0.395333,-1.17343 -0.26325,-0.28197 -0.639975,-0.422755 -1.13001,-0.422755 -0.4953,0 -0.975688,0.17517 -1.441933,0.52559 -0.466245,0.350215 -0.957947,0.88921 -1.474307,1.616365 l -0.09445,-0.032 c 0.126555,-0.34242 0.189669,-0.653105 0.189669,-0.932345 0,-0.35295 -0.09642,-0.6391 -0.288692,-0.857695 -0.192465,-0.218595 -0.454203,-0.32792 -0.786093,-0.32792 z m 144.108425,0 c -0.4056,0 -0.77022,0.10659 -1.09002,0.31992 -0.32175,0.213525 -0.7252,0.57334 -1.21075,1.078975 l 0.45017,0.44256 c 0.31785,-0.35295 0.56552,-0.596515 0.74687,-0.73087 0.1833,-0.134355 0.35494,-0.201475 0.51873,-0.201475 0.1482,0 0.25548,0.0473 0.32373,0.14206 0.0683,0.09497 0.1036,0.24776 0.1036,0.458555 0,0.273975 -0.0586,0.66379 -0.17367,1.16962 l -1.15439,5.010205 h 1.36691 l 0.75067,-3.42202 c 0.11115,-0.490035 0.25339,-0.90203 0.42694,-1.23665 0.17355,-0.334425 0.40385,-0.6795 0.6905,-1.03518 0.2886,-0.355485 0.55959,-0.621805 0.81504,-0.79828 0.25545,-0.176475 0.49334,-0.264695 0.71564,-0.264695 0.273,0 0.47014,0.08002 0.59299,0.2407 0.1209,0.160685 0.18129,0.422995 0.18129,0.786475 0,0.14742 -0.0196,0.34008 -0.0606,0.577005 -0.039,0.23712 -0.12081,0.6031 -0.24756,1.098395 l -0.34925,1.36729 c -0.17355,0.66378 -0.25937,1.16673 -0.25937,1.50935 0,0.37927 0.10142,0.69161 0.30811,0.93653 0.20475,0.24492 0.47989,0.36753 0.82114,0.36753 0.4329,0 0.81705,-0.11206 1.15439,-0.33592 0.33735,-0.22386 0.73321,-0.57821 1.1856,-1.06298 l -0.45055,-0.44256 c -0.32759,0.36348 -0.57926,0.60978 -0.75866,0.73887 -0.1794,0.12909 -0.34898,0.19386 -0.50693,0.19386 -0.14625,0 -0.25549,-0.0473 -0.32373,-0.14206 -0.0683,-0.095 -0.10131,-0.24776 -0.10131,-0.45856 0,-0.23712 0.0702,-0.64295 0.21252,-1.21722 l 0.51302,-2.07036 c 0.15405,-0.611325 0.23005,-1.083 0.23005,-1.41489 0,-0.500565 -0.13247,-0.891655 -0.39572,-1.17343 -0.26325,-0.28197 -0.6398,-0.422755 -1.12925,-0.422755 -0.4953,0 -0.97703,0.17517 -1.44308,0.52559 -0.46605,0.350215 -0.95718,0.88921 -1.47393,1.616365 l -0.0937,-0.032 c 0.12675,-0.34242 0.18891,-0.653105 0.18891,-0.932345 0,-0.35295 -0.0953,-0.6391 -0.28831,-0.857695 -0.19305,-0.218595 -0.45459,-0.32792 -0.78609,-0.32792 z m 144.10689,0 c -0.4056,0 -0.76826,0.10659 -1.09001,0.31992 -0.32175,0.213525 -0.72329,0.57334 -1.20884,1.078975 l 0.45055,0.44256 c 0.3159,-0.35295 0.56552,-0.596515 0.74687,-0.73087 0.18135,-0.134355 0.35494,-0.201475 0.51874,-0.201475 0.14624,0 0.25509,0.0473 0.32334,0.14206 0.0683,0.09497 0.10168,0.24776 0.10168,0.458555 0,0.273975 -0.0567,0.66379 -0.17367,1.16962 l -1.15247,5.010205 h 1.36689 l 0.75067,-3.42202 c 0.1092,-0.490035 0.25183,-0.90203 0.42733,-1.23665 0.17355,-0.334425 0.40347,-0.6795 0.69012,-1.03518 0.28665,-0.355485 0.55959,-0.621805 0.81504,-0.79828 0.25545,-0.176475 0.49339,-0.264695 0.71374,-0.264695 0.27495,0 0.4721,0.08002 0.593,0.2407 0.1209,0.160685 0.18129,0.422995 0.18129,0.786475 0,0.14742 -0.0197,0.34008 -0.0587,0.577005 -0.039,0.23712 -0.12271,0.6031 -0.24946,1.098395 l -0.34696,1.36729 c -0.17355,0.66378 -0.26129,1.16673 -0.26129,1.50935 0,0.37927 0.103,0.69161 0.30775,0.93653 0.2067,0.24492 0.47984,0.36753 0.82304,0.36753 0.43095,0 0.81703,-0.11206 1.15438,-0.33592 0.33735,-0.22386 0.73127,-0.57821 1.18562,-1.06298 l -0.45057,-0.44256 c -0.3276,0.36348 -0.58078,0.60978 -0.76018,0.73887 -0.17745,0.12909 -0.34708,0.19386 -0.50504,0.19386 -0.14819,0 -0.25546,-0.0473 -0.32371,-0.14206 -0.0683,-0.095 -0.10361,-0.24776 -0.10361,-0.45856 0,-0.23712 0.0721,-0.64295 0.21442,-1.21722 l 0.51303,-2.07036 c 0.1521,-0.611325 0.23004,-1.083 0.23004,-1.41489 0,-0.500565 -0.13246,-0.891655 -0.39571,-1.17343 -0.26325,-0.28197 -0.63976,-0.422755 -1.13116,-0.422755 -0.4953,0 -0.97475,0.17517 -1.4408,0.52559 -0.46605,0.350215 -0.95754,0.88921 -1.47429,1.616365 l -0.0956,-0.032 c 0.12675,-0.34242 0.19118,-0.653105 0.19118,-0.932345 0,-0.35295 -0.0976,-0.6391 -0.28868,-0.857695 -0.19305,-0.218595 -0.45457,-0.32792 -0.78802,-0.32792 z m 28.7667,0 c -0.39975,0 -0.76838,0.11186 -1.10183,0.335915 -0.3354,0.22386 -0.73527,0.578405 -1.19742,1.06298 l 0.45057,0.44256 c 0.3159,-0.35295 0.56355,-0.596515 0.74685,-0.73087 0.18135,-0.134355 0.35303,-0.201475 0.51683,-0.201475 0.1482,0 0.25549,0.0473 0.32374,0.14206 0.0683,0.09497 0.10321,0.24776 0.10321,0.458555 0,0.273975 -0.0586,0.66379 -0.17367,1.16962 l -1.1544,5.010205 h 1.36691 l 0.75106,-3.42202 c 0.11115,-0.48477 0.24752,-0.89569 0.41132,-1.232845 0.1638,-0.33735 0.3901,-0.68877 0.6787,-1.05498 0.29055,-0.36621 0.56339,-0.632335 0.81884,-0.79828 0.25545,-0.165945 0.4836,-0.2487 0.6825,-0.2487 0.2847,0 0.4954,0.08002 0.62995,0.2407 0.1326,0.160685 0.20071,0.430815 0.20071,0.81009 0,0.168675 -0.0193,0.37022 -0.0583,0.604805 -0.041,0.23439 -0.11508,0.59675 -0.22623,1.08659 l -0.90874,4.01464 h 1.36691 l 0.71945,-3.45363 c 0.1053,-0.49004 0.24568,-0.90496 0.42313,-1.24465 0.1755,-0.339885 0.40366,-0.684955 0.68251,-1.035175 0.27884,-0.350415 0.54592,-0.608725 0.79941,-0.77467 0.25156,-0.165945 0.48957,-0.2487 0.70992,-0.2487 0.27495,0 0.4721,0.08002 0.59299,0.2407 0.12091,0.160685 0.18321,0.422995 0.18321,0.786475 0,0.14742 -0.0215,0.34008 -0.0606,0.577005 -0.039,0.23712 -0.12271,0.6031 -0.24946,1.098395 l -0.34733,1.36729 c -0.17355,0.66378 -0.26126,1.16673 -0.26126,1.50935 0,0.37927 0.10334,0.69161 0.3081,0.93653 0.2067,0.24492 0.47983,0.36753 0.82303,0.36753 0.4329,0 0.81705,-0.11314 1.1544,-0.33973 0.33735,-0.22659 0.73125,-0.57966 1.1856,-1.05917 l -0.45054,-0.44256 c -0.3276,0.36348 -0.58118,0.60978 -0.76058,0.73887 -0.17745,0.12909 -0.34706,0.19386 -0.50501,0.19386 -0.1482,0 -0.25549,-0.0473 -0.32374,-0.14206 -0.0682,-0.095 -0.10322,-0.24776 -0.10322,-0.45856 0,-0.23712 0.0721,-0.64295 0.21443,-1.21722 l 0.51302,-2.07036 c 0.1521,-0.611325 0.23004,-1.083 0.23004,-1.41489 0,-0.50583 -0.13246,-0.898 -0.39571,-1.17724 -0.26325,-0.27924 -0.63765,-0.418945 -1.12125,-0.418945 -0.48555,0 -0.95378,0.156805 -1.40423,0.470365 -0.45045,0.31356 -0.9027,0.791595 -1.3551,1.434315 0.006,-0.0421 0.008,-0.08159 0.008,-0.118445 V 32.41646 c 0,-0.54249 -0.13055,-0.95741 -0.3938,-1.244645 -0.2652,-0.28704 -0.64933,-0.430755 -1.15438,-0.430755 -0.48945,0 -0.9752,0.17517 -1.4549,0.52559 -0.4797,0.350215 -0.96133,0.88667 -1.44688,1.608365 l -0.0933,-0.0316 c 0.1209,-0.326625 0.18129,-0.634955 0.18129,-0.924725 0,-0.35295 -0.0956,-0.6391 -0.2887,-0.857695 -0.1911,-0.218595 -0.45421,-0.32792 -0.78571,-0.32792 z m 33.00946,0 c -0.39975,0 -0.76643,0.11186 -1.10183,0.335915 -0.33345,0.22386 -0.73293,0.578405 -1.19702,1.06298 l 0.45017,0.44256 c 0.3159,-0.35295 0.5655,-0.596515 0.74685,-0.73087 0.18135,-0.134355 0.35494,-0.201475 0.51874,-0.201475 0.14625,0 0.25547,0.0473 0.32372,0.14206 0.0683,0.09497 0.10132,0.24776 0.10132,0.458555 0,0.273975 -0.0563,0.66379 -0.17329,1.16962 l -1.15249,5.010205 h 1.36691 l 0.75067,-3.42202 c 0.1092,-0.48477 0.24757,-0.89569 0.40942,-1.232845 0.1638,-0.33735 0.39006,-0.68877 0.68061,-1.05498 0.29055,-0.36621 0.56148,-0.632335 0.81693,-0.79828 0.25545,-0.165945 0.48394,-0.2487 0.68479,-0.2487 0.2847,0 0.49311,0.08002 0.62766,0.2407 0.13455,0.160685 0.20108,0.430815 0.20108,0.81009 0,0.168675 -0.0197,0.37022 -0.0586,0.604805 -0.039,0.23439 -0.11513,0.59675 -0.22433,1.08659 l -0.90874,4.01464 h 1.36691 l 0.71754,-3.45363 c 0.1053,-0.49004 0.24801,-0.90496 0.42351,-1.24465 0.17745,-0.339885 0.40556,-0.684955 0.68441,-1.035175 0.27885,-0.350415 0.54401,-0.608725 0.79751,-0.77467 0.2535,-0.165945 0.48953,-0.2487 0.71183,-0.2487 0.273,0 0.47172,0.08002 0.59262,0.2407 0.1209,0.160685 0.18129,0.422995 0.18129,0.786475 0,0.14742 -0.0193,0.34008 -0.0583,0.577005 -0.041,0.23712 -0.1231,0.6031 -0.24985,1.098395 l -0.34696,1.36729 c -0.17355,0.66378 -0.26126,1.16673 -0.26126,1.50935 0,0.37927 0.10335,0.69161 0.3081,0.93653 0.20475,0.24492 0.4795,0.36753 0.82075,0.36753 0.4329,0 0.81705,-0.11314 1.1544,-0.33973 0.33735,-0.22659 0.7332,-0.57966 1.1856,-1.05917 l -0.45017,-0.44256 c -0.32565,0.36348 -0.57927,0.60978 -0.75867,0.73887 -0.1794,0.12909 -0.34706,0.19386 -0.50501,0.19386 -0.1482,0 -0.25545,-0.0473 -0.32565,-0.14206 -0.0682,-0.095 -0.10168,-0.24776 -0.10168,-0.45856 0,-0.23712 0.0706,-0.64295 0.2129,-1.21722 l 0.51453,-2.07036 c 0.1521,-0.611325 0.22815,-1.083 0.22815,-1.41489 0,-0.50583 -0.13057,-0.898 -0.39382,-1.17724 -0.2652,-0.27924 -0.63759,-0.418945 -1.12314,-0.418945 -0.4836,0 -0.9515,0.156805 -1.40195,0.470365 -0.45045,0.31356 -0.90309,0.791595 -1.35549,1.434315 0.004,-0.0421 0.008,-0.08159 0.008,-0.118445 V 32.41646 c 0,-0.54249 -0.13283,-0.95741 -0.39608,-1.244645 -0.26325,-0.28704 -0.64738,-0.430755 -1.15438,-0.430755 -0.48945,0 -0.9729,0.17517 -1.4526,0.52559 -0.4797,0.350215 -0.96135,0.88667 -1.4469,1.608365 l -0.0956,-0.0316 c 0.12285,-0.326625 0.18321,-0.634955 0.18321,-0.924725 0,-0.35295 -0.0972,-0.6391 -0.28833,-0.857695 -0.19305,-0.218595 -0.45455,-0.32792 -0.788,-0.32792 z m -367.837784,0.90111 v 1.050795 h 9.736288 v -1.050795 z m 144.108424,0 v 1.050795 h 9.73629 v -1.050795 z m 144.10881,0 v 1.050795 h 9.73438 V 31.634175 Z M 51.43506,33.26997 v 1.05117 h 9.73629 v -1.05117 z m 144.10881,0 v 1.05117 h 9.73627 v -1.05117 z m 144.10689,0 v 1.05117 h 9.73669 v -1.05117 z m 102.84499,0 v 1.05117 h 9.73629 v -1.05117 z m -376.509195,0.08264 v 0.975 h 94.379235 v -0.975 z m 144.104235,0 v 0.975 h 94.38 v -0.975 z m 246.87,0 v 0.975 h 13.845 v -0.975 z m -435.184774,1.56114 v 1.05118 h 9.736288 v -1.05118 z m 144.108424,0 v 1.05118 h 9.73629 v -1.05118 z m 144.10881,0 v 1.05118 h 9.73438 v -1.05118 z M 9.780088,35.777165 c -0.15873,0 -0.309898,0.0213 -0.453223,0.064 -0.143325,0.0425 -0.287381,0.10926 -0.432656,0.20033 -0.145275,0.0909 -0.2982555,0.20711 -0.4589355,0.34848 -0.16068,0.14119 -0.337664,0.31053 -0.531299,0.50807 l 0.400664,0.37743 c 0.11622,-0.12012 0.221008,-0.22433 0.313828,-0.31344 0.093015,-0.0889 0.1792385,-0.16299 0.2586035,-0.2209 0.079365,-0.0581 0.1546655,-0.10158 0.2262305,-0.13064 0.07176,-0.0289 0.142524,-0.0434 0.212139,-0.0434 0.22854,0 0.3427735,0.14134 0.3427735,0.4239 0,0.10081 -0.011835,0.23051 -0.03504,0.38924 -0.023205,0.15873 -0.06014,0.33862 -0.1104495,0.54005 l -0.8710255,3.78689 h 1.138389 l 0.650508,-2.91548 c 0.0388,-0.17823 0.09974,-0.35741 0.182812,-0.53739 0.08326,-0.18018 0.179129,-0.35225 0.287549,-0.51683 0.10842,-0.16458 0.227376,-0.31937 0.357246,-0.46465 0.129675,-0.14527 0.262473,-0.27134 0.397998,-0.37781 0.135525,-0.10647 0.269755,-0.1894 0.40333,-0.24946 0.133576,-0.0601 0.258546,-0.0899 0.374766,-0.0899 0.201435,0 0.347304,0.0556 0.438369,0.16796 0.09106,0.11232 0.136727,0.28859 0.136727,0.52864 0,0.10062 -0.01254,0.2274 -0.03771,0.38047 -0.02515,0.15288 -0.06028,0.32715 -0.104737,0.52254 -0.04446,0.19559 -0.09685,0.4086 -0.156914,0.63909 -0.06006,0.23029 -0.124809,0.4715 -0.194619,0.72325 -0.06571,0.24784 -0.115014,0.47521 -0.147774,0.6825 -0.03295,0.20709 -0.04951,0.38808 -0.04951,0.5431 0,0.15483 0.02329,0.29689 0.0697,0.42657 0.04641,0.12967 0.112451,0.24229 0.197666,0.33706 0.08502,0.095 0.186712,0.16935 0.304687,0.22356 0.118171,0.0542 0.246766,0.0811 0.386193,0.0811 0.166528,0 0.323516,-0.0222 0.470741,-0.0667 0.147031,-0.0446 0.295102,-0.11231 0.444082,-0.20338 0.149175,-0.0911 0.303252,-0.20601 0.461982,-0.34543 0.15873,-0.13943 0.332804,-0.30606 0.52254,-0.4997 l -0.400665,-0.38314 c -0.11622,0.12773 -0.220812,0.23705 -0.313827,0.32792 -0.09282,0.0911 -0.177762,0.16583 -0.255177,0.22394 -0.07761,0.0581 -0.152379,0.10049 -0.223944,0.12759 -0.07156,0.0271 -0.144337,0.0408 -0.217852,0.0408 -0.12012,0 -0.20706,-0.0329 -0.26127,-0.0986 -0.05421,-0.0659 -0.08112,-0.17232 -0.08112,-0.31954 0,-0.0386 0.01727,-0.13757 0.05218,-0.2963 0.03471,-0.15874 0.07947,-0.35028 0.133681,-0.57472 0.05421,-0.22464 0.112238,-0.46948 0.174053,-0.73468 0.06201,-0.2652 0.120224,-0.52407 0.174434,-0.77581 0.05421,-0.25155 0.0984,-0.48403 0.133302,-0.69697 0.03491,-0.21294 0.05256,-0.37938 0.05256,-0.49931 0,-0.39897 -0.101683,-0.70856 -0.305068,-0.9293 -0.20319,-0.22074 -0.510063,-0.33096 -0.920538,-0.33096 -0.390975,0 -0.769708,0.12769 -1.135723,0.38314 -0.36582,0.25565 -0.736344,0.64092 -1.11211,1.15591 l -0.0815,-0.0289 c 0.03491,-0.0774 0.05909,-0.15892 0.07274,-0.24414 0.01346,-0.085 0.02056,-0.16613 0.02056,-0.24375 0,-0.30576 -0.07859,-0.55298 -0.235371,-0.74076 -0.156975,-0.18779 -0.378331,-0.28146 -0.6649805,-0.28146 z m 132.074422,0.55301 -3.69701,2.2048 0.34697,0.60861 c 0.45825,-0.30557 0.84238,-0.54512 1.15438,-0.71907 0.31005,-0.17374 0.54979,-0.26088 0.71944,-0.26088 0.1404,0 0.24963,0.0487 0.32373,0.14624 0.0741,0.0973 0.10931,0.25139 0.10931,0.46199 v 6.40948 c 0,0.36875 -0.0291,0.63469 -0.0895,0.7979 -0.0605,0.16341 -0.15804,0.29001 -0.28869,0.37971 -0.1326,0.0895 -0.3236,0.15644 -0.5732,0.2011 -0.2496,0.0448 -0.66688,0.0801 -1.25188,0.1074 v 0.577 h 5.8401 v -0.577 c -0.4056,-0.0117 -0.73307,-0.0313 -0.98072,-0.0606 -0.24765,-0.0273 -0.45243,-0.0705 -0.61623,-0.12567 -0.1638,-0.0554 -0.28858,-0.1316 -0.37438,-0.22891 -0.0877,-0.0975 -0.14847,-0.2243 -0.18357,-0.37971 -0.0332,-0.15542 -0.0507,-0.3857 -0.0507,-0.69126 v -6.74883 c 0,-0.89563 0.0156,-1.59651 0.0468,-2.10234 z m 115.95682,0 -3.69929,2.2048 0.34734,0.60861 c 0.45825,-0.30557 0.84238,-0.54512 1.15438,-0.71907 0.31005,-0.17374 0.5498,-0.26088 0.71945,-0.26088 0.14236,0 0.24962,0.0487 0.32372,0.14624 0.0741,0.0973 0.11123,0.25139 0.11123,0.46199 v 6.40948 c 0,0.36875 -0.0314,0.63469 -0.0918,0.7979 -0.0605,0.16341 -0.15573,0.29001 -0.28832,0.37971 -0.13065,0.0895 -0.32203,0.15644 -0.57358,0.2011 -0.2496,0.0448 -0.66688,0.0801 -1.25188,0.1074 v 0.577 h 5.84049 v -0.577 c -0.4056,-0.0117 -0.73346,-0.0313 -0.98111,-0.0606 -0.24765,-0.0273 -0.45242,-0.0705 -0.61622,-0.12567 -0.1638,-0.0554 -0.28858,-0.1316 -0.37438,-0.22891 -0.0878,-0.0975 -0.1481,-0.2243 -0.1832,-0.37971 -0.0332,-0.15542 -0.0507,-0.3857 -0.0507,-0.69126 v -6.74883 c 0,-0.89563 0.0156,-1.59651 0.0468,-2.10234 z m -152.37613,2.36818 c -1.75968,0.89564 -3.15959,2.5395 -4.20011,4.93137 -1.04052,2.39187 -1.561145,5.19425 -1.561145,8.40785 0,3.1941 0.520625,5.99642 1.561145,8.41052 1.04052,2.41215 2.44043,4.06168 4.20011,4.94698 l 0.2609,-0.63375 c -1.41726,-0.9165 -2.52359,-2.49181 -3.3192,-4.72456 -0.79559,-2.2347 -1.19361,-4.89482 -1.19361,-7.98167 0,-3.14535 0.40183,-5.82409 1.20542,-8.03423 0.8034,-2.21012 1.90592,-3.77358 3.30739,-4.69028 z m 43.45682,0 -0.25137,0.63223 c 1.40011,0.9167 2.50361,2.48016 3.307,4.69028 0.8034,2.21014 1.20542,4.88888 1.20542,8.03423 0,3.08685 -0.39987,5.74697 -1.19742,7.98167 -0.79755,2.23275 -1.9032,3.80806 -3.315,4.72456 l 0.25137,0.63375 c 1.7667,-0.8853 3.16872,-2.53483 4.21002,-4.94698 1.03935,-2.4141 1.56,-5.21642 1.56,-8.41052 0,-3.2136 -0.52065,-6.01598 -1.56,-8.40785 -1.0413,-2.39187 -2.44332,-4.03573 -4.21002,-4.93137 z m 310.55502,2.79551 c -0.39974,0 -0.76605,0.11206 -1.10145,0.33592 -0.3354,0.22386 -0.73332,0.57821 -1.19742,1.06298 l 0.45055,0.44256 c 0.3159,-0.35295 0.56552,-0.5969 0.74687,-0.73125 0.18135,-0.13416 0.3546,-0.20148 0.51646,-0.20148 0.14819,0 0.2558,0.0474 0.326,0.14244 0.0683,0.0948 0.10132,0.24738 0.10132,0.45818 0,0.27397 -0.0567,0.66378 -0.17368,1.16961 l -1.15438,5.01021 h 1.36882 l 0.75067,-3.42164 c 0.1092,-0.48477 0.24794,-0.89569 0.40979,-1.23284 0.1638,-0.33716 0.39006,-0.68877 0.68061,-1.05498 0.2886,-0.36602 0.56148,-0.63234 0.81693,-0.79828 0.25545,-0.16595 0.48356,-0.24871 0.68441,-0.24871 0.2847,0 0.49349,0.0804 0.62804,0.24109 0.13455,0.16068 0.20071,0.43062 0.20071,0.81009 0,0.16847 -0.0196,0.37003 -0.0587,0.60442 -0.039,0.23439 -0.11509,0.59655 -0.22624,1.08659 l -0.90835,4.01426 h 1.36882 l 0.71754,-3.45325 c 0.1053,-0.49003 0.24763,-0.90476 0.42313,-1.24465 0.17745,-0.33989 0.40555,-0.68476 0.6844,-1.03518 0.27885,-0.35041 0.54403,-0.60872 0.79753,-0.77466 0.2535,-0.16595 0.48952,-0.24871 0.71182,-0.24871 0.273,0 0.47171,0.0804 0.59261,0.24109 0.1209,0.16068 0.18168,0.42261 0.18168,0.78609 0,0.14761 -0.0196,0.33989 -0.0587,0.57701 -0.041,0.23692 -0.12271,0.60309 -0.24946,1.0984 l -0.34733,1.36728 c -0.1755,0.66436 -0.26128,1.16733 -0.26128,1.50858 0,0.38025 0.10337,0.69236 0.30812,0.93806 0.20475,0.24375 0.47987,0.36639 0.82112,0.36639 0.4329,0 0.81703,-0.11277 1.15438,-0.33897 0.33735,-0.2262 0.73322,-0.57947 1.18562,-1.05917 l -0.45055,-0.44256 c -0.3276,0.3627 -0.57926,0.61055 -0.75866,0.73925 -0.1794,0.1287 -0.34708,0.19272 -0.50503,0.19272 -0.1482,0 -0.25543,-0.0465 -0.32563,-0.14207 -0.0683,-0.0956 -0.10131,-0.24757 -0.10131,-0.45817 0,-0.2379 0.0702,-0.64355 0.21251,-1.21684 l 0.51492,-2.07074 c 0.1521,-0.61113 0.22813,-1.0828 0.22813,-1.41489 0,-0.50563 -0.13088,-0.898 -0.39608,-1.17724 -0.26325,-0.27924 -0.6357,-0.41894 -1.12125,-0.41894 -0.48555,0 -0.9515,0.15662 -1.40195,0.46998 -0.45045,0.31356 -0.9027,0.79198 -1.3551,1.43469 0.004,-0.0421 0.008,-0.082 0.008,-0.11883 v -0.11044 c 0,-0.54269 -0.13246,-0.95761 -0.39571,-1.24465 -0.26325,-0.28723 -0.64738,-0.43075 -1.15438,-0.43075 -0.48945,0 -0.97524,0.17517 -1.45299,0.52559 -0.4797,0.35041 -0.96328,0.88629 -1.44688,1.60798 l -0.0956,-0.0316 c 0.1209,-0.32662 0.18169,-0.63476 0.18169,-0.92472 0,-0.35295 -0.0957,-0.63853 -0.28679,-0.85732 -0.19305,-0.21859 -0.45455,-0.32792 -0.788,-0.32792 z m -384.211695,4.26106 -3.69853,2.20517 0.347725,0.60862 c 0.45825,-0.30615 0.842795,-0.5459 1.153625,-0.71945 0.31083,-0.17355 0.550765,-0.26165 0.71944,-0.26165 0.142155,0 0.250025,0.0487 0.323735,0.14625 0.0739,0.0975 0.11083,0.25176 0.11083,0.46236 v 6.40948 c 0,0.36855 -0.03055,0.63567 -0.09103,0.79753 -0.06065,0.16379 -0.156495,0.29077 -0.288315,0.38047 -0.131625,0.0897 -0.32281,0.15586 -0.57319,0.20071 -0.250185,0.0448 -0.66746,0.0801 -1.252265,0.10741 v 0.577 h 5.840095 v -0.577 c -0.4056,-0.01 -0.7323,-0.0314 -0.97995,-0.0587 -0.24765,-0.0293 -0.453395,-0.0722 -0.616615,-0.12682 -0.163405,-0.0565 -0.28837,-0.13254 -0.375145,-0.23004 -0.08697,-0.0975 -0.14754,-0.22414 -0.181665,-0.37819 -0.0343,-0.156 -0.0518,-0.38626 -0.0518,-0.69241 v -6.74882 c 0,-0.89505 0.016,-1.59633 0.0476,-2.10196 z m 36.040335,0 -3.69853,2.20517 0.34773,0.60862 c 0.45825,-0.30615 0.84317,-0.5459 1.154,-0.71945 0.31083,-0.17355 0.55039,-0.26165 0.71907,-0.26165 0.14215,0 0.2504,0.0487 0.32411,0.14625 0.0737,0.0975 0.11045,0.25176 0.11045,0.46236 v 6.40948 c 0,0.36855 -0.0302,0.63567 -0.0907,0.79753 -0.0606,0.16379 -0.15687,0.29077 -0.28869,0.38047 -0.13162,0.0897 -0.32263,0.15586 -0.57281,0.20071 -0.25019,0.0448 -0.66765,0.0801 -1.25265,0.10741 v 0.577 h 5.8401 v -0.577 c -0.4056,-0.01 -0.7323,-0.0314 -0.97995,-0.0587 -0.24765,-0.0293 -0.45302,-0.0722 -0.61623,-0.12682 -0.16341,-0.0565 -0.28875,-0.13254 -0.37553,-0.23004 -0.087,-0.0975 -0.14735,-0.22414 -0.18167,-0.37819 -0.0341,-0.156 -0.0514,-0.38626 -0.0514,-0.69241 v -6.74882 c 0,-0.89505 0.0156,-1.59633 0.0472,-2.10196 z m 22.96011,5.73269 v 0.975 h 13.845 v -0.975 z m 116.025,0 v 0.975 h 13.845 v -0.975 z m -166.44088,0.0274 v 1.05117 h 9.73667 v -1.05117 z m 36.04073,0 v 1.05117 h 9.7359 v -1.05117 z m 16.95319,5.5575 c -0.4017,0 -0.76833,0.11129 -1.10373,0.33554 -0.33345,0.22425 -0.73295,0.57705 -1.19705,1.06259 l 0.45018,0.44257 c 0.3159,-0.35295 0.56552,-0.5967 0.74687,-0.73126 0.18135,-0.13454 0.35493,-0.20071 0.51873,-0.20071 0.14625,0 0.25548,0.0469 0.32373,0.14245 0.0683,0.0936 0.10321,0.24756 0.10321,0.45816 0,0.27301 -0.0582,0.66301 -0.1752,1.17001 l -1.15248,5.00944 h 1.36691 l 0.75067,-3.42202 c 0.11115,-0.4836 0.24753,-0.89511 0.41133,-1.23246 0.16185,-0.33735 0.38814,-0.68838 0.67869,-1.05498 0.29055,-0.3666 0.56145,-0.63177 0.81885,-0.79752 0.25545,-0.1677 0.48165,-0.24984 0.6825,-0.24984 0.2847,0 0.49349,0.08 0.62804,0.24184 0.13455,0.1599 0.20299,0.42908 0.20299,0.80933 0,0.1677 -0.0215,0.37042 -0.0605,0.60442 -0.039,0.234 -0.11513,0.59676 -0.22433,1.08621 l -0.90873,4.01502 h 1.3669 l 0.71983,-3.45325 c 0.1053,-0.48945 0.24535,-0.90497 0.42085,-1.24427 0.17745,-0.34125 0.40593,-0.6865 0.68478,-1.03555 0.27885,-0.351 0.54597,-0.60816 0.79752,-0.77391 0.2535,-0.1677 0.4911,-0.24985 0.71145,-0.24985 0.27495,0 0.4721,0.08 0.593,0.24185 0.1209,0.1599 0.18129,0.42144 0.18129,0.78609 0,0.14626 -0.0192,0.3391 -0.0583,0.577 -0.039,0.23595 -0.12309,0.60272 -0.24984,1.09802 l -0.34696,1.36691 c -0.17355,0.66495 -0.26127,1.16809 -0.26127,1.50934 0,0.38025 0.10336,0.69203 0.30811,0.93577 0.2067,0.2457 0.47946,0.36867 0.82266,0.36867 0.43095,0 0.81513,-0.11314 1.15248,-0.33934 0.33735,-0.22815 0.73322,-0.58104 1.18562,-1.05879 l -0.45056,-0.44255 c -0.32565,0.36269 -0.57889,0.60825 -0.75829,0.73695 -0.1794,0.13065 -0.34707,0.19501 -0.50502,0.19501 -0.1482,0 -0.25548,-0.0489 -0.32373,-0.14245 -0.0683,-0.0956 -0.1036,-0.24757 -0.1036,-0.45817 0,-0.2379 0.0705,-0.64355 0.2129,-1.21684 l 0.51455,-2.07074 c 0.1521,-0.6123 0.22813,-1.0822 0.22813,-1.41565 0,-0.50505 -0.13056,-0.89724 -0.39381,-1.17609 -0.26325,-0.2808 -0.6376,-0.41895 -1.12315,-0.41895 -0.4836,0 -0.9515,0.15603 -1.40195,0.46998 -0.45045,0.31395 -0.90307,0.79163 -1.35547,1.43318 0.004,-0.0409 0.008,-0.0799 0.008,-0.11693 v -0.11121 c 0,-0.5421 -0.13285,-0.95762 -0.3961,-1.24427 -0.26325,-0.2886 -0.64743,-0.43075 -1.15248,-0.43075 -0.4914,0 -0.9748,0.17539 -1.4545,0.52444 -0.4797,0.351 -0.96134,0.88725 -1.44689,1.60875 l -0.0937,-0.0312 c 0.1209,-0.3276 0.18129,-0.63575 0.18129,-0.92435 0,-0.35295 -0.0976,-0.63967 -0.28869,-0.85807 -0.19305,-0.2184 -0.45421,-0.32754 -0.78571,-0.32754 z m 115.95492,0 c -0.4017,0 -0.76834,0.11129 -1.10374,0.33554 -0.33345,0.22425 -0.73331,0.57705 -1.19741,1.06259 l 0.45056,0.44257 c 0.31785,-0.35295 0.5655,-0.5967 0.74685,-0.73126 0.1833,-0.13454 0.35494,-0.20071 0.51874,-0.20071 0.14625,0 0.25547,0.0469 0.32372,0.14245 0.0682,0.0936 0.10322,0.24756 0.10322,0.45816 0,0.27301 -0.0586,0.66301 -0.17367,1.17001 l -1.15438,5.00944 h 1.36691 l 0.75104,-3.42202 c 0.11115,-0.4836 0.24753,-0.89511 0.41133,-1.23246 0.16185,-0.33735 0.3901,-0.68838 0.6787,-1.05498 0.29055,-0.3666 0.5634,-0.63177 0.81885,-0.79752 0.25545,-0.1677 0.4836,-0.24984 0.6825,-0.24984 0.2847,0 0.49543,0.08 0.62803,0.24184 0.13455,0.1599 0.20263,0.42908 0.20263,0.80933 0,0.1677 -0.0193,0.37042 -0.0602,0.60442 -0.039,0.234 -0.11318,0.59676 -0.22433,1.08621 l -0.90874,4.01502 h 1.36691 l 0.71944,-3.45325 c 0.1053,-0.48945 0.2457,-0.90497 0.42315,-1.24427 0.1755,-0.34125 0.40365,-0.6865 0.6825,-1.03555 0.27885,-0.351 0.54596,-0.60816 0.79751,-0.77391 0.25349,-0.1677 0.49148,-0.24985 0.71183,-0.24985 0.27495,0 0.47209,0.08 0.59299,0.24185 0.1209,0.1599 0.18129,0.42144 0.18129,0.78609 0,0.14626 -0.0197,0.3391 -0.0587,0.577 -0.039,0.23595 -0.12272,0.60272 -0.24947,1.09802 l -0.34733,1.36691 c -0.17355,0.66495 -0.26128,1.16809 -0.26128,1.50934 0,0.38025 0.10337,0.69203 0.30812,0.93577 0.2067,0.2457 0.47983,0.36867 0.82303,0.36867 0.43095,0 0.81709,-0.11314 1.15249,-0.33934 0.33735,-0.22815 0.7332,-0.58104 1.1856,-1.05879 l -0.45054,-0.44255 c -0.32565,0.36269 -0.57927,0.60825 -0.75867,0.73695 -0.1794,0.13065 -0.34708,0.19501 -0.50503,0.19501 -0.1482,0 -0.25547,-0.0489 -0.32372,-0.14245 -0.0682,-0.0956 -0.10321,-0.24757 -0.10321,-0.45817 0,-0.2379 0.0721,-0.64355 0.21442,-1.21684 l 0.513,-2.07074 c 0.1521,-0.6123 0.22815,-1.0822 0.22815,-1.41565 0,-0.50505 -0.13057,-0.89724 -0.39382,-1.17609 -0.26325,-0.2808 -0.63759,-0.41895 -1.12314,-0.41895 -0.4836,0 -0.95187,0.15603 -1.40232,0.46998 -0.45045,0.31395 -0.90272,0.79163 -1.35512,1.43318 0.006,-0.0409 0.008,-0.0799 0.008,-0.11693 v -0.11121 c 0,-0.5421 -0.13246,-0.95762 -0.39571,-1.24427 -0.26325,-0.2886 -0.64744,-0.43075 -1.15249,-0.43075 -0.4914,0 -0.97478,0.17539 -1.45448,0.52444 -0.4797,0.351 -0.96135,0.88725 -1.4469,1.60875 l -0.0937,-0.0312 c 0.1209,-0.3276 0.18129,-0.63575 0.18129,-0.92435 0,-0.35295 -0.0957,-0.63967 -0.2887,-0.85807 -0.19305,-0.2184 -0.45421,-0.32754 -0.78571,-0.32754 z"
   id="path2"
   inkscape:connector-curvature="0"
   style="stroke-width:0.19499999" />









































</svg>