<?xml version="1.0" encoding="UTF-8" standalone="no"?>
<svg
   xmlns:dc="http://purl.org/dc/elements/1.1/"
   xmlns:cc="http://creativecommons.org/ns#"
   xmlns:rdf="http://www.w3.org/1999/02/22-rdf-syntax-ns#"
   xmlns:svg="http://www.w3.org/2000/svg"
   xmlns="http://www.w3.org/2000/svg"
   xmlns:sodipodi="http://sodipodi.sourceforge.net/DTD/sodipodi-0.dtd"
   xmlns:inkscape="http://www.inkscape.org/namespaces/inkscape"
   width="429.87939"
   height="89.296288"
   xml:space="preserve"
   overflow="hidden"
   version="1.1"
   id="svg212"
   sodipodi:docname="12-series-def-short.svg"
   style="overflow:hidden"
   inkscape:version="0.92.4 (5da689c313, 2019-01-14)"><metadata
   id="metadata218"><rdf:RDF><cc:Work
       rdf:about=""><dc:format>image/svg+xml</dc:format><dc:type
         rdf:resource="http://purl.org/dc/dcmitype/StillImage" /><dc:title></dc:title></cc:Work></rdf:RDF></metadata><defs
   id="defs216" /><sodipodi:namedview
   pagecolor="#ffffff"
   bordercolor="#666666"
   borderopacity="1"
   objecttolerance="10"
   gridtolerance="10"
   guidetolerance="10"
   inkscape:pageopacity="0"
   inkscape:pageshadow="2"
   inkscape:window-width="1853"
   inkscape:window-height="1116"
   id="namedview214"
   showgrid="false"
   inkscape:zoom="0.79821931"
   inkscape:cx="201.12567"
   inkscape:cy="184.77948"
   inkscape:window-x="0"
   inkscape:window-y="0"
   inkscape:window-maximized="0"
   inkscape:current-layer="svg212"
   fit-margin-top="0"
   fit-margin-left="0"
   fit-margin-right="0"
   fit-margin-bottom="0" /><path
   d="m 43.647628,0 v 0.388095 c 0.242383,0.06825 0.413548,0.1305 0.513778,0.1851 0.100035,0.0546 0.180439,0.128865 0.241084,0.220515 0.06065,0.0936 0.10393,0.221965 0.130255,0.387715 0.02652,0.16575 0.03961,0.43101 0.03961,0.79371 v 6.83681 c 0,0.39 -0.01691,0.6784 -0.05103,0.8695 -0.03432,0.18915 -0.10671,0.3354 -0.21747,0.43875 -0.110565,0.1014 -0.329402,0.19532 -0.65622,0.27917 v 0.388095 h 2.892626 V 10.399365 C 46.239961,10.321365 46.030403,10.2336 45.911843,10.14 45.793478,10.04445 45.714339,9.905835 45.674949,9.724485 c -0.03959,-0.18135 -0.05942,-0.48549 -0.05942,-0.91254 v -2.20556 c 0,-1.2597 -0.026,-2.455125 -0.07884,-3.588075 h 0.07084 c 0.242385,0.5109 0.59546,1.164305 1.05917,1.959905 l 3.382408,5.809245 h 2.52091 V 1.975135 c 0,-0.38415 0.016,-0.66105 0.0476,-0.82875 0.0316,-0.16965 0.0776,-0.296245 0.13825,-0.380095 0.06065,-0.08385 0.139395,-0.152255 0.236895,-0.204905 0.0975,-0.05265 0.265045,-0.11089 0.50197,-0.17329 V 0 H 50.64172 v 0.388095 c 0.25818,0.06825 0.434625,0.132265 0.529395,0.192715 0.09497,0.06045 0.166275,0.13472 0.21366,0.22052 0.0474,0.08775 0.08285,0.206715 0.10664,0.356865 0.0236,0.15015 0.0354,0.42304 0.0354,0.81694 V 3.36756 c 0,1.4898 0.0293,2.864625 0.08722,4.124325 h -0.12645 C 51.26626,7.018035 51.01342,6.51489 50.728915,5.98254 50.44441,5.45019 50.223025,5.04631 50.065075,4.77331 L 47.306896,0 Z m 56.248357,0 v 0.388095 c 0.242185,0.06825 0.413545,0.1305 0.513775,0.1851 0.10004,0.0546 0.18044,0.128865 0.24109,0.220515 0.0606,0.0936 0.10373,0.221965 0.13025,0.387715 0.0263,0.16575 0.0396,0.43101 0.0396,0.79371 v 6.83681 c 0,0.39 -0.0173,0.6784 -0.0514,0.8695 -0.0343,0.18915 -0.10672,0.3354 -0.21748,0.43875 -0.11056,0.1014 -0.32921,0.19532 -0.655835,0.27917 v 0.388095 h 2.892625 v -0.388095 c -0.30049,-0.078 -0.51005,-0.165765 -0.62842,-0.259365 -0.11856,-0.09555 -0.19788,-0.234165 -0.23727,-0.415515 -0.0396,-0.18135 -0.059,-0.48549 -0.059,-0.91254 v -2.20556 c 0,-1.2597 -0.0266,-2.455125 -0.0792,-3.588075 h 0.0712 c 0.24238,0.5109 0.59546,1.164305 1.05917,1.959905 l 3.38241,5.809245 h 2.52091 V 1.975135 c 0,-0.38415 0.0156,-0.66105 0.0472,-0.82875 0.0316,-0.16965 0.0778,-0.296245 0.13825,-0.380095 0.0606,-0.08385 0.13978,-0.152255 0.23728,-0.204905 0.0975,-0.05265 0.26485,-0.11089 0.50197,-0.17329 V 0 h -2.85302 v 0.388095 c 0.25818,0.06825 0.43443,0.132265 0.52939,0.192715 0.0948,0.06045 0.1659,0.13472 0.21329,0.22052 0.0474,0.08775 0.0829,0.206715 0.10664,0.356865 0.0236,0.15015 0.0358,0.42304 0.0358,0.81694 V 3.36756 c 0,1.4898 0.0289,2.864625 0.0868,4.124325 h -0.12644 C 107.51424,7.018035 107.2614,6.51489 106.9769,5.98254 106.69239,5.45019 106.47101,5.04631 106.31306,4.77331 L 103.55488,0 Z M 0.26850584,0.6726 4.04625,10.79508 H 5.2550975 L 9.6886815,0.6726 H 8.384619 L 7.1753905,3.54123 H 2.6869629 L 1.6910156,0.6726 Z m 60.49341916,0 3.77736,10.12248 h 1.20923 L 70.1821,0.6726 H 68.878035 L 67.66919,3.54123 H 63.18038 L 62.184435,0.6726 Z M 45.449853,0.6962 h 1.256455 L 51.6929,9.29372 v 0.79752 H 50.63411 L 45.449853,1.154385 Z m 56.247977,0 h 1.25646 l 4.98659,8.59752 v 0.79752 h -1.05879 L 101.69783,1.154375 Z M 33.882013,1.478105 c -0.853516,0 -1.54931,0.09163 -2.08673,0.276885 -0.537225,0.1833 -0.998164,0.48744 -1.382899,0.91254 -0.38454,0.42315 -0.658486,0.9085 -0.821896,1.4545 -0.163215,0.54405 -0.244893,1.23237 -0.244893,2.06502 2e-6,0.5109 0.0422,0.986855 0.126446,1.423655 0.08443,0.4368 0.21066,0.828945 0.379337,1.177995 0.168478,0.3471 0.388588,0.66474 0.660028,0.95139 0.271245,0.28665 0.559748,0.5013 0.865313,0.64365 0.305565,0.14235 0.647903,0.245715 1.027178,0.308115 0.379275,0.06435 0.827311,0.0956 1.343671,0.0956 h 3.374415 V 9.68946 h -3.342804 c -0.65325,0 -1.165673,-0.06445 -1.537148,-0.191195 -0.37128,-0.1248 -0.674341,-0.3217 -0.908731,-0.5869 -0.234585,-0.26715 -0.409755,-0.58904 -0.525585,-0.96929 -0.116025,-0.3783 -0.186956,-0.81304 -0.213281,-1.30444 h 6.527549 v -1.09764 h -6.519551 c 0.02632,-0.4368 0.08944,-0.82904 0.189667,-1.17419 0.100035,-0.34515 0.238282,-0.63541 0.414757,-0.87331 0.176475,-0.23595 0.372562,-0.419355 0.588427,-0.548055 0.21606,-0.1287 0.48638,-0.222195 0.81047,-0.280695 0.323893,-0.0585 0.746636,-0.08798 1.26826,-0.08798 h 3.247969 v -1.09764 z m 56.247977,0 c -0.853515,0 -1.54912,0.09163 -2.086345,0.276885 -0.53742,0.1833 -0.99817,0.48744 -1.382905,0.91254 -0.38454,0.42315 -0.65848,0.9085 -0.82189,1.4545 -0.163215,0.54405 -0.244895,1.23237 -0.244895,2.06502 0,0.5109 0.042,0.986855 0.126445,1.423655 0.08424,0.4368 0.21066,0.828945 0.379335,1.177995 0.16848,0.3471 0.38821,0.66474 0.65965,0.95139 0.271245,0.28665 0.56013,0.5013 0.865695,0.64365 0.305565,0.14235 0.6479,0.245715 1.027175,0.308115 0.379275,0.06435 0.827315,0.0956 1.343675,0.0956 h 3.374415 V 9.68946 h -3.34319 c -0.653245,0 -1.16567,-0.06445 -1.537145,-0.191195 -0.37128,-0.1248 -0.67434,-0.3217 -0.90873,-0.5869 -0.234585,-0.26715 -0.409375,-0.58904 -0.525205,-0.96929 -0.116025,-0.3783 -0.18734,-0.81304 -0.213665,-1.30444 h 6.527935 V 5.53998 H 86.85041 c 0.0263,-0.4368 0.08944,-0.82904 0.18967,-1.17419 0.100035,-0.34515 0.23828,-0.63541 0.414755,-0.87331 0.176475,-0.23595 0.37275,-0.419355 0.58881,-0.548055 0.215865,-0.1287 0.485995,-0.222195 0.810085,-0.280695 0.323895,-0.0585 0.746635,-0.08798 1.26826,-0.08798 h 3.248355 V 1.478115 Z M 12.425156,3.09828 c -0.400335,0 -0.767782,0.11129 -1.102207,0.33554 -0.33462,0.22425 -0.733906,0.577045 -1.197421,1.062595 l 0.450556,0.44294 c 0.316095,-0.35295 0.565125,-0.5967 0.746865,-0.73125 0.18174,-0.13455 0.354373,-0.201095 0.517588,-0.201095 0.147615,0 0.255667,0.0469 0.324112,0.142445 0.06844,0.0936 0.102832,0.24757 0.102832,0.45817 0,0.273 -0.05803,0.663 -0.174054,1.17 l -1.153623,5.009825 h 1.366905 l 0.750674,-3.4224 c 0.11076,-0.4836 0.247918,-0.89511 0.411328,-1.23246 0.163214,-0.33735 0.389684,-0.68838 0.679454,-1.05498 0.28977,-0.3666 0.56244,-0.63177 0.818085,-0.79752 0.25545,-0.16575 0.483193,-0.249465 0.683263,-0.249465 0.284505,0 0.494061,0.07999 0.628416,0.241845 0.134355,0.1599 0.201476,0.428695 0.201476,0.808945 0,0.1677 -0.01965,0.370805 -0.05904,0.604805 -0.03958,0.234 -0.114903,0.59638 -0.225468,1.08583 l -0.90873,4.0154 h 1.367284 L 17.372513,7.33382 C 17.478008,6.84437 17.618598,6.42885 17.795268,6.08955 17.971743,5.7483 18.19967,5.403425 18.47891,5.054375 c 0.27924,-0.351 0.545561,-0.608535 0.798281,-0.774285 0.252916,-0.16575 0.489741,-0.249465 0.711066,-0.249465 0.273975,0 0.471522,0.07999 0.592617,0.241845 0.12129,0.1599 0.18205,0.421065 0.18205,0.785715 0,0.14625 -0.02002,0.3391 -0.05941,0.577 -0.03958,0.23595 -0.122341,0.60272 -0.248701,1.09802 L 20.107089,8.10011 c -0.17394,0.66495 -0.260888,1.168095 -0.260888,1.509345 0,0.38025 0.102585,0.6924 0.308115,0.93615 0.20553,0.245695 0.479474,0.368285 0.821894,0.368285 0.431925,0 0.816849,-0.11314 1.154004,-0.33934 C 22.467369,10.3464 22.86227,9.99351 23.31545,9.51576 L 22.864892,9.073205 c -0.326625,0.3627 -0.579467,0.608595 -0.758672,0.739245 -0.17901,0.1287 -0.347449,0.192715 -0.505399,0.192715 -0.147615,0 -0.255667,-0.0465 -0.324112,-0.14206 -0.06845,-0.09555 -0.102831,-0.247955 -0.102831,-0.458555 0,-0.2379 0.07113,-0.643165 0.213279,-1.216465 l 0.51378,-2.07111 c 0.152685,-0.6123 0.229277,-1.082205 0.229277,-1.415655 0,-0.50505 -0.131886,-0.896865 -0.395331,-1.175715 -0.26325,-0.2808 -0.637437,-0.419325 -1.122012,-0.419325 -0.48477,0 -0.952636,0.15603 -1.403086,0.46998 -0.45045,0.31395 -0.902113,0.791625 -1.355098,1.433175 0.0053,-0.04095 0.008,-0.07988 0.008,-0.116925 V 4.7813 c 0,-0.5421 -0.131888,-0.95762 -0.395333,-1.24427 -0.263445,-0.2886 -0.647987,-0.43075 -1.153622,-0.43075 -0.490035,0 -0.97481,0.175395 -1.45412,0.524445 -0.479505,0.351 -0.961735,0.88725 -1.446505,1.60875 l -0.09483,-0.03125 c 0.121095,-0.3276 0.18205,-0.635745 0.18205,-0.924345 0,-0.35295 -0.09642,-0.639295 -0.288692,-0.857695 -0.19227,-0.2184 -0.454583,-0.32792 -0.786473,-0.32792 z m 60.493799,0 c -0.4056,0 -0.76942,0.105425 -1.09078,0.319925 -0.32136,0.21255 -0.724275,0.57316 -1.20885,1.07821 l 0.45018,0.44294 c 0.316095,-0.35295 0.564925,-0.5967 0.74686,-0.73125 0.18174,-0.13455 0.354375,-0.201095 0.51759,-0.201095 0.147615,0 0.25547,0.0469 0.32411,0.142445 0.06845,0.0936 0.102835,0.24757 0.102835,0.45817 0,0.273 -0.05823,0.663 -0.174055,1.17 l -1.15362,5.009825 h 1.366905 l 0.75105,-3.4224 c 0.11076,-0.48945 0.252625,-0.90087 0.426565,-1.23627 0.173745,-0.3354 0.404405,-0.680655 0.69164,-1.035555 0.28704,-0.3549 0.558445,-0.62202 0.813895,-0.79752 0.255645,-0.17745 0.49393,-0.26508 0.715255,-0.26508 0.273975,0 0.471325,0.07999 0.592615,0.241845 0.121095,0.1599 0.182055,0.421065 0.182055,0.785715 0,0.14625 -0.02,0.3391 -0.05941,0.577 -0.0396,0.23595 -0.12253,0.60272 -0.249085,1.09802 L 76.31698,8.10011 c -0.17394,0.66495 -0.260885,1.168095 -0.260885,1.509345 0,0.38025 0.102965,0.6924 0.308495,0.93615 0.20553,0.245695 0.479475,0.368285 0.821895,0.368285 0.431925,0 0.816465,-0.11285 1.15362,-0.33515 0.337155,-0.22425 0.73244,-0.57938 1.18562,-1.06298 L 79.075165,9.073205 C 78.74854,9.435905 78.4957,9.6818 78.316495,9.81245 c -0.17901,0.1287 -0.34783,0.192715 -0.50578,0.192715 -0.147615,0 -0.25567,-0.0465 -0.324115,-0.14206 -0.06844,-0.09555 -0.10283,-0.247955 -0.10283,-0.458555 0,-0.2379 0.07151,-0.643165 0.21366,-1.216465 l 0.51378,-2.07111 c 0.152685,-0.6123 0.228895,-1.082205 0.228895,-1.415655 0,-0.4992 -0.1317,-0.891105 -0.39495,-1.171905 C 77.68171,3.246665 77.3048,3.10628 76.814765,3.10628 c -0.4953,0 -0.97569,0.175395 -1.441935,0.524445 -0.466245,0.351 -0.95776,0.889395 -1.473925,1.616745 l -0.09484,-0.03125 c 0.126555,-0.3432 0.18967,-0.653495 0.18967,-0.932345 0,-0.35295 -0.09604,-0.639295 -0.28831,-0.857695 C 73.51296,3.20778 73.25084,3.09826 72.91895,3.09826 Z M 3.0583007,4.62325 H 6.7172165 L 4.717705,9.316965 Z m 60.4934193,0 h 3.658915 l -1.99951,4.693715 z m 50.50576,1.92677 c -0.38337,0 -0.73552,0.0778 -1.05688,0.23575 -0.32136,0.156 -0.59951,0.39393 -0.8337,0.71373 -0.23439,0.3198 -0.4161,0.72144 -0.54577,1.20504 -0.12968,0.4836 -0.19462,1.05696 -0.19462,1.71996 0,1.26555 0.209,2.21154 0.62727,2.83359 0.41827,0.62401 1.05693,0.93578 1.91648,0.93578 0.86737,0 1.52968,-0.32956 1.98656,-0.99062 0.45689,-0.65909 0.68517,-1.6341 0.68517,-2.925 0,-0.57915 -0.0484,-1.09975 -0.14511,-1.5619 -0.0969,-0.4602 -0.2486,-0.8502 -0.45589,-1.17 -0.20708,-0.3198 -0.4745,-0.565365 -0.80171,-0.736965 -0.3272,-0.17355 -0.72101,-0.259365 -1.1818,-0.259365 z m -0.0233,0.56329 c 0.22834,0 0.431,0.06664 0.60709,0.197285 0.17628,0.1326 0.32215,0.337045 0.43836,0.613945 0.11622,0.2769 0.20607,0.63017 0.27004,1.05917 0.0639,0.43095 0.096,0.943495 0.096,1.540195 0,0.530405 -0.0291,0.988715 -0.0872,1.378715 -0.0581,0.39 -0.14433,0.70969 -0.25861,0.96319 -0.11407,0.2535 -0.25833,0.44087 -0.43265,0.56177 -0.17414,0.11895 -0.37752,0.17939 -0.60976,0.17939 -0.24785,0 -0.46085,-0.0645 -0.63908,-0.1912 -0.17804,-0.1287 -0.32592,-0.32766 -0.44409,-0.59871 -0.11817,-0.27105 -0.2053,-0.61588 -0.26126,-1.03708 -0.0562,-0.41925 -0.0842,-0.91844 -0.0842,-1.495635 -1e-5,-0.4992 0.0222,-0.94601 0.0666,-1.33796 0.0447,-0.3939 0.12015,-0.72523 0.22662,-0.99823 0.10647,-0.273 0.25072,-0.481545 0.43265,-0.621945 0.18194,-0.14235 0.40841,-0.2129 0.67946,-0.2129 z M 55.400875,8.954385 c 0.03685,0.39 0.05523,0.783915 0.05523,1.185615 0,0.39 -0.0262,0.71341 -0.07884,0.97081 -0.05265,0.25935 -0.139795,0.4896 -0.26089,0.6924 -0.12129,0.20281 -0.31591,0.43096 -0.58462,0.6825 l 0.426565,0.48369 c 0.48477,-0.36465 0.865305,-0.69826 1.141815,-1.00051 0.276705,-0.30225 0.47825,-0.60639 0.604805,-0.91254 0.12636,-0.30615 0.18967,-0.643395 0.18967,-1.011945 0,-0.3588 -0.0371,-0.72147 -0.11083,-1.09002 z M 47.026922,19.75136 c -1.775475,0.29446 -3.3362,1.66929 -4.682285,4.12434 -1.346086,2.45505 -2.019315,5.80314 -2.019315,10.0444 0,1.5444 0.199005,3.79858 0.596805,6.76063 0.3978,2.964 0.596807,5.09331 0.596807,6.39006 0,2.3244 -0.309605,4.06194 -0.928535,5.21244 -0.619125,1.1505 -1.481891,1.74714 -2.588321,1.79004 v 0.90111 c 1.10643,0.041 1.969196,0.63759 2.588321,1.79005 0.61893,1.15049 0.928535,2.88803 0.928535,5.21243 0,1.2948 -0.199007,3.42416 -0.596807,6.38816 -0.3978,2.964 -0.596805,5.21819 -0.596805,6.76063 0,4.24125 0.673229,7.58936 2.019315,10.04441 1.346085,2.45505 2.90681,3.83178 4.682285,4.12623 v -0.83065 c -1.49097,-0.43095 -2.685521,-1.73385 -3.583886,-3.9042 -0.898365,-2.17035 -1.347481,-5.03681 -1.347481,-8.59751 0,-1.80766 0.181716,-4.13011 0.545391,-6.97125 0.363481,-2.8392 0.54539,-4.74804 0.54539,-5.72889 0,-2.12355 -0.30941,-3.97023 -0.928535,-5.53998 -0.619125,-1.56975 -1.460788,-2.59932 -2.525098,-3.08877 v -0.22242 c 1.06431,-0.48945 1.905973,-1.51897 2.525098,-3.09067 0.619125,-1.56975 0.928535,-3.41644 0.928535,-5.53998 0,-0.97891 -0.18191,-2.88813 -0.54539,-5.72927 -0.363675,-2.8392 -0.545391,-5.16327 -0.545391,-6.96897 0,-3.56265 0.449116,-6.4275 1.347481,-8.5998 0.898365,-2.17035 2.092915,-3.47091 3.583886,-3.90381 z m 5.342313,6.17373 c -0.511095,0 -0.98277,0.11101 -1.41489,0.33136 -0.431925,0.2223 -0.80191,0.56159 -1.110205,1.02374 -0.3081,0.46021 -0.547853,1.0453 -0.719063,1.7512 -0.17121,0.7059 -0.2567,1.54262 -0.2567,2.51176 0,1.82326 0.277756,3.18239 0.833701,4.07939 0.555752,0.89505 1.402692,1.34367 2.540712,1.34367 1.15908,0 2.040215,-0.47996 2.643545,-1.43546 0.603135,-0.9555 0.904925,-2.36714 0.904925,-4.23134 0,-1.8018 -0.281765,-3.14944 -0.84551,-4.03864 -0.563745,-0.89115 -1.4227,-1.33568 -2.576515,-1.33568 z m 374.087695,0 c -0.5109,0 -0.9828,0.11101 -1.41375,0.33136 -0.4329,0.2223 -0.80324,0.56159 -1.11134,1.02374 -0.3081,0.46021 -0.54785,1.0453 -0.71945,1.7512 -0.16965,0.7059 -0.25555,1.54262 -0.25555,2.51176 0,1.82326 0.2768,3.18239 0.83255,4.07939 0.55575,0.89505 1.40423,1.34367 2.54108,1.34367 1.16025,0 2.04138,-0.47996 2.64393,-1.43546 0.60255,-0.9555 0.90494,-2.36714 0.90494,-4.23134 0,-1.8018 -0.28273,-3.14944 -0.84628,-4.03864 -0.56355,-0.89115 -1.42172,-1.33568 -2.57613,-1.33568 z m -374.127305,0.6707 c 0.40053,0 0.741595,0.16409 1.02337,0.49169 0.28197,0.32565 0.50208,0.86371 0.66003,1.61446 0.158145,0.75075 0.236895,1.73348 0.236895,2.94443 0,1.58535 -0.154065,2.75725 -0.46236,3.5119 -0.308105,0.7566 -0.78087,1.13496 -1.418325,1.13496 -0.66924,0 -1.16329,-0.40164 -1.48192,-1.20504 -0.318825,-0.80339 -0.47798,-2.06322 -0.47798,-3.78117 0,-0.7332 0.03165,-1.39023 0.09483,-1.97132 0.06338,-0.58305 0.16977,-1.07633 0.31992,-1.48193 0.15015,-0.4056 0.347695,-0.7178 0.592615,-0.93425 0.245115,-0.2145 0.54944,-0.32373 0.91292,-0.32373 z m 374.088465,0 c 0.39975,0 0.741,0.16409 1.02375,0.49169 0.2808,0.32565 0.50093,0.86371 0.65888,1.61446 0.15795,0.75075 0.23804,1.73348 0.23804,2.94443 0,1.58535 -0.15389,2.75725 -0.46199,3.5119 -0.31005,0.7566 -0.78219,1.13496 -1.41984,1.13496 -0.66885,0 -1.16212,-0.40164 -1.48192,-1.20504 -0.31785,-0.80339 -0.47761,-2.06322 -0.47761,-3.78117 0,-0.7332 0.0312,-1.39023 0.0956,-1.97132 0.0624,-0.58305 0.16939,-1.07633 0.31954,-1.48193 0.15015,-0.4056 0.3473,-0.7178 0.593,-0.93425 0.24375,-0.2145 0.54789,-0.32373 0.91254,-0.32373 z m -32.54558,2.55252 c -0.4056,0 -0.76828,0.10738 -1.09003,0.31992 -0.32175,0.21451 -0.72329,0.5735 -1.20884,1.0805 l 0.45017,0.44256 c 0.3159,-0.35295 0.56552,-0.5967 0.74687,-0.73125 0.18135,-0.13455 0.35498,-0.203 0.51683,-0.203 0.1482,0 0.25738,0.0489 0.32563,0.14244 0.0683,0.0956 0.1013,0.24758 0.1013,0.45818 0,0.27494 -0.0563,0.66494 -0.17329,1.17 l -1.15438,5.01172 h 1.36882 l 0.75067,-3.4224 c 0.1092,-0.48944 0.25149,-0.90282 0.42504,-1.23627 0.1755,-0.3354 0.40574,-0.68065 0.69239,-1.03555 0.28665,-0.35686 0.55764,-0.62198 0.81504,-0.79943 0.25545,-0.1755 0.49339,-0.26317 0.71374,-0.26317 0.27495,0 0.4717,0.08 0.5926,0.23994 0.1209,0.16185 0.18169,0.42301 0.18169,0.78571 0,0.1482 -0.0197,0.34144 -0.0587,0.57739 -0.039,0.2379 -0.12271,0.60423 -0.24946,1.09953 l -0.34733,1.36691 c -0.17355,0.663 -0.26128,1.16615 -0.26128,1.50934 0,0.37831 0.10337,0.69046 0.30811,0.93616 0.20671,0.2457 0.47984,0.36867 0.82304,0.36867 0.43095,0 0.81703,-0.11319 1.15438,-0.33744 0.3354,-0.22425 0.73131,-0.57743 1.18371,-1.06298 l -0.45055,-0.44256 c -0.32565,0.36466 -0.57927,0.61055 -0.75867,0.73925 -0.17745,0.1287 -0.34708,0.19271 -0.50502,0.19271 -0.1482,0 -0.25547,-0.0465 -0.32372,-0.14206 -0.0682,-0.0936 -0.10322,-0.24562 -0.10322,-0.45817 0,-0.23595 0.0721,-0.64159 0.21443,-1.21685 l 0.513,-2.07111 c 0.1521,-0.61035 0.23004,-1.08225 0.23004,-1.41375 0,-0.50115 -0.13283,-0.89105 -0.39608,-1.17381 -0.26326,-0.2808 -0.63939,-0.42313 -1.13079,-0.42313 -0.4953,0 -0.97511,0.17534 -1.44116,0.52634 -0.46605,0.351 -0.95756,0.88941 -1.47431,1.61676 l -0.0952,-0.0331 c 0.12675,-0.34126 0.1908,-0.6535 0.1908,-0.93235 0,-0.35295 -0.0972,-0.63739 -0.2883,-0.85579 -0.19305,-0.22035 -0.45454,-0.32982 -0.788,-0.32982 z m 12.70813,0.90112 v 1.05116 h 9.73629 v -1.05116 z m 0,3.27996 v 1.05079 h 9.73629 v -1.05079 z m -190.42512,8.61313 c -2.1645,1.85445 -3.88467,4.62122 -5.15607,8.29892 -1.27335,3.67575 -1.90886,7.78062 -1.90886,12.31242 0,4.4616 0.63551,8.5607 1.90886,12.293 1.2714,3.7323 2.99157,6.5205 5.15607,8.3652 l 0.37249,-0.585 c -1.87005,-1.9032 -3.31108,-4.65458 -4.32314,-8.25817 -1.01204,-3.60361 -1.51735,-7.54042 -1.51735,-11.80703 0,-4.36799 0.50716,-8.32261 1.52116,-11.86186 1.014,-3.5412 2.45318,-6.26166 4.31933,-8.16486 z m 43.6758,0 -0.37018,0.59262 c 1.8603,1.9032 3.29723,4.62366 4.31513,8.16486 1.01595,3.53925 1.52496,7.49386 1.52496,11.86186 0,4.2666 -0.50686,8.20343 -1.51696,11.80703 -1.01205,3.6036 -2.45308,6.35497 -4.32313,8.25817 l 0.37018,0.585 c 2.16645,-1.8447 3.88464,-4.6329 5.15799,-8.3652 1.2714,-3.7323 1.90696,-7.83139 1.90696,-12.29299 0,-4.5318 -0.63556,-8.63668 -1.90696,-12.31243 -1.27335,-3.6777 -2.99154,-6.44447 -5.15799,-8.29892 z m -127.67395,2.16061 -3.69776,2.20518 0.34772,0.60861 c 0.45844,-0.30615 0.84279,-0.54589 1.15362,-0.71944 0.31083,-0.17355 0.55097,-0.25937 0.71945,-0.25937 0.14235,0 0.2504,0.0488 0.32411,0.14625 0.0737,0.0975 0.11045,0.25138 0.11045,0.46198 v 6.40758 c 0,0.3705 -0.0304,0.63601 -0.091,0.79981 -0.0606,0.16185 -0.15668,0.28849 -0.28831,0.37819 -0.13182,0.0897 -0.32263,0.15777 -0.57281,0.20262 -0.25038,0.0448 -0.66784,0.0802 -1.25265,0.1055 v 0.577 h 5.84048 v -0.577 c -0.40559,-0.01 -0.73306,-0.0294 -0.98071,-0.0587 -0.24765,-0.0293 -0.45243,-0.0722 -0.61623,-0.12682 -0.1638,-0.0546 -0.28859,-0.13064 -0.37438,-0.22814 -0.0877,-0.0975 -0.1481,-0.22409 -0.1832,-0.38009 -0.0332,-0.156 -0.051,-0.38626 -0.051,-0.69241 v -6.74883 c 0,-0.89505 0.0156,-1.59495 0.0469,-2.10196 z m 28.65891,0 c -0.71565,0 -1.34721,0.1307 -1.89516,0.3881 -0.54795,0.2574 -0.97329,0.62379 -1.27359,1.09764 -0.3003,0.47385 -0.45056,1.02174 -0.45056,1.64379 0,0.39 0.0764,0.74288 0.23042,1.05878 0.1521,0.3159 0.35688,0.60263 0.61623,0.85808 0.2574,0.25545 0.58081,0.51485 0.97081,0.7781 0.4329,0.29055 0.76242,0.54817 0.99252,0.77047 0.22815,0.22425 0.39992,0.45813 0.51302,0.70383 0.1131,0.2457 0.17176,0.52833 0.17176,0.85008 0,0.69421 -0.20706,1.23817 -0.61851,1.62817 -0.4095,0.39 -0.97304,0.5831 -1.69064,0.5831 -0.62205,0 -1.07998,-0.15603 -1.37833,-0.46998 -0.29835,-0.312 -0.44674,-0.79162 -0.44674,-1.43317 h -0.75868 l -0.47379,2.17242 c 0.44265,0.1209 0.94394,0.22212 1.50554,0.30012 0.55965,0.0799 1.08402,0.11921 1.56762,0.11921 0.7176,0 1.35526,-0.13648 1.91686,-0.40753 0.5616,-0.27105 0.99673,-0.65523 1.30483,-1.15248 0.3081,-0.4992 0.46198,-1.06884 0.46198,-1.71234 0,-0.41535 -0.0643,-0.78173 -0.195,-1.09763 -0.1287,-0.3159 -0.32761,-0.61612 -0.60061,-0.89692 -0.27105,-0.28276 -0.66473,-0.60293 -1.17953,-0.95977 -0.59085,-0.40755 -0.99072,-0.75854 -1.19742,-1.05689 -0.20865,-0.2964 -0.31192,-0.64318 -0.31192,-1.03708 0,-0.38025 0.0858,-0.72364 0.25936,-1.03175 0.17355,-0.3081 0.42679,-0.55185 0.75829,-0.73124 0.33345,-0.17941 0.71759,-0.26889 1.15439,-0.26889 0.3588,0 0.64543,0.0545 0.86188,0.16567 0.21645,0.11115 0.38236,0.29451 0.49741,0.54996 0.117,0.25545 0.1854,0.60648 0.2049,1.05499 h 0.76019 l 0.44066,-2.03227 c -0.4992,-0.15795 -0.95731,-0.26886 -1.37071,-0.33516 -0.4134,-0.0663 -0.86193,-0.0994 -1.34748,-0.0994 z m 91.8587,0 -3.69701,2.20518 0.34697,0.60861 c 0.45825,-0.30615 0.8424,-0.54589 1.1544,-0.71944 0.31005,-0.17355 0.54978,-0.25937 0.71943,-0.25937 0.14235,0 0.24964,0.0488 0.32374,0.14625 0.0741,0.0975 0.1093,0.25138 0.1093,0.46198 v 6.40758 c 0,0.3705 -0.0294,0.63601 -0.0899,0.79981 -0.0605,0.16185 -0.15766,0.28849 -0.28831,0.37819 -0.1326,0.0897 -0.32397,0.15777 -0.57357,0.20262 -0.2496,0.0448 -0.6669,0.0802 -1.2519,0.1055 v 0.577 h 5.84049 v -0.577 c -0.4056,-0.01 -0.73344,-0.0294 -0.98109,-0.0587 -0.24765,-0.0293 -0.45244,-0.0722 -0.61624,-0.12682 -0.1638,-0.0546 -0.28858,-0.13064 -0.37438,-0.22814 -0.0877,-0.0975 -0.1481,-0.22409 -0.1832,-0.38009 -0.0331,-0.156 -0.0506,-0.38626 -0.0506,-0.69241 v -6.74883 c 0,-0.89505 0.0156,-1.59495 0.0469,-2.10196 z m 118.79004,0 -3.6989,2.20518 0.34697,0.60861 c 0.45825,-0.30615 0.84238,-0.54589 1.15438,-0.71944 0.31005,-0.17355 0.54978,-0.25937 0.71943,-0.25937 0.14235,0 0.24964,0.0488 0.32374,0.14625 0.0741,0.0975 0.11121,0.25138 0.11121,0.46198 v 6.40758 c 0,0.3705 -0.0313,0.63601 -0.0918,0.79981 -0.0605,0.16185 -0.1557,0.28849 -0.2883,0.37819 -0.1326,0.0897 -0.32203,0.15777 -0.57358,0.20262 -0.2496,0.0448 -0.66688,0.0802 -1.25188,0.1055 v 0.577 h 5.84047 v -0.577 c -0.4056,-0.01 -0.73344,-0.0294 -0.98109,-0.0587 -0.24765,-0.0293 -0.45244,-0.0722 -0.61624,-0.12682 -0.1638,-0.0546 -0.28858,-0.13064 -0.37438,-0.22814 -0.0877,-0.0975 -0.1481,-0.22409 -0.1832,-0.38009 -0.0331,-0.156 -0.0506,-0.38626 -0.0506,-0.69241 v -6.74883 c 0,-0.89505 0.0156,-1.59495 0.0469,-2.10196 z m -270.68818,3.22512 c -0.40579,0 -0.76904,0.10737 -1.090395,0.31992 -0.32136,0.21255 -0.72446,0.57316 -1.20923,1.07821 l 0.45056,0.44256 c 0.316095,-0.35295 0.56512,-0.5967 0.74686,-0.73125 0.18174,-0.13455 0.354175,-0.20071 0.517585,-0.20071 0.14742,0 0.25529,0.0469 0.32373,0.14244 0.0686,0.0936 0.10283,0.24757 0.10283,0.45817 0,0.273 -0.0578,0.663 -0.17367,1.17 l -1.15362,5.00945 h 1.36691 l 0.75067,-3.42202 c 0.11056,-0.48945 0.2532,-0.90087 0.42694,-1.23627 0.17394,-0.33345 0.40422,-0.67871 0.69126,-1.03556 0.28724,-0.3549 0.55863,-0.62202 0.81428,-0.79752 0.25545,-0.17745 0.49393,-0.26508 0.71525,-0.26508 0.27398,0 0.47152,0.0796 0.59262,0.24147 0.12109,0.1599 0.18167,0.42339 0.18167,0.78609 0,0.1482 -0.0198,0.3391 -0.0594,0.577 -0.0394,0.23595 -0.12234,0.60272 -0.2487,1.09802 l -0.34773,1.36691 c -0.17375,0.66495 -0.26089,1.16809 -0.26089,1.50934 0,0.38025 0.10297,0.69236 0.3085,0.93806 0.20533,0.24375 0.47909,0.36638 0.82151,0.36638 0.43212,0 0.81685,-0.1109 1.154,-0.33515 0.33735,-0.22425 0.73244,-0.57938 1.18562,-1.06298 l -0.45094,-0.44256 c -0.32662,0.3627 -0.57908,0.60822 -0.75829,0.73887 -0.1792,0.1287 -0.34763,0.19309 -0.50578,0.19309 -0.14742,0 -0.25547,-0.0469 -0.32411,-0.14244 -0.0684,-0.0956 -0.10283,-0.24757 -0.10283,-0.45817 0,-0.2379 0.0709,-0.64355 0.21328,-1.21685 l 0.51378,-2.07073 c 0.15288,-0.61035 0.22927,-1.08225 0.22927,-1.41375 0,-0.50115 -0.13188,-0.89301 -0.39533,-1.17381 -0.26344,-0.28275 -0.64017,-0.42313 -1.13001,-0.42313 -0.4953,0 -0.97587,0.17539 -1.44231,0.52444 -0.46625,0.351 -0.95757,0.88902 -1.47393,1.61637 l -0.0948,-0.0308 c 0.12636,-0.3432 0.18967,-0.6535 0.18967,-0.93235 0,-0.35295 -0.096,-0.63967 -0.28831,-0.85807 -0.19227,-0.2184 -0.45459,-0.32754 -0.78648,-0.32754 z m 239.30689,0 c -0.4056,0 -0.77017,0.10737 -1.09192,0.31992 -0.3198,0.21255 -0.72369,0.57316 -1.20924,1.07821 l 0.45058,0.44256 c 0.3159,-0.35295 0.56552,-0.5967 0.74687,-0.73125 0.18135,-0.13455 0.35491,-0.20071 0.51871,-0.20071 0.14625,0 0.25549,0.0469 0.32374,0.14244 0.0682,0.0936 0.10321,0.24757 0.10321,0.45817 0,0.273 -0.0582,0.663 -0.17521,1.17 l -1.15246,5.00945 h 1.36689 l 0.75069,-3.42202 c 0.11115,-0.48945 0.25338,-0.90087 0.42694,-1.23627 0.17354,-0.33345 0.40384,-0.67871 0.69049,-1.03556 0.2886,-0.3549 0.55959,-0.62202 0.81504,-0.79752 0.25545,-0.17745 0.49339,-0.26508 0.71374,-0.26508 0.27495,0 0.4717,0.0796 0.5926,0.24147 0.12286,0.1599 0.18357,0.42339 0.18357,0.78609 0,0.1482 -0.0196,0.3391 -0.0605,0.577 -0.039,0.23595 -0.12276,0.60272 -0.24756,1.09802 l -0.34926,1.36691 c -0.17355,0.66495 -0.25935,1.16809 -0.25935,1.50934 0,0.38025 0.10141,0.69236 0.30811,0.93806 0.20475,0.24375 0.47794,0.36638 0.82114,0.36638 0.4329,0 0.81703,-0.1109 1.15438,-0.33515 0.33735,-0.22425 0.73127,-0.57938 1.18562,-1.06298 l -0.45057,-0.44256 c -0.3276,0.3627 -0.58122,0.60822 -0.75867,0.73887 -0.1794,0.1287 -0.34897,0.19309 -0.50692,0.19309 -0.14625,0 -0.25549,-0.0469 -0.32374,-0.14244 -0.0683,-0.0956 -0.10321,-0.24757 -0.10321,-0.45817 0,-0.2379 0.0721,-0.64355 0.21444,-1.21685 l 0.51263,-2.07073 c 0.15405,-0.61035 0.23042,-1.08225 0.23042,-1.41375 0,-0.50115 -0.13284,-0.89301 -0.39609,-1.17381 -0.26325,-0.28275 -0.63942,-0.42313 -1.12887,-0.42313 -0.4953,0 -0.97703,0.17539 -1.44308,0.52444 -0.46605,0.351 -0.95755,0.88902 -1.4743,1.61637 l -0.0933,-0.0308 c 0.1248,-0.3432 0.18892,-0.6535 0.18892,-0.93235 0,-0.35295 -0.0976,-0.63967 -0.2887,-0.85807 -0.19305,-0.2184 -0.45421,-0.32754 -0.78571,-0.32754 z M 5.492353,48.22936 c -0.7164301,0 -1.3489247,0.12841 -1.8966797,0.38581 -0.54795,0.25935 -0.9721512,0.62418 -1.2724512,1.09802 -0.3003,0.4758 -0.4501759,1.02369 -0.4501759,1.64379 0,0.39 0.076017,0.74289 0.2288967,1.05879 0.152685,0.31785 0.3584312,0.60263 0.6166112,0.85808 0.25818,0.25545 0.5819532,0.51485 0.9719532,0.77809 0.431925,0.29056 0.7626327,0.54775 0.9917577,0.772 0.229125,0.2223 0.4004845,0.45856 0.5137795,0.70231 0.113295,0.2457 0.169863,0.52833 0.169863,0.85008 0,0.69615 -0.2053655,1.23817 -0.6162304,1.62817 -0.41106,0.39 -0.9749665,0.585 -1.6913965,0.585 -0.62166,0 -1.0815217,-0.15798 -1.3790917,-0.46998 C 1.3814239,57.80557 1.2328216,57.32794 1.2328216,56.68444 H 0.47378897 L 0,58.85686 c 0.442455,0.12285 0.94414125,0.22212 1.5051562,0.30012 0.5610151,0.0799 1.0839897,0.11883 1.5687596,0.11883 0.71643,0 1.3552746,-0.13457 1.9164846,-0.40562 0.5610151,-0.273 0.9957671,-0.65713 1.3040626,-1.15438 0.3080995,-0.49725 0.462363,-1.06847 0.462363,-1.71196 0,-0.41535 -0.064582,-0.78174 -0.1934765,-1.09764 -0.12909,-0.3159 -0.329556,-0.61455 -0.600996,-0.8973 -0.271245,-0.2808 -0.66488,-0.60254 -1.181045,-0.95939 -0.59007,-0.4056 -0.9893569,-0.75857 -1.1974219,-1.05497 -0.20826,-0.29835 -0.3123047,-0.64548 -0.3123047,-1.03938 0,-0.38025 0.087144,-0.72326 0.2608887,-1.03136 0.17394,-0.3081 0.4267819,-0.55185 0.7586719,-0.73125 0.33189,-0.1794 0.716238,-0.26927 1.153623,-0.26927 0.358215,0 0.645639,0.0568 0.861504,0.16605 0.21606,0.11116 0.382139,0.29413 0.498164,0.54958 0.11583,0.25546 0.184223,0.60649 0.205283,1.05499 h 0.758672 L 8.210947,48.66202 C 7.710577,48.50407 7.2534485,48.39316 6.8398535,48.32686 6.4262585,48.26056 5.977143,48.22936 5.492373,48.22936 Z m 107.097277,1.6358 v 1.05117 h 9.73667 v -1.05117 z m 28.1535,0 v 1.05117 h 9.73629 v -1.05117 z m 211.15186,0 v 1.05117 h 9.73629 v -1.05117 z m -168.69441,0.95557 c -0.48555,0.25935 -0.96166,0.52061 -1.43356,0.78191 -0.46995,0.26129 -0.94547,0.52284 -1.42518,0.78609 0.0468,0.0936 0.0916,0.18494 0.13445,0.27269 0.0429,0.0897 0.0879,0.17962 0.13863,0.26737 0.37635,-0.24375 0.68231,-0.42707 0.91825,-0.55187 0.23595,-0.12285 0.41345,-0.18548 0.53435,-0.18548 0.10725,0 0.19096,0.0313 0.24946,0.0937 0.0585,0.0624 0.088,0.16782 0.088,0.31992 v 4.16317 c 0,0.1326 -0.008,0.24203 -0.0217,0.33173 -0.0137,0.0897 -0.031,0.16345 -0.0545,0.22585 -0.0234,0.0624 -0.0547,0.1133 -0.0937,0.15425 -0.039,0.0409 -0.0836,0.078 -0.13825,0.11311 -0.0507,0.0312 -0.10923,0.0566 -0.17748,0.0781 -0.0682,0.0214 -0.15807,0.0407 -0.27117,0.0583 -0.11115,0.0175 -0.24766,0.0314 -0.40561,0.0411 -0.1599,0.01 -0.35305,0.0173 -0.5812,0.0251 v 0.5073 h 4.60612 v -0.5073 c -0.23595,-0.004 -0.43863,-0.01 -0.60633,-0.0194 -0.16965,-0.01 -0.31409,-0.0232 -0.43304,-0.0408 -0.1209,-0.0175 -0.21831,-0.039 -0.29631,-0.0644 -0.078,-0.0254 -0.14063,-0.0606 -0.18548,-0.1074 -0.039,-0.0312 -0.074,-0.0664 -0.10321,-0.10931 -0.0273,-0.0429 -0.0506,-0.0934 -0.0682,-0.15387 -0.0175,-0.0605 -0.0315,-0.13471 -0.0393,-0.22051 -0.008,-0.0877 -0.0114,-0.19103 -0.0114,-0.31193 v -4.41263 c 0,-0.156 0.002,-0.31199 0.004,-0.47189 0.002,-0.15795 0.004,-0.32208 0.008,-0.48978 0.004,-0.16965 0.01,-0.36064 0.0175,-0.5732 z M 21.775997,52.35331 v 1.05117 h 9.736287 v -1.05117 z m 143.328433,0.0179 c -0.15795,0 -0.31012,0.0211 -0.45247,0.064 -0.1443,0.0429 -0.28835,0.10944 -0.43265,0.20109 -0.14626,0.0917 -0.29866,0.20652 -0.45856,0.34887 -0.16185,0.1404 -0.33901,0.31036 -0.53206,0.50731 l 0.40143,0.37819 c 0.11505,-0.1209 0.22065,-0.22451 0.3123,-0.31421 0.0936,-0.0897 0.17942,-0.16163 0.25937,-0.22013 0.08,-0.0585 0.1537,-0.10139 0.22585,-0.13064 0.0721,-0.0292 0.1427,-0.043 0.2129,-0.043 0.22815,0 0.34315,0.14038 0.34315,0.42313 0,0.1014 -0.012,0.2301 -0.0354,0.39 -0.0234,0.15795 -0.0601,0.33765 -0.11083,0.54044 l -0.87178,3.78688 h 1.13877 l 0.65127,-2.91738 c 0.039,-0.17745 0.0993,-0.35685 0.18319,-0.53625 0.0819,-0.18135 0.17759,-0.35302 0.28679,-0.51682 0.1092,-0.16575 0.22816,-0.31954 0.35686,-0.4658 0.13065,-0.14429 0.26345,-0.27136 0.398,-0.37666 0.1365,-0.10726 0.27073,-0.18901 0.40333,-0.24946 0.13455,-0.0605 0.25933,-0.0895 0.37438,-0.0895 0.2028,0 0.34905,0.0545 0.43875,0.16758 0.0916,0.1131 0.13673,0.2884 0.13673,0.52825 0,0.10141 -0.0116,0.22839 -0.037,0.38048 -0.0254,0.15405 -0.0606,0.32754 -0.10549,0.52254 -0.0448,0.195 -0.0957,0.40936 -0.15616,0.63947 -0.0604,0.23009 -0.1248,0.47207 -0.195,0.72363 -0.0663,0.24765 -0.115,0.47385 -0.14815,0.6825 -0.0332,0.2067 -0.0488,0.38791 -0.0488,0.54196 0,0.156 0.0237,0.29824 0.0705,0.42694 0.0448,0.13065 0.1111,0.24189 0.1969,0.33744 0.0839,0.0936 0.18693,0.16977 0.30393,0.22242 0.11895,0.0546 0.24774,0.0819 0.38619,0.0819 0.1677,0 0.32368,-0.0214 0.47188,-0.0663 0.14625,-0.0448 0.29474,-0.11329 0.44294,-0.20299 0.15015,-0.0917 0.30404,-0.20657 0.46199,-0.34697 0.15989,-0.13845 0.33339,-0.30431 0.52253,-0.4993 l -0.39952,-0.38201 c -0.117,0.12676 -0.22061,0.2359 -0.31421,0.32754 -0.0936,0.0917 -0.17756,0.16583 -0.25556,0.22433 -0.078,0.0565 -0.15179,0.0995 -0.22394,0.12682 -0.0721,0.0273 -0.14452,0.0407 -0.21861,0.0407 -0.11896,0 -0.20667,-0.0331 -0.26127,-0.0994 -0.0526,-0.0644 -0.08,-0.17176 -0.08,-0.31802 0,-0.039 0.0174,-0.13835 0.0526,-0.29631 0.0332,-0.15989 0.0783,-0.35084 0.13292,-0.57509 0.0546,-0.22425 0.11284,-0.47024 0.17329,-0.73544 0.0624,-0.2652 0.12098,-0.52426 0.17558,-0.77581 0.0546,-0.25155 0.0974,-0.48366 0.13253,-0.69621 0.0351,-0.21255 0.0529,-0.38036 0.0529,-0.49931 0,-0.39975 -0.1015,-0.7097 -0.3043,-0.93005 -0.20475,-0.22035 -0.51104,-0.33135 -0.92054,-0.33135 -0.39195,0 -0.77026,0.12845 -1.13686,0.3839 -0.36465,0.25545 -0.735,0.64149 -1.11135,1.15629 l -0.0819,-0.029 c 0.0351,-0.078 0.0583,-0.1599 0.072,-0.24375 0.0137,-0.0858 0.0217,-0.1677 0.0217,-0.24375 0,-0.30615 -0.0782,-0.55395 -0.23613,-0.74115 -0.156,-0.1872 -0.37833,-0.2826 -0.66498,-0.2826 z m 6.66503,2.08635 v 0.8874 h 6.69246 v -0.8874 z M 21.775997,55.63327 v 1.05117 h 9.736287 V 55.63327 Z M 53.1291,56.28073 c -0.716625,0 -1.34873,0.12875 -1.89668,0.38809 -0.54795,0.2574 -0.97215,0.62417 -1.272449,1.09802 -0.3003,0.47385 -0.450175,1.02174 -0.450175,1.64379 0,0.39 0.07621,0.74289 0.228895,1.05879 0.15288,0.3159 0.358429,0.60262 0.616609,0.85807 0.25818,0.25545 0.58215,0.51486 0.971955,0.7781 0.43212,0.29055 0.76244,0.54585 0.991755,0.7701 0.22913,0.22425 0.400485,0.45813 0.51378,0.70383 0.113295,0.24375 0.169865,0.52837 0.169865,0.84817 0,0.69615 -0.20517,1.23855 -0.61623,1.62855 -0.410865,0.39 -0.97477,0.585 -1.691395,0.585 -0.62166,0 -1.081328,-0.15602 -1.379093,-0.46997 -0.29757,-0.31396 -0.446367,-0.79163 -0.446367,-1.43318 h -0.758671 l -0.47417,2.17204 c 0.44265,0.1209 0.944327,0.2225 1.505537,0.3005 0.561015,0.0799 1.083804,0.11883 1.568379,0.11883 0.716625,0 1.35547,-0.13647 1.916485,-0.40752 0.56121,-0.27105 0.99596,-0.65518 1.30406,-1.15438 0.308295,-0.49725 0.462365,-1.06657 0.462365,-1.71007 0,-0.41535 -0.06439,-0.78211 -0.193475,-1.09801 -0.12909,-0.3159 -0.32918,-0.61612 -0.60062,-0.89692 -0.271245,-0.28275 -0.665065,-0.60249 -1.181425,-0.96129 -0.59007,-0.4056 -0.98916,-0.75664 -1.19742,-1.05499 -0.208065,-0.2964 -0.311925,-0.64351 -0.311925,-1.03936 0,-0.3783 0.08657,-0.72365 0.26051,-1.03175 0.17394,-0.3081 0.426585,-0.55151 0.75867,-0.72896 0.33189,-0.1794 0.71662,-0.26927 1.154005,-0.26927 0.358215,0 0.645065,0.0545 0.861125,0.16567 0.21606,0.11115 0.38233,0.29256 0.49816,0.54996 0.116025,0.25545 0.184225,0.60649 0.205285,1.05499 h 0.75867 l 0.44256,-2.03189 c -0.500565,-0.15795 -0.9575,-0.26924 -1.371095,-0.33554 -0.413595,-0.0663 -0.862905,-0.0994 -1.34748,-0.0994 z m 168.96789,0 -3.69892,2.20555 0.34696,0.60824 c 0.45825,-0.30615 0.84239,-0.54589 1.15438,-0.71945 0.31005,-0.17355 0.5498,-0.26126 0.71945,-0.26126 0.14235,0 0.24964,0.0488 0.32374,0.14625 0.0741,0.0975 0.11121,0.25138 0.11121,0.46198 v 6.40987 c 0,0.36854 -0.0314,0.63561 -0.0918,0.79942 -0.0605,0.16184 -0.15572,0.28848 -0.28832,0.37819 -0.13065,0.0897 -0.32203,0.15624 -0.57358,0.20109 -0.2496,0.0448 -0.66688,0.0817 -1.25188,0.10702 v 0.57739 h 5.84049 v -0.57739 c -0.4056,-0.01 -0.73346,-0.029 -0.98111,-0.0583 -0.24765,-0.0292 -0.45205,-0.0722 -0.61585,-0.12683 -0.1638,-0.0565 -0.28895,-0.13254 -0.37475,-0.23005 -0.0877,-0.0975 -0.1481,-0.22452 -0.1832,-0.37856 -0.0331,-0.156 -0.0507,-0.38588 -0.0507,-0.69202 v -6.74922 c 0,-0.89504 0.0156,-1.5969 0.0469,-2.10195 z m 70.33862,0 c -0.7176,0 -1.3495,0.12875 -1.89745,0.38809 -0.54795,0.2574 -0.971,0.62417 -1.2713,1.09802 -0.3003,0.47385 -0.45054,1.02174 -0.45054,1.64379 0,0.39 0.076,0.74289 0.22813,1.05879 0.15405,0.3159 0.35882,0.60262 0.61622,0.85807 0.25935,0.25545 0.5831,0.51486 0.9731,0.7781 0.43095,0.29055 0.76247,0.54585 0.99062,0.7701 0.2301,0.22425 0.40182,0.45813 0.51492,0.70383 0.1131,0.24375 0.16947,0.52837 0.16947,0.84817 0,0.69615 -0.20477,1.23855 -0.61622,1.62855 -0.41145,0.39 -0.975,0.585 -1.69065,0.585 -0.62205,0 -1.08225,-0.15602 -1.3806,-0.46997 -0.2964,-0.31396 -0.44637,-0.79163 -0.44637,-1.43318 h -0.75867 l -0.47379,2.17204 c 0.44265,0.1209 0.94354,0.2225 1.50515,0.3005 0.5616,0.0799 1.08435,0.11883 1.5699,0.11883 0.71565,0 1.35531,-0.13647 1.91496,-0.40752 0.5616,-0.27105 0.99636,-0.65518 1.30446,-1.15438 0.3081,-0.49725 0.46236,-1.06657 0.46236,-1.71007 0,-0.41535 -0.0644,-0.78211 -0.19311,-1.09801 -0.1287,-0.3159 -0.32955,-0.61612 -0.6006,-0.89692 -0.27105,-0.28275 -0.66506,-0.60249 -1.18181,-0.96129 -0.59085,-0.4056 -0.98877,-0.75664 -1.19742,-1.05499 -0.20865,-0.2964 -0.31192,-0.64351 -0.31192,-1.03936 0,-0.3783 0.0877,-0.72365 0.26126,-1.03175 0.17355,-0.3081 0.42718,-0.55151 0.75868,-0.72896 0.3315,-0.1794 0.71567,-0.26927 1.15247,-0.26927 0.3588,0 0.64543,0.0545 0.86188,0.16567 0.21645,0.11115 0.38232,0.29256 0.49932,0.54996 0.11505,0.25545 0.18307,0.60649 0.20452,1.05499 h 0.75866 l 0.44258,-2.03189 c -0.50115,-0.15795 -0.95732,-0.26924 -1.37072,-0.33554 -0.4134,-0.0663 -0.86389,-0.0994 -1.34749,-0.0994 z m 134.02138,0 c -0.5109,0 -0.9828,0.11138 -1.41375,0.33173 -0.4329,0.2223 -0.80325,0.56355 -1.11135,1.02375 -0.3081,0.46215 -0.54785,1.04491 -0.71945,1.75081 -0.16965,0.70589 -0.25555,1.54257 -0.25555,2.51367 0,1.8213 0.27681,3.18243 0.83256,4.07748 0.55575,0.89505 1.40423,1.34367 2.54108,1.34367 1.16025,0 2.04138,-0.47801 2.64393,-1.43545 0.60255,-0.95551 0.90493,-2.36716 0.90493,-4.23136 0,-1.8018 -0.28273,-3.14748 -0.84628,-4.03862 -0.56355,-0.89116 -1.42172,-1.33568 -2.57612,-1.33568 z M 9.780068,56.49705 c -0.15873,0 -0.309898,0.0215 -0.453223,0.0625 -0.143325,0.0429 -0.287381,0.1114 -0.432656,0.2011 -0.145275,0.0916 -0.2982555,0.20652 -0.4589355,0.34887 -0.16068,0.1404 -0.337664,0.30992 -0.531299,0.50883 l 0.400664,0.37666 c 0.11622,-0.11895 0.221008,-0.22451 0.313828,-0.31421 0.093015,-0.0877 0.1792385,-0.16163 0.2586035,-0.22013 0.079365,-0.0585 0.1546655,-0.10139 0.2262305,-0.13064 0.07176,-0.0293 0.142524,-0.0431 0.212139,-0.0431 0.22854,0 0.3427735,0.14039 0.3427735,0.42314 0,0.1014 -0.011835,0.2301 -0.03504,0.39 -0.023205,0.15795 -0.06014,0.33726 -0.1104495,0.54006 L 8.641678,62.42702 h 1.138389 l 0.650508,-2.9151 c 0.0388,-0.1794 0.09974,-0.35876 0.182812,-0.53816 0.08327,-0.1794 0.179129,-0.35303 0.287549,-0.51683 0.10842,-0.1638 0.227376,-0.31996 0.357246,-0.46426 0.129675,-0.14625 0.262473,-0.27095 0.397998,-0.3782 0.135525,-0.10725 0.269755,-0.18901 0.403331,-0.24946 0.133575,-0.0604 0.258545,-0.0899 0.374765,-0.0899 0.201435,0 0.347304,0.0568 0.438369,0.16796 0.09107,0.1131 0.136728,0.2884 0.136728,0.52825 0,0.1014 -0.01254,0.22838 -0.03771,0.38048 -0.02515,0.15405 -0.06028,0.32754 -0.104738,0.52254 -0.04446,0.19695 -0.09685,0.40936 -0.156914,0.63946 -0.06006,0.2301 -0.124809,0.47208 -0.194619,0.72363 -0.06572,0.24765 -0.115013,0.4758 -0.147773,0.6825 -0.03295,0.2067 -0.04951,0.38792 -0.04951,0.54197 0,0.156 0.02329,0.29824 0.0697,0.42694 0.04641,0.13065 0.112451,0.24189 0.197666,0.33744 0.08502,0.0956 0.186713,0.16973 0.304688,0.22433 0.11817,0.0526 0.246765,0.08 0.386192,0.08 0.166528,0 0.323517,-0.0214 0.470742,-0.0663 0.14703,-0.0448 0.295101,-0.11135 0.444081,-0.203 0.149175,-0.0916 0.303252,-0.20661 0.461982,-0.34506 0.15873,-0.1404 0.332805,-0.30621 0.52254,-0.50121 l -0.400665,-0.382 c -0.11622,0.12675 -0.220812,0.23784 -0.313827,0.32754 -0.09282,0.0916 -0.177762,0.16582 -0.255177,0.22432 -0.07761,0.0585 -0.152379,0.0992 -0.223944,0.12645 -0.07156,0.0273 -0.144337,0.0412 -0.217852,0.0412 -0.12012,0 -0.20706,-0.0332 -0.26127,-0.0975 -0.05421,-0.0663 -0.08112,-0.17368 -0.08112,-0.31993 0,-0.039 0.01728,-0.13835 0.05218,-0.2963 0.03471,-0.1599 0.07947,-0.35085 0.13368,-0.5751 0.05421,-0.22425 0.112238,-0.47024 0.174053,-0.73544 0.06201,-0.2652 0.120224,-0.52236 0.174434,-0.77391 0.05421,-0.25155 0.0984,-0.48556 0.133302,-0.69811 0.03491,-0.21255 0.05256,-0.37841 0.05256,-0.49931 0,-0.39975 -0.101683,-0.70776 -0.305068,-0.93006 -0.20319,-0.22035 -0.510063,-0.32982 -0.920538,-0.32982 -0.390975,0 -0.769708,0.12693 -1.135723,0.38238 -0.36582,0.25545 -0.736344,0.64149 -1.112109,1.15629 l -0.0815,-0.0293 c 0.03491,-0.078 0.05909,-0.15795 0.07274,-0.24375 0.01345,-0.0858 0.02056,-0.16575 0.02056,-0.24375 0,-0.30615 -0.07859,-0.55357 -0.235371,-0.74076 C 10.28807,56.59097 10.066715,56.4971 9.7800645,56.4971 Z m 416.638072,0.45666 c 0.39975,0 0.741,0.1618 1.02375,0.4894 0.2808,0.32565 0.50094,0.86562 0.65889,1.61637 0.15795,0.75075 0.23804,1.73156 0.23804,2.94252 0,1.58729 -0.1539,2.7572 -0.462,3.5138 -0.31005,0.75466 -0.78218,1.13306 -1.41983,1.13306 -0.66885,0 -1.16212,-0.40163 -1.48192,-1.20504 -0.31785,-0.80339 -0.47762,-2.06322 -0.47762,-3.78117 0,-0.7332 0.0312,-1.39022 0.0956,-1.97133 0.0624,-0.58304 0.1694,-1.07632 0.31955,-1.48192 0.15015,-0.4056 0.34729,-0.71589 0.59299,-0.93234 0.24375,-0.21646 0.54789,-0.32335 0.91254,-0.32335 z M 88.1316,57.48995 v 4.55318 h -4.30714 v 1.05079 h 4.30714 v 4.55127 h 1.122015 v -4.55127 h 4.307135 v -1.05079 h -4.307135 v -4.55318 z m 239.30651,0 v 4.55318 h -4.30751 v 1.05079 h 4.30751 v 4.55127 h 1.12125 v -4.55127 h 4.30753 v -1.05079 h -4.30753 v -4.55318 z m 79.14259,0.1733 v 1.18561 l 8.58191,3.72252 -8.58191,3.72252 v 1.18561 l 9.76751,-4.35436 v -1.10754 z m -132.60952,0.57738 -0.78991,0.78952 3.59569,3.54923 -3.61322,3.60331 0.73508,0.74305 3.65242,-3.58008 3.53933,3.61132 0.79143,-0.78952 -3.54885,-3.58808 3.54124,-3.60369 -0.74306,-0.73506 -3.58009,3.57246 z m 119.90139,1.26559 c -0.4056,0 -0.76828,0.10504 -1.09003,0.31955 -0.32175,0.21254 -0.7233,0.57354 -1.20885,1.07859 l 0.45018,0.44256 c 0.3159,-0.35296 0.56552,-0.5967 0.74687,-0.73126 0.18135,-0.13454 0.35498,-0.2007 0.51683,-0.2007 0.1482,0 0.25738,0.0465 0.32563,0.14205 0.0682,0.0936 0.1013,0.24758 0.1013,0.45818 0,0.273 -0.0563,0.663 -0.1733,1.17 l -1.15438,5.00982 h 1.36882 l 0.75068,-3.4224 c 0.1092,-0.48945 0.25149,-0.90282 0.42504,-1.23627 0.1755,-0.3354 0.40573,-0.68065 0.69238,-1.03556 0.28665,-0.35489 0.55765,-0.62201 0.81505,-0.79751 0.25545,-0.17745 0.49338,-0.26508 0.71373,-0.26508 0.27495,0 0.47171,0.08 0.59261,0.23994 0.1209,0.16185 0.18168,0.42297 0.18168,0.78762 0,0.14624 -0.0197,0.33948 -0.0587,0.57738 -0.039,0.23595 -0.12271,0.60233 -0.24946,1.09764 l -0.34733,1.3669 c -0.17355,0.663 -0.26128,1.16614 -0.26128,1.50935 0,0.38024 0.10337,0.69239 0.30812,0.93614 0.2067,0.2457 0.47983,0.36868 0.82303,0.36868 0.43095,0 0.81703,-0.11324 1.15438,-0.33553 0.3354,-0.22426 0.73131,-0.57934 1.18371,-1.06489 l -0.45055,-0.44066 c -0.32565,0.3627 -0.57926,0.60865 -0.75866,0.73735 -0.17745,0.13065 -0.34708,0.195 -0.50503,0.195 -0.1482,0 -0.25547,-0.0488 -0.32372,-0.14245 -0.0682,-0.0956 -0.10322,-0.24757 -0.10322,-0.45817 0,-0.2379 0.0721,-0.64354 0.21443,-1.21684 l 0.513,-2.07112 c 0.1521,-0.6123 0.23004,-1.0822 0.23004,-1.41565 0,-0.4992 -0.13283,-0.8911 -0.39608,-1.1719 -0.26325,-0.28275 -0.63939,-0.42314 -1.13079,-0.42314 -0.4953,0 -0.97511,0.17539 -1.44116,0.52444 -0.46605,0.351 -0.95755,0.8894 -1.4743,1.61675 l -0.0952,-0.0312 c 0.12675,-0.3432 0.19081,-0.65311 0.19081,-0.93196 0,-0.35295 -0.0972,-0.63968 -0.28831,-0.85808 -0.19305,-0.2184 -0.45454,-0.32754 -0.78799,-0.32754 z m -201.46624,0.90073 v 1.05118 h 9.73629 v -1.05118 z m 38.27485,1.63618 v 1.05079 h 9.73627 v -1.05079 z m -132.324645,0.0213 v 0.975 h 88.529235 v -0.975 z m 146.834245,0 v 0.975 h 13.845 v -0.975 z m 92.43,0 v 0.975 h 37.635 v -0.975 z M 75.511825,62.99868 c -0.48399,0.25935 -0.961115,0.52061 -1.43165,0.7819 -0.47034,0.2613 -0.945845,0.52247 -1.425935,0.78572 0.0464,0.0936 0.09117,0.18533 0.13368,0.27308 0.0427,0.0897 0.08908,0.17923 0.139395,0.26697 0.37557,-0.24374 0.681345,-0.42706 0.91749,-0.55186 0.236145,-0.12285 0.41442,-0.1851 0.534345,-0.1851 0.10842,0 0.191735,0.0313 0.249845,0.0937 0.05811,0.0605 0.08722,0.16749 0.08722,0.31764 v 4.16546 c 0,0.1326 -0.0071,0.24165 -0.02055,0.33135 -0.01365,0.0877 -0.03165,0.16383 -0.05485,0.22623 -0.0234,0.0624 -0.05451,0.11291 -0.09331,0.15386 -0.0388,0.0409 -0.08518,0.078 -0.139395,0.11312 -0.05031,0.0312 -0.109435,0.0566 -0.1771,0.0781 -0.06786,0.0214 -0.15771,0.0411 -0.27003,0.0587 -0.11232,0.0175 -0.247645,0.031 -0.406375,0.0408 -0.15873,0.01 -0.35265,0.0178 -0.58119,0.0255 v 0.50502 h 4.60611 v -0.50502 c -0.236145,-0.004 -0.43861,-0.01 -0.60709,-0.0195 -0.168285,-0.01 -0.312535,-0.0236 -0.432655,-0.0412 -0.119925,-0.0175 -0.218895,-0.039 -0.29631,-0.0644 -0.07742,-0.0254 -0.13945,-0.0606 -0.18586,-0.1074 -0.0386,-0.0312 -0.07225,-0.0679 -0.101305,-0.11083 -0.02905,-0.0409 -0.05235,-0.0938 -0.0697,-0.15235 -0.01755,-0.0605 -0.0303,-0.13429 -0.0381,-0.22204 -0.0078,-0.0858 -0.0114,-0.18911 -0.0114,-0.31001 v -4.41493 c 0,-0.15405 0.001,-0.31202 0.0025,-0.46997 0.002,-0.15795 0.005,-0.32167 0.0087,-0.49132 0.004,-0.1677 0.0099,-0.35873 0.0175,-0.57128 z m 239.305755,0 c -0.4836,0.25935 -0.96131,0.52061 -1.43126,0.7819 -0.46995,0.2613 -0.94587,0.52247 -1.42557,0.78572 0.0448,0.0936 0.09,0.18533 0.13293,0.27308 0.0429,0.0897 0.0894,0.17923 0.14015,0.26697 0.3744,-0.24374 0.68078,-0.42706 0.91673,-0.55186 0.23595,-0.12285 0.41502,-0.1851 0.53397,-0.1851 0.1092,0 0.19328,0.0313 0.24983,0.0937 0.0585,0.0605 0.0876,0.16749 0.0876,0.31764 v 4.16546 c 0,0.1326 -0.006,0.24165 -0.0195,0.33135 -0.0136,0.0877 -0.0329,0.16383 -0.0564,0.22623 -0.0234,0.0624 -0.0547,0.11291 -0.0918,0.15386 -0.039,0.0409 -0.0859,0.078 -0.14054,0.11312 -0.0507,0.0312 -0.10924,0.0566 -0.17749,0.0781 -0.0663,0.0214 -0.15774,0.0411 -0.26889,0.0587 -0.1131,0.0175 -0.24763,0.031 -0.40753,0.0408 -0.15795,0.01 -0.35107,0.0178 -0.58117,0.0255 v 0.50502 h 4.60572 v -0.50502 c -0.23595,-0.004 -0.43668,-0.01 -0.60633,-0.0195 -0.1677,-0.01 -0.31214,-0.0236 -0.43304,-0.0412 -0.11895,-0.0175 -0.2183,-0.039 -0.2963,-0.0644 -0.0761,-0.0254 -0.1383,-0.0606 -0.1851,-0.1074 -0.039,-0.0312 -0.072,-0.0679 -0.1013,-0.11083 -0.0293,-0.0409 -0.0529,-0.0938 -0.0705,-0.15235 -0.0176,-0.0605 -0.0292,-0.13429 -0.037,-0.22204 -0.008,-0.0858 -0.0119,-0.18911 -0.0119,-0.31001 v -4.41493 c 0,-0.15405 -4e-5,-0.31202 0.002,-0.46997 0.002,-0.15795 0.006,-0.32167 0.01,-0.49132 0.004,-0.1677 0.01,-0.35873 0.0175,-0.57128 z m -122.41125,0.68821 v 1.05117 h 9.73629 V 63.68689 Z M 57.416815,64.54878 c -0.15873,0 -0.30971,0.0215 -0.45284,0.0644 -0.143325,0.0429 -0.287575,0.10906 -0.432655,0.20071 -0.145275,0.0897 -0.29826,0.20695 -0.45894,0.34735 -0.16068,0.14235 -0.33804,0.31188 -0.531675,0.50883 l 0.401045,0.37819 c 0.116025,-0.1209 0.22043,-0.22413 0.313445,-0.31383 0.09282,-0.0897 0.17924,-0.16397 0.258605,-0.22052 0.07936,-0.0585 0.155045,-0.10138 0.22661,-0.13063 0.07156,-0.0292 0.14214,-0.0445 0.211755,-0.0445 0.22854,0 0.342775,0.14229 0.342775,0.42504 0,0.0994 -0.01145,0.23014 -0.03465,0.3881 -0.0232,0.1599 -0.06014,0.3392 -0.11045,0.54005 l -0.87141,3.78689 h 1.13839 l 0.65051,-2.91548 c 0.0386,-0.17745 0.09954,-0.35685 0.18281,-0.53625 0.08326,-0.18135 0.179325,-0.35265 0.28755,-0.51644 0.10842,-0.16575 0.22757,-0.31993 0.357245,-0.46618 0.129675,-0.1443 0.262475,-0.27099 0.398,-0.37629 0.135525,-0.10725 0.270135,-0.19134 0.40371,-0.24984 0.133575,-0.0605 0.258165,-0.0914 0.374385,-0.0914 0.20124,0 0.347685,0.0564 0.43875,0.16949 0.09087,0.11114 0.13635,0.28878 0.13635,0.52863 0,0.0994 -0.01255,0.22604 -0.0377,0.3801 -0.02515,0.15209 -0.05989,0.32754 -0.104355,0.52253 -0.04465,0.195 -0.09705,0.4078 -0.15691,0.63985 -0.06006,0.2301 -0.125005,0.4698 -0.19462,0.72135 -0.06591,0.2496 -0.1152,0.4758 -0.148155,0.6825 -0.03295,0.20865 -0.0495,0.38824 -0.0495,0.54424 0,0.15405 0.0233,0.2963 0.0697,0.42695 0.0466,0.1287 0.11245,0.24189 0.197665,0.33744 0.08521,0.0936 0.1869,0.16744 0.30507,0.22204 0.11817,0.0546 0.246765,0.0819 0.38619,0.0819 0.166335,0 0.32333,-0.0214 0.47036,-0.0663 0.147225,-0.0448 0.29529,-0.11287 0.444465,-0.20452 0.14898,-0.0897 0.30287,-0.20504 0.4616,-0.34544 0.15873,-0.13846 0.332805,-0.30588 0.52254,-0.49893 l -0.400665,-0.38428 c -0.11622,0.12869 -0.220625,0.23779 -0.313445,0.32944 -0.09302,0.0897 -0.17814,0.16587 -0.255555,0.22242 -0.07742,0.0585 -0.152,0.10143 -0.223565,0.12873 -0.07176,0.0273 -0.14434,0.0408 -0.217855,0.0408 -0.12012,0 -0.20744,-0.0331 -0.26165,-0.0994 -0.05421,-0.0663 -0.08112,-0.17134 -0.08112,-0.31954 0,-0.0371 0.01745,-0.13679 0.05218,-0.29669 0.0349,-0.15796 0.07947,-0.34895 0.133685,-0.57319 0.05421,-0.2262 0.11204,-0.46986 0.17405,-0.73506 0.06201,-0.2652 0.120225,-0.52464 0.174435,-0.7762 0.05421,-0.25154 0.09878,-0.48366 0.13368,-0.69621 0.0347,-0.21255 0.05218,-0.37998 0.05218,-0.49892 0,-0.39975 -0.10188,-0.71009 -0.30507,-0.93044 -0.203385,-0.22035 -0.51006,-0.33135 -0.920535,-0.33135 -0.39117,0 -0.769525,0.12884 -1.135345,0.38429 -0.366015,0.25545 -0.73692,0.63954 -1.11249,1.15629 l -0.08112,-0.0293 c 0.0349,-0.078 0.0589,-0.1599 0.07236,-0.24375 0.01365,-0.0858 0.02055,-0.16766 0.02055,-0.24566 0,-0.3042 -0.0784,-0.55204 -0.23537,-0.73924 -0.15678,-0.18915 -0.378525,-0.2826 -0.66498,-0.2826 z m 239.306885,0 c -0.1599,0 -0.31005,0.0215 -0.45435,0.0644 -0.14235,0.0429 -0.28678,0.10906 -0.43303,0.20071 -0.1443,0.0897 -0.29633,0.20695 -0.45818,0.34735 -0.1599,0.14235 -0.33748,0.31188 -0.53053,0.50883 l 0.39988,0.37819 c 0.117,-0.1209 0.22024,-0.22413 0.31384,-0.31383 0.0936,-0.0897 0.17945,-0.16397 0.25745,-0.22052 0.0799,-0.0585 0.15599,-0.10138 0.22814,-0.13063 0.0702,-0.0292 0.14236,-0.0445 0.21061,-0.0445 0.22815,0 0.34317,0.14229 0.34317,0.42504 0,0.0994 -0.0117,0.23014 -0.0351,0.3881 -0.0234,0.1599 -0.0605,0.3392 -0.1093,0.54005 l -0.87141,3.78689 h 1.13876 l 0.64937,-2.91548 c 0.039,-0.17745 0.0994,-0.35685 0.1832,-0.53625 0.0839,-0.18135 0.17954,-0.35265 0.28679,-0.51644 0.1092,-0.16575 0.22811,-0.31993 0.35876,-0.46618 0.1287,-0.1443 0.26112,-0.27099 0.39762,-0.37629 0.13455,-0.10725 0.26916,-0.19134 0.40371,-0.24984 0.1326,-0.0605 0.25738,-0.0914 0.37438,-0.0914 0.20085,0 0.3471,0.0564 0.43875,0.16949 0.0897,0.11114 0.13634,0.28878 0.13634,0.52863 0,0.0994 -0.0135,0.22604 -0.0389,0.3801 -0.0254,0.15209 -0.0584,0.32754 -0.10321,0.52253 -0.0448,0.195 -0.0976,0.4078 -0.15805,0.63985 -0.0585,0.2301 -0.12485,0.4698 -0.1931,0.72135 -0.0663,0.2496 -0.11695,0.4758 -0.14815,0.6825 -0.0331,0.20865 -0.0507,0.38824 -0.0507,0.54424 0,0.15405 0.0233,0.2963 0.0701,0.42695 0.0468,0.1287 0.11306,0.24189 0.19691,0.33744 0.0858,0.0936 0.18726,0.16744 0.30621,0.22204 0.117,0.0546 0.24577,0.0819 0.38617,0.0819 0.16575,0 0.32374,-0.0214 0.46999,-0.0663 0.14625,-0.0448 0.29432,-0.11287 0.44447,-0.20452 0.1482,-0.0897 0.30246,-0.20504 0.46236,-0.34544 0.15795,-0.13846 0.33144,-0.30588 0.52254,-0.49893 l -0.40182,-0.38428 c -0.11505,0.12869 -0.22023,0.23779 -0.31383,0.32944 -0.0916,0.0897 -0.17755,0.16587 -0.25555,0.22242 -0.0761,0.0585 -0.15221,0.10143 -0.22241,0.12873 -0.0721,0.0273 -0.14415,0.0408 -0.21825,0.0408 -0.1209,0 -0.20666,-0.0331 -0.26126,-0.0994 -0.0546,-0.0663 -0.0819,-0.17134 -0.0819,-0.31954 0,-0.0371 0.0175,-0.13679 0.0525,-0.29669 0.0351,-0.15796 0.0799,-0.34895 0.13255,-0.57319 0.0546,-0.2262 0.11317,-0.46986 0.17557,-0.73506 0.0624,-0.2652 0.11907,-0.52464 0.17367,-0.7762 0.0546,-0.25154 0.0994,-0.48366 0.13445,-0.69621 0.0351,-0.21255 0.0506,-0.37998 0.0506,-0.49892 0,-0.39975 -0.10149,-0.71009 -0.3043,-0.93044 -0.2028,-0.22035 -0.50871,-0.33135 -0.92016,-0.33135 -0.39195,0 -0.77031,0.12884 -1.13496,0.38429 -0.3666,0.25545 -0.73728,0.63954 -1.11363,1.15629 l -0.08,-0.0293 c 0.0351,-0.078 0.0587,-0.1599 0.0724,-0.24375 0.0137,-0.0858 0.0195,-0.16766 0.0195,-0.24566 0,-0.3042 -0.0778,-0.55204 -0.23385,-0.73924 -0.15795,-0.18915 -0.37833,-0.2826 -0.66498,-0.2826 z M 64.082235,66.63513 v 0.8874 h 6.69094 v -0.8874 z m 239.306505,0 v 0.8874 h 6.69057 v -0.8874 z m -165.2762,3.63111 c -0.39975,0 -0.76643,0.1109 -1.10183,0.33515 -0.33345,0.22425 -0.73294,0.57938 -1.19704,1.06298 l 0.45018,0.44256 c 0.3159,-0.35295 0.56551,-0.5967 0.74686,-0.73125 0.18135,-0.13455 0.35494,-0.20071 0.51874,-0.20071 0.14625,0 0.25548,0.0465 0.32373,0.14206 0.0682,0.0956 0.10131,0.24795 0.10131,0.45855 -1e-5,0.27495 -0.0563,0.663 -0.1733,1.17 l -1.15248,5.00945 h 1.36691 l 0.75067,-3.42241 c 0.1092,-0.4836 0.24757,-0.89511 0.40942,-1.23246 0.1638,-0.33735 0.39005,-0.688 0.6806,-1.0546 0.29055,-0.3666 0.56149,-0.63215 0.81694,-0.7979 0.25545,-0.16575 0.48394,-0.24946 0.68479,-0.24946 0.2847,0 0.49311,0.08 0.62766,0.24185 0.13455,0.1599 0.20109,0.43103 0.20109,0.80932 0,0.16965 -0.0196,0.37043 -0.0587,0.60443 -0.039,0.234 -0.11513,0.59676 -0.22433,1.08621 l -0.90873,4.01502 h 1.36691 l 0.71753,-3.45364 c 0.1053,-0.48945 0.24802,-0.90458 0.42352,-1.24388 0.17745,-0.3393 0.40555,-0.68456 0.6844,-1.03556 0.27885,-0.351 0.54402,-0.60854 0.79752,-0.77429 0.2535,-0.16575 0.48953,-0.24946 0.71183,-0.24946 0.273,0 0.47172,0.08 0.59262,0.24185 0.1209,0.1599 0.18129,0.42301 0.18129,0.78571 0,0.1482 -0.0192,0.33948 -0.0583,0.57738 -0.0409,0.23595 -0.12309,0.60234 -0.24984,1.09764 l -0.34696,1.36728 c -0.17355,0.66495 -0.26127,1.16772 -0.26127,1.50897 0,0.38025 0.10336,0.69235 0.30811,0.93805 0.20475,0.24375 0.4795,0.36677 0.82075,0.36677 0.4329,0 0.81704,-0.11314 1.15439,-0.33934 0.33735,-0.2262 0.73321,-0.57909 1.18561,-1.05879 l -0.45017,-0.44294 c -0.32565,0.3627 -0.57927,0.61055 -0.75867,0.73925 -0.1794,0.1287 -0.34707,0.19309 -0.50502,0.19309 -0.1482,0 -0.25544,-0.0469 -0.32564,-0.14244 -0.0682,-0.0955 -0.10169,-0.24757 -0.10169,-0.45817 0,-0.2379 0.0705,-0.64355 0.2129,-1.21685 l 0.51454,-2.07073 c 0.1521,-0.61035 0.22814,-1.08225 0.22814,-1.41375 0,-0.507 -0.13056,-0.89915 -0.39381,-1.178 -0.2652,-0.27885 -0.6376,-0.41932 -1.12315,-0.41932 -0.4836,0 -0.9515,0.15602 -1.40195,0.46998 -0.45045,0.31395 -0.90308,0.79157 -1.35548,1.43508 0.004,-0.0429 0.008,-0.0818 0.008,-0.11883 v -0.11121 c 0,-0.54211 -0.13284,-0.95724 -0.39609,-1.24389 -0.26325,-0.28665 -0.64738,-0.43113 -1.15438,-0.43113 -0.48946,0 -0.9729,0.17572 -1.4526,0.52672 -0.4797,0.34906 -0.96134,0.88535 -1.44689,1.60685 l -0.0956,-0.0312 c 0.12285,-0.32565 0.18319,-0.63574 0.18319,-0.92434 0,-0.35296 -0.0972,-0.63968 -0.28831,-0.85808 -0.19305,-0.2184 -0.45454,-0.32754 -0.78799,-0.32754 z m 109.52182,0 c -0.4017,0 -0.76832,0.1109 -1.10372,0.33515 -0.33345,0.22425 -0.73333,0.57938 -1.19743,1.06298 l 0.45056,0.44256 c 0.3159,-0.35295 0.56552,-0.5967 0.74687,-0.73125 0.18135,-0.13455 0.35492,-0.20071 0.51872,-0.20071 0.14625,0 0.25549,0.0465 0.32374,0.14206 0.0683,0.0956 0.10322,0.24795 0.10322,0.45855 0,0.27495 -0.0586,0.663 -0.17558,1.17 l -1.15249,5.00945 h 1.36728 l 0.75067,-3.42241 c 0.11115,-0.4836 0.24753,-0.89511 0.41133,-1.23246 0.16185,-0.33735 0.3901,-0.688 0.6787,-1.0546 0.29055,-0.3666 0.5634,-0.63215 0.81885,-0.7979 0.25545,-0.16575 0.48165,-0.24946 0.6825,-0.24946 0.2847,0 0.49348,0.08 0.62803,0.24185 0.13455,0.1599 0.20263,0.43103 0.20263,0.80932 0,0.16965 -0.0193,0.37043 -0.0602,0.60443 -0.039,0.234 -0.11513,0.59676 -0.22433,1.08621 l -0.90874,4.01502 h 1.36691 l 0.71946,-3.45364 c 0.1053,-0.48945 0.24572,-0.90458 0.42122,-1.24388 0.17745,-0.3393 0.40556,-0.68456 0.68441,-1.03556 0.27885,-0.351 0.54596,-0.60854 0.79751,-0.77429 0.2535,-0.16575 0.49148,-0.24946 0.71183,-0.24946 0.27495,0 0.47209,0.08 0.59299,0.24185 0.1209,0.1599 0.18129,0.42301 0.18129,0.78571 0,0.1482 -0.0196,0.33948 -0.0587,0.57738 -0.039,0.23595 -0.12272,0.60234 -0.24947,1.09764 l -0.34696,1.36728 c -0.17355,0.66495 -0.26165,1.16772 -0.26165,1.50897 0,0.38025 0.10337,0.69235 0.30812,0.93805 0.2067,0.24375 0.47983,0.36677 0.82303,0.36677 0.43095,0 0.81514,-0.11314 1.15249,-0.33934 0.33735,-0.2262 0.73322,-0.57909 1.18562,-1.05879 l -0.45056,-0.44294 c -0.32565,0.3627 -0.5789,0.61055 -0.7583,0.73925 -0.1794,0.1287 -0.34745,0.19309 -0.5054,0.19309 -0.1482,0 -0.2551,-0.0469 -0.32335,-0.14244 -0.0682,-0.0955 -0.10358,-0.24757 -0.10358,-0.45817 0,-0.2379 0.0702,-0.64355 0.21251,-1.21685 l 0.51493,-2.07073 c 0.1521,-0.61035 0.22813,-1.08225 0.22813,-1.41375 0,-0.507 -0.13057,-0.89915 -0.39382,-1.178 -0.26325,-0.27885 -0.63759,-0.41932 -1.12314,-0.41932 -0.4836,0 -0.95187,0.15602 -1.40232,0.46998 -0.45045,0.31395 -0.9027,0.79157 -1.3551,1.43508 0.006,-0.0429 0.008,-0.0818 0.008,-0.11883 v -0.11121 c 0,-0.54211 -0.13246,-0.95724 -0.39571,-1.24389 -0.26325,-0.28665 -0.64742,-0.43113 -1.15247,-0.43113 -0.4914,0 -0.9748,0.17572 -1.4545,0.52672 -0.4797,0.34906 -0.96134,0.88535 -1.44689,1.60685 l -0.0937,-0.0312 c 0.1209,-0.32565 0.18129,-0.63574 0.18129,-0.92434 0,-0.35296 -0.0976,-0.63968 -0.2887,-0.85808 -0.19305,-0.2184 -0.45421,-0.32754 -0.78571,-0.32754 z m 104.40308,0 c -0.4017,0 -0.76834,0.1109 -1.10374,0.33515 -0.33345,0.22425 -0.73332,0.57938 -1.19742,1.06298 l 0.45057,0.44256 c 0.31785,-0.35295 0.5655,-0.5967 0.74685,-0.73125 0.1833,-0.13455 0.35494,-0.20071 0.51874,-0.20071 0.1482,0 0.25549,0.0465 0.32374,0.14206 0.0682,0.0956 0.10321,0.24795 0.10321,0.45855 0,0.27495 -0.0586,0.663 -0.17368,1.17 l -1.15438,5.00945 h 1.36691 l 0.75104,-3.42241 c 0.11115,-0.4836 0.24753,-0.89511 0.41133,-1.23246 0.1638,-0.33735 0.3901,-0.688 0.6787,-1.0546 0.29055,-0.3666 0.56339,-0.63215 0.81884,-0.7979 0.25545,-0.16575 0.4836,-0.24946 0.6825,-0.24946 0.2847,0 0.4954,0.08 0.62995,0.24185 0.1326,0.1599 0.20072,0.43103 0.20072,0.80932 0,0.16965 -0.0196,0.37043 -0.0606,0.60443 -0.039,0.234 -0.11279,0.59676 -0.22394,1.08621 l -0.90874,4.01502 h 1.36693 l 0.71943,-3.45364 c 0.1053,-0.48945 0.2457,-0.90458 0.42315,-1.24388 0.1755,-0.3393 0.40365,-0.68456 0.6825,-1.03556 0.27885,-0.351 0.54592,-0.60854 0.79942,-0.77429 0.25155,-0.16575 0.48957,-0.24946 0.70992,-0.24946 0.27495,0 0.47172,0.08 0.59262,0.24185 0.12091,0.1599 0.18167,0.42301 0.18167,0.78571 0,0.1482 -0.0197,0.33948 -0.0587,0.57738 -0.039,0.23595 -0.12271,0.60234 -0.24946,1.09764 l -0.34733,1.36728 c -0.17355,0.66495 -0.26128,1.16772 -0.26128,1.50897 0,0.38025 0.10337,0.69235 0.30812,0.93805 0.2067,0.24375 0.47983,0.36677 0.82303,0.36677 0.43095,0 0.81703,-0.11314 1.15438,-0.33934 0.3354,-0.2262 0.73131,-0.57909 1.18371,-1.05879 l -0.45055,-0.44294 c -0.32565,0.3627 -0.57926,0.61055 -0.75866,0.73925 -0.17746,0.1287 -0.34708,0.19309 -0.50503,0.19309 -0.1482,0 -0.25547,-0.0469 -0.32372,-0.14244 -0.0682,-0.0955 -0.10322,-0.24757 -0.10322,-0.45817 0,-0.2379 0.0721,-0.64355 0.21443,-1.21685 l 0.513,-2.07073 c 0.1521,-0.61035 0.23004,-1.08225 0.23004,-1.41375 0,-0.507 -0.13246,-0.89915 -0.39571,-1.178 -0.26325,-0.27885 -0.63798,-0.41932 -1.12353,-0.41932 -0.4836,0 -0.95148,0.15602 -1.40193,0.46998 -0.45045,0.31395 -0.90272,0.79157 -1.35512,1.43508 0.006,-0.0429 0.008,-0.0818 0.008,-0.11883 v -0.11121 c 0,-0.54211 -0.13051,-0.95724 -0.39571,-1.24389 -0.26325,-0.28665 -0.64742,-0.43113 -1.15247,-0.43113 -0.4914,0 -0.9752,0.17572 -1.4549,0.52672 -0.4797,0.34906 -0.96133,0.88535 -1.44688,1.60685 l -0.0933,-0.0312 c 0.1209,-0.32565 0.18129,-0.63574 0.18129,-0.92434 0,-0.35296 -0.0956,-0.63968 -0.2887,-0.85808 -0.19305,-0.2184 -0.45421,-0.32754 -0.78571,-0.32754 z"
   id="path2"
   inkscape:connector-curvature="0"
   style="stroke-width:0.19499999" />

















































</svg>