<?xml version="1.0" encoding="UTF-8" standalone="no"?>
<svg
   xmlns:dc="http://purl.org/dc/elements/1.1/"
   xmlns:cc="http://creativecommons.org/ns#"
   xmlns:rdf="http://www.w3.org/1999/02/22-rdf-syntax-ns#"
   xmlns:svg="http://www.w3.org/2000/svg"
   xmlns="http://www.w3.org/2000/svg"
   xmlns:sodipodi="http://sodipodi.sourceforge.net/DTD/sodipodi-0.dtd"
   xmlns:inkscape="http://www.inkscape.org/namespaces/inkscape"
   width="270.8905"
   height="43.432449"
   xml:space="preserve"
   overflow="hidden"
   version="1.1"
   id="svg86"
   sodipodi:docname="13-claim.svg"
   style="overflow:hidden"
   inkscape:version="0.92.4 (5da689c313, 2019-01-14)"><metadata
   id="metadata92"><rdf:RDF><cc:Work
       rdf:about=""><dc:format>image/svg+xml</dc:format><dc:type
         rdf:resource="http://purl.org/dc/dcmitype/StillImage" /><dc:title></dc:title></cc:Work></rdf:RDF></metadata><defs
   id="defs90" /><sodipodi:namedview
   pagecolor="#ffffff"
   bordercolor="#666666"
   borderopacity="1"
   objecttolerance="10"
   gridtolerance="10"
   guidetolerance="10"
   inkscape:pageopacity="0"
   inkscape:pageshadow="2"
   inkscape:window-width="2097"
   inkscape:window-height="1164"
   id="namedview88"
   showgrid="false"
   inkscape:zoom="0.9608091"
   inkscape:cx="288.38929"
   inkscape:cy="308.16588"
   inkscape:window-x="0"
   inkscape:window-y="0"
   inkscape:window-maximized="0"
   inkscape:current-layer="svg86"
   fit-margin-top="0"
   fit-margin-left="0"
   fit-margin-right="0"
   fit-margin-bottom="0" /><path
   d="m 265.49478,1e-5 c -0.15795,0 -0.30972,0.0211 -0.45207,0.0636 -0.1443,0.0427 -0.28679,0.10965 -0.43304,0.200715 -0.1443,0.09087 -0.29827,0.20711 -0.45817,0.348485 -0.16185,0.141375 -0.33745,0.310535 -0.53245,0.50807 l 0.4018,0.37743 c 0.11505,-0.119925 0.22024,-0.22453 0.31384,-0.31345 0.0916,-0.08912 0.1775,-0.162785 0.25745,-0.220895 0.08,-0.05811 0.15604,-0.10158 0.22624,-0.130635 0.0722,-0.02905 0.14231,-0.0438 0.21251,-0.0438 0.22816,0 0.34316,0.141525 0.34316,0.424275 0,0.10062 -0.0117,0.23013 -0.0351,0.38886 -0.0234,0.15873 -0.0605,0.3392 -0.11121,0.54044 l -0.86987,3.786885 h 1.13685 l 0.65165,-2.91586 c 0.039,-0.178035 0.0994,-0.357025 0.1832,-0.53701 0.0819,-0.179985 0.17915,-0.35263 0.2864,-0.51721 0.1092,-0.16458 0.22817,-0.319375 0.35687,-0.46465 0.13065,-0.14508 0.26344,-0.27096 0.39799,-0.37743 0.1365,-0.10647 0.27111,-0.189785 0.40371,-0.249845 0.13455,-0.05987 0.25935,-0.08988 0.3744,-0.08988 0.2028,0 0.34905,0.0564 0.43875,0.16872 0.0917,0.112125 0.13635,0.288205 0.13635,0.52825 0,0.10062 -0.0115,0.2276 -0.0369,0.38048 -0.0254,0.15288 -0.0607,0.327335 -0.1055,0.52292 -0.0429,0.19539 -0.0953,0.40821 -0.15576,0.6387 -0.0605,0.230295 -0.1248,0.471705 -0.195,0.723255 -0.0663,0.247845 -0.11501,0.47541 -0.14816,0.6825 -0.0331,0.20709 -0.0487,0.387895 -0.0487,0.542725 0,0.15483 0.0233,0.297265 0.0701,0.42694 0.0449,0.129675 0.11112,0.242095 0.19692,0.33706 0.0858,0.09477 0.18729,0.169355 0.30429,0.223565 0.11895,0.05421 0.24775,0.08113 0.3862,0.08113 0.1677,0 0.32368,-0.0222 0.47188,-0.06665 0.14625,-0.04465 0.29435,-0.112315 0.44255,-0.20338 0.15015,-0.09087 0.30404,-0.206015 0.46199,-0.34544 0.1599,-0.139425 0.33339,-0.305865 0.52254,-0.499305 L 270.49096,4.53605 c -0.117,0.127725 -0.22021,0.237235 -0.31381,0.3283 -0.0936,0.09087 -0.17757,0.16527 -0.25557,0.223185 -0.078,0.05811 -0.15218,0.10086 -0.22433,0.127965 -0.0702,0.0271 -0.14418,0.04075 -0.21633,0.04075 -0.1209,0 -0.20861,-0.03295 -0.26126,-0.09865 -0.0546,-0.06591 -0.0819,-0.17251 -0.0819,-0.31954 0,-0.0388 0.0175,-0.13758 0.0525,-0.29631 0.0331,-0.158925 0.0779,-0.350455 0.13254,-0.575095 0.0546,-0.22464 0.11322,-0.46948 0.17367,-0.73468 0.0624,-0.2652 0.1206,-0.5235 0.1752,-0.77505 0.0546,-0.251745 0.0978,-0.484215 0.13292,-0.69735 0.0351,-0.21294 0.0525,-0.37919 0.0525,-0.49931 0,-0.398775 -0.10149,-0.708555 -0.3043,-0.929295 C 269.34999,0.110425 269.04213,5e-6 268.63262,5e-6 c -0.39195,0 -0.77024,0.127695 -1.13684,0.383145 -0.36465,0.255645 -0.73539,0.64091 -1.11174,1.155905 l -0.0819,-0.02895 c 0.0351,-0.07742 0.0606,-0.158915 0.0743,-0.24413 0.0117,-0.08521 0.0195,-0.166335 0.0195,-0.24375 0,-0.305955 -0.0782,-0.552985 -0.23613,-0.74077 C 266.00381,0.09367 265.78147,0 265.49482,0 Z m -54.12393,2.16366 c -2.16645,1.854645 -3.88461,4.62066 -5.15796,8.298165 -1.2714,3.677505 -1.90697,7.7814 -1.90697,12.31242 0,4.46238 0.63557,8.56031 1.90697,12.293 1.27335,3.73269 2.99151,6.521275 5.15796,8.365195 l 0.37058,-0.585 c -1.87005,-1.901835 -3.31145,-4.65476 -4.3235,-8.258555 -1.0101,-3.6036 -1.51696,-7.539065 -1.51696,-11.80664 0,-4.36761 0.50713,-8.321825 1.52113,-11.862245 1.014,-3.540615 2.45513,-6.26169 4.31933,-8.16372 z m 43.67583,0 -0.3721,0.59262 c 1.8603,1.90203 3.29919,4.623105 4.31514,8.16372 1.0179,3.54042 1.52495,7.494635 1.52495,11.862245 0,4.267575 -0.5049,8.20304 -1.51695,11.80664 -1.01205,3.603795 -2.45309,6.35672 -4.32314,8.258555 l 0.3721,0.585 c 2.1645,-1.84392 3.88467,-4.632505 5.15608,-8.365195 1.27335,-3.73269 1.90885,-7.83062 1.90885,-12.293 0,-4.53102 -0.6355,-8.634915 -1.90885,-12.31242 -1.27141,-3.677505 -2.99158,-6.44352 -5.15608,-8.298165 z m -7.15636,2.160615 -3.69929,2.205175 0.34927,0.608615 c 0.45824,-0.305565 0.84242,-0.545505 1.15246,-0.719445 0.31201,-0.173745 0.55176,-0.260505 0.71946,-0.260505 0.14235,0 0.24962,0.04855 0.32371,0.14587 0.0741,0.0975 0.11121,0.25176 0.11121,0.46236 v 6.409485 c 0,0.368745 -0.0314,0.634685 -0.0918,0.7979 -0.0605,0.16341 -0.15608,0.290015 -0.28868,0.379715 -0.13065,0.08951 -0.32169,0.156625 -0.57129,0.201475 -0.25155,0.04485 -0.66879,0.08031 -1.25379,0.10664 v 0.577005 h 5.84048 V 14.66157 c -0.40559,-0.01055 -0.73154,-0.03035 -0.97919,-0.05942 -0.24765,-0.02885 -0.45439,-0.07126 -0.61624,-0.126445 -0.1638,-0.05538 -0.28854,-0.131775 -0.37629,-0.229275 -0.0877,-0.0973 -0.14814,-0.22392 -0.18129,-0.379335 -0.0351,-0.155415 -0.0526,-0.385695 -0.0526,-0.69126 v -6.74921 c 0,-0.895635 0.0175,-1.596515 0.0487,-2.102345 z M 51.21949,15.30332 c -1.538354,0.405795 -2.719816,1.281845 -3.544275,2.62793 -0.824655,1.346085 -1.236649,2.96992 -1.236649,4.87195 0,1.907295 0.410916,3.531135 1.232841,4.871955 0.821729,1.34082 2.004465,2.214135 3.548083,2.61993 l 0.18967,-0.60861 c -1.216995,-0.4056 -2.121779,-1.20653 -2.714384,-2.402465 -0.5928,-1.195935 -0.889307,-2.715725 -0.889307,-4.559645 0,-1.78074 0.296507,-3.259985 0.889307,-4.437395 0.592605,-1.177605 1.505209,-1.96924 2.737999,-2.375035 z m 30.364015,0 -0.21328,0.608615 c 1.238055,0.405795 2.15212,1.19743 2.742185,2.375035 0.590075,1.17741 0.88512,2.656655 0.88512,4.437395 0,1.84392 -0.29632,3.36371 -0.888925,4.559645 -0.5928,1.195935 -1.49777,1.996865 -2.714765,2.402465 l 0.189665,0.60861 c 1.543815,-0.405795 2.726545,-1.27911 3.54847,-2.61993 0.821925,-1.34082 1.23284,-2.96466 1.23284,-4.871955 0,-1.90203 -0.41257,-3.525865 -1.23703,-4.87195 -0.824655,-1.346085 -2.00573,-2.222135 -3.54428,-2.62793 z M 5.492373,16.501885 c -0.7164299,0 -1.3483489,0.12915 -1.8962989,0.38733 -0.54795,0.258185 -0.9721511,0.624355 -1.272451,1.0984 -0.3003002,0.47424 -0.4505567,1.02213 -0.4505567,1.64379 0,0.389805 0.076592,0.743075 0.2292773,1.05917 0.1528801,0.316095 0.3580505,0.601865 0.6162304,0.857315 0.25818,0.25545 0.5821482,0.51503 0.9719532,0.778475 0.43212,0.28977 0.7626329,0.54662 0.9917579,0.77048 0.22932,0.224055 0.4008648,0.458145 0.5141598,0.703065 0.113295,0.245115 0.1698635,0.528335 0.1698635,0.849695 0,0.69537 -0.205746,1.238175 -0.6166112,1.628175 -0.41106,0.389805 -0.9745857,0.58462 -1.6910157,0.58462 -0.62166,0 -1.0815218,-0.1568 -1.3790918,-0.47036 -0.297765,-0.313365 -0.446748,-0.791215 -0.446748,-1.433935 H 0.4741698 L 0,27.131285 c 0.442455,0.121095 0.9445221,0.22095 1.5055371,0.30012 0.56121,0.07897 1.0839898,0.118825 1.5687597,0.118825 0.71643,0 1.3552744,-0.135695 1.9164844,-0.407135 C 5.5517965,26.87185 5.986549,26.48712 6.294844,25.98909 c 0.3080995,-0.497835 0.462363,-1.0681 0.462363,-1.71082 0,-0.41613 -0.064768,-0.782305 -0.1938575,-1.0984 -0.12909,-0.316095 -0.32937,-0.614955 -0.600615,-0.896925 -0.27144,-0.281775 -0.665066,-0.60193 -1.181426,-0.960145 -0.59007,-0.4056 -0.9893569,-0.75741 -1.1974219,-1.05498 -0.208065,-0.297765 -0.3119237,-0.6441 -0.3119237,-1.039365 0,-0.379275 0.086949,-0.72307 0.2608885,-1.031365 0.173745,-0.3081 0.4264011,-0.55186 0.7582911,-0.73087 0.33189,-0.179205 0.716814,-0.26889 1.154004,-0.26889 0.358215,0 0.645444,0.0553 0.861504,0.16606 0.215865,0.110565 0.381953,0.293745 0.497783,0.549195 0.11583,0.255645 0.184604,0.607065 0.205664,1.05498 h 0.758291 L 8.211328,16.936445 C 7.710763,16.778495 7.2534485,16.666435 6.8398535,16.600525 6.4262585,16.534615 5.977143,16.501885 5.492373,16.501885 Z m 211.817987,0 -3.6989,2.204795 0.34886,0.60861 c 0.45825,-0.305565 0.84243,-0.54512 1.15248,-0.71906 0.312,-0.17394 0.55176,-0.26089 0.71946,-0.26089 0.14235,0 0.24962,0.04895 0.32372,0.14625 0.0741,0.0975 0.11121,0.251765 0.11121,0.462365 v 6.4091 c 0,0.368745 -0.0294,0.635065 -0.0918,0.79828 -0.0605,0.16341 -0.15575,0.28945 -0.2864,0.378955 -0.1326,0.0897 -0.32397,0.157005 -0.57357,0.201855 -0.25155,0.04485 -0.66879,0.08031 -1.25379,0.10664 v 0.577005 h 5.84046 v -0.577005 c -0.4056,-0.01055 -0.73152,-0.03035 -0.97917,-0.05941 -0.24765,-0.02885 -0.454,-0.07088 -0.61585,-0.126065 -0.1638,-0.05538 -0.28893,-0.13216 -0.37668,-0.22966 -0.0858,-0.0973 -0.14619,-0.22354 -0.18129,-0.378955 -0.0351,-0.155415 -0.0506,-0.386075 -0.0506,-0.69164 V 18.60423 c 0,-0.89583 0.0156,-1.596515 0.0469,-2.102345 z m -56.9419,1.209225 v 4.552035 h -4.30562 v 1.05117 h 4.30562 v 4.55203 h 1.12315 v -4.55203 h 4.30752 v -1.05117 h -4.30752 V 17.71111 Z m 29.75501,0.750675 -0.78951,0.790285 3.59568,3.548465 -3.6113,3.60369 0.73505,0.742675 3.65054,-3.579695 3.54085,3.61131 0.78991,-0.790285 -3.54885,-3.587695 3.54124,-3.60369 -0.74307,-0.73506 -3.58008,3.57208 z M 54.181815,19.72624 c -0.400335,0 -0.767965,0.112055 -1.102585,0.335915 -0.334425,0.22386 -0.733715,0.57821 -1.197425,1.06298 l 0.45056,0.44256 c 0.316095,-0.35295 0.565125,-0.596515 0.746865,-0.73087 0.18174,-0.134355 0.354175,-0.201855 0.517585,-0.201855 0.14742,0 0.255475,0.04745 0.324115,0.14244 0.06845,0.09477 0.10245,0.24738 0.10245,0.458175 0,0.273975 -0.05784,0.663785 -0.17367,1.169615 l -1.153625,5.01059 h 1.366905 l 0.75067,-3.42202 c 0.11057,-0.484575 0.24792,-0.89569 0.41133,-1.232845 0.163215,-0.337155 0.389685,-0.688965 0.679455,-1.05498 0.28977,-0.36621 0.562255,-0.632335 0.817705,-0.79828 0.255645,-0.165945 0.483375,-0.2487 0.68364,-0.2487 0.284505,0 0.494065,0.08002 0.62842,0.2407 0.134355,0.16068 0.201475,0.430815 0.201475,0.81009 0,0.16848 -0.01985,0.370415 -0.05941,0.604805 -0.0394,0.23439 -0.11433,0.596555 -0.22509,1.08659 l -0.90873,4.01464 h 1.367285 l 0.71906,-3.453635 c 0.1053,-0.490035 0.24628,-0.90476 0.422755,-1.244645 0.176475,-0.339885 0.4044,-0.684765 0.68364,-1.03518 0.27924,-0.350415 0.545365,-0.60872 0.79828,-0.774665 0.252915,-0.165945 0.48974,-0.2487 0.711065,-0.2487 0.273975,0 0.471525,0.08002 0.59262,0.2407 0.12129,0.16068 0.18205,0.422995 0.18205,0.786475 0,0.147615 -0.01985,0.339885 -0.05942,0.577005 -0.0394,0.23712 -0.12234,0.603095 -0.2487,1.098395 l -0.348105,1.367285 c -0.173745,0.663975 -0.26051,1.166925 -0.26051,1.509345 0,0.379275 0.102585,0.691615 0.308115,0.936535 0.205335,0.245115 0.479475,0.36753 0.821895,0.36753 0.43212,0 0.81647,-0.11352 1.153625,-0.34011 0.33735,-0.226395 0.732435,-0.579475 1.185615,-1.058785 L 64.62117,25.70078 c -0.32682,0.36348 -0.57947,0.609775 -0.758675,0.738865 -0.179205,0.12909 -0.347635,0.19348 -0.50578,0.19348 -0.14742,0 -0.255285,-0.0473 -0.32373,-0.14206 -0.06864,-0.09477 -0.102835,-0.24776 -0.102835,-0.458555 0,-0.23712 0.07093,-0.642575 0.213285,-1.21685 l 0.51378,-2.07035 c 0.15288,-0.61113 0.228895,-1.08262 0.228895,-1.41451 0,-0.50583 -0.13151,-0.89838 -0.394955,-1.17762 -0.26344,-0.27924 -0.63762,-0.418945 -1.12239,-0.418945 -0.484575,0 -0.951875,0.156615 -1.402325,0.46998 -0.45045,0.313565 -0.902295,0.791595 -1.355475,1.434315 0.0052,-0.0421 0.008,-0.08159 0.008,-0.118445 v -0.11045 c 0,-0.542685 -0.13189,-0.957605 -0.395335,-1.244645 -0.263445,-0.287235 -0.648175,-0.430755 -1.154005,-0.430755 -0.48984,0 -0.974615,0.17517 -1.45412,0.525585 -0.47931,0.350415 -0.96155,0.886295 -1.446125,1.60799 l -0.09445,-0.0316 c 0.121095,-0.326625 0.18167,-0.634575 0.18167,-0.924345 0,-0.353145 -0.09622,-0.63891 -0.28869,-0.8577 -0.192265,-0.218595 -0.4542,-0.327915 -0.78609,-0.327915 z m 19.82754,0 c -0.4056,0 -0.768845,0.10659 -1.0904,0.31992 -0.32136,0.21333 -0.724655,0.573145 -1.20923,1.078975 l 0.45056,0.44256 c 0.316095,-0.35295 0.56493,-0.596515 0.746865,-0.73087 0.18174,-0.134355 0.35437,-0.201855 0.517585,-0.201855 0.147615,0 0.25567,0.04745 0.324115,0.14244 0.06844,0.09477 0.10245,0.24738 0.10245,0.458175 0,0.273975 -0.05784,0.663785 -0.17367,1.169615 l -1.154005,5.01059 h 1.367285 l 0.750675,-3.42202 c 0.11076,-0.48984 0.253,-0.90223 0.42694,-1.236655 0.173745,-0.33462 0.40422,-0.67969 0.69126,-1.035175 0.28704,-0.35568 0.558825,-0.622185 0.814275,-0.79866 0.255645,-0.176475 0.49393,-0.264315 0.715255,-0.264315 0.273975,0 0.47133,0.08002 0.59262,0.2407 0.121095,0.16068 0.18167,0.422995 0.18167,0.786475 0,0.147615 -0.01965,0.339885 -0.05903,0.577005 -0.0396,0.23712 -0.122525,0.603095 -0.24908,1.098395 l -0.347725,1.367285 c -0.17394,0.663975 -0.26089,1.166925 -0.26089,1.509345 0,0.379275 0.102585,0.691615 0.308115,0.936535 0.20553,0.245115 0.479475,0.36753 0.821895,0.36753 0.431925,0 0.81685,-0.11206 1.154005,-0.33592 0.337155,-0.224055 0.73225,-0.5784 1.185235,-1.062975 l -0.45018,-0.44256 c -0.326625,0.36348 -0.579845,0.609775 -0.75905,0.738865 -0.17901,0.12909 -0.34745,0.19348 -0.5054,0.19348 -0.147615,0 -0.255665,-0.0473 -0.32411,-0.14206 -0.06845,-0.09477 -0.102835,-0.24776 -0.102835,-0.458555 0,-0.23712 0.07113,-0.642575 0.213285,-1.21685 l 0.513775,-2.07035 c 0.152685,-0.61113 0.22928,-1.08262 0.22928,-1.41451 0,-0.500565 -0.1317,-0.89184 -0.39495,-1.17381 -0.263445,-0.281775 -0.640355,-0.422755 -1.13039,-0.422755 -0.4953,0 -0.976075,0.17517 -1.44232,0.525585 -0.466245,0.350415 -0.95738,0.888835 -1.473545,1.61599 l -0.09521,-0.0316 c 0.126555,-0.34242 0.189665,-0.6531 0.189665,-0.93234 0,-0.353145 -0.09604,-0.63891 -0.28831,-0.8577 -0.19227,-0.218595 -0.454585,-0.327915 -0.786475,-0.327915 z m 37.229385,0 c -0.4056,0 -0.76942,0.10659 -1.09078,0.31992 -0.32136,0.21333 -0.72446,0.573145 -1.20923,1.078975 l 0.45055,0.44256 c 0.3163,-0.35295 0.56513,-0.596515 0.74687,-0.73087 0.18174,-0.134355 0.35418,-0.201855 0.51759,-0.201855 0.14742,0 0.25566,0.04745 0.32411,0.14244 0.0686,0.09477 0.10283,0.24738 0.10283,0.458175 0,0.273975 -0.0582,0.663785 -0.17405,1.169615 l -1.15362,5.01059 h 1.3669 l 0.75106,-3.42202 c 0.11056,-0.48984 0.25262,-0.90223 0.42656,-1.236655 0.17374,-0.33462 0.4044,-0.67969 0.69164,-1.035175 0.28704,-0.35568 0.55844,-0.622185 0.81389,-0.79866 0.25545,-0.176475 0.49393,-0.264315 0.71526,-0.264315 0.27397,0 0.47152,0.08002 0.59261,0.2407 0.12129,0.16068 0.18167,0.422995 0.18167,0.786475 0,0.147615 -0.0194,0.339885 -0.059,0.577005 -0.0394,0.23712 -0.12272,0.603095 -0.24908,1.098395 l -0.34772,1.367285 c -0.17394,0.663975 -0.26089,1.166925 -0.26089,1.509345 0,0.379275 0.10296,0.691615 0.30849,0.936535 0.20553,0.245115 0.47928,0.36753 0.8219,0.36753 0.43192,0 0.81627,-0.11206 1.15362,-0.33592 0.33716,-0.224055 0.73244,-0.5784 1.18562,-1.062975 l -0.45056,-0.44256 c -0.32663,0.36348 -0.57947,0.609775 -0.75867,0.738865 -0.17921,0.12909 -0.34764,0.19348 -0.50578,0.19348 -0.14742,0 -0.25567,-0.0473 -0.32412,-0.14206 -0.0686,-0.09477 -0.10245,-0.24776 -0.10245,-0.458555 0,-0.23712 0.0711,-0.642575 0.21329,-1.21685 l 0.51339,-2.07035 c 0.15288,-0.61113 0.22928,-1.08262 0.22928,-1.41451 0,-0.500565 -0.13151,-0.89184 -0.39495,-1.17381 -0.26345,-0.281775 -0.63998,-0.422755 -1.13001,-0.422755 -0.4953,0 -0.97607,0.17517 -1.44232,0.525585 -0.46624,0.350415 -0.95756,0.888835 -1.47392,1.61599 l -0.0948,-0.0316 c 0.12636,-0.34242 0.18967,-0.6531 0.18967,-0.93234 0,-0.353145 -0.0962,-0.63891 -0.28869,-0.8577 -0.19227,-0.218595 -0.4542,-0.327915 -0.78609,-0.327915 z m 28.76593,0 c -0.4017,0 -0.76833,0.112055 -1.10373,0.335915 -0.33345,0.22386 -0.73333,0.57821 -1.19743,1.06298 l 0.45056,0.44256 c 0.3159,-0.35295 0.56552,-0.596515 0.74686,-0.73087 0.18331,-0.134355 0.35494,-0.201855 0.51874,-0.201855 0.14625,0 0.25548,0.04745 0.32373,0.14244 0.0682,0.09477 0.10321,0.24738 0.10321,0.458175 0,0.273975 -0.0586,0.663785 -0.17558,1.169615 l -1.1521,5.01059 h 1.36691 l 0.75067,-3.42202 c 0.11115,-0.484575 0.24753,-0.89569 0.41133,-1.232845 0.16185,-0.337155 0.39009,-0.688965 0.67869,-1.05498 0.29055,-0.36621 0.5634,-0.632335 0.81885,-0.79828 0.25545,-0.165945 0.48165,-0.2487 0.6825,-0.2487 0.2847,0 0.49349,0.08002 0.62804,0.2407 0.13455,0.16068 0.20261,0.430815 0.20261,0.81009 0,0.16848 -0.0192,0.370415 -0.0602,0.604805 -0.039,0.23439 -0.11318,0.596555 -0.22433,1.08659 l -0.90873,4.01464 h 1.36691 l 0.71944,-3.453635 c 0.1053,-0.490035 0.24573,-0.90476 0.42123,-1.244645 0.17745,-0.339885 0.40555,-0.684765 0.6844,-1.03518 0.27886,-0.350415 0.54635,-0.60872 0.7979,-0.774665 0.2535,-0.165945 0.4911,-0.2487 0.71145,-0.2487 0.27495,0 0.4721,0.08002 0.593,0.2407 0.1209,0.16068 0.18129,0.422995 0.18129,0.786475 0,0.147615 -0.0197,0.339885 -0.0587,0.577005 -0.039,0.23712 -0.12271,0.603095 -0.24946,1.098395 l -0.34696,1.367285 c -0.17355,0.663975 -0.26127,1.166925 -0.26127,1.509345 0,0.379275 0.10336,0.691615 0.30811,0.936535 0.2067,0.245115 0.47946,0.36753 0.82266,0.36753 0.43095,0 0.81513,-0.11352 1.15248,-0.34011 0.33735,-0.226395 0.73322,-0.579475 1.18561,-1.058785 l -0.45055,-0.44256 c -0.32565,0.36348 -0.57889,0.609775 -0.75829,0.738865 -0.1794,0.12909 -0.34707,0.19348 -0.50502,0.19348 -0.1482,0 -0.25548,-0.0473 -0.32373,-0.14206 -0.0683,-0.09477 -0.1036,-0.24776 -0.1036,-0.458555 0,-0.23712 0.0721,-0.642575 0.21252,-1.21685 l 0.51493,-2.07035 c 0.15209,-0.61113 0.22813,-1.08262 0.22813,-1.41451 0,-0.50583 -0.13056,-0.89838 -0.39381,-1.17762 -0.26325,-0.27924 -0.6376,-0.418945 -1.12315,-0.418945 -0.4836,0 -0.95187,0.156615 -1.40232,0.46998 -0.45045,0.313565 -0.9027,0.791595 -1.3551,1.434315 0.006,-0.0421 0.008,-0.08159 0.008,-0.118445 v -0.11045 c 0,-0.542685 -0.13285,-0.957605 -0.3961,-1.244645 -0.26325,-0.287235 -0.64743,-0.430755 -1.15248,-0.430755 -0.4914,0 -0.9748,0.17517 -1.4545,0.525585 -0.4797,0.350415 -0.96134,0.886295 -1.44689,1.60799 l -0.0937,-0.0316 c 0.1209,-0.326625 0.18129,-0.634575 0.18129,-0.924345 0,-0.353145 -0.0956,-0.63891 -0.28869,-0.8577 -0.19306,-0.218595 -0.45422,-0.327915 -0.78572,-0.327915 z m 33.00946,0 c -0.39975,0 -0.768,0.112055 -1.10145,0.335915 -0.3354,0.22386 -0.73332,0.57821 -1.19742,1.06298 l 0.45056,0.44256 c 0.3159,-0.35295 0.56551,-0.596515 0.74686,-0.73087 0.18135,-0.134355 0.3546,-0.201855 0.51645,-0.201855 0.1482,0 0.25548,0.04745 0.32373,0.14244 0.0702,0.09477 0.10359,0.24738 0.10359,0.458175 0,0.273975 -0.0586,0.663785 -0.17366,1.169615 l -1.15439,5.01059 h 1.36691 l 0.75067,-3.42202 c 0.11115,-0.484575 0.24791,-0.89569 0.41171,-1.232845 0.1638,-0.337155 0.38966,-0.688965 0.68021,-1.05498 0.2886,-0.36621 0.56188,-0.632335 0.81733,-0.79828 0.25545,-0.165945 0.48355,-0.2487 0.6844,-0.2487 0.2847,0 0.49311,0.08002 0.62766,0.2407 0.13455,0.16068 0.20109,0.430815 0.20109,0.81009 0,0.16848 -0.0196,0.370415 -0.0587,0.604805 -0.039,0.23439 -0.11508,0.596555 -0.22623,1.08659 l -0.90873,4.01464 h 1.3669 l 0.71983,-3.453635 c 0.1053,-0.490035 0.24763,-0.90476 0.42313,-1.244645 0.17745,-0.339885 0.40361,-0.684765 0.68441,-1.03518 0.27885,-0.350415 0.54402,-0.60872 0.79752,-0.774665 0.2535,-0.165945 0.48952,-0.2487 0.71182,-0.2487 0.273,0 0.46977,0.08002 0.59262,0.2407 0.1209,0.16068 0.18129,0.422995 0.18129,0.786475 0,0.147615 -0.0192,0.339885 -0.0602,0.577005 -0.039,0.23712 -0.12119,0.603095 -0.24794,1.098395 l -0.34886,1.367285 c -0.17355,0.663975 -0.25937,1.166925 -0.25937,1.509345 0,0.379275 0.10142,0.691615 0.30812,0.936535 0.20475,0.245115 0.47988,0.36753 0.82113,0.36753 0.4329,0 0.81703,-0.11352 1.15438,-0.34011 0.33735,-0.226395 0.73322,-0.579475 1.18562,-1.058785 l -0.45056,-0.44256 c -0.3276,0.36348 -0.57927,0.609775 -0.75867,0.738865 -0.1794,0.12909 -0.34897,0.19348 -0.50692,0.19348 -0.14625,0 -0.25548,-0.0473 -0.32373,-0.14206 -0.0683,-0.09477 -0.10131,-0.24776 -0.10131,-0.458555 0,-0.23712 0.0702,-0.642575 0.21252,-1.21685 l 0.51263,-2.07035 c 0.15405,-0.61113 0.23042,-1.08262 0.23042,-1.41451 0,-0.50583 -0.13284,-0.89838 -0.39609,-1.17762 -0.26325,-0.27924 -0.63765,-0.418945 -1.12125,-0.418945 -0.48555,0 -0.9534,0.156615 -1.40385,0.46998 -0.45045,0.313565 -0.90113,0.791595 -1.35548,1.434315 0.006,-0.0421 0.008,-0.08159 0.008,-0.118445 v -0.11045 c 0,-0.542685 -0.13055,-0.957605 -0.3938,-1.244645 -0.26325,-0.287235 -0.64739,-0.430755 -1.15439,-0.430755 -0.48945,0 -0.97518,0.17517 -1.45488,0.525585 -0.47775,0.350415 -0.96138,0.886295 -1.44498,1.60799 l -0.0956,-0.0316 c 0.1209,-0.326625 0.18129,-0.634575 0.18129,-0.924345 0,-0.353145 -0.0953,-0.63891 -0.28831,-0.8577 -0.1911,-0.218595 -0.45459,-0.327915 -0.78609,-0.327915 z m -130.649618,0.008 c -0.616395,0 -1.195939,0.12642 -1.738624,0.379335 -0.54249,0.252915 -1.016714,0.63491 -1.422509,1.146005 -0.4056,0.511095 -0.71355,1.10354 -0.924345,1.77785 -0.210795,0.674505 -0.316114,1.293325 -0.316114,1.85707 0,0.864045 0.197548,1.522915 0.592616,1.9759 0.395267,0.45318 0.974809,0.679835 1.738624,0.679835 0.57954,0 1.120691,-0.126805 1.623986,-0.37972 0.5031,-0.252915 1.002619,-0.65328 1.497919,-1.20123 L 42.933517,25.4875 c -0.389806,0.389805 -0.759791,0.675575 -1.110205,0.857315 -0.35022,0.18174 -0.765144,0.272695 -1.24465,0.272695 -0.421394,0 -0.737545,-0.130235 -0.94834,-0.391145 -0.210795,-0.260715 -0.316113,-0.66 -0.316113,-1.19742 0,-0.71643 0.13424,-1.46314 0.40295,-2.240215 0.26871,-0.777075 0.615239,-1.37772 1.039364,-1.801845 0.424125,-0.424125 0.902161,-0.63642 1.434316,-0.63642 0.22659,0 0.401763,0.04495 0.525588,0.134445 0.123825,0.08951 0.213505,0.223745 0.268885,0.40295 0.05538,0.179205 0.08811,0.46917 0.09864,0.869505 h 0.829893 l 0.387334,-1.786235 c -0.59007,-0.158145 -1.23584,-0.23689 -1.93667,-0.23689 z m -20.588496,0.893115 v 1.05079 h 9.73667 v -1.05079 z m 71.616414,0 v 1.05079 h 9.73629 v -1.05079 z m 29.65904,1.63579 v 1.05117 h 9.73629 v -1.05117 z m 102.84271,0 v 1.05117 h 9.73666 v -1.05117 z m 14.42237,0.08112 v 0.975 h 13.845 v -0.975 z m -218.540534,1.56267 v 1.05117 h 9.73667 v -1.05117 z m 71.616414,0 v 1.05117 h 9.73629 v -1.05117 z M 9.780469,24.77034 c -0.158925,0 -0.309898,0.0211 -0.453223,0.06361 -0.14313,0.0427 -0.287381,0.109265 -0.432656,0.20033 -0.14508,0.09107 -0.298256,0.207115 -0.4589355,0.34849 -0.1606805,0.141375 -0.337664,0.311105 -0.531299,0.508445 l 0.400664,0.37743 c 0.11622,-0.119925 0.220813,-0.22433 0.313828,-0.313445 0.09282,-0.08912 0.1788575,-0.16279 0.2582225,-0.2209 0.079365,-0.05811 0.1548515,-0.10158 0.2266115,-0.130635 0.071565,-0.02905 0.1423285,-0.0438 0.2121385,-0.0438 0.228345,0 0.342393,0.141525 0.342393,0.424275 0,0.10062 -0.01164,0.230125 -0.03504,0.388855 C 9.599968,26.531725 9.56361,26.7122 9.5131045,26.91344 L 8.642079,30.70032 h 1.138389 l 0.650508,-2.91586 c 0.03861,-0.178035 0.09955,-0.357025 0.182812,-0.53701 0.08327,-0.179985 0.179129,-0.352625 0.287549,-0.517205 0.10842,-0.16458 0.227571,-0.319375 0.357246,-0.46465 0.129675,-0.14508 0.262092,-0.27096 0.397617,-0.37743 0.135525,-0.10647 0.270136,-0.1896 0.403711,-0.249465 0.133575,-0.06006 0.25836,-0.09026 0.374385,-0.09026 0.201435,0 0.34788,0.05602 0.43875,0.168335 0.09107,0.112125 0.136349,0.28859 0.136349,0.528635 0,0.10062 -0.01217,0.2276 -0.03732,0.38048 -0.02535,0.15288 -0.06008,0.327335 -0.104736,0.52292 -0.04446,0.19539 -0.09685,0.408405 -0.156914,0.6387 -0.06006,0.23049 -0.124809,0.47132 -0.194619,0.72287 -0.06571,0.247845 -0.1152,0.47541 -0.148155,0.6825 -0.03296,0.20709 -0.04913,0.388275 -0.04913,0.543105 0,0.15483 0.02329,0.29727 0.0697,0.426945 0.04641,0.129675 0.11207,0.242095 0.197285,0.33706 0.08521,0.09477 0.186898,0.169355 0.305068,0.223565 0.117975,0.05421 0.246767,0.08112 0.386192,0.08112 0.16653,0 0.323136,-0.0222 0.470361,-0.06665 0.14703,-0.04445 0.295484,-0.11231 0.444464,-0.203375 0.149175,-0.09087 0.30287,-0.20602 0.4616,-0.345445 0.15873,-0.139425 0.333185,-0.30605 0.52292,-0.499685 l -0.40067,-0.38315 c -0.11622,0.127725 -0.220814,0.237235 -0.313829,0.3283 -0.09282,0.09087 -0.178142,0.16527 -0.255557,0.223185 -0.07741,0.05811 -0.151804,0.100865 -0.223564,0.12797 -0.07156,0.0271 -0.144142,0.04075 -0.217852,0.04075 -0.119925,0 -0.207059,-0.03295 -0.261269,-0.09864 -0.05421,-0.06591 -0.0815,-0.17251 -0.0815,-0.31954 0,-0.0388 0.01727,-0.13758 0.05218,-0.29631 0.03491,-0.15873 0.07947,-0.35046 0.13368,-0.5751 0.05421,-0.22464 0.112426,-0.469475 0.174436,-0.734675 0.06182,-0.2652 0.119841,-0.52388 0.174051,-0.77543 0.05421,-0.251745 0.09878,-0.484035 0.133682,-0.696975 0.03491,-0.213135 0.05218,-0.379185 0.05218,-0.499305 0,-0.398775 -0.101497,-0.708555 -0.304687,-0.929295 -0.203385,-0.220545 -0.510257,-0.33097 -0.920538,-0.33097 -0.39117,0 -0.769902,0.127695 -1.135722,0.383145 -0.366015,0.255645 -0.73654,0.640915 -1.11211,1.15591 l -0.0815,-0.02895 c 0.03471,-0.07742 0.05929,-0.158915 0.07274,-0.24413 0.01365,-0.08522 0.02019,-0.166335 0.02019,-0.24375 0,-0.305955 -0.07821,-0.55299 -0.234991,-0.740775 C 10.288681,24.864 10.066936,24.77033 9.780481,24.77033 Z m 56.765566,0.81199 c 0.03685,0.39 0.0556,0.784905 0.0556,1.18524 0,0.39 -0.02655,0.71377 -0.07922,0.97195 -0.05285,0.25818 -0.1396,0.48884 -0.26089,0.69164 -0.121095,0.202995 -0.31591,0.43073 -0.58462,0.683645 l 0.42694,0.482165 c 0.484575,-0.36348 0.865115,-0.696725 1.14182,-0.999755 0.27651,-0.302835 0.478065,-0.60716 0.604425,-0.91292 0.126555,-0.305565 0.189665,-0.642815 0.189665,-1.01156 0,-0.358215 -0.03675,-0.72166 -0.11045,-1.090405 z m 176.301715,4.90471 c -0.39975,0 -0.76838,0.112055 -1.10183,0.335915 -0.3354,0.22386 -0.73526,0.57821 -1.19741,1.062985 l 0.45054,0.442555 c 0.3159,-0.353145 0.56357,-0.596895 0.74687,-0.73125 0.18135,-0.134355 0.35303,-0.201475 0.51683,-0.201475 0.1482,0 0.25547,0.04765 0.32372,0.14244 0.0683,0.09477 0.10322,0.24738 0.10322,0.458175 0,0.27378 -0.0586,0.66379 -0.17367,1.16962 l -1.15438,5.010585 h 1.36689 l 0.75107,-3.42202 c 0.11115,-0.48477 0.24753,-0.895685 0.41133,-1.23284 0.1638,-0.337155 0.39004,-0.688775 0.68059,-1.054985 0.2886,-0.36621 0.5615,-0.632335 0.81695,-0.79828 0.25545,-0.165945 0.48354,-0.24908 0.68439,-0.24908 0.28275,0 0.49349,0.0804 0.62804,0.24108 0.13455,0.160685 0.20071,0.430815 0.20071,0.81009 0,0.168675 -0.0193,0.37022 -0.0583,0.604805 -0.0409,0.23439 -0.11509,0.596555 -0.22624,1.08659 l -0.90872,4.01464 h 1.36691 l 0.71943,-3.453635 c 0.1053,-0.48984 0.24568,-0.90476 0.42313,-1.244645 0.1755,-0.33969 0.40365,-0.685145 0.6825,-1.03556 0.2808,-0.35022 0.54592,-0.60834 0.79942,-0.774285 0.25155,-0.165945 0.48953,-0.24908 0.71183,-0.24908 0.273,0 0.47021,0.0804 0.59111,0.24108 0.12285,0.160685 0.18318,0.422805 0.18318,0.78648 0,0.14742 -0.0196,0.33988 -0.0606,0.577 -0.039,0.23712 -0.12275,0.603295 -0.24755,1.098395 l -0.34927,1.367285 c -0.17355,0.66378 -0.25935,1.16693 -0.25935,1.50935 0,0.37947 0.1014,0.691415 0.3081,0.93653 0.20475,0.24492 0.47795,0.36715 0.82115,0.36715 0.4329,0 0.81703,-0.11295 1.15438,-0.339345 0.33735,-0.22659 0.73127,-0.579665 1.18562,-1.05917 l -0.45057,-0.44256 c -0.3276,0.363675 -0.57887,0.60978 -0.75827,0.73887 -0.1794,0.12909 -0.34937,0.193855 -0.50732,0.193855 -0.14625,0 -0.25549,-0.04745 -0.32374,-0.14244 -0.0683,-0.09477 -0.10321,-0.247575 -0.10321,-0.458175 0,-0.23712 0.0721,-0.64295 0.21444,-1.217225 l 0.51301,-2.070735 c 0.15405,-0.61113 0.23004,-1.08262 0.23004,-1.41451 0,-0.50583 -0.13246,-0.898375 -0.39571,-1.177615 -0.26325,-0.27924 -0.63765,-0.41895 -1.12125,-0.41895 -0.48555,0 -0.95379,0.156805 -1.40424,0.470365 -0.45045,0.313365 -0.90074,0.791595 -1.35509,1.434315 0.006,-0.0421 0.008,-0.08159 0.008,-0.118445 v -0.11045 c 0,-0.542685 -0.13058,-0.957795 -0.39383,-1.24503 -0.26325,-0.28704 -0.64932,-0.430755 -1.15438,-0.430755 -0.48945,0 -0.9748,0.17537 -1.4545,0.52559 -0.4797,0.350415 -0.96137,0.88648 -1.44497,1.60837 l -0.0956,-0.0316 c 0.1209,-0.32682 0.18129,-0.634955 0.18129,-0.924725 0,-0.35295 -0.0956,-0.63872 -0.28868,-0.857315 -0.1911,-0.21879 -0.45421,-0.32792 -0.78571,-0.32792 z"
   id="path2"
   inkscape:connector-curvature="0"
   style="stroke-width:0.19499999" />


















</svg>