<?xml version="1.0" encoding="UTF-8" standalone="no"?>
<svg
   xmlns:dc="http://purl.org/dc/elements/1.1/"
   xmlns:cc="http://creativecommons.org/ns#"
   xmlns:rdf="http://www.w3.org/1999/02/22-rdf-syntax-ns#"
   xmlns:svg="http://www.w3.org/2000/svg"
   xmlns="http://www.w3.org/2000/svg"
   xmlns:sodipodi="http://sodipodi.sourceforge.net/DTD/sodipodi-0.dtd"
   xmlns:inkscape="http://www.inkscape.org/namespaces/inkscape"
   width="420.76965"
   height="45.023674"
   xml:space="preserve"
   overflow="hidden"
   version="1.1"
   id="svg126"
   sodipodi:docname="16-proof-s0.svg"
   style="overflow:hidden"
   inkscape:version="0.92.4 (5da689c313, 2019-01-14)"><metadata
   id="metadata132"><rdf:RDF><cc:Work
       rdf:about=""><dc:format>image/svg+xml</dc:format><dc:type
         rdf:resource="http://purl.org/dc/dcmitype/StillImage" /><dc:title></dc:title></cc:Work></rdf:RDF></metadata><defs
   id="defs130" /><sodipodi:namedview
   pagecolor="#ffffff"
   bordercolor="#666666"
   borderopacity="1"
   objecttolerance="10"
   gridtolerance="10"
   guidetolerance="10"
   inkscape:pageopacity="0"
   inkscape:pageshadow="2"
   inkscape:window-width="1833"
   inkscape:window-height="1150"
   id="namedview128"
   showgrid="false"
   inkscape:zoom="0.92"
   inkscape:cx="64.403655"
   inkscape:cy="1.6722207"
   inkscape:window-x="0"
   inkscape:window-y="0"
   inkscape:window-maximized="0"
   inkscape:current-layer="svg126"
   fit-margin-top="0"
   fit-margin-left="0"
   fit-margin-right="0"
   fit-margin-bottom="0" /><path
   d="m 223.57779,0 c -0.3822,0 -0.73515,0.07821 -1.0569,0.23499 -0.32175,0.15678 -0.59855,0.395085 -0.83255,0.714495 -0.23595,0.319605 -0.41746,0.72105 -0.54616,1.20504 -0.13065,0.48399 -0.19499,1.057175 -0.19499,1.7192 0,1.266135 0.20878,2.21094 0.62804,2.834355 0.4173,0.623415 1.05695,0.93539 1.91495,0.93539 0.86775,0 1.53065,-0.330345 1.98695,-0.990615 0.4563,-0.660075 0.68631,-1.6349 0.68631,-2.92424 0,-0.580905 -0.0488,-1.1015 -0.14626,-1.562285 -0.0975,-0.460785 -0.24956,-0.85097 -0.45626,-1.17038 C 225.35423,0.67654 225.08719,0.430605 224.75959,0.258225 224.43199,0.085845 224.03799,0 223.57779,0 Z m -0.0236,0.563295 c 0.22815,0 0.4312,0.06566 0.6067,0.197285 0.17745,0.131625 0.3237,0.3359 0.43875,0.6128 0.117,0.276705 0.20645,0.63034 0.2708,1.060315 0.0643,0.42978 0.0956,0.94274 0.0956,1.53905 0,0.5304 -0.0291,0.990255 -0.0876,1.379475 -0.0585,0.389025 -0.14435,0.71026 -0.25745,0.963955 -0.11505,0.2535 -0.25949,0.4407 -0.43304,0.560625 -0.1755,0.12012 -0.37809,0.179765 -0.61014,0.179765 -0.24765,0 -0.46006,-0.06385 -0.63947,-0.191575 -0.17745,-0.12792 -0.32594,-0.326895 -0.44294,-0.597945 -0.11895,-0.27105 -0.20668,-0.616855 -0.26128,-1.03708 -0.0565,-0.42003 -0.0857,-0.91863 -0.0857,-1.495635 0,-0.499395 0.0233,-0.945795 0.0682,-1.33872 0.0429,-0.39312 0.11897,-0.725995 0.22622,-0.998995 0.1053,-0.273 0.24974,-0.47981 0.43304,-0.621185 0.18135,-0.141375 0.40727,-0.212135 0.67833,-0.212135 z m -55.45581,3.1916 c -2.1645,1.854645 -3.88234,4.62066 -5.15569,8.298165 -1.2714,3.677505 -1.90925,7.78178 -1.90925,12.3128 0,4.46238 0.63785,8.55993 1.90925,12.29262 1.27335,3.73269 2.99119,6.521275 5.15569,8.365195 l 0.37248,-0.58462 c -1.87004,-1.901835 -3.31108,-4.65476 -4.32313,-8.258555 -1.01205,-3.6036 -1.51735,-7.539445 -1.51735,-11.80702 0,-4.36761 0.50716,-8.321445 1.52116,-11.861865 1.014,-3.54042 2.45317,-6.26169 4.31932,-8.16372 z m 43.6781,0 -0.37247,0.593 c 1.8603,1.90203 3.29724,4.6233 4.31514,8.16372 1.01595,3.54042 1.52496,7.494255 1.52496,11.861865 0,4.267575 -0.50492,8.20342 -1.51697,11.80702 -1.01205,3.603795 -2.45308,6.35672 -4.32313,8.258555 l 0.37247,0.58462 c 2.1645,-1.84392 3.88235,-4.632505 5.1557,-8.365195 1.2714,-3.73269 1.90885,-7.830235 1.90885,-12.29262 0,-4.53102 -0.63745,-8.635295 -1.90885,-12.3128 -1.27335,-3.677505 -2.9912,-6.44352 -5.1557,-8.298165 z m -7.15671,2.160995 -3.69892,2.205175 0.34696,0.608235 c 0.45825,-0.305565 0.84433,-0.545125 1.15438,-0.719065 0.31005,-0.173745 0.54981,-0.260885 0.71946,-0.260885 0.14235,0 0.24962,0.04875 0.32372,0.14625 0.0741,0.0973 0.11121,0.25176 0.11121,0.46236 v 6.409105 c 0,0.368745 -0.0314,0.635065 -0.0918,0.79828 -0.0605,0.16341 -0.15571,0.289635 -0.28831,0.379335 -0.13065,0.0895 -0.32202,0.156625 -0.57357,0.201475 -0.2496,0.04485 -0.66688,0.08032 -1.25188,0.10664 v 0.577 h 5.84048 v -0.577 c -0.4056,-0.01055 -0.73345,-0.03035 -0.9811,-0.05942 -0.24765,-0.02885 -0.45242,-0.07069 -0.61622,-0.126065 -0.16185,-0.05538 -0.2886,-0.13197 -0.3744,-0.229275 -0.0877,-0.0975 -0.14813,-0.22392 -0.18128,-0.379335 -0.0351,-0.155415 -0.0526,-0.386075 -0.0526,-0.69164 V 8.01823 c 0,-0.895635 0.0156,-1.596515 0.0487,-2.102345 z m 181.61735,10.979035 c -1.53855,0.4056 -2.72023,1.281465 -3.54313,2.62755 -0.82485,1.346085 -1.23855,2.970305 -1.23855,4.872335 0,1.907295 0.41152,3.53113 1.23246,4.87195 0.8229,1.34082 2.00677,2.214335 3.54922,2.619935 l 0.18892,-0.608615 c -1.2168,-0.4056 -2.12158,-1.206525 -2.71439,-2.40246 -0.5928,-1.195935 -0.88892,-2.71611 -0.88892,-4.56003 0,-1.78074 0.29613,-3.259985 0.88892,-4.437395 0.59281,-1.177605 1.50556,-1.968865 2.73991,-2.37466 z m 29.75122,0 -0.2129,0.60861 c 1.23825,0.405795 2.1529,1.197055 2.7418,2.37466 0.59085,1.17741 0.8855,2.656655 0.8855,4.437395 0,1.84392 -0.2965,3.364095 -0.8893,4.56003 -0.5928,1.195935 -1.49758,1.99686 -2.71438,2.40246 l 0.18928,0.608615 c 1.54441,-0.4056 2.7279,-1.279115 3.54885,-2.619935 0.8229,-1.34082 1.23246,-2.964655 1.23246,-4.87195 0,-1.90203 -0.41143,-3.52625 -1.23628,-4.872335 -0.82485,-1.346085 -2.00648,-2.22195 -3.54503,-2.62755 z M 5.492373,18.09311 c -0.7164299,0 -1.3483489,0.12915 -1.8962989,0.38733 -0.54795,0.25818 -0.9721512,0.624355 -1.272451,1.0984 -0.3003002,0.47424 -0.4505567,1.02213 -0.4505567,1.64379 0,0.389805 0.076592,0.743075 0.2292773,1.05917 0.1528801,0.316095 0.3580505,0.601865 0.6162304,0.857315 0.25818,0.25545 0.5821482,0.51503 0.9719532,0.778475 0.43212,0.28977 0.7626329,0.54662 0.9917579,0.77048 0.22932,0.224055 0.4008648,0.458525 0.5141598,0.703445 0.113295,0.245115 0.1698635,0.52834 0.1698635,0.8497 0,0.69537 -0.205746,1.23779 -0.6166112,1.62779 -0.41106,0.389805 -0.9745857,0.585 -1.6910157,0.585 -0.62166,0 -1.0815218,-0.1568 -1.3790918,-0.47036 C 1.3818248,27.67028 1.2328418,27.19205 1.2328418,26.54933 H 0.4741698 L 0,28.72251 c 0.442455,0.1211 0.9445221,0.22133 1.5055371,0.3005 0.56121,0.07897 1.0839898,0.118445 1.5687597,0.118445 0.71643,0 1.3552744,-0.135695 1.9164844,-0.407135 0.5610153,-0.271245 0.9957678,-0.655595 1.3040628,-1.153625 0.3080995,-0.497835 0.462363,-1.06848 0.462363,-1.7112 0,-0.41613 -0.064768,-0.782305 -0.1938575,-1.0984 -0.12909,-0.316095 -0.32937,-0.614955 -0.600615,-0.896925 -0.27144,-0.281775 -0.665066,-0.60193 -1.181426,-0.960145 -0.59007,-0.4056 -0.9893569,-0.75741 -1.1974219,-1.05498 -0.208065,-0.297765 -0.3119237,-0.6441 -0.3119237,-1.039365 0,-0.379275 0.086949,-0.72307 0.2608885,-1.031365 0.173745,-0.3081 0.4264011,-0.55186 0.7582911,-0.73087 0.33189,-0.179205 0.716814,-0.268505 1.154004,-0.268505 0.358215,0 0.645444,0.05491 0.861504,0.16567 0.215865,0.110565 0.381953,0.29375 0.497783,0.5492 0.11583,0.255645 0.184604,0.607445 0.205664,1.05536 h 0.758291 L 8.211328,18.52805 C 7.710763,18.3701 7.2534485,18.25804 6.8398535,18.19213 6.4262585,18.12622 5.977143,18.09311 5.492373,18.09311 Z m 35.178077,0 c -0.511095,0 -0.982587,0.110975 -1.414512,0.332105 -0.43212,0.221325 -0.802486,0.56239 -1.110586,1.02337 -0.308295,0.46098 -0.547852,1.044335 -0.719062,1.75043 -0.171211,0.7059 -0.256701,1.54395 -0.256701,2.513295 0,1.823055 0.277572,3.182225 0.833321,4.07786 0.555945,0.895635 1.403074,1.34329 2.541094,1.34329 1.15908,0 2.04003,-0.478035 2.643164,-1.434315 0.60333,-0.956085 0.905304,-2.36675 0.905304,-4.23173 0,-1.8018 -0.282143,-3.14807 -0.845889,-4.038635 -0.563744,-0.89037 -1.422318,-1.33567 -2.576133,-1.33567 z m 29.940495,0 c -0.511095,0 -0.982585,0.110975 -1.41451,0.332105 -0.43212,0.221325 -0.80229,0.56239 -1.110585,1.02337 -0.3081,0.46098 -0.547655,1.044335 -0.719065,1.75043 -0.171205,0.7059 -0.256695,1.54395 -0.256695,2.513295 0,1.823055 0.27795,3.182225 0.8337,4.07786 0.55575,0.895635 1.402695,1.34329 2.540715,1.34329 1.15908,0 2.040215,-0.478035 2.643545,-1.434315 0.603135,-0.956085 0.90492,-2.36675 0.90492,-4.23173 0,-1.8018 -0.281765,-3.14807 -0.84551,-4.038635 -0.563745,-0.89037 -1.4227,-1.33567 -2.576515,-1.33567 z m 103.428835,0 -3.6989,2.205175 0.34696,0.60823 c 0.4602,-0.305565 0.84434,-0.54512 1.15439,-0.71906 0.312,-0.17394 0.54979,-0.26051 0.71944,-0.26051 0.14235,0 0.24963,0.04855 0.32373,0.14587 0.0741,0.0975 0.11121,0.251765 0.11121,0.462365 v 6.40948 c 0,0.368745 -0.0309,0.634685 -0.0914,0.7979 -0.0605,0.16341 -0.15609,0.28964 -0.28869,0.37934 -0.13065,0.08951 -0.32169,0.15662 -0.57129,0.20147 -0.25156,0.04485 -0.66879,0.08032 -1.2538,0.10664 v 0.577005 h 5.84011 V 28.43001 c -0.4056,-0.01055 -0.73116,-0.03 -0.97882,-0.05903 -0.24765,-0.02885 -0.45433,-0.07126 -0.61813,-0.126445 -0.16185,-0.05538 -0.28663,-0.13178 -0.37438,-0.22928 -0.0877,-0.0973 -0.14852,-0.22392 -0.18167,-0.379335 -0.0351,-0.155415 -0.0526,-0.385695 -0.0526,-0.69126 v -6.74921 c 0,-0.895635 0.0175,-1.59651 0.0487,-2.10234 z m 79.0748,0 c -0.5109,0 -0.9828,0.110975 -1.41375,0.332105 -0.4329,0.221325 -0.80363,0.56239 -1.11173,1.02337 -0.3081,0.46098 -0.5479,1.044335 -0.71755,1.75043 -0.1716,0.7059 -0.25745,1.54395 -0.25745,2.513295 0,1.823055 0.2768,3.182225 0.83255,4.07786 0.55575,0.895635 1.40425,1.34329 2.5411,1.34329 1.16025,0 2.04138,-0.478035 2.64393,-1.434315 0.60255,-0.956085 0.90492,-2.36675 0.90492,-4.23173 0,-1.8018 -0.28273,-3.14807 -0.84628,-4.038635 -0.56355,-0.89037 -1.42134,-1.33567 -2.57574,-1.33567 z m 94.2006,0 -3.69738,2.205175 0.34697,0.60823 c 0.45825,-0.305565 0.84238,-0.54512 1.15438,-0.71906 0.31005,-0.17394 0.55023,-0.26051 0.71793,-0.26051 0.14236,0 0.2512,0.04855 0.32335,0.14587 0.0741,0.0975 0.11121,0.251765 0.11121,0.462365 v 6.40948 c 0,0.368745 -0.029,0.634685 -0.0895,0.7979 -0.0605,0.16341 -0.15805,0.28964 -0.2887,0.37934 -0.1326,0.08951 -0.32358,0.15662 -0.57318,0.20147 -0.2496,0.04485 -0.66886,0.08032 -1.2519,0.10664 v 0.577005 h 5.8382 V 28.43001 c -0.4056,-0.01055 -0.73116,-0.03 -0.9788,-0.05903 -0.24765,-0.02885 -0.45244,-0.07126 -0.61624,-0.126445 -0.1638,-0.05538 -0.28854,-0.13178 -0.37629,-0.22928 -0.0858,-0.0973 -0.14619,-0.22392 -0.18129,-0.379335 -0.0331,-0.155415 -0.051,-0.385695 -0.051,-0.69126 v -6.74921 c 0,-0.895635 0.0156,-1.59651 0.0469,-2.10234 z m 63.7433,0 c -0.5109,0 -0.98276,0.110975 -1.41566,0.332105 -0.43095,0.221325 -0.80134,0.56239 -1.10944,1.02337 -0.3081,0.46098 -0.54785,1.044335 -0.71945,1.75043 -0.1716,0.7059 -0.25746,1.54395 -0.25746,2.513295 0,1.823055 0.27871,3.182225 0.83447,4.07786 0.55574,0.895635 1.40191,1.34329 2.54071,1.34329 1.1583,0 2.03982,-0.478035 2.64432,-1.434315 0.60255,-0.956085 0.90491,-2.36675 0.90491,-4.23173 0,-1.8018 -0.28273,-3.14807 -0.84627,-4.038635 -0.56356,-0.89037 -1.42173,-1.33567 -2.57613,-1.33567 z M 40.630839,18.764945 c 0.400335,0 0.7414,0.16354 1.02337,0.490165 0.281776,0.326625 0.501886,0.865235 0.66003,1.615985 0.158145,0.75075 0.236894,1.731935 0.236894,2.943665 0,1.585935 -0.154068,2.756835 -0.462363,3.513045 -0.308295,0.756015 -0.78067,1.13382 -1.41832,1.13382 -0.669045,0 -1.163099,-0.40164 -1.481924,-1.20504 -0.31863,-0.803595 -0.478361,-2.063995 -0.478361,-3.781555 0,-0.732225 0.03203,-1.38963 0.09522,-1.971705 0.06318,-0.58227 0.169771,-1.076325 0.319921,-1.481925 0.15015,-0.4056 0.347502,-0.716285 0.592617,-0.932345 0.24492,-0.21606 0.549244,-0.32411 0.912919,-0.32411 z m 29.940501,0 c 0.40053,0 0.74178,0.16354 1.02375,0.490165 0.281775,0.326625 0.5015,0.865235 0.659645,1.615985 0.15795,0.75075 0.236895,1.731935 0.236895,2.943665 0,1.585935 -0.15388,2.756835 -0.46198,3.513045 -0.308295,0.756015 -0.78125,1.13382 -1.418705,1.13382 -0.669045,0 -1.163095,-0.40164 -1.48192,-1.20504 -0.31863,-0.803595 -0.47798,-2.063995 -0.47798,-3.781555 0,-0.732225 0.03145,-1.38963 0.09484,-1.971705 0.06318,-0.58227 0.17015,-1.076325 0.3203,-1.481925 0.15015,-0.4056 0.34732,-0.716285 0.59224,-0.932345 0.245115,-0.21606 0.54944,-0.32411 0.91292,-0.32411 z m 182.50401,0 c 0.39975,0 0.741,0.16354 1.02375,0.490165 0.2808,0.326625 0.5013,0.865235 0.65925,1.615985 0.15795,0.75075 0.23767,1.731935 0.23767,2.943665 0,1.585935 -0.15388,2.756835 -0.46198,3.513045 -0.3081,0.756015 -0.78181,1.13382 -1.41946,1.13382 -0.66885,0 -1.16251,-0.40164 -1.48231,-1.20504 -0.31785,-0.803595 -0.4776,-2.063995 -0.4776,-3.781555 0,-0.732225 0.0312,-1.38963 0.0956,-1.971705 0.0624,-0.58227 0.16977,-1.076325 0.31992,-1.481925 0.15015,-0.4056 0.34692,-0.716285 0.59262,-0.932345 0.24375,-0.21606 0.5479,-0.32411 0.91255,-0.32411 z m 157.94428,0 c 0.39975,0 0.74104,0.16354 1.02184,0.490165 0.28276,0.326625 0.50285,0.865235 0.6608,1.615985 0.15795,0.75075 0.23613,1.731935 0.23613,2.943665 0,1.585935 -0.15427,2.756835 -0.46237,3.513045 -0.3081,0.756015 -0.7799,1.13382 -1.41755,1.13382 -0.66885,0 -1.16408,-0.40164 -1.48192,-1.20504 -0.3198,-0.803595 -0.47759,-2.063995 -0.47759,-3.781555 0,-0.732225 0.0309,-1.38963 0.0933,-1.971705 0.0643,-0.58227 0.17168,-1.076325 0.32183,-1.481925 0.15015,-0.4056 0.34733,-0.716285 0.59108,-0.932345 0.2457,-0.21606 0.5498,-0.32411 0.91445,-0.32411 z m -293.92137,0.53739 v 4.552035 h -4.30714 v 1.05117 h 4.30714 v 4.55203 h 1.12201 v -4.55203 h 4.30714 v -1.05117 h -4.30714 v -4.552035 z m 182.50401,0 v 4.552035 h -4.30751 v 1.05117 h 4.30751 v 4.55203 h 1.12125 v -4.55203 h 4.30751 v -1.05117 h -4.30751 v -4.552035 z m -152.74937,0.750675 -0.78952,0.790665 3.59569,3.548085 -3.61131,3.60369 0.73316,0.74306 3.65244,-3.58008 3.53932,3.61169 0.79143,-0.790285 -3.54885,-3.588075 3.54123,-3.60369 -0.74306,-0.73506 -3.58007,3.57208 z m 182.50438,0 -0.79143,0.790665 3.5957,3.548085 -3.6113,3.60369 0.73505,0.74306 3.65054,-3.58008 3.54124,3.61169 0.78952,-0.790285 -3.54696,-3.588075 3.53933,-3.60369 -0.74305,-0.73506 -3.58008,3.57208 z M 96.73295,21.317465 c -0.400335,0 -0.76759,0.112055 -1.10221,0.335915 -0.33462,0.22386 -0.73371,0.57821 -1.19742,1.06298 l 0.45056,0.44256 c 0.316095,-0.35295 0.56512,-0.596515 0.74686,-0.73087 0.18174,-0.134355 0.354375,-0.201475 0.51759,-0.201475 0.147615,0 0.255665,0.0471 0.32411,0.14206 0.06844,0.09477 0.102455,0.24776 0.102455,0.458555 0,0.273975 -0.05765,0.663985 -0.173675,1.16962 l -1.154,5.010205 h 1.367285 l 0.75105,-3.42202 c 0.110565,-0.484575 0.24716,-0.89531 0.41057,-1.232465 0.16341,-0.337155 0.390065,-0.688965 0.679835,-1.05498 0.28977,-0.36621 0.562255,-0.632715 0.8177,-0.79866 0.255455,-0.165945 0.48376,-0.2487 0.684025,-0.2487 0.284505,0 0.493685,0.0804 0.628045,0.241085 0.13416,0.16068 0.20147,0.43081 0.20147,0.810085 0,0.16848 -0.0198,0.370035 -0.0594,0.604425 -0.0396,0.234585 -0.11453,0.596555 -0.22509,1.08659 l -0.908735,4.01464 h 1.367285 l 0.71906,-3.453635 c 0.1053,-0.490035 0.24628,-0.90476 0.42276,-1.244645 0.17647,-0.339885 0.4044,-0.68476 0.68364,-1.035175 0.27924,-0.350415 0.54537,-0.608725 0.79828,-0.77467 0.25292,-0.165945 0.48974,-0.2487 0.71107,-0.2487 0.27397,0 0.47133,0.0804 0.59262,0.241085 0.12109,0.16068 0.18205,0.42261 0.18205,0.78609 0,0.147615 -0.02,0.339885 -0.0594,0.577005 -0.0396,0.23712 -0.12253,0.603095 -0.24908,1.098395 l -0.34772,1.367285 c -0.17394,0.663975 -0.26051,1.16693 -0.26051,1.50935 0,0.379275 0.10258,0.691795 0.30811,0.93691 0.20553,0.24492 0.47948,0.36715 0.8219,0.36715 0.43212,0 0.81647,-0.113135 1.15362,-0.339725 0.33716,-0.226395 0.73263,-0.57948 1.18561,-1.05879 l -0.45055,-0.44294 c -0.32663,0.36348 -0.57947,0.60997 -0.75867,0.738865 -0.17901,0.12909 -0.34784,0.19386 -0.50579,0.19386 -0.14761,0 -0.25566,-0.0473 -0.32411,-0.14206 -0.0684,-0.09477 -0.10283,-0.24776 -0.10283,-0.458555 0,-0.23712 0.0715,-0.64295 0.21366,-1.21723 l 0.51378,-2.07035 c 0.15269,-0.61113 0.2289,-1.08262 0.2289,-1.41451 0,-0.50583 -0.13151,-0.89838 -0.39495,-1.17762 -0.26345,-0.27924 -0.63782,-0.418945 -1.12239,-0.418945 -0.48477,0 -0.95226,0.157 -1.40271,0.470365 -0.45045,0.31356 -0.90211,0.791595 -1.3551,1.434315 0.005,-0.0421 0.008,-0.08159 0.008,-0.118445 V 23.00086 c 0,-0.542685 -0.1315,-0.957605 -0.39495,-1.244645 -0.26344,-0.287235 -0.64817,-0.430755 -1.154,-0.430755 -0.49004,0 -0.97462,0.17517 -1.454125,0.525585 -0.479505,0.350415 -0.961355,0.886675 -1.446125,1.60837 l -0.09483,-0.0316 c 0.121095,-0.326625 0.18167,-0.634955 0.18167,-0.924725 0,-0.353145 -0.09605,-0.638905 -0.288315,-0.857695 -0.19227,-0.218595 -0.454385,-0.32792 -0.78647,-0.32792 z m 33.01098,0 c -0.40053,0 -0.76796,0.112055 -1.10258,0.335915 -0.33443,0.22386 -0.73372,0.57821 -1.19743,1.06298 l 0.45056,0.44256 c 0.31629,-0.35295 0.56513,-0.596515 0.74687,-0.73087 0.18174,-0.134355 0.35417,-0.201475 0.51758,-0.201475 0.14742,0 0.25529,0.0471 0.32373,0.14206 0.0686,0.09477 0.10284,0.24776 0.10284,0.458555 0,0.273975 -0.0579,0.663985 -0.17368,1.16962 l -1.15362,5.010205 h 1.3669 l 0.75068,-3.42202 c 0.11056,-0.484575 0.24773,-0.89531 0.41095,-1.232465 0.16341,-0.337155 0.39006,-0.688965 0.67983,-1.05498 0.28977,-0.36621 0.56244,-0.632715 0.81809,-0.79866 0.25545,-0.165945 0.4836,-0.2487 0.6825,-0.2487 0.2847,0 0.49539,0.0804 0.62994,0.241085 0.13455,0.16068 0.20072,0.43081 0.20072,0.810085 0,0.16848 -0.0196,0.370035 -0.0587,0.604425 -0.0409,0.234585 -0.11508,0.596555 -0.22623,1.08659 l -0.90835,4.01464 h 1.36691 l 0.71944,-3.453635 c 0.1053,-0.490035 0.24569,-0.90476 0.42314,-1.244645 0.1755,-0.339885 0.40365,-0.68476 0.6825,-1.035175 0.2808,-0.350415 0.54592,-0.608725 0.79942,-0.77467 0.25155,-0.165945 0.48957,-0.2487 0.70992,-0.2487 0.27495,0 0.47172,0.0804 0.59262,0.241085 0.12285,0.16068 0.18357,0.42261 0.18357,0.78609 0,0.147615 -0.0215,0.339885 -0.0606,0.577005 -0.039,0.23712 -0.12276,0.603095 -0.24756,1.098395 l -0.34925,1.367285 c -0.17355,0.663975 -0.25937,1.16693 -0.25937,1.50935 0,0.379275 0.10142,0.691795 0.30812,0.93691 0.20475,0.24492 0.47793,0.36715 0.82113,0.36715 0.4329,0 0.81704,-0.113135 1.15439,-0.339725 0.33734,-0.226395 0.73126,-0.57948 1.18561,-1.05879 l -0.45055,-0.44294 c -0.3276,0.36348 -0.58123,0.60997 -0.75868,0.738865 -0.1794,0.12909 -0.34897,0.19386 -0.50692,0.19386 -0.14625,0 -0.25548,-0.0473 -0.32374,-0.14206 -0.0683,-0.09477 -0.1032,-0.24776 -0.1032,-0.458555 0,-0.23712 0.0721,-0.64295 0.21441,-1.21723 l 0.51303,-2.07035 c 0.15405,-0.61113 0.23004,-1.08262 0.23004,-1.41451 0,-0.50583 -0.13285,-0.89838 -0.3961,-1.17762 -0.26325,-0.27924 -0.63765,-0.418945 -1.12125,-0.418945 -0.48555,0 -0.95339,0.157 -1.40384,0.470365 -0.45045,0.31356 -0.90075,0.791595 -1.3551,1.434315 0.006,-0.0421 0.008,-0.08159 0.008,-0.118445 V 23.00086 c 0,-0.542685 -0.13056,-0.957605 -0.39381,-1.244645 -0.26325,-0.287235 -0.64934,-0.430755 -1.15439,-0.430755 -0.48945,0 -0.97518,0.17517 -1.45488,0.525585 -0.47892,0.350415 -0.96117,0.886675 -1.44574,1.60837 l -0.0948,-0.0316 c 0.12129,-0.326625 0.18205,-0.634955 0.18205,-0.924725 0,-0.353145 -0.0964,-0.638905 -0.28869,-0.857695 -0.19227,-0.218595 -0.45421,-0.32792 -0.7861,-0.32792 z m 149.49264,0 c -0.39975,0 -0.76836,0.112055 -1.10181,0.335915 -0.3354,0.22386 -0.73294,0.57821 -1.19704,1.06298 l 0.45017,0.44256 c 0.3159,-0.35295 0.56552,-0.596515 0.74687,-0.73087 0.18135,-0.134355 0.35301,-0.201475 0.51681,-0.201475 0.1482,0 0.25549,0.0471 0.32374,0.14206 0.0683,0.09477 0.10321,0.24776 0.10321,0.458555 0,0.273975 -0.0582,0.663985 -0.17329,1.16962 l -1.15438,5.010205 h 1.36691 l 0.75067,-3.42202 c 0.11115,-0.484575 0.24753,-0.89531 0.41133,-1.232465 0.1638,-0.337155 0.39004,-0.688965 0.68059,-1.05498 0.2886,-0.36621 0.56148,-0.632715 0.81693,-0.79866 0.25545,-0.165945 0.48395,-0.2487 0.6848,-0.2487 0.2847,0 0.4931,0.0804 0.62765,0.241085 0.13455,0.16068 0.2011,0.43081 0.2011,0.810085 0,0.16848 -0.0197,0.370035 -0.0587,0.604425 -0.041,0.234585 -0.11509,0.596555 -0.22624,1.08659 l -0.90872,4.01464 h 1.36689 l 0.71982,-3.453635 c 0.1053,-0.490035 0.2457,-0.90476 0.42315,-1.244645 0.1755,-0.339885 0.4036,-0.68476 0.6844,-1.035175 0.27885,-0.350415 0.54403,-0.608725 0.79753,-0.77467 0.2535,-0.165945 0.48952,-0.2487 0.71182,-0.2487 0.273,0 0.46976,0.0804 0.59261,0.241085 0.1209,0.16068 0.18129,0.42261 0.18129,0.78609 0,0.147615 -0.0196,0.339885 -0.0605,0.577005 -0.039,0.23712 -0.12082,0.603095 -0.24757,1.098395 l -0.34885,1.367285 c -0.17355,0.663975 -0.25937,1.16693 -0.25937,1.50935 0,0.379275 0.10142,0.691795 0.30812,0.93691 0.20475,0.24492 0.4795,0.36715 0.82075,0.36715 0.4329,0 0.81703,-0.113135 1.15438,-0.339725 0.33735,-0.226395 0.73127,-0.57948 1.18562,-1.05879 l -0.45018,-0.44294 c -0.3276,0.36348 -0.57928,0.60997 -0.75868,0.738865 -0.1794,0.12909 -0.34897,0.19386 -0.50692,0.19386 -0.14625,0 -0.25547,-0.0473 -0.32372,-0.14206 -0.0682,-0.09477 -0.10361,-0.24776 -0.10361,-0.458555 0,-0.23712 0.0725,-0.64295 0.21482,-1.21723 l 0.51263,-2.07035 c 0.15405,-0.61113 0.23004,-1.08262 0.23004,-1.41451 0,-0.50583 -0.13246,-0.89838 -0.39571,-1.17762 -0.26325,-0.27924 -0.63765,-0.418945 -1.12125,-0.418945 -0.48555,0 -0.9534,0.157 -1.40385,0.470365 -0.45045,0.31356 -0.90113,0.791595 -1.35548,1.434315 0.006,-0.0421 0.008,-0.08159 0.008,-0.118445 V 23.00086 c 0,-0.542685 -0.13094,-0.957605 -0.39419,-1.244645 -0.26325,-0.287235 -0.64933,-0.430755 -1.15438,-0.430755 -0.48945,0 -0.97481,0.17517 -1.45451,0.525585 -0.4797,0.350415 -0.96137,0.886675 -1.44497,1.60837 l -0.0956,-0.0316 c 0.1209,-0.326625 0.1813,-0.634955 0.1813,-0.924725 0,-0.353145 -0.0956,-0.638905 -0.28871,-0.857695 -0.1911,-0.218595 -0.4542,-0.32792 -0.7857,-0.32792 z m 33.01176,0 c -0.4017,0 -0.76833,0.112055 -1.10373,0.335915 -0.33346,0.22386 -0.73332,0.57821 -1.19742,1.06298 l 0.45055,0.44256 c 0.3159,-0.35295 0.56552,-0.596515 0.74687,-0.73087 0.18329,-0.134355 0.35493,-0.201475 0.51873,-0.201475 0.14625,0 0.2551,0.0471 0.32335,0.14206 0.0683,0.09477 0.10359,0.24776 0.10359,0.458555 0,0.273975 -0.0586,0.663985 -0.17558,1.16962 l -1.15247,5.010205 h 1.36689 l 0.75067,-3.42202 c 0.11115,-0.484575 0.24793,-0.89531 0.41173,-1.232465 0.16185,-0.337155 0.39007,-0.688965 0.67867,-1.05498 0.29055,-0.36621 0.56342,-0.632715 0.81887,-0.79866 0.25545,-0.165945 0.48165,-0.2487 0.6825,-0.2487 0.2847,0 0.49348,0.0804 0.62803,0.241085 0.13455,0.16068 0.20261,0.43081 0.20261,0.810085 0,0.16848 -0.0196,0.370035 -0.0605,0.604425 -0.039,0.234585 -0.11281,0.596555 -0.22396,1.08659 l -0.90871,4.01464 h 1.36689 l 0.71945,-3.453635 c 0.1053,-0.490035 0.24574,-0.90476 0.42124,-1.244645 0.17745,-0.339885 0.40554,-0.68476 0.68439,-1.035175 0.27885,-0.350415 0.54598,-0.608725 0.79753,-0.77467 0.2535,-0.165945 0.49148,-0.2487 0.71183,-0.2487 0.27495,0 0.4717,0.0804 0.5926,0.241085 0.1209,0.16068 0.18168,0.42261 0.18168,0.78609 0,0.147615 -0.0197,0.339885 -0.0587,0.577005 -0.039,0.23712 -0.12271,0.603095 -0.24946,1.098395 l -0.34736,1.367285 c -0.17355,0.663975 -0.26126,1.16693 -0.26126,1.50935 0,0.379275 0.10337,0.691795 0.30812,0.93691 0.2067,0.24492 0.47984,0.36715 0.82304,0.36715 0.43095,0 0.81512,-0.113135 1.15247,-0.339725 0.33735,-0.226395 0.73322,-0.57948 1.18562,-1.05879 l -0.45055,-0.44294 c -0.32565,0.36348 -0.57929,0.60997 -0.75869,0.738865 -0.1794,0.12909 -0.34706,0.19386 -0.50501,0.19386 -0.1482,0 -0.25549,-0.0473 -0.32374,-0.14206 -0.0682,-0.09477 -0.10321,-0.24776 -0.10321,-0.458555 0,-0.23712 0.0702,-0.64295 0.21253,-1.21723 l 0.51492,-2.07035 c 0.1521,-0.61113 0.22813,-1.08262 0.22813,-1.41451 0,-0.50583 -0.13095,-0.89838 -0.3942,-1.17762 -0.26325,-0.27924 -0.63759,-0.418945 -1.12314,-0.418945 -0.4836,0 -0.9515,0.157 -1.40195,0.470365 -0.45045,0.31356 -0.90269,0.791595 -1.35509,1.434315 0.006,-0.0421 0.008,-0.08159 0.008,-0.118445 V 23.00086 c 0,-0.542685 -0.13247,-0.957605 -0.39572,-1.244645 -0.26325,-0.287235 -0.64744,-0.430755 -1.15249,-0.430755 -0.4914,0 -0.97517,0.17517 -1.45487,0.525585 -0.4797,0.350415 -0.96133,0.886675 -1.44688,1.60837 l -0.0933,-0.0316 c 0.1209,-0.326625 0.18129,-0.634955 0.18129,-0.924725 0,-0.353145 -0.0956,-0.638905 -0.28868,-0.857695 -0.19305,-0.218595 -0.45421,-0.32792 -0.78571,-0.32792 z m 76.95073,0 c -0.39975,0 -0.76838,0.112055 -1.10183,0.335915 -0.3354,0.22386 -0.73295,0.57821 -1.19705,1.06298 l 0.45018,0.44256 c 0.3159,-0.35295 0.56552,-0.596515 0.74687,-0.73087 0.18135,-0.134355 0.35303,-0.201475 0.51682,-0.201475 0.1482,0 0.2555,0.0471 0.32374,0.14206 0.0702,0.09477 0.10322,0.24776 0.10322,0.458555 0,0.273975 -0.0583,0.663985 -0.1733,1.16962 l -1.15438,5.010205 h 1.36689 l 0.75067,-3.42202 c 0.11115,-0.484575 0.24754,-0.89531 0.41134,-1.232465 0.1638,-0.337155 0.39004,-0.688965 0.68059,-1.05498 0.2886,-0.36621 0.5615,-0.632715 0.81695,-0.79866 0.25545,-0.165945 0.48356,-0.2487 0.68441,-0.2487 0.2847,0 0.49349,0.0804 0.62804,0.241085 0.13455,0.16068 0.20071,0.43081 0.20071,0.810085 0,0.16848 -0.0193,0.370035 -0.0583,0.604425 -0.039,0.234585 -0.11507,0.596555 -0.22622,1.08659 l -0.90875,4.01464 h 1.36692 l 0.71943,-3.453635 c 0.1053,-0.490035 0.2457,-0.90476 0.42315,-1.244645 0.1755,-0.339885 0.40398,-0.68476 0.68478,-1.035175 0.27885,-0.350415 0.54401,-0.608725 0.79751,-0.77467 0.2535,-0.165945 0.48916,-0.2487 0.71146,-0.2487 0.273,0 0.47014,0.0804 0.59299,0.241085 0.1209,0.16068 0.1813,0.42261 0.1813,0.78609 0,0.147615 -0.0196,0.339885 -0.0606,0.577005 -0.039,0.23712 -0.1208,0.603095 -0.24755,1.098395 l -0.34888,1.367285 c -0.17355,0.663975 -0.25937,1.16693 -0.25937,1.50935 0,0.379275 0.10142,0.691795 0.30812,0.93691 0.20475,0.24492 0.47951,0.36715 0.82076,0.36715 0.4329,0 0.81703,-0.113135 1.15438,-0.339725 0.33735,-0.226395 0.73127,-0.57948 1.18562,-1.05879 l -0.45055,-0.44294 c -0.3276,0.36348 -0.5789,0.60997 -0.7583,0.738865 -0.1794,0.12909 -0.34897,0.19386 -0.50692,0.19386 -0.14625,0 -0.25549,-0.0473 -0.32374,-0.14206 -0.0683,-0.09477 -0.10169,-0.24776 -0.10169,-0.458555 0,-0.23712 0.0705,-0.64295 0.2129,-1.21723 l 0.51264,-2.07035 c 0.15405,-0.61113 0.23004,-1.08262 0.23004,-1.41451 0,-0.50583 -0.13247,-0.89838 -0.39572,-1.17762 -0.26325,-0.27924 -0.63765,-0.418945 -1.12125,-0.418945 -0.48555,0 -0.95376,0.157 -1.40421,0.470365 -0.45045,0.31356 -0.90076,0.791595 -1.35511,1.434315 0.006,-0.0421 0.008,-0.08159 0.008,-0.118445 V 23.00086 c 0,-0.542685 -0.13095,-0.957605 -0.3942,-1.244645 -0.26325,-0.287235 -0.64933,-0.430755 -1.15438,-0.430755 -0.48945,0 -0.9748,0.17517 -1.4545,0.525585 -0.47775,0.350415 -0.96139,0.886675 -1.44499,1.60837 l -0.0956,-0.0316 c 0.1209,-0.326625 0.18129,-0.634955 0.18129,-0.924725 0,-0.353145 -0.0957,-0.638905 -0.2887,-0.857695 -0.1911,-0.218595 -0.45421,-0.32792 -0.78571,-0.32792 z m -11.81692,0.008 c -0.6162,0 -1.19539,0.12642 -1.73749,0.379335 -0.54405,0.252915 -1.01804,0.63491 -1.42364,1.146005 -0.4056,0.511095 -0.71376,1.103925 -0.92436,1.778235 -0.2106,0.674505 -0.31572,1.293325 -0.31572,1.85707 0,0.864045 0.19675,1.52253 0.5926,1.975515 0.3939,0.45318 0.97504,0.679835 1.73749,0.679835 0.5811,0 1.12127,-0.12642 1.62437,-0.379335 0.5031,-0.252915 1.00224,-0.65328 1.49754,-1.20123 l -0.48141,-0.48217 c -0.39,0.389805 -0.76039,0.675955 -1.10944,0.8577 -0.351,0.181735 -0.76648,0.27231 -1.24618,0.27231 -0.4212,0 -0.73697,-0.13023 -0.94757,-0.39114 -0.2106,-0.260715 -0.31611,-0.65962 -0.31611,-1.19704 0,-0.71643 0.13461,-1.463525 0.40371,-2.2406 0.26715,-0.777075 0.61431,-1.37772 1.03746,-1.801845 0.4251,-0.424125 0.90273,-0.636035 1.43508,-0.636035 0.2262,0 0.40191,0.04455 0.52671,0.134065 0.12285,0.0895 0.2124,0.224125 0.267,0.40333 0.0566,0.179205 0.0896,0.468785 0.0994,0.86912 h 0.83066 l 0.3862,-1.78585 c -0.59086,-0.158145 -1.2343,-0.237275 -1.9363,-0.237275 z M 20.793018,22.21858 v 1.05117 h 9.73629 v -1.05117 z m 29.940497,0 v 1.05117 h 9.73667 v -1.05117 z m 182.504385,0 v 1.05117 h 9.73669 v -1.05117 z m 123.55612,0 v 1.05117 h 9.73629 v -1.05117 z m -277.0135,1.63579 v 1.051175 h 9.736285 V 23.85437 Z m 102.84346,0 v 1.051175 h 9.73628 V 23.85437 Z m 79.66132,0 v 1.051175 h 9.73438 V 23.85437 Z m -65.25874,0.08188 v 0.975 h 13.845 v -0.975 z M 11.133662,24.77034 c -0.38337,0 -0.735905,0.07821 -1.057265,0.23499 -0.3213605,0.15678 -0.598931,0.395085 -0.833321,0.714495 -0.234195,0.319605 -0.416477,0.721045 -0.546152,1.205035 -0.12987,0.48399 -0.1942385,1.057175 -0.1942385,1.7192 0,1.266135 0.2090005,2.21094 0.6272755,2.834355 0.41808,0.623415 1.056924,0.93539 1.916484,0.93539 0.86736,0 1.529297,-0.330345 1.986183,-0.990615 0.456885,-0.660075 0.685546,-1.634895 0.685546,-2.924235 0,-0.580905 -0.04819,-1.1015 -0.145107,-1.562285 -0.09672,-0.460785 -0.248984,-0.850975 -0.456269,-1.170385 -0.207091,-0.31941 -0.474119,-0.56534 -0.801329,-0.73772 -0.32721,-0.17238 -0.721217,-0.258225 -1.181807,-0.258225 z m -0.02361,0.56329 c 0.22854,0 0.43081,0.06566 0.60709,0.197285 0.176085,0.13182 0.32253,0.335905 0.43875,0.612805 0.116025,0.276705 0.206069,0.629955 0.270029,1.05993 0.06376,0.42978 0.0956,0.943125 0.0956,1.539435 0,0.5304 -0.0291,0.99025 -0.08722,1.37947 -0.05792,0.389025 -0.143953,0.71026 -0.258223,0.963955 -0.11427,0.253695 -0.258326,0.44032 -0.432656,0.560245 -0.17433,0.12012 -0.377511,0.18015 -0.609756,0.18015 -0.247845,0 -0.460852,-0.06385 -0.639082,-0.191575 -0.178035,-0.12792 -0.326107,-0.32728 -0.444082,-0.59833 -0.11817,-0.27105 -0.2054905,-0.616475 -0.2616505,-1.0367 -0.05616,-0.42003 -0.08417,-0.91863 -0.08417,-1.495635 0,-0.499395 0.02257,-0.945795 0.067031,-1.33872 0.04446,-0.392925 0.119946,-0.725995 0.226611,-0.998995 0.1064695,-0.273 0.2505265,-0.480185 0.4326565,-0.62156 0.181935,-0.141375 0.408022,-0.21176 0.679072,-0.21176 z m 9.682968,0.16453 v 1.051175 h 9.73629 V 25.49816 Z m 29.9405,0 v 1.051175 h 9.73667 V 25.49816 Z m 182.50438,0 v 1.051175 h 9.7367 V 25.49816 Z m 123.55613,0 v 1.051175 h 9.73629 V 25.49816 Z m 44.77003,1.675405 c 0.037,0.39 0.0545,0.785275 0.0545,1.18561 0,0.39 -0.0255,0.713775 -0.0781,0.971955 -0.0527,0.25818 -0.14038,0.48846 -0.26128,0.69126 -0.1209,0.202995 -0.3159,0.43111 -0.585,0.684025 l 0.42733,0.481785 c 0.48555,-0.36348 0.86568,-0.696725 1.14258,-0.999755 0.27495,-0.302835 0.47767,-0.606975 0.60442,-0.91254 0.12675,-0.30576 0.18929,-0.642815 0.18929,-1.01156 0,-0.358215 -0.0371,-0.72184 -0.11121,-1.09078 z M 199.57719,32.07827 c -0.39975,0 -0.76838,0.11206 -1.10183,0.33592 -0.3354,0.224055 -0.73527,0.5784 -1.19742,1.062975 l 0.45055,0.44256 c 0.3159,-0.353145 0.56357,-0.596515 0.74687,-0.73087 0.18135,-0.134355 0.35303,-0.201855 0.51683,-0.201855 0.1482,0 0.25547,0.04765 0.32372,0.14244 0.0683,0.09477 0.10321,0.24776 0.10321,0.458555 0,0.273975 -0.0582,0.66379 -0.17327,1.16962 l -1.1544,5.010205 h 1.3669 l 0.75068,-3.42164 c 0.11115,-0.48477 0.24753,-0.895875 0.41133,-1.233225 0.1638,-0.337155 0.39009,-0.68877 0.67869,-1.05498 0.29055,-0.36621 0.56339,-0.631955 0.81884,-0.7979 0.25545,-0.165945 0.4836,-0.24908 0.6825,-0.24908 0.2847,0 0.49539,0.0804 0.62993,0.241085 0.1326,0.16068 0.20071,0.43081 0.20071,0.810085 0,0.168675 -0.0193,0.36984 -0.0583,0.604425 -0.0409,0.23439 -0.11507,0.596555 -0.22622,1.08659 l -0.90874,4.01464 h 1.36691 l 0.71943,-3.45363 c 0.1053,-0.48984 0.24568,-0.904765 0.42313,-1.24465 0.1755,-0.33969 0.40365,-0.68476 0.6825,-1.035175 0.27885,-0.35022 0.54632,-0.608345 0.79982,-0.77429 0.25155,-0.165945 0.48919,-0.24908 0.70954,-0.24908 0.27495,0 0.4721,0.0804 0.593,0.241085 0.1209,0.16068 0.18129,0.422795 0.18129,0.78647 0,0.14742 -0.0197,0.339505 -0.0587,0.576625 -0.039,0.23712 -0.12271,0.603295 -0.24946,1.0984 l -0.34696,1.367285 c -0.17355,0.66378 -0.26127,1.166925 -0.26127,1.509345 0,0.37947 0.10336,0.69161 0.3081,0.93653 0.2067,0.24492 0.47947,0.36753 0.82267,0.36753 0.43095,0 0.81703,-0.113135 1.15438,-0.339725 0.33735,-0.22659 0.73127,-0.579665 1.18562,-1.05917 l -0.45057,-0.44218 c -0.3276,0.36348 -0.58078,0.60978 -0.76018,0.73887 -0.17745,0.12909 -0.34707,0.193475 -0.50502,0.193475 -0.1482,0 -0.25548,-0.04745 -0.32373,-0.14244 -0.0683,-0.09477 -0.10359,-0.247575 -0.10359,-0.458175 0,-0.23712 0.0721,-0.64295 0.21442,-1.217225 l 0.51301,-2.070355 c 0.1521,-0.61113 0.23004,-1.08262 0.23004,-1.41451 0,-0.50583 -0.13246,-0.89838 -0.39571,-1.17762 -0.26325,-0.27924 -0.63761,-0.418945 -1.12316,-0.418945 -0.4836,0 -0.95188,0.156805 -1.40233,0.470365 -0.45045,0.313365 -0.90269,0.791595 -1.35509,1.434315 0.006,-0.0421 0.008,-0.08159 0.008,-0.118445 v -0.11083 c 0,-0.542685 -0.13092,-0.957415 -0.39417,-1.24465 -0.2652,-0.28704 -0.64935,-0.430755 -1.1544,-0.430755 -0.48945,0 -0.9748,0.17537 -1.4545,0.52559 -0.4797,0.350415 -0.96133,0.886475 -1.44688,1.608365 l -0.0937,-0.0316 c 0.1209,-0.326625 0.18127,-0.634955 0.18127,-0.924725 0,-0.35295 -0.0956,-0.63872 -0.28868,-0.857315 -0.19305,-0.21879 -0.45421,-0.3283 -0.78571,-0.3283 z"
   id="path2"
   inkscape:connector-curvature="0"
   style="stroke-width:0.19499999" />




























</svg>