<?xml version="1.0" encoding="UTF-8" standalone="no"?>
<svg
   xmlns:dc="http://purl.org/dc/elements/1.1/"
   xmlns:cc="http://creativecommons.org/ns#"
   xmlns:rdf="http://www.w3.org/1999/02/22-rdf-syntax-ns#"
   xmlns:svg="http://www.w3.org/2000/svg"
   xmlns="http://www.w3.org/2000/svg"
   xmlns:sodipodi="http://sodipodi.sourceforge.net/DTD/sodipodi-0.dtd"
   xmlns:inkscape="http://www.inkscape.org/namespaces/inkscape"
   width="454.99036"
   height="59.914509"
   xml:space="preserve"
   overflow="hidden"
   version="1.1"
   id="svg178"
   sodipodi:docname="17-conclusion.svg"
   style="overflow:hidden"
   inkscape:version="0.92.4 (5da689c313, 2019-01-14)"><metadata
   id="metadata184"><rdf:RDF><cc:Work
       rdf:about=""><dc:format>image/svg+xml</dc:format><dc:type
         rdf:resource="http://purl.org/dc/dcmitype/StillImage" /><dc:title></dc:title></cc:Work></rdf:RDF></metadata><defs
   id="defs182" /><sodipodi:namedview
   pagecolor="#ffffff"
   bordercolor="#666666"
   borderopacity="1"
   objecttolerance="10"
   gridtolerance="10"
   guidetolerance="10"
   inkscape:pageopacity="0"
   inkscape:pageshadow="2"
   inkscape:window-width="2029"
   inkscape:window-height="1207"
   id="namedview180"
   showgrid="false"
   inkscape:zoom="1"
   inkscape:cx="266.49476"
   inkscape:cy="100.09268"
   inkscape:window-x="0"
   inkscape:window-y="0"
   inkscape:window-maximized="0"
   inkscape:current-layer="svg178"
   fit-margin-top="0"
   fit-margin-left="0"
   fit-margin-right="0"
   fit-margin-bottom="0" /><path
   d="m 43.648009,0 v 0.387335 c 0.242385,0.06864 0.413745,0.13048 0.513778,0.18586 0.100037,0.05538 0.180439,0.12904 0.241084,0.221275 0.06065,0.09204 0.103929,0.22101 0.130254,0.386955 0.02632,0.165945 0.03961,0.430995 0.03961,0.794475 v 6.836045 c 0,0.389805 -0.0171,0.679385 -0.05142,0.86912 -0.03432,0.18954 -0.106526,0.335985 -0.217091,0.43875 -0.11076,0.102765 -0.329595,0.195875 -0.65622,0.28031 v 0.387335 h 2.892626 v -0.387335 c -0.3003,-0.07917 -0.509857,-0.166115 -0.628417,-0.260885 -0.11856,-0.09477 -0.19731,-0.232825 -0.236895,-0.41476 -0.03959,-0.18174 -0.05941,-0.485875 -0.05941,-0.912535 v -2.20518 c 0,-1.259115 -0.02619,-2.45494 -0.07884,-3.587695 h 0.07084 c 0.24219,0.511095 0.595654,1.164305 1.059169,1.959905 l 3.382411,5.808485 h 2.52091 V 1.9759 c 0,-0.38454 0.01565,-0.66122 0.04725,-0.829895 0.0316,-0.168675 0.07799,-0.295095 0.13863,-0.379335 0.06045,-0.08443 0.13959,-0.153015 0.236895,-0.205665 0.0975,-0.05265 0.264855,-0.110295 0.501975,-0.17367 V 0 h -2.85302 v 0.387335 c 0.25818,0.06864 0.43443,0.133025 0.529395,0.193475 0.09477,0.06065 0.165895,0.13431 0.21328,0.22128 0.0474,0.08697 0.08342,0.20557 0.10702,0.35572 0.0238,0.15015 0.0354,0.42302 0.0354,0.81809 v 1.390895 c 0,1.49097 0.02895,2.86578 0.08684,4.12509 h -0.12645 C 51.26629,7.017645 51.01345,6.514695 50.728945,5.98254 50.44444,5.450385 50.22325,5.047285 50.065105,4.77331 L 47.306924,0 Z m 56.248356,0 v 0.387335 c 0.242385,0.06864 0.413365,0.13048 0.513405,0.18586 0.10003,0.05538 0.18044,0.12904 0.24108,0.221275 0.0606,0.09204 0.10431,0.22101 0.13064,0.386955 0.0263,0.165945 0.0396,0.430995 0.0396,0.794475 v 6.836045 c 0,0.389805 -0.0175,0.679385 -0.0518,0.86912 -0.0343,0.18954 -0.10653,0.335985 -0.21709,0.43875 -0.11076,0.102765 -0.32922,0.195875 -0.655845,0.28031 v 0.387335 h 2.892255 v -0.387335 c -0.30031,-0.07917 -0.50948,-0.166115 -0.62804,-0.260885 -0.11856,-0.09477 -0.19769,-0.232825 -0.23728,-0.41476 -0.0396,-0.18174 -0.0594,-0.485875 -0.0594,-0.912535 v -2.20518 c 0,-1.259115 -0.0262,-2.45494 -0.0788,-3.587695 h 0.0712 c 0.24219,0.511095 0.59528,1.164305 1.05879,1.959905 l 3.38241,5.808485 h 2.52091 V 1.9759 c 0,-0.38454 0.016,-0.66122 0.0476,-0.829895 0.0316,-0.168675 0.0776,-0.295095 0.13826,-0.379335 0.0604,-0.08443 0.13959,-0.153015 0.23689,-0.205665 0.0975,-0.05265 0.26485,-0.110295 0.50197,-0.17367 V 0 h -2.85263 v 0.387335 c 0.25798,0.06864 0.43462,0.133025 0.52939,0.193475 0.0948,0.06065 0.1659,0.13431 0.21328,0.22128 0.0474,0.08697 0.083,0.20557 0.10664,0.35572 0.0238,0.15015 0.0358,0.42302 0.0358,0.81809 v 1.390895 c 0,1.49097 0.0285,2.86578 0.0864,4.12509 h -0.12606 c -0.22133,-0.47424 -0.47455,-0.97719 -0.75905,-1.509345 -0.28451,-0.532155 -0.50531,-0.935255 -0.66346,-1.20923 L 103.55525,0 Z M 0.26888667,0.671835 4.04625,10.79546 H 5.2554785 L 9.6890625,0.671835 H 8.385 L 7.1757715,3.54047 H 2.6869629 L 1.6913964,0.671835 Z m 60.49341833,0 3.777365,10.123625 h 1.209225 L 70.18248,0.671835 H 68.87842 L 67.66957,3.54047 H 63.18038 L 62.184815,0.671835 Z m -15.312452,0.0236 h 1.256837 l 4.98659,8.59828 v 0.79828 h -1.05917 l -5.184257,-8.93799 z m 56.248367,0 h 1.25645 l 4.98659,8.59828 v 0.79828 h -1.05879 L 101.69822,1.15399 Z M 33.882013,1.47772 c -0.853516,0 -1.548929,0.09242 -2.086349,0.276885 -0.53742,0.184275 -0.99836,0.488795 -1.382901,0.91292 -0.384734,0.424125 -0.658679,0.908705 -0.821894,1.45412 -0.16341,0.54522 -0.244892,1.2339 -0.244892,2.06616 0,0.511095 0.0422,0.98532 0.126446,1.42251 0.08424,0.437385 0.210856,0.829935 0.379336,1.17762 0.168675,0.347685 0.388402,0.665295 0.659647,0.95253 0.27144,0.28704 0.560128,0.50168 0.865693,0.64403 0.305567,0.142155 0.647903,0.244935 1.027178,0.308115 0.37947,0.06318 0.827313,0.09484 1.343673,0.09484 h 3.374415 v -1.0984 h -3.342804 c -0.65325,0 -1.165868,-0.06349 -1.537149,-0.190045 C 31.870938,9.372645 31.568073,9.17675 31.333683,8.910575 31.099292,8.644595 30.923927,8.321705 30.808097,7.94243 30.692267,7.56296 30.621141,7.12821 30.594816,6.63837 h 6.527549 v -1.0984 h -6.519933 c 0.02632,-0.43719 0.08963,-0.82828 0.189667,-1.17343 0.100035,-0.34515 0.238467,-0.636385 0.415137,-0.87331 0.176475,-0.23712 0.372369,-0.420105 0.588428,-0.5492 0.21606,-0.129085 0.485999,-0.222775 0.810089,-0.28069 0.32409,-0.05792 0.747018,-0.08722 1.268643,-0.08722 h 3.247968 v -1.0984 z m 56.248357,0 c -0.853515,0 -1.548925,0.09242 -2.086345,0.276885 -0.53742,0.184275 -0.99836,0.488795 -1.3829,0.91292 -0.384735,0.424125 -0.65868,0.908705 -0.821895,1.45412 -0.16341,0.54522 -0.245275,1.2339 -0.245275,2.06616 0,0.511095 0.0422,0.98532 0.126445,1.42251 0.08424,0.437385 0.210855,0.829935 0.379335,1.17762 0.168675,0.347685 0.388785,0.665295 0.66003,0.95253 0.27144,0.28704 0.55975,0.50168 0.865315,0.64403 0.305565,0.142155 0.648085,0.244935 1.027555,0.308115 0.379275,0.06318 0.826935,0.09484 1.343295,0.09484 h 3.374415 V 9.68905 H 90.02754 c -0.65325,0 -1.165675,-0.06349 -1.53715,-0.190045 C 88.118915,9.372645 87.81605,9.17675 87.58166,8.910575 87.34727,8.644595 87.171905,8.321705 87.056075,7.94243 86.940245,7.56296 86.86912,7.12821 86.842795,6.63837 h 6.52755 V 5.53997 H 86.85041 c 0.0263,-0.43719 0.09002,-0.82828 0.19005,-1.17343 0.100035,-0.34515 0.23828,-0.636385 0.414755,-0.87331 0.176475,-0.23712 0.37275,-0.420105 0.58881,-0.5492 0.21606,-0.129085 0.485995,-0.222775 0.810085,-0.28069 0.32409,-0.05792 0.74664,-0.08722 1.268265,-0.08722 h 3.24797 V 1.47772 Z M 12.425537,3.09791 c -0.40053,0 -0.767587,0.111865 -1.102207,0.33592 -0.33462,0.22386 -0.733712,0.578205 -1.197422,1.062975 l 0.450557,0.44256 C 10.89256,4.586415 11.14159,4.34247 11.32333,4.208115 11.50507,4.07376 11.677508,4.00664 11.840918,4.00664 c 0.14742,0 0.255286,0.04765 0.323731,0.14244 0.06844,0.09497 0.102832,0.24738 0.102832,0.458175 0,0.273975 -0.05765,0.66379 -0.173672,1.16962 L 10.939804,10.78746 H 12.30709 L 13.057763,7.36544 C 13.168328,6.88067 13.305495,6.46975 13.46871,6.132595 13.63212,5.79544 13.858774,5.443825 14.148545,5.077615 14.438315,4.7116 14.7108,4.44528 14.96625,4.279335 c 0.255644,-0.165945 0.483378,-0.2487 0.683643,-0.2487 0.284504,0 0.494063,0.0804 0.628418,0.241085 0.134355,0.16068 0.201474,0.430615 0.201474,0.810085 0,0.16848 -0.01983,0.370035 -0.05942,0.604425 -0.03939,0.23439 -0.114326,0.596555 -0.225086,1.08659 l -0.909111,4.01464 h 1.367665 L 17.3729,7.33383 c 0.1053,-0.490035 0.24628,-0.904765 0.422755,-1.24465 0.176475,-0.339885 0.404402,-0.68476 0.683643,-1.035175 0.27924,-0.350415 0.545366,-0.608725 0.79828,-0.77467 0.252916,-0.165945 0.489739,-0.2487 0.711064,-0.2487 0.273975,0 0.471327,0.0804 0.592618,0.241085 0.121095,0.16068 0.182051,0.42261 0.182051,0.78609 0,0.147615 -0.01983,0.339885 -0.05941,0.577005 C 20.664311,5.87174 20.581375,6.23791 20.45482,6.73321 L 20.107093,8.1005 c -0.173745,0.66378 -0.260505,1.166925 -0.260505,1.509345 0,0.379275 0.102778,0.69161 0.308113,0.93653 0.20553,0.245115 0.479476,0.36753 0.821896,0.36753 0.43212,0 0.816467,-0.113135 1.153621,-0.339725 0.337155,-0.22659 0.732631,-0.57986 1.185616,-1.05917 L 22.865277,9.07245 c -0.326625,0.36348 -0.579661,0.60978 -0.758671,0.73887 -0.179205,0.12909 -0.347831,0.193855 -0.505781,0.193855 -0.147615,0 -0.255667,-0.04765 -0.324112,-0.14244 -0.06845,-0.09496 -0.102831,-0.24738 -0.102831,-0.458175 0,-0.23712 0.07131,-0.64295 0.213661,-1.217225 l 0.51378,-2.070355 c 0.152686,-0.61113 0.228895,-1.082805 0.228895,-1.41489 0,-0.505635 -0.131506,-0.897995 -0.39495,-1.177235 -0.263446,-0.27924 -0.637623,-0.418945 -1.122393,-0.418945 -0.48477,0 -0.952255,0.156615 -1.402705,0.46998 -0.45045,0.31356 -0.902112,0.791975 -1.355096,1.434695 0.0053,-0.0421 0.0076,-0.08197 0.0076,-0.11883 V 4.78131 c 0,-0.542685 -0.131506,-0.95761 -0.394951,-1.24465 -0.263445,-0.287235 -0.648175,-0.43075 -1.154005,-0.43075 -0.490035,0 -0.974615,0.17517 -1.45412,0.525585 -0.479505,0.350415 -0.961549,0.88629 -1.446124,1.607985 l -0.09483,-0.0316 c 0.12129,-0.326625 0.18167,-0.634575 0.18167,-0.924345 0,-0.35295 -0.09604,-0.6391 -0.288309,-0.857695 C 13.019735,3.207245 12.75742,3.09792 12.42553,3.09792 Z m 60.493798,0 c -0.405795,0 -0.76942,0.106775 -1.09078,0.3203 -0.32136,0.21333 -0.72446,0.572765 -1.20923,1.078595 l 0.45056,0.44256 C 71.38598,4.586415 71.63501,4.34247 71.81675,4.208115 71.99849,4.07376 72.17112,4.00664 72.334335,4.00664 c 0.147615,0 0.255665,0.04765 0.32411,0.14244 0.06844,0.09497 0.102455,0.24738 0.102455,0.458175 0,0.273975 -0.05765,0.66379 -0.173675,1.16962 l -1.154,5.010585 h 1.367285 l 0.75105,-3.42202 c 0.110565,-0.490035 0.25282,-0.902225 0.426565,-1.23665 0.17394,-0.33462 0.40422,-0.67988 0.69126,-1.03556 0.287235,-0.355485 0.558635,-0.621425 0.814275,-0.7979 0.255455,-0.176475 0.493745,-0.264695 0.714875,-0.264695 0.273975,0 0.471905,0.0804 0.593,0.241085 0.121095,0.16068 0.18167,0.42261 0.18167,0.78609 0,0.147615 -0.01985,0.339885 -0.05941,0.577005 -0.0396,0.236925 -0.122145,0.603095 -0.2487,1.098395 L 76.31737,8.1005 c -0.173745,0.66378 -0.26089,1.166925 -0.26089,1.509345 0,0.379275 0.10278,0.69161 0.308115,0.93653 0.20553,0.245115 0.479475,0.36753 0.821895,0.36753 0.43212,0 0.81685,-0.11186 1.154005,-0.335915 0.337155,-0.22386 0.73225,-0.578405 1.185235,-1.06298 L 79.07517,9.07245 c -0.326625,0.36348 -0.57928,0.60978 -0.75829,0.73887 -0.179205,0.12909 -0.34783,0.193855 -0.50578,0.193855 -0.147615,0 -0.255475,-0.04765 -0.324115,-0.14244 -0.06844,-0.09496 -0.10283,-0.24738 -0.10283,-0.458175 0,-0.23712 0.07131,-0.64295 0.213665,-1.217225 L 78.11121,6.11698 c 0.152685,-0.61113 0.22928,-1.082805 0.22928,-1.41489 0,-0.50037 -0.13189,-0.89146 -0.395335,-1.17343 -0.263445,-0.281775 -0.639975,-0.42275 -1.13001,-0.42275 -0.495105,0 -0.976065,0.17517 -1.44231,0.525585 -0.466245,0.350415 -0.95757,0.88883 -1.47393,1.615985 l -0.09445,-0.0316 c 0.12636,-0.342615 0.189285,-0.653105 0.189285,-0.932345 0,-0.35295 -0.09604,-0.6391 -0.28831,-0.857695 C 73.51316,3.207245 73.251225,3.09792 72.919335,3.09792 Z M 3.0586817,4.62325 H 6.7175975 L 4.7180858,9.317345 Z m 60.4934183,0 h 3.658915 l -1.99951,4.694095 z m 50.50576,1.92715 c -0.38337,0 -0.7359,0.0784 -1.05726,0.23537 -0.32136,0.15678 -0.59893,0.3947 -0.83332,0.71411 -0.2342,0.31941 -0.41628,0.72143 -0.54615,1.20542 -0.12968,0.48399 -0.19424,1.057175 -0.19424,1.7192 0,1.266135 0.20881,2.210945 0.62689,2.83436 0.41828,0.623415 1.05731,0.935005 1.91687,0.935005 0.86736,0 1.52968,-0.329965 1.98656,-0.990235 0.45689,-0.660075 0.68517,-1.63508 0.68517,-2.924615 0,-0.58071 -0.0484,-1.1015 -0.14511,-1.562285 -0.0967,-0.460785 -0.2488,-0.85059 -0.45589,-1.17 C 115.83429,7.227125 115.56669,6.98119 115.23967,6.809005 114.91246,6.636625 114.51865,6.5504 114.05786,6.5504 Z m -0.0233,0.56367 c 0.22854,0 0.43081,0.06566 0.60709,0.197285 0.17609,0.131625 0.32235,0.335905 0.43837,0.612805 0.11622,0.276705 0.20626,0.63015 0.27003,1.05993 0.064,0.42978 0.096,0.94294 0.096,1.539055 0,0.530595 -0.0291,0.990445 -0.0872,1.37947 -0.0581,0.38922 -0.14453,0.71064 -0.2586,0.964335 -0.11427,0.2535 -0.25853,0.440125 -0.43266,0.560245 -0.17433,0.12012 -0.37732,0.18015 -0.60976,0.18015 -0.24784,0 -0.46104,-0.06404 -0.63908,-0.191955 -0.17823,-0.127725 -0.32592,-0.3269 -0.44409,-0.59795 -0.11797,-0.27105 -0.20548,-0.61667 -0.26164,-1.0367 -0.0562,-0.420225 -0.0842,-0.91863 -0.0842,-1.495635 0,-0.499395 0.0224,-0.945795 0.067,-1.33872 0.0444,-0.39312 0.11976,-0.725995 0.22623,-0.998995 0.10647,-0.273 0.25072,-0.48038 0.43265,-0.62156 0.18213,-0.141375 0.40879,-0.21176 0.67984,-0.21176 z m -58.6333,1.839935 c 0.03685,0.389805 0.05523,0.7849 0.05523,1.185235 0,0.389805 -0.0264,0.71415 -0.07922,0.97233 -0.05265,0.25818 -0.139415,0.48846 -0.26051,0.69126 -0.121095,0.2028 -0.31629,0.43073 -0.585,0.683645 l 0.426945,0.48217 c 0.484575,-0.36348 0.86511,-0.69673 1.141815,-0.99976 0.27651,-0.302835 0.478065,-0.607355 0.604425,-0.91292 0.126555,-0.305565 0.19005,-0.642435 0.19005,-1.01118 0,-0.358215 -0.03695,-0.722035 -0.11083,-1.09078 z m 210.0935,7.527685 c -0.15795,0 -0.30972,0.02145 -0.45207,0.06399 -0.1443,0.0427 -0.28679,0.109265 -0.43304,0.20033 -0.1443,0.09107 -0.29827,0.20711 -0.45817,0.348485 -0.16185,0.141375 -0.3394,0.31073 -0.53245,0.50807 l 0.4018,0.37743 c 0.11505,-0.119925 0.22024,-0.224335 0.31384,-0.31345 0.0916,-0.08912 0.1775,-0.162405 0.25745,-0.220515 0.0799,-0.05811 0.15604,-0.10196 0.22624,-0.131015 0.0722,-0.02905 0.14231,-0.0434 0.21251,-0.0434 0.22815,0 0.34316,0.14115 0.34316,0.4239 0,0.10062 -0.0117,0.230505 -0.0351,0.389235 -0.0234,0.158535 -0.0605,0.33802 -0.11121,0.54082 l -0.87178,3.786885 h 1.13876 l 0.65165,-2.91548 c 0.039,-0.1794 0.0993,-0.35875 0.1832,-0.53815 0.0819,-0.1794 0.17915,-0.353025 0.2864,-0.516825 0.1092,-0.163805 0.22817,-0.319375 0.35687,-0.46465 0.13065,-0.14508 0.26344,-0.271345 0.39799,-0.377815 0.1365,-0.10647 0.27111,-0.189595 0.40371,-0.24946 0.13455,-0.06006 0.25935,-0.08988 0.3744,-0.08988 0.2028,0 0.34905,0.05602 0.43875,0.16834 0.0917,0.11232 0.13635,0.288205 0.13635,0.52825 0,0.10062 -0.0115,0.227805 -0.0369,0.3801 -0.0254,0.15405 -0.0607,0.32754 -0.1055,0.52254 -0.0429,0.19695 -0.0953,0.409365 -0.15576,0.639465 -0.0605,0.230095 -0.1248,0.47208 -0.195,0.72363 -0.0663,0.24765 -0.11501,0.4758 -0.14816,0.6825 -0.0331,0.2067 -0.0487,0.38791 -0.0487,0.54196 0,0.156 0.0233,0.298625 0.0701,0.427325 0.0448,0.13065 0.11111,0.24151 0.19692,0.33706 0.0858,0.09555 0.18729,0.169725 0.30429,0.224325 0.11895,0.05265 0.24775,0.07999 0.3862,0.07999 0.1677,0 0.32368,-0.0214 0.47188,-0.06627 0.14625,-0.04485 0.29435,-0.11135 0.44255,-0.203 0.15015,-0.09165 0.30404,-0.20661 0.46199,-0.34506 0.1599,-0.1404 0.33339,-0.30621 0.52254,-0.50121 l -0.39953,-0.382 c -0.117,0.12675 -0.22021,0.23784 -0.31381,0.32754 -0.0936,0.09165 -0.17757,0.165825 -0.25557,0.224325 -0.078,0.0585 -0.15218,0.09952 -0.22433,0.126825 -0.0722,0.0273 -0.14418,0.04075 -0.21633,0.04075 -0.1209,0 -0.20857,-0.03315 -0.26317,-0.0975 -0.0527,-0.0663 -0.08,-0.173675 -0.08,-0.319925 0,-0.039 0.0175,-0.13836 0.0525,-0.29631 0.0331,-0.1599 0.0779,-0.350845 0.13254,-0.575095 0.0546,-0.22425 0.11322,-0.46986 0.17367,-0.73506 0.0624,-0.2652 0.1206,-0.522735 0.1752,-0.774285 0.0546,-0.25155 0.0978,-0.485565 0.13292,-0.698115 0.0351,-0.21255 0.0525,-0.37919 0.0525,-0.49931 0,-0.398775 -0.1015,-0.70837 -0.3043,-0.928915 -0.2028,-0.22074 -0.51066,-0.331345 -0.92017,-0.331345 -0.39195,0 -0.77024,0.12788 -1.13684,0.383525 -0.36465,0.25545 -0.73539,0.64053 -1.11174,1.155525 l -0.0819,-0.02895 c 0.0351,-0.07742 0.0606,-0.158535 0.0743,-0.24375 0.0117,-0.08522 0.0195,-0.166715 0.0195,-0.24413 0,-0.305955 -0.0782,-0.552605 -0.23613,-0.74039 -0.156,-0.187785 -0.37834,-0.281835 -0.66499,-0.281835 z m 184.09981,0 c -0.15795,0 -0.31011,0.02145 -0.45246,0.06399 -0.1443,0.0427 -0.28873,0.109265 -0.43303,0.20033 -0.14625,0.09107 -0.29828,0.20711 -0.45818,0.348485 -0.16185,0.141375 -0.33939,0.31073 -0.53244,0.50807 l 0.40181,0.37743 c 0.11505,-0.119925 0.22028,-0.224335 0.31193,-0.31345 0.0936,-0.08912 0.1794,-0.162405 0.25935,-0.220515 0.0799,-0.05811 0.15408,-0.10196 0.22623,-0.131015 0.0722,-0.02905 0.14232,-0.0434 0.21252,-0.0434 0.22815,0 0.34125,0.14115 0.34125,0.4239 0,0.10062 -0.01,0.230505 -0.0331,0.389235 -0.0234,0.158535 -0.0605,0.33802 -0.11121,0.54082 l -0.8714,3.786885 h 1.13876 l 0.65126,-2.91548 c 0.0371,-0.1794 0.0994,-0.35875 0.18129,-0.53815 0.0838,-0.1794 0.1795,-0.353025 0.2887,-0.516825 0.10725,-0.163805 0.22817,-0.319375 0.35687,-0.46465 0.13065,-0.14508 0.26306,-0.271345 0.39761,-0.377815 0.1365,-0.10647 0.27112,-0.189595 0.40372,-0.24946 0.13455,-0.06006 0.25933,-0.08988 0.37438,-0.08988 0.20085,0 0.3471,0.05602 0.43875,0.16834 0.0916,0.11232 0.13635,0.288205 0.13635,0.52825 0,0.10062 -0.0117,0.227805 -0.0369,0.3801 -0.0254,0.15405 -0.0603,0.32754 -0.10511,0.52254 -0.0448,0.19695 -0.0977,0.409365 -0.15616,0.639465 -0.0605,0.230095 -0.1248,0.47208 -0.195,0.72363 -0.0663,0.24765 -0.11501,0.4758 -0.14816,0.6825 -0.0331,0.2067 -0.0487,0.38791 -0.0487,0.54196 0,0.156 0.0233,0.298625 0.0682,0.427325 0.0468,0.13065 0.11302,0.24151 0.19882,0.33706 0.0838,0.09555 0.18535,0.169725 0.3043,0.224325 0.11895,0.05265 0.24774,0.07999 0.38619,0.07999 0.16575,0 0.32372,-0.0214 0.46997,-0.06627 0.1482,-0.04485 0.29627,-0.11135 0.44447,-0.203 0.15015,-0.09165 0.30441,-0.20661 0.46236,-0.34506 0.15795,-0.1404 0.33339,-0.30621 0.52254,-0.50121 l -0.3999,-0.382 c -0.117,0.12675 -0.22217,0.23784 -0.31382,0.32754 -0.0936,0.09165 -0.17951,0.165825 -0.25556,0.224325 -0.078,0.0585 -0.15218,0.09952 -0.22433,0.126825 -0.0721,0.0273 -0.14413,0.04075 -0.21823,0.04075 -0.11895,0 -0.20668,-0.03315 -0.26128,-0.0975 -0.0546,-0.0663 -0.08,-0.173675 -0.08,-0.319925 0,-0.039 0.0175,-0.13836 0.0507,-0.29631 0.0351,-0.1599 0.0798,-0.350845 0.13444,-0.575095 0.0546,-0.22425 0.11126,-0.46986 0.17366,-0.73506 0.0624,-0.2652 0.12098,-0.522735 0.17558,-0.774285 0.0526,-0.25155 0.0974,-0.485565 0.13254,-0.698115 0.0351,-0.21255 0.0526,-0.37919 0.0526,-0.49931 0,-0.398775 -0.1015,-0.70837 -0.3043,-0.928915 -0.20475,-0.22074 -0.51061,-0.331345 -0.92206,-0.331345 -0.39,0 -0.76836,0.12788 -1.13496,0.383525 -0.3666,0.25545 -0.73733,0.64053 -1.11173,1.155525 l -0.0819,-0.02895 c 0.0351,-0.07742 0.0587,-0.158535 0.0724,-0.24375 0.0137,-0.08522 0.0213,-0.166715 0.0213,-0.24413 0,-0.305955 -0.0778,-0.552605 -0.23573,-0.74039 -0.156,-0.187785 -0.37834,-0.281835 -0.66499,-0.281835 z m -238.22374,2.16328 c -2.16645,1.85445 -3.88461,4.621605 -5.15796,8.299305 -1.2714,3.6777 -1.90888,7.78024 -1.90888,12.31204 0,4.461605 0.63748,8.560705 1.90888,12.293005 1.27335,3.7323 2.99151,6.52049 5.15796,8.36519 l 0.37058,-0.585 c -1.87005,-1.9032 -3.31145,-4.65457 -4.3235,-8.25817 -1.0101,-3.6036 -1.51696,-7.54042 -1.51696,-11.807025 0,-4.368 0.50713,-8.322615 1.52113,-11.861865 1.014,-3.5412 2.45513,-6.261665 4.31933,-8.164865 z m 43.67583,0 -0.3721,0.592615 c 1.8603,1.9032 3.29919,4.623665 4.31514,8.164865 1.0179,3.53925 1.52495,7.493865 1.52495,11.861865 0,4.266605 -0.50491,8.203425 -1.51696,11.807025 -1.01205,3.6036 -2.45308,6.35497 -4.32313,8.25817 l 0.3721,0.585 c 2.1645,-1.8447 3.88467,-4.63289 5.15607,-8.36519 1.27335,-3.7323 1.90886,-7.8314 1.90886,-12.293005 0,-4.5318 -0.63551,-8.63434 -1.90886,-12.31204 -1.2714,-3.6777 -2.99157,-6.444855 -5.15607,-8.299305 z m 140.4217,0 c -2.1645,1.85445 -3.8843,4.621605 -5.1557,8.299305 -1.2714,3.6777 -1.90925,7.78024 -1.90925,12.31204 0,4.461605 0.63785,8.560705 1.90925,12.293005 1.2714,3.7323 2.9912,6.52049 5.1557,8.36519 l 0.37247,-0.585 c -1.87005,-1.9032 -3.31108,-4.65457 -4.32313,-8.25817 -1.01205,-3.6036 -1.51733,-7.54042 -1.51733,-11.807025 0,-4.368 0.50715,-8.322615 1.52115,-11.861865 1.014,-3.5412 2.45317,-6.261665 4.31931,-8.164865 z m 43.67809,0 -0.37247,0.592615 c 1.8603,1.9032 3.29724,4.623665 4.31514,8.164865 1.01595,3.53925 1.52496,7.493865 1.52496,11.861865 0,4.266605 -0.50492,8.203425 -1.51697,11.807025 -1.01205,3.6036 -2.45308,6.35497 -4.32313,8.25817 l 0.37247,0.585 c 2.1645,-1.8447 3.88235,-4.63289 5.1557,-8.36519 1.2714,-3.7323 1.90886,-7.8314 1.90886,-12.293005 0,-4.5318 -0.63746,-8.63434 -1.90886,-12.31204 -1.27335,-3.6777 -2.9912,-6.444855 -5.1557,-8.299305 z m -191.25615,2.160615 -3.69929,2.205175 0.34926,0.608615 c 0.45825,-0.3042 0.84242,-0.543945 1.15247,-0.719445 0.312,-0.17355 0.55176,-0.259365 0.71946,-0.259365 0.14235,0 0.24961,0.04875 0.32371,0.14625 0.0741,0.0975 0.11121,0.251385 0.11121,0.461985 v 6.40986 c 0,0.36855 -0.0314,0.63372 -0.0918,0.79752 -0.0605,0.1638 -0.15608,0.288495 -0.28868,0.378195 -0.13065,0.0897 -0.32169,0.157765 -0.57129,0.202615 -0.25155,0.04485 -0.66879,0.08015 -1.25379,0.1055 v 0.577 h 5.84048 v -0.577 c -0.4056,-0.0097 -0.73154,-0.0294 -0.97919,-0.05866 -0.24765,-0.02925 -0.45439,-0.07027 -0.61624,-0.126825 -0.1638,-0.0546 -0.28854,-0.130635 -0.37629,-0.228135 -0.0877,-0.0975 -0.14814,-0.224095 -0.18129,-0.380095 -0.0351,-0.156 -0.0526,-0.38592 -0.0526,-0.69012 v -6.75111 c 0,-0.89505 0.0175,-1.594965 0.0488,-2.101965 z m 186.52931,0 -3.69737,2.205175 0.34733,0.608615 c 0.45825,-0.3042 0.84238,-0.543945 1.15438,-0.719445 0.31005,-0.17355 0.54984,-0.259365 0.71754,-0.259365 0.14235,0 0.25153,0.04875 0.32563,0.14625 0.0722,0.0975 0.10932,0.251385 0.10932,0.461985 v 6.40986 c 0,0.36855 -0.0294,0.63372 -0.0899,0.79752 -0.0605,0.1638 -0.15803,0.288495 -0.28868,0.378195 -0.1326,0.0897 -0.32361,0.157765 -0.57321,0.202615 -0.2496,0.04485 -0.66688,0.08015 -1.25188,0.1055 v 0.577 h 5.8401 v -0.577 c -0.4056,-0.0097 -0.73307,-0.0294 -0.98072,-0.05866 -0.24765,-0.02925 -0.45241,-0.07027 -0.61621,-0.126825 -0.1638,-0.0546 -0.28855,-0.130635 -0.3763,-0.228135 -0.0858,-0.0975 -0.14619,-0.224095 -0.18129,-0.380095 -0.0331,-0.156 -0.0507,-0.38592 -0.0507,-0.69012 v -6.75111 c 0,-0.89505 0.0156,-1.594965 0.0469,-2.101965 z M 398.79288,24.0307 c -0.39975,0 -0.76604,0.11129 -1.10144,0.33554 -0.3354,0.22425 -0.73332,0.578995 -1.19742,1.062595 l 0.45055,0.44294 c 0.3159,-0.35295 0.56552,-0.5967 0.74687,-0.73125 0.18135,-0.13455 0.35459,-0.20109 0.51644,-0.20109 0.1482,0 0.25543,0.0469 0.32563,0.14244 0.0683,0.09555 0.10169,0.247575 0.10169,0.458175 0,0.27495 -0.0567,0.663 -0.17367,1.17 l -1.15438,5.00944 h 1.36881 l 0.75067,-3.42202 c 0.1092,-0.4836 0.24796,-0.89511 0.40981,-1.23246 0.1638,-0.33735 0.38967,-0.68838 0.68022,-1.05498 0.2886,-0.3666 0.56187,-0.63177 0.81732,-0.79752 0.25545,-0.16575 0.48354,-0.249465 0.68439,-0.249465 0.2847,0 0.49349,0.07962 0.62804,0.241465 0.13455,0.1599 0.20071,0.431025 0.20071,0.809325 0,0.16965 -0.0197,0.370425 -0.0586,0.604425 -0.039,0.234 -0.11509,0.59676 -0.22624,1.08621 l -0.90874,4.01502 h 1.36919 l 0.71754,-3.45325 c 0.1053,-0.48945 0.24763,-0.90497 0.42313,-1.24427 0.17745,-0.3393 0.40556,-0.684175 0.68441,-1.035175 0.27885,-0.351 0.54402,-0.608535 0.79752,-0.774285 0.2535,-0.16575 0.48952,-0.249465 0.71182,-0.249465 0.273,0 0.47173,0.07962 0.59263,0.241465 0.1209,0.1599 0.18166,0.423395 0.18166,0.786095 0,0.1482 -0.0197,0.3391 -0.0586,0.577 -0.041,0.23595 -0.12271,0.60272 -0.24946,1.09802 l -0.34735,1.366905 c -0.1755,0.66495 -0.26126,1.168095 -0.26126,1.509345 0,0.38025 0.10335,0.692355 0.3081,0.938055 0.20475,0.24375 0.47989,0.366385 0.82114,0.366385 0.4329,0 0.81703,-0.113145 1.15438,-0.339345 0.33735,-0.2262 0.73322,-0.579085 1.18562,-1.058785 l -0.45057,-0.44256 c -0.3276,0.3627 -0.57926,0.610165 -0.75866,0.738865 -0.1794,0.1287 -0.34706,0.193095 -0.50501,0.193095 -0.1482,0 -0.25545,-0.0465 -0.32565,-0.14206 -0.0682,-0.09555 -0.10131,-0.247955 -0.10131,-0.458555 0,-0.2379 0.0702,-0.643545 0.21253,-1.216845 l 0.51492,-2.07073 c 0.1521,-0.61035 0.22813,-1.08225 0.22813,-1.41375 0,-0.507 -0.13088,-0.89877 -0.39608,-1.17762 -0.26325,-0.27885 -0.6357,-0.419325 -1.12125,-0.419325 -0.48555,0 -0.95151,0.15603 -1.40196,0.46998 -0.45045,0.31395 -0.90269,0.79158 -1.35509,1.43508 0.004,-0.0429 0.008,-0.08178 0.008,-0.11883 v -0.11121 c 0,-0.5421 -0.13246,-0.95762 -0.39571,-1.24427 -0.26325,-0.28665 -0.64738,-0.43075 -1.15438,-0.43075 -0.48945,0 -0.97522,0.17535 -1.45297,0.52635 -0.4797,0.34905 -0.9633,0.885345 -1.4469,1.606845 l -0.0956,-0.03125 c 0.1209,-0.32565 0.18166,-0.635745 0.18166,-0.924345 0,-0.35295 -0.0957,-0.639675 -0.28678,-0.858075 -0.19305,-0.2184 -0.45455,-0.32754 -0.788,-0.32754 z m 16.05856,2.536905 v 1.051175 h 9.73629 V 26.567605 Z M 51.21949,31.78576 c -1.538354,0.4056 -2.71962,1.28129 -3.544275,2.62679 -0.824461,1.34745 -1.236649,2.969895 -1.236649,4.873095 0,1.907105 0.410535,3.531545 1.23246,4.871195 0.821925,1.3416 2.004846,2.21509 3.548464,2.62069 l 0.18967,-0.60823 c -1.21719,-0.4056 -2.121964,-1.20711 -2.714764,-2.40246 -0.592605,-1.1973 -0.888927,-2.71648 -0.888927,-4.56118 0,-1.78035 0.296321,-3.2604 0.888927,-4.43625 0.5928,-1.1778 1.505589,-1.969435 2.738379,-2.375035 z m 30.364015,0 -0.21328,0.608615 c 1.238055,0.4056 2.15212,1.197235 2.742185,2.375035 0.590075,1.17585 0.88512,2.6559 0.88512,4.43625 0,1.8447 -0.296505,3.36388 -0.889305,4.56117 -0.592605,1.19535 -1.49739,1.99686 -2.714385,2.40246 l 0.189665,0.60824 c 1.54362,-0.4056 2.726545,-1.27909 3.54847,-2.62069 0.821925,-1.33965 1.23284,-2.96409 1.23284,-4.871195 0,-1.9032 -0.412375,-3.525645 -1.23703,-4.873095 -0.82446,-1.3455 -2.005925,-2.22119 -3.54428,-2.62679 z M 5.492373,32.983185 c -0.7164299,0 -1.3487297,0.128745 -1.8966797,0.388095 -0.547755,0.2574 -0.9717704,0.624165 -1.2720702,1.098015 -0.3003002,0.47385 -0.4505567,1.02174 -0.4505567,1.64379 0,0.39 0.076397,0.74289 0.2292773,1.05879 0.152685,0.3159 0.3580504,0.602625 0.6162304,0.858075 0.25818,0.25545 0.5819532,0.514845 0.9719532,0.778095 0.431925,0.29055 0.7626329,0.54585 0.9917579,0.7701 0.229125,0.22425 0.4004843,0.458125 0.5137793,0.703825 0.113295,0.2457 0.170244,0.52871 0.170244,0.85046 0,0.6942 -0.205551,1.23822 -0.6166112,1.62627 -0.410865,0.39 -0.9745857,0.585 -1.6910157,0.585 -0.621855,0 -1.0815218,-0.15603 -1.3790918,-0.46998 -0.297765,-0.31395 -0.446748,-0.79162 -0.446748,-1.43317 H 0.4741698 L 0,43.61259 c 0.442455,0.1209 0.9445221,0.2225 1.5055371,0.3005 0.561015,0.0799 1.0839898,0.11882 1.5687597,0.11882 0.71643,0 1.3552744,-0.13646 1.9164844,-0.40751 0.5610153,-0.27105 0.9957678,-0.65524 1.3040628,-1.15249 0.3080995,-0.4992 0.461982,-1.06846 0.461982,-1.71196 0,-0.41535 -0.064582,-0.782115 -0.1934765,-1.098015 -0.12909,-0.3159 -0.329175,-0.616125 -0.600615,-0.896925 -0.271245,-0.28275 -0.665261,-0.60249 -1.181426,-0.96129 -0.59007,-0.4056 -0.9893569,-0.75663 -1.1974219,-1.05498 -0.20826,-0.2964 -0.3119237,-0.643515 -0.3119237,-1.039365 0,-0.3783 0.086763,-0.721365 0.2605077,-1.029465 0.17394,-0.3081 0.4267819,-0.55185 0.7586719,-0.73125 0.33189,-0.1794 0.716619,-0.269265 1.154004,-0.269265 0.358215,0 0.645258,0.05452 0.861123,0.16567 0.21606,0.11115 0.382139,0.294515 0.498164,0.549965 0.11583,0.25545 0.184223,0.60648 0.2052835,1.05498 h 0.7586715 l 0.442559,-2.031885 c -0.50037,-0.15795 -0.957499,-0.26924 -1.371094,-0.33554 -0.413595,-0.0663 -0.8627105,-0.0994 -1.3474805,-0.0994 z m 211.817987,0 -3.6989,2.205555 0.34886,0.60823 c 0.45825,-0.30615 0.84243,-0.54589 1.15248,-0.71944 0.312,-0.17355 0.55176,-0.26127 0.71946,-0.26127 0.14235,0 0.24962,0.04875 0.32372,0.14625 0.0741,0.0975 0.11121,0.251715 0.11121,0.464265 v 6.407575 c 0,0.36855 -0.0314,0.63563 -0.0918,0.79943 -0.0605,0.16185 -0.15571,0.28849 -0.28831,0.37819 -0.13065,0.0897 -0.32206,0.15815 -0.57166,0.203 -0.25155,0.0429 -0.66879,0.0798 -1.25379,0.10512 v 0.57738 h 5.84046 v -0.57738 c -0.4056,-0.01 -0.73152,-0.029 -0.97917,-0.0583 -0.24765,-0.0292 -0.454,-0.0722 -0.61585,-0.12682 -0.1638,-0.0546 -0.28893,-0.13254 -0.37668,-0.23004 -0.0858,-0.0975 -0.14814,-0.22257 -0.18129,-0.37857 -0.0351,-0.156 -0.0506,-0.38588 -0.0506,-0.69203 v -6.748825 c 0,-0.89505 0.0156,-1.59534 0.0469,-2.10234 z m -56.9419,1.209225 v 4.553175 h -4.30562 v 1.05079 h 4.30562 v 4.551655 h 1.12315 v -4.551655 h 4.30752 v -1.05079 h -4.30752 V 34.19241 Z m 184.09943,0 v 4.553175 h -4.30753 v 1.05079 h 4.30753 v 4.551655 h 1.12314 v -4.551655 h 4.30562 v -1.05079 h -4.30562 V 34.19241 Z m -154.34441,0.750675 -0.78952,0.791425 3.59568,3.547325 -3.6113,3.603695 0.73505,0.74267 3.65054,-3.580075 3.54085,3.611315 0.78991,-0.78953 -3.54885,-3.588075 3.54124,-3.60369 -0.74307,-0.73506 -3.58008,3.57246 z m 184.09942,0 -0.78952,0.791425 3.59569,3.547325 -3.61131,3.603695 0.73316,0.74267 3.65243,-3.580075 3.53933,3.611315 0.79143,-0.78953 -3.54885,-3.588075 3.54124,-3.60369 -0.74307,-0.73506 -3.58008,3.57246 z M 54.181815,36.20868 c -0.40053,0 -0.767965,0.110905 -1.102585,0.335155 -0.33462,0.22425 -0.733715,0.57938 -1.197425,1.06298 l 0.45056,0.44256 c 0.316095,-0.35295 0.565125,-0.5967 0.746865,-0.73125 0.18174,-0.13455 0.354175,-0.200715 0.517585,-0.200715 0.14742,0 0.25529,0.0465 0.323735,0.14206 0.06845,0.0936 0.10283,0.247955 0.10283,0.458555 0,0.273 -0.05765,0.663 -0.17367,1.17 l -1.154005,5.009445 h 1.367285 l 0.75067,-3.4224 c 0.11057,-0.483605 0.247735,-0.895115 0.41095,-1.232465 0.16341,-0.33735 0.38987,-0.68838 0.679835,-1.05498 0.28977,-0.3666 0.562255,-0.63177 0.817705,-0.79752 0.25545,-0.16575 0.483375,-0.24946 0.68364,-0.24946 0.284505,0 0.494065,0.07999 0.62842,0.241845 0.134355,0.1599 0.201475,0.429075 0.201475,0.809325 0,0.1677 -0.01985,0.370425 -0.05941,0.604425 -0.0396,0.234 -0.114525,0.59676 -0.22509,1.08621 l -0.90873,4.01502 h 1.367285 l 0.719065,-3.45363 c 0.1053,-0.489455 0.24628,-0.90459 0.422755,-1.24389 0.176475,-0.34125 0.404595,-0.686505 0.68364,-1.035555 0.27924,-0.351 0.545365,-0.60854 0.79828,-0.77429 0.252915,-0.16575 0.48974,-0.24946 0.711065,-0.24946 0.273975,0 0.47133,0.07999 0.59262,0.241845 0.121095,0.1599 0.18205,0.42106 0.18205,0.78571 0,0.14625 -0.01985,0.339485 -0.05942,0.577385 -0.0396,0.23595 -0.122525,0.602335 -0.24908,1.097635 l -0.347725,1.3669 c -0.173745,0.66495 -0.26051,1.1681 -0.26051,1.50935 0,0.38025 0.10278,0.69241 0.308115,0.93615 0.20553,0.2457 0.479475,0.36868 0.821895,0.36868 0.43212,0 0.81647,-0.11315 1.153625,-0.33935 0.337155,-0.22815 0.73263,-0.58104 1.185615,-1.05879 l -0.450555,-0.44294 c -0.326625,0.3627 -0.579665,0.6086 -0.758675,0.73925 -0.179205,0.1287 -0.34783,0.19309 -0.50578,0.19309 -0.147615,0 -0.25567,-0.0469 -0.324115,-0.14244 -0.06844,-0.0956 -0.10283,-0.24757 -0.10283,-0.45817 0,-0.2379 0.07131,-0.64355 0.213665,-1.21684 l 0.51378,-2.07112 c 0.152685,-0.6123 0.228895,-1.082205 0.228895,-1.415655 0,-0.50505 -0.13151,-0.89686 -0.394955,-1.17571 -0.26344,-0.2808 -0.63762,-0.419325 -1.12239,-0.419325 -0.48477,0 -0.952255,0.15603 -1.402705,0.46998 -0.45045,0.31395 -0.90211,0.791575 -1.355095,1.435075 0.0052,-0.0429 0.0076,-0.08178 0.0076,-0.118825 v -0.111215 c 0,-0.5421 -0.131505,-0.957235 -0.39495,-1.243885 -0.263445,-0.2886 -0.648175,-0.43113 -1.154005,-0.43113 -0.490035,0 -0.974615,0.17539 -1.45412,0.52444 -0.479505,0.351 -0.961355,0.88725 -1.446125,1.60875 l -0.09483,-0.03125 c 0.12129,-0.3276 0.18167,-0.635365 0.18167,-0.923965 0,-0.35295 -0.09604,-0.639675 -0.28831,-0.858075 -0.19227,-0.2184 -0.454205,-0.32754 -0.786095,-0.32754 z m 19.82754,0 c -0.405795,0 -0.76904,0.10504 -1.0904,0.31954 -0.32136,0.21255 -0.72446,0.573545 -1.20923,1.078595 l 0.450175,0.44256 c 0.31629,-0.35295 0.56513,-0.5967 0.74687,-0.73125 0.18174,-0.13455 0.354555,-0.200715 0.517965,-0.200715 0.14742,0 0.25529,0.0465 0.323735,0.14206 0.06864,0.0936 0.10283,0.247955 0.10283,0.458555 0,0.273 -0.05784,0.663 -0.17367,1.17 l -1.154005,5.009445 h 1.367285 l 0.750675,-3.4224 c 0.110565,-0.489455 0.252815,-0.90087 0.42656,-1.23627 0.17394,-0.3354 0.404405,-0.68066 0.69164,-1.03556 0.28704,-0.3549 0.558825,-0.62202 0.814275,-0.79752 0.25545,-0.17745 0.49393,-0.265075 0.715255,-0.265075 0.273975,0 0.471525,0.07999 0.59262,0.241845 0.12129,0.1599 0.18167,0.42106 0.18167,0.78571 0,0.14625 -0.01985,0.339485 -0.05942,0.577385 -0.0394,0.23595 -0.12234,0.602335 -0.2487,1.097635 l -0.347725,1.3669 c -0.17394,0.66495 -0.26089,1.1681 -0.26089,1.50935 0,0.38025 0.102585,0.69241 0.308115,0.93615 0.205335,0.2457 0.47928,0.36868 0.821895,0.36868 0.431925,0 0.816655,-0.11129 1.154005,-0.33554 0.337155,-0.22425 0.732055,-0.579 1.185235,-1.0626 l -0.45018,-0.44294 c -0.326625,0.3627 -0.579845,0.6086 -0.75905,0.73925 -0.179205,0.1287 -0.347635,0.19309 -0.50578,0.19309 -0.14742,0 -0.255285,-0.0469 -0.32373,-0.14244 -0.06864,-0.0956 -0.102835,-0.24757 -0.102835,-0.45817 0,-0.2379 0.07113,-0.64355 0.213285,-1.21684 l 0.51378,-2.07112 c 0.15288,-0.6123 0.22928,-1.082205 0.22928,-1.415655 0,-0.4992 -0.13189,-0.8911 -0.395335,-1.1719 C 78.77211,36.356685 78.39539,36.2163 77.90555,36.2163 c -0.4953,0 -0.976075,0.17539 -1.44232,0.52444 -0.46644,0.351 -0.957565,0.8894 -1.473925,1.61675 l -0.09483,-0.03125 c 0.12636,-0.3432 0.189665,-0.653115 0.189665,-0.931965 0,-0.35295 -0.09604,-0.639675 -0.28831,-0.858075 -0.19227,-0.2184 -0.454585,-0.32754 -0.786475,-0.32754 z m 37.229385,0 c -0.4058,0 -0.76942,0.10504 -1.09078,0.31954 -0.32136,0.21255 -0.72446,0.573545 -1.20923,1.078595 l 0.45055,0.44256 c 0.3161,-0.35295 0.56513,-0.5967 0.74687,-0.73125 0.18174,-0.13455 0.35437,-0.200715 0.51759,-0.200715 0.14761,0 0.25566,0.0465 0.32411,0.14206 0.0684,0.0936 0.10283,0.247955 0.10283,0.458555 0,0.273 -0.058,0.663 -0.17405,1.17 l -1.154,5.009445 h 1.36728 l 0.75106,-3.4224 c 0.11056,-0.489455 0.25281,-0.90087 0.42656,-1.23627 0.17394,-0.3354 0.40422,-0.68066 0.69126,-1.03556 0.28723,-0.3549 0.55863,-0.62202 0.81427,-0.79752 0.25545,-0.17745 0.49413,-0.265075 0.71526,-0.265075 0.27397,0 0.47152,0.07999 0.59261,0.241845 0.1211,0.1599 0.18167,0.42106 0.18167,0.78571 0,0.14625 -0.0194,0.339485 -0.059,0.577385 -0.0396,0.23595 -0.12253,0.602335 -0.24908,1.097635 l -0.34772,1.3669 c -0.17375,0.66495 -0.26089,1.1681 -0.26089,1.50935 0,0.38025 0.10278,0.69241 0.30811,0.93615 0.20553,0.2457 0.47948,0.36868 0.8219,0.36868 0.43212,0 0.81685,-0.11129 1.154,-0.33554 0.33716,-0.22425 0.73225,-0.579 1.18524,-1.0626 l -0.45018,-0.44294 c -0.32663,0.3627 -0.57966,0.6086 -0.75867,0.73925 -0.17921,0.1287 -0.34783,0.19309 -0.50578,0.19309 -0.14762,0 -0.25548,-0.0469 -0.32412,-0.14244 -0.0684,-0.0956 -0.10283,-0.24757 -0.10283,-0.45817 0,-0.2379 0.0713,-0.64355 0.21367,-1.21684 l 0.51339,-2.07112 c 0.15269,-0.6123 0.22928,-1.082205 0.22928,-1.415655 0,-0.4992 -0.13151,-0.8911 -0.39495,-1.1719 -0.26345,-0.28275 -0.64017,-0.423135 -1.13001,-0.423135 -0.4953,0 -0.97645,0.17539 -1.4427,0.52444 -0.46624,0.351 -0.95718,0.8894 -1.47354,1.61675 l -0.0948,-0.03125 c 0.12636,-0.3432 0.18929,-0.653115 0.18929,-0.931965 0,-0.35295 -0.096,-0.639675 -0.28831,-0.858075 -0.19227,-0.2184 -0.4542,-0.32754 -0.78609,-0.32754 z m 28.76593,0 c -0.4017,0 -0.76834,0.110905 -1.10374,0.335155 -0.33345,0.22425 -0.73332,0.57938 -1.19742,1.06298 l 0.45056,0.44256 c 0.3159,-0.35295 0.56551,-0.5967 0.74686,-0.73125 0.18136,-0.13455 0.35494,-0.200715 0.51874,-0.200715 0.14625,0 0.25548,0.0465 0.32373,0.14206 0.0682,0.0936 0.10321,0.247955 0.10321,0.458555 0,0.273 -0.0586,0.663 -0.17558,1.17 l -1.1521,5.009445 h 1.36691 l 0.75067,-3.4224 c 0.11115,-0.483605 0.24754,-0.895115 0.41133,-1.232465 0.16185,-0.33735 0.39009,-0.68838 0.67869,-1.05498 0.29055,-0.3666 0.5634,-0.63177 0.81885,-0.79752 0.25545,-0.16575 0.48165,-0.24946 0.6825,-0.24946 0.2847,0 0.49349,0.07999 0.62804,0.241845 0.13455,0.1599 0.20261,0.429075 0.20261,0.809325 0,0.1677 -0.0192,0.370425 -0.0602,0.604425 -0.039,0.234 -0.11318,0.59676 -0.22432,1.08621 l -0.90873,4.01502 h 1.3669 l 0.71944,-3.45363 c 0.1053,-0.489455 0.24573,-0.90459 0.42123,-1.24389 0.17745,-0.34125 0.40556,-0.686505 0.68441,-1.035555 0.27885,-0.351 0.54635,-0.60854 0.7979,-0.77429 0.2535,-0.16575 0.49109,-0.24946 0.71144,-0.24946 0.27495,0 0.4721,0.07999 0.593,0.241845 0.1209,0.1599 0.18129,0.42106 0.18129,0.78571 0,0.14625 -0.0197,0.339485 -0.0587,0.577385 -0.039,0.23595 -0.12272,0.602335 -0.24946,1.097635 l -0.34697,1.3669 c -0.17355,0.66495 -0.26127,1.1681 -0.26127,1.50935 0,0.38025 0.10337,0.69241 0.30811,0.93615 0.20671,0.2457 0.47946,0.36868 0.82267,0.36868 0.43094,0 0.81512,-0.11315 1.15247,-0.33935 0.33735,-0.22815 0.73322,-0.58104 1.18562,-1.05879 l -0.45056,-0.44294 c -0.32565,0.3627 -0.57889,0.6086 -0.75829,0.73925 -0.1794,0.1287 -0.34707,0.19309 -0.50502,0.19309 -0.1482,0 -0.25548,-0.0469 -0.32373,-0.14244 -0.0683,-0.0956 -0.10359,-0.24757 -0.10359,-0.45817 0,-0.2379 0.0702,-0.64355 0.21252,-1.21684 l 0.51492,-2.07112 c 0.15209,-0.6123 0.22813,-1.082205 0.22813,-1.415655 0,-0.50505 -0.13055,-0.89686 -0.3938,-1.17571 -0.26325,-0.2808 -0.63761,-0.419325 -1.12316,-0.419325 -0.4836,0 -0.95187,0.15603 -1.40232,0.46998 -0.45045,0.31395 -0.9027,0.791575 -1.3551,1.435075 0.006,-0.0429 0.008,-0.08178 0.008,-0.118825 v -0.111215 c 0,-0.5421 -0.13284,-0.957235 -0.39609,-1.243885 -0.26325,-0.2886 -0.64743,-0.43113 -1.15248,-0.43113 -0.4914,0 -0.97481,0.17539 -1.45451,0.52444 -0.4797,0.351 -0.96133,0.88725 -1.44688,1.60875 l -0.0937,-0.03125 c 0.1209,-0.3276 0.18129,-0.635365 0.18129,-0.923965 0,-0.35295 -0.0976,-0.639675 -0.28869,-0.858075 -0.19306,-0.2184 -0.45422,-0.32754 -0.78572,-0.32754 z m 33.00946,0 c -0.39975,0 -0.768,0.110905 -1.10145,0.335155 -0.3354,0.22425 -0.73332,0.57938 -1.19742,1.06298 l 0.45056,0.44256 c 0.3159,-0.35295 0.56551,-0.5967 0.74686,-0.73125 0.18135,-0.13455 0.3546,-0.200715 0.51645,-0.200715 0.1482,0 0.25548,0.0465 0.32373,0.14206 0.0702,0.0936 0.10359,0.247955 0.10359,0.458555 0,0.273 -0.0586,0.663 -0.17366,1.17 l -1.15439,5.009445 h 1.36691 l 0.75067,-3.4224 c 0.11115,-0.483605 0.24791,-0.895115 0.41171,-1.232465 0.1638,-0.33735 0.38966,-0.68838 0.68021,-1.05498 0.2886,-0.3666 0.56188,-0.63177 0.81733,-0.79752 0.25545,-0.16575 0.48355,-0.24946 0.6844,-0.24946 0.2847,0 0.49311,0.07999 0.62766,0.241845 0.13455,0.1599 0.20109,0.429075 0.20109,0.809325 0,0.1677 -0.0196,0.370425 -0.0587,0.604425 -0.039,0.234 -0.11508,0.59676 -0.22623,1.08621 l -0.90873,4.01502 h 1.3669 l 0.71983,-3.45363 c 0.1053,-0.489455 0.24568,-0.90459 0.42313,-1.24389 0.17745,-0.34125 0.40361,-0.686505 0.68441,-1.035555 0.27885,-0.351 0.54402,-0.60854 0.79752,-0.77429 0.2535,-0.16575 0.48952,-0.24946 0.71182,-0.24946 0.273,0 0.46977,0.07999 0.59262,0.241845 0.1209,0.1599 0.18129,0.42106 0.18129,0.78571 0,0.14625 -0.0192,0.339485 -0.0602,0.577385 -0.039,0.23595 -0.12119,0.602335 -0.24794,1.097635 l -0.34886,1.3669 c -0.17355,0.66495 -0.25937,1.1681 -0.25937,1.50935 0,0.38025 0.10142,0.69241 0.30812,0.93615 0.20475,0.2457 0.47988,0.36868 0.82113,0.36868 0.4329,0 0.81703,-0.11315 1.15438,-0.33935 0.33735,-0.22815 0.73127,-0.58104 1.18562,-1.05879 l -0.45056,-0.44294 c -0.3276,0.3627 -0.57927,0.6086 -0.75867,0.73925 -0.1794,0.1287 -0.34897,0.19309 -0.50692,0.19309 -0.14625,0 -0.25548,-0.0469 -0.32373,-0.14244 -0.0683,-0.0956 -0.10131,-0.24757 -0.10131,-0.45817 0,-0.2379 0.0702,-0.64355 0.21252,-1.21684 l 0.51263,-2.07112 c 0.15405,-0.6123 0.23042,-1.082205 0.23042,-1.415655 0,-0.50505 -0.13284,-0.89686 -0.39609,-1.17571 -0.26325,-0.2808 -0.63765,-0.419325 -1.12125,-0.419325 -0.48555,0 -0.9534,0.15603 -1.40385,0.46998 -0.45045,0.31395 -0.90113,0.791575 -1.35548,1.435075 0.006,-0.0429 0.008,-0.08178 0.008,-0.118825 v -0.111215 c 0,-0.5421 -0.13055,-0.957235 -0.3938,-1.243885 -0.26325,-0.2886 -0.64934,-0.43113 -1.15439,-0.43113 -0.48945,0 -0.97518,0.17539 -1.45488,0.52444 -0.47775,0.351 -0.96138,0.88725 -1.44498,1.60875 l -0.0956,-0.03125 c 0.1209,-0.3276 0.18129,-0.635365 0.18129,-0.923965 0,-0.35295 -0.0953,-0.639675 -0.28831,-0.858075 -0.1911,-0.2184 -0.45459,-0.32754 -0.78609,-0.32754 z m 122.32366,0 c -0.4056,0 -0.77023,0.10504 -1.09003,0.31954 -0.32175,0.21255 -0.72563,0.573545 -1.20923,1.078595 l 0.45057,0.44256 c 0.3159,-0.35295 0.56357,-0.5967 0.74687,-0.73125 0.18135,-0.13455 0.35302,-0.200715 0.51682,-0.200715 0.1482,0 0.25547,0.0465 0.32372,0.14206 0.0683,0.0936 0.10322,0.247955 0.10322,0.458555 0,0.273 -0.0582,0.663 -0.1733,1.17 l -1.15475,5.009445 h 1.36728 l 0.75067,-3.4224 c 0.11115,-0.489455 0.25339,-0.90087 0.42694,-1.23627 0.17355,-0.3354 0.4038,-0.68066 0.6924,-1.03556 0.28665,-0.3549 0.55768,-0.62202 0.81313,-0.79752 0.25545,-0.17745 0.49335,-0.265075 0.71565,-0.265075 0.273,0 0.47171,0.07999 0.59261,0.241845 0.1209,0.1599 0.18129,0.42106 0.18129,0.78571 0,0.14625 -0.0193,0.339485 -0.0583,0.577385 -0.0409,0.23595 -0.1231,0.602335 -0.24985,1.097635 l -0.34696,1.3669 c -0.1755,0.66495 -0.26127,1.1681 -0.26127,1.50935 0,0.38025 0.10337,0.69241 0.30812,0.93615 0.20475,0.2457 0.47951,0.36868 0.82076,0.36868 0.4329,0 0.8174,-0.11129 1.15475,-0.33554 0.33735,-0.22425 0.73285,-0.579 1.18525,-1.0626 l -0.45018,-0.44294 c -0.32565,0.3627 -0.57928,0.6086 -0.75868,0.73925 -0.1794,0.1287 -0.34707,0.19309 -0.50502,0.19309 -0.1482,0 -0.25543,-0.0469 -0.32563,-0.14244 -0.0683,-0.0956 -0.10132,-0.24757 -0.10132,-0.45817 0,-0.2379 0.0702,-0.64355 0.21253,-1.21684 l 0.51455,-2.07112 c 0.1521,-0.6123 0.2285,-1.082205 0.2285,-1.415655 0,-0.4992 -0.13088,-0.8911 -0.39608,-1.1719 -0.26325,-0.28275 -0.63943,-0.423135 -1.12888,-0.423135 -0.4953,0 -0.97703,0.17539 -1.44308,0.52444 -0.46605,0.351 -0.95754,0.8894 -1.47429,1.61675 l -0.0937,-0.03125 c 0.12675,-0.3432 0.18929,-0.653115 0.18929,-0.931965 0,-0.35295 -0.0956,-0.639675 -0.28868,-0.858075 -0.1911,-0.2184 -0.45422,-0.32754 -0.78572,-0.32754 z m 28.7644,0 c -0.39975,0 -0.76643,0.110905 -1.10183,0.335155 -0.3354,0.22425 -0.73293,0.57938 -1.19703,1.06298 l 0.45018,0.44256 c 0.3159,-0.35295 0.5655,-0.5967 0.74685,-0.73125 0.18135,-0.13455 0.35498,-0.200715 0.51683,-0.200715 0.1482,0 0.25738,0.0465 0.32563,0.14206 0.0682,0.0936 0.10132,0.247955 0.10132,0.458555 0,0.273 -0.0563,0.663 -0.1733,1.17 l -1.15438,5.009445 h 1.3688 l 0.75068,-3.4224 c 0.1092,-0.483605 0.24757,-0.895115 0.40942,-1.232465 0.1638,-0.33735 0.39006,-0.68838 0.68061,-1.05498 0.2886,-0.3666 0.56148,-0.63177 0.81693,-0.79752 0.25545,-0.16575 0.48393,-0.24946 0.68478,-0.24946 0.2847,0 0.49312,0.07999 0.62767,0.241845 0.13455,0.1599 0.20108,0.429075 0.20108,0.809325 0,0.1677 -0.0197,0.370425 -0.0586,0.604425 -0.039,0.234 -0.11512,0.59676 -0.22432,1.08621 l -0.91065,4.01502 h 1.36882 l 0.71754,-3.45363 c 0.1053,-0.489455 0.248,-0.90459 0.4235,-1.24389 0.17745,-0.34125 0.40556,-0.686505 0.68441,-1.035555 0.27885,-0.351 0.54401,-0.60854 0.79751,-0.77429 0.2535,-0.16575 0.48953,-0.24946 0.71183,-0.24946 0.273,0 0.47172,0.07999 0.59262,0.241845 0.1209,0.1599 0.1813,0.42106 0.1813,0.78571 0,0.14625 -0.0193,0.339485 -0.0583,0.577385 -0.0409,0.23595 -0.1231,0.602335 -0.24985,1.097635 l -0.34697,1.3669 c -0.1755,0.66495 -0.26126,1.1681 -0.26126,1.50935 0,0.38025 0.10335,0.69241 0.3081,0.93615 0.20475,0.2457 0.47951,0.36868 0.82076,0.36868 0.4329,0 0.81705,-0.11315 1.1544,-0.33935 0.33735,-0.22815 0.7332,-0.58104 1.1856,-1.05879 l -0.45018,-0.44294 c -0.32565,0.3627 -0.57927,0.6086 -0.75867,0.73925 -0.1794,0.1287 -0.34706,0.19309 -0.50501,0.19309 -0.1482,0 -0.25545,-0.0469 -0.32565,-0.14244 -0.0682,-0.0956 -0.10167,-0.24757 -0.10167,-0.45817 0,-0.2379 0.0706,-0.64355 0.2129,-1.21684 l 0.51453,-2.07112 c 0.1521,-0.6123 0.22815,-1.082205 0.22815,-1.415655 0,-0.50505 -0.13057,-0.89686 -0.39383,-1.17571 -0.2652,-0.2808 -0.63759,-0.419325 -1.12314,-0.419325 -0.48555,0 -0.9515,0.15603 -1.40195,0.46998 -0.45045,0.31395 -0.90308,0.791575 -1.35548,1.435075 0.004,-0.0429 0.008,-0.08178 0.008,-0.118825 v -0.111215 c 0,-0.5421 -0.13284,-0.957235 -0.39609,-1.243885 -0.26325,-0.2886 -0.64738,-0.43113 -1.15438,-0.43113 -0.48945,0 -0.97484,0.17539 -1.45259,0.52444 -0.4797,0.351 -0.96135,0.88725 -1.4469,1.60875 l -0.0956,-0.03125 c 0.12285,-0.3276 0.1832,-0.635365 0.1832,-0.923965 0,-0.35295 -0.0972,-0.639675 -0.28833,-0.858075 -0.19305,-0.2184 -0.45454,-0.32754 -0.78799,-0.32754 z m 33.01174,0 c -0.39975,0 -0.76838,0.110905 -1.10183,0.335155 -0.3354,0.22425 -0.73527,0.57938 -1.19742,1.06298 l 0.45057,0.44256 c 0.3159,-0.35295 0.56355,-0.5967 0.74685,-0.73125 0.18135,-0.13455 0.35303,-0.200715 0.51683,-0.200715 0.1482,0 0.2551,0.0465 0.32335,0.14206 0.0682,0.0936 0.1036,0.247955 0.1036,0.458555 0,0.273 -0.0586,0.663 -0.17366,1.17 l -1.1544,5.009445 h 1.36691 l 0.75067,-3.4224 c 0.11115,-0.483605 0.2479,-0.895115 0.4117,-1.232465 0.1638,-0.33735 0.38973,-0.68838 0.67833,-1.05498 0.29055,-0.3666 0.56376,-0.63177 0.81921,-0.79752 0.25545,-0.16575 0.4836,-0.24946 0.6825,-0.24946 0.2847,0 0.4954,0.07999 0.62995,0.241845 0.13455,0.1599 0.20071,0.429075 0.20071,0.809325 0,0.1677 -0.0197,0.370425 -0.0587,0.604425 -0.041,0.234 -0.11507,0.59676 -0.22622,1.08621 l -0.90835,4.01502 h 1.36689 l 0.71945,-3.45363 c 0.1053,-0.489455 0.24568,-0.90459 0.42313,-1.24389 0.1755,-0.34125 0.40365,-0.686505 0.6825,-1.035555 0.2808,-0.351 0.54593,-0.60854 0.79943,-0.77429 0.25155,-0.16575 0.48956,-0.24946 0.70991,-0.24946 0.27495,0 0.47173,0.07999 0.59263,0.241845 0.12285,0.1599 0.18357,0.42106 0.18357,0.78571 0,0.14625 -0.0215,0.339485 -0.0605,0.577385 -0.039,0.23595 -0.12277,0.602335 -0.24757,1.097635 l -0.34924,1.3669 c -0.17355,0.66495 -0.26126,1.1681 -0.26126,1.50935 0,0.38025 0.10331,0.69241 0.31001,0.93615 0.20475,0.2457 0.47793,0.36868 0.82112,0.36868 0.4329,0 0.81705,-0.11315 1.1544,-0.33935 0.33736,-0.22815 0.73125,-0.58104 1.18561,-1.05879 l -0.45056,-0.44294 c -0.3276,0.3627 -0.58121,0.6086 -0.75866,0.73925 -0.1794,0.1287 -0.34897,0.19309 -0.50692,0.19309 -0.14625,0 -0.25549,-0.0469 -0.32374,-0.14244 -0.0682,-0.0956 -0.10321,-0.24757 -0.10321,-0.45817 0,-0.2379 0.0721,-0.64355 0.21442,-1.21684 l 0.51303,-2.07112 c 0.15405,-0.6123 0.23004,-1.082205 0.23004,-1.415655 0,-0.50505 -0.13286,-0.89686 -0.39611,-1.17571 -0.26325,-0.2808 -0.63765,-0.419325 -1.12125,-0.419325 -0.48555,0 -0.95339,0.15603 -1.40384,0.46998 -0.45045,0.31395 -0.90074,0.791575 -1.35509,1.435075 0.006,-0.0429 0.008,-0.08178 0.008,-0.118825 v -0.111215 c 0,-0.5421 -0.13056,-0.957235 -0.39381,-1.243885 -0.26325,-0.2886 -0.64933,-0.43113 -1.15438,-0.43113 -0.48945,0 -0.97517,0.17539 -1.45487,0.52444 -0.4797,0.351 -0.96139,0.88725 -1.44499,1.60875 l -0.0956,-0.03125 c 0.1209,-0.3276 0.18166,-0.635365 0.18166,-0.923965 0,-0.35295 -0.0956,-0.639675 -0.2887,-0.858075 -0.1911,-0.2184 -0.45421,-0.32754 -0.78571,-0.32754 z m -314.749418,0.0076 c -0.616395,0 -1.195939,0.12664 -1.738624,0.37819 -0.542685,0.2535 -1.016714,0.63587 -1.422509,1.14677 -0.4056,0.5109 -0.713932,1.10353 -0.924727,1.77823 -0.2106,0.6747 -0.316113,1.29314 -0.316113,1.85669 0,0.86385 0.197929,1.52274 0.592997,1.97514 0.395072,0.45435 0.974614,0.6806 1.738624,0.6806 0.57954,0 1.120885,-0.1266 1.623985,-0.3801 0.503295,-0.25156 1.002238,-0.65328 1.497538,-1.20124 l -0.482167,-0.48178 c -0.389805,0.39 -0.75979,0.67672 -1.110205,0.85808 -0.350415,0.18134 -0.765143,0.27307 -1.24465,0.27307 -0.421588,0 -0.737739,-0.13061 -0.948339,-0.3919 -0.210795,-0.26131 -0.316113,-0.65923 -0.316113,-1.19743 0,-0.71565 0.13424,-1.46254 0.40295,-2.24059 0.26871,-0.7761 0.615239,-1.376745 1.039364,-1.801845 0.424125,-0.42315 0.902356,-0.635655 1.434316,-0.635655 0.22659,0 0.401763,0.04475 0.525588,0.134445 0.12363,0.0897 0.21332,0.22431 0.268505,0.40371 0.05538,0.17745 0.08849,0.468225 0.09902,0.867975 h 0.829512 l 0.387335,-1.78623 c -0.59007,-0.15795 -1.23546,-0.23613 -1.93629,-0.23613 z m -20.588496,0.893115 v 1.05117 h 9.73667 v -1.05117 z m 71.616414,0 v 1.05117 h 9.73629 v -1.05117 z m 184.09904,0 v 1.05117 h 9.73629 v -1.05117 z m -154.44,1.63617 v 1.05079 h 9.73629 v -1.05079 z m 102.84271,0 v 1.05079 h 9.73666 v -1.05079 z m 81.25671,0 v 1.05079 h 9.73629 v -1.05079 z m -66.83434,0.07997 v 0.975 h 13.845 v -0.975 z m 156,0 v 0.975 h 41.925 v -0.975 z M 21.776016,40.38934 v 1.05117 h 9.73667 v -1.05117 z m 71.616414,0 v 1.05117 h 9.73629 v -1.05117 z m 184.09904,0 v 1.05117 h 9.73629 V 40.38934 Z M 9.780088,41.25126 c -0.15873,0 -0.309517,0.0215 -0.452842,0.0644 -0.143325,0.0429 -0.287381,0.10906 -0.432656,0.20071 -0.145275,0.0916 -0.298256,0.2069 -0.4589355,0.34925 -0.1606805,0.1404 -0.337859,0.30997 -0.531299,0.50692 l 0.400664,0.37819 c 0.11622,-0.1209 0.2206275,-0.22412 0.3134475,-0.31382 0.093014,-0.0897 0.179238,-0.16202 0.258603,-0.22052 0.079365,-0.0585 0.1550465,-0.10139 0.2266115,-0.13064 0.07176,-0.0293 0.142143,-0.0446 0.211758,-0.0446 0.22854,0 0.3427735,0.14229 0.3427735,0.42504 0,0.1014 -0.011835,0.23015 -0.03504,0.3881 -0.023205,0.1599 -0.059758,0.33921 -0.1100685,0.54006 L 8.641698,47.18123 h 1.138389 l 0.650507,-2.91548 c 0.0388,-0.17745 0.09955,-0.35685 0.182813,-0.53625 0.08326,-0.18135 0.17951,-0.35264 0.28793,-0.51644 0.10842,-0.16575 0.227376,-0.31992 0.357246,-0.46617 0.129675,-0.1443 0.262092,-0.27099 0.397617,-0.37629 0.135525,-0.10725 0.270136,-0.19135 0.403711,-0.24985 0.133575,-0.0605 0.258165,-0.0895 0.374385,-0.0895 0.201435,0 0.347685,0.0545 0.43875,0.16758 0.09087,0.11115 0.136348,0.28878 0.136348,0.52863 0,0.1014 -0.01256,0.228 -0.03771,0.3801 -0.02515,0.1521 -0.0599,0.32754 -0.104356,0.52254 -0.04446,0.195 -0.09685,0.40974 -0.156914,0.63984 -0.06006,0.2301 -0.125004,0.46975 -0.194619,0.72325 -0.06591,0.24765 -0.115394,0.47385 -0.148154,0.6825 -0.03296,0.2067 -0.04951,0.3883 -0.04951,0.54235 0,0.15405 0.02347,0.29629 0.07008,0.42694 0.04641,0.1287 0.112265,0.24189 0.197285,0.33744 0.08521,0.0936 0.187093,0.16939 0.305069,0.22204 0.118169,0.0546 0.246766,0.0819 0.386191,0.0819 0.16653,0 0.323332,-0.0214 0.470361,-0.0663 0.147226,-0.0448 0.295484,-0.11292 0.444464,-0.20262 0.149175,-0.0917 0.30287,-0.20694 0.4616,-0.34734 0.15873,-0.13845 0.333185,-0.30588 0.52292,-0.49893 l -0.401045,-0.38238 c -0.116025,0.12675 -0.220432,0.23589 -0.313447,0.32754 -0.09282,0.0917 -0.178142,0.16583 -0.255557,0.22433 -0.07761,0.0566 -0.151999,0.0995 -0.223564,0.12682 -0.07176,0.0273 -0.144337,0.0408 -0.217852,0.0408 -0.12012,0 -0.207059,-0.0331 -0.261269,-0.0994 -0.05421,-0.0644 -0.0815,-0.17134 -0.0815,-0.31954 0,-0.037 0.01727,-0.13646 0.05218,-0.29441 0.03471,-0.1599 0.07947,-0.35122 0.13368,-0.57547 0.05421,-0.22425 0.112043,-0.46986 0.174053,-0.73506 0.06201,-0.2652 0.120223,-0.52464 0.174433,-0.77619 0.05421,-0.25155 0.09878,-0.48367 0.133683,-0.69622 0.03491,-0.21255 0.05218,-0.37997 0.05218,-0.49892 0,-0.39975 -0.101683,-0.71009 -0.305068,-0.93044 -0.20319,-0.22035 -0.510064,-0.33135 -0.920539,-0.33135 -0.390974,0 -0.769326,0.12884 -1.135341,0.38429 -0.36582,0.25545 -0.73692,0.64149 -1.11249,1.15629 l -0.08112,-0.0294 c 0.03491,-0.078 0.05909,-0.1599 0.07274,-0.24375 0.01346,-0.0858 0.02019,-0.1677 0.02019,-0.24375 0,-0.30615 -0.07821,-0.55396 -0.23499,-0.74116 -0.156975,-0.1872 -0.378711,-0.28259 -0.6653615,-0.28259 z m 56.765947,0.81314 c 0.03685,0.39 0.0556,0.78391 0.0556,1.18561 0,0.39 -0.02655,0.71379 -0.07922,0.97119 -0.05265,0.25935 -0.139795,0.48922 -0.26089,0.69202 -0.12129,0.2028 -0.31591,0.43095 -0.58462,0.6825 l 0.42656,0.48369 c 0.48477,-0.36465 0.865495,-0.69788 1.1422,-1.00013 0.27651,-0.30225 0.47787,-0.60677 0.604425,-0.91292 0.12636,-0.30615 0.189665,-0.6434 0.189665,-1.01195 0,-0.3588 -0.03675,-0.72146 -0.11045,-1.09001 z m 176.301715,4.90432 c -0.39975,0 -0.76838,0.11286 -1.10183,0.33516 -0.3354,0.22425 -0.73526,0.57938 -1.19741,1.06298 l 0.45054,0.44255 c 0.3159,-0.35295 0.56357,-0.59674 0.74687,-0.72934 0.18135,-0.13455 0.35303,-0.20262 0.51683,-0.20262 0.1482,0 0.25547,0.0465 0.32372,0.14206 0.0683,0.0956 0.10322,0.24796 0.10322,0.45856 0,0.27495 -0.0586,0.66494 -0.17367,1.17 l -1.15438,5.00944 h 1.36689 l 0.75107,-3.4205 c 0.11115,-0.48555 0.24753,-0.89663 0.41132,-1.23398 0.16381,-0.33735 0.39004,-0.68838 0.68059,-1.05498 0.2886,-0.36465 0.56151,-0.63177 0.81696,-0.79752 0.25545,-0.16575 0.48354,-0.24984 0.68439,-0.24984 0.28275,0 0.49348,0.0819 0.62804,0.24184 0.13455,0.1599 0.20071,0.43103 0.20071,0.80933 0,0.16965 -0.0193,0.37042 -0.0583,0.60442 -0.0409,0.23595 -0.11509,0.59672 -0.22624,1.08812 l -0.90872,4.01311 h 1.36691 l 0.71943,-3.45363 c 0.1053,-0.48945 0.24568,-0.90459 0.42313,-1.24389 0.1755,-0.3393 0.40365,-0.68455 0.6825,-1.03555 0.2808,-0.351 0.54592,-0.60816 0.79942,-0.77391 0.25155,-0.16575 0.48959,-0.24984 0.70994,-0.24984 0.27495,0 0.4721,0.0819 0.593,0.24184 0.12285,0.1599 0.18318,0.42301 0.18318,0.78571 0,0.1482 -0.0196,0.33949 -0.0606,0.57739 -0.039,0.2379 -0.12275,0.60233 -0.24755,1.09763 l -0.34927,1.36729 c -0.17355,0.66495 -0.25935,1.16805 -0.25935,1.51125 0,0.3783 0.1014,0.69007 0.3081,0.93577 0.20475,0.24375 0.47794,0.36677 0.82114,0.36677 0.4329,0 0.81703,-0.11315 1.15438,-0.33935 0.33735,-0.2262 0.73127,-0.57909 1.18562,-1.05879 l -0.45056,-0.44294 c -0.3276,0.3627 -0.58083,0.61055 -0.75828,0.73925 -0.1794,0.1287 -0.34936,0.1931 -0.50731,0.1931 -0.14625,0 -0.25549,-0.0469 -0.32374,-0.14245 -0.0683,-0.0936 -0.10321,-0.24757 -0.10321,-0.45817 0,-0.23595 0.0721,-0.64159 0.21444,-1.21684 l 0.513,-2.07074 c 0.15406,-0.61035 0.23004,-1.08225 0.23004,-1.41375 0,-0.507 -0.13246,-0.89915 -0.39571,-1.178 -0.26325,-0.27885 -0.63765,-0.41932 -1.12125,-0.41932 -0.48555,0 -0.95378,0.15798 -1.40423,0.46998 -0.45045,0.31395 -0.90075,0.79196 -1.3551,1.43546 0.006,-0.0429 0.008,-0.0822 0.008,-0.11921 v -0.11121 c 0,-0.54211 -0.13057,-0.95724 -0.39382,-1.24389 -0.26325,-0.28665 -0.64933,-0.43113 -1.15438,-0.43113 -0.48945,0 -0.9748,0.17573 -1.4545,0.52673 -0.4797,0.34905 -0.96137,0.88534 -1.44497,1.60684 l -0.0956,-0.0312 c 0.1209,-0.32565 0.18129,-0.63379 0.18129,-0.92434 0,-0.35295 -0.0956,-0.63968 -0.28868,-0.85808 -0.1911,-0.2184 -0.45421,-0.32754 -0.78571,-0.32754 z m 170.02247,0 c -0.39974,0 -0.76837,0.11286 -1.10183,0.33516 -0.3354,0.22425 -0.73526,0.57938 -1.19741,1.06298 l 0.45056,0.44255 c 0.3159,-0.35295 0.56356,-0.59674 0.74685,-0.72934 0.18135,-0.13455 0.35303,-0.20262 0.51684,-0.20262 0.14819,0 0.25549,0.0465 0.32373,0.14206 0.0682,0.0956 0.10321,0.24796 0.10321,0.45856 0,0.27495 -0.0586,0.66494 -0.17366,1.17 l -1.1544,5.00944 h 1.36691 l 0.75106,-3.4205 c 0.11115,-0.48555 0.24751,-0.89663 0.41131,-1.23398 0.1638,-0.33735 0.39006,-0.68838 0.68061,-1.05498 0.2886,-0.36465 0.56148,-0.63177 0.81693,-0.79752 0.25545,-0.16575 0.48357,-0.24984 0.68442,-0.24984 0.28275,0 0.49349,0.0819 0.62803,0.24184 0.13455,0.1599 0.20072,0.43103 0.20072,0.80933 0,0.16965 -0.0193,0.37042 -0.0583,0.60442 -0.041,0.23595 -0.11509,0.59672 -0.22623,1.08812 l -0.90874,4.01311 h 1.36691 l 0.71945,-3.45363 c 0.1053,-0.48945 0.24568,-0.90459 0.42313,-1.24389 0.1755,-0.3393 0.40365,-0.68455 0.6825,-1.03555 0.2808,-0.351 0.54592,-0.60816 0.79942,-0.77391 0.25155,-0.16575 0.48953,-0.24984 0.71183,-0.24984 0.273,0 0.47018,0.0819 0.59108,0.24184 0.12285,0.1599 0.18321,0.42301 0.18321,0.78571 0,0.1482 -0.0196,0.33949 -0.0606,0.57739 -0.039,0.2379 -0.12275,0.60233 -0.24755,1.09763 l -0.34925,1.36729 c -0.17355,0.66495 -0.25937,1.16805 -0.25937,1.51125 0,0.3783 0.10142,0.69007 0.30812,0.93577 0.20475,0.24375 0.47988,0.36677 0.82113,0.36677 0.4329,0 0.81705,-0.11315 1.1544,-0.33935 0.33735,-0.2262 0.73125,-0.57909 1.1856,-1.05879 l -0.45055,-0.44294 c -0.3276,0.3627 -0.57927,0.61055 -0.75867,0.73925 -0.1794,0.1287 -0.34897,0.1931 -0.50692,0.1931 -0.14625,0 -0.25549,-0.0469 -0.32374,-0.14245 -0.0683,-0.0936 -0.10321,-0.24757 -0.10321,-0.45817 0,-0.23595 0.0721,-0.64159 0.21442,-1.21684 l 0.51303,-2.07074 c 0.15405,-0.61035 0.23004,-1.08225 0.23004,-1.41375 0,-0.507 -0.13247,-0.89915 -0.39572,-1.178 -0.26325,-0.27885 -0.63765,-0.41932 -1.12125,-0.41932 -0.48555,0 -0.95378,0.15798 -1.40423,0.46998 -0.45045,0.31395 -0.90074,0.79196 -1.35509,1.43546 0.006,-0.0429 0.008,-0.0822 0.008,-0.11921 v -0.11121 c 0,-0.54211 -0.13056,-0.95724 -0.39381,-1.24389 -0.26325,-0.28665 -0.64933,-0.43113 -1.15438,-0.43113 -0.48945,0 -0.97519,0.17573 -1.45489,0.52673 -0.4797,0.34905 -0.961,0.88534 -1.4446,1.60684 l -0.0956,-0.0312 c 0.1209,-0.32565 0.18129,-0.63379 0.18129,-0.92434 0,-0.35295 -0.0957,-0.63968 -0.2887,-0.85808 -0.1911,-0.2184 -0.45421,-0.32754 -0.78571,-0.32754 z"
   id="path2"
   inkscape:connector-curvature="0"
   style="stroke-width:0.19499999" />








































</svg>