<?xml version="1.0" encoding="UTF-8" standalone="no"?>
<svg
   xmlns:dc="http://purl.org/dc/elements/1.1/"
   xmlns:cc="http://creativecommons.org/ns#"
   xmlns:rdf="http://www.w3.org/1999/02/22-rdf-syntax-ns#"
   xmlns:svg="http://www.w3.org/2000/svg"
   xmlns="http://www.w3.org/2000/svg"
   xmlns:sodipodi="http://sodipodi.sourceforge.net/DTD/sodipodi-0.dtd"
   xmlns:inkscape="http://www.inkscape.org/namespaces/inkscape"
   width="26.458376mm"
   height="26.45833mm"
   viewBox="0 0 26.458375 26.45833"
   version="1.1"
   id="svg8"
   sodipodi:docname="bloombox.svg"
   inkscape:version="1.0.2 (e86c8708, 2021-01-15)">
  <defs
     id="defs2" />
  <sodipodi:namedview
     id="base"
     pagecolor="#ffffff"
     bordercolor="#666666"
     borderopacity="1.0"
     inkscape:pageopacity="0.0"
     inkscape:pageshadow="2"
     inkscape:zoom="2.8000001"
     inkscape:cx="-85.133708"
     inkscape:cy="64.178058"
     inkscape:document-units="mm"
     inkscape:current-layer="layer1"
     inkscape:document-rotation="0"
     showgrid="false"
     inkscape:window-width="2223"
     inkscape:window-height="1189"
     inkscape:window-x="89"
     inkscape:window-y="25"
     inkscape:window-maximized="0"
     showguides="true"
     inkscape:guide-bbox="true"
     fit-margin-top="0"
     fit-margin-left="0"
     fit-margin-right="0"
     fit-margin-bottom="0">
    <sodipodi:guide
       position="-1454.4516,-438.77881"
       orientation="1,0"
       id="guide1150" />
  </sodipodi:namedview>
  <metadata
     id="metadata5">
    <rdf:RDF>
      <cc:Work
         rdf:about="">
        <dc:format>image/svg+xml</dc:format>
        <dc:type
           rdf:resource="http://purl.org/dc/dcmitype/StillImage" />
        <dc:title></dc:title>
      </cc:Work>
    </rdf:RDF>
  </metadata>
  <g
     inkscape:label="Ebene 1"
     inkscape:groupmode="layer"
     id="layer1"
     transform="translate(-261.36039,50.434833)">
    <path
       id="rect842"
       style="fill:#ffffff;fill-rule:evenodd;stroke-width:0.999999"
       d="M 50.826172 1.4980469 C 47.578605 1.3444327 44.114081 4.595798 42.738281 9.5332031 C 33.432604 4.8217836 29.97938 12.064413 33.378906 19.115234 L 32.273438 18.787109 C 20.718184 21.358652 23.832486 30.223289 32.314453 32.851562 C 27.559887 41.607352 34.863853 45.272535 42.132812 42.007812 L 41.832031 42.923828 C 44.112735 54.824341 53.4528 51.571059 56.097656 42.708984 C 64.629407 47.807341 68.572623 40.461919 65.455078 32.96875 L 67.904297 33.484375 C 79.470519 29.922192 75.237401 21.01267 66.162109 19.335938 C 71.28671 11.464347 64.305745 7.2284014 56.734375 9.7949219 L 56.955078 9.0605469 C 55.816547 3.8604144 53.39178 1.6194035 50.826172 1.4980469 z "
       transform="matrix(0.26458333,0,0,0.26458333,261.36039,-50.434833)" />
    <circle
       style="fill:#ffff00;fill-rule:evenodd;stroke-width:0.162599"
       id="path840"
       cx="274.58954"
       cy="-43.53677"
       r="1.984375" />
    <path
       id="rect989"
       style="fill:#ffccaa;fill-rule:evenodd;stroke-width:0.299233"
       d="m 261.83127,-35.292571 10.38548,0.688892 2.56601,0.103597 1.11276,0.101356 -0.0525,10.128798 v 0 l -14.05832,-0.980367 z"
       sodipodi:nodetypes="cccccccc" />
    <path
       id="rect989-4"
       style="fill:#ff9955;fill-rule:evenodd;stroke-width:0.299233"
       d="m 275.89552,-34.398726 11.30997,-1.290667 0.0561,9.907876 -11.41861,1.511589 z"
       sodipodi:nodetypes="ccccc" />
    <path
       id="rect1012"
       style="fill:#cccccc;fill-rule:evenodd;stroke-width:0.264583"
       d="m 273.08004,-36.278307 c 1.65373,0.643117 3.66738,0.497265 3.95588,0.09224 l 10.2865,0.321273 -11.34137,1.353649 -13.76672,-0.769905 z"
       sodipodi:nodetypes="cccccc" />
    <path
       id="path895"
       style="fill:#000000;stroke-width:0.0294373"
       d="m 274.68155,-50.434629 c -0.0305,2.65e-4 -0.0613,9.29e-4 -0.0924,0.0021 -0.89556,0.03522 -1.62445,0.61624 -1.94023,1.546658 -0.0423,0.124778 -0.11615,0.445741 -0.11971,0.520384 -0.002,0.03472 -0.0142,0.07694 -0.0279,0.09373 -0.023,0.02829 -0.0351,0.02292 -0.16475,-0.07226 -0.46766,-0.343275 -1.04591,-0.499251 -1.52219,-0.410728 -0.47545,0.08837 -0.90375,0.380607 -1.16642,0.795889 -0.34807,0.550319 -0.31033,1.26221 0.10234,1.92929 0.0423,0.06845 0.0766,0.136577 0.0758,0.151425 -9.3e-4,0.01921 -0.0287,0.02931 -0.0968,0.03507 -0.15454,0.01308 -0.39694,0.04473 -0.47765,0.06235 -0.98615,0.215222 -1.62939,0.815877 -1.79797,1.678874 -0.0445,0.227913 -0.0512,0.383457 -0.026,0.603446 0.08,0.700384 0.46242,1.250874 1.10776,1.594513 0.2894,0.1541 0.65437,0.27421 0.96878,0.318916 0.0649,0.0092 0.12537,0.02632 0.13441,0.03794 0.0111,0.01432 -0.0109,0.05633 -0.0683,0.130301 -0.0466,0.06002 -0.1238,0.176419 -0.17152,0.258756 -0.42436,0.732073 -0.37783,1.459243 0.13023,2.034023 0.15813,0.178901 0.31245,0.301447 0.5091,0.404302 0.56908,0.297644 1.24538,0.238645 1.91924,-0.16749 0.0562,-0.03389 0.11222,-0.06124 0.12436,-0.06078 0.0121,5.04e-4 0.0249,0.02702 0.0284,0.05893 0.004,0.03191 0.0159,0.142447 0.0276,0.245562 0.0902,0.799533 0.49592,1.45475 1.11166,1.795228 0.31928,0.176542 0.62553,0.255127 1.0234,0.262654 0.45213,-0.01436 0.81681,-0.128438 1.13292,-0.335666 -0.006,0.01403 -0.0123,0.02791 -0.0191,0.04156 l 0.0293,-0.04826 c 0.0182,-0.01208 0.0363,-0.02449 0.0541,-0.03719 0.18273,0.927939 -1.04503,1.94134 -1.27252,2.092405 -0.39711,-5.5e-5 -0.65078,-0.0026 -1.10899,-0.0295 -2.42432,-0.138548 -4.29588,-0.192351 -6.45011,-0.284597 -1.18811,-0.124782 -2.55683,0.02657 -3.62669,-0.136728 3.26912,-0.134944 6.83352,-0.630776 10.06834,-0.954785 -0.28549,-0.109567 -0.52699,-0.295472 -0.75866,-0.453828 -1.47295,0.162072 -3.50242,0.419615 -4.97522,0.57485 -1.9252,0.296213 -5.08114,0.322407 -5.78814,0.901238 -0.41008,0.293746 -0.0561,3.426079 -0.0479,5.218469 0.0876,1.677559 -0.26369,4.939067 0.0496,4.953286 2.9194,0.705335 9.22176,0.764285 13.86325,1.08493 l 0.19005,0.01456 0.1908,0.0083 c 7.64202,-0.979469 9.91214,-1.014886 11.84434,-1.523757 0.0988,-2.139344 0.1091,-4.280036 0.11923,-6.420301 -0.0311,-1.396004 0.21279,-3.953606 -0.15143,-4.136819 -3.48821,-0.346636 -6.60921,-0.468091 -9.60837,-0.619101 l -0.80445,-0.03943 c 0,0 -0.11962,0.433384 -0.16722,0.529848 0.50361,0.02765 1.84763,0.07944 2.37668,0.108649 2.31626,0.182768 4.89372,0.252039 6.71399,0.222865 -3.29027,0.365704 -6.20728,0.624582 -9.50397,0.959142 -0.41077,0.04009 -0.76185,0.05428 -0.76185,0.05428 l -0.298,-0.0057 c 0.0298,-0.03167 1.5048,-1.499932 0.65848,-2.980722 0.0407,-0.08213 0.0756,-0.164656 0.10344,-0.245836 0.0441,-0.12851 0.11411,-0.412776 0.15648,-0.635371 0.006,-0.03152 0.0207,-0.05674 0.0327,-0.05613 0.012,6.23e-4 0.0813,0.04376 0.15389,0.09585 0.71894,0.515544 1.54316,0.567406 2.16767,0.136454 0.48229,-0.332816 0.75255,-0.827401 0.74735,-1.367751 -0.004,-0.373399 -0.11973,-0.744699 -0.34339,-1.097851 -0.0586,-0.09258 -0.0801,-0.141931 -0.0676,-0.155459 0.0101,-0.0109 0.0718,-0.02302 0.13727,-0.02687 0.30683,-0.01804 0.68177,-0.106067 0.96783,-0.227241 0.68942,-0.29204 1.13219,-0.820338 1.26479,-1.509127 0.0461,-0.239165 0.0521,-0.376834 0.0263,-0.604949 -0.0624,-0.552687 -0.30886,-1.006356 -0.73149,-1.346285 -0.37066,-0.298133 -0.79903,-0.474475 -1.39489,-0.574323 -0.1111,-0.01861 -0.10952,-0.03981 0.015,-0.203792 0.35003,-0.461055 0.50185,-1.052098 0.39302,-1.529773 -0.096,-0.421134 -0.42199,-0.854458 -0.81749,-1.086366 -0.26829,-0.157311 -0.4987,-0.218606 -0.82563,-0.219789 -0.37719,-0.0014 -0.73156,0.09817 -1.09477,0.3075 -0.0964,0.05554 -0.18512,0.104247 -0.19716,0.108219 -0.0133,0.0044 -0.0242,-0.01604 -0.0279,-0.0523 -0.003,-0.03272 -0.0127,-0.123691 -0.0206,-0.202219 -0.0782,-0.767632 -0.43616,-1.414004 -0.98013,-1.769935 -0.36222,-0.237007 -0.74687,-0.347167 -1.20422,-0.343869 z m -0.002,0.772373 c 0.0277,-3.5e-5 0.0562,5.33e-4 0.0855,0.0018 0.37226,0.01536 0.64856,0.135234 0.88107,0.382221 0.26877,0.285501 0.39921,0.611356 0.44388,1.108584 0.0187,0.207702 0.0173,0.26496 -0.0107,0.458584 -0.0415,0.286402 -0.10269,0.478852 -0.26156,0.822072 -0.38225,0.825825 -0.52012,1.119669 -0.54554,1.163207 -0.0336,0.05752 -0.0691,0.05901 -0.27359,0.01094 -0.23266,-0.05468 -0.47765,-0.07093 -0.69396,-0.04594 -0.30691,0.03545 -0.35461,0.03656 -0.37525,0.0088 -0.0102,-0.01368 -0.086,-0.21163 -0.16845,-0.439852 -0.0825,-0.228223 -0.20317,-0.561584 -0.26819,-0.740856 -0.13843,-0.381692 -0.17611,-0.527398 -0.20188,-0.781192 -0.0243,-0.239509 -0.018,-0.379777 0.0275,-0.614999 0.1196,-0.618577 0.41066,-1.040974 0.84791,-1.230477 0.16303,-0.07066 0.31942,-0.102465 0.51327,-0.102818 z m -3.55825,1.651391 c 0.0343,3.97e-4 0.0687,0.0031 0.10323,0.0081 0.31819,0.0456 0.6843,0.257355 0.94963,0.549165 0.2314,0.254482 0.31387,0.402648 0.50405,0.906092 0.0694,0.183695 0.1888,0.496532 0.26546,0.695189 0.17314,0.448705 0.18297,0.479919 0.16202,0.514641 -0.009,0.01524 -0.0906,0.0939 -0.18089,0.174806 -0.12484,0.111829 -0.17545,0.14639 -0.21125,0.143974 -0.0259,-0.0017 -0.15523,-0.05404 -0.28733,-0.116218 -0.1321,-0.06218 -0.4724,-0.221036 -0.75624,-0.35303 -0.28384,-0.131993 -0.56679,-0.272766 -0.62874,-0.312832 -0.46342,-0.299741 -0.77516,-0.758452 -0.83943,-1.235262 -0.0673,-0.49954 0.40533,-0.981495 0.91949,-0.974592 z m 7.06777,0.292528 c 0.4384,-0.0046 0.84243,0.347054 0.90472,0.796983 0.0528,0.38167 -0.2649,0.942556 -0.71658,1.265 -0.23416,0.167159 -0.29314,0.1919 -1.5548,0.6526 -0.41127,0.150175 -0.42334,0.153854 -0.45298,0.135975 -0.0351,-0.02119 -0.3076,-0.311219 -0.32616,-0.347151 -0.008,-0.01502 -0.007,-0.04763 0.002,-0.07253 0.032,-0.09142 0.70191,-1.459673 0.75979,-1.551923 0.30347,-0.483649 0.85889,-0.846892 1.34178,-0.877447 0.0142,-9.26e-4 0.0283,-0.0013 0.0424,-0.0015 z m -8.3243,2.645193 c 0.24844,-0.0034 0.50359,0.02796 0.72185,0.09222 0.1547,0.04554 0.24562,0.08375 0.99804,0.41948 0.71252,0.317922 0.6903,0.306907 0.69882,0.345372 0.004,0.01889 -0.007,0.08361 -0.026,0.143837 -0.0503,0.163968 -0.0753,0.754704 -0.0393,0.931796 0.0326,0.160422 0.0206,0.185112 -0.11,0.228062 -0.0532,0.0175 -0.35378,0.122466 -0.66805,0.233256 -0.71844,0.253283 -0.94278,0.319304 -1.1643,0.342707 -0.21561,0.02278 -0.575,0.0073 -0.78611,-0.03384 -0.31836,-0.06208 -0.64602,-0.21574 -0.86829,-0.407174 -0.20393,-0.175646 -0.3336,-0.397771 -0.39179,-0.670989 -0.0407,-0.190994 -0.0154,-0.545425 0.0513,-0.719458 0.1698,-0.442618 0.5715,-0.74253 1.15323,-0.861109 0.13479,-0.02748 0.28149,-0.0421 0.43055,-0.04416 z m 4.61742,0.06625 c 0.43031,-0.0048 0.86027,0.167579 1.16662,0.512522 0.23047,0.259481 0.34268,0.525814 0.37846,0.897614 0.0392,0.407087 -0.15748,0.887193 -0.48387,1.180913 -0.22647,0.203796 -0.48825,0.329242 -0.80601,0.38646 -0.24423,0.04397 -0.58502,0.0026 -0.83964,-0.102135 -0.40752,-0.16757 -0.74102,-0.531552 -0.86562,-0.944717 -0.1638,-0.543114 -0.0152,-1.108169 0.3948,-1.500992 0.2956,-0.283243 0.67558,-0.425441 1.05526,-0.429665 z m 4.50851,0.305859 c 0.73308,-0.0067 1.41081,0.320203 1.66725,0.817219 0.10919,0.211613 0.13146,0.329642 0.11875,0.629492 -0.0123,0.290385 -0.0356,0.383884 -0.14377,0.576578 -0.21758,0.387765 -0.69065,0.656061 -1.26411,0.71693 -0.3199,0.03395 -0.75071,-0.0066 -1.02142,-0.09619 -0.0591,-0.01954 -0.39591,-0.163494 -0.74858,-0.319942 -0.35267,-0.156447 -0.69087,-0.306067 -0.75152,-0.332383 -0.15524,-0.06736 -0.15797,-0.07318 -0.11096,-0.235923 0.0556,-0.192467 0.0806,-0.751774 0.0421,-0.941436 -0.0313,-0.154277 -0.0223,-0.175858 0.089,-0.213362 0.0444,-0.01495 0.32118,-0.111346 0.61513,-0.214252 0.9866,-0.345387 1.03042,-0.357615 1.36092,-0.380854 0.0492,-0.0035 0.0984,-0.0054 0.14725,-0.0059 z m -6.38537,2.540255 c 0.017,7e-4 0.1071,0.08393 0.20031,0.184992 0.1444,0.156595 0.16738,0.189712 0.15498,0.224096 -0.008,0.02219 -0.0661,0.146215 -0.12914,0.275574 -0.063,0.129359 -0.21523,0.442945 -0.33826,0.696899 -0.12304,0.253954 -0.25796,0.518885 -0.29985,0.588747 -0.26141,0.435905 -0.76231,0.795133 -1.21208,0.869243 -0.34225,0.05639 -0.59605,-0.02996 -0.83664,-0.284666 -0.14426,-0.152732 -0.21734,-0.301274 -0.24187,-0.491671 -0.0609,-0.472499 0.37618,-1.113524 0.97008,-1.422715 0.0664,-0.03456 0.2494,-0.110111 0.40663,-0.167833 1.03213,-0.378914 1.29844,-0.473792 1.32584,-0.472666 z m 3.66327,0.151084 c 0.0171,7e-4 0.11791,0.04161 0.22409,0.09085 0.10619,0.04924 0.34928,0.162037 0.54015,0.250689 0.19086,0.08865 0.4471,0.207479 0.56946,0.264021 0.34344,0.158699 0.52003,0.280512 0.73061,0.504045 0.346,0.367277 0.52749,0.84168 0.44935,1.174487 -0.0441,0.18787 -0.12779,0.326023 -0.28125,0.464462 -0.14696,0.132572 -0.29987,0.212806 -0.45298,0.237632 -0.37817,0.06132 -0.83857,-0.135699 -1.20094,-0.513889 -0.25466,-0.265786 -0.31647,-0.382784 -0.61732,-1.167651 -0.11802,-0.307887 -0.24283,-0.632936 -0.27729,-0.72233 -0.10015,-0.259847 -0.10912,-0.222473 0.10043,-0.41442 0.10156,-0.09303 0.1986,-0.16861 0.21569,-0.167901 z m -2.46875,0.664016 c 0.031,-2.1e-4 0.0771,0.0105 0.16236,0.03487 0.17364,0.04962 0.72779,0.0726 0.88709,0.03678 0.12488,-0.02808 0.1688,-0.0295 0.20249,-0.0066 0.0236,0.01608 0.0576,0.105369 0.3853,1.013832 0.2151,0.596341 0.24029,0.687497 0.26833,0.970764 0.0237,0.239874 0.019,0.344294 -0.0266,0.589226 -0.0819,0.439599 -0.23042,0.746065 -0.47848,0.98717 -0.19297,0.187562 -0.38566,0.292145 -0.62102,0.337033 -0.23526,0.04487 -0.53816,0.02809 -0.73873,-0.04088 -0.2074,-0.07131 -0.32583,-0.150953 -0.49755,-0.334434 -0.13282,-0.141915 -0.17999,-0.207888 -0.24222,-0.339289 -0.23075,-0.487286 -0.26745,-1.029283 -0.10678,-1.577285 0.0378,-0.128793 0.21036,-0.516691 0.63605,-1.42962 0.0555,-0.119101 0.11167,-0.222683 0.12484,-0.230112 0.013,-0.0074 0.0263,-0.01137 0.0449,-0.01149 z m 13.34068,5.91024 c -0.0861,1.693876 0.0131,6.19865 -0.12695,9.512182 -3.39723,0.611709 -6.1093,0.800673 -9.56797,1.265206 -0.30134,0.01912 -0.80789,0.17408 -1.11501,0.120456 -0.0193,-0.77955 -0.0306,-1.210142 -0.0374,-1.989791 0.0495,-2.706048 -0.0917,-5.065464 0.10275,-7.769662 2.59055,-0.294613 6.02324,-0.648834 8.62147,-0.907185 0,0 1.66205,-0.206274 2.1231,-0.231206 z m -24.96769,0.517717 c 3.48937,0.1421 6.52312,0.417841 10.05226,0.472735 1.22682,0.10715 2.55624,0.01188 3.23052,0.257936 -0.0996,3.308792 0.13314,6.28736 -0.004,9.5975 -0.29072,0.0728 -0.65882,-0.02162 -0.96173,0.02728 -3.18009,-0.232603 -5.29762,-0.24954 -8.47846,-0.476973 -1.40318,-0.270811 -2.21216,-0.03672 -3.8592,-0.444911 -0.0247,-3.310829 0.0309,-6.122747 0.0211,-9.433564 z m 22.18133,1.797553 c -0.15094,-0.0076 -0.36306,0.146196 -0.443,0.235171 -0.33319,0.522175 -0.30643,0.834945 -0.30449,1.160062 6.7e-4,0.105568 -0.053,0.364372 -0.60515,0.264568 -0.69677,-0.121637 -1.21077,0.592153 -1.39025,-0.110749 l 0.16866,-0.647609 c 0.35465,-0.723037 -0.42297,-0.423923 -0.42297,-0.423923 -0.66915,0.576045 4.6e-4,1.6831 -1.1602,1.785179 -0.8836,0.07773 -1.93315,0.126052 -2.5436,0.238726 l -0.35003,0.0646 c 0,0 -0.17252,0.03143 -0.0679,0.154228 0.1757,0.188698 0.58374,0.499671 1.20409,0.227104 0,0 1.28836,-0.304021 1.53661,-0.229223 0.84294,-0.0894 0.66231,0.619853 0.66231,0.619853 0,0 0.007,0.504393 -0.46939,0.821731 l -1.36529,0.306952 c 0,0 -1.08601,0.440895 0.46802,0.549439 0.58518,-0.06233 1.13839,-0.342566 0.90787,0.08128 l -0.1273,0.521136 c 0.31526,0.935848 0.75451,0.392451 0.70435,0.189709 0,0 0.0624,-1.01754 0.56394,-1.202653 0,0 0.95526,-0.41449 1.54994,-0.08484 0.12538,0.114593 -0.0947,0.883326 -0.0947,0.883326 0.0251,0.282076 0.39748,1.061932 0.68084,0.262585 l 0.44798,-1.421348 c 0.13059,-0.384681 0.89075,-0.313048 1.13901,-0.450175 0.67384,-0.299188 0.47646,-0.824727 -0.23285,-0.475674 0,0 -0.86911,0.401861 -0.54991,-0.745027 0.0355,-0.573444 0.57931,-0.718296 0.57931,-0.718296 l 0.7857,-0.22437 c 0.67385,-0.174526 1.05972,-0.85467 -0.004,-0.505617 -0.33667,0.05415 -0.58371,0.09064 -1.0837,0.318301 -0.4016,0.182857 -0.19494,-0.132668 -0.18164,-0.243306 0.0636,-0.334966 0.12183,-0.648839 0.12183,-0.648839 0.0949,-0.4133 0.009,-0.545609 -0.12381,-0.55231 z m -15.9627,0.695327 c -0.40638,-9.8e-4 -0.85161,0.07762 -1.29385,0.304355 -0.2046,0.103465 0.0333,0.764643 0.45803,0.683294 0.55849,-0.141036 2.16902,-0.445391 1.87918,0.256705 -0.0552,0.222411 -0.9813,0.502215 -1.2008,0.673724 0,0 -1.78435,0.88592 -0.0751,2.222091 0.1857,0.145168 0.12695,0.0034 0.12695,0.0034 -0.31043,-1.712252 1.74795,-2.216265 1.8625,-2.303991 0.13659,-0.03774 1.11097,-0.678773 -0.0773,-1.405215 0,0 -0.64733,-0.38061 -1.5079,-0.429255 -0.0564,-0.0032 -0.11361,-0.005 -0.17166,-0.0051 z m 14.42301,1.467835 h 7e-5 c 0.16083,0.0014 0.53342,0.02332 0.57904,0.107946 0.10732,0.40872 -0.0461,1.14218 -0.12018,1.331723 -0.0699,0.17167 -0.79694,0.471061 -1.73678,0.346399 -0.32601,-0.176299 0,-1.352302 0,-1.352301 0.058,-0.275569 0.86685,-0.43738 1.27785,-0.433767 z m -14.73625,3.080738 c -0.35052,-3.5e-5 -0.64059,0.191586 -0.66231,0.437527 -0.0227,0.257106 0.25529,0.478433 0.62101,0.494406 0.36573,0.016 0.68071,-0.179464 0.70347,-0.43657 0.0228,-0.257124 -0.25534,-0.4785 -0.62109,-0.494474 -9.1e-4,-3.4e-5 -0.002,-3.2e-5 -0.003,-7e-5 -0.0128,-5.29e-4 -0.0257,-8.19e-4 -0.0385,-8.19e-4 z"
       sodipodi:nodetypes="cccccssssccscccscccscsccccccccccccccccccccccccccccccccccccccsccscsccsscccssscssccccccscssccscsscccssscssssscccsscssccccssccscsssssscssscssssscsssccscsscsssssscssscscsscscscscscssscsccccsssccssscscccccccccccscccccccscccccccscsccccccccccccccccccccsccssccccscccsscsccccsccccccccccsccccccccc"
       inkscape:export-xdpi="96"
       inkscape:export-ydpi="96" />
  </g>
</svg>
