<?xml version="1.0" encoding="UTF-8" standalone="no"?>
<!-- Created with Inkscape (http://www.inkscape.org/) -->

<svg
   xmlns:dc="http://purl.org/dc/elements/1.1/"
   xmlns:cc="http://creativecommons.org/ns#"
   xmlns:rdf="http://www.w3.org/1999/02/22-rdf-syntax-ns#"
   xmlns:svg="http://www.w3.org/2000/svg"
   xmlns="http://www.w3.org/2000/svg"
   xmlns:sodipodi="http://sodipodi.sourceforge.net/DTD/sodipodi-0.dtd"
   xmlns:inkscape="http://www.inkscape.org/namespaces/inkscape"
   version="1.1"
   width="1156.1016"
   height="183.96094"
   viewBox="0 0 1156.1015 183.96094"
   id="svg2"
   style="display:block"
   sodipodi:docname="collision_formula_1.svg"
   inkscape:version="0.92.4 (5da689c313, 2019-01-14)">
  <sodipodi:namedview
     pagecolor="#ffffff"
     bordercolor="#666666"
     borderopacity="1"
     objecttolerance="10"
     gridtolerance="10"
     guidetolerance="10"
     inkscape:pageopacity="0"
     inkscape:pageshadow="2"
     inkscape:window-width="2169"
     inkscape:window-height="1151"
     id="namedview128"
     showgrid="false"
     inkscape:zoom="1.3134904"
     inkscape:cx="324.35242"
     inkscape:cy="-40.892441"
     inkscape:window-x="104"
     inkscape:window-y="58"
     inkscape:window-maximized="0"
     inkscape:current-layer="svg2"
     fit-margin-top="0"
     fit-margin-left="0"
     fit-margin-right="0"
     fit-margin-bottom="0" />
  <metadata
     id="metadata244">
    <rdf:RDF>
      <cc:Work
         rdf:about="">
        <dc:format>image/svg+xml</dc:format>
        <dc:type
           rdf:resource="http://purl.org/dc/dcmitype/StillImage" />
        <dc:title></dc:title>
      </cc:Work>
    </rdf:RDF>
  </metadata>
  <defs
     id="defs4">
    <clipPath
       id="c0_1">
      <path
         d="M 36.7,452.8 V 335.1 h 27.1 v 117.7 z"
         id="path7"
         inkscape:connector-curvature="0" />
    </clipPath>
    <clipPath
       id="c1_1">
      <path
         d="M 64.5,452.8 V 335.1 h 7 v 117.7 z"
         id="path10"
         inkscape:connector-curvature="0" />
    </clipPath>
    <clipPath
       id="c2_1">
      <path
         d="M 76.6,452.8 V 335.1 h 19.1 v 117.7 z"
         id="path13"
         inkscape:connector-curvature="0" />
    </clipPath>
    <clipPath
       id="c3_1">
      <path
         d="M 103.4,452.8 V 335.1 h 20.2 v 117.7 z"
         id="path16"
         inkscape:connector-curvature="0" />
    </clipPath>
    <clipPath
       id="c4_1">
      <path
         d="M 133.1,452.8 V 335.1 h 23.1 v 117.7 z"
         id="path19"
         inkscape:connector-curvature="0" />
    </clipPath>
    <clipPath
       id="c5_1">
      <path
         d="M 163.9,452.8 V 335.1 H 183 v 117.7 z"
         id="path22"
         inkscape:connector-curvature="0" />
    </clipPath>
    <clipPath
       id="c6_1">
      <path
         d="M 197.3,452.8 V 335.1 h 17.6 v 117.7 z"
         id="path25"
         inkscape:connector-curvature="0" />
    </clipPath>
    <clipPath
       id="c7_1">
      <path
         d="M 224,452.8 V 335.1 h 24.2 v 117.7 z"
         id="path28"
         inkscape:connector-curvature="0" />
    </clipPath>
    <clipPath
       id="c8_1">
      <path
         d="M 256.3,452.8 V 335.1 h 19.1 v 117.7 z"
         id="path31"
         inkscape:connector-curvature="0" />
    </clipPath>
    <clipPath
       id="c9_1">
      <path
         d="M 284.5,452.8 V 335.1 h 24.2 v 117.7 z"
         id="path34"
         inkscape:connector-curvature="0" />
    </clipPath>
    <clipPath
       id="c10_1">
      <path
         d="M 317.9,452.8 V 335.1 H 345 v 117.7 z"
         id="path37"
         inkscape:connector-curvature="0" />
    </clipPath>
    <style
       type="text/css"
       id="style39" />
  </defs>
  <path
     style="fill-rule:evenodd"
     d="m 85.808594,0 v 0.765625 c 0.479456,0.135775 0.817748,0.259589 1.015624,0.36914 0.197876,0.109542 0.356602,0.255051 0.476563,0.4375 0.119961,0.182063 0.205744,0.437369 0.257813,0.765625 0.05205,0.328247 0.07813,0.851321 0.07812,1.570313 V 17.43164 c 0,0.771066 -0.03368,1.343438 -0.101562,1.71875 -0.06792,0.374925 -0.210981,0.66391 -0.429688,0.867188 -0.219092,0.203277 -0.650781,0.387667 -1.296874,0.554687 v 0.765625 h 5.720703 V 20.572265 C 90.935278,20.41566 90.521624,20.244103 90.287105,20.05664 90.052577,19.869177 89.896657,19.596211 89.818355,19.236328 89.740045,18.876831 89.699214,18.275609 89.699214,17.43164 v -4.363281 c 0,-2.490633 -0.05012,-4.855021 -0.154296,-7.095703 h 0.140625 c 0.47907,1.010987 1.176882,2.303192 2.09375,3.876953 l 6.691406,11.488281 h 4.986321 V 3.908203 c 0,-0.760651 0.0312,-1.306974 0.0938,-1.640625 0.0624,-0.33365 0.15347,-0.583373 0.27343,-0.75 0.11957,-0.167024 0.27628,-0.302102 0.46875,-0.40625 0.19286,-0.104147 0.52316,-0.220348 0.99219,-0.345703 V 0 h -5.642578 v 0.765625 c 0.510708,0.135775 0.859038,0.263239 1.046878,0.382812 0.18747,0.119962 0.32814,0.267423 0.42187,0.439453 0.0937,0.17204 0.16427,0.406118 0.21094,0.703125 0.047,0.297017 0.0723,0.835707 0.0723,1.617188 v 2.751953 c 0,2.949259 0.0573,5.669139 0.17188,8.160156 h -0.25 c -0.4378,-0.938085 -0.93917,-1.933683 -1.501948,-2.986328 -0.56276,-1.052647 -0.999686,-1.850633 -1.312503,-2.392578 L 93.044998,0 Z M 197.07227,0 v 0.765625 c 0.47946,0.135775 0.81775,0.259589 1.01562,0.36914 0.19788,0.109542 0.35661,0.255051 0.47657,0.4375 0.11996,0.182063 0.20575,0.437369 0.25781,0.765625 0.0521,0.328247 0.0781,0.851321 0.0781,1.570313 V 17.43164 c 0,0.771066 -0.0336,1.343438 -0.10156,1.71875 -0.0679,0.374925 -0.21099,0.66391 -0.42969,0.867188 -0.21909,0.203277 -0.65272,0.387667 -1.29882,0.554687 v 0.765625 h 5.72265 v -0.765625 c -0.594,-0.156605 -1.00767,-0.328162 -1.24218,-0.515625 -0.23454,-0.187463 -0.39242,-0.460429 -0.47071,-0.820312 -0.0783,-0.359497 -0.11523,-0.960719 -0.11523,-1.804688 v -4.363281 c 0,-2.490633 -0.054,-4.855021 -0.15821,-7.095703 h 0.14063 c 0.47906,1.010987 1.17883,2.303192 2.0957,3.876953 l 6.69141,11.488281 h 4.98633 V 3.908203 c 0,-0.760651 0.0312,-1.306974 0.0937,-1.640625 0.0625,-0.33365 0.15347,-0.583373 0.27343,-0.75 0.11959,-0.167024 0.27627,-0.302102 0.46875,-0.40625 0.19286,-0.104147 0.52315,-0.220348 0.99219,-0.345703 V 0 h -5.64258 v 0.765625 c 0.51032,0.135775 0.85942,0.263239 1.04688,0.382812 0.18746,0.119962 0.32814,0.267423 0.42187,0.439453 0.0937,0.17204 0.16426,0.406118 0.21094,0.703125 0.047,0.297017 0.0703,0.835707 0.0703,1.617188 v 2.751953 c 0,2.949259 0.0573,5.669139 0.17188,8.160156 h -0.25 c -0.4378,-0.938085 -0.93722,-1.933683 -1.5,-2.986328 -0.56278,-1.052647 -0.99968,-1.850633 -1.3125,-2.392578 L 204.30852,0 Z M 0,1.328125 7.4726562,21.353515 h 2.392578 L 18.634765,1.328125 H 16.054687 L 13.664062,7.003906 H 4.7832031 l -1.96875,-5.675781 z m 119.66211,0 7.47071,20.02539 h 2.39257 l 8.76954,-20.02539 h -2.58008 l -2.39063,5.675781 h -8.8789 l -1.97071,-5.675781 z m -30.289063,0.04687 h 2.484375 l 9.863288,17.009765 v 1.578125 H 99.626956 L 89.373047,2.283203 Z m 111.261723,0 h 2.48633 l 9.86523,17.009765 v 1.578125 h -2.0957 L 200.63477,2.283203 Z M 66.490234,2.923828 c -1.688326,0 -3.063891,0.181976 -4.126953,0.546875 -1.063062,0.364513 -1.975677,0.967677 -2.736328,1.80664 -0.761039,0.838953 -1.302147,1.796126 -1.625,2.875 -0.32324,1.078491 -0.484375,2.441613 -0.484375,4.087891 0,1.010988 0.0834,1.949656 0.25,2.814453 0.166636,0.865184 0.416736,1.640376 0.75,2.328125 0.33366,0.68775 0.768135,1.316592 1.304687,1.884766 0.53693,0.567788 1.108456,0.991858 1.712891,1.273437 0.604425,0.281195 1.281008,0.484401 2.03125,0.609375 0.750619,0.124976 1.636809,0.1875 2.658203,0.1875 h 6.673828 v -2.171875 h -6.611328 c -1.292188,0 -2.306597,-0.124664 -3.041015,-0.375 -0.734815,-0.249951 -1.333232,-0.6395 -1.796876,-1.166015 -0.463644,-0.52613 -0.81189,-1.163826 -1.041015,-1.914063 -0.229115,-0.750623 -0.369796,-1.609182 -0.421875,-2.578125 H 72.898437 V 10.958984 H 60.003906 c 0.05205,-0.864798 0.177125,-1.639531 0.375,-2.322266 0.197876,-0.682736 0.47084,-1.257905 0.820312,-1.726562 0.349078,-0.469042 0.736684,-0.83059 1.164063,-1.085938 0.427388,-0.255349 0.960484,-0.442073 1.601563,-0.55664 0.641076,-0.114558 1.477952,-0.171875 2.509765,-0.171875 h 6.423828 V 2.923828 Z m 111.263676,0 c -1.68833,0 -3.06387,0.181976 -4.12695,0.546875 -1.06306,0.364513 -1.97568,0.967677 -2.73633,1.80664 -0.76105,0.838953 -1.30216,1.796126 -1.625,2.875 -0.32324,1.078491 -0.48438,2.441613 -0.48438,4.087891 0,1.010988 0.0834,1.949656 0.25,2.814453 0.16664,0.865184 0.41674,1.640376 0.75,2.328125 0.33366,0.68775 0.76814,1.316592 1.30469,1.884766 0.53693,0.567788 1.10844,0.991858 1.71289,1.273437 0.60443,0.281195 1.28064,0.484401 2.03125,0.609375 0.75025,0.124976 1.6368,0.1875 2.65821,0.1875 h 6.67382 v -2.171875 h -6.61132 c -1.2922,0 -2.30621,-0.124664 -3.04102,-0.375 -0.7348,-0.249951 -1.33519,-0.6395 -1.79883,-1.166015 -0.46364,-0.52613 -0.80799,-1.163826 -1.03711,-1.914063 -0.22911,-0.750623 -0.37175,-1.609182 -0.42383,-2.578125 h 12.91211 v -2.173828 h -12.89648 c 0.0521,-0.864798 0.17712,-1.639531 0.375,-2.322266 0.19787,-0.682736 0.47319,-1.257905 0.82226,-1.726562 0.34909,-0.469042 0.73669,-0.83059 1.16407,-1.085938 0.42739,-0.255349 0.96049,-0.442073 1.60156,-0.55664 0.64108,-0.114558 1.47794,-0.171875 2.50977,-0.171875 h 6.42382 V 2.923828 Z M 24.046875,6.128906 c -0.792281,0 -1.517781,0.220858 -2.179688,0.664062 -0.661906,0.442813 -1.451884,1.142649 -2.36914,2.101563 l 0.890625,0.876953 c 0.625262,-0.698163 1.119018,-1.181501 1.478515,-1.447266 0.359498,-0.265765 0.700199,-0.398437 1.023438,-0.398437 0.291609,0 0.505235,0.09379 0.640625,0.28125 0.135389,0.187849 0.203125,0.491233 0.203125,0.908203 0,0.541945 -0.114243,1.311927 -0.34375,2.3125 l -2.28125,9.910156 H 23.8125 l 1.486328,-6.767578 c 0.218706,-0.958915 0.489647,-1.772533 0.8125,-2.439453 0.323238,-0.66692 0.770561,-1.361544 1.34375,-2.085937 0.573189,-0.724008 1.113839,-1.251826 1.61914,-1.580079 0.505688,-0.328252 0.955422,-0.492187 1.351563,-0.492187 0.562774,0 0.976426,0.158723 1.242187,0.476562 0.265766,0.317838 0.398438,0.852893 0.398438,1.603516 0,0.333267 -0.03889,0.731671 -0.117188,1.195312 -0.07792,0.463643 -0.226219,1.179109 -0.445312,2.148438 l -1.796875,7.941406 h 2.703125 l 1.423828,-6.830078 c 0.208291,-0.96933 0.486856,-1.790569 0.835938,-2.46289 0.349081,-0.67232 0.799202,-1.353725 1.351562,-2.046876 0.55236,-0.69315 1.079791,-1.20495 1.580078,-1.533203 0.500286,-0.328252 0.96845,-0.492187 1.40625,-0.492187 0.541944,0 0.931954,0.158723 1.171875,0.476562 0.239536,0.317838 0.359375,0.835695 0.359375,1.554688 0,0.291994 -0.03888,0.673535 -0.117187,1.142578 -0.0783,0.468657 -0.241852,1.194084 -0.492188,2.173828 l -0.6875,2.703125 c -0.343681,1.313011 -0.515625,2.308993 -0.515625,2.986328 0,0.750238 0.203205,1.367092 0.609375,1.851563 0.406555,0.484858 0.947666,0.726562 1.625,0.726562 0.854769,0 1.616283,-0.223662 2.283203,-0.671875 0.66692,-0.448214 1.447709,-1.145636 2.34375,-2.09375 l -0.890625,-0.876953 c -0.646091,0.718993 -1.145903,1.207541 -1.5,1.462891 -0.354482,0.255351 -0.687563,0.382812 -1,0.382812 -0.291994,0 -0.505235,-0.09379 -0.640625,-0.28125 -0.13539,-0.187849 -0.205078,-0.48928 -0.205078,-0.90625 0,-0.469042 0.142248,-1.27224 0.423828,-2.408203 l 1.015625,-4.095703 c 0.302023,-1.208865 0.453125,-2.139984 0.453125,-2.796875 0,-1.000188 -0.260134,-1.777718 -0.78125,-2.330078 -0.521116,-0.552362 -1.261789,-0.828125 -2.220703,-0.828125 -0.958915,0 -1.884363,0.309824 -2.77539,0.929687 -0.891027,0.620247 -1.783647,1.566538 -2.679688,2.837891 0.01041,-0.08332 0.01563,-0.161474 0.01563,-0.234375 V 9.457031 c 0,-1.073475 -0.260134,-1.89315 -0.78125,-2.460938 -0.521115,-0.56817 -1.282629,-0.851562 -2.283203,-0.851562 -0.969329,0 -1.9265,0.345915 -2.875,1.039062 -0.948501,0.69315 -1.9028,1.754069 -2.861328,3.181641 l -0.1875,-0.0625 c 0.239921,-0.646092 0.359375,-1.256889 0.359375,-1.830078 0,-0.698164 -0.189987,-1.262915 -0.570313,-1.695313 -0.380326,-0.4324 -0.900134,-0.648437 -1.55664,-0.648437 z m 119.662115,0 c -0.80269,0 -1.52253,0.210445 -2.1582,0.632812 -0.63569,0.421984 -1.43172,1.13224 -2.39063,2.132813 l 0.89063,0.876953 c 0.62525,-0.698163 1.11707,-1.181501 1.47656,-1.447266 0.35949,-0.265765 0.70057,-0.398437 1.02344,-0.398437 0.29197,0 0.5072,0.09379 0.64257,0.28125 0.13541,0.187849 0.20313,0.491233 0.20313,0.908203 0,0.541945 -0.11621,1.311927 -0.3457,2.3125 l -2.28126,9.910156 h 2.70508 l 1.48438,-6.767578 c 0.21869,-0.969329 0.50008,-1.785746 0.84375,-2.447266 0.34407,-0.661906 0.80134,-1.34331 1.36914,-2.046874 0.56816,-0.703179 1.10369,-1.230997 1.60937,-1.580079 0.50529,-0.349082 0.97665,-0.523437 1.41407,-0.523437 0.54194,0 0.93233,0.158723 1.17187,0.476562 0.23954,0.317838 0.36133,0.835695 0.36133,1.554688 0,0.291994 -0.0389,0.673535 -0.11719,1.142578 -0.0783,0.468657 -0.24381,1.194084 -0.49414,2.173828 l -0.6875,2.703125 c -0.34368,1.313011 -0.51562,2.308993 -0.51562,2.986328 0,0.750238 0.2032,1.367092 0.60937,1.851563 0.40656,0.484858 0.94962,0.726562 1.62695,0.726562 0.85477,0 1.61432,-0.220863 2.28125,-0.664062 0.66692,-0.442813 1.44967,-1.143034 2.34571,-2.101563 l -0.89063,-0.876953 c -0.64609,0.718993 -1.14785,1.207541 -1.50195,1.462891 -0.35448,0.255351 -0.68756,0.382812 -1,0.382812 -0.29199,0 -0.50486,-0.09379 -0.64063,-0.28125 -0.1354,-0.187849 -0.20312,-0.48928 -0.20312,-0.90625 0,-0.469042 0.14029,-1.27224 0.42187,-2.408203 l 1.01563,-4.095703 c 0.30202,-1.208865 0.45312,-2.139984 0.45312,-2.796875 0,-0.989773 -0.26013,-1.764506 -0.78125,-2.322266 -0.52111,-0.557374 -1.267,-0.835937 -2.23632,-0.835937 -0.97936,0 -1.92931,0.345915 -2.85157,1.039062 -0.92227,0.69315 -1.89461,1.758894 -2.91601,3.197266 l -0.1875,-0.0625 c 0.24995,-0.677721 0.375,-1.293344 0.375,-1.845703 0,-0.698164 -0.18998,-1.262915 -0.57031,-1.695313 -0.38032,-0.432401 -0.89818,-0.648437 -1.55469,-0.648437 z M 5.5175781,9.144531 H 12.755859 L 8.8007812,18.43164 Z m 119.6621119,0 h 7.23828 l -3.95508,9.287109 z m 99.9043,3.8125 c -0.75833,0 -1.45418,0.156288 -2.08985,0.466797 -0.63568,0.310124 -1.18674,0.78029 -1.65039,1.412109 -0.46326,0.63182 -0.82317,1.427394 -1.08007,2.384766 -0.2565,0.957372 -0.38477,2.090851 -0.38477,3.40039 0,2.50452 0.41518,4.372302 1.24219,5.605469 0.82737,1.233165 2.09072,1.851563 3.79101,1.851563 1.71571,0 3.02593,-0.654869 3.92969,-1.960938 0.90375,-1.305682 1.35547,-3.232398 1.35547,-5.783203 0,-1.148692 -0.0958,-2.178374 -0.28711,-3.089844 -0.19133,-0.911471 -0.49269,-1.684587 -0.90234,-2.316406 -0.40965,-0.632205 -0.93907,-1.118388 -1.58594,-1.458984 -0.64725,-0.340982 -1.4264,-0.511719 -2.33789,-0.511719 z m -0.0469,1.115234 c 0.45207,0 0.85248,0.13026 1.20118,0.390625 0.34829,0.260365 0.63767,0.663208 0.86718,1.210938 0.2299,0.547346 0.40904,1.247516 0.53516,2.097656 0.12653,0.850141 0.18945,1.865757 0.18945,3.044922 0,1.04956 -0.0569,1.958991 -0.17187,2.728516 -0.11495,0.769908 -0.28608,1.404421 -0.51172,1.90625 -0.22605,0.501443 -0.51101,0.871768 -0.85547,1.109374 -0.34484,0.237609 -0.74724,0.355469 -1.20703,0.355469 -0.49026,0 -0.9115,-0.12587 -1.26367,-0.378906 -0.35255,-0.25265 -0.64516,-0.647436 -0.87891,-1.183594 -0.23336,-0.536159 -0.4065,-1.219927 -0.51758,-2.050781 -0.11109,-0.831239 -0.16601,-1.815667 -0.16601,-2.957031 0,-0.987843 0.0446,-1.871201 0.13281,-2.648438 0.0879,-0.777624 0.23666,-1.436546 0.44726,-1.976562 0.21061,-0.540017 0.49559,-0.949251 0.85547,-1.228516 0.36026,-0.279652 0.8076,-0.419922 1.34375,-0.419922 z m -115.98047,3.638672 c 0.0729,0.771066 0.10938,1.553807 0.10938,2.345703 0,0.771066 -0.0517,1.413126 -0.15625,1.923828 -0.10415,0.510701 -0.2761,0.966033 -0.51563,1.367188 -0.23955,0.401154 -0.62472,0.851275 -1.15625,1.351562 l 0.84375,0.953125 c 0.95852,-0.718993 1.71047,-1.377143 2.25782,-1.976562 0.54695,-0.599032 0.94732,-1.200256 1.19726,-1.804688 0.25033,-0.604433 0.375,-1.272545 0.375,-2.001953 0,-0.708578 -0.0745,-1.428795 -0.2207,-2.158203 z M 96.40039,40.259765 c -4.4,0.7 -7.7,3.301172 -9.5,7.701172 -1.9,4.4 -2.599609,10.998831 -2.599609,19.798827 v 28.59961 c 0,4.699996 -0.700781,8.399996 -1.800781,10.999996 -1.5,2.5 -2.999219,3.60156 -5.199219,3.60156 v 1.89844 c 2.2,0.3 4.099219,1.4 5.199219,4 1.1,2.2 1.800781,5.90156 1.800781,10.60156 v 29 c 0,8.4 0.699609,14.99844 2.599609,19.39844 1.8,4.8 5.1,7.40156 9.5,8.10156 v -1.5 c -3.3,-0.7 -5.5,-3.30078 -7,-7.30078 -1.4,-4.4 -1.798828,-10.60039 -1.798828,-19.40039 v -25.69922 c -0.4,-5.9 -1.101562,-10.30078 -2.601562,-12.80078 -1.4,-3 -2.898438,-4.39922 -4.398438,-5.19922 v -0.30078 c 1.5,-0.8 2.998438,-2.19922 4.398438,-5.19922 1.9,-2.5 2.601562,-6.900776 2.601562,-12.800776 v -25.69922 c 0,-8.399992 0.398828,-14.999996 1.798828,-18.999998 1.5,-4.099997 3.7,-6.60039 7,-7.40039 z m 12.80079,4.701172 c -1.1,0 -1.80041,0.398828 -2.90039,0.798828 -0.70002,0.3 -1.49922,1.101172 -2.19922,2.201172 -0.4,0.7 -1.1,1.798828 -1.5,3.298828 0,1.4 -0.30081,2.89961 -0.30078,5.09961 0,3.7 0.70078,6.201562 1.80078,8.101562 1.1,1.8 2.59882,2.5 4.79882,2.5 2.5,0 4,-0.700389 5.5,-2.900391 1.1,-1.799998 1.80079,-4.40039 1.80079,-8.40039 0,-3.3 -0.70079,-6.29961 -1.80079,-8.09961 -1.1,-1.499999 -2.99921,-2.599609 -5.19921,-2.599609 z m 300.29882,0 c -1.1,0 -1.79843,0.398828 -2.89843,0.798828 -0.7,0.3 -1.50118,1.101172 -2.20118,2.201172 -0.4,0.7 -1.1,1.798828 -1.5,3.298828 0,1.4 -0.29882,2.89961 -0.29882,5.09961 0,3.7 0.69882,6.201562 1.79882,8.101562 1.1,1.8 2.60079,2.5 4.80079,2.5 2.5,0 4,-0.700389 5.5,-2.900391 1.1,-1.799998 1.79882,-4.40039 1.79882,-8.40039 0,-3.3 -0.69882,-6.29961 -1.79882,-8.09961 -1.1,-1.499999 -3.00118,-2.599609 -5.20118,-2.599609 z m -300.29882,1.5 c 0.8,0 1.50039,0.399609 1.90039,1.099609 0.7,0.400003 1.09843,1.500391 1.39843,2.900391 0.4,1.5 0.40039,3.698438 0.40039,5.898438 0,3.3 -0.39921,5.5 -0.69921,7 -0.8,1.8 -1.9,2.5 -3,2.5 -1.4,0 -2.2004,-1.1 -2.90039,-2.5 -0.70002,-1.5 -1.09961,-4.099219 -1.09961,-7.699219 0,-1.5 0.40039,-2.599219 0.40039,-3.699219 0,-1.1 0.2992,-2.200389 0.69922,-2.900391 0,-1.099997 0.6996,-1.50039 1.0996,-1.90039 0.4,-0.7 1.10079,-0.699219 1.80079,-0.699219 z m 300.29882,0 c 0.8,0 1.50039,0.399609 1.90039,1.099609 0.7,0.400003 1.10039,1.500391 1.4004,2.900391 0.39999,1.5 0.40039,3.698438 0.40039,5.898438 0,3.3 -0.40118,5.5 -0.70118,7 -0.8,1.8 -1.5,2.5 -3,2.5 -1.4,0 -2.19843,-1.1 -2.89843,-2.5 -0.7,-1.5 -1.10157,-4.099219 -1.10157,-7.699219 0,-1.5 0.40039,-2.599219 0.40039,-3.699219 0,-1.1 0.30118,-2.200389 0.70118,-2.900391 0,-1.099997 0.69961,-1.50039 1.09961,-1.90039 0.4,-0.7 1.09882,-0.699219 1.79882,-0.699219 z m 313.90039,4.798828 c -5.1,6.2 -9.49882,14.600788 -12.79882,25.300779 -3,10.6 -4.40039,22.29883 -4.40039,34.798826 0,12.1 1.40039,23.8 4.40039,34.5 3.3,11 7.69882,19.40156 12.79882,25.60156 L 724.5,170.35937 c -4.8,-6.2 -8.79843,-14.99961 -11.39843,-25.59961 -2.5,-10.7 -3.60157,-22.00039 -3.60157,-33.40039 0,-12.099996 1.10157,-23.099216 3.60157,-33.699216 2.6,-10.3 6.59843,-18.700779 11.39843,-25.300779 z m 302.50001,0 -0.6992,1.09961 c 4.7,6.6 8.4,15.000779 11,25.300779 2.5,10.6 4,21.59922 4,33.699216 0,11.4 -1.5,22.70039 -4,33.40039 -2.6,10.6 -6.3,19.39961 -11,25.59961 l 0.6992,1.10156 c 5.5,-6.2 9.9008,-14.60156 12.8008,-25.60156 3.3,-10.7 4.7988,-22.4 4.7988,-34.5 0,-12.499996 -1.4988,-24.198826 -4.7988,-34.798826 -2.9,-10.699991 -7.3008,-19.100779 -12.8008,-25.300779 z m -682.00001,0.300781 c -0.7,0 -1.49921,3.91e-4 -2.19921,0.400391 -0.7,0.7 -1.49961,1.499219 -2.59961,2.199219 l 1.09961,1.099609 c 0.8,-0.7 1.1,-1.5 1.5,-1.5 0.4,-0.3 0.69958,-0.298828 1.09961,-0.298828 h 0.40039 c 0.3,0.3 0.29882,0.699609 0.29882,1.099609 0,0.300001 10e-4,1.399219 -0.29882,2.199219 L 341,66.960937 h 2.5 l 1.5,-6.900391 c 0.4,-1.099997 0.70157,-1.899609 1.10157,-2.599609 0.4,-0.7 0.69961,-1.100781 1.09961,-1.800781 0.7,-0.8 1.09882,-1.500391 1.79882,-1.900391 0.4,-0.3 0.8,-0.298828 1.5,-0.298828 0.4,0 0.70157,-0.0012 1.10157,0.298828 0.4,0.4 0.39843,0.8 0.39843,1.5 v 1.5 c -0.4,0.3 -0.39882,1.101172 -0.79882,2.201172 l -0.70118,2.5 c -0.4,1.5 -0.39843,2.2 -0.39843,3 0,0.7 -10e-4,1.398828 0.79882,1.798828 0.3,0.7 0.7004,0.701172 1.4004,0.701172 0.79999,0 1.49921,-0.0012 2.19921,-0.701172 0.8,-0.4 1.50157,-1.098828 2.60157,-1.798828 L 356,63.359375 c -0.7,0.7 -1.1,1.40039 -1.5,1.40039 -0.3,0.4 -0.69961,0.400391 -1.09961,0.400391 h -0.29882 c -0.4,-0.4 -0.40039,-0.699606 -0.40039,-1.09961 0,-0.399999 3.9e-4,-1.099609 0.40039,-2.599609 l 1.09961,-4 c 0.3,-1.1 0.29882,-2.200389 0.29882,-2.900391 0,-0.799998 7.5e-4,-1.501171 -0.69921,-2.201171 -0.4,-0.4 -1.09922,-0.798829 -2.19922,-0.798829 -1.1,0 -1.80039,0.39961 -2.90039,1.09961 -0.8,0.8 -1.9,1.5 -3,3 0,-0.8 0.40039,-1.100391 0.40039,-1.900391 0,-0.7 -0.40118,-1.10039 -0.70118,-1.40039 -0.4,-0.8 -0.8,-0.798829 -1.5,-0.798829 z m 25.70118,1.900391 v 1.798828 h 19 v -1.798828 z m 0,6.199219 v 2.199219 h 19 v -2.199219 z m 480.69922,5.90039 c 0,0.300001 -0.40079,0.298829 -0.80079,0.298829 -0.3,0.4 -0.69961,0.800781 -1.09961,0.800781 -0.3,0.3 -0.29962,0.699608 -1.0996,1.099608 l 1.0996,0.70117 0.4004,-0.40039 c 0.26666,-0.2 0.49921,-0.4345 0.69921,-0.70117 h 0.40039 c 0,-0.399996 0.4004,-0.398437 0.4004,-0.398437 0.7,0 0.69921,0.399607 0.69921,1.099607 v 0.79883 c 0,0.3 0.002,0.70156 -0.39843,1.10156 l -1.40039,7.69922 h 2.19921 L 852.5,71.759764 c 0.3,-0.4 0.30079,-0.69961 0.30079,-1.09961 0.39999,-0.4 0.40078,-0.69961 0.80078,-1.09961 0.3,-0.4 0.29921,-0.69961 0.69922,-1.09961 L 855,67.759764 c 0.4,0 0.80079,-0.40039 0.80079,-0.40039 0.3,-0.399996 0.6996,-0.398437 1.0996,-0.398437 0.3,0 0.30118,0.398437 0.70118,0.398437 0,0.4 0.39843,0.70156 0.39843,1.10156 0,0.26667 -0.13177,0.49922 -0.39843,0.69922 v 1.09961 c 0,0.4 -0.40039,0.8 -0.40039,1.5 0,0.4 -0.30079,0.7 -0.30079,1.5 0,0.3 -0.40039,0.70039 -0.40039,1.40039 v 1.09961 0.80078 c 0.26667,0.2 0.40039,0.43255 0.40039,0.69922 0.3,0 0.30118,0.40039 0.70118,0.40039 h 0.69922 1.0996 c 0.26667,0 0.53412,-0.13372 0.80079,-0.40039 0.3,-0.4 0.6996,-0.39922 1.09961,-0.69922 0.29998,-0.4 0.6996,-0.79961 1.0996,-1.09961 l -1.0996,-0.80078 c 0,0.4 -0.4004,0.40078 -0.4004,0.80078 -0.26666,0.2 -0.49921,0.29883 -0.69921,0.29883 0,0.4 -0.40042,0.40039 -0.40039,0.40039 h -0.4004 -0.69921 v -0.69922 -0.80078 c 0,-0.3 0.40039,-0.69961 0.40039,-1.09961 0,-0.3 0.29882,-1.10039 0.29882,-1.40039 0,-0.8 0.4004,-1.1 0.4004,-1.5 0,-0.7 3.9e-4,-1.1 0.40039,-1.5 v -1.09961 c 0,-0.7 -0.40079,-1.400779 -0.80079,-1.800779 -0.3,-0.4 -1.09882,-0.699219 -1.79882,-0.699219 -0.7,10e-7 -1.50118,0.299219 -2.20118,0.699219 -0.7,0.7 -1.49921,1.499609 -2.19921,2.599609 l -0.40039,-0.39844 0.40039,-0.40039 v -0.30078 c 0,-0.799996 -0.40118,-1.099999 -0.70118,-1.499999 0,-0.4 -0.79961,-0.699219 -1.09961,-0.699219 z m -108.59961,4.699218 c -4.4,3.7 -7.70118,9.2 -10.20118,16.5 -2.6,7.4 -3.69921,15.399606 -3.69921,24.599606 0,8.8 1.09921,17.20156 3.69921,24.60156 2.5,7.3 5.80118,12.8 10.20118,16.5 L 742.5,151.35937 c -3.7,-3.7 -6.59882,-9.2 -8.79882,-16.5 -1.9,-7 -3,-15.1 -3,-23.5 0,-8.8 1.1,-16.499996 3,-23.499996 2.2,-7.3 5.09882,-12.8 8.79882,-16.5 z m 88.40039,0 -0.70118,1.09961 c 3.6,3.7 6.6004,9.2 8.4004,16.5 2.19997,7 2.90039,14.699996 2.90039,23.499996 0,8.4 -0.70039,16.5 -2.90039,23.5 -1.8,7.3 -4.8004,12.8 -8.4004,16.5 l 0.70118,1.10156 c 4.4,-3.7 7.69882,-9.2 10.29882,-16.5 2.5,-7.4 3.59961,-15.80156 3.59961,-24.60156 0,-9.2 -1.09961,-17.199606 -3.59961,-24.599606 -2.6,-7.3 -5.89882,-12.8 -10.29882,-16.5 z m 88.69922,0 c -4.4,3.7 -7.99922,9.2 -10.19922,16.5 -2.6,7.4 -4.10157,15.399606 -4.10157,24.599606 0,8.8 1.50157,17.20156 4.10157,24.60156 2.2,7.3 5.79921,12.8 10.19922,16.5 l 0.80078,-1.10156 c -4.1,-3.7 -6.60078,-9.2 -8.80078,-16.5 -1.9,-7 -3.00001,-15.1 -3,-23.5 -10e-6,-8.8 1.09999,-16.499996 3,-23.499996 2.19997,-7.3 4.70078,-12.8 8.80078,-16.5 z m 88.00001,0 -0.6992,1.09961 c 3.7,3.7 6.5988,9.2 8.7988,16.5 1.8,7 2.9004,14.699996 2.9004,23.499996 0,8.4 -1.1004,16.5 -2.9004,23.5 -2.2,7.3 -4.7988,12.8 -8.7988,16.5 l 0.6992,1.10156 c 4.4,-3.7 7.7008,-9.2 10.3008,-16.5 2.6,-7.4 4,-15.80156 4,-24.60156 0,-9.2 -1.4,-17.199606 -4,-24.599606 -2.6,-7.3 -5.9008,-12.8 -10.3008,-16.5 z m -191.40041,4.40039 -7.29882,4.40039 0.69922,1.09961 c 1.1,-0.3 1.8996,-1.10039 2.5996,-1.40039 0.4,-0.4 1.09961,-0.40039 1.09961,-0.40039 0.4,0 0.70118,3.9e-4 0.70118,0.40039 0.4,0 0.40039,0.30117 0.40039,0.70117 v 12.79883 c 0,0.8 -3.9e-4,1.5 -0.40039,1.5 0,0.4 -0.30079,0.70117 -0.30079,0.70117 -0.4,0.4 -0.79961,0.39883 -1.0996,0.79883 h -2.59961 v 1.09961 h 11.69921 v -1.09961 h -2.19921 c -0.3,0 -0.69961,-0.40039 -1.09961,-0.40039 -0.3,0 -0.70118,-0.39844 -0.70118,-0.39844 -0.26666,-0.2 -0.40039,-0.4345 -0.40039,-0.70117 v -1.5 -13.5 -4.09961 z m 177.09961,0 -7.29882,4.40039 0.69921,1.09961 c 0.8,-0.3 1.90118,-1.10039 2.20118,-1.40039 0.8,-0.4 1.1,-0.40039 1.5,-0.40039 0.26666,0 0.49922,0.13372 0.69922,0.40039 v 0.70117 12.79883 1.5 c 0,0.4 -0.29922,0.70117 -0.69922,0.70117 0,0.4 -0.40157,0.39883 -1.10157,0.79883 h -2.59961 v 1.09961 h 11.80079 v -1.09961 h -1.90039 c -0.70002,0 -1.1004,-0.40039 -1.4004,-0.40039 0,0 -0.39882,-0.39844 -0.79882,-0.39844 0,-0.2 -0.10078,-0.4345 -0.30078,-0.70117 v -1.5 -13.5 -4.09961 z m -879.59961,0.40039 c 0,0 -0.39921,0.40039 -0.69921,0.40039 -0.4,0.3 -0.79961,0.29922 -1.09961,0.69922 -0.4,0.4 -0.40157,0.69961 -1.10157,1.09961 l 1.10157,0.70117 c 0,-0.3 0.29882,-0.30117 0.29882,-0.70117 0.4,0 0.40079,-0.40039 0.80079,-0.40039 L 112.5,76.560544 h 0.40039 c 0.7,0 0.70118,0.29922 0.70118,0.69922 v 1.09961 c 0,0 -8.2e-4,0.40156 -0.30078,1.10156 l -1.5,7.69922 H 114 l 1.10157,-6.19922 c 0.4,-0.4 0.39843,-0.80156 0.39843,-1.10156 0.3,-0.4 0.30118,-0.79883 0.70118,-0.79883 0.4,-0.3 0.39921,-0.69961 0.69921,-1.09961 0.4,-0.3 0.40079,-0.70117 0.80079,-0.70117 0.3,-0.4 0.69921,-0.39922 0.69921,-0.69922 h 0.70118 c 0.53333,0 0.89961,0.0988 1.09961,0.29883 0,0.4 0.40039,0.80156 0.40039,1.10156 0,0 -3.9e-4,0.39883 -0.40039,0.79883 v 1.09961 c 0,0.3 -0.30079,0.70156 -0.30079,1.10156 0,0.7 -0.40039,1.09844 -0.40039,1.39844 0,0.8 -0.39843,1.1 -0.39843,1.5 v 1.10156 1.09961 l 0.39843,0.40039 c 0.26667,0.2 0.50118,0.43256 0.70118,0.69922 H 121 h 1.10157 c 0.3,0 0.2992,-0.40039 0.69922,-0.40039 0.39999,-0.3 0.6996,-0.29922 1.0996,-0.69922 L 125,84.960934 l -1.09961,-0.70117 c 0,0.3 -0.40039,0.30117 -0.40039,0.70117 -0.3,0 -0.29924,0.39844 -0.69921,0.39844 0,0 -0.4004,7.8e-4 -0.4004,0.30078 h -0.29882 c -0.26667,0 -0.53415,-0.10078 -0.80078,-0.30078 v -0.39844 -0.70117 c 0,-0.4 0.40039,-0.79961 0.40039,-1.09961 0,-0.8 0.40039,-1.1 0.40039,-1.5 0,-0.7 0.29882,-1.10078 0.29882,-1.80078 0,-0.4 3.8e-4,-0.8 0.4004,-1.5 v -0.69922 c 0,-1.1 -0.39922,-1.50039 -0.69922,-1.90039 -0.4,-0.7 -1.10039,-0.69922 -1.90039,-0.69922 -0.7,0 -1.40118,-7.8e-4 -2.20118,0.69922 -0.7,0.4 -1.39923,1.10117 -2.19921,2.20117 H 115.5 l 0.30079,-0.30078 v -0.80078 c 0,-0.3 -0.29922,-1.09844 -0.69922,-1.39844 0,-0.4 -0.70157,-0.40039 -1.10157,-0.40039 z m 91.30079,15.79883 -7.30079,4.40039 0.70118,1.09961 c 0.7,-0.4 1.79921,-1.1 2.19922,-1.5 0.69999,-0.4 1.09999,-0.39844 1.5,-0.39844 0.2,0 0.43255,0.13177 0.69921,0.39844 v 0.70117 12.900386 1.39844 c 0,0.4 -0.39921,0.80078 -0.69921,0.80078 0,0.3 -0.39961,0.29922 -1.09961,0.69922 H 198 v 1.10156 h 11.30079 v -1.10156 H 207.5 c -0.4,0 -1.09961,-0.39844 -1.09961,-0.39844 -0.4,0 -0.69921,-0.30078 -0.69921,-0.30078 -0.26667,-0.26666 -0.4004,-0.53411 -0.40039,-0.80078 -0.4,-0.3 -0.4004,-0.69844 -0.4004,-1.39844 V 94.859374 c 0,-1.8 3.9e-4,-2.9 0.4004,-4 z m 57.19921,0 c -1.1,0 -2.59921,0.30117 -3.69921,0.70117 -1.1,0.4 -1.8,1.09922 -2.5,2.19922 -0.4,1.1 -0.80079,2.20078 -0.80079,3.30078 0,0.7 3.9e-4,1.49922 0.4004,2.19922 0.4,0.4 0.6996,1.099996 1.0996,1.499996 0.7,0.7 1.50118,1.10078 2.20118,1.80078 0.7,0.4 1.49882,1.1 1.79882,1.5 0.4,0.3 0.79961,0.70039 1.09961,1.40039 0,0.4 0.40039,1.1 0.40039,1.5 0,1.5 -0.4,2.59883 -1.5,3.29883 -0.7,0.7 -1.79882,1.09961 -3.29882,1.09961 -1.1,0 -2.2,-0.39922 -2.5,-0.69922 -0.8,-0.8 -1.10157,-1.9 -1.10157,-3 h -1.5 l -0.69921,4.40039 c 0.69999,0 1.80039,0.40039 2.90039,0.40039 1.1,0.4 2.20039,0.39844 2.90039,0.39844 1.5,0 2.99961,-0.39883 4.09961,-0.79883 1.1,-0.7 1.8,-1.40117 2.5,-2.20117 0.4,-1.1 0.79882,-2.19961 0.79882,-3.59961 0,-0.8 0.002,-1.49922 -0.39843,-2.19922 0,-0.4 -0.70157,-1.10039 -1.10157,-1.90039 -0.4,-0.3 -1.49924,-1.10078 -2.19921,-1.80078 -1.5,-0.699996 -2.19961,-1.499216 -2.59961,-2.199216 -0.3,-0.4 -0.70118,-1.10078 -0.70118,-1.80078 0,-0.8 0.40118,-1.49922 0.70118,-2.19922 0.4,-0.8 0.8,-1.1 1.5,-1.5 0.7,-0.4 1.49921,-0.40039 2.19921,-0.40039 0.7,0 1.50079,3.9e-4 1.80079,0.40039 0.4,0 0.79958,0.39961 1.09961,1.09961 0,0.4 0.40039,1.10078 0.40039,1.80078 h 1.5 l 0.69921,-4 c -1.1,-0.4 -1.7996,-0.40117 -2.5996,-0.70117 z m -110.69921,0.30078 -0.80079,3.30078 H 152.5 l 0.70118,-3.30078 z m -53.599618,5.5 v 1.5 l 21.699228,28.599606 -22.000009,30.09961 v 1.40039 H 135.30079 L 136,146.96093 h -2.19921 c -0.4,2.9 -1.10079,4.7 -1.80079,5.5 -0.4,1.1 -1.49961,1.39844 -2.59961,1.39844 h -27.5 l 20.5,-27.5 v -2.19922 L 103.70118,98.859374 h 24.59961 c 1.5,0 2.60078,0.80039 3.30078,1.900386 0.7,1.4 1.5,2.9 1.5,5.5 h 2.19922 v -9.599606 z m 425.699228,0 c -2.9,0.8 -5.5004,2.19922 -6.9004,5.199216 -1.9,2.5 -2.5996,5.8 -2.5996,9.5 0,4 0.6996,7.30039 2.5996,9.90039 1.4,2.6 4.00039,4.39961 6.9004,5.09961 l 0.40039,-1.09961 c -2.6,-0.7 -4,-2.49922 -5.5,-4.69922 -1.1,-2.6 -1.80079,-5.50117 -1.80079,-9.20117 0,-3.7 0.70079,-6.59883 1.80079,-8.79883 1.5,-2.599996 2.9,-4.000776 5.5,-4.800776 z m 61.30078,0 -0.80078,1.09961 c 2.6,0.8 4.39998,2.20078 5.5,4.800776 1.49999,2.2 1.90039,5.09883 1.90039,8.79883 0,3.7 -0.40042,6.60117 -1.90039,9.20117 -1.10001,2.2 -2.89961,3.99922 -5.09961,4.69922 l 0.40039,1.09961 c 2.9,-0.7 5.09843,-2.49961 6.89843,-5.09961 1.5,-2.6 2.60157,-5.90039 2.60157,-9.90039 0,-3.7 -1.10157,-7 -2.60157,-9.5 -1.8,-2.999996 -3.99843,-4.399216 -6.89843,-5.199216 z M 147.40039,97.460934 147,98.160154 c 0.7,0.4 1.1,0.40039 1.5,0.40039 0,0.3 0.30079,0.69961 0.30079,1.09961 0,0.3 -0.30079,1.099216 -0.30079,2.199216 l -1.5,5.10156 c 0,1.5 -0.39843,2.59883 -0.39843,3.29883 0,0.7 0.39882,1.50078 0.79882,1.80078 0.3,0.4 0.7004,0.79883 1.4004,0.79883 0.79999,0 1.49921,-0.39883 2.19921,-0.79883 0.8,-0.3 1.50157,-1.10117 2.60157,-2.20117 l -0.70118,-0.69922 c -0.8,0.7 -1.50039,1.1 -1.90039,1.5 -0.2,0.2 -0.43255,0.30078 -0.69921,0.30078 -0.4,0 -0.69922,-7.8e-4 -0.69922,-0.30078 0,0 -0.40039,-0.40078 -0.40039,-0.80078 0,-0.7 0.40039,-1.4 0.40039,-2.5 l 2.19922,-9.898436 H 151 Z M 11,98.859374 c -1.4999998,0 -2.9996094,0.40078 -4.0996094,0.80078 -1.1,0.3 -1.7992188,1.099216 -2.1992188,2.199216 -0.7,1.1 -1.0996094,2.20078 -1.0996094,3.30078 0,0.7 0.3984376,1.39922 0.3984376,2.19922 0.3999999,0.3 0.6999999,1.10039 1.5,1.40039 0.2999999,0.8 1.1007812,1.10039 1.8007812,1.90039 0.7,0.3 1.5007818,1.10039 1.800781,1.40039 0.8,0.4 0.79961,0.8 1.0996098,1.5 0.4,0.4 0.40039,1.1 0.40039,1.5 0,1.4 -0.401562,2.49883 -1.1015618,3.29883 -1.1000011,0.7 -2.1988284,1.10156 -3.2988284,1.10156 -1.5,0 -2.2003906,-0.40078 -2.9003906,-0.80078 C 2.5007812,117.96015 2.5,116.85976 2.5,115.75976 H 1.1015624 L 0,120.16015 c 0.6999999,0 1.8003906,0.40039 2.9003906,0.40039 1.1,0.3 2.2007812,0.29883 3.3007812,0.29883 1.1,0 2.59922,-0.29922 3.6992184,-0.69922 1.0999998,-0.7 1.7999998,-1.49922 2.4999998,-2.19922 0.8,-1.1 1.09961,-2.20117 1.09961,-3.70117 0,-0.7 -0.298828,-1.39922 -0.298828,-2.19922 -0.4,-0.3 -0.8,-1.10078 -1.5,-1.80078 -0.4,-0.4 -1.101172,-1.09883 -2.2011718,-1.79883 -1.1000011,-0.8 -2.1996096,-1.50117 -2.5996096,-2.20117 -0.3,-0.4 -0.298828,-1.10039 -0.2988282,-1.90039 0,-0.7 -0.00117,-1.39922 0.2988282,-2.19922 0.4,-0.7 0.8,-1.10039 1.5,-1.40039 0.6999996,-0.4 1.5011716,-0.40039 2.2011714,-0.40039 0.7,0 1.498828,3.9e-4 1.798828,0.40039 0.4,0 0.79961,0.29961 1.09961,1.09961 0,0.3 0.40039,1.10078 0.40039,1.80078 h 1.5 l 0.701172,-3.999996 c -0.7,-0.4 -1.801562,-0.40078 -2.601562,-0.80078 z m 742.80079,0 -7.30079,4.400386 0.70118,1.09961 c 1.1,-0.3 1.89921,-1.09844 2.19921,-1.39844 0.8,-0.4 1.1,-0.40039 1.5,-0.40039 0.4,0 0.70118,3.9e-4 0.70118,0.40039 0,0 0.39843,0.29922 0.39843,0.69922 v 12.80078 c 0,0.8 -0.39843,1.5 -0.39843,1.5 0,0.4 -0.30078,0.69961 -0.30078,1.09961 -0.40001,0 -0.8,3.9e-4 -1.5,0.40039 h -2.19922 v 1.09961 H 759 v -1.09961 h -1.89843 c -0.3,0 -0.70157,-0.40039 -1.10157,-0.40039 -0.3,0 -0.69924,-0.40039 -0.69921,-0.40039 -0.26667,-0.2 -0.4004,-0.43255 -0.4004,-0.69922 -0.3,-0.4 -0.29882,-0.7 -0.29882,-1.5 v -13.5 c 0,-1.5 -0.001,-3.001556 0.29882,-4.101556 z m 177.0996,0 -7.29882,4.400386 0.69922,1.09961 c 0.8,-0.3 1.49921,-1.09844 2.19921,-1.39844 0.8,-0.4 1.1,-0.40039 1.5,-0.40039 0.26667,0 0.50118,0.13373 0.70118,0.40039 v 0.69922 12.80078 1.5 c -0.3,0.4 -0.30118,0.69961 -0.70118,1.09961 -0.4,0 -0.69961,3.9e-4 -1.09961,0.40039 h -2.5996 v 1.09961 h 11.80078 v -1.09961 h -1.90039 c -0.7,0 -1.10041,-0.40039 -1.40039,-0.40039 -0.40001,0 -0.40079,-0.40039 -0.80079,-0.40039 0,-0.3 -0.29882,-0.29922 -0.29882,-0.69922 v -1.5 -13.5 -4.101556 z m 220.00001,0 -7.6992,4.400386 0.7988,1.09961 c 1.1,-0.3 1.8,-1.09844 2.5,-1.39844 0.4,-0.4 1.1,-0.40039 1.5,-0.40039 0,0 0.4004,3.9e-4 0.4004,0.40039 0.3,0 0.3008,0.29922 0.3008,0.69922 v 12.80078 c 0,0.8 -8e-4,1.5 -0.3008,1.5 0,0.4 -4e-4,0.69961 -0.4004,1.09961 -0.4,0 -0.6996,3.9e-4 -1.0996,0.40039 h -2.5996 v 1.09961 h 11.8008 v -1.09961 h -2.2012 c -0.4,0 -0.7996,-0.40039 -1.0996,-0.40039 -0.4,0 -0.8008,-0.40039 -0.8008,-0.40039 -0.2,-0.2 -0.2988,-0.43255 -0.2988,-0.69922 v -1.5 -13.5 -4.101556 z m -88,2.601556 v 8.79883 H 1054.5 v 2.20117 h 8.4004 v 9.19922 h 2.2012 v -9.19922 h 8.7988 v -2.20117 h -8.7988 v -8.79883 z m -897.19922,0.69922 v 2.19922 h 19.40039 v -2.19922 z m 56.09961,0 v 2.19922 h 19.40039 v -2.19922 z m 49.5,0.40039 -0.4004,2.59961 h 2.20118 l 0.79882,-2.59961 z m 405.90039,0.40039 -1.5,1.39844 7,7 -7,7.30078 1.09961,1.5 7.40039,-7.30078 6.90039,7.30078 1.89843,-1.5 -7,-7.30078 7,-7 -1.5,-1.39844 -7.29882,6.89844 z m -377.30079,1.09961 c -1.1,0.7 -1.80039,1.10039 -2.90039,1.40039 -0.8,0.8 -1.9,1.09844 -3,1.89844 0.4,0 0.40039,0.30078 0.40039,0.30078 0,0.26667 0.13373,0.53412 0.4004,0.80078 0.69999,-0.8 1.40078,-1.10156 1.80078,-1.10156 0.4,-0.4 0.69961,-0.39844 1.09961,-0.39844 h 0.40039 c 0.2,0.26667 0.29882,0.49922 0.29882,0.69922 v 8.5 0.69922 c -0.3,0 -0.29882,0.40039 -0.29882,0.40039 v 0.30078 l -0.40039,0.40039 h -0.40039 -0.69922 c 0,0.4 -0.40118,0.39844 -0.70118,0.39844 h -1.0996 v 1.10156 h 9.5 v -1.10156 h -1.5 -0.69922 c -0.26667,-0.26667 -0.50118,-0.39844 -0.70118,-0.39844 H 301 v -0.40039 c -0.4,0 -0.39843,-0.30078 -0.39843,-0.30078 v -0.40039 -0.69922 -8.80078 -1.09961 -1.09961 -1.09961 z m 228.80079,1.09961 c -0.7,0 -1.50118,0.29922 -2.20118,0.69922 -0.4,0.7 -1.49924,1.10117 -2.19921,2.20117 L 525,109.16015 c 0.8,-0.7 1.1,-1.5 1.5,-1.5 0.4,-0.3 0.70157,-0.69922 1.10157,-0.69922 0.4,0 0.69922,0.39844 0.69922,0.39844 -10e-6,0.3 0.40039,0.70156 0.40039,1.10156 0,0.3 -0.40042,1.09922 -0.40039,2.19922 l -2.5,9.90039 h 2.90039 l 1.5,-6.59961 c 0,-1.1 0.29921,-1.90156 0.69921,-2.60156 0.4,-0.7 0.7,-1.49922 1.5,-2.19922 0.3,-0.7 1.1004,-1.1 1.4004,-1.5 0.79998,-0.3 1.09999,-0.30078 1.5,-0.30078 0.39999,0 1.0996,7.8e-4 1.0996,0.30078 0.4,0.4 0.4004,0.8 0.4004,1.5 v 1.5 c -10e-6,0.3 -0.4004,1.10078 -0.4004,1.80078 l -1.79882,8.09961 h 2.5 l 1.5,-6.59961 c 0.4,-1.1 0.69961,-1.90156 1.09961,-2.60156 0.4,-0.7 0.6996,-1.49922 1.09961,-2.19922 0.7,-0.7 1.10078,-1.1 1.80078,-1.5 0.4,-0.3 0.79961,-0.30078 1.09961,-0.30078 0.8,0 1.1,7.8e-4 1.5,0.30078 0,0.4 0.40039,0.8 0.40039,1.5 0,0.4 -3.9e-4,0.69961 -0.40039,1.09961 0,0.7 -4.1e-4,1.50117 -0.40039,2.20117 l -0.69922,2.89844 c -0.4,1.1 -0.40039,2.2 -0.40039,3 0,0.7 3.9e-4,1.40078 0.40039,1.80078 0.4,0.4 1.09882,0.69922 1.79882,0.69922 0.8,0 1.50118,-0.29922 2.20118,-0.69922 0.8,-0.4 1.4992,-1.09922 2.19922,-2.19922 l -0.69922,-0.70117 c -0.7,0.7 -1.1,1.10039 -1.5,1.40039 -0.3,0.4 -0.70157,0.40039 -1.10157,0.40039 -0.2,0 -0.43258,-0.13372 -0.69921,-0.40039 v -0.69922 c -10e-6,-0.4 3.9e-4,-1.50156 0.40039,-2.60156 l 1.09961,-4 c 0.29998,-1.1 0.30078,-2.19844 0.30078,-2.89844 0,-1.1 -0.30118,-1.90117 -0.70118,-2.20117 -0.7,-0.8 -1.49921,-0.79883 -2.19921,-0.79883 -1.1,0 -1.8004,-0.001 -2.90039,0.79883 -0.80003,0.7 -1.89961,1.40039 -2.59961,2.90039 v -0.40039 c 0,-1.1 -0.40118,-2.2 -0.70118,-2.5 -0.8,-0.8 -1.49924,-0.79883 -2.19921,-0.79883 -1.10001,0 -2.20002,-0.001 -3,0.79883 -1.10001,0.7 -2.2004,1.80078 -2.9004,3.30078 H 530.5 c 0.4,-0.8 0.40039,-1.10039 0.40039,-1.90039 0,-0.7 -3.9e-4,-1.40078 -0.40039,-1.80078 -0.3,-0.4 -1.09882,-0.69922 -1.79882,-0.69922 z m 40.29882,0 c -0.7,0 -1.39925,0.29922 -2.19921,0.69922 -0.70002,0.4 -1.39922,1.10117 -2.19922,2.20117 l 0.79882,1.09961 c 0.7,-0.7 1.1004,-1.5 1.4004,-1.5 0.39999,-0.3 0.7996,-0.69922 1.0996,-0.69922 0.4,0 0.40079,0.39844 0.80079,0.39844 v 1.10156 c 0,0.3 -4.1e-4,1.09922 -0.40039,2.19922 l -2.19922,9.90039 h 2.59961 L 570.5,113.96093 c 0,-1.1 0.40118,-1.90156 0.70118,-2.60156 0.4,-0.7 0.8,-1.49922 1.5,-2.19922 0.4,-0.7 1.1,-1.1 1.5,-1.5 0.3,-0.3 1.10039,-0.30078 1.40039,-0.30078 0.4,0 0.79961,7.8e-4 1.09961,0.30078 0.4,0.4 0.40039,0.8 0.40039,1.5 v 1.09961 c 0,0.7 -0.40118,1.50117 -0.70118,2.20117 L 576,115.35937 c -0.4,1.1 -0.69924,2.2 -0.69921,3 0,0.7 0.29921,1.40078 0.69921,1.80078 0.4,0.4 0.7,0.69922 1.5,0.69922 1.1,0 1.8,-0.29922 2.5,-0.69922 l 2.20118,-2.19922 -0.70118,-0.70117 c -0.7,0.7 -1.49882,1.10039 -1.79882,1.40039 -0.26667,0.26667 -0.53412,0.40039 -0.80079,0.40039 -0.3,0 -0.69921,-3.9e-4 -0.69921,-0.40039 0,0 -0.40042,-0.29922 -0.40039,-0.69922 -10e-6,-0.4 0.40039,-1.50156 0.40039,-2.60156 l 1.09961,-4 c 0.39999,-1.1 0.69921,-2.19844 0.69921,-2.89844 0,-1.1 -0.29961,-1.90117 -1.09961,-2.20117 -0.3,-0.8 -1.09921,-0.79883 -2.19921,-0.79883 -0.7,0 -1.8004,-0.001 -2.90039,0.79883 -0.7,0.7 -1.8004,1.80078 -2.9004,3.30078 0.3,-0.8 0.30079,-1.50039 0.30079,-1.90039 0,-0.7 -0.30118,-1.40078 -0.70118,-1.80078 -0.4,-0.4 -0.7,-0.69922 -1.5,-0.69922 z m 75.20118,0 c -0.7,0 -1.50118,0.29922 -2.20118,0.69922 -0.7,0.7 -1.49961,1.10117 -2.59961,2.20117 l 1.09961,1.09961 c 0.8,-0.7 1.1,-1.5 1.5,-1.5 0.4,-0.3 0.70157,-0.69922 1.10157,-0.69922 0.4,0 0.39843,0.39844 0.39843,0.39844 0.3,0.3 0.30076,0.70156 0.30079,1.10156 0,0.3 -7.9e-4,1.09922 -0.30079,2.19922 l -2.19921,9.90039 h 2.5 l 1.5,-6.59961 c 0.39999,-1.1 0.6996,-1.90156 1.0996,-2.60156 0,-0.7 0.69961,-1.49922 1.09961,-2.19922 0.7,-0.7 1.10075,-1.1 1.80079,-1.5 0.39999,-0.3 0.7996,-0.30078 1.0996,-0.30078 0.8,0 1.1,7.8e-4 1.5,0.30078 0,0.4 0.4004,0.8 0.4004,1.5 v 1.5 c -0.4,0.3 -0.40079,1.10078 -0.80079,1.80078 l -1.79882,8.09961 h 2.90039 l 1.5,-6.59961 c 0,-1.1 0.39922,-1.90156 0.69922,-2.60156 0.39999,-0.7 0.79998,-1.49922 1.5,-2.19922 0.39999,-0.7 1.09999,-1.1 1.5,-1.5 0.29998,-0.3 1.10039,-0.30078 1.40039,-0.30078 0.4,0 0.79958,7.8e-4 1.09961,0.30078 0.39999,0.4 0.40039,0.8 0.40039,1.5 v 1.09961 c 0,0.7 -0.40118,1.50117 -0.70118,2.20117 l -0.39843,2.89844 c -0.4,1.1 -0.70118,2.2 -0.70118,3 0,0.7 0.30118,1.40078 0.70118,1.80078 0.4,0.4 0.7,0.69922 1.5,0.69922 1.1,0 1.79921,-0.29922 2.19922,-0.69922 0.7,-0.4 1.39998,-1.09922 2.5,-2.19922 l -1.09961,-0.70117 c -0.3,0.7 -1.10043,1.10039 -1.40039,1.40039 -0.40001,0.4 -0.80079,0.40039 -0.80079,0.40039 -0.3,0 -0.69924,-3.9e-4 -0.69921,-0.40039 -0.40001,0 -0.4004,-0.29922 -0.4004,-0.69922 0,-0.4 0.4004,-1.50156 0.4004,-2.60156 l 1.0996,-4 c 0.4,-1.1 0.4004,-2.19844 0.4004,-2.89844 -10e-6,-1.1 -7.9e-4,-1.90117 -0.80079,-2.20117 -0.3,-0.8 -1.09922,-0.79883 -2.19921,-0.79883 -0.70002,0 -1.8,-0.001 -2.5,0.79883 -1.10001,0.7 -1.90001,1.40039 -3,2.90039 v -0.40039 c -10e-6,-1.1 7.8e-4,-2.2 -0.69922,-2.5 -0.4,-0.8 -1.10118,-0.79883 -2.20118,-0.79883 -1.1,0 -1.80039,-0.001 -2.90039,0.79883 -1.1,0.7 -1.9,1.80078 -3,3.30078 0,-0.8 0.40039,-1.10039 0.40039,-1.90039 0,-0.7 -0.39921,-1.40078 -0.69921,-1.80078 -0.4,-0.4 -0.8,-0.69922 -1.5,-0.69922 z m 443.69922,0 c -0.8,0 -1.4992,0.29922 -2.1992,0.69922 -0.8,0.4 -1.5012,1.10117 -2.2012,2.20117 l 0.7012,1.09961 c 0.7,-0.7 1.1,-1.5 1.5,-1.5 0.3,-0.3 0.6996,-0.69922 1.0996,-0.69922 0.3,0 0.2992,0.39844 0.6992,0.39844 v 1.10156 c 0,0.3 0,1.09922 -0.3984,2.19922 l -2.2012,9.90039 h 3 l 1.4004,-6.59961 c 0,-1.1 0.4008,-1.90156 0.8008,-2.60156 0.3,-0.7 0.6984,-1.49922 1.3984,-2.19922 0.4,-0.7 1.1,-1.1 1.5,-1.5 0.4,-0.3 1.1,-0.30078 1.5,-0.30078 0.3,0 0.7016,7.8e-4 1.1016,0.30078 0.3,0.4 0.2988,0.8 0.2988,1.5 v 1.09961 c 0,0.7 -0.2992,1.50117 -0.6992,2.20117 l -0.4004,2.89844 c -0.3,1.1 -0.6992,2.2 -0.6992,3 0,0.7 0.3992,1.40078 0.6992,1.80078 0.4,0.4 0.8,0.69922 1.5,0.69922 1.1,0 1.7996,-0.29922 2.5996,-0.69922 0.3,-0.4 1.4012,-1.09922 2.2012,-2.19922 l -0.8008,-0.70117 c -0.7,0.7 -1.4008,1.10039 -1.8008,1.40039 -0.2667,0.26667 -0.4992,0.40039 -0.6992,0.40039 -0.4,0 -0.8008,-3.9e-4 -0.8008,-0.40039 0,0 -0.2988,-0.29922 -0.2988,-0.69922 0,-0.4 0.2992,-1.50156 0.6992,-2.60156 l 0.7012,-4 c 0.4,-1.1 0.7988,-2.19844 0.7988,-2.89844 0,-1.1 -0.3996,-1.90117 -1.0996,-2.20117 -0.4,-0.8 -1.0992,-0.79883 -2.1992,-0.79883 -0.8,0 -1.9,-0.001 -3,0.79883 -0.7,0.7 -1.8004,1.80078 -2.9004,3.30078 0.4,-0.8 0.4004,-1.50039 0.4004,-1.90039 0,-0.7 -0.4008,-1.40078 -0.8008,-1.80078 -0.3,-0.4 -0.7004,-0.69922 -1.4004,-0.69922 z m -581.59961,0.30078 c -1.40002,0 -2.49961,-0.001 -3.59961,0.79883 -1.1,0.3 -1.9,1.10117 -3,2.20117 -0.7,1.1 -1.10079,2.19961 -1.80079,3.59961 -0.4,1.1 -0.40039,2.59922 -0.40039,3.69922 0,1.5 0.40157,2.90117 1.10157,3.70117 0.8,1.1 1.89882,1.39844 3.29882,1.39844 1.1,0 2.20079,-0.29922 3.30079,-0.69922 1.1,-0.4 2.2,-1.49961 3,-2.59961 l -0.80079,-0.70117 c -1.1,0.7 -1.79921,1.50078 -2.19921,1.80078 -0.7,0 -1.8,0.40039 -2.5,0.40039 -0.8,0 -1.50043,-0.40117 -1.90039,-0.70117 -0.30001,-0.8 -0.69922,-1.49961 -0.69922,-2.59961 0,-1.5 0.39921,-2.90039 0.69922,-4.40039 0.79999,-1.5 1.09921,-2.59922 2.19921,-3.69922 0.8,-0.7 1.9,-1.09961 3,-1.09961 0.3,0 0.70118,3.9e-4 0.70118,0.40039 0.4,0 0.69921,0.39922 0.69921,0.69922 v 1.90039 h 1.9004 L 510,105.85937 c -1.1,-0.4 -2.59924,-0.39844 -3.69921,-0.39844 z m -462.699228,1.5 v 2.19922 H 63 v -2.19922 z m 407.156258,0 v 2.19922 h 19.40039 v -2.19922 z m 157.14257,0 v 2.19922 h 19.4004 v -2.19922 z m -339.19921,0.39844 v 1.10156 h 1.09961 v 0.69922 0.40039 1.09961 c 0,0.7 -0.30079,1.10039 -0.30079,1.40039 0,0.8 -0.39843,1.1 -0.39843,1.5 0,0.7 -0.40039,1.1 -0.40039,1.5 v 1.40039 c -0.3,0.4 -0.30079,0.79883 -0.30079,0.79883 0,0.3 7.9e-4,0.69961 0.30079,1.09961 0,0 3.9e-4,0.30117 0.40039,0.70117 0,0 0.39843,3.9e-4 0.39843,0.40039 h 1.10157 0.69922 c 0.4,0 0.69921,-0.40039 0.69921,-0.40039 0.4,-0.4 0.80157,-0.40117 1.10157,-0.70117 l 1.09961,-1.09961 -0.70118,-0.79883 c -0.26666,0.26667 -0.49924,0.53216 -0.69921,0.79883 l -0.4004,0.30078 c -0.4,0 -0.39921,0.40039 -0.69921,0.40039 h -0.40039 c 0,0 -0.4004,-3.9e-4 -0.4004,-0.40039 l -0.29882,-0.30078 c 0,-0.4 -10e-4,-0.79883 0.29882,-0.79883 v -1.10156 l 1.9004,-8 H 272 Z m 502.69921,2.90039 v 2.20117 h 19.5 v -2.20117 z m 100.9004,0 v 2.20117 h 19 v -2.20117 z m 74.80078,0 v 2.20117 H 966.5 v -2.20117 z m 163.89843,0 v 2.20117 h 19 v -2.20117 z m -834.59961,1.09961 v 1.80078 H 290 v -1.80078 z m 523.59961,0 v 1.10156 h 28.30079 v -1.10156 z m 177.10157,0 v 1.10156 h 28.29883 v -1.10156 z m -933.500008,2.20117 v 2.19922 H 63 v -2.19922 z m 407.156258,0 v 2.19922 h 19.40039 v -2.19922 z m 157.14257,0 v 2.19922 h 19.4004 v -2.19922 z m -198.40039,1.5 c -1.1,0 -1.79843,0.29922 -2.89843,0.69922 -0.7,0.4 -1.50118,1.10078 -2.20118,1.80078 -0.4,1.1 -1.1,2.19922 -1.5,3.69922 0,1.5 -0.29882,2.89961 -0.29882,5.09961 0,3.3 0.69882,6.30156 1.79882,8.10156 1.1,1.8 2.60079,2.59961 4.80079,2.59961 2.5,0 4,-1.1 5.5,-3 1.1,-1.8 1.79882,-4.70039 1.79882,-8.40039 0,-3.7 -0.69882,-6.19961 -1.79882,-8.09961 -1.1,-1.8 -3.00118,-2.5 -5.20118,-2.5 z M 19,115.35937 c 0,0 -0.299219,0.40039 -0.699219,0.40039 -0.4,0.4 -0.699609,0.40117 -1.099609,0.70117 0,0.4 -0.39961,0.79961 -1.09961,1.09961 l 1.09961,0.79883 c 0,-0.4 0.40039,-0.39883 0.40039,-0.79883 0.3,0 0.299219,-0.30078 0.699219,-0.30078 0,0 0.400391,-3.9e-4 0.400391,-0.40039 H 19 c 0.8,0 0.800781,0.40117 0.800781,0.70117 v 1.09961 c 0,0.4 -3.91e-4,0.79961 -0.400391,1.09961 l -1.5,7.70117 h 2.201172 l 1.09961,-6.20117 c 0.266666,-0.26667 0.40039,-0.49922 0.40039,-0.69922 0.4,-0.4 0.399219,-0.79961 0.699219,-1.09961 0.4,-0.4 0.400781,-0.80156 0.800781,-1.10156 0.2,-0.26667 0.432552,-0.53216 0.699219,-0.79883 0.4,-0.3 0.699219,-0.30078 0.699219,-0.30078 0.4,-0.4 0.801562,-0.40039 1.101562,-0.40039 0.266667,0 0.532162,0.13372 0.798828,0.40039 0,0.3 0.300782,0.69961 0.300782,1.09961 v 0.70117 c -0.3,0.4 -0.300782,0.69961 -0.300782,1.09961 0,0.4 -0.40039,0.7 -0.40039,1.5 0,0.3 -0.398438,0.70039 -0.398438,1.40039 0,0.4 -0.300781,0.79961 -0.300781,1.09961 v 1.09961 1.09961 c 0.3,0 0.300781,0.40078 0.300781,0.80078 0.4,0 0.398828,0.30078 0.798828,0.30078 h 0.701172 1.09961 c 0.4,0 0.399218,-0.30078 0.699218,-0.30078 0.4,-0.4 0.79961,-0.40078 1.09961,-0.80078 0.4,-0.3 0.801562,-0.69961 1.101562,-1.09961 L 30,124.56054 c 0,0.4 -0.298828,0.39922 -0.298828,0.69922 -0.4,0 -0.400782,0.40039 -0.800782,0.40039 0,0 0.0012,0.40039 -0.298828,0.40039 h -0.40039 c -0.266667,0 -0.501172,-0.13372 -0.701172,-0.40039 v -0.40039 -0.69922 c 0,-0.4 0.300781,-0.69961 0.300781,-1.09961 0,-0.4 0.400391,-1.1 0.400391,-1.5 0,-0.7 0.40039,-1.10078 0.40039,-1.80078 0,-0.4 0.298828,-0.69961 0.298828,-1.09961 v -1.09961 c 0,-0.7 -0.299218,-1.50078 -0.699218,-1.80078 -0.4,-0.8 -1.100782,-0.80078 -1.800782,-0.80078 -0.8,0 -1.499218,7.8e-4 -2.199218,0.80078 -0.8,0.3 -1.501172,1.09922 -2.201172,2.19922 h -0.398438 c 0.4,0 0.398438,-0.39844 0.398438,-0.39844 v -0.70117 c 0,-0.4 -0.398438,-1.1 -0.398438,-1.5 -0.4,-0.4 -1.1,-0.40039 -1.5,-0.40039 z m 390.5,1.10156 c 0.8,0 1.50039,0.39883 1.90039,0.79883 0.7,0.7 1.10039,1.80078 1.4004,3.30078 0.39999,1.4 0.40039,3.59883 0.40039,5.79883 0,3.3 -0.40118,5.5 -0.70118,7 -0.8,1.5 -1.5,2.20117 -3,2.20117 -1.4,0 -2.19843,-0.70117 -2.89843,-2.20117 -0.7,-1.8 -1.10157,-3.99922 -1.10157,-7.69922 0,-1.5 0.40039,-2.59922 0.40039,-3.69922 0,-1.4 0.30118,-2.20078 0.70118,-3.30078 0,-0.7 0.69961,-1.10078 1.09961,-1.80078 0.4,-0.4 1.09882,-0.39844 1.79882,-0.39844 z m 144.5,0.39844 c 0.4,0.7 0.40039,1.80156 0.40039,2.60156 0,0.7 -3.9e-4,1.39883 -0.40039,1.79883 0,0.4 0.002,1.1 -0.39843,1.5 -0.3,0.3 -0.70157,0.70039 -1.10157,1.40039 l 0.80079,0.80078 c 1.1,-0.8 1.79921,-1.50039 2.19921,-1.90039 0.7,-0.7 1.10039,-1.40078 1.40039,-1.80078 0,-0.7 0.4004,-1.49922 0.4004,-2.19922 0,-0.7 -0.4004,-1.50117 -0.4004,-2.20117 z m -184.39843,1.10156 v 2.19922 l 16.79882,7.30078 -16.79882,7.39844 v 2.5 l 19,-8.79883 v -2.20117 z m -25.70118,3.69922 c -0.7,0 -1.49921,7.8e-4 -2.19921,0.30078 -0.7,0.4 -1.49961,1.09922 -2.59961,2.19922 l 1.09961,1.09961 c 0.8,-0.7 1.1,-1.40039 1.5,-1.40039 0.4,-0.4 0.69958,-0.79883 1.09961,-0.79883 l 0.40039,0.40039 c 0.3,0.4 0.29882,0.69961 0.29882,1.09961 0,0.4 10e-4,1.09922 -0.29882,2.19922 L 341,136.66015 h 2.5 l 1.5,-6.59961 c 0.4,-1.1 0.70157,-1.79961 1.10157,-2.59961 0.4,-0.7 0.69961,-1.40117 1.09961,-2.20117 0.7,-0.7 1.09882,-1.10039 1.79882,-1.40039 0.4,-0.4 0.8,-0.39844 1.5,-0.39844 0.4,0 0.70157,-0.002 1.10157,0.39844 0.4,0.3 0.39843,0.70039 0.39843,1.40039 v 1.09961 c -0.4,0.8 -0.39882,1.50117 -0.79882,2.20117 l -0.70118,3 c -0.4,1.1 -0.39843,2.20039 -0.39843,2.90039 0,0.7 -10e-4,1.49883 0.79882,1.79883 0.3,0.4 0.7004,0.80078 1.4004,0.80078 0.79999,0 1.49921,-0.40078 2.19921,-0.80078 0.8,-0.3 1.50157,-1.09922 2.60157,-2.19922 L 356,133.35937 l -1.5,1.5 c -0.3,0.3 -0.69961,0.30078 -1.09961,0.30078 0,0 -0.29882,-7.8e-4 -0.29882,-0.30078 -0.4,0 -0.40039,-0.39883 -0.40039,-0.79883 0,-0.3 3.9e-4,-1.4 0.40039,-2.5 l 1.09961,-4.09961 c 0.3,-1.1 0.29882,-2.20039 0.29882,-2.90039 0,-0.7 7.5e-4,-1.80117 -0.69921,-2.20117 -0.4,-0.7 -1.09922,-0.69922 -2.19922,-0.69922 -1.1,0 -1.80039,0.29922 -2.90039,0.69922 -0.8,0.7 -1.9,1.80078 -3,3.30078 0,-0.7 0.40039,-1.50078 0.40039,-1.80078 0,-0.8 -0.40118,-1.49844 -0.70118,-1.89844 -0.4,-0.3 -0.8,-0.30078 -1.5,-0.30078 z m 461.30079,5.09961 c -1.1,0 -1.90118,0.40117 -2.20118,0.70117 -0.8,0.4 -1.49961,1.09922 -2.59961,2.19922 l 1.09961,0.80078 c 0.4,-0.8 1.1,-1.1 1.5,-1.5 0.3,0 0.70118,-0.40039 0.70118,-0.40039 0.4,0 0.69921,3.9e-4 0.69921,0.40039 0.4,0 0.4004,0.39922 0.4004,0.69922 0,0.8 -0.4004,1.49961 -0.4004,2.59961 l -2.19921,9.90039 h 2.59961 l 1.5,-7 c 0.3,-0.7 0.29921,-1.39922 0.69921,-2.19922 0.4,-0.7 0.7,-1.40117 1.5,-2.20117 l 1.40039,-1.40039 c 0.8,-0.4 1.1,-0.79883 1.5,-0.79883 0.7,0 1.1,0.39883 1.5,0.79883 0,0 0.30079,0.70039 0.30079,1.40039 0,0.4 -7.9e-4,0.79961 -0.30079,1.09961 0,0.8 -3.9e-4,1.50117 -0.40039,2.20117 l -1.79882,8.09961 h 2.90039 l 1.09961,-7 c 0.4,-0.7 0.6996,-1.8 1.09961,-2.5 0.39999,-0.4 0.6996,-1.10039 1.0996,-1.90039 0.7,-0.7 1.10079,-1.10039 1.80079,-1.40039 0.4,-0.4 0.8,-0.79883 1.5,-0.79883 0.4,0 0.6996,0.39883 1.09961,0.79883 0.39999,0 0.40039,0.70039 0.40039,1.40039 v 1.09961 c -0.4,0.4 -0.40079,1.10117 -0.80079,2.20117 l -0.69921,2.59961 c -0.4,1.5 -0.40041,2.60078 -0.40039,3.30078 -10e-6,0.7 7.8e-4,1.09883 0.80078,1.79883 0.3,0.4 0.69843,0.80078 1.39843,0.80078 0.8,0 1.50118,-0.40078 2.20118,-0.80078 0.8,-0.3 1.49959,-1.09922 2.59961,-2.19922 l -1.09961,-0.70117 -1.5,1.5 c -0.3,0 -0.69961,0.30078 -1.09961,0.30078 0,0 -0.30078,-7.8e-4 -0.30078,-0.30078 -0.26667,-0.26667 -0.4004,-0.53216 -0.4004,-0.79883 0,-0.7 3.9e-4,-1.4 0.4004,-2.5 l 1.0996,-4.09961 c 0.3,-1.4 0.30079,-2.20039 0.30079,-2.90039 0,-1.1 -10e-4,-1.80117 -0.70118,-2.20117 -0.4,-0.7 -1.09924,-1.09961 -2.19921,-1.09961 -1.10001,0 -1.8004,0.39961 -2.9004,1.09961 -0.8,0.7 -1.49961,1.50039 -2.5996,2.90039 v -0.69922 c 0,-1.1 -0.39922,-1.80117 -0.69922,-2.20117 -0.4,-0.7 -1.50118,-1.09961 -2.20118,-1.09961 -1.1,0 -2.2,0.39961 -3,1.09961 -1.1,0.7 -1.80039,1.80078 -2.90039,3.30078 h -0.39843 c 0.4,-0.7 0.39843,-1.50078 0.39843,-1.80078 0,-0.8 0.002,-1.49844 -0.39843,-1.89844 -0.3,-0.3 -1.10039,-0.70117 -1.40039,-0.70117 z m 176.69921,0 c -0.7,0 -1.49921,0.40117 -2.19921,0.70117 -0.7,0.4 -1.50118,1.09922 -2.20118,2.19922 l 0.70118,0.80078 1.5,-1.5 c 0.4,0 0.6996,-0.40039 1.09961,-0.40039 0.39999,0 0.69921,3.9e-4 0.69921,0.40039 v 0.69922 c 0,0.8 10e-4,1.49961 -0.29882,2.59961 L 979,142.16015 h 2.90039 l 1.5,-7 c 0,-0.7 0.30118,-1.39922 0.70118,-2.19922 0.4,-0.7 0.7,-1.40117 1.5,-2.20117 0.3,-0.7 1.09843,-1.10039 1.39843,-1.40039 0.4,-0.4 1.1,-0.79883 1.5,-0.79883 0.4,0 0.70157,0.39883 1.10157,0.79883 0.4,0 0.39843,0.70039 0.39843,1.40039 v 1.09961 c 0,0.8 -0.39843,1.50117 -0.39843,2.20117 l -1.80078,8.09961 h 2.5 l 1.5,-7 c 0.39999,-0.7 0.39921,-1.8 0.69921,-2.5 0.4,-0.4 1.1,-1.10039 1.5,-1.90039 0.7,-0.7 1.1,-1.10039 1.5,-1.40039 0.7,-0.4 1.10039,-0.79883 1.40039,-0.79883 0.8,0 1.1,0.39883 1.5,0.79883 v 1.40039 1.09961 c 0,0.4 -3.9e-4,1.10117 -0.40039,2.20117 l -0.69921,2.59961 c -0.4,1.5 -0.4004,2.60078 -0.4004,3.30078 0,0.7 3.9e-4,1.09883 0.4004,1.79883 0.39999,0.4 1.10066,0.80078 1.80082,0.80078 0.8,0 1.49919,-0.40078 2.19919,-0.80078 0.8,-0.3 1.4992,-1.09922 2.1992,-2.19922 l -0.6992,-0.70117 -1.5,1.5 c -0.3,0 -0.6996,0.30078 -1.0996,0.30078 -0.2,0 -0.43449,-0.10078 -0.70119,-0.30078 v -0.79883 c 0,-0.7 4e-4,-1.4 0.4004,-2.5 L 1001,132.96093 c 0,-1.4 0.3008,-2.20039 0.3008,-2.90039 0,-1.1 -0.2992,-1.80117 -0.6992,-2.20117 -0.69999,-0.7 -1.50119,-1.09961 -2.20121,-1.09961 -1.1,0 -1.80039,0.39961 -2.90039,1.09961 -0.8,0.7 -1.89961,1.50039 -2.59961,2.90039 v -0.69922 c 0,-1.1 -0.39921,-1.80117 -0.69921,-2.20117 -0.8,-0.7 -1.49961,-1.09961 -2.59961,-1.09961 -0.7,0 -1.80039,0.39961 -2.90039,1.09961 -0.8,0.7 -1.89961,1.80078 -2.59961,3.30078 h -0.40039 c 0.4,-0.7 0.40039,-1.50078 0.40039,-1.80078 0,-0.8 -3.9e-4,-1.49844 -0.40039,-1.89844 -0.3,-0.3 -1.10079,-0.70117 -1.80079,-0.70117 z m -837.5,0.70117 v 1.09961 h 162.5 v -1.09961 z m 71.9004,15.39844 c -0.70001,0 -1.50079,0.40078 -1.80079,0.80078 -0.8,0.3 -1.49961,1.09922 -2.59961,2.19922 l 0.70118,0.70117 c 0.8,-0.7 1.49843,-1.1 1.89843,-1.5 0.3,0 0.30118,-0.30078 0.70118,-0.30078 0.4,0 0.69921,7.8e-4 0.69921,0.30078 0,0 0.4004,0.39883 0.4004,0.79883 0,0.7 -0.4004,1.4 -0.4004,2.5 l -2.5,9.90039 h 2.9004 l 1.5,-6.90039 c 0.3,-0.8 0.29921,-1.49922 0.69921,-2.19922 0.4,-0.8 0.7,-1.49922 1.5,-2.19922 0.3,-0.8 1.10039,-1.1 1.40039,-1.5 0.8,-0.4 1.1,-0.70117 1.5,-0.70117 0.7,0 1.09961,0.30117 1.09961,0.70117 0.4,0 0.40039,0.7 0.40039,1.5 v 1.09961 c 0,0.7 -3.9e-4,1.39922 -0.40039,2.19922 l -1.79882,8 h 2.5 l 1.5,-6.90039 c 0.4,-0.8 0.69959,-1.89922 1.09961,-2.19922 0.39999,-0.8 0.6996,-1.49922 1.0996,-2.19922 0.7,-0.8 1.10079,-1.1 1.80079,-1.5 0.4,-0.4 0.8,-0.70117 1.5,-0.70117 0.4,0 0.69959,0.30117 1.09961,0.70117 0,0 0.40039,0.7 0.40039,1.5 0,0.3 -3.9e-4,0.69961 -0.40039,1.09961 0,0.3 -4e-4,1.09922 -0.4004,2.19922 l -0.69921,2.5 c -0.4,1.5 -0.40039,2.60078 -0.40039,3.30078 -1e-5,0.8 3.9e-4,1.10039 0.40039,1.90039 0.7,0.3 1.09882,0.69922 1.79882,0.69922 0.8,0 1.50118,-0.39922 2.20118,-0.69922 0.8,-0.4 1.4996,-1.10117 2.59961,-2.20117 l -1.09961,-0.79883 c -0.7,0.8 -1.1,1.1 -1.5,1.5 -0.3,0 -0.69961,0.39844 -1.09961,0.39844 -0.2,0 -0.43451,-0.13177 -0.70118,-0.39844 v -0.70117 c 0,-0.8 3.9e-4,-1.49961 0.4004,-2.59961 l 1.0996,-4 c 0.3,-1.5 0.30079,-2.2 0.30079,-3 0,-1.1 -0.30118,-1.79922 -0.70118,-2.19922 -0.4,-0.7 -1.09922,-1.10156 -2.19921,-1.10156 -1.1,0 -1.8004,0.40156 -2.9004,1.10156 -0.8,0.8 -1.89962,1.5 -2.5996,3 v -0.80078 c 0,-1.1 -0.39922,-1.79922 -0.69922,-2.19922 -0.8,-0.7 -1.50118,-1.10156 -2.20118,-1.10156 -1.1,0 -2.2,0.40156 -3,1.10156 -1.1,0.8 -2.20039,1.89883 -2.90039,3.29883 h -0.39843 c 0.4,-0.7 0.39843,-1.39883 0.39843,-1.79883 0,-0.7 0.002,-1.50078 -0.39843,-1.80078 -0.3,-0.4 -1.1008,-0.80078 -1.80078,-0.80078 z m -113.69922,19.10156 -0.70118,2.19922 H 104.5 l 0.30079,-2.19922 z m 29.69922,1.5 c -1.1,0.3 -1.8004,0.69844 -2.9004,1.39844 -1.1,0.4 -1.80039,1.1 -2.90039,1.5 0,0.4 0.30079,0.40117 0.30079,0.70117 0,0 3.9e-4,0.40039 0.40039,0.40039 0.7,-0.4 1.09882,-0.70156 1.79882,-1.10156 0.4,0 0.80157,-0.39844 1.10157,-0.39844 0,0 0.39843,-0.002 0.39843,0.39844 l 0.40039,0.40039 v 8.80078 0.29883 c -0.26666,0.26667 -0.40039,0.53412 -0.40039,0.80078 v 0.30078 h -0.39843 c 0,0 -0.30081,-0.002 -0.30078,0.39844 H 129 h -0.69921 -1.09961 v 1.10156 h 9.19921 v -1.10156 h -1.0996 -0.80079 -0.69921 c -1e-5,-0.4 -0.4004,-0.39844 -0.4004,-0.39844 l -0.29882,-0.30078 v -0.80078 -0.29883 -9.20117 -1.09961 -0.69922 -1.09961 z m -28.9004,2.89844 -3.699214,0.40039 v 0.70117 c 0.400004,0 0.699594,-0.002 1.099614,0.39844 0,0 0.40039,0.30117 0.40039,0.70117 0,0.4 -0.40042,1.1 -0.40039,1.5 -3e-5,0.3 -4e-4,0.70039 -0.4004,1.40039 0,0.4 0.001,0.8 -0.29882,1.5 0,0.4 -3.9e-4,0.7 -0.400394,1.5 v 1.09961 1.09961 0.69922 c 0,0.4 0.400394,0.40117 0.400394,0.70117 0,0.4 0.2992,0.40039 0.69922,0.40039 0,0.4 0.39921,0.39844 0.69921,0.39844 0.4,0 0.80079,0.002 0.80079,-0.39844 0.29998,0 0.6996,-3.9e-4 1.0996,-0.40039 0.3,0 0.30118,-0.30117 0.70118,-0.70117 0.4,0 0.69961,-0.39961 1.09961,-1.09961 L 104.5,175.56054 c 0,0.3 -0.39882,0.69922 -0.79882,0.69922 0,0.4 -0.30079,0.40039 -0.30079,0.40039 0,0.3 -0.40039,0.30078 -0.40039,0.30078 h -0.39843 -0.70118 v -0.70117 -0.69922 -1.09961 l 1.80079,-8.10156 z m 5.5,1.80078 v 1.90039 h 13.5 v -1.90039 z m 0,5.19922 v 1.80078 h 13.5 v -1.80078 z"
     id="path121"
     inkscape:connector-curvature="0" />
  <defs
     id="defs229">
    <path
       d="m 1042,-11 c 0,0 -48,0 -77,34 0,0 -30,34 -30,88 0,0 0,49 25,143 l 33,129 c 0,0 18,70 23,103 0,0 6,34 6,55 0,0 0,51 -17,74 0,0 -17,23 -56,23 0,0 -31,0 -67,-24 0,0 -36,-23 -76,-73 0,0 -39,-49 -64,-98 0,0 -25,-48 -40,-117 L 634,0 H 505 l 86,379 c 0,0 15,69 21,103 0,0 6,33 6,57 0,0 0,53 -19,76 0,0 -19,23 -60,23 0,0 -28,0 -64,-24 0,0 -36,-23 -77,-75 0,0 -41,-52 -65,-100 0,0 -23,-47 -38,-116 L 224,0 H 95 l 109,473 c 0,0 16,72 16,110 0,0 0,30 -10,44 0,0 -9,13 -30,13 0,0 -23,0 -49,-19 0,0 -26,-19 -71,-69 l -42,42 c 0,0 66,68 113,100 0,0 47,32 104,32 0,0 47,0 74,-31 0,0 27,-31 27,-81 0,0 0,-41 -17,-87 l 9,-3 c 0,0 69,102 137,151 0,0 68,50 137,50 0,0 72,0 109,-41 0,0 37,-40 37,-117 v -10 c 0,0 0,-6 -1,-12 0,0 65,91 128,136 0,0 64,44 133,44 0,0 68,0 106,-39 0,0 37,-40 37,-112 0,0 0,-47 -22,-133 l -48,-196 c 0,0 -20,-81 -20,-114 0,0 0,-30 9,-44 0,0 10,-13 31,-13 0,0 22,0 48,18 0,0 25,18 71,70 l 43,-42 c 0,0 -64,-68 -112,-100 0,0 -48,-31 -109,-31 z"
       transform="matrix(0.001,0,0,-0.001,0,0)"
       id="f0_1fu"
       inkscape:connector-curvature="0" />
    <path
       d="m 137,-195 c 0,0 70,102 70,195 H 142 V 163 H 287 V 38 c 0,0 0,-78 -14,-131 0,0 -14,-53 -44,-102 z"
       transform="matrix(0.001,0,0,-0.001,0,0)"
       id="f1_g"
       inkscape:connector-curvature="0" />
    <path
       d="m 638,-11 c 0,0 -49,0 -78,34 0,0 -29,34 -29,88 0,0 0,49 25,143 l 33,129 c 0,0 17,70 23,103 0,0 6,34 6,55 0,0 0,51 -17,74 0,0 -18,23 -56,23 0,0 -32,0 -68,-25 0,0 -36,-25 -77,-76 0,0 -40,-50 -65,-97 0,0 -25,-48 -40,-117 L 224,0 H 95 l 109,473 c 0,0 16,72 16,110 0,0 0,30 -10,44 0,0 -9,13 -30,13 0,0 -23,0 -49,-19 0,0 -26,-19 -71,-69 l -42,42 c 0,0 69,71 114,102 0,0 46,30 103,30 0,0 47,0 74,-31 0,0 27,-31 27,-81 0,0 0,-40 -17,-88 l 8,-3 c 0,0 74,103 140,152 0,0 66,50 136,50 0,0 69,0 106,-40 0,0 38,-40 38,-111 0,0 0,-47 -22,-133 L 677,245 c 0,0 -21,-81 -21,-114 0,0 0,-30 10,-44 0,0 10,-13 31,-13 0,0 22,0 47,18 0,0 26,18 72,70 l 43,-42 c 0,0 -65,-69 -112,-100 0,0 -48,-31 -109,-31 z"
       transform="matrix(0.001,0,0,-0.001,0,0)"
       id="f0_1fv"
       inkscape:connector-curvature="0" />
    <path
       d="m 524,0 c 0,0 -73,0 -127,9 0,0 -54,9 -97,29 0,0 -43,20 -82,61 0,0 -38,41 -62,90 0,0 -24,49 -36,111 0,0 -12,62 -12,134 0,0 0,118 23,195 0,0 23,77 78,138 0,0 54,60 130,86 0,0 77,26 197,26 H 842 V 775 H 536 c 0,0 -74,0 -120,-8 0,0 -46,-8 -77,-27 0,0 -30,-18 -55,-51 0,0 -25,-34 -39,-83 0,0 -14,-49 -18,-111 H 842 V 392 H 226 c 0,0 4,-70 20,-123 0,0 17,-54 50,-92 0,0 33,-37 86,-55 0,0 52,-18 145,-18 H 842 V 0 Z"
       transform="matrix(0.001,0,0,-0.001,0,0)"
       id="f0_15d"
       inkscape:connector-curvature="0" />
    <path
       d="m 847,66 v 75 L 376,953 H 257 V 909 L 747,66 Z M 87,0 v 37 c 0,0 47,11 62,26 0,0 16,15 21,41 0,0 5,27 5,82 v 646 c 0,0 0,51 -4,75 0,0 -4,23 -12,36 0,0 -9,13 -23,21 0,0 -14,8 -49,18 v 36 H 433 L 693,568 c 0,0 22,-39 63,-114 0,0 40,-76 71,-143 h 12 c 0,0 -8,178 -8,389 v 132 c 0,0 0,56 -3,77 0,0 -4,21 -10,34 0,0 -7,12 -21,20 0,0 -13,9 -50,19 v 36 h 270 v -36 c 0,0 -34,-9 -48,-17 0,0 -13,-7 -22,-19 0,0 -9,-12 -13,-36 0,0 -4,-24 -4,-78 V 0 H 692 L 372,548 c 0,0 -65,113 -100,185 h -6 c 0,0 7,-160 7,-338 V 186 c 0,0 0,-60 6,-86 0,0 5,-25 22,-39 0,0 17,-13 59,-24 V 0 Z"
       transform="matrix(0.001,0,0,-0.001,0,0)"
       id="f0_110"
       inkscape:connector-curvature="0" />
    <path
       d="M 39,0 424,881 H 537 L 861,0 H 733 L 474,742 160,0 Z"
       transform="matrix(0.001,0,0,-0.001,0,0)"
       id="f0_161"
       inkscape:connector-curvature="0" />
    <path
       d="m 424,96 c 0,0 119,0 174,106 0,0 55,106 55,325 0,0 0,227 -52,329 0,0 -53,102 -174,102 0,0 -123,0 -177,-100 0,0 -55,-101 -55,-331 0,0 0,-224 55,-328 0,0 55,-103 174,-103 z m -1,-110 c 0,0 -181,0 -272,137 0,0 -91,138 -91,403 0,0 0,271 88,406 0,0 88,135 279,135 0,0 186,0 275,-137 0,0 88,-136 88,-404 0,0 0,-263 -93,-402 0,0 -93,-138 -274,-138 z"
       transform="matrix(0.001,0,0,-0.001,0,0)"
       id="f1_k"
       inkscape:connector-curvature="0" />
    <path
       d="M 818,115 75,426 V 579 L 818,891 V 776 L 178,503 818,230 Z"
       transform="matrix(0.001,0,0,-0.001,0,0)"
       id="f1_w"
       inkscape:connector-curvature="0" />
    <path
       d="m 114,-81 v 98 h 919 v -98 z m 919,214 -922,359 v 104 l 922,359 V 843 L 234,544 1033,245 Z"
       transform="matrix(0.001,0,0,-0.001,0,0)"
       id="f0_2mq"
       inkscape:connector-curvature="0" />
  </defs>
  <style
     type="text/css"
     id="style240" />
</svg>
