<?xml version="1.0" encoding="UTF-8" standalone="no"?>
<!-- Created with Inkscape (http://www.inkscape.org/) -->

<svg
   xmlns:dc="http://purl.org/dc/elements/1.1/"
   xmlns:cc="http://creativecommons.org/ns#"
   xmlns:rdf="http://www.w3.org/1999/02/22-rdf-syntax-ns#"
   xmlns:svg="http://www.w3.org/2000/svg"
   xmlns="http://www.w3.org/2000/svg"
   xmlns:sodipodi="http://sodipodi.sourceforge.net/DTD/sodipodi-0.dtd"
   xmlns:inkscape="http://www.inkscape.org/namespaces/inkscape"
   version="1.1"
   width="512.52594"
   height="127.31836"
   viewBox="0 0 512.52592 127.31836"
   id="svg2"
   style="display:block"
   sodipodi:docname="collision_formula.svg"
   inkscape:version="0.92.4 (5da689c313, 2019-01-14)">
  <sodipodi:namedview
     pagecolor="#ffffff"
     bordercolor="#666666"
     borderopacity="1"
     objecttolerance="10"
     gridtolerance="10"
     guidetolerance="10"
     inkscape:pageopacity="0"
     inkscape:pageshadow="2"
     inkscape:window-width="2169"
     inkscape:window-height="1151"
     id="namedview128"
     showgrid="false"
     inkscape:zoom="1.4142136"
     inkscape:cx="210.16192"
     inkscape:cy="176.36552"
     inkscape:window-x="60"
     inkscape:window-y="134"
     inkscape:window-maximized="0"
     inkscape:current-layer="svg2"
     fit-margin-top="0"
     fit-margin-left="0"
     fit-margin-right="0"
     fit-margin-bottom="0" />
  <metadata
     id="metadata244">
    <rdf:RDF>
      <cc:Work
         rdf:about="">
        <dc:format>image/svg+xml</dc:format>
        <dc:type
           rdf:resource="http://purl.org/dc/dcmitype/StillImage" />
        <dc:title></dc:title>
      </cc:Work>
    </rdf:RDF>
  </metadata>
  <defs
     id="defs4">
    <clipPath
       id="c0_1">
      <path
         d="M 36.7,452.8 V 335.1 h 27.1 v 117.7 z"
         id="path7"
         inkscape:connector-curvature="0" />
    </clipPath>
    <clipPath
       id="c1_1">
      <path
         d="M 64.5,452.8 V 335.1 h 7 v 117.7 z"
         id="path10"
         inkscape:connector-curvature="0" />
    </clipPath>
    <clipPath
       id="c2_1">
      <path
         d="M 76.6,452.8 V 335.1 h 19.1 v 117.7 z"
         id="path13"
         inkscape:connector-curvature="0" />
    </clipPath>
    <clipPath
       id="c3_1">
      <path
         d="M 103.4,452.8 V 335.1 h 20.2 v 117.7 z"
         id="path16"
         inkscape:connector-curvature="0" />
    </clipPath>
    <clipPath
       id="c4_1">
      <path
         d="M 133.1,452.8 V 335.1 h 23.1 v 117.7 z"
         id="path19"
         inkscape:connector-curvature="0" />
    </clipPath>
    <clipPath
       id="c5_1">
      <path
         d="M 163.9,452.8 V 335.1 H 183 v 117.7 z"
         id="path22"
         inkscape:connector-curvature="0" />
    </clipPath>
    <clipPath
       id="c6_1">
      <path
         d="M 197.3,452.8 V 335.1 h 17.6 v 117.7 z"
         id="path25"
         inkscape:connector-curvature="0" />
    </clipPath>
    <clipPath
       id="c7_1">
      <path
         d="M 224,452.8 V 335.1 h 24.2 v 117.7 z"
         id="path28"
         inkscape:connector-curvature="0" />
    </clipPath>
    <clipPath
       id="c8_1">
      <path
         d="M 256.3,452.8 V 335.1 h 19.1 v 117.7 z"
         id="path31"
         inkscape:connector-curvature="0" />
    </clipPath>
    <clipPath
       id="c9_1">
      <path
         d="M 284.5,452.8 V 335.1 h 24.2 v 117.7 z"
         id="path34"
         inkscape:connector-curvature="0" />
    </clipPath>
    <clipPath
       id="c10_1">
      <path
         d="M 317.9,452.8 V 335.1 H 345 v 117.7 z"
         id="path37"
         inkscape:connector-curvature="0" />
    </clipPath>
    <style
       type="text/css"
       id="style39" />
  </defs>
  <defs
     id="defs229">
    <path
       d="m 1042,-11 c 0,0 -48,0 -77,34 0,0 -30,34 -30,88 0,0 0,49 25,143 l 33,129 c 0,0 18,70 23,103 0,0 6,34 6,55 0,0 0,51 -17,74 0,0 -17,23 -56,23 0,0 -31,0 -67,-24 0,0 -36,-23 -76,-73 0,0 -39,-49 -64,-98 0,0 -25,-48 -40,-117 L 634,0 H 505 l 86,379 c 0,0 15,69 21,103 0,0 6,33 6,57 0,0 0,53 -19,76 0,0 -19,23 -60,23 0,0 -28,0 -64,-24 0,0 -36,-23 -77,-75 0,0 -41,-52 -65,-100 0,0 -23,-47 -38,-116 L 224,0 H 95 l 109,473 c 0,0 16,72 16,110 0,0 0,30 -10,44 0,0 -9,13 -30,13 0,0 -23,0 -49,-19 0,0 -26,-19 -71,-69 l -42,42 c 0,0 66,68 113,100 0,0 47,32 104,32 0,0 47,0 74,-31 0,0 27,-31 27,-81 0,0 0,-41 -17,-87 l 9,-3 c 0,0 69,102 137,151 0,0 68,50 137,50 0,0 72,0 109,-41 0,0 37,-40 37,-117 v -10 c 0,0 0,-6 -1,-12 0,0 65,91 128,136 0,0 64,44 133,44 0,0 68,0 106,-39 0,0 37,-40 37,-112 0,0 0,-47 -22,-133 l -48,-196 c 0,0 -20,-81 -20,-114 0,0 0,-30 9,-44 0,0 10,-13 31,-13 0,0 22,0 48,18 0,0 25,18 71,70 l 43,-42 c 0,0 -64,-68 -112,-100 0,0 -48,-31 -109,-31 z"
       transform="matrix(0.001,0,0,-0.001,0,0)"
       id="f0_1fu"
       inkscape:connector-curvature="0" />
    <path
       d="m 137,-195 c 0,0 70,102 70,195 H 142 V 163 H 287 V 38 c 0,0 0,-78 -14,-131 0,0 -14,-53 -44,-102 z"
       transform="matrix(0.001,0,0,-0.001,0,0)"
       id="f1_g"
       inkscape:connector-curvature="0" />
    <path
       d="m 638,-11 c 0,0 -49,0 -78,34 0,0 -29,34 -29,88 0,0 0,49 25,143 l 33,129 c 0,0 17,70 23,103 0,0 6,34 6,55 0,0 0,51 -17,74 0,0 -18,23 -56,23 0,0 -32,0 -68,-25 0,0 -36,-25 -77,-76 0,0 -40,-50 -65,-97 0,0 -25,-48 -40,-117 L 224,0 H 95 l 109,473 c 0,0 16,72 16,110 0,0 0,30 -10,44 0,0 -9,13 -30,13 0,0 -23,0 -49,-19 0,0 -26,-19 -71,-69 l -42,42 c 0,0 69,71 114,102 0,0 46,30 103,30 0,0 47,0 74,-31 0,0 27,-31 27,-81 0,0 0,-40 -17,-88 l 8,-3 c 0,0 74,103 140,152 0,0 66,50 136,50 0,0 69,0 106,-40 0,0 38,-40 38,-111 0,0 0,-47 -22,-133 L 677,245 c 0,0 -21,-81 -21,-114 0,0 0,-30 10,-44 0,0 10,-13 31,-13 0,0 22,0 47,18 0,0 26,18 72,70 l 43,-42 c 0,0 -65,-69 -112,-100 0,0 -48,-31 -109,-31 z"
       transform="matrix(0.001,0,0,-0.001,0,0)"
       id="f0_1fv"
       inkscape:connector-curvature="0" />
    <path
       d="m 524,0 c 0,0 -73,0 -127,9 0,0 -54,9 -97,29 0,0 -43,20 -82,61 0,0 -38,41 -62,90 0,0 -24,49 -36,111 0,0 -12,62 -12,134 0,0 0,118 23,195 0,0 23,77 78,138 0,0 54,60 130,86 0,0 77,26 197,26 H 842 V 775 H 536 c 0,0 -74,0 -120,-8 0,0 -46,-8 -77,-27 0,0 -30,-18 -55,-51 0,0 -25,-34 -39,-83 0,0 -14,-49 -18,-111 H 842 V 392 H 226 c 0,0 4,-70 20,-123 0,0 17,-54 50,-92 0,0 33,-37 86,-55 0,0 52,-18 145,-18 H 842 V 0 Z"
       transform="matrix(0.001,0,0,-0.001,0,0)"
       id="f0_15d"
       inkscape:connector-curvature="0" />
    <path
       d="m 847,66 v 75 L 376,953 H 257 V 909 L 747,66 Z M 87,0 v 37 c 0,0 47,11 62,26 0,0 16,15 21,41 0,0 5,27 5,82 v 646 c 0,0 0,51 -4,75 0,0 -4,23 -12,36 0,0 -9,13 -23,21 0,0 -14,8 -49,18 v 36 H 433 L 693,568 c 0,0 22,-39 63,-114 0,0 40,-76 71,-143 h 12 c 0,0 -8,178 -8,389 v 132 c 0,0 0,56 -3,77 0,0 -4,21 -10,34 0,0 -7,12 -21,20 0,0 -13,9 -50,19 v 36 h 270 v -36 c 0,0 -34,-9 -48,-17 0,0 -13,-7 -22,-19 0,0 -9,-12 -13,-36 0,0 -4,-24 -4,-78 V 0 H 692 L 372,548 c 0,0 -65,113 -100,185 h -6 c 0,0 7,-160 7,-338 V 186 c 0,0 0,-60 6,-86 0,0 5,-25 22,-39 0,0 17,-13 59,-24 V 0 Z"
       transform="matrix(0.001,0,0,-0.001,0,0)"
       id="f0_110"
       inkscape:connector-curvature="0" />
    <path
       d="M 39,0 424,881 H 537 L 861,0 H 733 L 474,742 160,0 Z"
       transform="matrix(0.001,0,0,-0.001,0,0)"
       id="f0_161"
       inkscape:connector-curvature="0" />
    <path
       d="m 424,96 c 0,0 119,0 174,106 0,0 55,106 55,325 0,0 0,227 -52,329 0,0 -53,102 -174,102 0,0 -123,0 -177,-100 0,0 -55,-101 -55,-331 0,0 0,-224 55,-328 0,0 55,-103 174,-103 z m -1,-110 c 0,0 -181,0 -272,137 0,0 -91,138 -91,403 0,0 0,271 88,406 0,0 88,135 279,135 0,0 186,0 275,-137 0,0 88,-136 88,-404 0,0 0,-263 -93,-402 0,0 -93,-138 -274,-138 z"
       transform="matrix(0.001,0,0,-0.001,0,0)"
       id="f1_k"
       inkscape:connector-curvature="0" />
    <path
       d="M 818,115 75,426 V 579 L 818,891 V 776 L 178,503 818,230 Z"
       transform="matrix(0.001,0,0,-0.001,0,0)"
       id="f1_w"
       inkscape:connector-curvature="0" />
    <path
       d="m 114,-81 v 98 h 919 v -98 z m 919,214 -922,359 v 104 l 922,359 V 843 L 234,544 1033,245 Z"
       transform="matrix(0.001,0,0,-0.001,0,0)"
       id="f0_2mq"
       inkscape:connector-curvature="0" />
  </defs>
  <style
     type="text/css"
     id="style240" />
  <path
     style="stroke-width:0.38723952"
     d="m 87.984375,0 v 0.78515625 c 0.491623,0.1392206 0.84007,0.26462745 1.042969,0.37695305 0.202898,0.1123257 0.365276,0.2621411 0.488281,0.4492188 0.123004,0.1866821 0.210274,0.4485746 0.263672,0.7851562 0.05339,0.3365816 0.08008,0.8740918 0.08008,1.6113282 V 17.873047 c 0,0.79063 -0.03391,1.378838 -0.103515,1.763672 -0.06961,0.384438 -0.217151,0.680236 -0.441407,0.888671 -0.224651,0.208436 -0.667593,0.399056 -1.330078,0.570313 v 0.785156 h 5.867188 v -0.785156 c -0.60909,-0.160578 -1.034919,-0.337077 -1.275391,-0.529297 -0.240472,-0.192219 -0.400178,-0.472784 -0.480469,-0.841797 -0.08029,-0.368619 -0.11914,-0.98618 -0.11914,-1.851562 V 13.40039 c 0,-2.553828 -0.05337,-4.9798077 -0.160156,-7.2773431 h 0.144531 c 0.491227,1.0366397 1.206349,2.3628689 2.146484,3.9765621 l 6.861326,11.78125 h 5.11328 V 4.0078125 c 0,-0.7799518 0.0316,-1.341475 0.0957,-1.6835938 0.0641,-0.3421188 0.15825,-0.5967165 0.28125,-0.7675781 0.12261,-0.1712572 0.28311,-0.3111801 0.48047,-0.4179687 0.19776,-0.1067885 0.53664,-0.2249739 1.01758,-0.35351566 V 0 h -5.78711 v 0.78515624 c 0.52366,0.13922061 0.8816,0.27192216 1.07422,0.39453126 0.19222,0.1230045 0.33748,0.2708668 0.43359,0.4472656 0.0961,0.1763988 0.16699,0.4181112 0.21485,0.7226562 0.0483,0.3045451 0.0742,0.8568937 0.0742,1.6582032 V 6.828125 c 0,3.0240929 0.0583,5.814917 0.17578,8.369141 h -0.25781 c -0.44891,-0.961889 -0.96201,-1.983146 -1.53907,-3.0625 C 101.76865,11.055409 101.32076,10.237336 101,9.6816406 L 95.406251,0 Z m 114.087895,0 -0.002,0.78515625 c 0.49163,0.13922059 0.84007,0.26462745 1.04297,0.37695305 0.20289,0.1123257 0.36528,0.2621411 0.48828,0.4492188 0.123,0.1866821 0.21223,0.4485747 0.26563,0.7851562 0.0534,0.3365816 0.0801,0.8740918 0.0801,1.6113282 V 17.873047 c -1e-5,0.79063 -0.0359,1.378838 -0.10547,1.763672 -0.0696,0.384438 -0.2152,0.680236 -0.43946,0.888671 -0.22465,0.208436 -0.66954,0.399056 -1.33203,0.570313 v 0.785156 h 5.86719 v -0.785156 c -0.60909,-0.160578 -1.03297,-0.337077 -1.27344,-0.529297 -0.24048,-0.192219 -0.40017,-0.472784 -0.48047,-0.841797 -0.0803,-0.368619 -0.12109,-0.98618 -0.12109,-1.851562 V 13.40039 c 0,-2.553828 -0.0534,-4.9798077 -0.16016,-7.2773431 h 0.14453 c 0.49122,1.0366397 1.20636,2.3628689 2.14649,3.9765621 l 6.86133,11.78125 h 5.11328 V 4.0078125 c 0,-0.7799518 0.0316,-1.341475 0.0957,-1.6835938 0.0641,-0.3421188 0.15824,-0.5967165 0.28125,-0.7675781 0.12261,-0.1712572 0.28311,-0.3111801 0.48047,-0.4179687 0.19775,-0.1067886 0.53663,-0.2249739 1.01758,-0.35351566 V 0 h -5.78516 v 0.78515624 c 0.52327,0.1392206 0.88005,0.27192216 1.07227,0.39453126 0.19222,0.1230045 0.33749,0.2708668 0.43359,0.4472656 0.0961,0.1763988 0.1689,0.4181112 0.2168,0.7226562 0.0483,0.3045451 0.0723,0.8568937 0.0723,1.6582032 V 6.828125 c 0,3.0240929 0.0583,5.814917 0.17578,8.369141 h -0.25585 c -0.44891,-0.961889 -0.96201,-1.983146 -1.53907,-3.0625 -0.57705,-1.079357 -1.02689,-1.89743 -1.34765,-2.4531254 L 209.49221,0 Z M 0,1.3632812 7.66211,21.896484 h 2.451172 L 19.105469,1.3632812 H 16.460938 L 14.009766,7.1816406 H 4.904297 L 2.884766,1.3632812 Z m 122.69727,0 7.6621,20.5332028 h 2.45118 l 8.99218,-20.5332028 h -2.64453 l -2.45117,5.8183594 h -9.10547 L 125.58203,1.3632812 Z M 91.638672,1.4121092 H 94.1875 l 10.11524,17.4394528 v 1.619141 H 102.1543 L 91.638672,2.3417969 Z m 114.087888,0 h 2.54883 l 10.11328,17.4394528 v 1.619141 h -2.14844 L 205.72656,2.3417969 Z M 68.175782,2.9980469 c -1.731161,0 -3.140435,0.1863914 -4.230469,0.5605468 -1.090034,0.3737598 -2.024736,0.9913216 -2.804688,1.8515625 -0.780347,0.8602409 -1.336924,1.8429688 -1.667968,2.9492188 -0.33144,1.1058545 -0.496094,2.503356 -0.496094,4.191406 0,1.03664 0.085,1.999978 0.255859,2.886719 0.170861,0.887135 0.427808,1.681519 0.769531,2.386719 0.342119,0.7052 0.787732,1.349049 1.337891,1.93164 0.550554,0.582195 1.136091,1.017917 1.755859,1.306641 0.619769,0.288329 1.314712,0.496854 2.083985,0.625 0.769668,0.128149 1.67729,0.193359 2.724609,0.193359 h 6.84375 V 19.652344 H 67.96875 c -1.324969,0 -2.36413,-0.128078 -3.117187,-0.384766 -0.753453,-0.256292 -1.368343,-0.653484 -1.84375,-1.193359 -0.475406,-0.53948 -0.831471,-1.195571 -1.066406,-1.964844 -0.234935,-0.769668 -0.380194,-1.651002 -0.433594,-2.644531 H 74.748047 V 11.236328 H 61.525391 c 0.05339,-0.88674 0.181868,-1.6788481 0.384766,-2.3789061 0.202898,-0.7000581 0.483462,-1.290936 0.841796,-1.7714844 0.35794,-0.4809439 0.755131,-0.8534047 1.19336,-1.1152344 0.438228,-0.2618296 0.985235,-0.450892 1.642578,-0.5683594 0.657343,-0.1174678 1.514268,-0.1757812 2.572266,-0.1757812 h 6.58789 V 2.9980469 Z m 114.087888,0 c -1.73116,0 -3.14239,0.1863914 -4.23242,0.5605468 -1.09004,0.3737598 -2.02474,0.9913216 -2.80469,1.8515625 -0.78035,0.8602409 -1.33693,1.8429688 -1.66797,2.9492188 -0.33144,1.1058545 -0.49609,2.503356 -0.49609,4.191406 0,1.03664 0.085,1.999978 0.25586,2.886719 0.17086,0.887135 0.42781,1.681519 0.76953,2.386719 0.34212,0.7052 0.78968,1.349049 1.33984,1.93164 0.55055,0.582195 1.13414,1.017917 1.75391,1.306641 0.61977,0.288329 1.31431,0.496854 2.08398,0.625 0.76927,0.128149 1.67729,0.193359 2.72461,0.193359 h 6.84571 v -2.228515 h -6.78125 c -1.32496,0 -2.36374,-0.128078 -3.11719,-0.384766 -0.75345,-0.256292 -1.36834,-0.653484 -1.84375,-1.193359 -0.4754,-0.53948 -0.83148,-1.195571 -1.06641,-1.964844 -0.23494,-0.769668 -0.37824,-1.651002 -0.43164,-2.644531 h 13.24024 v -2.228516 h -13.22461 c 0.0534,-0.88674 0.18186,-1.6788481 0.38476,-2.3789061 0.2029,-0.7000581 0.48386,-1.290936 0.8418,-1.7714844 0.35794,-0.4809439 0.75513,-0.8534047 1.19336,-1.1152344 0.43822,-0.2618296 0.98523,-0.450892 1.64258,-0.5683594 0.65734,-0.1174678 1.51622,-0.1757812 2.57422,-0.1757812 h 6.58789 V 2.9980469 Z M 24.65625,6.2832031 c -0.812383,0 -1.555674,0.2271961 -2.234375,0.6816406 -0.6787,0.454049 -1.489157,1.1730046 -2.429687,2.15625 l 0.914062,0.8984373 c 0.641127,-0.7158788 1.147007,-1.2118663 1.515625,-1.4843748 0.368618,-0.2725085 0.717389,-0.4082031 1.048828,-0.4082031 0.299008,0 0.519378,0.096843 0.658204,0.2890625 0.138825,0.1926149 0.207031,0.5021379 0.207031,0.9296875 0,0.5556959 -0.116232,1.3470859 -0.351563,2.3730469 l -2.341797,10.162109 h 2.773438 l 1.523437,-6.941406 c 0.224256,-0.983245 0.50294,-1.816158 0.833985,-2.5 0.33144,-0.683842 0.791174,-1.397851 1.378906,-2.140625 0.587732,-0.7423775 1.140081,-1.2825589 1.658203,-1.6191405 0.518518,-0.3365817 0.980527,-0.5039063 1.386719,-0.5039063 0.577054,0 1.00093,0.1623786 1.273437,0.4882813 0.27251,0.3259028 0.410157,0.8729099 0.410157,1.6425775 0,0.341723 -0.0408,0.751156 -0.121094,1.226563 -0.07989,0.475406 -0.23238,1.211154 -0.457031,2.205078 l -1.84375,8.142578 h 2.773437 L 34.691407,14.875 c 0.213577,-0.993924 0.499482,-1.834059 0.857422,-2.523438 0.35794,-0.689379 0.820343,-1.388872 1.386718,-2.099609 0.566375,-0.7107365 1.106161,-1.2356839 1.619141,-1.5722655 0.51298,-0.3365817 0.992499,-0.5039063 1.441406,-0.5039063 0.555696,0 0.957116,0.1623786 1.203125,0.4882813 0.245613,0.3259028 0.369141,0.8584664 0.369141,1.5957035 0,0.299402 -0.0408,0.688977 -0.121094,1.169921 -0.08029,0.480548 -0.247218,1.223913 -0.503906,2.228516 l -0.707031,2.771484 c -0.352403,1.346326 -0.527344,2.36798 -0.527344,3.0625 0,0.769273 0.208524,1.401674 0.625,1.898438 0.416871,0.49716 0.971494,0.746094 1.666015,0.746094 0.876457,0 1.656002,-0.229867 2.339844,-0.689453 0.683842,-0.459587 1.48552,-1.174314 2.404297,-2.146485 l -0.912109,-0.898437 c -0.662485,0.737237 -1.175982,1.236218 -1.539063,1.498046 -0.363477,0.261831 -0.705025,0.392579 -1.02539,0.392579 -0.299404,0 -0.519379,-0.09489 -0.658204,-0.28711 -0.138825,-0.192615 -0.208984,-0.502138 -0.208984,-0.929687 0,-0.480944 0.144869,-1.303964 0.433594,-2.46875 L 43.875,12.408203 c 0.309687,-1.239538 0.464844,-2.197535 0.464844,-2.8710937 0,-1.0255653 -0.266443,-1.820344 -0.800781,-2.3867187 -0.534339,-0.5663747 -1.292146,-0.8496094 -2.275391,-0.8496094 -0.983246,0 -1.932068,0.3175355 -2.845703,0.953125 -0.913635,0.635985 -1.82927,1.6065452 -2.748047,2.9101558 0.01072,-0.08543 0.01563,-0.167435 0.01563,-0.242187 V 9.6992187 c 0,-1.1007129 -0.268396,-1.9431954 -0.802734,-2.5253906 -0.534338,-0.5825907 -1.313884,-0.8730469 -2.339844,-0.8730469 -0.993925,0 -1.976652,0.3537162 -2.949219,1.0644531 -0.972571,0.710737 -1.950749,1.7998808 -2.933598,3.2636717 l -0.191407,-0.06445 c 0.246009,-0.6624846 0.367188,-1.2892206 0.367188,-1.876953 0,-0.7158786 -0.194009,-1.2949112 -0.583985,-1.7382813 C 25.861978,6.5058486 25.329414,6.2832031 24.65625,6.2832031 Z m 122.69726,0 c -0.82307,0 -1.55912,0.2173038 -2.21093,0.6503906 -0.6518,0.4326913 -1.46988,1.1615391 -2.45313,2.1875 l 0.91406,0.8984373 c 0.64113,-0.7158788 1.14702,-1.2118663 1.51563,-1.4843748 0.36862,-0.2725085 0.71778,-0.4082031 1.04883,-0.4082031 0.2994,0 0.51937,0.096843 0.6582,0.2890625 0.13883,0.1926149 0.20703,0.5021379 0.20703,0.9296875 0,0.5556959 -0.11623,1.3470859 -0.35156,2.3730469 l -2.3418,10.162109 h 2.77344 l 1.52344,-6.941406 c 0.22425,-0.993924 0.51283,-1.829508 0.86523,-2.507813 0.3528,-0.678699 0.82016,-1.378193 1.40235,-2.099609 0.58259,-0.7210201 1.13382,-1.2612011 1.65234,-1.6191404 0.51812,-0.3579393 1.00071,-0.5371094 1.44922,-0.5371094 0.5557,0 0.95751,0.1623786 1.20312,0.4882813 0.24562,0.3259028 0.36914,0.8584664 0.36914,1.5957035 0,0.299402 -0.0408,0.688977 -0.12109,1.169921 -0.0803,0.480548 -0.24918,1.223913 -0.50586,2.228516 l -0.70508,2.771484 c -0.35241,1.346326 -0.52734,2.36798 -0.52734,3.0625 0,0.769273 0.20657,1.401674 0.62305,1.898438 0.41687,0.49716 0.97344,0.746094 1.66797,0.746094 0.87646,0 1.656,-0.227196 2.33984,-0.681641 0.68385,-0.454049 1.48552,-1.171447 2.4043,-2.154297 l -0.91407,-0.898437 c -0.66248,0.737237 -1.17403,1.236218 -1.53711,1.498046 -0.36348,0.261831 -0.70698,0.392579 -1.02734,0.392579 -0.29941,0 -0.51703,-0.09489 -0.65625,-0.28711 -0.13883,-0.192615 -0.20898,-0.502138 -0.20898,-0.929687 0,-0.480944 0.14487,-1.303964 0.43359,-2.46875 l 1.04102,-4.199219 c 0.30968,-1.239538 0.46484,-2.197535 0.46484,-2.8710937 0,-1.0148865 -0.26644,-1.8069943 -0.80078,-2.3789062 -0.53433,-0.5715164 -1.29904,-0.8574219 -2.29297,-0.8574219 -1.00421,0 -1.97816,0.3537162 -2.92383,1.0644531 -0.94568,0.710737 -1.94291,1.8044285 -2.99023,3.2792967 l -0.19141,-0.06445 c 0.25629,-0.6949167 0.38281,-1.3262033 0.38281,-1.892578 0,-0.7158786 -0.194,-1.2949112 -0.58398,-1.7382813 -0.38997,-0.4433701 -0.92255,-0.6660156 -1.59571,-0.6660156 z M 5.658203,9.3769531 h 7.421875 l -4.05664,9.5214839 z m 122.697267,0 h 7.42187 l -4.05664,9.5214839 z m 102.43945,3.9101559 c -0.77758,0 -1.49272,0.158175 -2.14453,0.476563 -0.6518,0.317992 -1.21404,0.801368 -1.68945,1.449218 -0.47501,0.647851 -0.84401,1.46365 -1.10743,2.445313 -0.26301,0.981664 -0.39453,2.143561 -0.39453,3.486328 0,2.568066 0.42351,4.483592 1.27149,5.748047 0.84837,1.264455 2.14329,1.896484 3.88672,1.896484 1.75924,0 3.1026,-0.668605 4.02929,-2.007812 0.92668,-1.338812 1.39063,-3.316113 1.39063,-5.931641 0,-1.177838 -0.0987,-2.233371 -0.29492,-3.167969 -0.19618,-0.934598 -0.5038,-1.727149 -0.92383,-2.375 -0.42004,-0.648246 -0.96368,-1.146855 -1.62695,-1.496093 -0.66367,-0.349634 -1.46189,-0.523438 -2.39649,-0.523438 z m -0.0469,1.142578 c 0.46354,0 0.87291,0.133419 1.23046,0.400391 0.35714,0.266971 0.65335,0.680559 0.88868,1.242188 0.23572,0.561233 0.41949,1.278679 0.54882,2.15039 0.12971,0.87171 0.19336,1.912011 0.19336,3.121094 0,1.076191 -0.0579,2.009779 -0.17578,2.798828 -0.11786,0.789444 -0.29206,1.440515 -0.52343,1.955078 -0.23177,0.514167 -0.52571,0.893083 -0.87891,1.136719 -0.35358,0.243636 -0.76488,0.365234 -1.23633,0.365234 -0.5027,0 -0.93577,-0.129215 -1.29687,-0.388672 -0.3615,-0.259061 -0.6607,-0.663127 -0.90039,-1.21289 -0.23928,-0.549763 -0.4154,-1.251581 -0.5293,-2.103516 -0.11386,-0.852331 -0.17188,-1.86288 -0.17188,-3.033203 0,-1.012909 0.0461,-1.917886 0.13672,-2.714844 0.0902,-0.797355 0.24304,-1.473626 0.45899,-2.027344 0.21595,-0.553717 0.50794,-0.973414 0.87695,-1.259765 0.36941,-0.286747 0.82915,-0.429688 1.37891,-0.429688 z m -118.92575,3.732422 c 0.0748,0.79063 0.11328,1.592309 0.11328,2.404297 0,0.790631 -0.053,1.447044 -0.16016,1.970703 -0.10679,0.523659 -0.28368,0.991011 -0.5293,1.402344 -0.24561,0.411334 -0.64053,0.873739 -1.18554,1.386719 l 0.86523,0.978515 c 0.98285,-0.737236 1.75517,-1.412716 2.31641,-2.027343 0.56084,-0.614232 0.97027,-1.231794 1.22656,-1.851563 0.25669,-0.619769 0.38477,-1.304819 0.38477,-2.052734 0,-0.726557 -0.0747,-1.463023 -0.22461,-2.210938 z m 347.12109,22.90625 c -0.31367,0 -0.61576,0.04372 -0.89844,0.128907 -0.28656,0.08516 -0.57283,0.216433 -0.85937,0.398437 -0.29046,0.178122 -0.59266,0.410642 -0.91407,0.689453 -0.31749,0.28269 -0.66937,0.618651 -1.05273,1.009766 l 0.79297,0.751953 c 0.23234,-0.240087 0.44103,-0.448788 0.62305,-0.623047 0.18587,-0.178123 0.35684,-0.325196 0.51562,-0.4375 0.15875,-0.116167 0.30595,-0.205545 0.44922,-0.259766 0.14329,-0.05813 0.28246,-0.08984 0.42187,-0.08984 0.45305,0 0.67774,0.284202 0.67774,0.845703 0,0.197483 -0.0238,0.455872 -0.0664,0.769531 -0.0464,0.317532 -0.12,0.673409 -0.2207,1.072266 l -1.73047,7.521484 h 2.26172 l 1.29297,-5.789063 c 0.0736,-0.352381 0.1987,-0.710143 0.36133,-1.066406 0.16652,-0.360128 0.35543,-0.700147 0.57226,-1.029297 0.21299,-0.325285 0.44953,-0.63145 0.70899,-0.921875 0.25944,-0.286564 0.52187,-0.538936 0.78906,-0.748046 0.27107,-0.212982 0.5394,-0.377999 0.80273,-0.498047 0.26718,-0.116178 0.51372,-0.179688 0.74219,-0.179688 0.39887,0 0.69105,0.113283 0.87305,0.337891 0.182,0.220726 0.26953,0.572516 0.26953,1.048828 0,0.197484 -0.022,0.449933 -0.0723,0.755859 -0.0503,0.302042 -0.11992,0.649879 -0.20898,1.03711 -0.089,0.387241 -0.19436,0.808707 -0.31055,1.269531 -0.12003,0.456933 -0.24731,0.934059 -0.38672,1.433594 -0.13165,0.491794 -0.22908,0.944993 -0.29492,1.355468 -0.0659,0.414348 -0.0957,0.770291 -0.0957,1.080078 0,0.305926 0.0418,0.5882 0.13476,0.847657 0.0929,0.255577 0.22416,0.480137 0.39453,0.666015 0.16652,0.189748 0.36732,0.338826 0.60352,0.447266 0.23623,0.108423 0.49264,0.162109 0.76758,0.162109 0.32913,0 0.64316,-0.04764 0.93359,-0.132812 0.29431,-0.08905 0.58852,-0.224246 0.88281,-0.40625 0.29818,-0.178131 0.6043,-0.406727 0.91797,-0.685547 0.31365,-0.274926 0.66149,-0.606863 1.03711,-0.990234 l -0.79687,-0.763672 c -0.22846,0.255576 -0.43714,0.472302 -0.61914,0.654297 -0.18587,0.178131 -0.3568,0.329113 -0.50782,0.441406 -0.1549,0.116177 -0.30203,0.201648 -0.44531,0.255859 -0.14328,0.05414 -0.28645,0.08203 -0.43359,0.08203 -0.23621,0 -0.4111,-0.06561 -0.51953,-0.197266 -0.10842,-0.131665 -0.16211,-0.342412 -0.16211,-0.636719 0,-0.07744 0.034,-0.27035 0.10351,-0.587891 0.0698,-0.313659 0.15913,-0.693338 0.26758,-1.138671 0.1084,-0.44919 0.22179,-0.934286 0.3457,-1.460938 0.12392,-0.526641 0.23921,-1.039526 0.34766,-1.539062 0.10455,-0.499546 0.19397,-0.960721 0.26367,-1.382813 0.0698,-0.425964 0.10352,-0.755962 0.10352,-0.992187 0,-0.793834 -0.20082,-1.408125 -0.60742,-1.845703 -0.40271,-0.437582 -1.01105,-0.660157 -1.82813,-0.660157 -0.77447,0 -1.5259,0.25639 -2.25391,0.763672 -0.72802,0.507288 -1.46354,1.270663 -2.20703,2.292969 l -0.16211,-0.05469 c 0.0698,-0.154899 0.11548,-0.317895 0.14258,-0.488281 0.0271,-0.166515 0.043,-0.329486 0.043,-0.484375 0,-0.604096 -0.15895,-1.095053 -0.46875,-1.466797 -0.30978,-0.375625 -0.75107,-0.5625 -1.32031,-0.5625 z m -107.48633,4.298828 c -4.29836,3.68264 -7.71351,9.173232 -10.23828,16.476563 -2.52869,7.303339 -3.79102,15.455603 -3.79102,24.451172 0,8.863923 1.26233,17.000358 3.79102,24.412108 2.52477,7.41563 5.93992,12.95191 10.23828,16.61133 l 0.74024,-1.16211 c -3.71364,-3.77558 -6.57617,-9.24226 -8.58594,-16.39844 -2.00977,-7.15619 -3.01172,-14.970582 -3.01172,-23.447263 0,-8.670294 1.00588,-16.524367 3.01953,-23.556641 2.01364,-7.028393 4.87223,-12.433402 8.57813,-16.208984 z m 86.73438,0 -0.73633,1.177735 c 3.69426,3.775582 6.54891,9.180591 8.57031,16.208984 2.01752,7.032274 3.02734,14.886347 3.02734,23.556641 0,8.476681 -1.00195,16.291073 -3.01172,23.447263 -2.00977,7.15618 -4.87231,12.62286 -8.58593,16.39844 l 0.73633,1.16211 c 4.30224,-3.65942 7.7135,-9.1957 10.24218,-16.61133 2.5248,-7.41175 3.79102,-15.548185 3.79102,-24.412108 0,-8.995569 -1.26622,-17.147842 -3.79102,-24.451172 -2.52868,-7.30334 -5.93994,-12.793923 -10.24218,-16.476563 z m -9.38282,4.291016 -7.34179,4.378906 0.68945,1.208985 c 0.91002,-0.607976 1.6734,-1.08505 2.29297,-1.429688 0.61573,-0.344657 1.09083,-0.519531 1.42383,-0.519531 0.28271,0 0.49933,0.09739 0.64648,0.291015 0.14327,0.193613 0.2168,0.499749 0.2168,0.917969 v 12.728516 c 0,0.731889 -0.0577,1.262569 -0.17774,1.583984 -0.12006,0.325274 -0.31281,0.577718 -0.57226,0.75586 -0.26333,0.178131 -0.643,0.309365 -1.13867,0.398437 -0.49567,0.08905 -1.32846,0.15868 -2.48633,0.212891 v 1.146484 h 11.59765 v -1.146484 c -0.80931,-0.01931 -1.45547,-0.06098 -1.94726,-0.115235 -0.49181,-0.05813 -0.89934,-0.143529 -1.22461,-0.251953 -0.3253,-0.112293 -0.57185,-0.26341 -0.7461,-0.457031 -0.17039,-0.193621 -0.29164,-0.446029 -0.36132,-0.751953 -0.0658,-0.309788 -0.0996,-0.767023 -0.0996,-1.375 V 53.832031 c 0,-1.777436 0.0299,-3.170883 0.0918,-4.173828 z m -70.74804,6.400391 c -0.79386,0 -1.52533,0.224605 -2.1875,0.669922 -0.66606,0.445323 -1.45727,1.147095 -2.37891,2.111328 l 0.89453,0.878906 c 0.62731,-0.700901 1.12424,-1.185932 1.48438,-1.453125 0.36012,-0.267193 0.70399,-0.398438 1.02539,-0.398438 0.29433,0 0.50703,0.09342 0.64257,0.279297 0.13939,0.189738 0.20508,0.491973 0.20508,0.914063 0,0.542131 -0.11528,1.31736 -0.34375,2.320312 l -2.29297,9.951172 h 2.71485 l 1.49023,-6.796875 c 0.22073,-0.964222 0.49308,-1.777341 0.81836,-2.447266 0.32528,-0.669924 0.77263,-1.369605 1.34961,-2.09375 0.57312,-0.728006 1.11579,-1.258741 1.62305,-1.58789 0.50729,-0.329157 0.9605,-0.492188 1.35937,-0.492188 0.56537,0 0.97889,0.159031 1.2461,0.476563 0.26718,0.321404 0.40039,0.856214 0.40039,1.611328 0,0.333021 -0.0398,0.734533 -0.11719,1.199219 -0.0776,0.464696 -0.2285,1.186229 -0.44922,2.158203 l -1.80469,7.972656 h 2.71485 l 1.42969,-6.857422 c 0.20911,-0.975839 0.49132,-1.79694 0.83984,-2.474609 0.35238,-0.673796 0.80175,-1.359567 1.35937,-2.052734 0.55376,-0.697021 1.08057,-1.211867 1.58399,-1.541016 0.50341,-0.329157 0.97065,-0.492188 1.41211,-0.492188 0.54213,0 0.93764,0.159031 1.17773,0.476563 0.24009,0.321404 0.35938,0.840319 0.35938,1.564453 0,0.290427 -0.0379,0.67401 -0.11914,1.142578 -0.0776,0.472432 -0.24047,1.2 -0.49219,2.183594 l -0.69336,2.714844 c -0.34464,1.316614 -0.51367,2.314544 -0.51367,2.996093 0,0.751248 0.20085,1.375319 0.61133,1.859375 0.40661,0.487919 0.95318,0.732422 1.63085,0.732422 0.85969,0 1.62303,-0.224665 2.29297,-0.677734 0.66991,-0.449197 1.45512,-1.150911 2.35352,-2.103516 l -0.89453,-0.878906 c -0.65059,0.724136 -1.14959,1.213174 -1.50586,1.46875 -0.35627,0.255587 -0.69026,0.386719 -1.00781,0.386719 -0.29043,0 -0.50703,-0.09732 -0.64258,-0.283203 -0.13553,-0.189748 -0.20117,-0.491938 -0.20117,-0.910157 0,-0.472431 0.13917,-1.277558 0.42187,-2.419921 L 376.875,62.05664 c 0.3059,-1.215935 0.45898,-2.152241 0.45898,-2.810546 0,-1.002955 -0.26435,-1.782213 -0.78711,-2.339844 -0.52277,-0.553755 -1.2662,-0.828125 -2.22656,-0.828125 -0.96422,0 -1.89062,0.310148 -2.78515,0.933594 -0.89839,0.619585 -1.79306,1.571686 -2.69532,2.845703 0.0115,-0.08126 0.0195,-0.162747 0.0195,-0.236328 v -0.216797 c 0,-1.0804 -0.26239,-1.901503 -0.78515,-2.47461 -0.52278,-0.569247 -1.28614,-0.851562 -2.29297,-0.851562 -0.97198,0 -1.93607,0.34594 -2.88867,1.042969 -0.94875,0.697029 -1.90878,1.760559 -2.86914,3.193359 l -0.18946,-0.06055 c 0.24008,-0.650561 0.35938,-1.262854 0.35938,-1.839844 0,-0.700892 -0.1889,-1.267453 -0.57227,-1.701172 -0.37951,-0.433708 -0.90225,-0.654296 -1.56054,-0.654296 z m 31.88867,5.039062 v 2.085938 H 409.2832 V 61.097656 Z M 26.326172,71.458984 c -3.05532,0.805461 -5.401805,2.544873 -7.039062,5.220703 -1.637247,2.671951 -2.455078,5.898249 -2.455078,9.673829 0,3.787199 0.81505,7.013524 2.447265,9.677734 1.632214,2.66033 3.981101,4.39375 7.046875,5.19922 l 0.375,-1.20898 c -2.416764,-0.805482 -4.213411,-2.395761 -5.390625,-4.769537 -1.176823,-2.37378 -1.765625,-5.395273 -1.765625,-9.054687 0,-3.539377 0.588802,-6.473573 1.765625,-8.8125 1.177214,-2.338929 2.989368,-3.911346 5.4375,-4.716797 z m 60.298828,0 -0.425781,1.208985 c 2.458967,0.805451 4.273932,2.377868 5.447266,4.716797 1.169467,2.338927 1.757812,5.273123 1.757812,8.8125 0,3.659413 -0.588424,6.680907 -1.765625,9.054687 -1.17722,2.373776 -2.974285,3.964055 -5.394531,4.769537 l 0.380859,1.20898 c 3.063072,-0.80547 5.412699,-2.53889 7.042969,-5.19922 1.634156,-2.6642 2.451172,-5.890535 2.451172,-9.677734 0,-3.775582 -0.82095,-7.001878 -2.458984,-9.673829 C 92.02601,74.003857 89.680328,72.264445 86.625,71.458984 Z m 156.45508,4.783203 v 9.03711 h -8.55274 v 2.08789 h 8.55274 v 9.042969 h 2.22656 v -9.042969 h 8.55469 v -2.08789 h -8.55469 v -9.03711 z m 66.1875,1.490235 -1.56836,1.568359 7.14062,7.048828 -7.17578,7.15625 1.46094,1.47461 7.25195,-7.109375 7.0293,7.171875 1.57226,-1.56836 -7.04882,-7.125 7.0332,-7.15625 -1.47656,-1.460937 -7.10938,7.09375 z M 32.207032,80.242187 c -0.794996,0 -1.52338,0.224588 -2.1875,0.669922 -0.664491,0.441453 -1.458431,1.145142 -2.378907,2.109375 l 0.894532,0.88086 c 0.627719,-0.700911 1.123087,-1.185932 1.484375,-1.453125 0.360916,-0.267193 0.703237,-0.402344 1.027343,-0.402344 0.293147,0 0.506661,0.09733 0.642578,0.283203 0.135917,0.189749 0.203125,0.491936 0.203126,0.910156 0,0.546013 -0.113731,1.319312 -0.343751,2.322266 l -2.291015,9.953125 h 2.714844 l 1.490234,-6.796875 c 0.219956,-0.964231 0.49189,-1.781214 0.816406,-2.447266 0.324116,-0.669924 0.774179,-1.371602 1.34961,-2.099609 0.575448,-0.724134 1.115385,-1.254827 1.623046,-1.583985 0.507291,-0.329149 0.962068,-0.49414 1.359376,-0.49414 0.564983,0 0.981242,0.162928 1.248046,0.480469 0.266811,0.321406 0.398438,0.854228 0.398438,1.605468 0,0.336902 -0.03893,0.736511 -0.117188,1.205079 -0.07856,0.464686 -0.22771,1.184274 -0.447265,2.15625 l -1.804688,7.974609 h 2.714844 L 42.03125,88.65625 c 0.209499,-0.975848 0.489003,-1.800814 0.839844,-2.47461 0.350451,-0.673794 0.802893,-1.357658 1.357422,-2.054687 0.554526,-0.693165 1.084079,-1.209905 1.585937,-1.539063 0.502248,-0.329149 0.97259,-0.49414 1.41211,-0.49414 0.544072,0 0.937258,0.162928 1.177734,0.480469 0.240869,0.321406 0.361328,0.840273 0.361328,1.560547 0,0.294289 -0.04089,0.675973 -0.11914,1.144531 -0.07856,0.472431 -0.243216,1.201964 -0.494141,2.185547 l -0.691406,2.71289 c -0.345409,1.316614 -0.517578,2.3165 -0.517578,2.998047 0,0.751234 0.205127,1.371446 0.613281,1.859375 0.408153,0.487908 0.952814,0.726563 1.632812,0.726563 0.857732,0 1.61953,-0.224622 2.289063,-0.673829 0.669543,-0.449188 1.457113,-1.148937 2.355469,-2.101562 L 52.9375,92.107422 c -0.647852,0.72414 -1.149985,1.211217 -1.505859,1.466797 -0.355484,0.255574 -0.689865,0.382812 -1.003906,0.382812 -0.292758,0 -0.50666,-0.09145 -0.642578,-0.28125 -0.135928,-0.185867 -0.205078,-0.49193 -0.205078,-0.910156 0,-0.468548 0.141536,-1.27366 0.423828,-2.416016 l 1.019531,-4.113281 c 0.303595,-1.212064 0.455078,-2.148335 0.455078,-2.806641 0,-1.002945 -0.260034,-1.786087 -0.783203,-2.339843 -0.522768,-0.553748 -1.266225,-0.832032 -2.228516,-0.832032 -0.962689,0 -1.892588,0.314008 -2.787109,0.933594 -0.894534,0.623447 -1.79147,1.571717 -2.691406,2.84961 0.01087,-0.08516 0.01563,-0.162758 0.01563,-0.236329 v -0.220703 c 0,-1.076526 -0.260033,-1.901457 -0.783204,-2.470703 -0.52316,-0.569246 -1.286902,-0.855469 -2.291015,-0.855469 -0.973129,0 -1.936839,0.347884 -2.888672,1.044922 -0.952225,0.693147 -1.908412,1.758653 -2.871094,3.195313 l -0.189453,-0.06641 c 0.240477,-0.646687 0.361328,-1.258957 0.361328,-1.835937 0,-0.700902 -0.190445,-1.265545 -0.572265,-1.703125 -0.381818,-0.433709 -0.903423,-0.650391 -1.5625,-0.650391 z m 39.376953,0 c -0.80545,0 -1.529014,0.212675 -2.167969,0.634766 -0.635073,0.425965 -1.438112,1.137704 -2.402344,2.144531 l 0.894531,0.88086 c 0.62733,-0.700911 1.124249,-1.185932 1.484376,-1.453125 0.364009,-0.267193 0.704019,-0.402344 1.029296,-0.402344 0.290436,0 0.507039,0.09733 0.642578,0.283203 0.135526,0.189749 0.205079,0.491936 0.205079,0.910156 0,0.546013 -0.115305,1.319312 -0.347657,2.322266 l -2.289062,9.953125 h 2.714844 l 1.490234,-6.796875 c 0.220736,-0.975839 0.504963,-1.792934 0.849609,-2.458984 0.344648,-0.662179 0.799906,-1.347961 1.369141,-2.052735 0.57312,-0.708654 1.11185,-1.235507 1.619141,-1.587891 0.50728,-0.348518 0.980422,-0.52539 1.421875,-0.52539 0.54214,0 0.933741,0.162928 1.173828,0.480469 0.243961,0.321406 0.363281,0.840274 0.363281,1.560547 0,0.294289 -0.03799,0.675973 -0.119141,1.144531 -0.07744,0.472431 -0.244355,1.201964 -0.492187,2.185547 l -0.693359,2.71289 c -0.344648,1.316614 -0.515625,2.3165 -0.515626,2.998047 0,0.751234 0.200855,1.371446 0.611329,1.859375 0.406604,0.487908 0.95319,0.726563 1.630859,0.726563 0.859672,0 1.623047,-0.218745 2.292969,-0.664063 0.669935,-0.445338 1.451247,-1.147092 2.353515,-2.111328 l -0.894531,-0.878906 c -0.650564,0.72414 -1.149604,1.211217 -1.505859,1.466797 -0.356262,0.255574 -0.692191,0.382812 -1.00586,0.382812 -0.290416,0 -0.509003,-0.09145 -0.644531,-0.28125 -0.135538,-0.185867 -0.205078,-0.49193 -0.205078,-0.910156 0,-0.468548 0.145052,-1.27366 0.427734,-2.416016 l 1.017579,-4.113281 c 0.305922,-1.212064 0.457031,-2.148335 0.457031,-2.806641 0,-0.9952 -0.26434,-1.77053 -0.78711,-2.332031 -0.52277,-0.55763 -1.268257,-0.839844 -2.240234,-0.839844 -0.983583,0 -1.941687,0.347884 -2.867187,1.044922 -0.925512,0.693147 -1.901557,1.76654 -2.927735,3.210938 l -0.185547,-0.06641 c 0.247832,-0.677661 0.375,-1.297807 0.375,-1.851563 0,-0.700902 -0.188896,-1.265545 -0.572265,-1.703125 -0.383361,-0.433709 -0.90224,-0.650391 -1.560547,-0.650391 z m 73.931635,0 c -0.80932,0 -1.52902,0.212675 -2.16796,0.634766 -0.63895,0.425965 -1.43812,1.137704 -2.40235,2.144531 l 0.89649,0.88086 c 0.62733,-0.700911 1.12226,-1.185932 1.48242,-1.453125 0.36012,-0.267193 0.70401,-0.402344 1.02929,-0.402344 0.29044,0 0.50706,0.09733 0.64258,0.283203 0.13554,0.189749 0.20118,0.491936 0.20118,0.910156 0,0.546013 -0.11141,1.319312 -0.34376,2.322266 l -2.28906,9.953125 h 2.71485 l 1.49218,-6.796875 c 0.21685,-0.975839 0.49914,-1.792934 0.84766,-2.458984 0.34464,-0.662179 0.80185,-1.347961 1.37109,-2.052735 0.56925,-0.708654 1.10989,-1.235507 1.61719,-1.587891 0.50728,-0.348518 0.98038,-0.52539 1.41797,-0.52539 0.54601,0 0.93764,0.162928 1.17773,0.480469 0.24396,0.321406 0.36329,0.840274 0.36329,1.560547 0,0.294289 -0.0417,0.675973 -0.11914,1.144531 -0.0776,0.472431 -0.24435,1.201964 -0.49219,2.185547 l -0.69336,2.71289 c -0.34466,1.316614 -0.51953,2.3165 -0.51953,2.998047 0,0.751234 0.20476,1.371446 0.61523,1.859375 0.40661,0.487908 0.94931,0.726563 1.63086,0.726563 0.85968,0 1.62303,-0.218745 2.29297,-0.664063 0.66993,-0.445338 1.45125,-1.147092 2.35352,-2.111328 l -0.89454,-0.878906 c -0.65056,0.72414 -1.15348,1.211217 -1.50586,1.466797 -0.35625,0.255574 -0.69219,0.382812 -1.00586,0.382812 -0.29043,0 -0.50899,-0.09145 -0.64453,-0.28125 -0.13553,-0.185867 -0.20312,-0.49193 -0.20312,-0.910156 0,-0.468548 0.14308,-1.27366 0.42578,-2.416016 l 1.01758,-4.113281 c 0.30592,-1.212064 0.45703,-2.148335 0.45703,-2.806641 0,-0.9952 -0.26433,-1.77053 -0.78711,-2.332031 -0.52277,-0.55763 -1.26824,-0.839844 -2.24023,-0.839844 -0.98358,0 -1.9417,0.347884 -2.86719,1.044922 -0.9255,0.693147 -1.90154,1.76654 -2.92774,3.210938 l -0.18945,-0.06641 c 0.25172,-0.677661 0.38086,-1.297807 0.38086,-1.851563 0,-0.700902 -0.19474,-1.265545 -0.57422,-1.703125 -0.38337,-0.433709 -0.90224,-0.650391 -1.56055,-0.650391 z m 57.1211,0 c -0.79382,0 -1.52533,0.224588 -2.1875,0.669922 -0.66605,0.441453 -1.45922,1.145142 -2.37695,2.109375 l 0.89453,0.88086 c 0.62731,-0.700911 1.11841,-1.185932 1.48242,-1.453125 0.36014,-0.267193 0.70204,-0.402344 1.02734,-0.402344 0.29428,0 0.50706,0.09733 0.64258,0.283203 0.13555,0.189749 0.20508,0.491936 0.20508,0.910156 0,0.546013 -0.11722,1.319312 -0.34571,2.322266 l -2.29101,9.953125 h 2.71484 l 1.49024,-6.796875 c 0.22072,-0.964231 0.49113,-1.781214 0.8164,-2.447266 0.32529,-0.669924 0.77455,-1.371602 1.34766,-2.099609 0.57699,-0.724134 1.11967,-1.254827 1.62695,-1.583985 0.50728,-0.329149 0.96048,-0.49414 1.35547,-0.49414 0.56535,0 0.98281,0.162928 1.25,0.480469 0.26721,0.321406 0.39844,0.854228 0.39844,1.605468 0,0.336902 -0.0379,0.736511 -0.11523,1.205079 -0.0813,0.464686 -0.2285,1.184274 -0.44922,2.15625 l -1.80469,7.974609 h 2.71484 l 1.42774,-6.859375 c 0.20911,-0.975848 0.48745,-1.800814 0.83984,-2.47461 0.34852,-0.673794 0.80173,-1.357658 1.35547,-2.054687 0.55763,-0.693165 1.08643,-1.209905 1.58984,-1.539063 0.49953,-0.329149 0.97061,-0.49414 1.40821,-0.49414 0.54598,0 0.93763,0.162928 1.17773,0.480469 0.24397,0.321406 0.36328,0.840273 0.36328,1.560547 0,0.294289 -0.0417,0.675973 -0.11914,1.144531 -0.0776,0.472431 -0.24436,1.201964 -0.49219,2.185547 l -0.69336,2.71289 c -0.34463,1.316614 -0.51757,2.3165 -0.51757,2.998047 0,0.751234 0.20476,1.371446 0.61523,1.859375 0.40662,0.487908 0.94739,0.726563 1.62891,0.726563 0.85968,0 1.62305,-0.224622 2.29297,-0.673829 0.66992,-0.449188 1.45123,-1.148937 2.35351,-2.101562 l -0.89453,-0.878906 c -0.65056,0.72414 -1.15346,1.211217 -1.50586,1.466797 -0.35624,0.255574 -0.69218,0.382812 -1.00586,0.382812 -0.29042,0 -0.50704,-0.09145 -0.64258,-0.28125 -0.13554,-0.185867 -0.20508,-0.49193 -0.20507,-0.910156 0,-0.468548 0.14312,-1.27366 0.42578,-2.416016 l 1.01757,-4.113281 c 0.30592,-1.212064 0.45704,-2.148335 0.45704,-2.806641 0,-1.002945 -0.26238,-1.786087 -0.78516,-2.339843 -0.52278,-0.553748 -1.26621,-0.832032 -2.22656,-0.832032 -0.96424,0 -1.89456,0.314008 -2.78907,0.933594 -0.89454,0.623447 -1.78915,1.571717 -2.6914,2.84961 0.0115,-0.08516 0.0156,-0.162758 0.0156,-0.236329 v -0.220703 c 0,-1.076526 -0.26043,-1.901457 -0.7832,-2.470703 -0.52276,-0.569246 -1.28808,-0.855469 -2.29102,-0.855469 -0.97195,0 -1.93604,0.347884 -2.88867,1.044922 -0.95261,0.693147 -1.90878,1.758653 -2.86914,3.195313 l -0.1914,-0.06641 c 0.2401,-0.646687 0.36132,-1.258957 0.36132,-1.835937 0,-0.700902 -0.19084,-1.265545 -0.57421,-1.703125 -0.3795,-0.433709 -0.90223,-0.650391 -1.56055,-0.650391 z m 72.65429,0 c -0.79384,0 -1.52536,0.224588 -2.1914,0.669922 -0.66219,0.441453 -1.45528,1.145142 -2.37305,2.109375 l 0.89453,0.88086 c 0.62732,-0.700911 1.11838,-1.185932 1.47852,-1.453125 0.36399,-0.267193 0.70402,-0.402344 1.0293,-0.402344 0.29428,0 0.50705,0.09733 0.64257,0.283203 0.13555,0.189749 0.20703,0.491936 0.20703,0.910156 0,0.546013 -0.11725,1.319312 -0.3457,2.322266 l -2.29297,9.953125 h 2.71485 l 1.49023,-6.796875 c 0.22073,-0.964231 0.49306,-1.781214 0.81836,-2.447266 0.32527,-0.669924 0.77456,-1.371602 1.34766,-2.099609 0.57699,-0.724134 1.11967,-1.254827 1.62695,-1.583985 0.50728,-0.329149 0.96049,-0.49414 1.35547,-0.49414 0.56537,0 0.9828,0.162928 1.25,0.480469 0.26331,0.321406 0.39844,0.854228 0.39844,1.605468 0,0.336902 -0.0378,0.736511 -0.11524,1.205079 -0.0814,0.464686 -0.22851,1.184274 -0.44922,2.15625 l -1.80468,7.974609 h 2.71484 l 1.42773,-6.859375 c 0.2091,-0.975848 0.48745,-1.800814 0.83985,-2.47461 0.34851,-0.673794 0.80171,-1.357658 1.35547,-2.054687 0.55373,-0.693165 1.08449,-1.209905 1.58789,-1.539063 0.49954,-0.329149 0.97258,-0.49414 1.41015,-0.49414 0.54602,0 0.93765,0.162928 1.17774,0.480469 0.2401,0.321406 0.35937,0.840273 0.35937,1.560547 0,0.294289 -0.0378,0.675973 -0.11523,1.144531 -0.0775,0.472431 -0.24442,1.201964 -0.4961,2.185547 l -0.68945,2.71289 c -0.34465,1.316614 -0.51953,2.3165 -0.51953,2.998047 0,0.751234 0.20473,1.371446 0.61133,1.859375 0.41047,0.487908 0.95323,0.726563 1.63476,0.726563 0.85581,0 1.62306,-0.224622 2.29297,-0.673829 0.66993,-0.449188 1.45125,-1.148937 2.35352,-2.101562 l -0.89453,-0.878906 c -0.65056,0.72414 -1.15351,1.211217 -1.50977,1.466797 -0.35238,0.255574 -0.68828,0.382812 -1.00195,0.382812 -0.29431,0 -0.509,-0.09145 -0.64453,-0.28125 -0.13553,-0.185867 -0.20508,-0.49193 -0.20508,-0.910156 0,-0.468548 0.14504,-1.27366 0.42773,-2.416016 l 1.01758,-4.113281 c 0.30206,-1.212064 0.45703,-2.148335 0.45703,-2.806641 0,-1.002945 -0.26434,-1.786087 -0.78711,-2.339843 -0.52278,-0.553748 -1.26626,-0.832032 -2.23047,-0.832032 -0.96034,0 -1.88868,0.314008 -2.7832,0.933594 -0.89452,0.623447 -1.79301,1.571717 -2.6914,2.84961 0.0116,-0.08516 0.0156,-0.162758 0.0156,-0.236329 v -0.220703 c 0,-1.076526 -0.26045,-1.901457 -0.78711,-2.470703 -0.52276,-0.569246 -1.28413,-0.855469 -2.28711,-0.855469 -0.97196,0 -1.938,0.347884 -2.89062,1.044922 -0.9526,0.693147 -1.90883,1.758653 -2.87305,3.195313 l -0.18555,-0.06641 c 0.24009,-0.646687 0.36133,-1.258957 0.36133,-1.835937 0,-0.700902 -0.19085,-1.265545 -0.57422,-1.703125 -0.38337,-0.433709 -0.90226,-0.650391 -1.56055,-0.650391 z M 8.740235,80.257817 c -1.224061,0 -2.373486,0.250497 -3.451172,0.753907 -1.077687,0.503416 -2.02071,1.260829 -2.826172,2.27539 C 1.65704,84.305566 1.045554,85.482389 0.626953,86.818364 0.208343,88.158213 0,89.388686 0,90.507817 c 0,1.71547 0.392796,3.025426 1.177735,3.923828 0.784539,0.898399 1.933926,1.347657 3.451172,1.347657 1.150878,0 2.225527,-0.248535 3.224609,-0.751953 0.999072,-0.5034 1.991026,-1.296605 2.974609,-2.384766 L 9.871094,91.685552 c -0.774473,0.774488 -1.5096,1.339075 -2.205078,1.699219 -0.695869,0.363995 -1.518878,0.542968 -2.470703,0.542968 -0.83721,0 -1.466157,-0.260361 -1.884766,-0.77539 -0.418601,-0.518915 -0.626953,-1.312041 -0.626953,-2.376954 0,-1.425044 0.267176,-2.908005 0.800781,-4.449218 0.533616,-1.545084 1.220248,-2.737813 2.0625,-3.578125 0.842242,-0.844183 1.792826,-1.265625 2.84961,-1.265625 0.449967,0 0.797078,0.08751 1.042968,0.265625 0.245904,0.178131 0.42324,0.44647 0.533204,0.802734 0.109982,0.356253 0.176353,0.928845 0.197265,1.726563 h 1.646485 l 0.769531,-3.546875 C 11.414147,80.41681 10.13159,80.257817 8.740235,80.257817 Z m 101.335935,1.773438 v 2.085937 h 19.33399 v -2.085937 z m 58.89453,3.248047 v 2.08789 h 19.33594 v -2.08789 z m 184.09375,0.164062 v 1.935547 h 83.25782 v -1.935552 z m -242.98828,3.101558 v 2.085937 h 19.33399 v -2.085937 z m 373.1836,2.513672 c -0.0925,-0.0077 -0.18718,0.0025 -0.28126,0.0332 -0.37626,0.122844 -0.58182,0.524128 -0.45898,0.90039 l 1.39844,4.279297 c 0.12284,0.376263 0.52413,0.579875 0.90039,0.457032 0.37626,-0.122845 0.57987,-0.524129 0.45703,-0.900391 l -1.39648,-4.279297 c -0.0921,-0.282197 -0.34164,-0.467042 -0.61914,-0.490234 z m 8.34765,0.609375 c -0.27818,-0.01267 -0.54814,0.138236 -0.67578,0.40625 l -1.93555,4.064453 c -0.17018,0.357352 -0.0195,0.782937 0.33789,0.953125 0.35736,0.170187 0.78099,0.01946 0.95118,-0.337891 l 1.93554,-4.064453 c 0.17019,-0.357352 0.0195,-0.782937 -0.33789,-0.953125 -0.0893,-0.04255 -0.18266,-0.06414 -0.27539,-0.06836 z M 56.759766,91.871094 c 0.07356,0.774487 0.113281,1.561622 0.113281,2.355468 0,0.774494 -0.05359,1.41662 -0.158203,1.931641 -0.10455,0.511148 -0.27557,0.968374 -0.519531,1.371094 -0.240096,0.402736 -0.62769,0.854023 -1.158203,1.357422 l 0.84375,0.957031 c 0.964221,-0.720263 1.719656,-1.382236 2.269531,-1.986328 0.549884,-0.600221 0.949514,-1.20453 1.201172,-1.8125 0.251751,-0.604092 0.375,-1.273967 0.375,-2.00586 0,-0.712519 -0.07358,-1.436084 -0.216797,-2.167968 z m 420.093744,4.792968 c -0.278,-0.01611 -0.55069,0.133976 -0.68164,0.400391 -0.17459,0.35522 -0.029,0.780484 0.32618,0.955078 l 4.04101,1.986329 c 0.35522,0.1746 0.78049,0.029 0.95508,-0.326173 0.17459,-0.355219 0.029,-0.782437 -0.32617,-0.957031 l -4.03906,-1.984375 c -0.0888,-0.04365 -0.18273,-0.06885 -0.2754,-0.07422 z m 20.30665,1.285157 c -0.0927,-0.0046 -0.18827,0.0072 -0.28125,0.04102 l -4.23047,1.541016 c -0.37195,0.135352 -0.56309,0.544065 -0.42774,0.916015 0.13535,0.37194 0.54407,0.56113 0.91602,0.42578 l 4.23047,-1.539061 c 0.37194,-0.135352 0.56308,-0.544069 0.42773,-0.916015 -0.10151,-0.27896 -0.35664,-0.454847 -0.63476,-0.46875 z m -11.1211,1.404297 c -0.84767,0.02922 -1.55376,0.567238 -1.95898,1.537114 -0.56574,1.354 -0.26681,2.08878 2.91992,7.18554 1.49602,2.39271 2.89007,4.59952 3.09766,4.9043 0.83457,1.22534 0.87475,1.16012 -0.68555,1.07422 -0.90725,0.006 -1.4095,0.046 -2.14063,0.29883 -2.21415,1.08327 -1.87472,3.33398 0.70899,4.68945 0.51772,0.2716 1.98371,0.9057 3.25586,1.4082 2.61533,1.03307 3.94795,1.70899 5.6582,2.86914 1.56683,1.06285 2.79177,2.18866 3.46875,3.18555 0.42089,0.61979 0.63425,0.8125 0.89258,0.8125 0.20421,0 1.64701,-0.85712 3.63086,-2.1582 1.81087,-1.18764 4.02984,-2.63683 4.93164,-3.2207 2.79123,-1.80724 2.76245,-1.78252 2.68555,-2.28516 -0.0369,-0.24162 -0.331,-1.05847 -0.65235,-1.81445 -0.32135,-0.75598 -0.79069,-2.18907 -1.04297,-3.18555 -0.58448,-2.30866 -1.02396,-3.52074 -1.96289,-5.39649 -1.60325,-3.20288 -3.70331,-5.91539 -5.10742,-6.59961 -0.99486,-0.48541 -2.38688,-0.47974 -3.25781,0.0117 -0.57953,0.32697 -0.73511,0.35283 -1.83789,0.29493 -1.14788,-0.0602 -1.25093,-0.0426 -2.13867,0.39648 -0.83178,0.41077 -1.03791,0.45689 -1.91407,0.42187 -1.05694,-0.0422 -1.81662,0.18188 -2.36523,0.69727 -0.16684,0.15679 -0.36019,0.25003 -0.42969,0.20703 -0.0695,-0.0429 -0.84732,-1.03399 -1.72851,-2.20312 -1.58479,-2.10264 -2.16092,-2.651673 -3.13868,-2.988286 -0.30842,-0.106175 -0.60611,-0.15232 -0.88867,-0.142578 z m 0.21485,1.400394 c 0.284,0.0185 0.60161,0.14248 0.91992,0.36914 0.5163,0.36763 3.97368,4.93494 5.87695,7.76367 1.19187,1.77139 1.55986,2.22266 1.80859,2.22266 0.34771,0 0.64454,-0.23612 0.64454,-0.51368 0,-0.10012 -0.65457,-1.16103 -1.45313,-2.35742 l -1.45117,-2.17578 0.37305,-0.38867 c 0.48024,-0.50136 1.23775,-0.73324 1.88281,-0.57422 0.42437,0.10461 0.67088,0.37025 1.79101,1.92383 1.02793,1.42568 1.3749,1.80965 1.66211,1.84375 0.25301,0.0299 0.40907,-0.0432 0.51563,-0.24219 0.19108,-0.35702 0.1348,-0.46325 -1.20703,-2.32617 -0.57004,-0.79142 -1.01363,-1.45852 -0.98633,-1.48242 0.61089,-0.53615 2.17406,-0.72346 2.77148,-0.33203 0.18635,0.1221 0.73386,0.82034 1.2168,1.55273 0.89241,1.35339 1.22242,1.58815 1.64453,1.16602 0.30459,-0.30458 0.17242,-0.67639 -0.66797,-1.88086 -0.96073,-1.37694 -0.93449,-1.54535 0.25977,-1.66016 1.04725,-0.10063 1.76502,0.30718 2.79687,1.58985 1.2653,1.57282 2.09106,2.85447 2.97461,4.61523 0.95187,1.89688 1.16599,2.48421 1.8711,5.14844 0.29642,1.11999 0.75922,2.57023 1.02929,3.22265 0.27006,0.65243 0.49219,1.21074 0.49219,1.24024 0,0.0295 -0.76389,0.54941 -1.69726,1.15625 -0.93341,0.60684 -2.99585,1.95778 -4.58399,3.00195 -1.58812,1.04417 -2.96063,1.92247 -3.04883,1.95117 0,0 -0.53649,-0.39491 -1.26758,-1.08984 -2.04784,-2.11197 -4.71527,-3.74911 -8.59179,-5.27149 -3.81245,-1.49721 -4.80908,-2.15575 -4.58789,-3.0371 0.22253,-0.88655 1.804,-1.0283 4.14453,-0.3711 1.49368,0.41938 1.81262,0.42642 1.95898,0.0449 0.0505,-0.13174 -0.77762,-1.56235 -2.18164,-3.76562 -5.73085,-8.99314 -5.80746,-9.12301 -5.88086,-10.04297 -0.0474,-0.59391 -0.005,-0.76684 0.25196,-1.03906 0.18325,-0.19407 0.43474,-0.28018 0.71875,-0.26172 z m -100.23829,0.86133 c -0.79385,0 -1.52728,0.21874 -2.18945,0.66406 -0.66605,0.44532 -1.45919,1.1471 -2.37695,2.11133 l 0.89453,0.8789 c 0.62733,-0.70091 1.11842,-1.18397 1.48242,-1.45117 0.36014,-0.26719 0.70207,-0.40039 1.02734,-0.40039 0.29431,0 0.50705,0.0934 0.64258,0.2832 0.13552,0.18588 0.20508,0.49194 0.20508,0.91016 0,0.54214 -0.11722,1.3154 -0.3457,2.31836 l -2.29102,9.95312 h 2.71289 l 1.49219,-6.79687 c 0.22073,-0.96423 0.49112,-1.77733 0.81641,-2.44727 0.32529,-0.66991 0.77454,-1.36574 1.34765,-2.09375 0.57699,-0.72801 1.11967,-1.25487 1.62696,-1.58789 0.50727,-0.32917 0.96046,-0.49218 1.35546,-0.49218 0.56536,0 0.98281,0.15903 1.25,0.47656 0.26721,0.32141 0.39844,0.85623 0.39844,1.61133 0,0.33303 -0.0378,0.73453 -0.11523,1.19922 -0.0814,0.46469 -0.2285,1.18624 -0.44922,2.1582 l -1.80469,7.97265 h 2.71485 l 1.42968,-6.85742 c 0.2091,-0.97199 0.48745,-1.79691 0.83985,-2.4707 0.3485,-0.67767 0.80172,-1.36347 1.35547,-2.05664 0.55762,-0.69702 1.08447,-1.208 1.58789,-1.54102 0.49952,-0.32917 0.97061,-0.49218 1.4082,-0.49218 0.54599,0 0.93766,0.15903 1.17773,0.47656 0.24395,0.32141 0.36524,0.84031 0.36524,1.56445 0,0.29043 -0.0436,0.67406 -0.1211,1.14649 -0.0776,0.46855 -0.2443,1.19609 -0.49218,2.17968 l -0.69336,2.71485 c -0.34465,1.31663 -0.51758,2.31456 -0.51758,2.99609 0,0.75512 0.20475,1.37532 0.61523,1.85938 0.40658,0.48791 0.94931,0.73242 1.63086,0.73242 0.85967,0 1.6211,-0.22468 2.29102,-0.67774 0.66993,-0.4492 1.4532,-1.15089 2.35547,-2.10351 l -0.89453,-0.87891 c -0.65055,0.72414 -1.15543,1.21317 -1.50782,1.46875 -0.35625,0.25945 -0.69221,0.38672 -1.00586,0.38672 -0.29042,0 -0.50704,-0.0972 -0.64257,-0.2832 -0.13554,-0.18975 -0.20508,-0.49195 -0.20508,-0.91016 0,-0.47243 0.14307,-1.27753 0.42578,-2.41602 l 1.01758,-4.11328 c 0.3059,-1.21593 0.45703,-2.14836 0.45703,-2.81054 0,-1.00296 -0.26239,-1.78026 -0.78516,-2.33789 -0.52277,-0.55376 -1.2662,-0.83008 -2.22656,-0.83008 -0.96422,0 -1.89455,0.31014 -2.78906,0.93359 -0.89454,0.62346 -1.78915,1.5717 -2.69141,2.8457 0.0115,-0.0814 0.0156,-0.16271 0.0156,-0.23242 v -0.2207 c 0,-1.07654 -0.25847,-1.89952 -0.78125,-2.46875 -0.52276,-0.57311 -1.29001,-0.85742 -2.29297,-0.85742 -0.97197,0 -1.93607,0.34397 -2.88867,1.04101 -0.95261,0.69703 -1.90879,1.76254 -2.86915,3.19532 l -0.18945,-0.0625 c 0.24008,-0.65055 0.35938,-1.26091 0.35938,-1.83789 0,-0.7009 -0.18892,-1.26552 -0.57227,-1.69922 -0.37951,-0.43373 -0.90225,-0.65039 -1.56055,-0.65039 z m 94.53516,1.93359 c -0.0927,-0.005 -0.18815,0.009 -0.28125,0.043 l -4.23633,1.52344 c -0.37241,0.13405 -0.56374,0.5436 -0.42969,0.91601 0.13406,0.37242 0.54165,0.56374 0.91407,0.42969 l 4.23633,-1.52539 c 0.37241,-0.13405 0.56374,-0.54165 0.42968,-0.91406 -0.10054,-0.27932 -0.35474,-0.45779 -0.63281,-0.47266 z m 3.25586,3.80664 c -0.27797,-0.0166 -0.55018,0.13227 -0.68164,0.39844 l -1.99414,4.03515 c -0.17528,0.35489 -0.0307,0.78176 0.32422,0.95704 0.35488,0.17527 0.78175,0.0307 0.95703,-0.32422 l 1.99414,-4.03516 c 0.17527,-0.35488 0.0307,-0.78176 -0.32422,-0.95703 -0.0887,-0.0438 -0.18273,-0.0687 -0.27539,-0.0742 z"
     id="path2"
     inkscape:connector-curvature="0" />
</svg>
