<?xml version="1.0" encoding="UTF-8" standalone="no"?>
<!-- Created with Inkscape (http://www.inkscape.org/) -->

<svg
   xmlns:dc="http://purl.org/dc/elements/1.1/"
   xmlns:cc="http://creativecommons.org/ns#"
   xmlns:rdf="http://www.w3.org/1999/02/22-rdf-syntax-ns#"
   xmlns:svg="http://www.w3.org/2000/svg"
   xmlns="http://www.w3.org/2000/svg"
   xmlns:sodipodi="http://sodipodi.sourceforge.net/DTD/sodipodi-0.dtd"
   xmlns:inkscape="http://www.inkscape.org/namespaces/inkscape"
   version="1.1"
   width="469.65878"
   height="127.30123"
   viewBox="0 0 469.65876 127.30123"
   id="svg2"
   style="display:block"
   sodipodi:docname="collision_formula.svg"
   inkscape:version="0.92.4 (5da689c313, 2019-01-14)">
  <sodipodi:namedview
     pagecolor="#ffffff"
     bordercolor="#666666"
     borderopacity="1"
     objecttolerance="10"
     gridtolerance="10"
     guidetolerance="10"
     inkscape:pageopacity="0"
     inkscape:pageshadow="2"
     inkscape:window-width="2169"
     inkscape:window-height="1151"
     id="namedview128"
     showgrid="false"
     inkscape:zoom="1.3134904"
     inkscape:cx="375.661"
     inkscape:cy="-129.49591"
     inkscape:window-x="60"
     inkscape:window-y="134"
     inkscape:window-maximized="0"
     inkscape:current-layer="svg2"
     fit-margin-top="0"
     fit-margin-left="0"
     fit-margin-right="0"
     fit-margin-bottom="0" />
  <metadata
     id="metadata244">
    <rdf:RDF>
      <cc:Work
         rdf:about="">
        <dc:format>image/svg+xml</dc:format>
        <dc:type
           rdf:resource="http://purl.org/dc/dcmitype/StillImage" />
        <dc:title></dc:title>
      </cc:Work>
    </rdf:RDF>
  </metadata>
  <defs
     id="defs4">
    <clipPath
       id="c0_1">
      <path
         d="M 36.7,452.8 V 335.1 h 27.1 v 117.7 z"
         id="path7"
         inkscape:connector-curvature="0" />
    </clipPath>
    <clipPath
       id="c1_1">
      <path
         d="M 64.5,452.8 V 335.1 h 7 v 117.7 z"
         id="path10"
         inkscape:connector-curvature="0" />
    </clipPath>
    <clipPath
       id="c2_1">
      <path
         d="M 76.6,452.8 V 335.1 h 19.1 v 117.7 z"
         id="path13"
         inkscape:connector-curvature="0" />
    </clipPath>
    <clipPath
       id="c3_1">
      <path
         d="M 103.4,452.8 V 335.1 h 20.2 v 117.7 z"
         id="path16"
         inkscape:connector-curvature="0" />
    </clipPath>
    <clipPath
       id="c4_1">
      <path
         d="M 133.1,452.8 V 335.1 h 23.1 v 117.7 z"
         id="path19"
         inkscape:connector-curvature="0" />
    </clipPath>
    <clipPath
       id="c5_1">
      <path
         d="M 163.9,452.8 V 335.1 H 183 v 117.7 z"
         id="path22"
         inkscape:connector-curvature="0" />
    </clipPath>
    <clipPath
       id="c6_1">
      <path
         d="M 197.3,452.8 V 335.1 h 17.6 v 117.7 z"
         id="path25"
         inkscape:connector-curvature="0" />
    </clipPath>
    <clipPath
       id="c7_1">
      <path
         d="M 224,452.8 V 335.1 h 24.2 v 117.7 z"
         id="path28"
         inkscape:connector-curvature="0" />
    </clipPath>
    <clipPath
       id="c8_1">
      <path
         d="M 256.3,452.8 V 335.1 h 19.1 v 117.7 z"
         id="path31"
         inkscape:connector-curvature="0" />
    </clipPath>
    <clipPath
       id="c9_1">
      <path
         d="M 284.5,452.8 V 335.1 h 24.2 v 117.7 z"
         id="path34"
         inkscape:connector-curvature="0" />
    </clipPath>
    <clipPath
       id="c10_1">
      <path
         d="M 317.9,452.8 V 335.1 H 345 v 117.7 z"
         id="path37"
         inkscape:connector-curvature="0" />
    </clipPath>
    <style
       type="text/css"
       id="style39" />
  </defs>
  <defs
     id="defs229">
    <path
       d="m 1042,-11 c 0,0 -48,0 -77,34 0,0 -30,34 -30,88 0,0 0,49 25,143 l 33,129 c 0,0 18,70 23,103 0,0 6,34 6,55 0,0 0,51 -17,74 0,0 -17,23 -56,23 0,0 -31,0 -67,-24 0,0 -36,-23 -76,-73 0,0 -39,-49 -64,-98 0,0 -25,-48 -40,-117 L 634,0 H 505 l 86,379 c 0,0 15,69 21,103 0,0 6,33 6,57 0,0 0,53 -19,76 0,0 -19,23 -60,23 0,0 -28,0 -64,-24 0,0 -36,-23 -77,-75 0,0 -41,-52 -65,-100 0,0 -23,-47 -38,-116 L 224,0 H 95 l 109,473 c 0,0 16,72 16,110 0,0 0,30 -10,44 0,0 -9,13 -30,13 0,0 -23,0 -49,-19 0,0 -26,-19 -71,-69 l -42,42 c 0,0 66,68 113,100 0,0 47,32 104,32 0,0 47,0 74,-31 0,0 27,-31 27,-81 0,0 0,-41 -17,-87 l 9,-3 c 0,0 69,102 137,151 0,0 68,50 137,50 0,0 72,0 109,-41 0,0 37,-40 37,-117 v -10 c 0,0 0,-6 -1,-12 0,0 65,91 128,136 0,0 64,44 133,44 0,0 68,0 106,-39 0,0 37,-40 37,-112 0,0 0,-47 -22,-133 l -48,-196 c 0,0 -20,-81 -20,-114 0,0 0,-30 9,-44 0,0 10,-13 31,-13 0,0 22,0 48,18 0,0 25,18 71,70 l 43,-42 c 0,0 -64,-68 -112,-100 0,0 -48,-31 -109,-31 z"
       transform="matrix(0.001,0,0,-0.001,0,0)"
       id="f0_1fu"
       inkscape:connector-curvature="0" />
    <path
       d="m 137,-195 c 0,0 70,102 70,195 H 142 V 163 H 287 V 38 c 0,0 0,-78 -14,-131 0,0 -14,-53 -44,-102 z"
       transform="matrix(0.001,0,0,-0.001,0,0)"
       id="f1_g"
       inkscape:connector-curvature="0" />
    <path
       d="m 638,-11 c 0,0 -49,0 -78,34 0,0 -29,34 -29,88 0,0 0,49 25,143 l 33,129 c 0,0 17,70 23,103 0,0 6,34 6,55 0,0 0,51 -17,74 0,0 -18,23 -56,23 0,0 -32,0 -68,-25 0,0 -36,-25 -77,-76 0,0 -40,-50 -65,-97 0,0 -25,-48 -40,-117 L 224,0 H 95 l 109,473 c 0,0 16,72 16,110 0,0 0,30 -10,44 0,0 -9,13 -30,13 0,0 -23,0 -49,-19 0,0 -26,-19 -71,-69 l -42,42 c 0,0 69,71 114,102 0,0 46,30 103,30 0,0 47,0 74,-31 0,0 27,-31 27,-81 0,0 0,-40 -17,-88 l 8,-3 c 0,0 74,103 140,152 0,0 66,50 136,50 0,0 69,0 106,-40 0,0 38,-40 38,-111 0,0 0,-47 -22,-133 L 677,245 c 0,0 -21,-81 -21,-114 0,0 0,-30 10,-44 0,0 10,-13 31,-13 0,0 22,0 47,18 0,0 26,18 72,70 l 43,-42 c 0,0 -65,-69 -112,-100 0,0 -48,-31 -109,-31 z"
       transform="matrix(0.001,0,0,-0.001,0,0)"
       id="f0_1fv"
       inkscape:connector-curvature="0" />
    <path
       d="m 524,0 c 0,0 -73,0 -127,9 0,0 -54,9 -97,29 0,0 -43,20 -82,61 0,0 -38,41 -62,90 0,0 -24,49 -36,111 0,0 -12,62 -12,134 0,0 0,118 23,195 0,0 23,77 78,138 0,0 54,60 130,86 0,0 77,26 197,26 H 842 V 775 H 536 c 0,0 -74,0 -120,-8 0,0 -46,-8 -77,-27 0,0 -30,-18 -55,-51 0,0 -25,-34 -39,-83 0,0 -14,-49 -18,-111 H 842 V 392 H 226 c 0,0 4,-70 20,-123 0,0 17,-54 50,-92 0,0 33,-37 86,-55 0,0 52,-18 145,-18 H 842 V 0 Z"
       transform="matrix(0.001,0,0,-0.001,0,0)"
       id="f0_15d"
       inkscape:connector-curvature="0" />
    <path
       d="m 847,66 v 75 L 376,953 H 257 V 909 L 747,66 Z M 87,0 v 37 c 0,0 47,11 62,26 0,0 16,15 21,41 0,0 5,27 5,82 v 646 c 0,0 0,51 -4,75 0,0 -4,23 -12,36 0,0 -9,13 -23,21 0,0 -14,8 -49,18 v 36 H 433 L 693,568 c 0,0 22,-39 63,-114 0,0 40,-76 71,-143 h 12 c 0,0 -8,178 -8,389 v 132 c 0,0 0,56 -3,77 0,0 -4,21 -10,34 0,0 -7,12 -21,20 0,0 -13,9 -50,19 v 36 h 270 v -36 c 0,0 -34,-9 -48,-17 0,0 -13,-7 -22,-19 0,0 -9,-12 -13,-36 0,0 -4,-24 -4,-78 V 0 H 692 L 372,548 c 0,0 -65,113 -100,185 h -6 c 0,0 7,-160 7,-338 V 186 c 0,0 0,-60 6,-86 0,0 5,-25 22,-39 0,0 17,-13 59,-24 V 0 Z"
       transform="matrix(0.001,0,0,-0.001,0,0)"
       id="f0_110"
       inkscape:connector-curvature="0" />
    <path
       d="M 39,0 424,881 H 537 L 861,0 H 733 L 474,742 160,0 Z"
       transform="matrix(0.001,0,0,-0.001,0,0)"
       id="f0_161"
       inkscape:connector-curvature="0" />
    <path
       d="m 424,96 c 0,0 119,0 174,106 0,0 55,106 55,325 0,0 0,227 -52,329 0,0 -53,102 -174,102 0,0 -123,0 -177,-100 0,0 -55,-101 -55,-331 0,0 0,-224 55,-328 0,0 55,-103 174,-103 z m -1,-110 c 0,0 -181,0 -272,137 0,0 -91,138 -91,403 0,0 0,271 88,406 0,0 88,135 279,135 0,0 186,0 275,-137 0,0 88,-136 88,-404 0,0 0,-263 -93,-402 0,0 -93,-138 -274,-138 z"
       transform="matrix(0.001,0,0,-0.001,0,0)"
       id="f1_k"
       inkscape:connector-curvature="0" />
    <path
       d="M 818,115 75,426 V 579 L 818,891 V 776 L 178,503 818,230 Z"
       transform="matrix(0.001,0,0,-0.001,0,0)"
       id="f1_w"
       inkscape:connector-curvature="0" />
    <path
       d="m 114,-81 v 98 h 919 v -98 z m 919,214 -922,359 v 104 l 922,359 V 843 L 234,544 1033,245 Z"
       transform="matrix(0.001,0,0,-0.001,0,0)"
       id="f0_2mq"
       inkscape:connector-curvature="0" />
  </defs>
  <style
     type="text/css"
     id="style240" />
  <path
     d="m 66.570399,0 v 0.76842851 c 0.480186,0.1359181 0.821303,0.25950439 1.018788,0.36909679 0.201365,0.1099639 0.360209,0.2562543 0.480258,0.439419 0.120039,0.183165 0.2052,0.4396421 0.259413,0.7691809 0.05032,0.329548 0.07717,0.8551313 0.07717,1.5769537 V 17.498382 c 0,0.774101 -0.03482,1.34916 -0.100599,1.725944 -0.06973,0.376777 -0.21264,0.667603 -0.433365,0.87129 -0.220726,0.204067 -0.654982,0.390121 -1.301663,0.557407 v 0.768436 h 5.742794 V 20.653023 C 71.716839,20.4962 71.303039,20.323139 71.066787,20.134941 70.830572,19.946355 70.675405,19.672205 70.594079,19.311299 70.516635,18.950392 70.477595,18.346055 70.477595,17.498382 v -4.378369 c 0,-2.500402 -0.05423,-4.8762689 -0.158835,-7.1253563 h 0.1437 c 0.480185,1.0145614 1.180965,2.3125007 2.102592,3.8920535 L 79.2835,21.421459 h 5.003093 V 3.9230789 c 0,-0.7636463 0.03101,-1.3127135 0.09681,-1.6472854 0.06202,-0.334971 0.151406,-0.5863873 0.275326,-0.7540632 0.120041,-0.1672859 0.274548,-0.3031018 0.46817,-0.407652 0.193621,-0.1049494 0.526762,-0.22017849 0.99533,-0.34564979 V 0 h -5.66489 v 0.76842851 c 0.515024,0.1359181 0.863042,0.26453739 1.052781,0.38496639 0.189757,0.1204384 0.329074,0.2667196 0.422055,0.4394284 0.09681,0.1723281 0.166794,0.4074849 0.21325,0.7056558 0.04643,0.2981802 0.06956,0.8400417 0.06956,1.6245998 v 2.7620974 c 0,2.9608338 0.05776,5.6921307 0.173954,8.1925317 h -0.251084 c -0.43758,-0.94176 -0.941221,-1.941297 -1.506593,-2.998081 -0.565374,-1.056775 -1.003113,-1.856505 -1.316763,-2.4005766 L 73.834888,0 Z m 91.733451,0 v 0.76842851 c 0.48017,0.1359181 0.82126,0.25950439 1.01874,0.36909679 0.1975,0.1099639 0.35948,0.2562543 0.47953,0.439419 0.12004,0.183165 0.2052,0.4396421 0.25941,0.7691809 0.0502,0.329548 0.078,0.8551313 0.078,1.5769537 V 17.498382 c 0,0.774101 -0.0348,1.34916 -0.1006,1.725944 -0.0698,0.376777 -0.21341,0.667603 -0.43413,0.87129 -0.22073,0.204067 -0.65418,0.390121 -1.30085,0.557407 v 0.768436 h 5.74274 v -0.768436 c -0.59634,-0.156823 -1.01094,-0.329884 -1.24718,-0.518082 -0.2362,-0.188586 -0.3906,-0.462736 -0.47193,-0.823642 -0.0776,-0.360907 -0.11647,-0.965244 -0.11647,-1.812917 v -4.378369 c 0,-2.500402 -0.0541,-4.8762689 -0.15885,-7.1253563 h 0.1437 c 0.48019,1.0145614 1.18097,2.3125007 2.1026,3.8920535 l 6.71469,11.5347488 h 5.0069 V 3.9230789 c 0,-0.7636463 0.031,-1.3127135 0.0967,-1.6472854 0.0619,-0.334971 0.15137,-0.5863873 0.2753,-0.7540632 0.12004,-0.1672859 0.27455,-0.3031018 0.46818,-0.407652 0.19361,-0.1049494 0.52675,-0.22017849 0.99532,-0.34564979 V 0 h -5.66567 v 0.76842851 c 0.51502,0.1359181 0.86382,0.26453739 1.05356,0.38496639 0.18974,0.1204384 0.32912,0.2667196 0.42204,0.4394284 0.0968,0.1723281 0.16688,0.4074849 0.2133,0.7056558 0.0464,0.2981802 0.0696,0.8400417 0.0696,1.6245998 v 2.7620974 c 0,2.9608338 0.0579,5.6921307 0.17398,8.1925317 h -0.25178 c -0.43759,-0.94176 -0.9405,-1.941297 -1.50587,-2.998081 -0.56536,-1.056775 -1.00311,-1.856505 -1.31677,-2.4005766 L 165.56832,0 Z M 70.148608,1.3810578 h 2.493596 l 9.90183,17.0748322 v 1.585273 H 80.44144 L 70.148608,2.2909112 Z m 91.733402,0 h 2.4936 l 9.90187,17.0748322 v 1.585273 h -2.1026 L 161.88201,2.2909112 Z M 47.175899,2.9345555 c -1.694951,0 -3.075925,0.1831463 -4.143156,0.5490859 -1.067232,0.3663295 -1.982581,0.9706758 -2.746228,1.8129183 -0.764017,0.8422425 -1.308016,1.8049323 -1.63213,2.887661 -0.324507,1.0827198 -0.486332,2.4507023 -0.486332,4.1038293 0,1.014961 0.08385,1.956302 0.251119,2.82488 0.167287,0.868186 0.41872,1.647721 0.753293,2.338566 0.33497,0.690454 0.771307,1.320801 1.309965,1.890818 0.539029,0.570406 1.112304,0.996648 1.719102,1.27895 0.606807,0.282682 1.286259,0.486768 2.039829,0.61262 0.753172,0.125462 1.642893,0.187575 2.668311,0.187575 h 6.701064 V 19.240216 H 46.97171 c -1.297261,0 -2.314106,-0.125723 -3.051799,-0.376657 -0.737692,-0.250932 -1.339884,-0.64109 -1.80535,-1.169282 C 41.649094,17.165694 41.301624,16.524872 41.071612,15.77169 40.841591,15.018511 40.69959,14.155922 40.64731,13.182785 H 53.610736 V 11.001532 H 40.66319 C 40.71547,10.132954 40.841163,9.355955 41.039817,8.6705341 41.238471,7.9855111 41.513761,7.4071663 41.864212,6.9362863 42.214663,6.4653972 42.603687,6.1016119 43.032743,5.8456547 43.461808,5.5892983 43.997866,5.4040071 44.641455,5.2890009 45.285052,5.1739947 46.124926,5.1158 47.160791,5.1158 h 6.449945 V 2.9345555 Z m 91.734961,0 c -1.69612,0 -3.07825,0.1831463 -4.14316,0.5490859 -1.06872,0.3663295 -1.98327,0.9706758 -2.75002,1.8129183 -0.76286,0.8422425 -1.3046,1.8049323 -1.62989,2.887661 -0.32528,1.0827198 -0.48784,2.4507023 -0.48784,4.1038293 0,1.014961 0.0854,1.956302 0.25185,2.82488 0.16652,0.868186 0.41796,1.647721 0.75486,2.338566 0.33303,0.690454 0.77091,1.320801 1.30918,1.890818 0.53826,0.570406 1.11118,0.996648 1.71914,1.27895 0.60797,0.282682 1.28546,0.486768 2.04057,0.61262 0.75122,0.125462 1.64212,0.187575 2.66832,0.187575 h 6.6988 v -2.181243 h -6.63679 c -1.29724,0 -2.31604,-0.125723 -3.05178,-0.376657 -0.73963,-0.250932 -1.3399,-0.64109 -1.80457,-1.169282 -0.46857,-0.528583 -0.81681,-1.169405 -1.04529,-1.922587 -0.22847,-0.753179 -0.37167,-1.615768 -0.42202,-2.588905 h 12.96045 v -2.181253 h -12.94529 c 0.0503,-0.868578 0.17839,-1.645577 0.37588,-2.3309979 0.19749,-0.685023 0.47201,-1.2633678 0.82441,-1.7342478 0.34851,-0.4708891 0.7402,-0.8346744 1.17003,-1.0906316 0.42597,-0.2563564 0.9636,-0.4416476 1.60644,-0.5566538 C 137.01695,5.1739947 137.85792,5.1158 138.89572,5.1158 h 6.44695 V 2.9345555 Z M 4.566696,6.1519696 c -0.7953855,0 -1.524285,0.2217756 -2.1887953,0.6663208 C 1.7137912,7.2632342 0.92087518,7.9665216 1.827e-5,8.9291934 L 0.89473475,9.8088112 C 1.5224453,9.1075185 2.0169944,8.6234729 2.3779007,8.3566605 2.738809,8.0898572 3.0812447,7.9565675 3.4057511,7.9565675 c 0.2927474,0 0.5069372,0.093914 0.6429009,0.2821054 0.1362617,0.1881988 0.2041887,0.4920145 0.2041887,0.9106239 0,0.5436809 -0.1148579,1.3181822 -0.3448798,2.3226692 L 1.6162797,21.421459 H 4.331492 L 5.8221976,14.626608 C 6.0417637,13.663936 6.3141571,12.847917 6.6382726,12.178384 6.9628157,11.50885 7.4129041,10.810586 7.9883438,10.083358 8.563772,9.3561229 9.104873,8.8276322 9.6121541,8.4980953 10.119823,8.1685461 10.572084,8.0034608 10.969783,8.0034608 c 0.564973,0 0.98115,0.1596631 1.247953,0.4787453 0.266805,0.3190913 0.400093,0.8555307 0.400093,1.6087099 0,0.334962 -0.03937,0.735205 -0.117995,1.201052 -0.07818,0.465457 -0.227042,1.183908 -0.446987,2.157044 l -1.804618,7.972447 h 2.715213 l 1.427944,-6.858377 c 0.209118,-0.972738 0.489079,-1.796724 0.839539,-2.471681 0.350451,-0.674565 0.803093,-1.35983 1.357621,-2.055698 0.554527,-0.6954785 1.082989,-1.2080708 1.585246,-1.5376077 0.502246,-0.3295492 0.972932,-0.4946345 1.412063,-0.4946345 0.544072,0 0.936383,0.1596631 1.176862,0.4787453 0.240476,0.3190913 0.360747,0.839614 0.360747,1.5618179 0,0.292748 -0.03872,0.674193 -0.117206,1.145083 -0.07856,0.47088 -0.243347,1.198051 -0.49467,2.181244 l -0.690521,2.715976 c -0.345027,1.318162 -0.517318,2.316576 -0.517318,2.996566 0,0.753562 0.204113,1.373806 0.611877,1.860563 0.408154,0.48637 0.95215,0.729105 1.63214,0.729105 0.858122,0 1.621378,-0.225063 2.290911,-0.674642 0.669535,-0.449978 1.45489,-1.150368 2.354456,-2.102603 l -0.894718,-0.879608 c -0.648668,0.722212 -1.151149,1.211683 -1.506632,1.468031 -0.355875,0.256357 -0.690333,0.384223 -1.004392,0.384223 -0.293138,0 -0.507318,-0.09351 -0.643627,-0.282116 -0.135916,-0.188196 -0.204234,-0.492395 -0.204234,-0.910613 0,-0.470882 0.14162,-1.276806 0.424311,-2.41722 l 1.01952,-4.111397 c 0.303594,-1.213614 0.455316,-2.1499148 0.455316,-2.8090003 0,-1.0044949 -0.261148,-1.784029 -0.784316,-2.3385566 C 22.5312,6.4445318 21.788169,6.1670962 20.825488,6.1670962 c -0.96268,0 -1.890659,0.3113756 -2.785572,0.9340611 -0.894522,0.6222961 -1.791829,1.5719857 -2.691774,2.8483349 0.0105,-0.08366 0.01588,-0.162038 0.01588,-0.2352204 V 9.4941765 c -4e-6,-1.0776873 -0.261161,-1.9012737 -0.784321,-2.4716799 -0.52316,-0.5700161 -1.287187,-0.8554004 -2.291683,-0.8554004 -0.973137,0 -1.935419,0.34825 -2.8876518,1.0437285 C 8.4481512,7.9066929 7.4908564,8.9712302 6.5285656,10.40479 L 6.3402538,10.342021 C 6.5811119,9.6930174 6.7010398,9.0810941 6.7010398,8.5056655 6.7010398,7.8047542 6.5102893,7.2372734 6.1284705,6.8031747 5.7466517,6.3686865 5.2257393,6.1519717 4.5666523,6.1519717 Z m 100.162684,0 c -0.80546,0 -1.52565,0.2116724 -2.16459,0.6353151 -0.63895,0.4236329 -1.43713,1.1374138 -2.40135,2.1419087 l 0.89475,0.8796178 c 0.62733,-0.7012927 1.12305,-1.1853383 1.48317,-1.4521507 0.36014,-0.2668033 0.7049,-0.400093 1.02631,-0.400093 0.29428,0 0.50727,0.093914 0.64669,0.2821054 0.13552,0.1881988 0.20117,0.4920145 0.20117,0.9106239 0,0.5436809 -0.11254,1.3181822 -0.34488,2.3226692 l -2.29243,9.949493 h 2.71899 l 1.49071,-6.794851 c 0.21684,-0.973129 0.49941,-1.792045 0.84406,-2.456544 0.34851,-0.664502 0.80576,-1.349377 1.37501,-2.055701 0.56925,-0.7063235 1.10747,-1.2348121 1.61474,-1.5852636 0.50729,-0.3504404 0.9836,-0.5256386 1.42116,-0.5256386 0.54605,0 0.93675,0.1596631 1.17683,0.4787453 0.24009,0.3190913 0.36003,0.839614 0.36003,1.5618179 0,0.292748 -0.0384,0.674193 -0.11571,1.145083 -0.0774,0.47088 -0.24446,1.198051 -0.49617,2.181244 l -0.68903,2.715976 c -0.34464,1.318162 -0.51881,2.316576 -0.51881,2.996566 0,0.753562 0.20526,1.373806 0.61188,1.860563 0.41047,0.48637 0.9521,0.729105 1.63365,0.729105 0.85578,0 1.62259,-0.221776 2.28864,-0.666331 0.66993,-0.444545 1.45607,-1.148222 2.35447,-2.110914 l -0.89397,-0.879608 c -0.6467,0.722212 -1.15039,1.211683 -1.50664,1.468031 -0.35625,0.256357 -0.68921,0.384223 -1.00288,0.384223 -0.2943,0 -0.50735,-0.09351 -0.6429,-0.282116 -0.13553,-0.188196 -0.20496,-0.492395 -0.20496,-0.910613 0,-0.470882 0.14313,-1.276806 0.42582,-2.41722 l 1.01803,-4.111397 c 0.30206,-1.213614 0.45303,-2.1499148 0.45303,-2.8090003 0,-0.9940391 -0.25929,-1.7706855 -0.78206,-2.3302455 -0.52277,-0.5599413 -1.26968,-0.840274 -2.24552,-0.840274 -0.9836,0 -1.93644,0.34825 -2.86193,1.0437285 -0.92551,0.6958682 -1.90157,1.7662276 -2.92777,3.2098453 L 106.4871,10.358 c 0.2517,-0.6799979 0.3759,-1.2977167 0.3759,-1.852243 0,-0.7009113 -0.19001,-1.2683916 -0.56952,-1.702499 -0.38337,-0.434482 -0.90192,-0.6511968 -1.5641,-0.6511968 z m 81.69546,6.8561104 c -0.759,0 -1.45986,0.155298 -2.0988,0.466637 -0.63896,0.311356 -1.18867,0.784586 -1.65337,1.418878 -0.46855,0.634303 -0.82822,1.43189 -1.08379,2.393019 -0.25946,0.961132 -0.38725,2.099752 -0.38725,3.414816 0,2.514348 0.41395,4.390588 1.24265,5.628596 0.83257,1.237999 2.10275,1.856775 3.80661,1.856775 1.72322,0 3.03959,-0.655641 3.94572,-1.96645 0.90615,-1.311193 1.36368,-3.247408 1.36368,-5.807836 0,-1.153588 -0.0968,-2.187409 -0.29043,-3.102454 -0.19363,-0.915053 -0.49637,-1.689898 -0.90684,-2.324191 -0.41048,-0.634303 -0.94076,-1.122686 -1.59132,-1.465012 -0.65056,-0.341927 -1.43299,-0.512778 -2.34686,-0.512778 z m -0.0462,1.1186 c 0.45309,0 0.85554,0.131146 1.20405,0.392535 0.35239,0.26139 0.64282,0.666292 0.87131,1.216168 0.23233,0.549885 0.41074,1.251389 0.53851,2.104868 0.1278,0.853469 0.18984,1.872887 0.18984,3.057066 0,1.053301 -0.0586,1.966488 -0.17472,2.73942 -0.11617,0.772933 -0.2859,1.410856 -0.5105,1.914265 -0.22843,0.503807 -0.51532,0.874781 -0.85995,1.113306 -0.34851,0.238166 -0.75159,0.356999 -1.2124,0.356999 -0.49179,0 -0.91364,-0.1268 -1.26988,-0.380444 -0.35238,-0.253637 -0.64649,-0.649922 -0.87884,-1.18819 -0.23622,-0.538258 -0.41043,-1.22421 -0.51886,-2.058717 -0.11229,-0.834107 -0.17093,-1.823885 -0.17093,-2.96934 0,-0.992107 0.0471,-1.878571 0.13616,-2.659247 0.0852,-0.780286 0.23625,-1.441713 0.44924,-1.983845 0.20911,-0.542139 0.4952,-0.95358 0.8592,-1.234321 0.36013,-0.280759 0.80952,-0.420523 1.34777,-0.420523 z m -96.468827,3.654577 c 0.07357,0.774084 0.10817,1.55829 0.10817,2.353684 0,0.774094 -0.05047,1.41744 -0.155055,1.930154 -0.104558,0.512314 -0.278743,0.970368 -0.518818,1.37348 -0.240088,0.40273 -0.627338,0.855364 -1.161725,1.357612 l 0.847823,0.956756 c 0.96422,-0.721823 1.719924,-1.383222 2.269757,-1.984597 0.549926,-0.601773 0.94859,-1.20612 1.200288,-1.812929 0.251708,-0.606806 0.37513,-1.276145 0.37513,-2.008804 0,-0.711358 -0.07286,-1.433086 -0.220075,-2.165356 z M 458.94381,41.051166 c -0.31367,0 -0.61583,0.04263 -0.89851,0.127819 -0.28656,0.08516 -0.57339,0.217347 -0.85993,0.399351 -0.29046,0.178122 -0.59226,0.410195 -0.91367,0.689006 -0.31749,0.28269 -0.6702,0.619343 -1.05356,1.010458 l 0.79415,0.751787 c 0.23234,-0.240087 0.44121,-0.449717 0.62322,-0.623976 0.18588,-0.178123 0.3563,-0.32485 0.51508,-0.437154 0.15875,-0.116167 0.30595,-0.2052 0.44922,-0.259421 0.14329,-0.05813 0.28266,-0.08923 0.42207,-0.08923 0.45305,0 0.67767,0.282562 0.67767,0.844063 0,0.197483 -0.0233,0.457035 -0.0659,0.770694 -0.0464,0.317532 -0.1202,0.67361 -0.2209,1.072467 l -1.73121,7.520159 h 2.26217 l 1.29334,-5.788929 c 0.0736,-0.352382 0.19738,-0.708645 0.36001,-1.064908 0.16652,-0.360128 0.35644,-0.700957 0.57327,-1.030107 0.21299,-0.325285 0.44924,-0.631535 0.7087,-0.92196 0.25944,-0.286564 0.52242,-0.538148 0.78961,-0.747258 0.27107,-0.212982 0.53838,-0.379125 0.80171,-0.499173 0.26718,-0.116178 0.51498,-0.178494 0.74345,-0.178494 0.39887,0 0.6893,0.112712 0.8713,0.33732 0.182,0.220726 0.27076,0.572718 0.27076,1.04903 0,0.197484 -0.023,0.449643 -0.0733,0.755569 -0.0503,0.302042 -0.11968,0.650441 -0.20874,1.037672 -0.089,0.387241 -0.19393,0.809054 -0.31012,1.269878 -0.12003,0.456933 -0.24783,0.9337 -0.38724,1.433235 -0.13165,0.491794 -0.22834,0.94487 -0.29418,1.355345 -0.0659,0.414348 -0.0967,0.77024 -0.0967,1.080028 0,0.305925 0.0424,0.588394 0.13537,0.847851 0.0929,0.255577 0.22441,0.480444 0.39479,0.666322 0.16652,0.189748 0.36811,0.337041 0.60431,0.445481 0.23623,0.108423 0.49197,0.162606 0.76691,0.162606 0.32913,0 0.64288,-0.04643 0.93331,-0.1316 0.29431,-0.08905 0.58835,-0.224905 0.88264,-0.406909 0.29817,-0.178131 0.60375,-0.406417 0.91742,-0.685237 0.31365,-0.274926 0.66282,-0.60817 1.03844,-0.991541 l -0.7979,-0.763135 c -0.22846,0.255576 -0.43742,0.472987 -0.61942,0.654982 -0.18587,0.178131 -0.35644,0.328648 -0.50747,0.440941 -0.15489,0.116177 -0.3022,0.201421 -0.44548,0.255632 -0.14328,0.05414 -0.28626,0.08172 -0.4334,0.08172 -0.23621,0 -0.41039,-0.06574 -0.51882,-0.197399 -0.10842,-0.131665 -0.16261,-0.341007 -0.16261,-0.635314 0,-0.07744 0.0348,-0.270891 0.10436,-0.588432 0.0698,-0.31366 0.15854,-0.692934 0.26699,-1.138267 0.1084,-0.44919 0.22098,-0.93382 0.34489,-1.460472 0.12392,-0.526641 0.24024,-1.041091 0.34869,-1.540627 0.10455,-0.499546 0.19344,-0.96048 0.26314,-1.382572 0.0698,-0.425964 0.10442,-0.755326 0.10442,-0.991551 0,-0.793834 -0.2015,-1.409361 -0.6081,-1.846941 -0.40271,-0.437582 -1.01022,-0.658772 -1.8273,-0.658772 -0.77447,0 -1.52584,0.255855 -2.25384,0.763137 -0.72802,0.507288 -1.46425,1.270117 -2.20774,2.292423 l -0.16261,-0.05441 c 0.0698,-0.154899 0.11661,-0.317441 0.14371,-0.487827 0.0271,-0.166515 0.0425,-0.329158 0.0425,-0.484047 0,-0.604096 -0.15916,-1.095535 -0.46896,-1.467279 -0.30978,-0.375625 -0.75055,-0.561956 -1.31979,-0.561956 z M 351.4576,45.350137 c -4.29836,3.68264 -7.71436,9.173257 -10.23913,16.476588 -2.52869,7.303339 -3.7907,15.454968 -3.7907,24.450537 0,8.863923 1.26201,16.999478 3.7907,24.411228 2.52477,7.41563 5.94077,12.95332 10.23913,16.61274 l 0.73972,-1.16173 c -3.71363,-3.77558 -6.5753,-9.24325 -8.58507,-16.39943 -2.00977,-7.15619 -3.01322,-14.970999 -3.01322,-23.44768 0,-8.670294 1.00713,-16.523538 3.02078,-23.555812 2.01364,-7.028393 4.87162,-12.434016 8.57751,-16.209598 z m 86.73335,0 -0.73514,1.176843 c 3.69426,3.775582 6.54778,9.181205 8.56918,16.209598 2.01752,7.032274 3.02834,14.885518 3.02834,23.555812 0,8.476681 -1.00268,16.29149 -3.01245,23.44768 -2.00978,7.15618 -4.87145,12.62385 -8.58507,16.39943 l 0.73514,1.16173 c 4.30224,-3.65942 7.71427,-9.19711 10.24295,-16.61274 2.5248,-7.41175 3.79074,-15.547305 3.79074,-24.411228 0,-8.995569 -1.26594,-17.147207 -3.79074,-24.450537 -2.52868,-7.30334 -5.94071,-12.793948 -10.24295,-16.476588 z m -9.38224,4.290644 -7.34241,4.379129 0.68975,1.208619 c 0.91002,-0.607976 1.67289,-1.084818 2.29246,-1.429456 0.61573,-0.344657 1.0919,-0.51885 1.4249,-0.51885 0.28271,0 0.49953,0.09681 0.64668,0.290435 0.14327,0.193612 0.21705,0.499963 0.21705,0.918183 v 12.728222 c 0,0.731889 -0.0584,1.262337 -0.17847,1.583752 -0.12006,0.325274 -0.31386,0.577434 -0.57331,0.755576 -0.26333,0.178131 -0.64259,0.309507 -1.13826,0.398579 -0.49567,0.08905 -1.32823,0.159068 -2.4861,0.213279 v 1.145836 h 11.59758 v -1.145836 c -0.80931,-0.01931 -1.45574,-0.06221 -1.94753,-0.116464 -0.49181,-0.05813 -0.89848,-0.143439 -1.22375,-0.251863 -0.3253,-0.112293 -0.57301,-0.263198 -0.74726,-0.456819 -0.1704,-0.193621 -0.29034,-0.445112 -0.36002,-0.751036 -0.0658,-0.309788 -0.1006,-0.767027 -0.1006,-1.375004 V 53.814952 c 0,-1.777436 0.0303,-3.171226 0.0922,-4.174171 z m -70.74909,6.400796 c -0.79386,0 -1.52515,0.224784 -2.18732,0.6701 -0.66606,0.445324 -1.45625,1.145928 -2.37789,2.110161 l 0.89473,0.878847 c 0.62731,-0.700901 1.12302,-1.184949 1.48316,-1.452142 0.36012,-0.267193 0.70419,-0.398589 1.02559,-0.398589 0.29433,0 0.50734,0.09321 0.64288,0.279089 0.13938,0.189738 0.20574,0.491551 0.20574,0.913641 0,0.542131 -0.11645,1.316699 -0.34492,2.319651 l -2.29243,9.95175 h 2.71447 l 1.49072,-6.795595 c 0.22073,-0.964222 0.4923,-1.777548 0.81758,-2.447471 0.32528,-0.669924 0.77383,-1.37089 1.35081,-2.095033 0.57312,-0.728007 1.1158,-1.258374 1.62306,-1.587523 0.50729,-0.329157 0.96028,-0.492366 1.35915,-0.492366 0.56537,0 0.97921,0.158946 1.24642,0.476478 0.26718,0.321404 0.39934,0.855864 0.39934,1.610978 0,0.333021 -0.0391,0.735602 -0.11647,1.200288 -0.0776,0.464696 -0.22856,1.185071 -0.44928,2.157045 l -1.80457,7.973199 h 2.71443 l 1.42945,-6.857615 c 0.20912,-0.975839 0.49179,-1.797029 0.84031,-2.474698 0.35238,-0.673796 0.80147,-1.359515 1.35909,-2.052682 0.55376,-0.69702 1.08036,-1.211478 1.58378,-1.540627 0.50341,-0.329157 0.97212,-0.492366 1.41358,-0.492366 0.54213,0 0.93673,0.158946 1.17682,0.476478 0.24009,0.321404 0.36001,0.840711 0.36001,1.564845 0,0.290427 -0.0383,0.673489 -0.1195,1.142057 -0.0776,0.472432 -0.24067,1.200678 -0.49239,2.184272 l -0.69276,2.714461 c -0.34464,1.316614 -0.51507,2.31577 -0.51507,2.997319 0,0.751248 0.20141,1.374242 0.61189,1.858298 0.40661,0.487919 0.95295,0.732122 1.63062,0.732122 0.85968,0 1.62249,-0.2246 2.29243,-0.677669 0.66991,-0.449197 1.45606,-1.149978 2.35446,-2.102583 l -0.89472,-0.878858 c -0.65059,0.724136 -1.15037,1.211693 -1.50664,1.467269 -0.35627,0.255587 -0.68912,0.387243 -1.00667,0.387243 -0.29043,0 -0.50731,-0.09699 -0.64286,-0.282869 -0.13553,-0.189748 -0.20121,-0.491643 -0.20121,-0.909862 0,-0.472431 0.13937,-1.277882 0.42207,-2.420246 l 1.01801,-4.108361 c 0.3059,-1.215936 0.45756,-2.15297 0.45756,-2.811275 0,-1.002955 -0.2638,-1.78169 -0.78657,-2.339321 -0.52276,-0.553755 -1.26627,-0.828934 -2.22663,-0.828934 -0.96422,0 -1.88953,0.309863 -2.78406,0.933309 -0.89839,0.619585 -1.79325,1.572795 -2.69551,2.846812 0.0115,-0.08126 0.0198,-0.163153 0.0198,-0.236734 v -0.216305 c 0,-1.0804 -0.26306,-1.901591 -0.78582,-2.474698 -0.52278,-0.569247 -1.28559,-0.852384 -2.29242,-0.852384 -0.97198,0 -1.93659,0.345195 -2.88919,1.042224 -0.94875,0.697029 -1.90913,1.761929 -2.86949,3.194729 l -0.18986,-0.06202 c 0.24008,-0.650561 0.36002,-1.262401 0.36002,-1.839391 0,-0.700892 -0.18917,-1.266507 -0.57254,-1.700225 -0.37951,-0.433708 -0.90274,-0.654221 -1.56103,-0.654221 z m 31.88975,5.0379 v 2.087456 h 19.33477 V 61.079477 Z M 26.325466,71.441907 c -3.05532,0.805461 -5.401138,2.544342 -7.038395,5.220172 -1.637247,2.671951 -2.455791,5.897843 -2.455791,9.673423 0,3.7872 0.815256,7.013011 2.447471,9.677221 1.632214,2.66033 3.980941,4.395047 7.046715,5.200517 l 0.376665,-1.20861 c -2.416764,-0.805472 -4.213896,-2.397154 -5.39111,-4.77093 -1.176823,-2.37378 -1.765271,-5.393829 -1.765271,-9.053243 0,-3.539375 0.588448,-6.474554 1.765271,-8.813483 1.177214,-2.338929 2.989835,-3.910998 5.437967,-4.716449 z m 60.298913,0 -0.425796,1.208618 c 2.458967,0.805451 4.275238,2.37752 5.448572,4.716449 1.169467,2.338929 1.757712,5.274108 1.757712,8.813483 0,3.659414 -0.588794,6.679463 -1.765995,9.053243 -1.17722,2.373776 -2.973893,3.965458 -5.394139,4.77093 l 0.379646,1.20861 c 3.063072,-0.80547 5.413423,-2.540187 7.043693,-5.200517 1.634156,-2.6642 2.451276,-5.890021 2.451276,-9.677221 0,-3.77558 -0.820792,-7.001472 -2.458826,-9.673423 -1.634147,-2.67583 -3.980815,-4.414711 -7.036143,-5.220172 z m 156.456131,4.782259 v 9.038108 h -8.55403 v 2.087466 h 8.55404 v 9.041899 h 2.22661 V 87.34974 h 8.55408 v -2.087466 h -8.55408 v -9.038108 z m 66.18696,1.491476 -1.56788,1.567863 7.14049,7.048219 -7.17527,7.155619 1.4597,1.475603 7.25319,-7.109501 7.02779,7.17151 1.57242,-1.568624 -7.04749,-7.124607 7.03234,-7.156363 -1.47558,-1.459719 -7.10948,7.09359 z M 32.2074,80.224383 c -0.794996,0 -1.524673,0.224775 -2.188793,0.670109 -0.664491,0.441453 -1.457407,1.145919 -2.377883,2.110152 l 0.894726,0.879609 c 0.627719,-0.700911 1.121869,-1.184959 1.483157,-1.452152 0.360916,-0.267193 0.703743,-0.40312 1.027849,-0.40312 0.293147,0 0.507718,0.09699 0.643636,0.282867 0.135917,0.189749 0.203454,0.491634 0.203454,0.909854 0,0.546013 -0.114849,1.320486 -0.344869,2.32344 l -2.291692,9.952511 h 2.715214 l 1.490714,-6.796357 c 0.219956,-0.964231 0.491596,-1.781429 0.816112,-2.447481 0.324116,-0.669924 0.774594,-1.370797 1.350025,-2.098804 0.575448,-0.724134 1.116149,-1.254593 1.62381,-1.58375 0.50729,-0.32915 0.960322,-0.495396 1.35763,-0.495396 0.564983,0 0.98115,0.162736 1.247954,0.480277 0.266811,0.321406 0.400103,0.855188 0.400103,1.606428 0,0.336902 -0.03974,0.736272 -0.117998,1.204839 -0.07856,0.464687 -0.227431,1.184317 -0.446986,2.156293 l -1.804617,7.973951 h 2.714471 l 1.428685,-6.858377 c 0.209499,-0.975848 0.48869,-1.800904 0.839531,-2.474699 0.350451,-0.673795 0.803101,-1.358669 1.35763,-2.055698 0.554526,-0.693165 1.082644,-1.208461 1.584503,-1.537618 0.502247,-0.32915 0.973285,-0.495396 1.412805,-0.495396 0.544072,0 0.936375,0.162736 1.176851,0.480277 0.240869,0.321406 0.361531,0.840033 0.361531,1.560305 0,0.294289 -0.03974,0.677269 -0.117989,1.145827 -0.07856,0.472431 -0.243736,1.200688 -0.494661,2.184271 l -0.690528,2.71446 c -0.345409,1.316614 -0.51809,2.315793 -0.51809,2.99734 0,0.751234 0.204504,1.371125 0.612658,1.859054 0.408153,0.487908 0.952141,0.727577 1.63214,0.727577 0.857731,0 1.621368,-0.224691 2.290901,-0.673898 0.669543,-0.449188 1.455328,-1.149957 2.353684,-2.102582 l -0.894717,-0.878851 c -0.647852,0.72414 -1.149986,1.211697 -1.50586,1.467277 -0.355484,0.255574 -0.690334,0.383453 -1.004375,0.383453 -0.292758,0 -0.507717,-0.0923 -0.643635,-0.282102 -0.135928,-0.185867 -0.204235,-0.492407 -0.204235,-0.910633 0,-0.468548 0.14201,-1.274105 0.424302,-2.416461 l 1.019529,-4.112149 c 0.303595,-1.212064 0.455307,-2.149181 0.455307,-2.807487 0,-1.002945 -0.261148,-1.78481 -0.784316,-2.338566 -0.522769,-0.553748 -1.266572,-0.832715 -2.228863,-0.832715 -0.962689,0 -1.891049,0.313724 -2.785571,0.93331 -0.894533,0.623447 -1.791841,1.571947 -2.691777,2.849839 0.01087,-0.08516 0.01588,-0.162402 0.01588,-0.235973 V 83.56659 c 0,-1.076526 -0.261147,-1.901673 -0.784317,-2.470919 -0.52316,-0.569246 -1.287568,-0.855409 -2.291681,-0.855409 -0.973128,0 -1.93581,0.348212 -2.887643,1.04525 -0.952225,0.693147 -1.909094,1.758059 -2.871776,3.194719 l -0.188345,-0.06584 c 0.240477,-0.646689 0.360786,-1.258622 0.360786,-1.835602 0,-0.700902 -0.190713,-1.266425 -0.572533,-1.704005 -0.381818,-0.433709 -0.902768,-0.650441 -1.561845,-0.650441 z m 39.376682,0 c -0.80545,0 -1.529428,0.213223 -2.168383,0.635314 -0.635073,0.425965 -1.437117,1.13812 -2.401349,2.144947 l 0.894755,0.879609 c 0.627329,-0.700911 1.123002,-1.184959 1.483128,-1.452152 0.364009,-0.267193 0.704857,-0.40312 1.030134,-0.40312 0.290436,0 0.507327,0.09699 0.642866,0.282867 0.135526,0.189749 0.204958,0.491634 0.204958,0.909854 0,0.546013 -0.116279,1.320486 -0.348631,2.32344 l -2.288663,9.952511 h 2.715211 l 1.490707,-6.796357 c 0.220736,-0.975839 0.503223,-1.792768 0.847869,-2.458819 0.344648,-0.662179 0.801199,-1.347898 1.370434,-2.052672 0.57312,-0.708654 1.112036,-1.235147 1.619327,-1.58753 0.50728,-0.34852 0.979674,-0.52641 1.421127,-0.52641 0.54214,0 0.932984,0.162736 1.173071,0.480277 0.243961,0.321406 0.363805,0.840033 0.363805,1.560305 0,0.294289 -0.03835,0.677269 -0.119502,1.145827 -0.07744,0.472431 -0.244543,1.200688 -0.492376,2.184271 l -0.692804,2.71446 c -0.344647,1.316614 -0.515071,2.315793 -0.515071,2.99734 0,0.751234 0.201402,1.371125 0.611876,1.859054 0.406604,0.487908 0.952225,0.727577 1.629894,0.727577 0.859672,0 1.622492,-0.22024 2.292414,-0.665558 0.669935,-0.445338 1.452189,-1.146686 2.354457,-2.110922 l -0.893984,-0.878851 c -0.650564,0.72414 -1.150331,1.211697 -1.506586,1.467277 -0.356262,0.255574 -0.693008,0.383453 -1.006677,0.383453 -0.290416,0 -0.507355,-0.0923 -0.642883,-0.282102 -0.135538,-0.185867 -0.204968,-0.492407 -0.204968,-0.910633 0,-0.468548 0.143114,-1.274105 0.425796,-2.416461 l 1.018017,-4.112149 c 0.305923,-1.212064 0.456828,-2.149181 0.456828,-2.807487 0,-0.9952 -0.26305,-1.769497 -0.78582,-2.330998 -0.52277,-0.55763 -1.269756,-0.840283 -2.241733,-0.840283 -0.983583,0 -1.940218,0.348212 -2.865718,1.04525 -0.925511,0.693147 -1.90159,1.766201 -2.927768,3.210599 l -0.186034,-0.06584 c 0.247832,-0.677659 0.375894,-1.297726 0.375894,-1.851482 0,-0.700902 -0.189944,-1.266425 -0.573313,-1.704005 -0.383361,-0.433709 -0.901998,-0.650441 -1.560305,-0.650441 z m 73.931748,0 c -0.80932,0 -1.52945,0.213223 -2.16839,0.635314 -0.63895,0.425965 -1.43711,1.13812 -2.40134,2.144947 l 0.89475,0.879609 c 0.62733,-0.700911 1.12301,-1.184959 1.48317,-1.452152 0.36012,-0.267193 0.7048,-0.40312 1.03009,-0.40312 0.29043,0 0.50737,0.09699 0.64289,0.282867 0.13554,0.189749 0.20118,0.491634 0.20118,0.909854 0,0.546013 -0.11253,1.320486 -0.34488,2.32344 l -2.28867,9.952511 h 2.71521 l 1.49073,-6.796357 c 0.21685,-0.975839 0.49933,-1.792768 0.84785,-2.458819 0.34464,-0.662179 0.80197,-1.347898 1.37121,-2.052672 0.56925,-0.708654 1.11126,-1.235147 1.61856,-1.58753 0.50728,-0.34852 0.97978,-0.52641 1.41737,-0.52641 0.54601,0 0.93672,0.162736 1.17681,0.480277 0.24396,0.321406 0.36382,0.840033 0.36382,1.560305 0,0.294289 -0.0421,0.677269 -0.11951,1.145827 -0.0776,0.472431 -0.24454,1.200688 -0.49238,2.184271 l -0.69279,2.71446 c -0.34466,1.316614 -0.51883,2.315793 -0.51883,2.99734 0,0.751234 0.20516,1.371125 0.61563,1.859054 0.40661,0.487908 0.94834,0.727577 1.62989,0.727577 0.85968,0 1.62248,-0.22024 2.29242,-0.665558 0.66993,-0.445338 1.45219,-1.146686 2.35445,-2.110922 l -0.89397,-0.878851 c -0.65056,0.72414 -1.15422,1.211697 -1.50661,1.467277 -0.35625,0.255574 -0.69299,0.383453 -1.00665,0.383453 -0.29044,0 -0.50737,-0.0923 -0.64291,-0.282102 -0.13553,-0.185867 -0.20495,-0.492407 -0.20495,-0.910633 0,-0.468548 0.14311,-1.274105 0.42581,-2.416461 l 1.01804,-4.112149 c 0.30592,-1.212064 0.45679,-2.149181 0.45679,-2.807487 0,-0.9952 -0.26305,-1.769497 -0.78583,-2.330998 -0.52277,-0.55763 -1.26974,-0.840283 -2.24173,-0.840283 -0.98358,0 -1.94023,0.348212 -2.86572,1.04525 -0.9255,0.693147 -1.90158,1.766201 -2.92778,3.210599 l -0.18982,-0.06584 c 0.25172,-0.677659 0.3797,-1.297726 0.3797,-1.851482 0,-0.700902 -0.19382,-1.266425 -0.5733,-1.704005 -0.38337,-0.433709 -0.90201,-0.650441 -1.56031,-0.650441 z m 57.12161,0 c -0.79382,0 -1.52588,0.224775 -2.18805,0.670109 -0.66605,0.441453 -1.4594,1.145919 -2.37714,2.110152 l 0.89399,0.879609 c 0.62731,-0.700911 1.11914,-1.184959 1.48315,-1.452152 0.36014,-0.267193 0.70105,-0.40312 1.02635,-0.40312 0.29428,0 0.50731,0.09699 0.64283,0.282867 0.13555,0.189749 0.20498,0.491634 0.20498,0.909854 0,0.546013 -0.11563,1.320486 -0.34411,2.32344 l -2.29244,9.952511 h 2.71446 l 1.49072,-6.796357 c 0.22072,-0.964231 0.49157,-1.781429 0.81684,-2.447481 0.32529,-0.669924 0.77468,-1.370797 1.34779,-2.098804 0.57699,-0.724134 1.11882,-1.254593 1.6261,-1.58375 0.50728,-0.32915 0.96036,-0.495396 1.35535,-0.495396 0.56535,0 0.98373,0.162736 1.25092,0.480277 0.26721,0.321406 0.39858,0.855188 0.39858,1.606428 0,0.336902 -0.0384,0.736272 -0.1157,1.204839 -0.0813,0.464687 -0.2285,1.184317 -0.44922,2.156293 l -1.80462,7.973951 h 2.71446 l 1.42868,-6.858377 c 0.20911,-0.975848 0.48788,-1.800904 0.84027,-2.474699 0.34852,-0.673795 0.8016,-1.358669 1.35534,-2.055698 0.55763,-0.693165 1.0849,-1.208461 1.58831,-1.537618 0.49953,-0.32915 0.97146,-0.495396 1.40906,-0.495396 0.54598,0 0.93748,0.162736 1.17758,0.480277 0.24397,0.321406 0.36377,0.840033 0.36377,1.560305 0,0.294289 -0.0428,0.677269 -0.12023,1.145827 -0.0776,0.472431 -0.24376,1.200688 -0.49159,2.184271 l -0.69282,2.71446 c -0.34464,1.316614 -0.51883,2.315793 -0.51883,2.99734 0,0.751234 0.20515,1.371125 0.61562,1.859054 0.40662,0.487908 0.94838,0.727577 1.6299,0.727577 0.85968,0 1.6225,-0.224691 2.29242,-0.673898 0.66992,-0.449188 1.45219,-1.149957 2.35447,-2.102582 l -0.89477,-0.878851 c -0.65056,0.72414 -1.15343,1.211697 -1.50583,1.467277 -0.35624,0.255574 -0.69298,0.383453 -1.00666,0.383453 -0.29042,0 -0.50735,-0.0923 -0.64289,-0.282102 -0.13554,-0.185867 -0.20569,-0.492407 -0.20569,-0.910633 0,-0.468548 0.14386,-1.274105 0.42652,-2.416461 l 1.01803,-4.112149 c 0.30592,-1.212064 0.45682,-2.149181 0.45682,-2.807487 0,-1.002945 -0.26304,-1.78481 -0.78582,-2.338566 -0.52278,-0.553748 -1.26627,-0.832715 -2.22662,-0.832715 -0.96424,0 -1.89407,0.313724 -2.78859,0.93331 -0.89453,0.623447 -1.78875,1.571947 -2.691,2.849839 0.0115,-0.08516 0.0158,-0.162402 0.0158,-0.235973 V 83.56659 c 0,-1.076526 -0.25999,-1.901673 -0.78276,-2.470919 -0.52276,-0.569246 -1.28951,-0.855409 -2.29246,-0.855409 -0.97195,0 -1.93579,0.348212 -2.88842,1.04525 -0.95261,0.693147 -1.90913,1.758059 -2.86949,3.194719 l -0.18982,-0.06584 c 0.2401,-0.646689 0.35998,-1.258622 0.35998,-1.835602 0,-0.700902 -0.1899,-1.266425 -0.57327,-1.704005 -0.37949,-0.433709 -0.90199,-0.650441 -1.56031,-0.650441 z m 72.65355,0 c -0.79385,0 -1.52504,0.224775 -2.19108,0.670109 -0.66219,0.441453 -1.45633,1.145919 -2.3741,2.110152 l 0.89472,0.879609 c 0.62732,-0.700911 1.11924,-1.184959 1.47938,-1.452152 0.36399,-0.267193 0.70408,-0.40312 1.02936,-0.40312 0.29428,0 0.50735,0.09699 0.64287,0.282867 0.13555,0.189749 0.20572,0.491634 0.20572,0.909854 0,0.546013 -0.11642,1.320486 -0.34487,2.32344 l -2.29242,9.952511 h 2.71442 l 1.49076,-6.796357 c 0.22073,-0.964231 0.49229,-1.781429 0.81759,-2.447481 0.32527,-0.669924 0.77389,-1.370797 1.34699,-2.098804 0.57699,-0.724134 1.1196,-1.254593 1.62688,-1.58375 0.50728,-0.32915 0.96036,-0.495396 1.35534,-0.495396 0.56537,0 0.98375,0.162736 1.25095,0.480277 0.26331,0.321406 0.39858,0.855188 0.39858,1.606428 0,0.336902 -0.039,0.736272 -0.11644,1.204839 -0.0814,0.464687 -0.22856,1.184317 -0.44927,2.156293 l -1.80461,7.973951 h 2.71524 l 1.42867,-6.858377 c 0.2091,-0.975848 0.48788,-1.800904 0.84028,-2.474699 0.34851,-0.673795 0.80158,-1.358669 1.35534,-2.055698 0.55373,-0.693165 1.08411,-1.208461 1.58751,-1.537618 0.49954,-0.32915 0.97225,-0.495396 1.40982,-0.495396 0.54602,0 0.93673,0.162736 1.17682,0.480277 0.2401,0.321406 0.36003,0.840033 0.36003,1.560305 0,0.294289 -0.0383,0.677269 -0.11572,1.145827 -0.0775,0.472431 -0.24446,1.200688 -0.49615,2.184271 l -0.68902,2.71446 c -0.34465,1.316614 -0.51882,2.315793 -0.51882,2.99734 0,0.751234 0.20527,1.371125 0.61187,1.859054 0.41047,0.487908 0.95288,0.727577 1.63441,0.727577 0.85581,0 1.62251,-0.224691 2.29242,-0.673898 0.66993,-0.449188 1.45219,-1.149957 2.35446,-2.102582 l -0.89475,-0.878851 c -0.65056,0.72414 -1.15413,1.211697 -1.51039,1.467277 -0.35238,0.255574 -0.6892,0.383453 -1.00287,0.383453 -0.29431,0 -0.50738,-0.0923 -0.64291,-0.282102 -0.13553,-0.185867 -0.20496,-0.492407 -0.20496,-0.910633 0,-0.468548 0.14316,-1.274105 0.42585,-2.416461 l 1.01875,-4.112149 c 0.30206,-1.212064 0.45682,-2.149181 0.45682,-2.807487 0,-1.002945 -0.26378,-1.78481 -0.78655,-2.338566 -0.52278,-0.553748 -1.2662,-0.832715 -2.23042,-0.832715 -0.96034,0 -1.88954,0.313724 -2.78406,0.93331 -0.89452,0.623447 -1.79262,1.571947 -2.69101,2.849839 0.0116,-0.08516 0.0151,-0.162402 0.0151,-0.235973 V 83.56659 c 0,-1.076526 -0.25917,-1.901673 -0.78583,-2.470919 -0.52276,-0.569246 -1.2857,-0.855409 -2.28868,-0.855409 -0.97196,0 -1.93652,0.348212 -2.88914,1.04525 -0.9526,0.693147 -1.90905,1.758059 -2.87327,3.194719 l -0.18604,-0.06584 c 0.24009,-0.646689 0.36075,-1.258622 0.36075,-1.835602 0,-0.700902 -0.18989,-1.266425 -0.57326,-1.704005 -0.38337,-0.433709 -0.90279,-0.650441 -1.56108,-0.650441 z M 8.7408466,80.240269 c -1.2240603,0 -2.3749387,0.251397 -3.4526251,0.754807 -1.0776872,0.503416 -2.0194098,1.258957 -2.8248716,2.273518 -0.8058505,1.018452 -1.4177645,2.19532 -1.83636472,3.531295 C 0.20837472,88.139738 0,89.370883 0,90.490014 c 0,1.71547 0.39188391,3.024676 1.1768228,3.92308 0.7845391,0.898397 1.9354179,1.347779 3.4526638,1.347779 1.1508787,0 2.2258908,-0.248387 3.2249723,-0.751805 0.9990719,-0.5034 1.9902972,-1.29654 2.9738801,-2.384701 L 9.8708124,91.667606 c -0.7744735,0.774488 -1.5092312,1.340107 -2.2047088,1.70025 -0.6958694,0.363995 -1.5198452,0.541529 -2.4716706,0.541529 -0.8372097,0 -1.4646221,-0.259464 -1.8832305,-0.774493 -0.4186013,-0.518915 -0.6277472,-1.312231 -0.6277472,-2.377142 0,-1.425046 0.2665794,-2.908267 0.8001851,-4.44948 C 4.0172561,84.763186 4.7046468,83.570401 5.5468992,82.730089 6.3891404,81.885906 7.3391928,81.464 8.3959767,81.464 c 0.449967,0 0.7978275,0.08886 1.0437176,0.26698 0.2459022,0.178131 0.4232631,0.445446 0.5332266,0.80171 0.1099831,0.356253 0.1757361,0.928981 0.1966481,1.726699 h 1.647276 l 0.76918,-3.547177 C 11.414235,80.398548 10.132202,80.240269 8.7408466,80.240269 Z M 110.07587,82.013851 v 2.086715 h 19.33474 v -2.086711 z m 58.89517,3.24843 v 2.087456 h 19.33475 v -2.087461 z m 184.09381,0.162606 v 1.936198 h 83.25651 v -1.936202 z m -242.98898,3.102449 v 2.086705 h 19.33474 v -2.086705 z m -53.315814,3.326327 c 0.07356,0.774487 0.112721,1.560599 0.112721,2.354445 0,0.774494 -0.05423,1.416647 -0.158845,1.931668 -0.10455,0.511148 -0.274854,0.968504 -0.518814,1.371224 -0.240096,0.402736 -0.627449,0.855709 -1.157962,1.359108 l 0.844063,0.956761 c 0.964221,-0.720262 1.719844,-1.382777 2.269719,-1.986869 0.549884,-0.600221 0.948631,-1.204198 1.20029,-1.812168 0.25175,-0.604092 0.37516,-1.273888 0.37516,-2.005781 0,-0.712519 -0.07309,-1.436504 -0.216307,-2.168388 z m 329.254974,9.743017 c -0.79385,0 -1.52589,0.22025 -2.18806,0.66557 -0.66605,0.44532 -1.46016,1.14668 -2.37792,2.11091 l 0.89475,0.87885 c 0.62733,-0.70091 1.11917,-1.18495 1.48317,-1.45215 0.36014,-0.26719 0.70106,-0.39934 1.02634,-0.39934 0.2943,0 0.50733,0.0931 0.64286,0.28286 0.13552,0.18588 0.20496,0.49165 0.20496,0.90987 0,0.54214 -0.11639,1.3167 -0.34487,2.31966 l -2.29243,9.9525 h 2.71445 l 1.4907,-6.79636 c 0.22073,-0.96423 0.49234,-1.77754 0.81763,-2.44748 0.32529,-0.66991 0.77465,-1.367 1.34776,-2.09501 0.57699,-0.72801 1.11885,-1.25451 1.62614,-1.58753 0.50727,-0.32917 0.96034,-0.49161 1.35534,-0.49161 0.56535,0 0.98374,0.15895 1.25093,0.47648 0.26721,0.32141 0.39858,0.85588 0.39858,1.61098 0,0.33303 -0.039,0.7356 -0.11648,1.20028 -0.0814,0.4647 -0.22777,1.18508 -0.44849,2.15704 l -1.80459,7.97321 h 2.71445 l 1.42872,-6.85837 c 0.2091,-0.97199 0.48787,-1.79638 0.84027,-2.47017 0.3485,-0.67767 0.80158,-1.36329 1.35533,-2.05646 0.55762,-0.69702 1.08412,-1.20836 1.58754,-1.54138 0.49952,-0.32917 0.97223,-0.49161 1.40982,-0.49161 0.54599,0 0.93674,0.15895 1.17681,0.47648 0.24395,0.32141 0.36453,0.83994 0.36453,1.56408 0,0.29043 -0.0427,0.67417 -0.12022,1.1466 -0.0776,0.46855 -0.24376,1.19614 -0.49164,2.17973 l -0.69353,2.71445 c -0.34465,1.31663 -0.51884,2.3158 -0.51884,2.99733 0,0.75512 0.20517,1.375 0.61565,1.85906 0.40658,0.48791 0.9491,0.73212 1.63065,0.73212 0.85967,0 1.62249,-0.2246 2.29241,-0.67766 0.66993,-0.4492 1.45219,-1.15074 2.35446,-2.10336 l -0.89476,-0.87885 c -0.65055,0.72414 -1.1542,1.21246 -1.50659,1.46804 -0.35625,0.25945 -0.693,0.38724 -1.00666,0.38724 -0.29042,0 -0.50737,-0.0969 -0.6429,-0.28287 -0.13554,-0.18975 -0.20497,-0.49165 -0.20497,-0.90986 0,-0.47243 0.14312,-1.27798 0.42583,-2.41646 l 1.01879,-4.11291 c 0.3059,-1.21593 0.4568,-2.14909 0.4568,-2.81127 0,-1.00296 -0.26383,-1.78094 -0.7866,-2.33857 -0.52277,-0.55376 -1.26626,-0.82894 -2.22662,-0.82894 -0.96422,0 -1.89329,0.30987 -2.7878,0.93332 -0.89454,0.62346 -1.78875,1.57204 -2.69101,2.84606 0.0115,-0.0814 0.0151,-0.16249 0.0151,-0.2322 v -0.22084 c 0,-1.07654 -0.2593,-1.90093 -0.78208,-2.47016 -0.52276,-0.57311 -1.28945,-0.85618 -2.29241,-0.85618 -0.97197,0 -1.93654,0.34443 -2.88914,1.04147 -0.95261,0.69703 -1.90919,1.76194 -2.86955,3.19472 l -0.18907,-0.062 c 0.24008,-0.65055 0.36,-1.26239 0.36,-1.83937 0,-0.7009 -0.1899,-1.26577 -0.57325,-1.69947 -0.37951,-0.43373 -0.90201,-0.65045 -1.56031,-0.65045 z"
     id="path2"
     inkscape:connector-curvature="0"
     style="stroke-width:0.38723952" />
  <path
     style="fill:#0000ff;fill-opacity:1;stroke-width:0.49560651"
     d="M 456.20841,0 A 13.449892,13.449892 0 0 0 442.75806,13.45035 13.449892,13.449892 0 0 0 456.20841,26.90071 13.449892,13.449892 0 0 0 469.65877,13.45035 13.449892,13.449892 0 0 0 456.20841,0 Z m 0,2.31703 A 11.132888,11.132888 0 0 1 467.34174,13.45035 11.132888,11.132888 0 0 1 456.20841,24.58368 11.132888,11.132888 0 0 1 445.07509,13.45035 11.132888,11.132888 0 0 1 456.20841,2.31703 Z m 0.1161,3.80979 c -1.00615,0 -1.88652,0.20639 -2.64112,0.61916 -0.75461,0.41277 -1.32862,0.93519 -1.72205,1.56725 -0.39343,0.62562 -0.59014,1.2447802 -0.59014,1.85749 0,0.29669 0.12254,0.57402 0.36763,0.83201 0.25154,0.25153 0.55789,0.3773 0.91907,0.3773 0.61271,0 1.02871,-0.36441 1.248,-1.09321 0.23218,-0.6965598 0.51597,-1.2222 0.85135,-1.57693 0.33538,-0.36118 0.8578,-0.54177 1.56726,-0.54177 0.60626,0 1.09966,0.17736 1.48018,0.53209 0.38698,0.35473 0.58047,0.7900802 0.58047,1.30605 0,0.26443 -0.0645,0.50952 -0.19349,0.73526 -0.12254,0.22574 -0.27733,0.43212 -0.46437,0.61916 -0.18059,0.18059 -0.47727,0.45147 -0.89005,0.81265 -0.47082,0.41277 -0.8449,0.77073 -1.12223,1.07386 -0.27734,0.29669 -0.49984,0.64497 -0.66754,1.04484 -0.16769,0.39343 -0.25153,0.86103 -0.25153,1.40279 0,0.43213 0.11286,0.75783 0.3386,0.97712 0.23219,0.21929 0.51597,0.32893 0.85135,0.32893 0.64496,0 1.02872,-0.33538 1.15126,-1.00614 0.0709,-0.31603 0.12253,-0.53532 0.15479,-0.65786 0.0387,-0.129 0.0903,-0.25476 0.15479,-0.3773 0.0645,-0.129 0.16124,-0.26767 0.29023,-0.416 0.13545,-0.15479 0.31281,-0.33216 0.5321,-0.5321 0.7933,-0.70946 1.34152,-1.21253 1.64465,-1.50921 0.30958,-0.30313 0.57401,-0.66108 0.7933,-1.07386 0.22574,-0.41278 0.33861,-0.89328 0.33861,-1.4414898 0,-0.69656 -0.19672,-1.3415202 -0.59014,-1.9348802 -0.38698,-0.59337 -0.93842,-1.06097 -1.65433,-1.40279 -0.71591,-0.34829 -1.54146,-0.52242 -2.47665,-0.52242 z m -0.23219,11.75442 c -0.41278,0 -0.76105,0.13867 -1.04484,0.416 -0.28378,0.27733 -0.42567,0.61916 -0.42567,1.02549 0,0.45792 0.14511,0.81588 0.43535,1.07386 0.29668,0.25154 0.64173,0.3773 1.03516,0.3773 0.38052,0 0.71591,-0.12899 1.00614,-0.38697 0.29024,-0.25799 0.43535,-0.61272 0.43535,-1.06419 0,-0.40633 -0.13867,-0.74816 -0.416,-1.02549 -0.27733,-0.27733 -0.61916,-0.416 -1.02549,-0.416 z"
     id="path4769"
     inkscape:connector-curvature="0" />
</svg>
