<?xml version="1.0" encoding="UTF-8" standalone="no"?>
<!-- Created with Inkscape (http://www.inkscape.org/) -->

<svg
   xmlns:dc="http://purl.org/dc/elements/1.1/"
   xmlns:cc="http://creativecommons.org/ns#"
   xmlns:rdf="http://www.w3.org/1999/02/22-rdf-syntax-ns#"
   xmlns:svg="http://www.w3.org/2000/svg"
   xmlns="http://www.w3.org/2000/svg"
   xmlns:sodipodi="http://sodipodi.sourceforge.net/DTD/sodipodi-0.dtd"
   xmlns:inkscape="http://www.inkscape.org/namespaces/inkscape"
   version="1.1"
   width="1157.222"
   height="216.81371"
   viewBox="0 0 1157.222 216.81371"
   id="svg2"
   style="display:block"
   sodipodi:docname="collision_formula.svg"
   inkscape:version="0.92.4 (5da689c313, 2019-01-14)">
  <sodipodi:namedview
     pagecolor="#ffffff"
     bordercolor="#666666"
     borderopacity="1"
     objecttolerance="10"
     gridtolerance="10"
     guidetolerance="10"
     inkscape:pageopacity="0"
     inkscape:pageshadow="2"
     inkscape:window-width="2169"
     inkscape:window-height="1151"
     id="namedview128"
     showgrid="false"
     inkscape:zoom="0.92877794"
     inkscape:cx="651.50817"
     inkscape:cy="128.19628"
     inkscape:window-x="-22"
     inkscape:window-y="56"
     inkscape:window-maximized="0"
     inkscape:current-layer="svg2" />
  <metadata
     id="metadata244">
    <rdf:RDF>
      <cc:Work
         rdf:about="">
        <dc:format>image/svg+xml</dc:format>
        <dc:type
           rdf:resource="http://purl.org/dc/dcmitype/StillImage" />
        <dc:title />
      </cc:Work>
    </rdf:RDF>
  </metadata>
  <defs
     id="defs4">
    <clipPath
       id="c0_1">
      <path
         d="M 36.7,452.8 V 335.1 h 27.1 v 117.7 z"
         id="path7" />
    </clipPath>
    <clipPath
       id="c1_1">
      <path
         d="M 64.5,452.8 V 335.1 h 7 v 117.7 z"
         id="path10" />
    </clipPath>
    <clipPath
       id="c2_1">
      <path
         d="M 76.6,452.8 V 335.1 h 19.1 v 117.7 z"
         id="path13" />
    </clipPath>
    <clipPath
       id="c3_1">
      <path
         d="M 103.4,452.8 V 335.1 h 20.2 v 117.7 z"
         id="path16" />
    </clipPath>
    <clipPath
       id="c4_1">
      <path
         d="M 133.1,452.8 V 335.1 h 23.1 v 117.7 z"
         id="path19" />
    </clipPath>
    <clipPath
       id="c5_1">
      <path
         d="M 163.9,452.8 V 335.1 H 183 v 117.7 z"
         id="path22" />
    </clipPath>
    <clipPath
       id="c6_1">
      <path
         d="M 197.3,452.8 V 335.1 h 17.6 v 117.7 z"
         id="path25" />
    </clipPath>
    <clipPath
       id="c7_1">
      <path
         d="M 224,452.8 V 335.1 h 24.2 v 117.7 z"
         id="path28" />
    </clipPath>
    <clipPath
       id="c8_1">
      <path
         d="M 256.3,452.8 V 335.1 h 19.1 v 117.7 z"
         id="path31" />
    </clipPath>
    <clipPath
       id="c9_1">
      <path
         d="M 284.5,452.8 V 335.1 h 24.2 v 117.7 z"
         id="path34" />
    </clipPath>
    <clipPath
       id="c10_1">
      <path
         d="M 317.9,452.8 V 335.1 H 345 v 117.7 z"
         id="path37" />
    </clipPath>
    <style
       type="text/css"
       id="style39" />
  </defs>
  <path
     style="fill-rule:evenodd"
     d="M 66.644531 -0.11523438 L 66.644531 0.65234375 C 67.123871 0.78802375 67.463006 0.91013125 67.660156 1.0195312 C 67.861176 1.1293213 68.020785 1.2761344 68.140625 1.4589844 C 68.260455 1.6418344 68.344317 1.8975925 68.398438 2.2265625 C 68.448737 2.5555325 68.476563 3.0802112 68.476562 3.8007812 L 68.476562 17.351562 C 68.476562 18.124312 68.440723 18.700042 68.375 19.076172 C 68.3054 19.452302 68.163699 19.741973 67.943359 19.945312 C 67.723018 20.149033 67.290101 20.334953 66.644531 20.501953 L 66.644531 21.269531 L 72.376953 21.269531 L 72.376953 20.501953 C 71.781643 20.345393 71.368612 20.172245 71.132812 19.984375 C 70.897002 19.796115 70.741336 19.522399 70.660156 19.162109 C 70.582856 18.801829 70.544922 18.197762 70.544922 17.351562 L 70.544922 12.982422 C 70.544922 10.486352 70.489112 8.1143306 70.384766 5.8691406 L 70.529297 5.8691406 C 71.008637 6.8819506 71.708876 8.1770962 72.628906 9.7539062 L 79.333984 21.269531 L 84.330078 21.269531 L 84.330078 3.8007812 C 84.330078 3.0384613 84.359981 2.49025 84.425781 2.15625 C 84.487581 1.82187 84.577472 1.5716869 84.701172 1.4042969 C 84.821012 1.2372969 84.974679 1.1004637 85.167969 0.99609375 C 85.361249 0.89133375 85.694358 0.77758375 86.162109 0.65234375 L 86.162109 -0.11523438 L 80.505859 -0.11523438 L 80.505859 0.65234375 C 81.019989 0.78802375 81.369174 0.91493625 81.558594 1.0351562 C 81.748014 1.1553762 81.885736 1.3021994 81.978516 1.4746094 C 82.075116 1.6466294 82.145016 1.8820475 82.191406 2.1796875 C 82.237806 2.4773575 82.261719 3.0175913 82.261719 3.8007812 L 82.261719 6.5585938 C 82.261719 9.5142938 82.319589 12.240258 82.435547 14.736328 L 82.183594 14.736328 C 81.746774 13.796198 81.244078 12.799081 80.679688 11.744141 C 80.115297 10.689191 79.678355 9.8907862 79.365234 9.3476562 L 73.896484 -0.11523438 L 66.644531 -0.11523438 z M 158.21875 -0.11523438 L 158.21875 0.65234375 C 158.6981 0.78802375 159.03722 0.91013125 159.23438 1.0195312 C 159.43152 1.1293213 159.595 1.2761344 159.71484 1.4589844 C 159.83468 1.6418344 159.91854 1.8975925 159.97266 2.2265625 C 160.02296 2.5555325 160.05078 3.0802112 160.05078 3.8007812 L 160.05078 17.351562 C 160.05078 18.124312 160.01687 18.700042 159.95117 19.076172 C 159.88157 19.452302 159.73792 19.741973 159.51758 19.945312 C 159.29724 20.149033 158.86432 20.334953 158.21875 20.501953 L 158.21875 21.269531 L 163.95117 21.269531 L 163.95117 20.501953 C 163.35585 20.345393 162.94283 20.172245 162.70703 19.984375 C 162.47122 19.796115 162.31555 19.522399 162.23438 19.162109 C 162.15707 18.801829 162.11914 18.197762 162.11914 17.351562 L 162.11914 12.982422 C 162.11914 10.486352 162.06525 8.1143306 161.96094 5.8691406 L 162.10352 5.8691406 C 162.58286 6.8819506 163.2831 8.1770962 164.20312 9.7539062 L 170.90625 21.269531 L 175.9043 21.269531 L 175.9043 3.8007812 C 175.9043 3.0384613 175.9343 2.49025 176 2.15625 C 176.0618 1.82187 176.15168 1.5716869 176.27539 1.4042969 C 176.39522 1.2372969 176.54891 1.1004637 176.74219 0.99609375 C 176.93548 0.89133375 177.26859 0.77758375 177.73633 0.65234375 L 177.73633 -0.11523438 L 172.08008 -0.11523438 L 172.08008 0.65234375 C 172.59421 0.78802375 172.9434 0.91493625 173.13281 1.0351562 C 173.32223 1.1553762 173.45995 1.3021994 173.55273 1.4746094 C 173.64933 1.6466294 173.71923 1.8820475 173.76562 2.1796875 C 173.81203 2.4773575 173.83594 3.0175913 173.83594 3.8007812 L 173.83594 6.5585938 C 173.83594 9.5142938 173.89384 12.240258 174.00977 14.736328 L 173.75781 14.736328 C 173.32099 13.796198 172.8183 12.799081 172.25391 11.744141 C 171.68952 10.689191 171.25257 9.8907862 170.93945 9.3476562 L 165.4707 -0.11523438 L 158.21875 -0.11523438 z M 70.216797 1.2636719 L 72.705078 1.2636719 L 82.589844 18.308594 L 82.589844 19.890625 L 80.490234 19.890625 L 70.216797 2.171875 L 70.216797 1.2636719 z M 161.79102 1.2636719 L 164.2793 1.2636719 L 174.16406 18.308594 L 174.16406 19.890625 L 172.06445 19.890625 L 161.79102 2.171875 L 161.79102 1.2636719 z M 47.283203 2.8144531 C 45.591193 2.8144531 44.211855 2.9960181 43.146484 3.3613281 C 42.081095 3.7270181 41.16856 4.331095 40.40625 5.171875 C 39.64355 6.012665 39.098951 6.9738375 38.775391 8.0546875 C 38.451491 9.1355375 38.291016 10.500131 38.291016 12.150391 C 38.291016 13.163591 38.373966 14.103633 38.541016 14.970703 C 38.708016 15.837393 38.958979 16.615057 39.292969 17.304688 C 39.627349 17.993948 40.063842 18.624329 40.601562 19.193359 C 41.139663 19.762779 41.710646 20.188893 42.316406 20.470703 C 42.922156 20.752903 43.601256 20.956401 44.353516 21.082031 C 45.105386 21.207281 45.993948 21.269531 47.017578 21.269531 L 53.707031 21.269531 L 53.707031 19.091797 L 47.080078 19.091797 C 45.785078 19.091797 44.769623 18.965334 44.033203 18.714844 C 43.296793 18.464344 42.695129 18.076108 42.230469 17.548828 C 41.765819 17.021168 41.419073 16.380786 41.189453 15.628906 C 40.959833 14.877036 40.817805 14.016372 40.765625 13.044922 L 53.707031 13.044922 L 53.707031 10.867188 L 40.78125 10.867188 C 40.83345 10.000117 40.959893 9.2232825 41.158203 8.5390625 C 41.356513 7.8552125 41.630619 7.2786638 41.980469 6.8085938 C 42.330309 6.3385238 42.718165 5.9762231 43.146484 5.7207031 C 43.574794 5.4647931 44.109473 5.2788725 44.751953 5.1640625 C 45.394423 5.0492425 46.233508 4.9921875 47.267578 4.9921875 L 53.707031 4.9921875 L 53.707031 2.8144531 L 47.283203 2.8144531 z M 138.85938 2.8144531 C 137.16621 2.8144531 135.78572 2.9960181 134.72266 3.3613281 C 133.65573 3.7270181 132.74392 4.331095 131.97852 5.171875 C 131.21698 6.012665 130.67627 6.9738375 130.35156 8.0546875 C 130.02684 9.1355375 129.86328 10.500131 129.86328 12.150391 C 129.86328 13.163591 129.94898 14.103633 130.11523 14.970703 C 130.28145 15.837393 130.53283 16.615057 130.86914 17.304688 C 131.20159 17.993948 131.63845 18.624329 132.17578 19.193359 C 132.71311 19.762779 133.28567 20.188893 133.89258 20.470703 C 134.4995 20.752903 135.17392 20.956401 135.92773 21.082031 C 136.67767 21.207281 137.5674 21.269531 138.5918 21.269531 L 145.2793 21.269531 L 145.2793 19.091797 L 138.6543 19.091797 C 137.3593 19.091797 136.3419 18.965334 135.60742 18.714844 C 134.86908 18.464344 134.27053 18.076108 133.80664 17.548828 C 133.3389 17.021168 132.99175 16.380786 132.76367 15.628906 C 132.5356 14.877036 132.39206 14.016372 132.3418 13.044922 L 145.2793 13.044922 L 145.2793 10.867188 L 132.35742 10.867188 C 132.40772 10.000117 132.53527 9.2232825 132.73242 8.5390625 C 132.92957 7.8552125 133.20292 7.2786638 133.55469 6.8085938 C 133.90261 6.3385238 134.29357 5.9762231 134.72266 5.7207031 C 135.14788 5.4647931 135.68447 5.2788725 136.32617 5.1640625 C 136.96787 5.0492425 137.80774 4.9921875 138.84375 4.9921875 L 145.2793 4.9921875 L 145.2793 2.8144531 L 138.85938 2.8144531 z M 4.7480469 6.0253906 C 3.9540369 6.0253906 3.22586 6.2476262 2.5625 6.6914062 C 1.89954 7.1355762 1.1087131 7.8378181 0.18945312 8.7988281 L 1.0820312 9.6757812 C 1.7086613 8.9757112 2.20222 8.4929125 2.5625 8.2265625 C 2.92279 7.9602225 3.2639506 7.8261719 3.5878906 7.8261719 C 3.8801406 7.8261719 4.0947887 7.921455 4.2304688 8.109375 C 4.3665487 8.297245 4.4335938 8.5996981 4.4335938 9.0175781 C 4.4335938 9.5603181 4.3194738 10.333168 4.0898438 11.335938 L 1.8027344 21.269531 L 4.5136719 21.269531 L 6 14.486328 C 6.21918 13.525318 6.4928463 12.709396 6.8164062 12.041016 C 7.1403463 11.372636 7.5896225 10.677152 8.1640625 9.9511719 C 8.7385025 9.2252019 9.2787463 8.6961675 9.7851562 8.3671875 C 10.291946 8.0382175 10.741662 7.8730469 11.138672 7.8730469 C 11.702672 7.8730469 12.118426 8.0330225 12.384766 8.3515625 C 12.651116 8.6700925 12.785156 9.2051613 12.785156 9.9570312 C 12.785156 10.291411 12.744496 10.69121 12.666016 11.15625 C 12.587916 11.62091 12.440273 12.339097 12.220703 13.310547 L 10.419922 21.269531 L 13.128906 21.269531 L 14.554688 14.421875 C 14.763428 13.450825 15.042728 12.628868 15.392578 11.955078 C 15.742418 11.281678 16.194487 10.597004 16.748047 9.9023438 C 17.301617 9.2080638 17.830652 8.6961675 18.332031 8.3671875 C 18.833411 8.0382175 19.301864 7.8730469 19.740234 7.8730469 C 20.283365 7.8730469 20.675956 8.0330225 20.916016 8.3515625 C 21.156076 8.6700925 21.275391 9.1892062 21.275391 9.9101562 C 21.275391 10.202406 21.236561 10.584618 21.158203 11.054688 C 21.079703 11.524748 20.914943 12.250932 20.664062 13.232422 L 19.974609 15.943359 C 19.630178 17.259239 19.458985 18.254784 19.458984 18.933594 C 19.458984 19.685854 19.663262 20.305096 20.070312 20.791016 C 20.477763 21.276546 21.020409 21.519531 21.699219 21.519531 C 22.555859 21.519531 23.317948 21.294513 23.986328 20.845703 C 24.654698 20.396513 25.437938 19.696664 26.335938 18.746094 L 25.443359 17.869141 C 24.795859 18.590091 24.294323 19.078074 23.939453 19.333984 C 23.584203 19.589894 23.25101 19.71875 22.9375 19.71875 C 22.64487 19.71875 22.430992 19.623767 22.294922 19.435547 C 22.159232 19.247677 22.089844 18.944834 22.089844 18.527344 C 22.089844 18.057274 22.231482 17.251721 22.513672 16.113281 L 23.53125 12.009766 C 23.83432 10.798256 23.986328 9.8630181 23.986328 9.2050781 C 23.986328 8.2023181 23.725385 7.4246538 23.203125 6.8710938 C 22.680875 6.3175238 21.939526 6.0410156 20.978516 6.0410156 C 20.017516 6.0410156 19.090631 6.3510563 18.197266 6.9726562 C 17.304296 7.5938763 16.408146 8.5422762 15.509766 9.8164062 C 15.520166 9.7329062 15.525391 9.6550912 15.525391 9.5820312 L 15.525391 9.3613281 C 15.525391 8.2855081 15.266401 7.4639513 14.744141 6.8945312 C 14.221891 6.3255112 13.457838 6.0410156 12.455078 6.0410156 C 11.483638 6.0410156 10.522846 6.3877512 9.5722656 7.0820312 C 8.6216956 7.7766912 7.6676613 8.8404044 6.7070312 10.271484 L 6.5175781 10.208984 C 6.7580181 9.5610944 6.8789062 8.94944 6.8789062 8.375 C 6.8789062 7.67531 6.6878006 7.1091213 6.3066406 6.6757812 C 5.9254806 6.2420513 5.4059969 6.0253906 4.7480469 6.0253906 z M 104.73633 6.0253906 C 103.93226 6.0253906 103.21401 6.2372562 102.57617 6.6601562 C 101.93833 7.0830662 101.14029 7.7960681 100.17773 8.7988281 L 101.07227 9.6757812 C 101.69851 8.9757112 102.19322 8.4929125 102.55273 8.2265625 C 102.91223 7.9602225 103.25532 7.8261719 103.57617 7.8261719 C 103.86996 7.8261719 104.0835 7.921455 104.22266 8.109375 C 104.35796 8.297245 104.42383 8.5996981 104.42383 9.0175781 C 104.42383 9.5603181 104.31007 10.333168 104.07812 11.335938 L 101.79102 21.269531 L 104.50586 21.269531 L 105.99219 14.486328 C 106.20867 13.514888 106.49189 12.696553 106.83594 12.033203 C 107.18385 11.369853 107.64072 10.685569 108.20898 9.9804688 C 108.77724 9.2753688 109.31391 8.7482775 109.82031 8.3984375 C 110.32671 8.0485775 110.80146 7.8730469 111.23828 7.8730469 C 111.78335 7.8730469 112.17439 8.0330225 112.41406 8.3515625 C 112.65373 8.6700925 112.77344 9.1892062 112.77344 9.9101562 C 112.77344 10.202406 112.73553 10.584628 112.6582 11.054688 C 112.5809 11.524748 112.41338 12.250932 112.16211 13.232422 L 111.47461 15.943359 C 111.13056 17.259239 110.95703 18.254784 110.95703 18.933594 C 110.95703 19.685854 111.16051 20.305096 111.56641 20.791016 C 111.97617 21.276546 112.51691 21.519531 113.19727 21.519531 C 114.05159 21.519531 114.81752 21.297306 115.48242 20.853516 C 116.15118 20.409736 116.93715 19.707094 117.83398 18.746094 L 116.94141 17.869141 C 116.29584 18.590091 115.79314 19.078074 115.4375 19.333984 C 115.08186 19.589894 114.74867 19.71875 114.43555 19.71875 C 114.14176 19.71875 113.92827 19.623767 113.79297 19.435547 C 113.65767 19.247677 113.58984 18.944834 113.58984 18.527344 C 113.58984 18.057274 113.73148 17.251721 114.01367 16.113281 L 115.03125 12.009766 C 115.33278 10.798256 115.48242 9.8630181 115.48242 9.2050781 C 115.48242 8.2127581 115.22304 7.4374962 114.70117 6.8789062 C 114.1793 6.3199262 113.43509 6.0410156 112.46094 6.0410156 C 111.47905 6.0410156 110.52742 6.3877513 109.60352 7.0820312 C 108.67962 7.7766912 107.70605 8.8459894 106.68164 10.287109 L 106.49219 10.224609 C 106.74346 9.5457894 106.86719 8.92856 106.86719 8.375 C 106.86719 7.67531 106.67767 7.1091213 106.29883 6.6757812 C 105.91613 6.2420513 105.39736 6.0253906 104.73633 6.0253906 z M 186.29102 12.869141 C 185.53334 12.869141 184.83315 13.025128 184.19531 13.335938 C 183.55748 13.646728 183.0088 14.118753 182.54492 14.751953 C 182.07717 15.385153 181.71802 16.181155 181.46289 17.140625 C 181.20388 18.100085 181.07616 19.238001 181.07617 20.550781 C 181.07617 23.060771 181.48915 24.932119 182.31641 26.167969 C 183.14753 27.403829 184.41629 28.021484 186.11719 28.021484 C 187.83742 28.021484 189.15207 27.367124 190.05664 26.058594 C 190.96121 24.749674 191.41796 22.817709 191.41797 20.261719 C 191.41797 19.110129 191.32027 18.077523 191.12695 17.164062 C 190.93367 16.250602 190.63242 15.47695 190.22266 14.84375 C 189.81289 14.21055 189.28224 13.722589 188.63281 13.380859 C 187.98338 13.039519 187.20332 12.869141 186.29102 12.869141 z M 186.24414 13.986328 C 186.69643 13.986328 187.09935 14.117976 187.44727 14.378906 C 187.79904 14.639846 188.08834 15.042867 188.31641 15.591797 C 188.54836 16.140727 188.72595 16.841359 188.85352 17.693359 C 188.98109 18.545349 189.04297 19.563974 189.04297 20.746094 C 189.04297 21.797564 188.98517 22.708879 188.86914 23.480469 C 188.75317 24.252059 188.58358 24.888085 188.35938 25.390625 C 188.1313 25.893555 187.84404 26.263833 187.5 26.501953 C 187.15209 26.739693 186.75103 26.859375 186.29102 26.859375 C 185.80008 26.859375 185.37909 26.731716 185.02344 26.478516 C 184.67167 26.225306 184.37647 25.830299 184.14453 25.292969 C 183.90872 24.755639 183.73519 24.071341 183.62695 23.238281 C 183.51485 22.405611 183.45703 21.416908 183.45703 20.273438 C 183.45703 19.283047 183.50483 18.398461 183.59375 17.619141 C 183.67885 16.840211 183.82841 16.179862 184.04102 15.638672 C 184.24977 15.097472 184.53507 14.68651 184.89844 14.40625 C 185.25795 14.12599 185.70681 13.986328 186.24414 13.986328 z M 89.943359 17.634766 C 90.016759 18.407516 90.050781 19.190365 90.050781 19.984375 C 90.050781 20.757125 90.000861 21.400289 89.896484 21.912109 C 89.792105 22.423539 89.618576 22.880783 89.378906 23.283203 C 89.139236 23.685233 88.75222 24.135339 88.21875 24.636719 L 89.064453 25.591797 C 90.027003 24.871237 90.781148 24.211668 91.330078 23.611328 C 91.879003 23.010598 92.278027 22.406541 92.529297 21.800781 C 92.780567 21.195031 92.902344 20.528265 92.902344 19.796875 C 92.902344 19.086745 92.830544 18.365766 92.683594 17.634766 L 89.943359 17.634766 z M 97.521484 73.113281 C 93.121484 73.813281 89.821484 76.414453 88.021484 80.814453 C 86.121484 85.214453 85.421875 91.813281 85.421875 100.61328 L 85.421875 129.21289 C 85.421875 133.91289 84.721094 137.61289 83.621094 140.21289 C 82.121094 142.71289 80.621875 143.81445 78.421875 143.81445 L 78.421875 145.71289 C 80.621875 146.01289 82.521094 147.11289 83.621094 149.71289 C 84.721094 151.91289 85.421875 155.61445 85.421875 160.31445 L 85.421875 189.31445 C 85.421875 197.71445 86.121484 204.31289 88.021484 208.71289 C 89.821484 213.51289 93.121484 216.11445 97.521484 216.81445 L 97.521484 215.31445 C 94.221484 214.61445 92.021484 212.01367 90.521484 208.01367 C 89.121484 203.61367 88.722656 197.41328 88.722656 188.61328 L 88.722656 162.91406 C 88.322656 157.01406 87.621094 152.61328 86.121094 150.11328 C 84.721094 147.11328 83.222656 145.71406 81.722656 144.91406 L 81.722656 144.61328 C 83.222656 143.81328 84.721094 142.41406 86.121094 139.41406 C 88.021094 136.91406 88.722656 132.51328 88.722656 126.61328 L 88.722656 100.91406 C 88.722656 92.514062 89.121484 85.914062 90.521484 81.914062 C 92.021484 77.814062 94.221484 75.313672 97.521484 74.513672 L 97.521484 73.113281 z M 110.32227 77.814453 C 109.22227 77.814453 108.52187 78.213281 107.42188 78.613281 C 106.72188 78.913281 105.92266 79.714453 105.22266 80.814453 C 104.82266 81.514453 104.12266 82.613281 103.72266 84.113281 C 103.72266 85.513281 103.42188 87.012891 103.42188 89.212891 C 103.42188 92.912891 104.12266 95.414453 105.22266 97.314453 C 106.32266 99.114453 107.82148 99.814453 110.02148 99.814453 C 112.52148 99.814453 114.02148 99.114063 115.52148 96.914062 C 116.62148 95.114063 117.32227 92.513672 117.32227 88.513672 C 117.32227 85.213672 116.62148 82.214062 115.52148 80.414062 C 114.42148 78.914063 112.52227 77.814453 110.32227 77.814453 z M 410.62109 77.814453 C 409.52109 77.814453 408.82266 78.213281 407.72266 78.613281 C 407.02266 78.913281 406.22148 79.714453 405.52148 80.814453 C 405.12148 81.514453 404.42148 82.613281 404.02148 84.113281 C 404.02148 85.513281 403.72266 87.012891 403.72266 89.212891 C 403.72266 92.912891 404.42148 95.414453 405.52148 97.314453 C 406.62148 99.114453 408.12227 99.814453 410.32227 99.814453 C 412.82227 99.814453 414.32227 99.114063 415.82227 96.914062 C 416.92227 95.114063 417.62109 92.513672 417.62109 88.513672 C 417.62109 85.213672 416.92227 82.214062 415.82227 80.414062 C 414.72227 78.914063 412.82109 77.814453 410.62109 77.814453 z M 110.32227 79.314453 C 111.12227 79.314453 111.82266 79.714062 112.22266 80.414062 C 112.92266 80.814063 113.32109 81.914453 113.62109 83.314453 C 114.02109 84.814453 114.02148 87.012891 114.02148 89.212891 C 114.02148 92.512891 113.62227 94.712891 113.32227 96.212891 C 112.52227 98.012891 111.42227 98.712891 110.32227 98.712891 C 108.92227 98.712891 108.12188 97.612891 107.42188 96.212891 C 106.72188 94.712891 106.32227 92.113672 106.32227 88.513672 C 106.32227 87.013672 106.72266 85.914453 106.72266 84.814453 C 106.72266 83.714453 107.02187 82.614063 107.42188 81.914062 C 107.42188 80.814062 108.12148 80.413672 108.52148 80.013672 C 108.92148 79.313672 109.62227 79.314453 110.32227 79.314453 z M 410.62109 79.314453 C 411.42109 79.314453 412.12148 79.714062 412.52148 80.414062 C 413.22148 80.814063 413.62187 81.914453 413.92188 83.314453 C 414.32187 84.814453 414.32227 87.012891 414.32227 89.212891 C 414.32227 92.512891 413.92109 94.712891 413.62109 96.212891 C 412.82109 98.012891 412.12109 98.712891 410.62109 98.712891 C 409.22109 98.712891 408.42266 97.612891 407.72266 96.212891 C 407.02266 94.712891 406.62109 92.113672 406.62109 88.513672 C 406.62109 87.013672 407.02148 85.914453 407.02148 84.814453 C 407.02148 83.714453 407.32266 82.614063 407.72266 81.914062 C 407.72266 80.814062 408.42227 80.413672 408.82227 80.013672 C 409.22227 79.313672 409.92109 79.314453 410.62109 79.314453 z M 724.52148 84.113281 C 719.42148 90.313281 715.02266 98.714062 711.72266 109.41406 C 708.72266 120.01406 707.32227 131.71289 707.32227 144.21289 C 707.32227 156.31289 708.72266 168.01289 711.72266 178.71289 C 715.02266 189.71289 719.42148 198.11445 724.52148 204.31445 L 725.62109 203.21289 C 720.82109 197.01289 716.82266 188.21328 714.22266 177.61328 C 711.72266 166.91328 710.62109 155.61289 710.62109 144.21289 C 710.62109 132.11289 711.72266 121.11367 714.22266 110.51367 C 716.82266 100.21367 720.82109 91.812891 725.62109 85.212891 L 724.52148 84.113281 z M 1027.0215 84.113281 L 1026.3223 85.212891 C 1031.0223 91.812891 1034.7223 100.21367 1037.3223 110.51367 C 1039.8223 121.11367 1041.3223 132.11289 1041.3223 144.21289 C 1041.3223 155.61289 1039.8223 166.91328 1037.3223 177.61328 C 1034.7223 188.21328 1031.0223 197.01289 1026.3223 203.21289 L 1027.0215 204.31445 C 1032.5215 198.11445 1036.9223 189.71289 1039.8223 178.71289 C 1043.1223 168.01289 1044.6211 156.31289 1044.6211 144.21289 C 1044.6211 131.71289 1043.1223 120.01406 1039.8223 109.41406 C 1036.9223 98.714063 1032.5215 90.313281 1027.0215 84.113281 z M 345.02148 84.414062 C 344.32148 84.414062 343.52227 84.414453 342.82227 84.814453 C 342.12227 85.514453 341.32266 86.313672 340.22266 87.013672 L 341.32227 88.113281 C 342.12227 87.413281 342.42227 86.613281 342.82227 86.613281 C 343.22227 86.313281 343.52188 86.314453 343.92188 86.314453 L 344.32227 86.314453 C 344.62227 86.614453 344.62109 87.014062 344.62109 87.414062 C 344.62109 87.714063 344.62227 88.813281 344.32227 89.613281 L 342.12109 99.814453 L 344.62109 99.814453 L 346.12109 92.914062 C 346.52109 91.814063 346.82266 91.014453 347.22266 90.314453 C 347.62266 89.614453 347.92227 89.213672 348.32227 88.513672 C 349.02227 87.713672 349.42109 87.013281 350.12109 86.613281 C 350.52109 86.313281 350.92109 86.314453 351.62109 86.314453 C 352.02109 86.314453 352.32266 86.313281 352.72266 86.613281 C 353.12266 87.013281 353.12109 87.413281 353.12109 88.113281 L 353.12109 89.613281 C 352.72109 89.913281 352.72227 90.714453 352.32227 91.814453 L 351.62109 94.314453 C 351.22109 95.814453 351.22266 96.514453 351.22266 97.314453 C 351.22266 98.014453 351.22148 98.713281 352.02148 99.113281 C 352.32148 99.813281 352.72188 99.814453 353.42188 99.814453 C 354.22187 99.814453 354.92109 99.813281 355.62109 99.113281 C 356.42109 98.713281 357.12266 98.014453 358.22266 97.314453 L 357.12109 96.212891 C 356.42109 96.912891 356.02109 97.613281 355.62109 97.613281 C 355.32109 98.013281 354.92148 98.013672 354.52148 98.013672 L 354.22266 98.013672 C 353.82266 97.613672 353.82227 97.314063 353.82227 96.914062 C 353.82227 96.514063 353.82266 95.814453 354.22266 94.314453 L 355.32227 90.314453 C 355.62227 89.214453 355.62109 88.114063 355.62109 87.414062 C 355.62109 86.614062 355.62187 85.912891 354.92188 85.212891 C 354.52188 84.812891 353.82266 84.414062 352.72266 84.414062 C 351.62266 84.414062 350.92227 84.813672 349.82227 85.513672 C 349.02227 86.313672 347.92227 87.013672 346.82227 88.513672 C 346.82227 87.713672 347.22266 87.413281 347.22266 86.613281 C 347.22266 85.913281 346.82148 85.512891 346.52148 85.212891 C 346.12148 84.412891 345.72148 84.414062 345.02148 84.414062 z M 370.72266 86.314453 L 370.72266 88.113281 L 389.72266 88.113281 L 389.72266 86.314453 L 370.72266 86.314453 z M 370.72266 92.513672 L 370.72266 94.712891 L 389.72266 94.712891 L 389.72266 92.513672 L 370.72266 92.513672 z M 851.42188 98.414062 C 851.42188 98.714063 851.02109 98.712891 850.62109 98.712891 C 850.32109 99.112891 849.92148 99.513672 849.52148 99.513672 C 849.22148 99.813672 849.22187 100.21328 848.42188 100.61328 L 849.52148 101.31445 L 849.92188 100.91406 C 850.18854 100.71406 850.42109 100.47956 850.62109 100.21289 L 851.02148 100.21289 C 851.02148 99.812891 851.42188 99.814453 851.42188 99.814453 C 852.12188 99.814453 852.12109 100.21406 852.12109 100.91406 L 852.12109 101.71289 C 852.12109 102.01289 852.12266 102.41445 851.72266 102.81445 L 850.32227 110.51367 L 852.52148 110.51367 L 853.62109 104.61328 C 853.92109 104.21328 853.92188 103.91367 853.92188 103.51367 C 854.32187 103.11367 854.32266 102.81406 854.72266 102.41406 C 855.02266 102.01406 855.02188 101.71445 855.42188 101.31445 L 856.12109 100.61328 C 856.52109 100.61328 856.92188 100.21289 856.92188 100.21289 C 857.22188 99.812891 857.62148 99.814453 858.02148 99.814453 C 858.32148 99.814453 858.32266 100.21289 858.72266 100.21289 C 858.72266 100.61289 859.12109 100.91445 859.12109 101.31445 C 859.12109 101.58112 858.98932 101.81367 858.72266 102.01367 L 858.72266 103.11328 C 858.72266 103.51328 858.32227 103.91328 858.32227 104.61328 C 858.32227 105.01328 858.02148 105.31328 858.02148 106.11328 C 858.02148 106.41328 857.62109 106.81367 857.62109 107.51367 L 857.62109 108.61328 L 857.62109 109.41406 C 857.88776 109.61406 858.02148 109.84661 858.02148 110.11328 C 858.32148 110.11328 858.32266 110.51367 858.72266 110.51367 L 859.42188 110.51367 L 860.52148 110.51367 C 860.78815 110.51367 861.0556 110.37995 861.32227 110.11328 C 861.62227 109.71328 862.02188 109.71406 862.42188 109.41406 C 862.72187 109.01406 863.12148 108.61445 863.52148 108.31445 L 862.42188 107.51367 C 862.42188 107.91367 862.02148 107.91445 862.02148 108.31445 C 861.75482 108.51445 861.52227 108.61328 861.32227 108.61328 C 861.32227 109.01328 860.92188 109.01367 860.92188 109.01367 L 860.52148 109.01367 L 859.82227 109.01367 L 859.82227 108.31445 L 859.82227 107.51367 C 859.82227 107.21367 860.22266 106.81406 860.22266 106.41406 C 860.22266 106.11406 860.52148 105.31367 860.52148 105.01367 C 860.52148 104.21367 860.92188 103.91367 860.92188 103.51367 C 860.92188 102.81367 860.92227 102.41367 861.32227 102.01367 L 861.32227 100.91406 C 861.32227 100.21406 860.92148 99.513281 860.52148 99.113281 C 860.22148 98.713281 859.42266 98.414062 858.72266 98.414062 C 858.02266 98.414063 857.22148 98.713281 856.52148 99.113281 C 855.82148 99.813281 855.02227 100.61289 854.32227 101.71289 L 853.92188 101.31445 L 854.32227 100.91406 L 854.32227 100.61328 C 854.32227 99.813281 853.92109 99.513281 853.62109 99.113281 C 853.62109 98.713281 852.82148 98.414062 852.52148 98.414062 L 851.42188 98.414062 z M 742.82227 103.11328 C 738.42227 106.81328 735.12109 112.31328 732.62109 119.61328 C 730.02109 127.01328 728.92188 135.01289 728.92188 144.21289 C 728.92188 153.01289 730.02109 161.41445 732.62109 168.81445 C 735.12109 176.11445 738.42227 181.61445 742.82227 185.31445 L 743.62109 184.21289 C 739.92109 180.51289 737.02227 175.01289 734.82227 167.71289 C 732.92227 160.71289 731.82227 152.61289 731.82227 144.21289 C 731.82227 135.41289 732.92227 127.71289 734.82227 120.71289 C 737.02227 113.41289 739.92109 107.91289 743.62109 104.21289 L 742.82227 103.11328 z M 831.22266 103.11328 L 830.52148 104.21289 C 834.12148 107.91289 837.12188 113.41289 838.92188 120.71289 C 841.12187 127.71289 841.82227 135.41289 841.82227 144.21289 C 841.82227 152.61289 841.12188 160.71289 838.92188 167.71289 C 837.12188 175.01289 834.12148 180.51289 830.52148 184.21289 L 831.22266 185.31445 C 835.62266 181.61445 838.92148 176.11445 841.52148 168.81445 C 844.02148 161.41445 845.12109 153.01289 845.12109 144.21289 C 845.12109 135.01289 844.02148 127.01328 841.52148 119.61328 C 838.92148 112.31328 835.62266 106.81328 831.22266 103.11328 z M 919.92188 103.11328 C 915.52188 106.81328 911.92266 112.31328 909.72266 119.61328 C 907.12266 127.01328 905.62109 135.01289 905.62109 144.21289 C 905.62109 153.01289 907.12266 161.41445 909.72266 168.81445 C 911.92266 176.11445 915.52188 181.61445 919.92188 185.31445 L 920.72266 184.21289 C 916.62266 180.51289 914.12188 175.01289 911.92188 167.71289 C 910.02188 160.71289 908.92188 152.61289 908.92188 144.21289 C 908.92187 135.41289 910.02188 127.71289 911.92188 120.71289 C 914.12187 113.41289 916.62266 107.91289 920.72266 104.21289 L 919.92188 103.11328 z M 1007.9219 103.11328 L 1007.2227 104.21289 C 1010.9227 107.91289 1013.8215 113.41289 1016.0215 120.71289 C 1017.8215 127.71289 1018.9219 135.41289 1018.9219 144.21289 C 1018.9219 152.61289 1017.8215 160.71289 1016.0215 167.71289 C 1013.8215 175.01289 1011.2227 180.51289 1007.2227 184.21289 L 1007.9219 185.31445 C 1012.3219 181.61445 1015.6227 176.11445 1018.2227 168.81445 C 1020.8227 161.41445 1022.2227 153.01289 1022.2227 144.21289 C 1022.2227 135.01289 1020.8227 127.01328 1018.2227 119.61328 C 1015.6227 112.31328 1012.3219 106.81328 1007.9219 103.11328 z M 816.52148 107.51367 L 809.22266 111.91406 L 809.92188 113.01367 C 811.02188 112.71367 811.82148 111.91328 812.52148 111.61328 C 812.92148 111.21328 813.62109 111.21289 813.62109 111.21289 C 814.02109 111.21289 814.32227 111.21328 814.32227 111.61328 C 814.72227 111.61328 814.72266 111.91445 814.72266 112.31445 L 814.72266 125.11328 C 814.72266 125.91328 814.72227 126.61328 814.32227 126.61328 C 814.32227 127.01328 814.02148 127.31445 814.02148 127.31445 C 813.62148 127.71445 813.22187 127.71328 812.92188 128.11328 L 810.32227 128.11328 L 810.32227 129.21289 L 822.02148 129.21289 L 822.02148 128.11328 L 819.82227 128.11328 C 819.52227 128.11328 819.12266 127.71289 818.72266 127.71289 C 818.42266 127.71289 818.02148 127.31445 818.02148 127.31445 C 817.75482 127.11445 817.62109 126.87995 817.62109 126.61328 L 817.62109 125.11328 L 817.62109 111.61328 L 817.62109 107.51367 L 816.52148 107.51367 z M 993.62109 107.51367 L 986.32227 111.91406 L 987.02148 113.01367 C 987.82148 112.71367 988.92266 111.91328 989.22266 111.61328 C 990.02266 111.21328 990.32266 111.21289 990.72266 111.21289 C 990.98932 111.21289 991.22188 111.34661 991.42188 111.61328 L 991.42188 112.31445 L 991.42188 125.11328 L 991.42188 126.61328 C 991.42188 127.01328 991.12266 127.31445 990.72266 127.31445 C 990.72266 127.71445 990.32109 127.71328 989.62109 128.11328 L 987.02148 128.11328 L 987.02148 129.21289 L 998.82227 129.21289 L 998.82227 128.11328 L 996.92188 128.11328 C 996.22187 128.11328 995.82148 127.71289 995.52148 127.71289 C 995.52148 127.71289 995.12266 127.31445 994.72266 127.31445 C 994.72266 127.11445 994.62188 126.87995 994.42188 126.61328 L 994.42188 125.11328 L 994.42188 111.61328 L 994.42188 107.51367 L 993.62109 107.51367 z M 114.02148 107.91406 C 114.02148 107.91406 113.62227 108.31445 113.32227 108.31445 C 112.92227 108.61445 112.52266 108.61367 112.22266 109.01367 C 111.82266 109.41367 111.82109 109.71328 111.12109 110.11328 L 112.22266 110.81445 C 112.22266 110.51445 112.52148 110.51328 112.52148 110.11328 C 112.92148 110.11328 112.92227 109.71289 113.32227 109.71289 L 113.62109 109.41406 L 114.02148 109.41406 C 114.72148 109.41406 114.72266 109.71328 114.72266 110.11328 L 114.72266 111.21289 C 114.72266 111.21289 114.72187 111.61445 114.42188 112.31445 L 112.92188 120.01367 L 115.12109 120.01367 L 116.22266 113.81445 C 116.62266 113.41445 116.62109 113.01289 116.62109 112.71289 C 116.92109 112.31289 116.92227 111.91406 117.32227 111.91406 C 117.72227 111.61406 117.72148 111.21445 118.02148 110.81445 C 118.42148 110.51445 118.42227 110.11328 118.82227 110.11328 C 119.12227 109.71328 119.52148 109.71406 119.52148 109.41406 L 120.22266 109.41406 C 120.75599 109.41406 121.12227 109.51289 121.32227 109.71289 C 121.32227 110.11289 121.72266 110.51445 121.72266 110.81445 C 121.72266 110.81445 121.72227 111.21328 121.32227 111.61328 L 121.32227 112.71289 C 121.32227 113.01289 121.02148 113.41445 121.02148 113.81445 C 121.02148 114.51445 120.62109 114.91289 120.62109 115.21289 C 120.62109 116.01289 120.22266 116.31289 120.22266 116.71289 L 120.22266 117.81445 L 120.22266 118.91406 L 120.62109 119.31445 C 120.88776 119.51445 121.12227 119.74701 121.32227 120.01367 L 122.12109 120.01367 L 123.22266 120.01367 C 123.52266 120.01367 123.52187 119.61328 123.92188 119.61328 C 124.32187 119.31328 124.62148 119.31406 125.02148 118.91406 L 126.12109 117.81445 L 125.02148 117.11328 C 125.02148 117.41328 124.62109 117.41445 124.62109 117.81445 C 124.32109 117.81445 124.32188 118.21289 123.92188 118.21289 C 123.92188 118.21289 123.52148 118.21367 123.52148 118.51367 L 123.22266 118.51367 C 122.95599 118.51367 122.68854 118.41289 122.42188 118.21289 L 122.42188 117.81445 L 122.42188 117.11328 C 122.42188 116.71328 122.82227 116.31367 122.82227 116.01367 C 122.82227 115.21367 123.22266 114.91367 123.22266 114.51367 C 123.22266 113.81367 123.52148 113.41289 123.52148 112.71289 C 123.52148 112.31289 123.52187 111.91289 123.92188 111.21289 L 123.92188 110.51367 C 123.92188 109.41367 123.52266 109.01328 123.22266 108.61328 C 122.82266 107.91328 122.12227 107.91406 121.32227 107.91406 C 120.62227 107.91406 119.92109 107.91328 119.12109 108.61328 C 118.42109 109.01328 117.72187 109.71445 116.92188 110.81445 L 116.62109 110.81445 L 116.92188 110.51367 L 116.92188 109.71289 C 116.92188 109.41289 116.62266 108.61445 116.22266 108.31445 C 116.22266 107.91445 115.52109 107.91406 115.12109 107.91406 L 114.02148 107.91406 z M 205.32227 123.71289 L 198.02148 128.11328 L 198.72266 129.21289 C 199.42266 128.81289 200.52187 128.11289 200.92188 127.71289 C 201.62187 127.31289 202.02187 127.31445 202.42188 127.31445 C 202.62188 127.31445 202.85443 127.44622 203.12109 127.71289 L 203.12109 128.41406 L 203.12109 141.31445 L 203.12109 142.71289 C 203.12109 143.11289 202.72188 143.51367 202.42188 143.51367 C 202.42188 143.81367 202.02227 143.81289 201.32227 144.21289 L 199.12109 144.21289 L 199.12109 145.31445 L 210.42188 145.31445 L 210.42188 144.21289 L 208.62109 144.21289 C 208.22109 144.21289 207.52148 143.81445 207.52148 143.81445 C 207.12148 143.81445 206.82227 143.51367 206.82227 143.51367 C 206.5556 143.24701 206.42187 142.97956 206.42188 142.71289 C 206.02188 142.41289 206.02148 142.01445 206.02148 141.31445 L 206.02148 127.71289 C 206.02148 125.91289 206.02187 124.81289 206.42188 123.71289 L 205.32227 123.71289 z M 262.52148 123.71289 C 261.42148 123.71289 259.92227 124.01406 258.82227 124.41406 C 257.72227 124.81406 257.02227 125.51328 256.32227 126.61328 C 255.92227 127.71328 255.52148 128.81406 255.52148 129.91406 C 255.52148 130.61406 255.52187 131.41328 255.92188 132.11328 C 256.32188 132.51328 256.62148 133.21328 257.02148 133.61328 C 257.72148 134.31328 258.52266 134.71406 259.22266 135.41406 C 259.92266 135.81406 260.72148 136.51406 261.02148 136.91406 C 261.42148 137.21406 261.82109 137.61445 262.12109 138.31445 C 262.12109 138.71445 262.52148 139.41445 262.52148 139.81445 C 262.52148 141.31445 262.12148 142.41328 261.02148 143.11328 C 260.32148 143.81328 259.22266 144.21289 257.72266 144.21289 C 256.62266 144.21289 255.52266 143.81367 255.22266 143.51367 C 254.42266 142.71367 254.12109 141.61367 254.12109 140.51367 L 252.62109 140.51367 L 251.92188 144.91406 C 252.62187 144.91406 253.72227 145.31445 254.82227 145.31445 C 255.92227 145.71445 257.02266 145.71289 257.72266 145.71289 C 259.22266 145.71289 260.72227 145.31406 261.82227 144.91406 C 262.92227 144.21406 263.62227 143.51289 264.32227 142.71289 C 264.72227 141.61289 265.12109 140.51328 265.12109 139.11328 C 265.12109 138.31328 265.12266 137.61406 264.72266 136.91406 C 264.72266 136.51406 264.02109 135.81367 263.62109 135.01367 C 263.22109 134.71367 262.12187 133.91289 261.42188 133.21289 C 259.92188 132.51289 259.22227 131.71367 258.82227 131.01367 C 258.52227 130.61367 258.12109 129.91289 258.12109 129.21289 C 258.12109 128.41289 258.52227 127.71367 258.82227 127.01367 C 259.22227 126.21367 259.62227 125.91367 260.32227 125.51367 C 261.02227 125.11367 261.82148 125.11328 262.52148 125.11328 C 263.22148 125.11328 264.02227 125.11367 264.32227 125.51367 C 264.72227 125.51367 265.12187 125.91328 265.42188 126.61328 C 265.42188 127.01328 265.82227 127.71406 265.82227 128.41406 L 267.32227 128.41406 L 268.02148 124.41406 C 266.92148 124.01406 266.22188 124.01289 265.42188 123.71289 L 262.52148 123.71289 z M 151.82227 124.01367 L 151.02148 127.31445 L 153.62109 127.31445 L 154.32227 124.01367 L 151.82227 124.01367 z M 98.222656 129.51367 L 98.222656 131.01367 L 119.92188 159.61328 L 97.921875 189.71289 L 97.921875 191.11328 L 136.42188 191.11328 L 137.12109 179.81445 L 134.92188 179.81445 C 134.52188 182.71445 133.82109 184.51445 133.12109 185.31445 C 132.72109 186.41445 131.62148 186.71289 130.52148 186.71289 L 103.02148 186.71289 L 123.52148 159.21289 L 123.52148 157.01367 L 104.82227 131.71289 L 129.42188 131.71289 C 130.92188 131.71289 132.02266 132.51328 132.72266 133.61328 C 133.42266 135.01328 134.22266 136.51328 134.22266 139.11328 L 136.42188 139.11328 L 136.42188 129.51367 L 98.222656 129.51367 z M 523.92188 129.51367 C 521.02188 130.31367 518.42148 131.71289 517.02148 134.71289 C 515.12148 137.21289 514.42188 140.51289 514.42188 144.21289 C 514.42188 148.21289 515.12148 151.51328 517.02148 154.11328 C 518.42148 156.71328 521.02188 158.51289 523.92188 159.21289 L 524.32227 158.11328 C 521.72227 157.41328 520.32227 155.61406 518.82227 153.41406 C 517.72227 150.81406 517.02148 147.91289 517.02148 144.21289 C 517.02148 140.51289 517.72227 137.61406 518.82227 135.41406 C 520.32227 132.81406 521.72227 131.41328 524.32227 130.61328 L 523.92188 129.51367 z M 585.22266 129.51367 L 584.42188 130.61328 C 587.02188 131.41328 588.82187 132.81406 589.92188 135.41406 C 591.42187 137.61406 591.82227 140.51289 591.82227 144.21289 C 591.82227 147.91289 591.42188 150.81406 589.92188 153.41406 C 588.82187 155.61406 587.02227 157.41328 584.82227 158.11328 L 585.22266 159.21289 C 588.12266 158.51289 590.32109 156.71328 592.12109 154.11328 C 593.62109 151.51328 594.72266 148.21289 594.72266 144.21289 C 594.72266 140.51289 593.62109 137.21289 592.12109 134.71289 C 590.32109 131.71289 588.12266 130.31367 585.22266 129.51367 z M 148.52148 130.31445 L 148.12109 131.01367 C 148.82109 131.41367 149.22109 131.41406 149.62109 131.41406 C 149.62109 131.71406 149.92188 132.11367 149.92188 132.51367 C 149.92188 132.81367 149.62109 133.61289 149.62109 134.71289 L 148.12109 139.81445 C 148.12109 141.31445 147.72266 142.41328 147.72266 143.11328 C 147.72266 143.81328 148.12148 144.61406 148.52148 144.91406 C 148.82148 145.31406 149.22188 145.71289 149.92188 145.71289 C 150.72187 145.71289 151.42109 145.31406 152.12109 144.91406 C 152.92109 144.61406 153.62266 143.81289 154.72266 142.71289 L 154.02148 142.01367 C 153.22148 142.71367 152.52109 143.11367 152.12109 143.51367 C 151.92109 143.71367 151.68854 143.81445 151.42188 143.81445 C 151.02188 143.81445 150.72266 143.81367 150.72266 143.51367 C 150.72266 143.51367 150.32227 143.11289 150.32227 142.71289 C 150.32227 142.01289 150.72266 141.31289 150.72266 140.21289 L 152.92188 130.31445 L 152.12109 130.31445 L 148.52148 130.31445 z M 12.121094 131.71289 C 10.621094 131.71289 9.1214844 132.11367 8.0214844 132.51367 C 6.9214844 132.81367 6.2222656 133.61289 5.8222656 134.71289 C 5.1222656 135.81289 4.7226562 136.91367 4.7226562 138.01367 C 4.7226562 138.71367 5.1210938 139.41289 5.1210938 140.21289 C 5.5210937 140.51289 5.8210938 141.31328 6.6210938 141.61328 C 6.9210937 142.41328 7.721875 142.71367 8.421875 143.51367 C 9.121875 143.81367 9.9226562 144.61406 10.222656 144.91406 C 11.022656 145.31406 11.022266 145.71406 11.322266 146.41406 C 11.722266 146.81406 11.722656 147.51406 11.722656 147.91406 C 11.722656 149.31406 11.321094 150.41289 10.621094 151.21289 C 9.5210938 151.91289 8.4222656 152.31445 7.3222656 152.31445 C 5.8222656 152.31445 5.121875 151.91367 4.421875 151.51367 C 3.621875 150.81367 3.6210938 149.71328 3.6210938 148.61328 L 2.2226562 148.61328 L 1.1210938 153.01367 C 1.8210937 153.01367 2.9214844 153.41406 4.0214844 153.41406 C 5.1214844 153.71406 6.2222656 153.71289 7.3222656 153.71289 C 8.4222656 153.71289 9.9214844 153.41367 11.021484 153.01367 C 12.121484 152.31367 12.821484 151.51445 13.521484 150.81445 C 14.321484 149.71445 14.621094 148.61328 14.621094 147.11328 C 14.621094 146.41328 14.322266 145.71406 14.322266 144.91406 C 13.922266 144.61406 13.522266 143.81328 12.822266 143.11328 C 12.422266 142.71328 11.721094 142.01445 10.621094 141.31445 C 9.5210937 140.51445 8.4214844 139.81328 8.0214844 139.11328 C 7.7214844 138.71328 7.7226562 138.01289 7.7226562 137.21289 C 7.7226562 136.51289 7.7214844 135.81367 8.0214844 135.01367 C 8.4214844 134.31367 8.8214844 133.91328 9.5214844 133.61328 C 10.221484 133.21328 11.022656 133.21289 11.722656 133.21289 C 12.422656 133.21289 13.221484 133.21328 13.521484 133.61328 C 13.921484 133.61328 14.321094 133.91289 14.621094 134.71289 C 14.621094 135.01289 15.021484 135.81367 15.021484 136.51367 L 16.521484 136.51367 L 17.222656 132.51367 C 16.522656 132.11367 15.421094 132.11289 14.621094 131.71289 L 12.121094 131.71289 z M 754.92188 131.71289 L 747.62109 136.11328 L 748.32227 137.21289 C 749.42227 136.91289 750.22148 136.11445 750.52148 135.81445 C 751.32148 135.41445 751.62148 135.41406 752.02148 135.41406 C 752.42148 135.41406 752.72266 135.41445 752.72266 135.81445 C 752.72266 135.81445 753.12109 136.11367 753.12109 136.51367 L 753.12109 149.31445 C 753.12109 150.11445 752.72266 150.81445 752.72266 150.81445 C 752.72266 151.21445 752.42188 151.51406 752.42188 151.91406 C 752.02187 151.91406 751.62188 151.91445 750.92188 152.31445 L 748.72266 152.31445 L 748.72266 153.41406 L 760.12109 153.41406 L 760.12109 152.31445 L 758.22266 152.31445 C 757.92266 152.31445 757.52109 151.91406 757.12109 151.91406 C 756.82109 151.91406 756.42188 151.51367 756.42188 151.51367 C 756.15521 151.31367 756.02148 151.08112 756.02148 150.81445 C 755.72148 150.41445 755.72266 150.11445 755.72266 149.31445 L 755.72266 135.81445 C 755.72266 134.31445 755.72148 132.81289 756.02148 131.71289 L 754.92188 131.71289 z M 932.02148 131.71289 L 924.72266 136.11328 L 925.42188 137.21289 C 926.22188 136.91289 926.92109 136.11445 927.62109 135.81445 C 928.42109 135.41445 928.72109 135.41406 929.12109 135.41406 C 929.38776 135.41406 929.62227 135.54779 929.82227 135.81445 L 929.82227 136.51367 L 929.82227 149.31445 L 929.82227 150.81445 C 929.52227 151.21445 929.52109 151.51406 929.12109 151.91406 C 928.72109 151.91406 928.42148 151.91445 928.02148 152.31445 L 925.42188 152.31445 L 925.42188 153.41406 L 937.22266 153.41406 L 937.22266 152.31445 L 935.32227 152.31445 C 934.62227 152.31445 934.22187 151.91406 933.92188 151.91406 C 933.52187 151.91406 933.52109 151.51367 933.12109 151.51367 C 933.12109 151.21367 932.82227 151.21445 932.82227 150.81445 L 932.82227 149.31445 L 932.82227 135.81445 L 932.82227 131.71289 L 932.02148 131.71289 z M 1152.0215 131.71289 L 1144.3223 136.11328 L 1145.1211 137.21289 C 1146.2211 136.91289 1146.9211 136.11445 1147.6211 135.81445 C 1148.0211 135.41445 1148.7211 135.41406 1149.1211 135.41406 C 1149.1211 135.41406 1149.5215 135.41445 1149.5215 135.81445 C 1149.8215 135.81445 1149.8223 136.11367 1149.8223 136.51367 L 1149.8223 149.31445 C 1149.8223 150.11445 1149.8215 150.81445 1149.5215 150.81445 C 1149.5215 151.21445 1149.5211 151.51406 1149.1211 151.91406 C 1148.7211 151.91406 1148.4215 151.91445 1148.0215 152.31445 L 1145.4219 152.31445 L 1145.4219 153.41406 L 1157.2227 153.41406 L 1157.2227 152.31445 L 1155.0215 152.31445 C 1154.6215 152.31445 1154.2219 151.91406 1153.9219 151.91406 C 1153.5219 151.91406 1153.1211 151.51367 1153.1211 151.51367 C 1152.9211 151.31367 1152.8223 151.08112 1152.8223 150.81445 L 1152.8223 149.31445 L 1152.8223 135.81445 L 1152.8223 131.71289 L 1152.0215 131.71289 z M 1064.0215 134.31445 L 1064.0215 143.11328 L 1055.6211 143.11328 L 1055.6211 145.31445 L 1064.0215 145.31445 L 1064.0215 154.51367 L 1066.2227 154.51367 L 1066.2227 145.31445 L 1075.0215 145.31445 L 1075.0215 143.11328 L 1066.2227 143.11328 L 1066.2227 134.31445 L 1064.0215 134.31445 z M 166.82227 135.01367 L 166.82227 137.21289 L 186.22266 137.21289 L 186.22266 135.01367 L 166.82227 135.01367 z M 222.92188 135.01367 L 222.92188 137.21289 L 242.32227 137.21289 L 242.32227 135.01367 L 222.92188 135.01367 z M 272.42188 135.41406 L 272.02148 138.01367 L 274.22266 138.01367 L 275.02148 135.41406 L 272.42188 135.41406 z M 678.32227 135.81445 L 676.82227 137.21289 L 683.82227 144.21289 L 676.82227 151.51367 L 677.92188 153.01367 L 685.32227 145.71289 L 692.22266 153.01367 L 694.12109 151.51367 L 687.12109 144.21289 L 694.12109 137.21289 L 692.62109 135.81445 L 685.32227 142.71289 L 678.32227 135.81445 z M 301.02148 136.91406 C 299.92148 137.61406 299.22109 138.01445 298.12109 138.31445 C 297.32109 139.11445 296.22109 139.41289 295.12109 140.21289 C 295.52109 140.21289 295.52148 140.51367 295.52148 140.51367 C 295.52148 140.78034 295.65521 141.04779 295.92188 141.31445 C 296.62188 140.51445 297.32266 140.21289 297.72266 140.21289 C 298.12266 139.81289 298.42227 139.81445 298.82227 139.81445 L 299.22266 139.81445 C 299.42266 140.08112 299.52148 140.31367 299.52148 140.51367 L 299.52148 149.01367 L 299.52148 149.71289 C 299.22148 149.71289 299.22266 150.11328 299.22266 150.11328 L 299.22266 150.41406 L 298.82227 150.81445 L 298.42188 150.81445 L 297.72266 150.81445 C 297.72266 151.21445 297.32148 151.21289 297.02148 151.21289 L 295.92188 151.21289 L 295.92188 152.31445 L 305.42188 152.31445 L 305.42188 151.21289 L 303.92188 151.21289 L 303.22266 151.21289 C 302.95599 150.94622 302.72148 150.81445 302.52148 150.81445 L 302.12109 150.81445 L 302.12109 150.41406 C 301.72109 150.41406 301.72266 150.11328 301.72266 150.11328 L 301.72266 149.71289 L 301.72266 149.01367 L 301.72266 140.21289 L 301.72266 139.11328 L 301.72266 138.01367 L 301.72266 136.91406 L 301.02148 136.91406 z M 529.82227 138.01367 C 529.12227 138.01367 528.32109 138.31289 527.62109 138.71289 C 527.22109 139.41289 526.12188 139.81406 525.42188 140.91406 L 526.12109 142.01367 C 526.92109 141.31367 527.22109 140.51367 527.62109 140.51367 C 528.02109 140.21367 528.32266 139.81445 528.72266 139.81445 C 529.12266 139.81445 529.42188 140.21289 529.42188 140.21289 C 529.42187 140.51289 529.82227 140.91445 529.82227 141.31445 C 529.82227 141.61445 529.42188 142.41367 529.42188 143.51367 L 526.92188 153.41406 L 529.82227 153.41406 L 531.32227 146.81445 C 531.32227 145.71445 531.62148 144.91289 532.02148 144.21289 C 532.42148 143.51289 532.72148 142.71367 533.52148 142.01367 C 533.82148 141.31367 534.62188 140.91367 534.92188 140.51367 C 535.72187 140.21367 536.02188 140.21289 536.42188 140.21289 C 536.82188 140.21289 537.52148 140.21367 537.52148 140.51367 C 537.92148 140.91367 537.92188 141.31367 537.92188 142.01367 L 537.92188 143.51367 C 537.92187 143.81367 537.52148 144.61445 537.52148 145.31445 L 535.72266 153.41406 L 538.22266 153.41406 L 539.72266 146.81445 C 540.12266 145.71445 540.42227 144.91289 540.82227 144.21289 C 541.22227 143.51289 541.52188 142.71367 541.92188 142.01367 C 542.62188 141.31367 543.02266 140.91367 543.72266 140.51367 C 544.12266 140.21367 544.52227 140.21289 544.82227 140.21289 C 545.62227 140.21289 545.92227 140.21367 546.32227 140.51367 C 546.32227 140.91367 546.72266 141.31367 546.72266 142.01367 C 546.72266 142.41367 546.72227 142.71328 546.32227 143.11328 C 546.32227 143.81328 546.32187 144.61445 545.92188 145.31445 L 545.22266 148.21289 C 544.82266 149.31289 544.82227 150.41289 544.82227 151.21289 C 544.82227 151.91289 544.82266 152.61367 545.22266 153.01367 C 545.62266 153.41367 546.32148 153.71289 547.02148 153.71289 C 547.82148 153.71289 548.52266 153.41367 549.22266 153.01367 C 550.02266 152.61367 550.72187 151.91445 551.42188 150.81445 L 550.72266 150.11328 C 550.02266 150.81328 549.62266 151.21367 549.22266 151.51367 C 548.92266 151.91367 548.52109 151.91406 548.12109 151.91406 C 547.92109 151.91406 547.68854 151.78034 547.42188 151.51367 L 547.42188 150.81445 C 547.42187 150.41445 547.42227 149.31289 547.82227 148.21289 L 548.92188 144.21289 C 549.22187 143.11289 549.22266 142.01445 549.22266 141.31445 C 549.22266 140.21445 548.92148 139.41328 548.52148 139.11328 C 547.82148 138.31328 547.02227 138.31445 546.32227 138.31445 C 545.22227 138.31445 544.52188 138.31328 543.42188 139.11328 C 542.62187 139.81328 541.52227 140.51367 540.82227 142.01367 L 540.82227 141.61328 C 540.82227 140.51328 540.42109 139.41328 540.12109 139.11328 C 539.32109 138.31328 538.62188 138.31445 537.92188 138.31445 C 536.82188 138.31445 535.72187 138.31328 534.92188 139.11328 C 533.82188 139.81328 532.72148 140.91406 532.02148 142.41406 L 531.62109 142.41406 C 532.02109 141.61406 532.02148 141.31367 532.02148 140.51367 C 532.02148 139.81367 532.02109 139.11289 531.62109 138.71289 C 531.32109 138.31289 530.52227 138.01367 529.82227 138.01367 z M 570.12109 138.01367 C 569.42109 138.01367 568.72187 138.31289 567.92188 138.71289 C 567.22187 139.11289 566.52266 139.81406 565.72266 140.91406 L 566.52148 142.01367 C 567.22148 141.31367 567.62188 140.51367 567.92188 140.51367 C 568.32187 140.21367 568.72148 139.81445 569.02148 139.81445 C 569.42148 139.81445 569.42227 140.21289 569.82227 140.21289 L 569.82227 141.31445 C 569.82227 141.61445 569.82187 142.41367 569.42188 143.51367 L 567.22266 153.41406 L 569.82227 153.41406 L 571.62109 146.81445 C 571.62109 145.71445 572.02227 144.91289 572.32227 144.21289 C 572.72227 143.51289 573.12227 142.71367 573.82227 142.01367 C 574.22227 141.31367 574.92227 140.91367 575.32227 140.51367 C 575.62227 140.21367 576.42266 140.21289 576.72266 140.21289 C 577.12266 140.21289 577.52227 140.21367 577.82227 140.51367 C 578.22227 140.91367 578.22266 141.31367 578.22266 142.01367 L 578.22266 143.11328 C 578.22266 143.81328 577.82148 144.61445 577.52148 145.31445 L 577.12109 148.21289 C 576.72109 149.31289 576.42188 150.41289 576.42188 151.21289 C 576.42188 151.91289 576.72109 152.61367 577.12109 153.01367 C 577.52109 153.41367 577.82109 153.71289 578.62109 153.71289 C 579.72109 153.71289 580.42109 153.41367 581.12109 153.01367 L 583.32227 150.81445 L 582.62109 150.11328 C 581.92109 150.81328 581.12227 151.21367 580.82227 151.51367 C 580.5556 151.78034 580.28815 151.91406 580.02148 151.91406 C 579.72148 151.91406 579.32227 151.91367 579.32227 151.51367 C 579.32227 151.51367 578.92188 151.21445 578.92188 150.81445 C 578.92187 150.41445 579.32227 149.31289 579.32227 148.21289 L 580.42188 144.21289 C 580.82188 143.11289 581.12109 142.01445 581.12109 141.31445 C 581.12109 140.21445 580.82148 139.41328 580.02148 139.11328 C 579.72148 138.31328 578.92227 138.31445 577.82227 138.31445 C 577.12227 138.31445 576.02188 138.31328 574.92188 139.11328 C 574.22188 139.81328 573.12148 140.91406 572.02148 142.41406 C 572.32148 141.61406 572.32227 140.91367 572.32227 140.51367 C 572.32227 139.81367 572.02109 139.11289 571.62109 138.71289 C 571.22109 138.31289 570.92109 138.01367 570.12109 138.01367 z M 645.32227 138.01367 C 644.62227 138.01367 643.82109 138.31289 643.12109 138.71289 C 642.42109 139.41289 641.62148 139.81406 640.52148 140.91406 L 641.62109 142.01367 C 642.42109 141.31367 642.72109 140.51367 643.12109 140.51367 C 643.52109 140.21367 643.82266 139.81445 644.22266 139.81445 C 644.62266 139.81445 644.62109 140.21289 644.62109 140.21289 C 644.92109 140.51289 644.92188 140.91445 644.92188 141.31445 C 644.92188 141.61445 644.92109 142.41367 644.62109 143.51367 L 642.42188 153.41406 L 644.92188 153.41406 L 646.42188 146.81445 C 646.82187 145.71445 647.12148 144.91289 647.52148 144.21289 C 647.52148 143.51289 648.22109 142.71367 648.62109 142.01367 C 649.32109 141.31367 649.72187 140.91367 650.42188 140.51367 C 650.82187 140.21367 651.22148 140.21289 651.52148 140.21289 C 652.32148 140.21289 652.62148 140.21367 653.02148 140.51367 C 653.02148 140.91367 653.42188 141.31367 653.42188 142.01367 L 653.42188 143.51367 C 653.02188 143.81367 653.02109 144.61445 652.62109 145.31445 L 650.82227 153.41406 L 653.72266 153.41406 L 655.22266 146.81445 C 655.22266 145.71445 655.62188 144.91289 655.92188 144.21289 C 656.32188 143.51289 656.72187 142.71367 657.42188 142.01367 C 657.82188 141.31367 658.52188 140.91367 658.92188 140.51367 C 659.22187 140.21367 660.02227 140.21289 660.32227 140.21289 C 660.72227 140.21289 661.12188 140.21367 661.42188 140.51367 C 661.82188 140.91367 661.82227 141.31367 661.82227 142.01367 L 661.82227 143.11328 C 661.82227 143.81328 661.42109 144.61445 661.12109 145.31445 L 660.72266 148.21289 C 660.32266 149.31289 660.02148 150.41289 660.02148 151.21289 C 660.02148 151.91289 660.32266 152.61367 660.72266 153.01367 C 661.12266 153.41367 661.42266 153.71289 662.22266 153.71289 C 663.32266 153.71289 664.02188 153.41367 664.42188 153.01367 C 665.12188 152.61367 665.82187 151.91445 666.92188 150.81445 L 665.82227 150.11328 C 665.52227 150.81328 664.72187 151.21367 664.42188 151.51367 C 664.02187 151.91367 663.62109 151.91406 663.62109 151.91406 C 663.32109 151.91406 662.92188 151.91367 662.92188 151.51367 C 662.52187 151.51367 662.52148 151.21445 662.52148 150.81445 C 662.52148 150.41445 662.92188 149.31289 662.92188 148.21289 L 664.02148 144.21289 C 664.42148 143.11289 664.42188 142.01445 664.42188 141.31445 C 664.42187 140.21445 664.42109 139.41328 663.62109 139.11328 C 663.32109 138.31328 662.52188 138.31445 661.42188 138.31445 C 660.72187 138.31445 659.62188 138.31328 658.92188 139.11328 C 657.82188 139.81328 657.02188 140.51367 655.92188 142.01367 L 655.92188 141.61328 C 655.92187 140.51328 655.92266 139.41328 655.22266 139.11328 C 654.82266 138.31328 654.12148 138.31445 653.02148 138.31445 C 651.92148 138.31445 651.22109 138.31328 650.12109 139.11328 C 649.02109 139.81328 648.22109 140.91406 647.12109 142.41406 C 647.12109 141.61406 647.52148 141.31367 647.52148 140.51367 C 647.52148 139.81367 647.12227 139.11289 646.82227 138.71289 C 646.42227 138.31289 646.02227 138.01367 645.32227 138.01367 z M 1089.0215 138.01367 C 1088.2215 138.01367 1087.5223 138.31289 1086.8223 138.71289 C 1086.0223 139.11289 1085.3211 139.81406 1084.6211 140.91406 L 1085.3223 142.01367 C 1086.0223 141.31367 1086.4223 140.51367 1086.8223 140.51367 C 1087.1223 140.21367 1087.5219 139.81445 1087.9219 139.81445 C 1088.2219 139.81445 1088.2211 140.21289 1088.6211 140.21289 L 1088.6211 141.31445 C 1088.6211 141.61445 1088.6227 142.41367 1088.2227 143.51367 L 1086.0215 153.41406 L 1089.0215 153.41406 L 1090.4219 146.81445 C 1090.4219 145.71445 1090.8227 144.91289 1091.2227 144.21289 C 1091.5227 143.51289 1091.9211 142.71367 1092.6211 142.01367 C 1093.0211 141.31367 1093.7211 140.91367 1094.1211 140.51367 C 1094.5211 140.21367 1095.2211 140.21289 1095.6211 140.21289 C 1095.9211 140.21289 1096.3227 140.21367 1096.7227 140.51367 C 1097.0227 140.91367 1097.0215 141.31367 1097.0215 142.01367 L 1097.0215 143.11328 C 1097.0215 143.81328 1096.7223 144.61445 1096.3223 145.31445 L 1095.9219 148.21289 C 1095.6219 149.31289 1095.2227 150.41289 1095.2227 151.21289 C 1095.2227 151.91289 1095.6219 152.61367 1095.9219 153.01367 C 1096.3219 153.41367 1096.7219 153.71289 1097.4219 153.71289 C 1098.5219 153.71289 1099.2215 153.41367 1100.0215 153.01367 C 1100.3215 152.61367 1101.4227 151.91445 1102.2227 150.81445 L 1101.4219 150.11328 C 1100.7219 150.81328 1100.0211 151.21367 1099.6211 151.51367 C 1099.3544 151.78034 1099.1219 151.91406 1098.9219 151.91406 C 1098.5219 151.91406 1098.1211 151.91367 1098.1211 151.51367 C 1098.1211 151.51367 1097.8223 151.21445 1097.8223 150.81445 C 1097.8223 150.41445 1098.1215 149.31289 1098.5215 148.21289 L 1099.2227 144.21289 C 1099.6227 143.11289 1100.0215 142.01445 1100.0215 141.31445 C 1100.0215 140.21445 1099.6219 139.41328 1098.9219 139.11328 C 1098.5219 138.31328 1097.8227 138.31445 1096.7227 138.31445 C 1095.9227 138.31445 1094.8227 138.31328 1093.7227 139.11328 C 1093.0227 139.81328 1091.9223 140.91406 1090.8223 142.41406 C 1091.2223 141.61406 1091.2227 140.91367 1091.2227 140.51367 C 1091.2227 139.81367 1090.8219 139.11289 1090.4219 138.71289 C 1090.1219 138.31289 1089.7215 138.01367 1089.0215 138.01367 z M 457.62109 138.31445 C 456.52109 138.31445 455.42227 138.71445 454.32227 139.81445 C 453.52227 140.51445 452.82187 141.61289 452.42188 142.71289 L 453.52148 143.51367 C 453.92148 142.41367 454.32148 142.01445 455.02148 141.31445 C 455.72148 140.91445 456.12266 140.51367 457.22266 140.51367 C 457.92266 140.51367 459.42188 141.31406 460.92188 142.41406 C 462.72188 143.51406 464.22109 143.81445 465.62109 143.81445 C 467.12109 143.81445 468.22227 143.51406 469.32227 142.41406 C 470.02227 141.61406 470.82109 140.51445 471.12109 139.81445 L 470.02148 138.71289 C 469.32148 139.81289 468.92266 140.51406 468.22266 140.91406 C 467.52266 141.61406 466.72148 141.61328 466.02148 141.61328 C 464.92148 141.61328 463.82148 141.31289 462.02148 140.21289 C 460.12148 139.11289 458.72109 138.31445 457.62109 138.31445 z M 507.42188 138.31445 C 506.02187 138.31445 504.92227 138.31328 503.82227 139.11328 C 502.72227 139.41328 501.92227 140.21445 500.82227 141.31445 C 500.12227 142.41445 499.72148 143.51406 499.02148 144.91406 C 498.62148 146.01406 498.62109 147.51328 498.62109 148.61328 C 498.62109 150.11328 499.02266 151.51445 499.72266 152.31445 C 500.52266 153.41445 501.62148 153.71289 503.02148 153.71289 C 504.12148 153.71289 505.22227 153.41367 506.32227 153.01367 C 507.42227 152.61367 508.52227 151.51406 509.32227 150.41406 L 508.52148 149.71289 C 507.42148 150.41289 506.72227 151.21367 506.32227 151.51367 C 505.62227 151.51367 504.52227 151.91406 503.82227 151.91406 C 503.02227 151.91406 502.32187 151.51289 501.92188 151.21289 C 501.62187 150.41289 501.22266 149.71328 501.22266 148.61328 C 501.22266 147.11328 501.62187 145.71289 501.92188 144.21289 C 502.72187 142.71289 503.02109 141.61367 504.12109 140.51367 C 504.92109 139.81367 506.02109 139.41406 507.12109 139.41406 C 507.42109 139.41406 507.82227 139.41445 507.82227 139.81445 C 508.22227 139.81445 508.52148 140.21367 508.52148 140.51367 L 508.52148 142.41406 L 510.42188 142.41406 L 511.12109 138.71289 C 510.02109 138.31289 508.52188 138.31445 507.42188 138.31445 z M 44.722656 139.81445 L 44.722656 142.01367 L 64.121094 142.01367 L 64.121094 139.81445 L 44.722656 139.81445 z M 609.02148 139.81445 L 609.02148 142.01367 L 628.42188 142.01367 L 628.42188 139.81445 L 609.02148 139.81445 z M 269.82227 140.21289 L 269.82227 141.31445 L 270.92188 141.31445 L 270.92188 142.01367 L 270.92188 142.41406 L 270.92188 143.51367 C 270.92188 144.21367 270.62109 144.61406 270.62109 144.91406 C 270.62109 145.71406 270.22266 146.01406 270.22266 146.41406 C 270.22266 147.11406 269.82227 147.51406 269.82227 147.91406 L 269.82227 149.31445 C 269.52227 149.71445 269.52148 150.11328 269.52148 150.11328 C 269.52148 150.41328 269.52227 150.81289 269.82227 151.21289 C 269.82227 151.21289 269.82266 151.51406 270.22266 151.91406 C 270.22266 151.91406 270.62109 151.91445 270.62109 152.31445 L 271.72266 152.31445 L 272.42188 152.31445 C 272.82188 152.31445 273.12109 151.91406 273.12109 151.91406 C 273.52109 151.51406 273.92266 151.51289 274.22266 151.21289 L 275.32227 150.11328 L 274.62109 149.31445 C 274.35443 149.58112 274.12188 149.84661 273.92188 150.11328 L 273.52148 150.41406 C 273.12148 150.41406 273.12227 150.81445 272.82227 150.81445 L 272.42188 150.81445 C 272.42188 150.81445 272.02148 150.81406 272.02148 150.41406 L 271.72266 150.11328 C 271.72266 149.71328 271.72148 149.31445 272.02148 149.31445 L 272.02148 148.21289 L 273.92188 140.21289 L 273.12109 140.21289 L 269.82227 140.21289 z M 772.52148 143.11328 L 772.52148 145.31445 L 792.02148 145.31445 L 792.02148 143.11328 L 772.52148 143.11328 z M 873.42188 143.11328 L 873.42188 145.31445 L 892.42188 145.31445 L 892.42188 143.11328 L 873.42188 143.11328 z M 948.22266 143.11328 L 948.22266 145.31445 L 967.62109 145.31445 L 967.62109 143.11328 L 948.22266 143.11328 z M 1112.1211 143.11328 L 1112.1211 145.31445 L 1131.1211 145.31445 L 1131.1211 143.11328 L 1112.1211 143.11328 z M 277.52148 144.21289 L 277.52148 146.01367 L 291.12109 146.01367 L 291.12109 144.21289 L 277.52148 144.21289 z M 801.12109 144.21289 L 801.12109 145.31445 L 829.42188 145.31445 L 829.42188 144.21289 L 801.12109 144.21289 z M 978.22266 144.21289 L 978.22266 145.31445 L 1006.5215 145.31445 L 1006.5215 144.21289 L 978.22266 144.21289 z M 457.62109 144.61328 C 456.52109 144.61328 455.42227 144.91367 454.32227 146.01367 C 453.52227 146.81367 452.82187 147.91367 452.42188 149.01367 L 453.52148 149.71289 C 453.92148 149.01289 454.32148 148.21367 455.02148 147.51367 C 455.72148 147.11367 456.12266 146.81445 457.22266 146.81445 C 457.92266 146.81445 459.42188 147.51328 460.92188 148.61328 C 462.72188 149.71328 464.22109 150.11328 465.62109 150.11328 C 467.12109 150.11328 468.22227 149.71328 469.32227 148.61328 C 470.02227 147.91328 470.82109 146.81367 471.12109 146.01367 L 470.02148 144.91406 C 469.32148 146.01406 468.92266 146.81328 468.22266 147.11328 C 467.52266 147.91328 466.72148 147.91406 466.02148 147.91406 C 464.92148 147.91406 463.82148 147.51406 462.02148 146.41406 C 460.12148 145.31406 458.72109 144.61328 457.62109 144.61328 z M 44.722656 146.41406 L 44.722656 148.61328 L 64.121094 148.61328 L 64.121094 146.41406 L 44.722656 146.41406 z M 609.02148 146.41406 L 609.02148 148.61328 L 628.42188 148.61328 L 628.42188 146.41406 L 609.02148 146.41406 z M 410.62109 147.91406 C 409.52109 147.91406 408.82266 148.21328 407.72266 148.61328 C 407.02266 149.01328 406.22148 149.71406 405.52148 150.41406 C 405.12148 151.51406 404.42148 152.61328 404.02148 154.11328 C 404.02148 155.61328 403.72266 157.01289 403.72266 159.21289 C 403.72266 162.51289 404.42148 165.51445 405.52148 167.31445 C 406.62148 169.11445 408.12227 169.91406 410.32227 169.91406 C 412.82227 169.91406 414.32227 168.81406 415.82227 166.91406 C 416.92227 165.11406 417.62109 162.21367 417.62109 158.51367 C 417.62109 154.81367 416.92227 152.31406 415.82227 150.41406 C 414.72227 148.61406 412.82109 147.91406 410.62109 147.91406 z M 20.121094 148.21289 C 20.121094 148.21289 19.821875 148.61328 19.421875 148.61328 C 19.021875 149.01328 18.722266 149.01445 18.322266 149.31445 C 18.322266 149.71445 17.922656 150.11406 17.222656 150.41406 L 18.322266 151.21289 C 18.322266 150.81289 18.722656 150.81406 18.722656 150.41406 C 19.022656 150.41406 19.021875 150.11328 19.421875 150.11328 C 19.421875 150.11328 19.822266 150.11289 19.822266 149.71289 L 20.121094 149.71289 C 20.921094 149.71289 20.921875 150.11406 20.921875 150.41406 L 20.921875 151.51367 C 20.921875 151.91367 20.921484 152.31328 20.521484 152.61328 L 19.021484 160.31445 L 21.222656 160.31445 L 22.322266 154.11328 C 22.588932 153.84661 22.722656 153.61406 22.722656 153.41406 C 23.122656 153.01406 23.121875 152.61445 23.421875 152.31445 C 23.821875 151.91445 23.822656 151.51289 24.222656 151.21289 C 24.422656 150.94622 24.655208 150.68073 24.921875 150.41406 C 25.321875 150.11406 25.621094 150.11328 25.621094 150.11328 C 26.021094 149.71328 26.422656 149.71289 26.722656 149.71289 C 26.989323 149.71289 27.254818 149.84661 27.521484 150.11328 C 27.521484 150.41328 27.822266 150.81289 27.822266 151.21289 L 27.822266 151.91406 C 27.522266 152.31406 27.521484 152.61367 27.521484 153.01367 C 27.521484 153.41367 27.121094 153.71367 27.121094 154.51367 C 27.121094 154.81367 26.722656 155.21406 26.722656 155.91406 C 26.722656 156.31406 26.421875 156.71367 26.421875 157.01367 L 26.421875 158.11328 L 26.421875 159.21289 C 26.721875 159.21289 26.722656 159.61367 26.722656 160.01367 C 27.122656 160.01367 27.121484 160.31445 27.521484 160.31445 L 28.222656 160.31445 L 29.322266 160.31445 C 29.722266 160.31445 29.721484 160.01367 30.021484 160.01367 C 30.421484 159.61367 30.821094 159.61289 31.121094 159.21289 C 31.521094 158.91289 31.922656 158.51328 32.222656 158.11328 L 31.121094 157.41406 C 31.121094 157.81406 30.822266 157.81328 30.822266 158.11328 C 30.422266 158.11328 30.421484 158.51367 30.021484 158.51367 C 30.021484 158.51367 30.022656 158.91406 29.722656 158.91406 L 29.322266 158.91406 C 29.055599 158.91406 28.821094 158.78034 28.621094 158.51367 L 28.621094 158.11328 L 28.621094 157.41406 C 28.621094 157.01406 28.921875 156.71445 28.921875 156.31445 C 28.921875 155.91445 29.322266 155.21445 29.322266 154.81445 C 29.322266 154.11445 29.722656 153.71367 29.722656 153.01367 C 29.722656 152.61367 30.021484 152.31406 30.021484 151.91406 L 30.021484 150.81445 C 30.021484 150.11445 29.722266 149.31367 29.322266 149.01367 C 28.922266 148.21367 28.221484 148.21289 27.521484 148.21289 C 26.721484 148.21289 26.022266 148.21367 25.322266 149.01367 C 24.522266 149.31367 23.821094 150.11289 23.121094 151.21289 L 22.722656 151.21289 C 23.122656 151.21289 23.121094 150.81445 23.121094 150.81445 L 23.121094 150.11328 C 23.121094 149.71328 22.722656 149.01328 22.722656 148.61328 C 22.322656 148.21328 21.622656 148.21289 21.222656 148.21289 L 20.121094 148.21289 z M 410.62109 149.31445 C 411.42109 149.31445 412.12148 149.71328 412.52148 150.11328 C 413.22148 150.81328 413.62187 151.91406 413.92188 153.41406 C 414.32187 154.81406 414.32227 157.01289 414.32227 159.21289 C 414.32227 162.51289 413.92109 164.71289 413.62109 166.21289 C 412.82109 167.71289 412.12109 168.41406 410.62109 168.41406 C 409.22109 168.41406 408.42266 167.71289 407.72266 166.21289 C 407.02266 164.41289 406.62109 162.21367 406.62109 158.51367 C 406.62109 157.01367 407.02148 155.91445 407.02148 154.81445 C 407.02148 153.41445 407.32266 152.61367 407.72266 151.51367 C 407.72266 150.81367 408.42227 150.41289 408.82227 149.71289 C 409.22227 149.31289 409.92109 149.31445 410.62109 149.31445 z M 555.12109 149.71289 C 555.52109 150.41289 555.52148 151.51445 555.52148 152.31445 C 555.52148 153.01445 555.52109 153.71328 555.12109 154.11328 C 555.12109 154.51328 555.12266 155.21328 554.72266 155.61328 C 554.42266 155.91328 554.02109 156.31367 553.62109 157.01367 L 554.42188 157.81445 C 555.52188 157.01445 556.22109 156.31406 556.62109 155.91406 C 557.32109 155.21406 557.72148 154.51328 558.02148 154.11328 C 558.02148 153.41328 558.42188 152.61406 558.42188 151.91406 C 558.42188 151.21406 558.02148 150.41289 558.02148 149.71289 L 555.12109 149.71289 z M 370.72266 150.81445 L 370.72266 153.01367 L 387.52148 160.31445 L 370.72266 167.71289 L 370.72266 170.21289 L 389.72266 161.41406 L 389.72266 159.21289 L 370.72266 150.81445 z M 345.02148 154.51367 C 344.32148 154.51367 343.52227 154.51445 342.82227 154.81445 C 342.12227 155.21445 341.32266 155.91367 340.22266 157.01367 L 341.32227 158.11328 C 342.12227 157.41328 342.42227 156.71289 342.82227 156.71289 C 343.22227 156.31289 343.52188 155.91406 343.92188 155.91406 L 344.32227 156.31445 C 344.62227 156.71445 344.62109 157.01406 344.62109 157.41406 C 344.62109 157.81406 344.62227 158.51328 344.32227 159.61328 L 342.12109 169.51367 L 344.62109 169.51367 L 346.12109 162.91406 C 346.52109 161.81406 346.82266 161.11445 347.22266 160.31445 C 347.62266 159.61445 347.92227 158.91328 348.32227 158.11328 C 349.02227 157.41328 349.42109 157.01289 350.12109 156.71289 C 350.52109 156.31289 350.92109 156.31445 351.62109 156.31445 C 352.02109 156.31445 352.32266 156.31289 352.72266 156.71289 C 353.12266 157.01289 353.12109 157.41328 353.12109 158.11328 L 353.12109 159.21289 C 352.72109 160.01289 352.72227 160.71406 352.32227 161.41406 L 351.62109 164.41406 C 351.22109 165.51406 351.22266 166.61445 351.22266 167.31445 C 351.22266 168.01445 351.22148 168.81328 352.02148 169.11328 C 352.32148 169.51328 352.72188 169.91406 353.42188 169.91406 C 354.22187 169.91406 354.92109 169.51328 355.62109 169.11328 C 356.42109 168.81328 357.12266 168.01406 358.22266 166.91406 L 357.12109 166.21289 L 355.62109 167.71289 C 355.32109 168.01289 354.92148 168.01367 354.52148 168.01367 C 354.52148 168.01367 354.22266 168.01289 354.22266 167.71289 C 353.82266 167.71289 353.82227 167.31406 353.82227 166.91406 C 353.82227 166.61406 353.82266 165.51406 354.22266 164.41406 L 355.32227 160.31445 C 355.62227 159.21445 355.62109 158.11406 355.62109 157.41406 C 355.62109 156.71406 355.62187 155.61289 354.92188 155.21289 C 354.52188 154.51289 353.82266 154.51367 352.72266 154.51367 C 351.62266 154.51367 350.92227 154.81289 349.82227 155.21289 C 349.02227 155.91289 347.92227 157.01367 346.82227 158.51367 C 346.82227 157.81367 347.22266 157.01289 347.22266 156.71289 C 347.22266 155.91289 346.82148 155.21445 346.52148 154.81445 C 346.12148 154.51445 345.72148 154.51367 345.02148 154.51367 z M 806.32227 159.61328 C 805.22227 159.61328 804.42109 160.01445 804.12109 160.31445 C 803.32109 160.71445 802.62148 161.41367 801.52148 162.51367 L 802.62109 163.31445 C 803.02109 162.51445 803.72109 162.21445 804.12109 161.81445 C 804.42109 161.81445 804.82227 161.41406 804.82227 161.41406 C 805.22227 161.41406 805.52148 161.41445 805.52148 161.81445 C 805.92148 161.81445 805.92188 162.21367 805.92188 162.51367 C 805.92188 163.31367 805.52148 164.01328 805.52148 165.11328 L 803.32227 175.01367 L 805.92188 175.01367 L 807.42188 168.01367 C 807.72188 167.31367 807.72109 166.61445 808.12109 165.81445 C 808.52109 165.11445 808.82109 164.41328 809.62109 163.61328 L 811.02148 162.21289 C 811.82148 161.81289 812.12148 161.41406 812.52148 161.41406 C 813.22148 161.41406 813.62148 161.81289 814.02148 162.21289 C 814.02148 162.21289 814.32227 162.91328 814.32227 163.61328 C 814.32227 164.01328 814.32148 164.41289 814.02148 164.71289 C 814.02148 165.51289 814.02109 166.21406 813.62109 166.91406 L 811.82227 175.01367 L 814.72266 175.01367 L 815.82227 168.01367 C 816.22227 167.31367 816.52188 166.21367 816.92188 165.51367 C 817.32188 165.11367 817.62148 164.41328 818.02148 163.61328 C 818.72148 162.91328 819.12227 162.51289 819.82227 162.21289 C 820.22227 161.81289 820.62227 161.41406 821.32227 161.41406 C 821.72227 161.41406 822.02188 161.81289 822.42188 162.21289 C 822.82188 162.21289 822.82227 162.91328 822.82227 163.61328 L 822.82227 164.71289 C 822.42227 165.11289 822.42148 165.81406 822.02148 166.91406 L 821.32227 169.51367 C 820.92227 171.01367 820.92188 172.11445 820.92188 172.81445 C 820.92187 173.51445 820.92266 173.91328 821.72266 174.61328 C 822.02266 175.01328 822.42109 175.41406 823.12109 175.41406 C 823.92109 175.41406 824.62227 175.01328 825.32227 174.61328 C 826.12227 174.31328 826.82187 173.51406 827.92188 172.41406 L 826.82227 171.71289 L 825.32227 173.21289 C 825.02227 173.21289 824.62266 173.51367 824.22266 173.51367 C 824.22266 173.51367 823.92188 173.51289 823.92188 173.21289 C 823.65521 172.94622 823.52148 172.68073 823.52148 172.41406 C 823.52148 171.71406 823.52188 171.01406 823.92188 169.91406 L 825.02148 165.81445 C 825.32148 164.41445 825.32227 163.61406 825.32227 162.91406 C 825.32227 161.81406 825.32109 161.11289 824.62109 160.71289 C 824.22109 160.01289 823.52188 159.61328 822.42188 159.61328 C 821.32187 159.61328 820.62148 160.01289 819.52148 160.71289 C 818.72148 161.41289 818.02188 162.21328 816.92188 163.61328 L 816.92188 162.91406 C 816.92188 161.81406 816.52266 161.11289 816.22266 160.71289 C 815.82266 160.01289 814.72148 159.61328 814.02148 159.61328 C 812.92148 159.61328 811.82148 160.01289 811.02148 160.71289 C 809.92148 161.41289 809.22109 162.51367 808.12109 164.01367 L 807.72266 164.01367 C 808.12266 163.31367 808.12109 162.51289 808.12109 162.21289 C 808.12109 161.41289 808.12266 160.71445 807.72266 160.31445 C 807.42266 160.01445 806.62227 159.61328 806.32227 159.61328 z M 983.02148 159.61328 C 982.32148 159.61328 981.52227 160.01445 980.82227 160.31445 C 980.12227 160.71445 979.32109 161.41367 978.62109 162.51367 L 979.32227 163.31445 L 980.82227 161.81445 C 981.22227 161.81445 981.52188 161.41406 981.92188 161.41406 C 982.32187 161.41406 982.62109 161.41445 982.62109 161.81445 L 982.62109 162.51367 C 982.62109 163.31367 982.62227 164.01328 982.32227 165.11328 L 980.12109 175.01367 L 983.02148 175.01367 L 984.52148 168.01367 C 984.52148 167.31367 984.82266 166.61445 985.22266 165.81445 C 985.62266 165.11445 985.92266 164.41328 986.72266 163.61328 C 987.02266 162.91328 987.82109 162.51289 988.12109 162.21289 C 988.52109 161.81289 989.22109 161.41406 989.62109 161.41406 C 990.02109 161.41406 990.32266 161.81289 990.72266 162.21289 C 991.12266 162.21289 991.12109 162.91328 991.12109 163.61328 L 991.12109 164.71289 C 991.12109 165.51289 990.72266 166.21406 990.72266 166.91406 L 988.92188 175.01367 L 991.42188 175.01367 L 992.92188 168.01367 C 993.32188 167.31367 993.32109 166.21367 993.62109 165.51367 C 994.02109 165.11367 994.72109 164.41328 995.12109 163.61328 C 995.82109 162.91328 996.22109 162.51289 996.62109 162.21289 C 997.32109 161.81289 997.72148 161.41406 998.02148 161.41406 C 998.82148 161.41406 999.12148 161.81289 999.52148 162.21289 L 999.52148 163.61328 L 999.52148 164.71289 C 999.52148 165.11289 999.52109 165.81406 999.12109 166.91406 L 998.42188 169.51367 C 998.02188 171.01367 998.02148 172.11445 998.02148 172.81445 C 998.02148 173.51445 998.02188 173.91328 998.42188 174.61328 C 998.82188 175.01328 999.52266 175.41406 1000.2227 175.41406 C 1001.0227 175.41406 1001.7219 175.01328 1002.4219 174.61328 C 1003.2219 174.31328 1003.9211 173.51406 1004.6211 172.41406 L 1003.9219 171.71289 L 1002.4219 173.21289 C 1002.1219 173.21289 1001.7223 173.51367 1001.3223 173.51367 C 1001.1223 173.51367 1000.8878 173.41289 1000.6211 173.21289 L 1000.6211 172.41406 C 1000.6211 171.71406 1000.6215 171.01406 1001.0215 169.91406 L 1002.1211 165.81445 C 1002.1211 164.41445 1002.4219 163.61406 1002.4219 162.91406 C 1002.4219 161.81406 1002.1227 161.11289 1001.7227 160.71289 C 1001.0227 160.01289 1000.2215 159.61328 999.52148 159.61328 C 998.42148 159.61328 997.72109 160.01289 996.62109 160.71289 C 995.82109 161.41289 994.72148 162.21328 994.02148 163.61328 L 994.02148 162.91406 C 994.02148 161.81406 993.62227 161.11289 993.32227 160.71289 C 992.52227 160.01289 991.82266 159.61328 990.72266 159.61328 C 990.02266 159.61328 988.92227 160.01289 987.82227 160.71289 C 987.02227 161.41289 985.92266 162.51367 985.22266 164.01367 L 984.82227 164.01367 C 985.22227 163.31367 985.22266 162.51289 985.22266 162.21289 C 985.22266 161.41289 985.22227 160.71445 984.82227 160.31445 C 984.52227 160.01445 983.72148 159.61328 983.02148 159.61328 z M 145.52148 160.31445 L 145.52148 161.41406 L 308.02148 161.41406 L 308.02148 160.31445 L 145.52148 160.31445 z M 217.42188 175.71289 C 216.72187 175.71289 215.92109 176.11367 215.62109 176.51367 C 214.82109 176.81367 214.12148 177.61289 213.02148 178.71289 L 213.72266 179.41406 C 214.52266 178.71406 215.22109 178.31406 215.62109 177.91406 C 215.92109 177.91406 215.92227 177.61328 216.32227 177.61328 C 216.72227 177.61328 217.02148 177.61406 217.02148 177.91406 C 217.02148 177.91406 217.42188 178.31289 217.42188 178.71289 C 217.42188 179.41289 217.02148 180.11289 217.02148 181.21289 L 214.52148 191.11328 L 217.42188 191.11328 L 218.92188 184.21289 C 219.22188 183.41289 219.22109 182.71367 219.62109 182.01367 C 220.02109 181.21367 220.32109 180.51445 221.12109 179.81445 C 221.42109 179.01445 222.22148 178.71445 222.52148 178.31445 C 223.32148 177.91445 223.62148 177.61328 224.02148 177.61328 C 224.72148 177.61328 225.12109 177.91445 225.12109 178.31445 C 225.52109 178.31445 225.52148 179.01445 225.52148 179.81445 L 225.52148 180.91406 C 225.52148 181.61406 225.52109 182.31328 225.12109 183.11328 L 223.32227 191.11328 L 225.82227 191.11328 L 227.32227 184.21289 C 227.72227 183.41289 228.02187 182.31367 228.42188 182.01367 C 228.82187 181.21367 229.12148 180.51445 229.52148 179.81445 C 230.22148 179.01445 230.62227 178.71445 231.32227 178.31445 C 231.72227 177.91445 232.12227 177.61328 232.82227 177.61328 C 233.22227 177.61328 233.52187 177.91445 233.92188 178.31445 C 233.92188 178.31445 234.32227 179.01445 234.32227 179.81445 C 234.32227 180.11445 234.32188 180.51406 233.92188 180.91406 C 233.92188 181.21406 233.92148 182.01328 233.52148 183.11328 L 232.82227 185.61328 C 232.42227 187.11328 232.42188 188.21406 232.42188 188.91406 C 232.42187 189.71406 232.42227 190.01445 232.82227 190.81445 C 233.52227 191.11445 233.92109 191.51367 234.62109 191.51367 C 235.42109 191.51367 236.12227 191.11445 236.82227 190.81445 C 237.62227 190.41445 238.32188 189.71328 239.42188 188.61328 L 238.32227 187.81445 C 237.62227 188.61445 237.22227 188.91445 236.82227 189.31445 C 236.52227 189.31445 236.12266 189.71289 235.72266 189.71289 C 235.52266 189.71289 235.28815 189.58112 235.02148 189.31445 L 235.02148 188.61328 C 235.02148 187.81328 235.02187 187.11367 235.42188 186.01367 L 236.52148 182.01367 C 236.82148 180.51367 236.82227 179.81367 236.82227 179.01367 C 236.82227 177.91367 236.52109 177.21445 236.12109 176.81445 C 235.72109 176.11445 235.02187 175.71289 233.92188 175.71289 C 232.82188 175.71289 232.12148 176.11445 231.02148 176.81445 C 230.22148 177.61445 229.12187 178.31445 228.42188 179.81445 L 228.42188 179.01367 C 228.42188 177.91367 228.02266 177.21445 227.72266 176.81445 C 226.92266 176.11445 226.22148 175.71289 225.52148 175.71289 C 224.42148 175.71289 223.32148 176.11445 222.52148 176.81445 C 221.42148 177.61445 220.32109 178.71328 219.62109 180.11328 L 219.22266 180.11328 C 219.62266 179.41328 219.62109 178.71445 219.62109 178.31445 C 219.62109 177.61445 219.62266 176.81367 219.22266 176.51367 C 218.92266 176.11367 218.12187 175.71289 217.42188 175.71289 z M 103.72266 194.81445 L 103.02148 197.01367 L 105.62109 197.01367 L 105.92188 194.81445 L 103.72266 194.81445 z M 133.42188 196.31445 C 132.32188 196.61445 131.62148 197.01289 130.52148 197.71289 C 129.42148 198.11289 128.72109 198.81289 127.62109 199.21289 C 127.62109 199.61289 127.92188 199.61406 127.92188 199.91406 C 127.92188 199.91406 127.92227 200.31445 128.32227 200.31445 C 129.02227 199.91445 129.42109 199.61289 130.12109 199.21289 C 130.52109 199.21289 130.92266 198.81445 131.22266 198.81445 C 131.22266 198.81445 131.62109 198.81289 131.62109 199.21289 L 132.02148 199.61328 L 132.02148 208.41406 L 132.02148 208.71289 C 131.75482 208.97956 131.62109 209.24701 131.62109 209.51367 L 131.62109 209.81445 L 131.22266 209.81445 C 131.22266 209.81445 130.92188 209.81289 130.92188 210.21289 L 130.12109 210.21289 L 129.42188 210.21289 L 128.32227 210.21289 L 128.32227 211.31445 L 137.52148 211.31445 L 137.52148 210.21289 L 136.42188 210.21289 L 135.62109 210.21289 L 134.92188 210.21289 C 134.92187 209.81289 134.52148 209.81445 134.52148 209.81445 L 134.22266 209.51367 L 134.22266 208.71289 L 134.22266 208.41406 L 134.22266 199.21289 L 134.22266 198.11328 L 134.22266 197.41406 L 134.22266 196.31445 L 133.42188 196.31445 z M 104.52148 199.21289 L 100.82227 199.61328 L 100.82227 200.31445 C 101.22227 200.31445 101.52187 200.31289 101.92188 200.71289 C 101.92188 200.71289 102.32227 201.01406 102.32227 201.41406 C 102.32227 201.81406 101.92188 202.51406 101.92188 202.91406 C 101.92187 203.21406 101.92148 203.61445 101.52148 204.31445 C 101.52148 204.71445 101.52266 205.11445 101.22266 205.81445 C 101.22266 206.21445 101.22227 206.51445 100.82227 207.31445 L 100.82227 208.41406 L 100.82227 209.51367 L 100.82227 210.21289 C 100.82227 210.61289 101.22266 210.61406 101.22266 210.91406 C 101.22266 211.31406 101.52187 211.31445 101.92188 211.31445 C 101.92188 211.71445 102.32109 211.71289 102.62109 211.71289 C 103.02109 211.71289 103.42188 211.71445 103.42188 211.31445 C 103.72187 211.31445 104.12148 211.31406 104.52148 210.91406 C 104.82148 210.91406 104.82266 210.61289 105.22266 210.21289 C 105.62266 210.21289 105.92227 209.81328 106.32227 209.11328 L 105.62109 208.41406 C 105.62109 208.71406 105.22227 209.11328 104.82227 209.11328 C 104.82227 209.51328 104.52148 209.51367 104.52148 209.51367 C 104.52148 209.81367 104.12109 209.81445 104.12109 209.81445 L 103.72266 209.81445 L 103.02148 209.81445 L 103.02148 209.11328 L 103.02148 208.41406 L 103.02148 207.31445 L 104.82227 199.21289 L 104.52148 199.21289 z M 110.02148 201.01367 L 110.02148 202.91406 L 123.52148 202.91406 L 123.52148 201.01367 L 110.02148 201.01367 z M 110.02148 206.21289 L 110.02148 208.01367 L 123.52148 208.01367 L 123.52148 206.21289 L 110.02148 206.21289 z "
     id="path121" />
  <defs
     id="defs229">
    <path
       d="m 1042,-11 c 0,0 -48,0 -77,34 0,0 -30,34 -30,88 0,0 0,49 25,143 l 33,129 c 0,0 18,70 23,103 0,0 6,34 6,55 0,0 0,51 -17,74 0,0 -17,23 -56,23 0,0 -31,0 -67,-24 0,0 -36,-23 -76,-73 0,0 -39,-49 -64,-98 0,0 -25,-48 -40,-117 L 634,0 H 505 l 86,379 c 0,0 15,69 21,103 0,0 6,33 6,57 0,0 0,53 -19,76 0,0 -19,23 -60,23 0,0 -28,0 -64,-24 0,0 -36,-23 -77,-75 0,0 -41,-52 -65,-100 0,0 -23,-47 -38,-116 L 224,0 H 95 l 109,473 c 0,0 16,72 16,110 0,0 0,30 -10,44 0,0 -9,13 -30,13 0,0 -23,0 -49,-19 0,0 -26,-19 -71,-69 l -42,42 c 0,0 66,68 113,100 0,0 47,32 104,32 0,0 47,0 74,-31 0,0 27,-31 27,-81 0,0 0,-41 -17,-87 l 9,-3 c 0,0 69,102 137,151 0,0 68,50 137,50 0,0 72,0 109,-41 0,0 37,-40 37,-117 v -10 c 0,0 0,-6 -1,-12 0,0 65,91 128,136 0,0 64,44 133,44 0,0 68,0 106,-39 0,0 37,-40 37,-112 0,0 0,-47 -22,-133 l -48,-196 c 0,0 -20,-81 -20,-114 0,0 0,-30 9,-44 0,0 10,-13 31,-13 0,0 22,0 48,18 0,0 25,18 71,70 l 43,-42 c 0,0 -64,-68 -112,-100 0,0 -48,-31 -109,-31 z"
       transform="scale(0.001,-0.001)"
       id="f0_1fu" />
    <path
       d="m 137,-195 c 0,0 70,102 70,195 H 142 V 163 H 287 V 38 c 0,0 0,-78 -14,-131 0,0 -14,-53 -44,-102 z"
       transform="scale(0.001,-0.001)"
       id="f1_g" />
    <path
       d="m 638,-11 c 0,0 -49,0 -78,34 0,0 -29,34 -29,88 0,0 0,49 25,143 l 33,129 c 0,0 17,70 23,103 0,0 6,34 6,55 0,0 0,51 -17,74 0,0 -18,23 -56,23 0,0 -32,0 -68,-25 0,0 -36,-25 -77,-76 0,0 -40,-50 -65,-97 0,0 -25,-48 -40,-117 L 224,0 H 95 l 109,473 c 0,0 16,72 16,110 0,0 0,30 -10,44 0,0 -9,13 -30,13 0,0 -23,0 -49,-19 0,0 -26,-19 -71,-69 l -42,42 c 0,0 69,71 114,102 0,0 46,30 103,30 0,0 47,0 74,-31 0,0 27,-31 27,-81 0,0 0,-40 -17,-88 l 8,-3 c 0,0 74,103 140,152 0,0 66,50 136,50 0,0 69,0 106,-40 0,0 38,-40 38,-111 0,0 0,-47 -22,-133 L 677,245 c 0,0 -21,-81 -21,-114 0,0 0,-30 10,-44 0,0 10,-13 31,-13 0,0 22,0 47,18 0,0 26,18 72,70 l 43,-42 c 0,0 -65,-69 -112,-100 0,0 -48,-31 -109,-31 z"
       transform="scale(0.001,-0.001)"
       id="f0_1fv" />
    <path
       d="m 524,0 c 0,0 -73,0 -127,9 0,0 -54,9 -97,29 0,0 -43,20 -82,61 0,0 -38,41 -62,90 0,0 -24,49 -36,111 0,0 -12,62 -12,134 0,0 0,118 23,195 0,0 23,77 78,138 0,0 54,60 130,86 0,0 77,26 197,26 H 842 V 775 H 536 c 0,0 -74,0 -120,-8 0,0 -46,-8 -77,-27 0,0 -30,-18 -55,-51 0,0 -25,-34 -39,-83 0,0 -14,-49 -18,-111 H 842 V 392 H 226 c 0,0 4,-70 20,-123 0,0 17,-54 50,-92 0,0 33,-37 86,-55 0,0 52,-18 145,-18 H 842 V 0 z"
       transform="scale(0.001,-0.001)"
       id="f0_15d" />
    <path
       d="m 847,66 v 75 L 376,953 H 257 V 909 L 747,66 z M 87,0 v 37 c 0,0 47,11 62,26 0,0 16,15 21,41 0,0 5,27 5,82 v 646 c 0,0 0,51 -4,75 0,0 -4,23 -12,36 0,0 -9,13 -23,21 0,0 -14,8 -49,18 v 36 H 433 L 693,568 c 0,0 22,-39 63,-114 0,0 40,-76 71,-143 h 12 c 0,0 -8,178 -8,389 v 132 c 0,0 0,56 -3,77 0,0 -4,21 -10,34 0,0 -7,12 -21,20 0,0 -13,9 -50,19 v 36 h 270 v -36 c 0,0 -34,-9 -48,-17 0,0 -13,-7 -22,-19 0,0 -9,-12 -13,-36 0,0 -4,-24 -4,-78 V 0 H 692 L 372,548 c 0,0 -65,113 -100,185 h -6 c 0,0 7,-160 7,-338 V 186 c 0,0 0,-60 6,-86 0,0 5,-25 22,-39 0,0 17,-13 59,-24 V 0 z"
       transform="scale(0.001,-0.001)"
       id="f0_110" />
    <path
       d="M 39,0 424,881 H 537 L 861,0 H 733 L 474,742 160,0 z"
       transform="scale(0.001,-0.001)"
       id="f0_161" />
    <path
       d="m 424,96 c 0,0 119,0 174,106 0,0 55,106 55,325 0,0 0,227 -52,329 0,0 -53,102 -174,102 0,0 -123,0 -177,-100 0,0 -55,-101 -55,-331 0,0 0,-224 55,-328 0,0 55,-103 174,-103 z m -1,-110 c 0,0 -181,0 -272,137 0,0 -91,138 -91,403 0,0 0,271 88,406 0,0 88,135 279,135 0,0 186,0 275,-137 0,0 88,-136 88,-404 0,0 0,-263 -93,-402 0,0 -93,-138 -274,-138 z"
       transform="scale(0.001,-0.001)"
       id="f1_k" />
    <path
       d="M 818,115 75,426 V 579 L 818,891 V 776 L 178,503 818,230 V 115 z"
       transform="scale(0.001,-0.001)"
       id="f1_w" />
    <path
       d="m 114,-81 v 98 h 919 v -98 z m 919,214 -922,359 v 104 l 922,359 V 843 L 234,544 1033,245 V 133 z"
       transform="scale(0.001,-0.001)"
       id="f0_2mq" />
  </defs>
  <style
     type="text/css"
     id="style240" />
</svg>
