<?xml version="1.0" encoding="UTF-8" standalone="no"?>
<svg
   xmlns:dc="http://purl.org/dc/elements/1.1/"
   xmlns:cc="http://creativecommons.org/ns#"
   xmlns:rdf="http://www.w3.org/1999/02/22-rdf-syntax-ns#"
   xmlns:svg="http://www.w3.org/2000/svg"
   xmlns="http://www.w3.org/2000/svg"
   xmlns:sodipodi="http://sodipodi.sourceforge.net/DTD/sodipodi-0.dtd"
   xmlns:inkscape="http://www.inkscape.org/namespaces/inkscape"
   width="267.14453"
   height="50.371094"
   overflow="hidden"
   version="1.1"
   id="svg45"
   sodipodi:docname="S-formula7.svg"
   inkscape:version="0.92.4 (5da689c313, 2019-01-14)"
   style="overflow:hidden">
  <metadata
     id="metadata49">
    <rdf:RDF>
      <cc:Work
         rdf:about="">
        <dc:format>image/svg+xml</dc:format>
        <dc:type
           rdf:resource="http://purl.org/dc/dcmitype/StillImage" />
        <dc:title></dc:title>
      </cc:Work>
    </rdf:RDF>
  </metadata>
  <sodipodi:namedview
     pagecolor="#ffffff"
     bordercolor="#666666"
     borderopacity="1"
     objecttolerance="10"
     gridtolerance="10"
     guidetolerance="10"
     inkscape:pageopacity="0"
     inkscape:pageshadow="2"
     inkscape:window-width="1733"
     inkscape:window-height="1020"
     id="namedview47"
     showgrid="false"
     inkscape:zoom="3.6310889"
     inkscape:cx="130.5544"
     inkscape:cy="36.943193"
     inkscape:window-x="0"
     inkscape:window-y="0"
     inkscape:window-maximized="0"
     inkscape:current-layer="svg45"
     fit-margin-top="0"
     fit-margin-left="0"
     fit-margin-right="0"
     fit-margin-bottom="0" />
  <defs
     id="defs5">
    <clipPath
       id="clip0">
      <rect
         x="661"
         y="508"
         width="296"
         height="66"
         id="rect2" />
    </clipPath>
  </defs>
  <path
     style="font-weight:400;font-size:24px;font-family:'Cambria Math', 'Cambria Math_MSFontService', sans-serif"
     d="m 186.12109,0 -5.48438,3.2695318 0.51563,0.902343 c 0.67969,-0.453124 1.25,-0.808593 1.71094,-1.066406 0.46093,-0.257813 0.8164,-0.386719 1.0664,-0.386719 0.21094,0 0.3711,0.07422 0.48047,0.222656 0.10938,0.140625 0.16407,0.367188 0.16406,0.679688 V 13.125 c 0,0.546876 -0.0469,0.941407 -0.14062,1.183594 -0.0859,0.242187 -0.22657,0.429687 -0.42188,0.5625 -0.19531,0.132813 -0.48046,0.234375 -0.85546,0.304688 -0.36719,0.0625 -0.98437,0.113283 -1.85157,0.152343 v 0.855469 h 8.66016 v -0.855469 c -0.60156,-0.01563 -1.08594,-0.04297 -1.45313,-0.08203 -0.36719,-0.04687 -0.67187,-0.109375 -0.91406,-0.1875 -0.24218,-0.08594 -0.42968,-0.199218 -0.5625,-0.339844 -0.12502,-0.148437 -0.21486,-0.335937 -0.26953,-0.5625 -0.0469,-0.234374 -0.0703,-0.578124 -0.0703,-1.03125 V 3.1171878 C 186.69532,1.7890628 186.71872,0.75 186.76562,0 Z m 42.75,0 c -1.0625,0 -2,0.1914063 -2.8125,0.5742188 -0.8125,0.3828125 -1.44141,0.925781 -1.88672,1.628906 -0.44531,0.703126 -0.66797,1.515626 -0.66797,2.4375 0,0.578126 0.11328,1.101563 0.33985,1.570313 0.22656,0.46875 0.53125,0.894531 0.91406,1.277344 0.38281,0.375 0.86328,0.757812 1.4414,1.148437 0.64062,0.429687 1.12891,0.8125 1.46485,1.148437 0.34375,0.3281262 0.59765,0.6757822 0.76172,1.0429692 0.17187,0.359376 0.25781,0.777345 0.25781,1.253907 0,1.03125 -0.30469,1.835937 -0.91406,2.414062 -0.60938,0.578125 -1.44532,0.867188 -2.50782,0.867188 -0.92188,0 -1.60546,-0.230469 -2.05078,-0.691407 -0.4375,-0.46875 -0.65625,-1.179688 -0.65625,-2.132812 h -1.125 l -0.70312,3.222656 c 0.65625,0.179687 1.39843,0.328125 2.22656,0.445313 0.83594,0.117187 1.61329,0.175781 2.33203,0.175781 1.0625,0 2.00781,-0.199219 2.83594,-0.597657 0.83594,-0.40625 1.48047,-0.976562 1.93359,-1.710937 0.46094,-0.742187 0.69141,-1.589843 0.69141,-2.542969 0,-0.617187 -0.0977,-1.160156 -0.29297,-1.6289062 -0.1875,-0.46875 -0.48438,-0.910156 -0.89062,-1.324219 -0.39844,-0.421874 -0.98047,-0.898437 -1.7461,-1.429687 -0.875,-0.601563 -1.46875,-1.121094 -1.78125,-1.558594 -0.30468,-0.445313 -0.45703,-0.960938 -0.45703,-1.546875 0,-0.5625 0.12891,-1.070313 0.38672,-1.523437 0.25781,-0.460938 0.63281,-0.82422 1.125,-1.089844 0.49219,-0.2656254 1.0625,-0.3984378 1.71094,-0.3984378 0.53124,0 0.95703,0.082031 1.27734,0.2460938 0.32031,0.164063 0.56641,0.4375 0.73828,0.820312 0.17186,0.375 0.27342,0.894532 0.30469,1.558594 h 1.125 l 0.65625,-3.0117185 C 232.16015,0.4101563 231.48046,0.2460938 230.86328,0.1523438 230.2539,0.0507813 229.58984,0 228.87109,0 Z m -89.54297,4.7812498 c -0.60156,0 -1.14063,0.160156 -1.61719,0.480469 -0.47656,0.3125 -1.07422,0.84375 -1.79296,1.59375 l 0.66796,0.65625 c 0.46875,-0.523437 0.83594,-0.882812 1.10157,-1.078125 0.27343,-0.203125 0.53124,-0.304688 0.77343,-0.304688 0.21875,0 0.37891,0.07031 0.48047,0.210938 0.10157,0.140625 0.15235,0.367187 0.15235,0.679688 0,0.406249 -0.0859,0.984374 -0.25782,1.734374 L 137.125,16.183594 h 2.02734 l 1.11328,-5.074219 c 0.16407,-0.726562 0.375,-1.3359372 0.63281,-1.8281252 0.25781,-0.5 0.59766,-1.011719 1.01954,-1.535156 0.42968,-0.53125 0.83203,-0.925781 1.20703,-1.183594 0.38281,-0.265624 0.73828,-0.398437 1.0664,-0.398437 0.40626,0 0.69922,0.121094 0.87891,0.363281 0.17969,0.234375 0.26953,0.621094 0.26953,1.160156 0,0.21875 -0.0313,0.503906 -0.0937,0.855469 -0.0547,0.351563 -0.17578,0.894532 -0.36328,1.6289062 l -0.51563,2.027344 c -0.25781,0.984375 -0.38671,1.730469 -0.38671,2.238281 -1e-5,0.5625 0.15234,1.027344 0.45703,1.394532 0.30468,0.359375 0.71093,0.539062 1.21875,0.539062 0.64062,0 1.21093,-0.164062 1.71093,-0.492188 0.5,-0.335937 1.08594,-0.863281 1.75782,-1.582031 l -0.66797,-0.65625 c -0.48438,0.539063 -0.85938,0.90625 -1.125,1.101563 -0.26563,0.1875 -0.51563,0.28125 -0.75,0.28125 -0.21876,0 -0.37891,-0.07031 -0.48047,-0.210938 -0.10156,-0.140624 -0.15235,-0.367187 -0.15235,-0.679687 0,-0.351563 0.10548,-0.953125 0.31641,-1.804688 l 0.76172,-3.0703122 c 0.22657,-0.90625 0.33984,-1.605469 0.33984,-2.097657 0,-0.742188 -0.19531,-1.320313 -0.58593,-1.734374 -0.39063,-0.421876 -0.94922,-0.632813 -1.67578,-0.632813 -0.73438,0 -1.44923,0.261719 -2.14454,0.785156 -0.6875,0.515626 -1.41406,1.312501 -2.17968,2.390625 l -0.14063,-0.04687 c 0.1875,-0.507812 0.28125,-0.96875 0.28125,-1.382812 0,-0.523438 -0.14453,-0.945313 -0.43359,-1.265625 -0.28126,-0.328126 -0.66797,-0.492188 -1.16016,-0.492188 z m 17.63477,3.761719 v 1.5585942 h 14.4375 V 8.5429688 Z m 42,0 v 1.5585942 h 14.4375 V 8.5429688 Z m 63.17968,0.503906 -4.11328,2.4511722 0.38672,0.677735 c 0.50977,-0.339844 0.9375,-0.607422 1.2832,-0.800782 0.34571,-0.193359 0.61133,-0.291015 0.79883,-0.291015 0.1582,0 0.2793,0.05664 0.36133,0.167968 0.082,0.105469 0.12305,0.275391 0.12305,0.509766 v 7.128906 c 0,0.410156 -0.0352,0.705078 -0.10547,0.886719 -0.0644,0.181641 -0.16992,0.322266 -0.31641,0.421875 -0.14648,0.09961 -0.36133,0.175782 -0.64257,0.228516 -0.2754,0.04687 -0.73829,0.08398 -1.38868,0.113281 v 0.642578 h 6.4961 v -0.642578 c -0.45117,-0.01171 -0.81445,-0.03125 -1.08985,-0.06055 -0.27539,-0.03516 -0.5039,-0.08203 -0.68554,-0.140625 -0.18164,-0.06445 -0.32227,-0.150391 -0.42188,-0.255859 -0.0938,-0.111328 -0.16212,-0.251953 -0.20312,-0.421875 -0.0351,-0.175782 -0.0527,-0.431641 -0.0527,-0.771485 V 11.38281 c 0,-0.996094 0.0176,-1.7734382 0.0527,-2.3359382 z M 234.93359,12.63086 c -0.45117,0 -0.85546,0.121093 -1.21289,0.361328 -0.35742,0.234374 -0.80664,0.632812 -1.3457,1.195312 l 0.50195,0.492188 c 0.35157,-0.392578 0.62695,-0.662109 0.82617,-0.808594 0.20507,-0.152344 0.39844,-0.228516 0.58008,-0.228516 0.16407,0 0.28321,0.05273 0.35937,0.158204 0.0762,0.105469 0.11524,0.27539 0.11524,0.509765 0,0.304687 -0.0644,0.738281 -0.19336,1.300781 l -1.2832,5.572266 h 1.51953 l 0.83593,-3.804688 c 0.12305,-0.544921 0.28125,-1.001953 0.47461,-1.371093 0.19336,-0.375 0.44727,-0.759766 0.76368,-1.152344 0.32226,-0.398437 0.625,-0.693359 0.90625,-0.886719 0.2871,-0.199218 0.55273,-0.298828 0.79882,-0.298828 0.3047,0 0.5254,0.08984 0.66016,0.271484 0.13477,0.175782 0.20117,0.466797 0.20117,0.871094 0,0.164062 -0.0234,0.376953 -0.0703,0.640625 -0.041,0.263672 -0.13086,0.671875 -0.27148,1.222657 l -0.38672,1.519531 c -0.19336,0.738281 -0.29102,1.298828 -0.29102,1.679687 0,0.421875 0.11523,0.769531 0.34375,1.044922 0.22851,0.269531 0.5332,0.404297 0.91406,0.404297 0.48047,0 0.90821,-0.123047 1.28321,-0.369141 0.375,-0.251952 0.81445,-0.646484 1.31836,-1.185546 l -0.50197,-0.492188 c -0.36328,0.404297 -0.64453,0.679688 -0.84375,0.826172 -0.19921,0.140625 -0.38671,0.210937 -0.5625,0.210937 -0.16406,0 -0.2832,-0.05273 -0.35937,-0.158203 -0.0762,-0.105468 -0.11524,-0.27539 -0.11524,-0.509765 0,-0.263672 0.0801,-0.714844 0.23828,-1.353516 l 0.57032,-2.302734 c 0.16992,-0.679688 0.25586,-1.205078 0.25586,-1.574219 0,-0.556641 -0.14649,-0.990235 -0.43946,-1.300781 -0.29297,-0.316407 -0.71289,-0.47461 -1.25781,-0.47461 -0.55078,0 -1.08593,0.197266 -1.60742,0.589844 -0.51562,0.386719 -1.06055,0.984375 -1.63477,1.792969 l -0.10546,-0.03516 c 0.14062,-0.38086 0.21093,-0.726563 0.21093,-1.03711 0,-0.392579 -0.10937,-0.708985 -0.32617,-0.949219 -0.21094,-0.246094 -0.5,-0.371093 -0.86914,-0.371093 z m 10.17383,2.822265 v 1.169922 h 10.82812 V 15.453125 Z M 8.144532,18 c -1.0625,0 -2,0.191406 -2.8125,0.574219 -0.8125,0.382813 -1.441407,0.925782 -1.886719,1.628906 C 3,20.906251 2.777344,21.718751 2.777344,22.640625 c 0,0.578126 0.113281,1.101563 0.339844,1.570313 0.226562,0.46875 0.53125,0.894531 0.914062,1.277344 0.382813,0.375 0.863281,0.757812 1.441406,1.148437 0.640625,0.429687 1.128907,0.8125 1.464844,1.148437 0.34375,0.328126 0.597656,0.675782 0.761719,1.042969 0.171875,0.359376 0.257813,0.777344 0.257813,1.253907 0,1.03125 -0.304688,1.835937 -0.914063,2.414062 -0.609375,0.578125 -1.445313,0.867188 -2.507813,0.867188 -0.921875,0 -1.605468,-0.230469 -2.050781,-0.691407 -0.4375,-0.46875 -0.65625,-1.179688 -0.65625,-2.132812 h -1.125 L 0,33.761719 c 0.65625,0.179687 1.398437,0.328125 2.226563,0.445313 0.835937,0.117187 1.613281,0.175781 2.332031,0.175781 1.0625,0 2.007812,-0.199219 2.835938,-0.597657 0.835937,-0.40625 1.480469,-0.976562 1.933593,-1.710937 0.460938,-0.742187 0.691407,-1.589843 0.691407,-2.542969 0,-0.617187 -0.09766,-1.160156 -0.292969,-1.628906 C 9.539063,27.433594 9.242188,26.992188 8.835938,26.578125 8.4375,26.156251 7.855469,25.679688 7.089844,25.148438 6.214844,24.546875 5.621094,24.027344 5.308594,23.589844 5.003907,23.144531 4.851563,22.628906 4.851563,22.042969 c 0,-0.5625 0.128906,-1.070312 0.386719,-1.523437 0.257812,-0.460938 0.632811,-0.82422 1.125,-1.089844 0.492187,-0.265626 1.0625,-0.398438 1.710937,-0.398438 0.53125,0 0.957031,0.08203 1.277344,0.246094 0.320312,0.164063 0.566406,0.4375 0.738281,0.820312 0.171875,0.375 0.273438,0.894532 0.304688,1.558594 h 1.125 l 0.65625,-3.011718 C 11.433594,18.410157 10.753906,18.246094 10.136719,18.152344 9.527344,18.050781 8.863282,18 8.144532,18 Z m 60.074218,0 c -1.0625,0 -2,0.191406 -2.8125,0.574219 -0.8125,0.382813 -1.441406,0.925782 -1.886718,1.628906 -0.445313,0.703126 -0.667969,1.515626 -0.667969,2.4375 0,0.578126 0.113281,1.101563 0.339843,1.570313 0.226563,0.46875 0.53125,0.894531 0.914063,1.277344 0.382813,0.375 0.863282,0.757812 1.441406,1.148437 0.640626,0.429687 1.128907,0.8125 1.464844,1.148437 0.34375,0.328126 0.597656,0.675782 0.761719,1.042969 0.171874,0.359376 0.257812,0.777344 0.257812,1.253907 0,1.03125 -0.304688,1.835937 -0.914062,2.414062 -0.609376,0.578125 -1.445313,0.867188 -2.507813,0.867188 -0.921874,0 -1.605468,-0.230469 -2.050781,-0.691407 -0.4375,-0.46875 -0.65625,-1.179688 -0.65625,-2.132812 h -1.125 l -0.703125,3.222656 c 0.65625,0.179687 1.398438,0.328125 2.226563,0.445313 0.835937,0.117187 1.613281,0.175781 2.332031,0.175781 1.0625,0 2.007813,-0.199219 2.835937,-0.597657 0.835938,-0.40625 1.480469,-0.976562 1.933594,-1.710937 0.460937,-0.742187 0.691406,-1.589843 0.691406,-2.542969 0,-0.617187 -0.09766,-1.160156 -0.292968,-1.628906 -0.1875,-0.46875 -0.484376,-0.910156 -0.890626,-1.324219 -0.398437,-0.421874 -0.980469,-0.898437 -1.746093,-1.429687 -0.875,-0.601563 -1.46875,-1.121094 -1.78125,-1.558594 -0.304688,-0.445313 -0.457031,-0.960938 -0.457031,-1.546875 0,-0.5625 0.128906,-1.070312 0.386718,-1.523437 0.257813,-0.460938 0.632813,-0.82422 1.125,-1.089844 0.492188,-0.265626 1.0625,-0.398438 1.710938,-0.398438 0.53125,0 0.957031,0.08203 1.277344,0.246094 0.320312,0.164063 0.566405,0.4375 0.738281,0.820312 0.171878,0.375 0.273441,0.894532 0.304687,1.558594 h 1.125 L 72.25,18.644532 C 71.507813,18.410157 70.828125,18.246094 70.210938,18.152344 69.601562,18.050781 68.9375,18 68.21875,18 Z m 52.21875,1.792969 v 6.75 h -6.38672 v 1.558594 h 6.38672 v 6.75 h 1.66406 v -6.75 h 6.38672 v -1.558594 h -6.38672 v -6.75 z m -86.542968,2.941406 c -0.398438,0 -0.734376,0.144531 -1.007813,0.433594 -0.273437,0.28125 -0.410156,0.640625 -0.410156,1.078125 0,0.4375 0.136719,0.800781 0.410156,1.089844 0.273437,0.28125 0.609375,0.421875 1.007813,0.421875 0.40625,0 0.746093,-0.140625 1.019531,-0.421875 0.273437,-0.289063 0.410156,-0.652344 0.410156,-1.089844 0,-0.4375 -0.136719,-0.796875 -0.410156,-1.078125 -0.273438,-0.289063 -0.613281,-0.433594 -1.019531,-0.433594 z m 3.09375,1.382813 v 1.558594 h 14.4375 v -1.558594 z m 98.156248,2.314453 v 2 h 66 66 v -2 h -66 z m -33.65625,0.615234 -4.113276,2.451172 0.38671,0.677735 c 0.50977,-0.339845 0.93751,-0.607422 1.28321,-0.800782 0.3457,-0.193359 0.61328,-0.291015 0.80078,-0.291015 0.158196,0 0.277336,0.05664 0.359366,0.167968 0.082,0.105469 0.12305,0.275391 0.12305,0.509766 v 7.128906 c 0,0.410156 -0.0352,0.705078 -0.10547,0.886719 -0.0645,0.181641 -0.16992,0.322266 -0.316396,0.421875 -0.14649,0.09961 -0.35938,0.175782 -0.64063,0.228516 -0.27539,0.04687 -0.73828,0.08398 -1.38867,0.113281 v 0.642578 h 6.494136 v -0.642578 c -0.45117,-0.01171 -0.81445,-0.03125 -1.08984,-0.06055 -0.2754,-0.03516 -0.50391,-0.08203 -0.68555,-0.140625 -0.18164,-0.06445 -0.32227,-0.150391 -0.42188,-0.255859 -0.0938,-0.111328 -0.16017,-0.251953 -0.20117,-0.421875 -0.0351,-0.175782 -0.0527,-0.431641 -0.0527,-0.771485 V 29.38281 c 0,-0.996094 0.0176,-1.773438 0.0527,-2.335938 z m -67.593748,1.839844 c -0.398438,0 -0.734376,0.144531 -1.007813,0.433594 -0.273437,0.28125 -0.410156,0.640625 -0.410156,1.078125 0,0.4375 0.136719,0.800781 0.410156,1.089844 0.273437,0.28125 0.609375,0.421874 1.007813,0.421874 0.40625,0 0.746093,-0.140624 1.019531,-0.421874 0.273437,-0.289063 0.410156,-0.652344 0.410156,-1.089844 0,-0.4375 -0.136719,-0.796875 -0.410156,-1.078125 -0.273438,-0.289063 -0.613281,-0.433594 -1.019531,-0.433594 z m 3.09375,0.09375 v 1.558594 h 14.4375 V 28.980469 Z M 14.205078,30.63086 c -0.451172,0 -0.855469,0.121093 -1.21289,0.361328 C 12.634766,31.226562 12.1875,31.625 11.648438,32.1875 l 0.5,0.492188 C 12.5,32.28711 12.775391,32.017579 12.97461,31.871094 c 0.205078,-0.152344 0.398437,-0.228516 0.580078,-0.228516 0.164062,0 0.285156,0.05273 0.361328,0.158204 0.07617,0.105469 0.113281,0.27539 0.113281,0.509765 0,0.304687 -0.06445,0.738281 -0.193359,1.300781 l -1.283203,5.572266 h 1.521484 l 0.833984,-3.804688 c 0.123047,-0.544921 0.28125,-1.001953 0.47461,-1.371093 0.193359,-0.375 0.449219,-0.759766 0.765625,-1.152344 0.322265,-0.398437 0.623047,-0.693359 0.904297,-0.886719 0.287109,-0.199218 0.554687,-0.298828 0.800781,-0.298828 0.304687,0 0.523437,0.08984 0.658203,0.271484 0.134765,0.175782 0.203125,0.466797 0.203125,0.871094 0,0.164062 -0.02344,0.376953 -0.07031,0.640625 -0.04102,0.263672 -0.132813,0.671875 -0.273438,1.222657 l -0.386719,1.519531 c -0.193359,0.738281 -0.289062,1.298828 -0.289062,1.679687 0,0.421875 0.113281,0.769531 0.341797,1.044922 0.228516,0.269531 0.533203,0.404297 0.914062,0.404297 0.480469,0 0.908203,-0.123047 1.283203,-0.369141 0.375,-0.251952 0.814454,-0.646484 1.31836,-1.185546 l -0.5,-0.492188 c -0.363282,0.404297 -0.644532,0.679688 -0.84375,0.826172 -0.199219,0.140625 -0.386719,0.210937 -0.5625,0.210937 -0.164063,0 -0.285157,-0.05273 -0.361329,-0.158203 -0.07617,-0.105468 -0.113281,-0.27539 -0.113281,-0.509765 0,-0.263672 0.07813,-0.714844 0.236328,-1.353516 l 0.572266,-2.302734 c 0.169922,-0.679688 0.253906,-1.205078 0.253906,-1.574219 0,-0.556641 -0.146484,-0.990235 -0.439453,-1.300781 -0.292969,-0.316407 -0.710937,-0.47461 -1.255859,-0.47461 -0.550782,0 -1.087891,0.197266 -1.609375,0.589844 -0.515626,0.386719 -1.060547,0.984375 -1.634766,1.792969 l -0.105469,-0.03516 c 0.140626,-0.38086 0.210938,-0.726563 0.210938,-1.03711 0,-0.392579 -0.107422,-0.708985 -0.324219,-0.949219 -0.210937,-0.246094 -0.501953,-0.371093 -0.871094,-0.371093 z m 60.074219,0 c -0.451172,0 -0.855469,0.121093 -1.212891,0.361328 -0.357421,0.234374 -0.804687,0.632812 -1.34375,1.195312 l 0.5,0.492188 c 0.351563,-0.392578 0.626954,-0.662109 0.826172,-0.808594 0.205078,-0.152344 0.398438,-0.228516 0.580078,-0.228516 0.164063,0 0.285157,0.05273 0.361329,0.158204 0.07617,0.105469 0.113281,0.27539 0.113281,0.509765 0,0.304687 -0.06445,0.738281 -0.19336,1.300781 l -1.283203,5.572266 h 1.521485 l 0.833984,-3.804688 c 0.123047,-0.544921 0.28125,-1.001953 0.47461,-1.371093 0.193359,-0.375 0.449218,-0.759766 0.765624,-1.152344 0.322267,-0.398437 0.623047,-0.693359 0.904297,-0.886719 0.28711,-0.199218 0.554688,-0.298828 0.800782,-0.298828 0.304688,0 0.523437,0.08984 0.658203,0.271484 0.134766,0.175782 0.203125,0.466797 0.203125,0.871094 0,0.164062 -0.02344,0.376953 -0.07031,0.640625 -0.04102,0.263672 -0.132812,0.671875 -0.273437,1.222657 l -0.386722,1.519531 c -0.193359,0.738281 -0.289062,1.298828 -0.289062,1.679687 0,0.421875 0.11328,0.769531 0.341796,1.044922 0.228516,0.269531 0.533204,0.404297 0.914063,0.404297 0.480469,0 0.908203,-0.123047 1.283203,-0.369141 0.375,-0.251952 0.814453,-0.646484 1.318359,-1.185546 l -0.5,-0.492188 c -0.363281,0.404297 -0.644531,0.679688 -0.84375,0.826172 -0.199218,0.140625 -0.386718,0.210937 -0.5625,0.210937 -0.164062,0 -0.285156,-0.05273 -0.361328,-0.158203 -0.07617,-0.105468 -0.113281,-0.27539 -0.113281,-0.509765 0,-0.263672 0.07813,-0.714844 0.236328,-1.353516 l 0.572266,-2.302734 c 0.169921,-0.679688 0.253906,-1.205078 0.253906,-1.574219 0,-0.556641 -0.146484,-0.990235 -0.439453,-1.300781 -0.292969,-0.316407 -0.710937,-0.47461 -1.255859,-0.47461 -0.550782,0 -1.087892,0.197266 -1.609376,0.589844 -0.515625,0.386719 -1.060546,0.984375 -1.634765,1.792969 l -0.105469,-0.03516 c 0.140625,-0.38086 0.210938,-0.726563 0.210938,-1.03711 0,-0.392579 -0.107422,-0.708985 -0.324219,-0.949219 -0.210938,-0.246094 -0.501954,-0.371093 -0.871094,-0.371093 z m 10.173828,2.822265 v 1.169922 H 95.281254 V 33.453125 Z M 195.02929,38.78125 c -0.59375,0 -1.14062,0.167969 -1.64062,0.503906 -0.49219,0.328126 -1.08203,0.851563 -1.76953,1.570313 l 0.66797,0.65625 c 0.46875,-0.523437 0.83594,-0.882812 1.10156,-1.078125 0.27344,-0.203125 0.53125,-0.304688 0.77344,-0.304688 0.21875,0 0.3789,0.07031 0.48046,0.210938 0.10156,0.140625 0.15235,0.367188 0.15235,0.679688 0,0.40625 -0.0859,0.984374 -0.25781,1.734374 l -1.71094,7.429688 h 2.02734 l 1.11328,-5.074219 c 0.16406,-0.71875 0.36719,-1.328125 0.60938,-1.828125 0.24219,-0.5 0.57812,-1.019531 1.00781,-1.558594 0.42969,-0.546874 0.83203,-0.941406 1.20703,-1.183593 0.38282,-0.25 0.72266,-0.375 1.01953,-0.375 0.42188,0 0.73047,0.121094 0.92578,0.363281 0.20313,0.234375 0.30469,0.632812 0.30469,1.195312 0,0.25 -0.0313,0.550782 -0.0937,0.902344 -0.0547,0.34375 -0.16406,0.878906 -0.32812,1.605469 l -1.34771,5.953125 h 2.02734 l 1.06641,-5.121094 c 0.15625,-0.726562 0.36328,-1.339844 0.62109,-1.839844 0.26563,-0.507812 0.60548,-1.01953 1.01954,-1.535156 0.41406,-0.523437 0.80859,-0.90625 1.18359,-1.148437 0.375,-0.25 0.72657,-0.375 1.05469,-0.375 0.40625,0 0.69922,0.121094 0.8789,0.363281 0.17969,0.234375 0.26953,0.621094 0.26953,1.160156 0,0.21875 -0.0313,0.503906 -0.0937,0.855469 -0.0547,0.351563 -0.17578,0.894532 -0.36328,1.628906 l -0.51562,2.027344 c -0.25781,0.984375 -0.38672,1.730469 -0.38672,2.238281 0,0.5625 0.15234,1.027344 0.45703,1.394532 0.30469,0.359375 0.71094,0.539062 1.21875,0.539062 0.64062,0 1.21094,-0.167969 1.71094,-0.503906 0.5,-0.335938 1.08593,-0.859375 1.75781,-1.570313 l -0.66797,-0.65625 c -0.48437,0.539063 -0.85937,0.90625 -1.125,1.101563 -0.26562,0.1875 -0.51562,0.28125 -0.75,0.28125 -0.21875,0 -0.37891,-0.07031 -0.48047,-0.210938 -0.10156,-0.140624 -0.15234,-0.367187 -0.15234,-0.679687 0,-0.351563 0.10547,-0.953125 0.31641,-1.804688 l 0.76171,-3.070312 c 0.22656,-0.90625 0.33985,-1.605469 0.33985,-2.097657 0,-0.75 -0.19532,-1.332031 -0.58594,-1.746093 C 208.4434,39 207.88872,38.792969 207.16997,38.792969 c -0.71875,0 -1.41407,0.234375 -2.08594,0.703125 -0.66407,0.460937 -1.33203,1.167968 -2.00391,2.121094 0.008,-0.0625 0.0117,-0.121095 0.0117,-0.175782 v -0.164062 c 0,-0.804687 -0.19531,-1.417968 -0.58593,-1.839844 -0.39063,-0.429687 -0.96094,-0.644531 -1.71094,-0.644531 -0.72656,0 -1.44531,0.261719 -2.15625,0.785156 -0.71094,0.515626 -1.42578,1.308594 -2.14453,2.378907 l -0.14063,-0.04688 c 0.17969,-0.484374 0.26953,-0.941406 0.26953,-1.371093 0,-0.523438 -0.14453,-0.945313 -0.43359,-1.265625 -0.28125,-0.328126 -0.66797,-0.492188 -1.16016,-0.492188 z"
     id="path4577"
     inkscape:connector-curvature="0" />
</svg>
