<?xml version="1.0" encoding="UTF-8" standalone="no"?>
<svg
   xmlns:dc="http://purl.org/dc/elements/1.1/"
   xmlns:cc="http://creativecommons.org/ns#"
   xmlns:rdf="http://www.w3.org/1999/02/22-rdf-syntax-ns#"
   xmlns:svg="http://www.w3.org/2000/svg"
   xmlns="http://www.w3.org/2000/svg"
   xmlns:sodipodi="http://sodipodi.sourceforge.net/DTD/sodipodi-0.dtd"
   xmlns:inkscape="http://www.inkscape.org/namespaces/inkscape"
   width="569.47852"
   height="52.015625"
   overflow="hidden"
   version="1.1"
   id="svg47"
   sodipodi:docname="S-formula4.svg"
   inkscape:version="0.92.4 (5da689c313, 2019-01-14)"
   style="overflow:hidden">
  <metadata
     id="metadata51">
    <rdf:RDF>
      <cc:Work
         rdf:about="">
        <dc:format>image/svg+xml</dc:format>
        <dc:type
           rdf:resource="http://purl.org/dc/dcmitype/StillImage" />
        <dc:title></dc:title>
      </cc:Work>
    </rdf:RDF>
  </metadata>
  <sodipodi:namedview
     pagecolor="#ffffff"
     bordercolor="#666666"
     borderopacity="1"
     objecttolerance="10"
     gridtolerance="10"
     guidetolerance="10"
     inkscape:pageopacity="0"
     inkscape:pageshadow="2"
     inkscape:window-width="1738"
     inkscape:window-height="480"
     id="namedview49"
     showgrid="false"
     inkscape:zoom="1.2624585"
     inkscape:cx="335.19355"
     inkscape:cy="-2.5146304"
     inkscape:window-x="0"
     inkscape:window-y="0"
     inkscape:window-maximized="0"
     inkscape:current-layer="svg47"
     fit-margin-top="0"
     fit-margin-left="0"
     fit-margin-right="0"
     fit-margin-bottom="0" />
  <defs
     id="defs5">
    <clipPath
       id="clip0">
      <rect
         x="73"
         y="351"
         width="602"
         height="67"
         id="rect2" />
    </clipPath>
  </defs>
  <path
     style="font-weight:400;font-size:24px;font-family:'Cambria Math', 'Cambria Math_MSFontService', sans-serif"
     d="m 226.39257,0 c -1.33593,0 -2.43749,0.3554689 -3.30468,1.066406 -0.85937,0.703126 -1.4961,1.757813 -1.91015,3.164063 -0.14063,0.46875 -0.25783,0.792969 -0.35157,0.972656 -0.0859,0.171875 -0.19531,0.3125 -0.32812,0.421875 -0.125,0.109376 -0.30469,0.191407 -0.53906,0.246094 -0.22658,0.05469 -0.60158,0.09766 -1.125,0.128906 l -0.17579,0.808594 h 1.98047 l -2.51953,11.144531 c -0.17969,0.789063 -0.3789,1.40625 -0.59765,1.851562 -0.21094,0.445313 -0.44141,0.757813 -0.69141,0.9375 -0.25,0.179688 -0.55078,0.269532 -0.90234,0.269532 -0.28908,0 -0.47266,-0.01172 -0.55079,-0.03516 l -0.19921,1.03125 c 0.1875,0.03906 0.44531,0.05859 0.77343,0.05859 1.125,0 2.0586,-0.417969 2.80078,-1.253906 0.74218,-0.828125 1.29297,-2.089844 1.65235,-3.785156 l 2.17969,-10.21875 h 3.02343 l 0.25782,-1.183594 h -3.01172 l 0.29297,-1.277344 c 0.1875,-0.820312 0.39062,-1.472656 0.60937,-1.957031 0.21876,-0.484375 0.48047,-0.847656 0.78516,-1.089844 0.3125,-0.25 0.6914,-0.375 1.13672,-0.375 0.34375,0 0.60156,0.09766 0.77343,0.292969 0.17968,0.195313 0.32422,0.515625 0.4336,0.960937 h 1.03125 l 0.45703,-1.992187 c -0.55468,-0.125 -1.21485,-0.1875 -1.98047,-0.1875 z m 304.92188,0 c -1.33594,0 -2.4375,0.3554689 -3.30469,1.066406 -0.85937,0.703126 -1.4961,1.757813 -1.91016,3.164063 -0.14062,0.46875 -0.2578,0.792969 -0.35156,0.972656 -0.0859,0.171875 -0.19531,0.3125 -0.32812,0.421875 -0.125,0.109376 -0.30469,0.191407 -0.53907,0.246094 -0.22656,0.05469 -0.60156,0.09766 -1.125,0.128906 l -0.17578,0.808594 h 1.98047 l -2.51952,11.144531 c -0.1797,0.789063 -0.37892,1.40625 -0.59767,1.851562 -0.21094,0.445313 -0.4414,0.757813 -0.6914,0.9375 -0.25,0.179688 -0.55079,0.269532 -0.90235,0.269532 -0.28905,0 -0.47265,-0.01172 -0.55078,-0.03516 l -0.19922,1.03125 c 0.1875,0.03906 0.44533,0.05859 0.77345,0.05859 1.125,0 2.05859,-0.417969 2.80078,-1.253906 0.7422,-0.828125 1.29297,-2.089844 1.65235,-3.785156 l 2.17967,-10.21875 h 3.02345 l 0.2578,-1.183594 h -3.01171 l 0.29296,-1.277344 c 0.1875,-0.820312 0.39063,-1.472656 0.60938,-1.957031 0.21875,-0.484375 0.48047,-0.847656 0.78516,-1.089844 0.3125,-0.25 0.69141,-0.375 1.13671,-0.375 0.34375,0 0.60158,0.09766 0.77345,0.292969 0.17969,0.195313 0.32422,0.515625 0.43359,0.960937 h 1.03125 l 0.45704,-1.992187 c -0.5547,-0.125 -1.21485,-0.1875 -1.98047,-0.1875 z m -242.9336,0.070312 -2.96484,0.1054687 -0.14062,0.609375 c 0.51562,0.015625 0.87109,0.089844 1.0664,0.2226568 0.20313,0.132812 0.30469,0.36328 0.30469,0.691406 0,0.359374 -0.0898,0.937499 -0.26953,1.734375 l -3.03516,13.3945315 0.75,0.1875 1.07813,-0.761719 c 0.80468,0.507813 1.72656,0.761719 2.76562,0.761719 1.14063,0 2.17188,-0.363281 3.09375,-1.089844 0.92188,-0.734374 1.64063,-1.722655 2.15625,-2.964844 0.52344,-1.25 0.78516,-2.519531 0.78516,-3.808593 0,-1.179688 -0.23827,-2.09375 -0.71485,-2.742188 -0.46874,-0.648437 -1.1289,-0.972656 -1.98046,-0.972656 -0.66406,0 -1.32812,0.226562 -1.99219,0.679687 -0.66406,0.453125 -1.375,1.187501 -2.13281,2.203126 l -0.15235,-0.04688 2.0625,-8.2031245 z m 60.84766,0 -2.96484,0.1054687 -0.14063,0.609375 c 0.51563,0.015625 0.87109,0.089844 1.06641,0.2226568 0.20313,0.132812 0.30469,0.36328 0.30469,0.691406 0,0.320312 -0.0937,0.898437 -0.28125,1.734375 l -3.01172,13.3945315 h 2.02734 l 1.06641,-5.074219 c 0.14843,-0.6875 0.34765,-1.277344 0.59765,-1.769531 0.25782,-0.5 0.60157,-1.019531 1.03125,-1.558594 0.42969,-0.546874 0.83985,-0.953124 1.23047,-1.21875 0.39063,-0.265624 0.74609,-0.398437 1.06641,-0.398437 0.40625,0 0.69923,0.117188 0.8789,0.351562 0.17969,0.226563 0.26954,0.617188 0.26954,1.171875 0,0.203126 -0.0313,0.488282 -0.0937,0.855469 -0.0625,0.359375 -0.1836,0.902344 -0.36329,1.628906 l -0.5039,2.027344 c -0.25781,0.984375 -0.38672,1.730469 -0.38672,2.238281 0,0.570313 0.14844,1.035157 0.44531,1.394532 0.30469,0.359375 0.71094,0.539062 1.21875,0.539062 0.60156,0 1.14062,-0.148437 1.61719,-0.445312 0.48437,-0.296875 1.10156,-0.839844 1.85156,-1.628907 l -0.66797,-0.65625 c -0.48437,0.539063 -0.85937,0.90625 -1.125,1.101563 -0.26562,0.1875 -0.51562,0.28125 -0.75,0.28125 -0.21874,0 -0.3789,-0.07031 -0.48047,-0.210938 -0.10156,-0.140624 -0.15234,-0.367187 -0.15234,-0.679687 0,-0.351563 0.10547,-0.953125 0.31641,-1.804688 l 0.76172,-3.070312 c 0.22656,-0.90625 0.33984,-1.605468 0.33984,-2.097657 0,-0.742187 -0.19531,-1.320312 -0.58594,-1.734374 -0.39062,-0.421876 -0.94922,-0.632813 -1.67578,-0.632813 -0.67187,0 -1.33983,0.222656 -2.00391,0.667969 -0.65624,0.4375 -1.35547,1.148438 -2.09765,2.132812 l -0.14063,-0.04687 2.01563,-8.1210935 z m 135.21484,0 -2.9414,0.1054687 -0.14062,0.609375 c 0.41406,0.023438 0.69923,0.0625 0.85547,0.1171878 0.16406,0.05469 0.28906,0.144531 0.375,0.269531 0.0859,0.117187 0.12891,0.292968 0.12891,0.527344 0,0.234374 -0.0235,0.507812 -0.0703,0.820312 -0.0469,0.3125 -0.1016,0.597656 -0.16407,0.855469 l -0.60937,2.707031 c -0.42188,-0.242187 -0.83594,-0.410156 -1.24219,-0.503906 -0.39844,-0.101563 -0.83594,-0.152344 -1.3125,-0.152344 -1.13281,0 -2.16016,0.359375 -3.08203,1.078125 -0.92187,0.710938 -1.64843,1.6875 -2.17969,2.929688 -0.52344,1.2343735 -0.78515,2.5234365 -0.78515,3.8671865 0,1.171876 0.23437,2.082033 0.70312,2.730469 0.47656,0.648437 1.14453,0.972656 2.00391,0.972656 0.75,0 1.46094,-0.253906 2.13281,-0.761719 0.67187,-0.507812 1.38281,-1.308592 2.13281,-2.402342 l 0.15235,0.04687 c -0.17969,0.484374 -0.26954,0.941407 -0.26954,1.371094 0,0.53125 0.14453,0.957031 0.4336,1.277343 0.28906,0.320313 0.67578,0.480469 1.16015,0.480469 0.57032,0 1.10157,-0.15625 1.59375,-0.46875 0.49219,-0.3125 1.09766,-0.847656 1.81641,-1.605469 l -0.66797,-0.65625 c -0.48437,0.539063 -0.85937,0.90625 -1.125,1.101563 -0.26562,0.1875 -0.51562,0.28125 -0.75,0.28125 -0.21874,0 -0.3789,-0.07031 -0.48047,-0.210938 -0.10156,-0.140624 -0.15234,-0.367187 -0.15234,-0.679687 0,-0.390626 0.0859,-0.968751 0.25781,-1.734375 l 2.91797,-12.972656 z m 17.10547,0 -2.96484,0.1054687 -0.14063,0.609375 c 0.51562,0.015625 0.8711,0.089844 1.06642,0.2226568 0.20312,0.132812 0.30469,0.36328 0.30469,0.691406 0,0.359374 -0.0898,0.937499 -0.26953,1.734375 l -3.03516,13.3945315 0.75,0.1875 1.07812,-0.761719 c 0.80468,0.507813 1.72656,0.761719 2.76563,0.761719 1.14062,0 2.17187,-0.363281 3.09375,-1.089844 0.92187,-0.734374 1.64062,-1.722655 2.15625,-2.964844 0.52344,-1.25 0.78516,-2.519531 0.78516,-3.808593 0,-1.179688 -0.23829,-2.09375 -0.71485,-2.742188 -0.46874,-0.648437 -1.12891,-0.972656 -1.98047,-0.972656 -0.66406,0 -1.32812,0.226562 -1.99218,0.679687 -0.66407,0.453125 -1.37501,1.187501 -2.13282,2.203126 l -0.15234,-0.04688 2.0625,-8.2031245 z m -309.9082,2.660157 c -0.25,0.789062 -0.4375,1.34375 -0.5625,1.664062 -0.125,0.3125 -0.25391,0.570312 -0.38672,0.773438 -0.13281,0.203124 -0.28125,0.359374 -0.44531,0.46875 -0.15625,0.109374 -0.35546,0.195312 -0.59766,0.257812 -0.23437,0.0625 -0.58203,0.09766 -1.04297,0.105469 l -0.17578,0.808594 h 1.96875 l -1.38281,6.082031 c -0.13281,0.578125 -0.19922,1.128906 -0.19922,1.652344 0,1.648437 0.81641,2.472656 2.44922,2.472656 0.6875,0 1.34375,-0.195312 1.96875,-0.585938 0.63281,-0.390624 1.28906,-0.996093 1.96875,-1.816406 l -0.67969,-0.703125 c -0.53124,0.632813 -0.99217,1.082032 -1.38281,1.347657 -0.38281,0.257812 -0.7461,0.386718 -1.08984,0.386718 -0.80469,0 -1.20704,-0.484375 -1.20704,-1.453125 0,-0.234374 0.0274,-0.542968 0.082,-0.925781 0.0547,-0.390625 0.18359,-1.027344 0.38672,-1.910156 l 1.04296,-4.546875 h 3.5625 L 196.17574,5.625 h -3.5625 l 0.64453,-2.894531 z m 146.5957,0 c -0.25,0.789062 -0.4375,1.34375 -0.5625,1.664062 -0.125,0.3125 -0.2539,0.570312 -0.38672,0.773438 -0.13281,0.203124 -0.28125,0.359374 -0.44531,0.46875 -0.15624,0.109374 -0.35546,0.195312 -0.59765,0.257812 -0.23438,0.0625 -0.58204,0.09766 -1.04297,0.105469 l -0.17578,0.808594 h 1.96875 l -1.38281,6.082031 c -0.13281,0.578125 -0.19923,1.128906 -0.19923,1.652344 0,1.648437 0.81642,2.472656 2.44923,2.472656 0.6875,0 1.34375,-0.195312 1.96875,-0.585938 0.63281,-0.390624 1.28906,-0.996093 1.96875,-1.816406 l -0.67969,-0.703125 c -0.53125,0.632813 -0.99219,1.082032 -1.38281,1.347657 -0.38281,0.257812 -0.74609,0.386718 -1.08984,0.386718 -0.80469,0 -1.20703,-0.484375 -1.20703,-1.453125 0,-0.234374 0.0274,-0.542968 0.082,-0.925781 0.0547,-0.390625 0.18359,-1.027344 0.38672,-1.910156 l 1.04297,-4.546875 h 3.5625 L 342.77146,5.625 h -3.5625 l 0.64453,-2.894531 z m 36.14063,0 c -0.25,0.789062 -0.4375,1.34375 -0.5625,1.664062 -0.125,0.3125 -0.25391,0.570312 -0.38672,0.773438 -0.13281,0.203124 -0.28125,0.359374 -0.44531,0.46875 -0.15626,0.109374 -0.35547,0.195312 -0.59766,0.257812 -0.23437,0.0625 -0.58203,0.09766 -1.04297,0.105469 l -0.17578,0.808594 h 1.96875 l -1.38281,6.082031 c -0.13282,0.578125 -0.19922,1.128906 -0.19922,1.652344 0,1.648437 0.8164,2.472656 2.44922,2.472656 0.6875,0 1.34375,-0.195312 1.96875,-0.585938 0.63281,-0.390624 1.28906,-0.996093 1.96875,-1.816406 l -0.67969,-0.703125 c -0.53125,0.632813 -0.99219,1.082032 -1.38281,1.347657 -0.38282,0.257812 -0.74609,0.386718 -1.08985,0.386718 -0.80468,0 -1.20703,-0.484375 -1.20703,-1.453125 0,-0.234374 0.0274,-0.542968 0.082,-0.925781 0.0547,-0.390625 0.1836,-1.027344 0.38672,-1.910156 l 1.04297,-4.546875 h 3.5625 L 378.91207,5.625 h -3.5625 l 0.64454,-2.894531 z M 163.28124,5.425781 c -0.38281,0 -0.73046,0.05469 -1.04296,0.164063 -0.30469,0.101562 -0.625,0.277343 -0.96094,0.527343 -0.33594,0.25 -0.83594,0.710938 -1.5,1.382813 l 0.66797,0.65625 c 0.46874,-0.523437 0.83593,-0.882812 1.10156,-1.078125 0.27344,-0.203125 0.53125,-0.304688 0.77344,-0.304688 0.21874,0 0.3789,0.07031 0.48047,0.210938 0.10156,0.140625 0.15234,0.367188 0.15234,0.679688 0,0.351562 -0.10547,0.953124 -0.31641,1.804687 l -0.76171,3.070313 c -0.22657,0.906249 -0.33985,1.605468 -0.33985,2.097656 0,0.742187 0.19531,1.324219 0.58594,1.746094 0.39063,0.414062 0.94922,0.621093 1.67578,0.621093 0.72657,0 1.43359,-0.257813 2.12109,-0.773437 0.69531,-0.515626 1.42969,-1.316407 2.20313,-2.402344 l 0.14062,0.04687 c -0.1875,0.5 -0.28125,0.960938 -0.28125,1.382813 0,0.53125 0.14454,0.957031 0.4336,1.277343 0.28906,0.320313 0.67577,0.480469 1.16015,0.480469 0.5625,0 1.09375,-0.15625 1.59375,-0.46875 0.5,-0.3125 1.10548,-0.847656 1.81641,-1.605469 l -0.66797,-0.65625 c -0.48437,0.539063 -0.85937,0.90625 -1.125,1.101563 -0.26562,0.1875 -0.51562,0.28125 -0.75,0.28125 -0.21875,0 -0.3789,-0.07031 -0.48047,-0.210938 -0.10156,-0.140624 -0.15234,-0.367187 -0.15234,-0.679687 0,-0.40625 0.0859,-0.984375 0.25781,-1.734375 l 1.71094,-7.429688 H 169.75 l -1.11329,5.074219 c -0.16406,0.726563 -0.375,1.339844 -0.63281,1.839844 -0.25781,0.492187 -0.60156,1.003906 -1.03125,1.535156 -0.42187,0.523437 -0.82422,0.917968 -1.20703,1.183594 -0.375,0.257812 -0.72656,0.386719 -1.05469,0.386719 -0.40624,0 -0.69922,-0.117188 -0.8789,-0.351563 -0.17969,-0.242187 -0.26953,-0.632812 -0.26953,-1.171875 -1e-5,-0.140625 0.0118,-0.316406 0.0352,-0.527344 0.0313,-0.210937 0.0742,-0.460937 0.12891,-0.75 0.0625,-0.289062 0.16015,-0.691406 0.29297,-1.207031 l 0.51562,-2.027344 c 0.24219,-0.921874 0.36328,-1.691405 0.36328,-2.308593 0,-0.570313 -0.14453,-1.023438 -0.43359,-1.359376 -0.28906,-0.335937 -0.6836,-0.503906 -1.1836,-0.503906 z m 13.6875,0 c -0.60156,0 -1.14062,0.160156 -1.61718,0.480469 C 174.875,6.21875 174.27734,6.75 173.55859,7.5 l 0.66797,0.65625 c 0.46874,-0.523437 0.83593,-0.882812 1.10156,-1.078125 0.27344,-0.203125 0.53125,-0.304688 0.77344,-0.304688 0.21874,0 0.3789,0.07031 0.48047,0.210938 0.10156,0.140625 0.15234,0.367188 0.15234,0.679688 0,0.40625 -0.0859,0.984374 -0.25781,1.734374 l -1.71094,7.429688 h 2.02734 l 1.11329,-5.074219 c 0.16407,-0.726562 0.375,-1.335937 0.63282,-1.828125 0.25781,-0.5 0.59766,-1.011719 1.01953,-1.535156 0.42969,-0.53125 0.83203,-0.925781 1.20703,-1.183594 0.38281,-0.265624 0.73828,-0.398437 1.06641,-0.398437 0.40624,0 0.69922,0.121094 0.87889,0.363281 0.1797,0.234375 0.26953,0.621094 0.26953,1.160156 0,0.21875 -0.0313,0.503906 -0.0937,0.855469 -0.0547,0.351563 -0.17578,0.894532 -0.36328,1.628906 l -0.51562,2.027344 c -0.25782,0.984375 -0.38672,1.730469 -0.38672,2.238281 0,0.5625 0.15234,1.027344 0.45703,1.394532 0.30469,0.359375 0.71094,0.539062 1.21875,0.539062 0.64063,0 1.21094,-0.164062 1.71094,-0.492188 0.5,-0.335937 1.08594,-0.863281 1.75781,-1.582031 l -0.66797,-0.65625 c -0.48437,0.539063 -0.85937,0.90625 -1.125,1.101563 -0.26562,0.1875 -0.51562,0.28125 -0.75,0.28125 -0.21875,0 -0.3789,-0.07031 -0.48047,-0.210938 -0.10156,-0.140624 -0.15234,-0.367187 -0.15234,-0.679687 0,-0.351563 0.10547,-0.953125 0.3164,-1.804688 l 0.76172,-3.070312 c 0.22656,-0.90625 0.33985,-1.605468 0.33985,-2.097657 0,-0.742187 -0.19531,-1.320313 -0.58594,-1.734374 C 184.03129,5.648437 183.4727,5.4375 182.74614,5.4375 c -0.73437,0 -1.44922,0.261719 -2.14453,0.785156 -0.6875,0.515626 -1.41406,1.312501 -2.17969,2.390625 l -0.14063,-0.04687 c 0.1875,-0.507812 0.28126,-0.96875 0.28126,-1.382812 -10e-6,-0.523438 -0.14453,-0.945313 -0.4336,-1.265625 -0.28125,-0.328126 -0.66797,-0.492188 -1.16016,-0.492188 z m 61.31446,0 c -0.60157,0 -1.14063,0.160156 -1.61719,0.480469 C 236.18945,6.21875 235.5918,6.75 234.87304,7.5 l 0.66797,0.65625 c 0.46875,-0.523437 0.83594,-0.882812 1.10156,-1.078125 0.27344,-0.203125 0.53125,-0.304688 0.77344,-0.304688 0.21875,0 0.3789,0.07031 0.48047,0.210938 0.10156,0.140625 0.15234,0.367188 0.15234,0.679688 0,0.40625 -0.0859,0.984374 -0.25781,1.734374 l -1.71094,7.429688 h 2.02735 l 1.11328,-5.074219 c 0.16407,-0.726562 0.375,-1.335937 0.63282,-1.828125 0.25781,-0.5 0.59766,-1.011719 1.01952,-1.535156 0.42969,-0.53125 0.83203,-0.925781 1.20703,-1.183594 0.38282,-0.265624 0.73828,-0.398437 1.06641,-0.398437 0.40625,0 0.69922,0.121094 0.87891,0.363281 0.17969,0.234375 0.26953,0.621094 0.26953,1.160156 0,0.21875 -0.0313,0.503906 -0.0937,0.855469 -0.0547,0.351563 -0.17578,0.894532 -0.36328,1.628906 l -0.51563,2.027344 c -0.25781,0.984375 -0.38672,1.730469 -0.38672,2.238281 0,0.5625 0.15235,1.027344 0.45703,1.394532 0.30469,0.359375 0.71094,0.539062 1.21875,0.539062 0.64063,0 1.21094,-0.164062 1.71094,-0.492188 0.5,-0.335937 1.08594,-0.863281 1.75781,-1.582031 l -0.66797,-0.65625 c -0.48437,0.539063 -0.85937,0.90625 -1.125,1.101563 -0.26562,0.1875 -0.51562,0.28125 -0.75,0.28125 -0.21874,0 -0.3789,-0.07031 -0.48046,-0.210938 -0.10156,-0.140624 -0.15235,-0.367187 -0.15235,-0.679687 0,-0.351563 0.10547,-0.953125 0.31641,-1.804688 l 0.76172,-3.070312 c 0.22656,-0.90625 0.33984,-1.605468 0.33984,-2.097657 0,-0.742187 -0.19531,-1.320313 -0.58594,-1.734374 -0.39062,-0.421876 -0.94922,-0.632813 -1.67578,-0.632813 -0.73437,0 -1.44922,0.261719 -2.14453,0.785156 -0.6875,0.515626 -1.41406,1.312501 -2.17969,2.390625 l -0.14062,-0.04687 c 0.1875,-0.507812 0.28125,-0.96875 0.28125,-1.382812 0,-0.523438 -0.14453,-0.945313 -0.4336,-1.265625 -0.28124,-0.328126 -0.66797,-0.492188 -1.16015,-0.492188 z m 13.875,0 c -0.38282,0 -0.73047,0.05469 -1.04297,0.164063 -0.30469,0.101562 -0.625,0.277343 -0.96094,0.527343 -0.33594,0.25 -0.83594,0.710938 -1.5,1.382813 l 0.66797,0.65625 c 0.46875,-0.523437 0.83594,-0.882812 1.10156,-1.078125 0.27344,-0.203125 0.53125,-0.304688 0.77344,-0.304688 0.21875,0 0.3789,0.07031 0.48047,0.210938 0.10156,0.140625 0.15234,0.367188 0.15234,0.679688 0,0.351562 -0.10547,0.953124 -0.3164,1.804687 l -0.76172,3.070313 c -0.22657,0.906249 -0.33985,1.605468 -0.33985,2.097656 0,0.742187 0.19532,1.324219 0.58594,1.746094 0.39063,0.414062 0.94922,0.621093 1.67578,0.621093 0.72657,0 1.4336,-0.257813 2.1211,-0.773437 0.6953,-0.515626 1.42968,-1.316407 2.20312,-2.402344 l 0.14063,0.04687 c -0.1875,0.5 -0.28125,0.960938 -0.28125,1.382813 0,0.53125 0.14453,0.957031 0.43359,1.277343 0.28906,0.320313 0.67578,0.480469 1.16016,0.480469 0.5625,0 1.09375,-0.15625 1.59375,-0.46875 0.5,-0.3125 1.10547,-0.847656 1.8164,-1.605469 l -0.66797,-0.65625 c -0.48437,0.539063 -0.85937,0.90625 -1.125,1.101563 -0.26562,0.1875 -0.51562,0.28125 -0.75,0.28125 -0.21874,0 -0.3789,-0.07031 -0.48046,-0.210938 -0.10156,-0.140624 -0.15235,-0.367187 -0.15235,-0.679687 0,-0.40625 0.0859,-0.984375 0.25781,-1.734375 l 1.71094,-7.429688 h -2.02734 l -1.11328,5.074219 c -0.16407,0.726563 -0.375,1.339844 -0.63282,1.839844 -0.25781,0.492187 -0.60156,1.003906 -1.03125,1.535156 -0.42187,0.523437 -0.82421,0.917968 -1.20703,1.183594 -0.375,0.257812 -0.72656,0.386719 -1.05468,0.386719 -0.40625,0 -0.69922,-0.117188 -0.87891,-0.351563 -0.17969,-0.242187 -0.26953,-0.632812 -0.26953,-1.171875 0,-0.140625 0.0118,-0.316406 0.0351,-0.527344 0.0313,-0.210937 0.0742,-0.460937 0.12891,-0.75 0.0625,-0.289062 0.16016,-0.691406 0.29297,-1.207031 l 0.51562,-2.027344 c 0.24219,-0.921874 0.3633,-1.691405 0.3633,-2.308593 0,-0.570313 -0.14455,-1.023438 -0.43361,-1.359376 -0.28906,-0.335937 -0.68358,-0.503906 -1.18358,-0.503906 z m 13.6875,0 c -0.59376,0 -1.14063,0.167968 -1.64063,0.503906 C 263.71289,6.257812 263.12304,6.78125 262.43554,7.5 l 0.66798,0.65625 c 0.46875,-0.523437 0.83593,-0.882812 1.10156,-1.078125 0.27344,-0.203125 0.53125,-0.304688 0.77344,-0.304688 0.21875,0 0.37889,0.07031 0.48047,0.210938 0.10156,0.140625 0.15234,0.367188 0.15234,0.679688 0,0.40625 -0.0859,0.984374 -0.25781,1.734374 l -1.71094,7.429688 h 2.02735 l 1.11327,-5.074219 c 0.16407,-0.71875 0.36719,-1.328125 0.60938,-1.828125 0.24219,-0.5 0.57812,-1.019531 1.00781,-1.558594 0.42969,-0.546874 0.83203,-0.941406 1.20703,-1.183593 0.3828,-0.25 0.72265,-0.375 1.01953,-0.375 0.42187,0 0.73047,0.121094 0.92578,0.363281 0.20313,0.234375 0.30469,0.632812 0.30469,1.195312 0,0.25 -0.0313,0.550782 -0.0937,0.902344 -0.0547,0.34375 -0.16407,0.878906 -0.32813,1.605469 l -1.3477,5.953125 h 2.02734 l 1.06641,-5.121094 c 0.15625,-0.726562 0.36328,-1.339844 0.62109,-1.839844 0.26563,-0.507812 0.60547,-1.01953 1.01953,-1.535156 0.41406,-0.523437 0.80859,-0.90625 1.18359,-1.148437 0.375,-0.25 0.72657,-0.375 1.05469,-0.375 0.40626,0 0.69922,0.121094 0.87891,0.363281 0.17968,0.234375 0.26953,0.621094 0.26953,1.160156 0,0.21875 -0.0313,0.503906 -0.0937,0.855469 -0.0547,0.351563 -0.17578,0.894532 -0.36328,1.628906 l -0.51563,2.027344 c -0.25781,0.984375 -0.38672,1.730469 -0.38672,2.238281 0,0.5625 0.15235,1.027344 0.45704,1.394532 0.30469,0.359375 0.71094,0.539062 1.21875,0.539062 0.64062,0 1.21093,-0.167969 1.71093,-0.503906 0.5,-0.335938 1.08594,-0.859375 1.75782,-1.570313 l -0.66797,-0.65625 c -0.48438,0.539063 -0.85938,0.90625 -1.125,1.101563 -0.26563,0.1875 -0.51563,0.28125 -0.75,0.28125 -0.21876,0 -0.37891,-0.07031 -0.48047,-0.210938 -0.10157,-0.140624 -0.15235,-0.367187 -0.15235,-0.679687 0,-0.351563 0.10547,-0.953125 0.31641,-1.804688 l 0.76172,-3.070312 c 0.22656,-0.90625 0.33984,-1.605468 0.33984,-2.097657 0,-0.749999 -0.19531,-1.332031 -0.58593,-1.746093 -0.39062,-0.414063 -0.94531,-0.621094 -1.66407,-0.621094 -0.71874,0 -1.41405,0.234375 -2.08593,0.703125 -0.66406,0.460937 -1.33204,1.167968 -2.00391,2.121094 0.008,-0.0625 0.0117,-0.121095 0.0117,-0.175782 V 7.921875 c 0,-0.804687 -0.19531,-1.417968 -0.58594,-1.839844 -0.39063,-0.429687 -0.96094,-0.644531 -1.71094,-0.644531 -0.72656,0 -1.44531,0.261719 -2.15625,0.785156 -0.71093,0.515626 -1.42577,1.308595 -2.14453,2.378907 l -0.14062,-0.04688 c 0.17968,-0.484374 0.26953,-0.941406 0.26953,-1.371093 0,-0.523438 -0.14453,-0.945313 -0.4336,-1.265625 -0.28124,-0.328126 -0.66797,-0.492188 -1.16015,-0.492188 z m 37.3125,0 c -0.96094,0 -1.86719,0.210937 -2.71875,0.632813 -0.85157,0.414062 -1.58203,1.003906 -2.19141,1.769531 -0.60937,0.757813 -1.06641,1.617188 -1.37109,2.578125 -0.29688,0.953125 -0.44531,1.847656 -0.44531,2.683594 0,1.234374 0.30858,2.199218 0.92578,2.894531 0.625,0.6875 1.50391,1.03125 2.63672,1.03125 1.03125,0 1.93359,-0.210937 2.70703,-0.632812 0.78124,-0.421875 1.55078,-1.050782 2.30859,-1.886719 l -0.72656,-0.761719 c -0.64844,0.648437 -1.26562,1.128906 -1.85156,1.441406 -0.57812,0.3125 -1.22656,0.46875 -1.94532,0.46875 -0.72656,0 -1.25,-0.183594 -1.57031,-0.550781 -0.32031,-0.375 -0.48047,-0.972656 -0.48047,-1.792969 0,-0.546874 0.0469,-1.054687 0.14063,-1.523437 2.45312,0 4.30078,-0.332031 5.54297,-0.996094 1.25,-0.664063 1.875,-1.660157 1.875,-2.988281 0,-0.8125 -0.23829,-1.410156 -0.71485,-1.792969 -0.46874,-0.382813 -1.17578,-0.574219 -2.12109,-0.574219 z m 7.6289,0 c -0.58593,0 -1.12108,0.160156 -1.60546,0.480469 C 308.69726,6.21875 308.09569,6.75 307.37695,7.5 l 0.66797,0.65625 c 0.46874,-0.523437 0.83593,-0.882812 1.10156,-1.078125 0.27343,-0.203125 0.53124,-0.304688 0.77344,-0.304688 0.21874,0 0.37891,0.07031 0.48047,0.210938 0.10156,0.140625 0.15234,0.367188 0.15234,0.679688 0,0.171875 -0.0156,0.386718 -0.0469,0.644531 -0.0312,0.257812 -0.10156,0.621093 -0.21093,1.089843 l -1.6992,7.429688 h 2.02734 l 1.11328,-5.074219 c 0.16407,-0.734374 0.36719,-1.339843 0.60938,-1.816406 0.25,-0.476563 0.58203,-0.972657 0.99609,-1.488281 0.41406,-0.515626 0.78516,-0.894532 1.11328,-1.136719 0.33594,-0.242187 0.64454,-0.363281 0.92578,-0.363281 0.17969,0 0.32812,0.03516 0.44532,0.105468 0.11718,0.07031 0.21875,0.195313 0.30468,0.375 0.086,0.179688 0.15236,0.433595 0.19922,0.761719 h 1.20703 l 0.5625,-2.625 C 317.71679,5.480466 317.24022,5.4375 316.66992,5.4375 c -0.72657,0 -1.44532,0.242187 -2.15625,0.726563 -0.70313,0.484374 -1.4375,1.246093 -2.20313,2.285156 l -0.15234,-0.05859 c 0.14843,-0.414063 0.22265,-0.816407 0.22265,-1.207031 0,-0.523438 -0.14453,-0.945313 -0.43359,-1.265625 -0.28125,-0.328126 -0.66797,-0.492188 -1.16016,-0.492188 z m 52.92579,0 c -1.13281,0 -2.16016,0.359375 -3.08204,1.078125 -0.92187,0.710938 -1.64844,1.6875 -2.17968,2.929688 -0.52344,1.234374 -0.78516,2.523437 -0.78516,3.867187 0,1.171876 0.23438,2.082032 0.70313,2.730469 0.47656,0.648437 1.14453,0.972656 2.0039,0.972656 0.75,0 1.46094,-0.253906 2.13281,-0.761719 0.67188,-0.507811 1.38282,-1.308593 2.13282,-2.402343 l 0.15234,0.04687 c -0.17969,0.484374 -0.26953,0.941406 -0.26953,1.371094 0,0.53125 0.14453,0.957031 0.43359,1.277343 0.28907,0.320313 0.67579,0.480469 1.16016,0.480469 0.57813,0 1.11328,-0.15625 1.60547,-0.46875 0.5,-0.320313 1.10157,-0.855469 1.80469,-1.605469 l -0.66797,-0.65625 c -0.48438,0.539063 -0.85938,0.90625 -1.125,1.101563 -0.26563,0.1875 -0.51563,0.28125 -0.75,0.28125 -0.21876,0 -0.37891,-0.07031 -0.48047,-0.210938 -0.10157,-0.140624 -0.15235,-0.367187 -0.15235,-0.679687 0,-0.414063 0.0859,-0.992188 0.25782,-1.734375 l 1.72265,-7.429688 -0.75,-0.1875 -1.07812,0.773438 c -0.46876,-0.289063 -0.92578,-0.488282 -1.3711,-0.597656 -0.4375,-0.117188 -0.91015,-0.175782 -1.41796,-0.175782 z m 26.82812,0 c -1.13281,0 -2.16016,0.359375 -3.08203,1.078125 -0.92187,0.710938 -1.64843,1.6875 -2.17969,2.929688 -0.52344,1.234374 -0.78515,2.523437 -0.78515,3.867187 0,1.171876 0.23438,2.082032 0.70313,2.730469 0.47656,0.648437 1.14452,0.972656 2.00391,0.972656 0.75,0 1.46094,-0.253906 2.13281,-0.761719 0.67187,-0.507811 1.38281,-1.308593 2.13281,-2.402343 l 0.15235,0.04687 c -0.17969,0.484374 -0.26954,0.941406 -0.26954,1.371094 0,0.53125 0.14453,0.957031 0.4336,1.277343 0.28906,0.320313 0.67578,0.480469 1.16015,0.480469 0.57813,0 1.11329,-0.15625 1.60547,-0.46875 0.5,-0.320313 1.10156,-0.855469 1.80469,-1.605469 l -0.66797,-0.65625 c -0.48437,0.539063 -0.85937,0.90625 -1.125,1.101563 -0.26562,0.1875 -0.51562,0.28125 -0.75,0.28125 -0.21874,0 -0.3789,-0.07031 -0.48047,-0.210938 -0.10156,-0.140624 -0.15234,-0.367187 -0.15234,-0.679687 0,-0.414063 0.0859,-0.992188 0.25781,-1.734375 l 1.72266,-7.429688 -0.75,-0.1875 -1.07813,0.773438 C 392.86134,5.910151 392.4043,5.710932 391.95899,5.601558 391.52149,5.48437 391.04883,5.425776 390.54102,5.425776 Z m 9.77344,0 c -0.59376,0 -1.13672,0.164062 -1.62891,0.492188 -0.48437,0.320312 -1.07812,0.847656 -1.78125,1.582031 l 0.66797,0.65625 c 0.46875,-0.523437 0.83594,-0.882812 1.10156,-1.078125 0.27344,-0.203125 0.53125,-0.304687 0.77344,-0.304688 0.21875,0 0.3789,0.07031 0.48047,0.210938 0.10156,0.140625 0.15234,0.367188 0.15234,0.679688 0,0.460938 -0.082,1.050781 -0.24609,1.769531 l -2.82422,12.433593 h 3.62109 l 0.0937,-0.574218 C 400.21674,21.246089 399.87299,21.148437 399.6933,21 c -0.17187,-0.140625 -0.25781,-0.382813 -0.25781,-0.726563 0,-0.359374 0.0586,-0.816406 0.17578,-1.371093 l 0.53907,-2.566407 c 0.6875,0.453126 1.55077,0.679688 2.58984,0.679688 1.14063,0 2.17188,-0.363281 3.09375,-1.089844 0.92187,-0.734374 1.64062,-1.722655 2.15625,-2.964844 0.52343,-1.25 0.78516,-2.519531 0.78516,-3.808593 0,-1.179688 -0.23829,-2.09375 -0.71485,-2.742188 -0.46874,-0.648437 -1.1289,-0.972656 -1.98047,-0.972656 -1.42968,0 -2.86718,1.058594 -4.3125,3.175781 l -0.14062,-0.04687 c 0.17968,-0.484374 0.26953,-0.945312 0.26953,-1.382812 0,-0.53125 -0.14453,-0.957031 -0.43359,-1.277344 -0.28125,-0.320313 -0.66407,-0.480469 -1.14844,-0.480469 z m 13.40625,0 c -0.59376,0 -1.13672,0.164062 -1.62891,0.492188 -0.48437,0.320312 -1.07812,0.847656 -1.78125,1.582031 l 0.66797,0.65625 c 0.46875,-0.523437 0.83594,-0.882812 1.10156,-1.078125 0.27344,-0.203125 0.53125,-0.304687 0.77344,-0.304688 0.21875,0 0.3789,0.07031 0.48047,0.210938 0.10156,0.140625 0.15234,0.367188 0.15234,0.679688 0,0.460938 -0.082,1.050781 -0.24609,1.769531 l -2.82422,12.433593 h 3.62109 l 0.0937,-0.574218 C 413.62299,21.246089 413.27924,21.148437 413.09955,21 c -0.17187,-0.140625 -0.25781,-0.382813 -0.25781,-0.726563 0,-0.359374 0.0586,-0.816406 0.17578,-1.371093 l 0.53907,-2.566407 c 0.6875,0.453126 1.55077,0.679688 2.58984,0.679688 1.14063,0 2.17188,-0.363281 3.09375,-1.089844 0.92187,-0.734374 1.64062,-1.722655 2.15625,-2.964844 0.52343,-1.25 0.78516,-2.519531 0.78516,-3.808593 0,-1.179688 -0.23829,-2.09375 -0.71485,-2.742188 C 420.998,5.761719 420.33784,5.4375 419.48627,5.4375 c -1.42968,0 -2.86718,1.058594 -4.3125,3.175781 l -0.14062,-0.04687 c 0.17968,-0.484374 0.26953,-0.945312 0.26953,-1.382812 0,-0.53125 -0.14453,-0.957031 -0.43359,-1.277344 -0.28125,-0.320313 -0.66407,-0.480469 -1.14844,-0.480469 z m 17.67187,0 c -0.96093,0 -1.86718,0.210937 -2.71875,0.632813 -0.85156,0.414062 -1.58203,1.003906 -2.1914,1.769531 -0.60938,0.757813 -1.06641,1.617188 -1.3711,2.578125 -0.29687,0.953125 -0.44531,1.847656 -0.44531,2.683594 0,1.234374 0.3086,2.199218 0.92578,2.894531 0.625,0.6875 1.50391,1.03125 2.63672,1.03125 1.03125,0 1.93359,-0.210937 2.70703,-0.632812 0.78126,-0.421875 1.55079,-1.050782 2.3086,-1.886719 l -0.72657,-0.761719 c -0.64843,0.648437 -1.26562,1.128906 -1.85156,1.441406 -0.57813,0.3125 -1.22657,0.46875 -1.94531,0.46875 -0.72657,0 -1.25,-0.183594 -1.57031,-0.550781 -0.32031,-0.375 -0.48047,-0.972656 -0.48047,-1.792969 0,-0.546874 0.0469,-1.054687 0.14062,-1.523437 2.45313,0 4.30078,-0.332031 5.54297,-0.996094 1.25,-0.664063 1.875,-1.660157 1.875,-2.988281 0,-0.8125 -0.23828,-1.410156 -0.71484,-1.792969 -0.46876,-0.382813 -1.17578,-0.574219 -2.1211,-0.574219 z m 11.22657,0 c -1.13281,0 -2.16016,0.359375 -3.08204,1.078125 -0.92187,0.710938 -1.64844,1.6875 -2.17968,2.929688 -0.52344,1.234374 -0.78516,2.523437 -0.78516,3.867187 0,1.171876 0.23438,2.082032 0.70313,2.730469 0.47656,0.648437 1.14453,0.972656 2.0039,0.972656 0.75,0 1.46094,-0.253906 2.13281,-0.761719 0.67188,-0.507811 1.38282,-1.308593 2.13282,-2.402343 l 0.15234,0.04687 c -0.17969,0.484374 -0.26953,0.941406 -0.26953,1.371094 0,0.53125 0.14453,0.957031 0.43359,1.277343 0.28907,0.320313 0.67579,0.480469 1.16016,0.480469 0.57813,0 1.11328,-0.15625 1.60547,-0.46875 0.5,-0.320313 1.10157,-0.855469 1.80469,-1.605469 l -0.66797,-0.65625 c -0.48438,0.539063 -0.85938,0.90625 -1.125,1.101563 -0.26563,0.1875 -0.51563,0.28125 -0.75,0.28125 -0.21876,0 -0.37891,-0.07031 -0.48047,-0.210938 -0.10157,-0.140624 -0.15235,-0.367187 -0.15235,-0.679687 0,-0.414063 0.0859,-0.992188 0.25782,-1.734375 l 1.72265,-7.429688 -0.75,-0.1875 -1.07812,0.773438 C 444.93944,5.910151 444.48242,5.710932 444.0371,5.601558 443.5996,5.48437 443.12695,5.425776 442.61914,5.425776 Z m 9.76171,0 c -0.58593,0 -1.12108,0.160156 -1.60546,0.480469 C 450.29101,6.21875 449.68944,6.75 448.9707,7.5 l 0.66797,0.65625 c 0.46874,-0.523437 0.83593,-0.882812 1.10156,-1.078125 0.27343,-0.203125 0.53124,-0.304688 0.77344,-0.304688 0.21874,0 0.37891,0.07031 0.48047,0.210938 0.10156,0.140625 0.15234,0.367188 0.15234,0.679688 0,0.171875 -0.0156,0.386718 -0.0469,0.644531 -0.0312,0.257812 -0.10156,0.621093 -0.21093,1.089843 l -1.6992,7.429688 h 2.02734 l 1.11328,-5.074219 c 0.16407,-0.734374 0.36719,-1.339843 0.60938,-1.816406 0.25,-0.476563 0.58203,-0.972657 0.99609,-1.488281 0.41406,-0.515626 0.78516,-0.894532 1.11328,-1.136719 0.33594,-0.242187 0.64454,-0.363281 0.92578,-0.363281 0.17969,0 0.32812,0.03516 0.44532,0.105468 0.11718,0.07031 0.21875,0.195313 0.30468,0.375 0.086,0.179688 0.15236,0.433595 0.19922,0.761719 h 1.20703 l 0.5625,-2.625 C 459.31054,5.480466 458.83397,5.4375 458.26367,5.4375 c -0.72657,0 -1.44532,0.242187 -2.15625,0.726563 -0.70313,0.484374 -1.4375,1.246093 -2.20313,2.285156 l -0.15234,-0.05859 c 0.14843,-0.414063 0.22265,-0.816407 0.22265,-1.207031 0,-0.523438 -0.14453,-0.945313 -0.43359,-1.265625 -0.28125,-0.328126 -0.66797,-0.492188 -1.16016,-0.492188 z m 15.71485,0 c -0.96094,0 -1.86719,0.210937 -2.71875,0.632813 -0.85157,0.414062 -1.58203,1.003906 -2.19141,1.769531 -0.60937,0.757813 -1.06641,1.617188 -1.37109,2.578125 -0.29688,0.953125 -0.44531,1.847656 -0.44531,2.683594 0,1.234374 0.30858,2.199218 0.92578,2.894531 0.625,0.6875 1.50391,1.03125 2.63672,1.03125 1.03125,0 1.93359,-0.210937 2.70703,-0.632812 0.78124,-0.421875 1.55078,-1.050782 2.30859,-1.886719 l -0.72656,-0.761719 c -0.64844,0.648437 -1.26562,1.128906 -1.85156,1.441406 -0.57812,0.3125 -1.22656,0.46875 -1.94532,0.46875 -0.72656,0 -1.25,-0.183594 -1.57031,-0.550781 -0.32031,-0.375 -0.48047,-0.972656 -0.48047,-1.792969 0,-0.546874 0.0469,-1.054687 0.14063,-1.523437 2.45312,0 4.30078,-0.332031 5.54297,-0.996094 1.25,-0.664063 1.875,-1.660157 1.875,-2.988281 0,-0.8125 -0.23829,-1.410156 -0.71485,-1.792969 -0.46874,-0.382813 -1.17578,-0.574219 -2.12109,-0.574219 z m 48.23047,0 c -0.96094,0 -1.86719,0.210937 -2.71875,0.632813 -0.85157,0.414062 -1.58204,1.003906 -2.19141,1.769531 -0.60937,0.757813 -1.06641,1.617188 -1.37109,2.578125 -0.29688,0.953125 -0.44532,1.847656 -0.44532,2.683594 0,1.234374 0.3086,2.199218 0.92579,2.894531 0.625,0.6875 1.5039,1.03125 2.63671,1.03125 1.03125,0 1.9336,-0.210937 2.70704,-0.632812 0.78124,-0.421875 1.55078,-1.050782 2.30859,-1.886719 l -0.72656,-0.761719 c -0.64844,0.648437 -1.26563,1.128906 -1.85157,1.441406 -0.57812,0.3125 -1.22655,0.46875 -1.94531,0.46875 -0.72656,0 -1.25,-0.183594 -1.57031,-0.550781 -0.3203,-0.375 -0.48046,-0.972656 -0.48046,-1.792969 0,-0.546874 0.0469,-1.054687 0.14062,-1.523437 2.45313,0 4.30077,-0.332031 5.54296,-0.996094 1.25,-0.664063 1.875,-1.660157 1.875,-2.988281 0,-0.8125 -0.23827,-1.410156 -0.71483,-1.792969 -0.46875,-0.382813 -1.17579,-0.574219 -2.1211,-0.574219 z m 33.64453,0 c -0.58594,0 -1.1211,0.160156 -1.60547,0.480469 C 547.88086,6.21875 547.27931,6.75 546.56054,7.5 l 0.66797,0.65625 c 0.46875,-0.523437 0.83594,-0.882812 1.10156,-1.078125 0.27344,-0.203125 0.53125,-0.304688 0.77344,-0.304688 0.21875,0 0.37891,0.07031 0.48047,0.210938 0.10156,0.140625 0.15234,0.367188 0.15234,0.679688 0,0.171875 -0.0156,0.386718 -0.0469,0.644531 -0.0313,0.257812 -0.10157,0.621093 -0.21094,1.089843 l -1.69918,7.429688 h 2.02734 l 1.11329,-5.074219 c 0.16405,-0.734374 0.36719,-1.339843 0.60937,-1.816406 0.25,-0.476563 0.58203,-0.972657 0.99609,-1.488281 0.41406,-0.515626 0.78516,-0.894532 1.11329,-1.136719 0.33592,-0.242187 0.64451,-0.363281 0.92578,-0.363281 0.17968,0 0.32812,0.03516 0.44531,0.105468 0.11719,0.07031 0.21875,0.195313 0.30469,0.375 0.0859,0.179688 0.15235,0.433595 0.19922,0.761719 h 1.20703 l 0.5625,-2.625 C 556.90039,5.480466 556.42383,5.4375 555.85352,5.4375 c -0.72656,0 -1.44531,0.242187 -2.15625,0.726563 -0.70313,0.484374 -1.4375,1.246093 -2.20313,2.285156 l -0.15234,-0.05859 c 0.14844,-0.414063 0.22266,-0.816407 0.22266,-1.207031 0,-0.523438 -0.14454,-0.945313 -0.4336,-1.265625 -0.28125,-0.328126 -0.66797,-0.492188 -1.16015,-0.492188 z m 15.71484,0 c -0.96093,0 -1.86718,0.210937 -2.71875,0.632813 -0.85156,0.414062 -1.58203,1.003906 -2.1914,1.769531 -0.60938,0.757813 -1.06641,1.617188 -1.3711,2.578125 -0.29687,0.953125 -0.44531,1.847656 -0.44531,2.683594 0,1.234374 0.30859,2.199218 0.92579,2.894531 0.625,0.6875 1.50391,1.03125 2.63671,1.03125 1.03125,0 1.9336,-0.210937 2.70704,-0.632812 0.78125,-0.421875 1.55078,-1.050782 2.30858,-1.886719 l -0.72655,-0.761719 c -0.64843,0.648437 -1.26562,1.128906 -1.85156,1.441406 -0.57813,0.3125 -1.22657,0.46875 -1.94531,0.46875 -0.72657,0 -1.25001,-0.183594 -1.57032,-0.550781 -0.32031,-0.375 -0.48046,-0.972656 -0.48046,-1.792969 0,-0.546874 0.0469,-1.054687 0.14062,-1.523437 2.45313,0 4.30078,-0.332031 5.54297,-0.996094 1.25,-0.664063 1.875,-1.660157 1.875,-2.988281 0,-0.8125 -0.23828,-1.410156 -0.71484,-1.792969 -0.46876,-0.382813 -1.17578,-0.574219 -2.12111,-0.574219 z m -422.29101,0.01172 c -0.91407,0 -1.77344,0.1875 -2.57813,0.5625 -0.80469,0.375 -1.50781,0.941406 -2.10937,1.699219 -0.60157,0.757812 -1.0586,1.636718 -1.3711,2.636718 -0.3125,1 -0.46875,1.917969 -0.46875,2.753907 0,1.28125 0.29297,2.257813 0.87891,2.929687 0.58594,0.671876 1.44531,1.007813 2.57812,1.007813 0.85938,0 1.66016,-0.1875 2.40235,-0.5625 0.75,-0.375 1.49219,-0.96875 2.22656,-1.78125 l -0.71484,-0.714844 c -0.57813,0.578125 -1.12891,1.003906 -1.65235,1.277344 -0.51562,0.265624 -1.1289,0.398437 -1.83984,0.398437 -0.625,0 -1.09375,-0.191406 -1.40625,-0.574218 -0.3125,-0.390625 -0.46875,-0.984375 -0.46875,-1.78125 0,-1.0625 0.19922,-2.167969 0.59765,-3.316407 0.39844,-1.15625 0.91016,-2.046875 1.53516,-2.671875 0.63281,-0.632812 1.34375,-0.949219 2.13281,-0.949218 0.33594,0 0.59375,0.06641 0.77344,0.199218 0.1875,0.132813 0.32031,0.332032 0.39844,0.597656 0.086,0.265626 0.13674,0.695313 0.15234,1.289063 h 1.23047 l 0.57422,-2.648437 c -0.875,-0.234376 -1.83203,-0.351563 -2.87109,-0.351563 z m 10.95703,0 c -1,0 -1.91797,0.222656 -2.75391,0.667969 -0.83593,0.4375 -1.53906,1.070313 -2.10937,1.898437 -0.57032,0.828126 -0.97657,1.796876 -1.21875,2.90625 -0.1875,0.820313 -0.28125,1.542969 -0.28125,2.167969 0,1.273437 0.33203,2.25 0.99609,2.929688 0.67187,0.679687 1.61328,1.019531 2.82422,1.019531 0.99219,0 1.87109,-0.175781 2.63672,-0.527344 0.76562,-0.359375 1.42187,-0.890625 1.96875,-1.59375 0.55468,-0.703125 0.98828,-1.570313 1.30078,-2.601563 0.32031,-1.03125 0.48047,-2 0.48047,-2.90625 0,-1.273437 -0.32812,-2.25 -0.98438,-2.929687 -0.65624,-0.6875 -1.60937,-1.03125 -2.85937,-1.03125 z m 55.85742,0 c -1,0 -1.91797,0.222656 -2.75391,0.667969 -0.83593,0.4375 -1.53906,1.070313 -2.10937,1.898437 -0.57032,0.828126 -0.97657,1.796876 -1.21875,2.90625 -0.1875,0.820313 -0.28125,1.542969 -0.28125,2.167969 0,1.273437 0.33203,2.25 0.99609,2.929688 0.67188,0.679687 1.61328,1.019531 2.82422,1.019531 0.99219,0 1.87109,-0.175781 2.63672,-0.527344 0.76563,-0.359375 1.42188,-0.890625 1.96875,-1.59375 0.55469,-0.703125 0.98828,-1.570313 1.30078,-2.601563 0.32031,-1.03125 0.48047,-2 0.48047,-2.90625 0,-1.273437 -0.32812,-2.25 -0.98438,-2.929687 -0.65624,-0.6875 -1.60937,-1.03125 -2.85937,-1.03125 z m 114.875,0 c -0.82031,0 -1.53906,0.125 -2.15625,0.375 -0.61719,0.25 -1.09375,0.609375 -1.42969,1.078125 -0.32812,0.460937 -0.49219,1 -0.49219,1.617188 0,0.453125 0.0859,0.855468 0.25782,1.207031 0.17187,0.34375 0.42578,0.664063 0.76172,0.960937 0.34375,0.296876 0.82031,0.628907 1.42968,0.996094 0.57813,0.351563 1,0.644532 1.26563,0.878906 0.26562,0.234376 0.45702,0.48047 0.57422,0.738282 0.11718,0.25 0.17578,0.550781 0.17578,0.902343 0,0.609376 -0.21093,1.082032 -0.63281,1.417969 -0.41406,0.328125 -0.99219,0.492188 -1.73438,0.492188 -0.85156,0 -1.47265,-0.191407 -1.86328,-0.574219 -0.39061,-0.382814 -0.60155,-0.94922 -0.63281,-1.69922 h -0.91407 l -0.5625,2.554688 c 0.76563,0.234375 1.46094,0.398437 2.08594,0.492187 0.625,0.101563 1.26173,0.152344 1.91016,0.152344 0.8125,0 1.53515,-0.121093 2.16798,-0.363281 0.64062,-0.242188 1.14452,-0.609376 1.51172,-1.101563 0.375,-0.5 0.5625,-1.097656 0.5625,-1.792969 0,-0.382812 -0.0391,-0.707031 -0.11719,-0.972656 -0.0781,-0.273437 -0.20313,-0.531249 -0.375,-0.773438 -0.17188,-0.242187 -0.40625,-0.484375 -0.70313,-0.726562 -0.29687,-0.25 -0.6914,-0.523437 -1.18359,-0.820312 -0.625,-0.375 -1.08594,-0.691407 -1.38281,-0.949219 -0.29688,-0.257813 -0.4961,-0.492188 -0.59766,-0.703125 -0.0937,-0.21875 -0.14062,-0.46875 -0.14062,-0.75 0,-0.515626 0.1914,-0.929688 0.57421,-1.242188 0.38282,-0.320312 0.88282,-0.480469 1.5,-0.480468 0.79688,0 1.37891,0.179687 1.7461,0.539062 0.375,0.359375 0.60547,0.886719 0.6914,1.582031 h 0.94922 l 0.52735,-2.460937 C 328.26367,5.800781 327.66602,5.652344 327.06446,5.566406 326.4707,5.480466 325.81055,5.4375 325.08398,5.437501 Z m 216.0625,0 c -1,0 -1.91797,0.222656 -2.75391,0.667969 -0.83593,0.4375 -1.53906,1.070313 -2.10937,1.898437 -0.57032,0.828126 -0.97657,1.796876 -1.21875,2.90625 -0.1875,0.820313 -0.28125,1.542969 -0.28125,2.167969 0,1.273437 0.33203,2.25 0.99609,2.929688 0.67188,0.679687 1.61329,1.019531 2.82422,1.019531 0.99219,0 1.87109,-0.175781 2.63672,-0.527344 0.76563,-0.359375 1.42188,-0.890625 1.96875,-1.59375 0.55469,-0.703125 0.98828,-1.570313 1.30078,-2.601563 0.32031,-1.03125 0.48047,-2 0.48047,-2.90625 0,-1.273437 -0.32813,-2.25 -0.98438,-2.929687 -0.65625,-0.6875 -1.60937,-1.03125 -2.85937,-1.03125 z M 302.73633,6.351563 c 0.4375,0 0.76562,0.136718 0.98437,0.410156 0.22657,0.265624 0.33984,0.636718 0.33984,1.113281 0,0.710937 -0.21094,1.277343 -0.63281,1.699219 -0.42187,0.414062 -1.02734,0.71875 -1.81641,0.914062 -0.78906,0.1875 -1.73437,0.285156 -2.83593,0.292969 0.39062,-1.359375 0.94921,-2.4375 1.67578,-3.234375 0.73437,-0.796875 1.49609,-1.195312 2.28516,-1.195312 z m 61.21094,0 c 0.61718,0 1.05468,0.140624 1.3125,0.421874 0.25781,0.28125 0.38672,0.722657 0.38672,1.324219 0,0.273438 -0.0117,0.527344 -0.0352,0.761719 -0.0234,0.234375 -0.0703,0.511719 -0.14062,0.832031 l -0.10547,0.503907 c -0.21875,1.078125 -0.59375,2.03125 -1.125,2.859374 -0.52344,0.820313 -1.03517,1.453125 -1.53517,1.898438 -0.49218,0.445313 -0.99608,0.667969 -1.51172,0.667969 -0.52343,0 -0.89843,-0.199219 -1.125,-0.597657 -0.21874,-0.40625 -0.32812,-1.015624 -0.32812,-1.828124 0,-1.085938 0.17969,-2.171876 0.53906,-3.257813 0.35938,-1.09375 0.85938,-1.964844 1.5,-2.613281 0.64063,-0.648438 1.36328,-0.972657 2.16797,-0.972656 z m 26.82812,0 c 0.61719,0 1.05469,0.140624 1.3125,0.421874 0.25781,0.28125 0.38671,0.722657 0.38671,1.324219 0,0.273438 -0.0118,0.527344 -0.0351,0.761719 -0.0234,0.234375 -0.0703,0.511719 -0.14063,0.832031 l -0.10547,0.503907 c -0.21874,1.078125 -0.59374,2.03125 -1.125,2.859374 -0.52343,0.820313 -1.03515,1.453125 -1.53515,1.898438 -0.49219,0.445313 -0.99608,0.667969 -1.51172,0.667969 -0.52344,0 -0.89844,-0.199219 -1.125,-0.597657 -0.21875,-0.40625 -0.32813,-1.015624 -0.32813,-1.828124 0,-1.085938 0.17969,-2.171876 0.53907,-3.257813 0.35937,-1.09375 0.85937,-1.964844 1.5,-2.613281 0.64062,-0.648438 1.36328,-0.972657 2.16797,-0.972656 z m 40.19531,0 c 0.4375,0 0.76563,0.136718 0.98438,0.410156 0.22656,0.265624 0.33985,0.636718 0.33985,1.113281 0,0.710937 -0.21094,1.277343 -0.63282,1.699219 -0.42187,0.414062 -1.02734,0.71875 -1.8164,0.914062 -0.78907,0.1875 -1.73438,0.285156 -2.83594,0.292969 0.39063,-1.359375 0.94922,-2.4375 1.67578,-3.234375 0.73438,-0.796875 1.49609,-1.195312 2.28515,-1.195312 z m 11.88282,0 c 0.61718,0 1.05468,0.140624 1.3125,0.421874 0.25781,0.28125 0.38672,0.722657 0.38672,1.324219 0,0.273438 -0.0117,0.527344 -0.0352,0.761719 -0.0234,0.234375 -0.0703,0.511719 -0.14062,0.832031 l -0.10547,0.503907 c -0.21875,1.078125 -0.59375,2.03125 -1.125,2.859374 -0.52344,0.820313 -1.03517,1.453125 -1.53517,1.898438 -0.49218,0.445313 -0.99608,0.667969 -1.51172,0.667969 -0.52343,0 -0.89843,-0.199219 -1.125,-0.597657 -0.21874,-0.40625 -0.32812,-1.015624 -0.32812,-1.828124 0,-1.085938 0.17969,-2.171876 0.53906,-3.257813 0.35938,-1.09375 0.85938,-1.964844 1.5,-2.613281 0.64063,-0.648438 1.36328,-0.972657 2.16797,-0.972656 z m 24.82031,0 c 0.4375,0 0.76562,0.136718 0.98437,0.410156 0.22657,0.265624 0.33984,0.636718 0.33984,1.113281 0,0.710937 -0.21094,1.277343 -0.63281,1.699219 -0.42187,0.414062 -1.02734,0.71875 -1.81641,0.914062 -0.78906,0.1875 -1.73437,0.285156 -2.83593,0.292969 0.39062,-1.359375 0.94921,-2.4375 1.67578,-3.234375 0.73437,-0.796875 1.49609,-1.195312 2.28516,-1.195312 z m 11.85937,0 c 0.60157,0 1.03125,0.140624 1.28907,0.421874 0.25781,0.273438 0.38672,0.714845 0.38672,1.324219 0,0.5 -0.0586,1.03125 -0.17578,1.59375 l -0.10547,0.503907 c -0.13281,0.65625 -0.29297,1.21875 -0.48047,1.6875 -0.1875,0.460937 -0.39063,0.863281 -0.60938,1.207031 -0.21875,0.335937 -0.46094,0.671875 -0.72656,1.007812 -0.25781,0.335938 -0.52344,0.621094 -0.79688,0.855469 -0.26562,0.234375 -0.52343,0.40625 -0.77343,0.515625 -0.25,0.101563 -0.49609,0.152344 -0.73828,0.152344 -0.52344,0 -0.89844,-0.199219 -1.125,-0.597657 -0.21875,-0.40625 -0.32813,-1.015624 -0.32813,-1.828124 0,-1.085938 0.17969,-2.175782 0.53907,-3.269532 0.36718,-1.09375 0.86718,-1.960938 1.5,-2.601562 0.63279,-0.648438 1.34765,-0.972657 2.14452,-0.972656 z m 36.3711,0 c 0.4375,0 0.76562,0.136718 0.98438,0.410156 0.22655,0.265624 0.33984,0.636718 0.33984,1.113281 0,0.710937 -0.21095,1.277343 -0.63281,1.699219 -0.42188,0.414062 -1.02734,0.71875 -1.81641,0.914062 -0.78906,0.1875 -1.73438,0.285156 -2.83595,0.292969 0.39062,-1.359375 0.94922,-2.4375 1.67579,-3.234375 0.73438,-0.796875 1.49609,-1.195312 2.28516,-1.195312 z m 49.35938,0 c 0.4375,0 0.76563,0.136718 0.98437,0.410156 0.22657,0.265624 0.33984,0.636718 0.33984,1.113281 0,0.710937 -0.21094,1.277343 -0.63282,1.699219 -0.42187,0.414062 -1.02734,0.71875 -1.8164,0.914062 -0.78907,0.1875 -1.73438,0.285156 -2.83594,0.292969 0.39063,-1.359375 0.94922,-2.4375 1.67578,-3.234375 0.73437,-0.796875 1.49609,-1.195312 2.28517,-1.195312 z m -411.14649,0.02344 c 0.69532,0 1.20703,0.214844 1.53516,0.644531 0.32813,0.421876 0.49219,1.054688 0.49219,1.898438 0,0.9375 -0.17188,2.027344 -0.51563,3.269531 -0.34375,1.234375 -0.8125,2.195313 -1.40625,2.882813 -0.59375,0.6875 -1.27343,1.03125 -2.03906,1.03125 -0.71875,0 -1.25781,-0.203126 -1.61719,-0.609376 -0.35156,-0.414062 -0.52734,-1.05078 -0.52734,-1.910156 0,-0.914062 0.17188,-2.003906 0.51562,-3.269531 0.35157,-1.265625 0.82813,-2.238281 1.42969,-2.917969 0.60937,-0.679687 1.32031,-1.019531 2.13281,-1.019531 z m 55.85742,0 c 0.69532,0 1.20703,0.214844 1.53516,0.644531 0.32813,0.421876 0.49219,1.054688 0.49219,1.898438 0,0.9375 -0.17187,2.027344 -0.51563,3.269531 -0.34374,1.234375 -0.81249,2.195313 -1.40625,2.882813 -0.59374,0.6875 -1.27343,1.03125 -2.03906,1.03125 -0.71875,0 -1.25781,-0.203126 -1.61719,-0.609376 -0.35156,-0.414062 -0.52734,-1.05078 -0.52734,-1.910156 0,-0.914062 0.17188,-2.003906 0.51562,-3.269531 0.35157,-1.265625 0.82813,-2.238281 1.42969,-2.917969 0.60938,-0.679687 1.32031,-1.019531 2.13281,-1.019531 z m 330.9375,0 c 0.69531,0 1.20703,0.214844 1.53516,0.644531 0.32813,0.421876 0.49219,1.054688 0.49219,1.898438 0,0.9375 -0.17187,2.027344 -0.51563,3.269531 -0.34374,1.234375 -0.81249,2.195313 -1.40625,2.882813 -0.59374,0.6875 -1.27343,1.03125 -2.03906,1.03125 -0.71875,0 -1.25781,-0.203126 -1.61719,-0.609376 -0.35156,-0.414062 -0.52734,-1.05078 -0.52734,-1.910156 0,-0.914062 0.17187,-2.003906 0.51562,-3.269531 0.35156,-1.265625 0.82813,-2.238281 1.42969,-2.917969 0.60938,-0.679687 1.32031,-1.019531 2.13281,-1.019531 z M 290.43165,6.808597 c 0.50781,0 0.87499,0.203125 1.10156,0.609375 0.23437,0.40625 0.35156,1.015625 0.35156,1.828125 0,0.601562 -0.0625,1.234375 -0.1875,1.898437 -0.125,0.65625 -0.30078,1.273437 -0.52734,1.851563 -0.22657,0.578124 -0.47657,1.066406 -0.75,1.464843 -0.26563,0.390626 -0.55079,0.707032 -0.85547,0.949219 -0.29688,0.242188 -0.58985,0.417969 -0.87891,0.527344 -0.28906,0.101563 -0.59375,0.152344 -0.91406,0.152344 -0.625,0 -1.07422,-0.136719 -1.34766,-0.410157 -0.26562,-0.273437 -0.39843,-0.71875 -0.39843,-1.335937 0,-0.515625 0.0586,-1.046875 0.17578,-1.59375 l 0.10547,-0.492187 c 0.19531,-0.898438 0.43359,-1.63672 0.71484,-2.214844 0.28125,-0.578126 0.64453,-1.140626 1.08984,-1.6875 0.44531,-0.554688 0.84766,-0.949219 1.20702,-1.183594 0.36719,-0.242187 0.73829,-0.363281 1.1133,-0.363281 z m 114.8164,0 c 0.5,0 0.86329,0.203125 1.08985,0.609375 0.23438,0.398437 0.35156,1.007812 0.35156,1.828125 0,0.515624 -0.0508,1.070312 -0.15235,1.664062 -0.0937,0.585938 -0.23828,1.160157 -0.43359,1.722657 -0.1875,0.554687 -0.40234,1.042969 -0.64453,1.464843 -0.24219,0.421876 -0.51563,0.781251 -0.82031,1.078125 -0.29688,0.296876 -0.61329,0.523438 -0.94922,0.679688 -0.33594,0.15625 -0.70312,0.234375 -1.10156,0.234375 -0.64062,0 -1.09375,-0.136719 -1.35938,-0.410157 -0.25781,-0.28125 -0.38672,-0.726562 -0.38672,-1.335937 0,-0.210937 0.008,-0.425781 0.0234,-0.644531 0.0234,-0.21875 0.0742,-0.535156 0.15234,-0.949219 l 0.0937,-0.492187 c 0.14844,-0.75 0.35156,-1.414063 0.60938,-1.992188 0.25781,-0.578125 0.61719,-1.164062 1.07812,-1.757812 0.46094,-0.59375 0.88281,-1.023438 1.26563,-1.289063 0.39062,-0.273437 0.78515,-0.410156 1.18359,-0.410156 z m 13.40625,0 c 0.5,0 0.86329,0.203125 1.08985,0.609375 0.23438,0.398437 0.35156,1.007812 0.35156,1.828125 0,0.515624 -0.0508,1.070312 -0.15235,1.664062 -0.0937,0.585938 -0.23828,1.160157 -0.43359,1.722657 -0.1875,0.554687 -0.40234,1.042969 -0.64453,1.464843 -0.24219,0.421876 -0.51563,0.781251 -0.82031,1.078125 -0.29688,0.296876 -0.61329,0.523438 -0.94922,0.679688 -0.33594,0.15625 -0.70312,0.234375 -1.10156,0.234375 -0.64062,0 -1.09375,-0.136719 -1.35938,-0.410157 -0.25781,-0.28125 -0.38672,-0.726562 -0.38672,-1.335937 0,-0.210937 0.008,-0.425781 0.0234,-0.644531 0.0234,-0.21875 0.0742,-0.535156 0.15234,-0.949219 l 0.0937,-0.492187 c 0.14844,-0.75 0.35156,-1.414063 0.60938,-1.992188 0.25781,-0.578125 0.61719,-1.164062 1.07812,-1.757812 0.46094,-0.59375 0.88281,-1.023438 1.26563,-1.289063 0.39062,-0.273437 0.78515,-0.410156 1.18359,-0.410156 z m 84.94531,0 c 0.50781,0 0.875,0.203125 1.10157,0.609375 0.23437,0.40625 0.35156,1.015625 0.35156,1.828125 0,0.601562 -0.0625,1.234375 -0.1875,1.898437 -0.125,0.65625 -0.30078,1.273437 -0.52734,1.851563 -0.22657,0.578124 -0.47657,1.066406 -0.75,1.464843 -0.26563,0.390626 -0.55079,0.707032 -0.85547,0.949219 -0.29688,0.242188 -0.58984,0.417969 -0.87891,0.527344 -0.28906,0.101563 -0.59375,0.152344 -0.91406,0.152344 -0.625,0 -1.07422,-0.136719 -1.34766,-0.410157 -0.26562,-0.273437 -0.39844,-0.71875 -0.39844,-1.335937 0,-0.515625 0.0586,-1.046875 0.17579,-1.59375 l 0.10546,-0.492187 c 0.19531,-0.898438 0.43359,-1.63672 0.71485,-2.214844 0.28124,-0.578126 0.64453,-1.140626 1.08984,-1.6875 0.44532,-0.554688 0.84766,-0.949219 1.20703,-1.183594 0.3672,-0.242187 0.73828,-0.363281 1.11328,-0.363281 z M 8.144531,19.644531 c -1.0625,0 -2,0.191406 -2.8125,0.574219 -0.8125,0.382813 -1.441406,0.925782 -1.886718,1.628906 C 3,22.550782 2.777344,23.363282 2.777344,24.285156 c 0,0.578126 0.113281,1.101563 0.339843,1.570313 0.226563,0.46875 0.53125,0.894531 0.914063,1.277344 0.382812,0.375 0.863281,0.757812 1.441406,1.148437 0.640625,0.429687 1.128906,0.8125 1.464844,1.148437 0.34375,0.328126 0.597657,0.675782 0.761719,1.042969 0.171875,0.359376 0.257812,0.777344 0.257812,1.253907 0,1.03125 -0.304687,1.835937 -0.914062,2.414062 -0.609375,0.578125 -1.445313,0.867188 -2.507813,0.867188 -0.921875,0 -1.605469,-0.230469 -2.050781,-0.691407 -0.4375,-0.46875 -0.65625,-1.179688 -0.65625,-2.132812 h -1.125 L 0,35.40625 c 0.65625,0.179687 1.398438,0.328125 2.226563,0.445313 0.835937,0.117187 1.613281,0.175781 2.332031,0.175781 1.0625,0 2.007812,-0.199219 2.835937,-0.597657 0.835938,-0.40625 1.480469,-0.976562 1.933594,-1.710937 0.460937,-0.742187 0.691406,-1.589843 0.691406,-2.542969 0,-0.617187 -0.09766,-1.160156 -0.292968,-1.628906 C 9.539063,29.078125 9.242187,28.636719 8.835937,28.222656 8.4375,27.800782 7.855469,27.324219 7.089844,26.792969 6.214844,26.191406 5.621094,25.671875 5.308594,25.234375 5.003906,24.789062 4.851563,24.273437 4.851563,23.6875 c 0,-0.5625 0.128906,-1.070312 0.386718,-1.523437 0.257813,-0.460938 0.632813,-0.82422 1.125,-1.089844 0.492188,-0.265626 1.0625,-0.398438 1.710938,-0.398438 0.53125,0 0.957031,0.08203 1.277344,0.246094 0.320312,0.164063 0.566406,0.4375 0.738281,0.820312 0.171878,0.375 0.273441,0.894532 0.304687,1.558594 h 1.125 l 0.65625,-3.011718 C 11.433594,20.054688 10.753907,19.890625 10.136719,19.796875 9.527344,19.695312 8.863281,19.644531 8.144531,19.644531 Z m 60.072266,0 c -1.0625,0 -2,0.191406 -2.8125,0.574219 -0.8125,0.382813 -1.441407,0.925782 -1.886719,1.628906 -0.445313,0.703126 -0.667969,1.515626 -0.667969,2.4375 0,0.578126 0.113281,1.101563 0.339844,1.570313 0.226562,0.46875 0.53125,0.894531 0.914063,1.277344 0.382812,0.375 0.863281,0.757812 1.441406,1.148437 0.640625,0.429687 1.128906,0.8125 1.464844,1.148437 0.34375,0.328126 0.597656,0.675782 0.761718,1.042969 0.171875,0.359376 0.257813,0.777344 0.257813,1.253907 0,1.03125 -0.304688,1.835937 -0.914063,2.414062 -0.609375,0.578125 -1.445312,0.867188 -2.507812,0.867188 -0.921875,0 -1.605469,-0.230469 -2.050781,-0.691407 -0.4375,-0.46875 -0.65625,-1.179688 -0.65625,-2.132812 h -1.125 l -0.703125,3.222656 c 0.65625,0.179687 1.398437,0.328125 2.226562,0.445313 0.835937,0.117187 1.613281,0.175781 2.332031,0.175781 1.0625,0 2.007813,-0.199219 2.835938,-0.597657 0.835938,-0.40625 1.480469,-0.976562 1.933594,-1.710937 0.460937,-0.742187 0.691406,-1.589843 0.691406,-2.542969 0,-0.617187 -0.09766,-1.160156 -0.292969,-1.628906 -0.1875,-0.46875 -0.484375,-0.910156 -0.890625,-1.324219 -0.398438,-0.421874 -0.980469,-0.898437 -1.746094,-1.429687 -0.875,-0.601563 -1.46875,-1.121094 -1.78125,-1.558594 -0.304687,-0.445313 -0.457031,-0.960938 -0.457031,-1.546875 0,-0.5625 0.128907,-1.070312 0.386719,-1.523437 0.257813,-0.460938 0.632813,-0.82422 1.125,-1.089844 0.492188,-0.265626 1.0625,-0.398438 1.710937,-0.398438 0.53125,0 0.957031,0.08203 1.277344,0.246094 0.320312,0.164063 0.566406,0.4375 0.738281,0.820312 0.171878,0.375 0.273441,0.894532 0.304688,1.558594 h 1.125 l 0.65625,-3.011718 C 71.50586,20.054688 70.826172,19.890625 70.208984,19.796875 69.599609,19.695312 68.935547,19.644531 68.216797,19.644531 Z M 120.4375,21.4375 v 6.75 h -6.38672 v 1.558594 h 6.38672 v 6.75 h 1.66406 v -6.75 h 6.38672 V 28.1875 h -6.38672 v -6.75 z m -86.542969,2.941406 c -0.398437,0 -0.734375,0.144531 -1.007812,0.433594 -0.273438,0.28125 -0.410156,0.640625 -0.410156,1.078125 0,0.4375 0.136718,0.800781 0.410156,1.089844 0.273437,0.28125 0.609375,0.421875 1.007812,0.421875 0.40625,0 0.746094,-0.140625 1.019532,-0.421875 0.273438,-0.289063 0.410156,-0.652344 0.410156,-1.089844 0,-0.4375 -0.136718,-0.796875 -0.410156,-1.078125 -0.273438,-0.289063 -0.613282,-0.433594 -1.019532,-0.433594 z m 3.09375,1.382813 v 1.558594 h 14.4375 v -1.558594 z m 98.490229,1.714844 v 2 h 144.66603 144.66601 144.66797 v -2 h -144.66798 -144.666 z m -33.99023,1.214843 -4.113275,2.451172 0.38671,0.677735 c 0.50977,-0.339845 0.93751,-0.607422 1.28321,-0.800782 0.3457,-0.193359 0.61328,-0.291015 0.80078,-0.291015 0.158195,0 0.277335,0.05664 0.359365,0.167968 0.082,0.105469 0.12305,0.275391 0.12305,0.509766 v 7.128906 c 0,0.410156 -0.0352,0.705078 -0.10547,0.886719 -0.0645,0.181641 -0.16992,0.322266 -0.316405,0.421875 -0.14648,0.09961 -0.35937,0.175782 -0.64062,0.228516 -0.27539,0.04687 -0.73829,0.08398 -1.38867,0.113281 v 0.642578 h 6.494135 v -0.642578 c -0.45117,-0.01171 -0.81445,-0.03125 -1.08985,-0.06055 -0.27539,-0.03516 -0.5039,-0.08203 -0.68554,-0.140625 -0.18164,-0.06445 -0.32227,-0.150391 -0.42188,-0.255859 -0.0938,-0.111328 -0.16017,-0.251953 -0.20117,-0.421875 -0.0351,-0.175782 -0.0527,-0.431641 -0.0527,-0.771485 v -7.507812 c 0,-0.996094 0.0176,-1.773438 0.0527,-2.335938 z M 33.894531,30.53125 c -0.398437,0 -0.734375,0.144531 -1.007812,0.433594 -0.273438,0.28125 -0.410156,0.640625 -0.410156,1.078125 0,0.4375 0.136718,0.800781 0.410156,1.089844 0.273437,0.28125 0.609375,0.421874 1.007812,0.421874 0.40625,0 0.746094,-0.140624 1.019532,-0.421874 0.273438,-0.289063 0.410156,-0.652344 0.410156,-1.089844 0,-0.4375 -0.136718,-0.796875 -0.410156,-1.078125 -0.273438,-0.289063 -0.613282,-0.433594 -1.019532,-0.433594 z m 3.09375,0.09375 v 1.558594 h 14.4375 V 30.625 Z m -22.783203,1.650391 c -0.451172,0 -0.855469,0.121093 -1.212891,0.361328 -0.357422,0.234374 -0.804687,0.632812 -1.34375,1.195312 l 0.5,0.492188 C 12.5,33.931641 12.77539,33.66211 12.974609,33.515625 c 0.205078,-0.152344 0.398438,-0.228516 0.580078,-0.228516 0.164062,0 0.285157,0.05273 0.361329,0.158204 0.07617,0.105469 0.113281,0.27539 0.113281,0.509765 0,0.304687 -0.06445,0.738281 -0.19336,1.300781 l -1.283203,5.572266 h 1.521485 l 0.833984,-3.804688 c 0.123047,-0.544921 0.28125,-1.001953 0.47461,-1.371093 0.193359,-0.375 0.449219,-0.759766 0.765624,-1.152344 0.322266,-0.398437 0.623047,-0.693359 0.904297,-0.886719 0.28711,-0.199218 0.554688,-0.298828 0.800782,-0.298828 0.304687,0 0.523437,0.08984 0.658203,0.271484 0.134765,0.175782 0.203125,0.466797 0.203125,0.871094 0,0.164062 -0.02344,0.376953 -0.07031,0.640625 -0.04102,0.263672 -0.132813,0.671875 -0.273437,1.222657 l -0.386719,1.519531 c -0.193359,0.738281 -0.289063,1.298828 -0.289062,1.679687 0,0.421875 0.11328,0.769531 0.341796,1.044922 0.228516,0.269531 0.533204,0.404297 0.914063,0.404297 0.480469,0 0.908203,-0.123047 1.283203,-0.369141 0.375,-0.251952 0.814453,-0.646484 1.318359,-1.185546 l -0.5,-0.492188 c -0.363281,0.404297 -0.644531,0.679688 -0.84375,0.826172 -0.199218,0.140625 -0.386718,0.210937 -0.5625,0.210937 -0.164062,0 -0.285156,-0.05273 -0.361328,-0.158203 -0.07617,-0.105468 -0.113281,-0.27539 -0.113281,-0.509765 0,-0.263672 0.07813,-0.714844 0.236328,-1.353516 l 0.572266,-2.302734 c 0.169922,-0.679688 0.253906,-1.205078 0.253906,-1.574219 0,-0.556641 -0.146484,-0.990235 -0.439453,-1.300781 -0.292969,-0.316407 -0.710937,-0.47461 -1.255859,-0.47461 -0.550782,0 -1.087891,0.197266 -1.609376,0.589844 -0.515625,0.386719 -1.060546,0.984375 -1.634765,1.792969 l -0.105469,-0.03516 c 0.140625,-0.38086 0.210938,-0.726563 0.210938,-1.03711 0,-0.392579 -0.107422,-0.708985 -0.324219,-0.949219 -0.210937,-0.246094 -0.501953,-0.371093 -0.871094,-0.371093 z m 60.074219,0 c -0.451172,0 -0.855469,0.121093 -1.212891,0.361328 -0.357422,0.234374 -0.804688,0.632812 -1.34375,1.195312 l 0.5,0.492188 c 0.351563,-0.392578 0.626953,-0.662109 0.826172,-0.808594 0.205078,-0.152344 0.398438,-0.228516 0.580078,-0.228516 0.164063,0 0.285156,0.05273 0.361328,0.158204 0.07617,0.105469 0.113282,0.27539 0.113282,0.509765 0,0.304687 -0.06445,0.738281 -0.19336,1.300781 l -1.283203,5.572266 h 1.521484 l 0.833985,-3.804688 c 0.123047,-0.544921 0.28125,-1.001953 0.474609,-1.371093 0.19336,-0.375 0.449219,-0.759766 0.765625,-1.152344 0.322266,-0.398437 0.623047,-0.693359 0.904297,-0.886719 0.287109,-0.199218 0.554687,-0.298828 0.800781,-0.298828 0.304688,0 0.523438,0.08984 0.658203,0.271484 0.134766,0.175782 0.203126,0.466797 0.203126,0.871094 0,0.164062 -0.02344,0.376953 -0.07031,0.640625 -0.04102,0.263672 -0.132812,0.671875 -0.273437,1.222657 l -0.386719,1.519531 c -0.19336,0.738281 -0.289063,1.298828 -0.289063,1.679687 0,0.421875 0.113282,0.769531 0.341797,1.044922 0.228515,0.269531 0.533203,0.404297 0.914063,0.404297 0.480468,0 0.908203,-0.123047 1.283203,-0.369141 0.375,-0.251952 0.814453,-0.646484 1.318359,-1.185546 l -0.5,-0.492188 c -0.363281,0.404297 -0.644531,0.679688 -0.84375,0.826172 -0.199219,0.140625 -0.386719,0.210937 -0.5625,0.210937 -0.164062,0 -0.285156,-0.05273 -0.361328,-0.158203 -0.07617,-0.105468 -0.113281,-0.27539 -0.113281,-0.509765 0,-0.263672 0.07813,-0.714844 0.236328,-1.353516 l 0.572265,-2.302734 c 0.169922,-0.679688 0.253907,-1.205078 0.253907,-1.574219 0,-0.556641 -0.146485,-0.990235 -0.439453,-1.300781 -0.29297,-0.316407 -0.710938,-0.47461 -1.25586,-0.47461 -0.550781,0 -1.08789,0.197266 -1.609375,0.589844 -0.515624,0.386719 -1.060547,0.984375 -1.634765,1.792969 l -0.105469,-0.03516 c 0.140625,-0.38086 0.210937,-0.726563 0.210937,-1.03711 0,-0.392579 -0.107422,-0.708985 -0.324218,-0.949219 -0.210938,-0.246094 -0.501953,-0.371093 -0.871094,-0.371093 z m 10.173828,2.822265 v 1.169922 h 10.82812 v -1.169922 z m 261.742185,5.328125 c -0.59375,0 -1.14063,0.167969 -1.64063,0.503906 -0.49218,0.328126 -1.08202,0.851563 -1.76952,1.570313 l 0.66797,0.65625 c 0.46875,-0.523437 0.83594,-0.882812 1.10156,-1.078125 0.27344,-0.203125 0.53125,-0.304688 0.77344,-0.304688 0.21875,0 0.37891,0.07031 0.48047,0.210938 0.10157,0.140625 0.15234,0.367188 0.15234,0.679688 0,0.40625 -0.0859,0.984374 -0.25781,1.734374 l -1.71095,7.429688 h 2.02736 l 1.11327,-5.074219 c 0.16406,-0.71875 0.36719,-1.328125 0.60937,-1.828125 0.24219,-0.5 0.57813,-1.019531 1.00782,-1.558594 0.42968,-0.546874 0.83203,-0.941406 1.20703,-1.183593 0.38281,-0.25 0.72265,-0.375 1.01953,-0.375 0.42187,0 0.73047,0.121094 0.92578,0.363281 0.20313,0.234375 0.30469,0.632812 0.30469,1.195312 0,0.25 -0.0313,0.550782 -0.0937,0.902344 -0.0547,0.34375 -0.16406,0.878906 -0.32813,1.605469 l -1.3477,5.953125 h 2.02734 l 1.0664,-5.121094 c 0.15625,-0.726562 0.36329,-1.339844 0.6211,-1.839844 0.26563,-0.507812 0.60547,-1.01953 1.01953,-1.535156 0.41407,-0.523437 0.80859,-0.90625 1.18359,-1.148437 0.375,-0.25 0.72657,-0.375 1.05469,-0.375 0.40625,0 0.69922,0.121094 0.87891,0.363281 0.17968,0.234375 0.26953,0.621094 0.26953,1.160156 0,0.21875 -0.0313,0.503906 -0.0937,0.855469 -0.0547,0.351563 -0.17578,0.894532 -0.36328,1.628906 l -0.51563,2.027344 c -0.25781,0.984375 -0.38672,1.730469 -0.38672,2.238281 0,0.5625 0.15235,1.027344 0.45703,1.394532 0.30469,0.359375 0.71094,0.539062 1.21876,0.539062 0.64062,0 1.21093,-0.167969 1.71093,-0.503906 0.5,-0.335938 1.08594,-0.859375 1.75781,-1.570313 l -0.66796,-0.65625 c -0.48438,0.539063 -0.85938,0.90625 -1.125,1.101563 -0.26563,0.1875 -0.51563,0.28125 -0.75,0.28125 -0.21876,0 -0.37891,-0.07031 -0.48047,-0.210938 -0.10156,-0.140624 -0.15235,-0.367187 -0.15235,-0.679687 0,-0.351563 0.10548,-0.953125 0.31641,-1.804688 l 0.76172,-3.070312 c 0.22657,-0.90625 0.33984,-1.605469 0.33984,-2.097657 0,-0.75 -0.19531,-1.332031 -0.58593,-1.746093 -0.39063,-0.414063 -0.94532,-0.621094 -1.66407,-0.621094 -0.71875,0 -1.41406,0.234375 -2.08593,0.703125 -0.66407,0.460937 -1.33204,1.167968 -2.00391,2.121094 0.008,-0.0625 0.0117,-0.121095 0.0117,-0.175782 v -0.164062 c 0,-0.804687 -0.19531,-1.417968 -0.58594,-1.839844 -0.39062,-0.429687 -0.96094,-0.644531 -1.71094,-0.644531 -0.72656,0 -1.44531,0.261719 -2.15625,0.785156 -0.71094,0.515626 -1.42578,1.308594 -2.14453,2.378907 l -0.14062,-0.04688 c 0.17968,-0.484374 0.26953,-0.941406 0.26953,-1.371093 0,-0.523438 -0.14454,-0.945313 -0.4336,-1.265625 -0.28125,-0.328126 -0.66797,-0.492188 -1.16015,-0.492188 z"
     id="path877"
     inkscape:connector-curvature="0" />
</svg>
