<?xml version="1.0" encoding="UTF-8" standalone="no"?>
<svg
   xmlns:dc="http://purl.org/dc/elements/1.1/"
   xmlns:cc="http://creativecommons.org/ns#"
   xmlns:rdf="http://www.w3.org/1999/02/22-rdf-syntax-ns#"
   xmlns:svg="http://www.w3.org/2000/svg"
   xmlns="http://www.w3.org/2000/svg"
   xmlns:sodipodi="http://sodipodi.sourceforge.net/DTD/sodipodi-0.dtd"
   xmlns:inkscape="http://www.inkscape.org/namespaces/inkscape"
   width="314.79492"
   height="106.60352"
   overflow="hidden"
   version="1.1"
   id="svg109"
   sodipodi:docname="S-formula8.svg"
   style="overflow:hidden"
   inkscape:version="0.92.4 (5da689c313, 2019-01-14)">
  <metadata
     id="metadata113">
    <rdf:RDF>
      <cc:Work
         rdf:about="">
        <dc:format>image/svg+xml</dc:format>
        <dc:type
           rdf:resource="http://purl.org/dc/dcmitype/StillImage" />
        <dc:title></dc:title>
      </cc:Work>
    </rdf:RDF>
  </metadata>
  <sodipodi:namedview
     pagecolor="#ffffff"
     bordercolor="#666666"
     borderopacity="1"
     objecttolerance="10"
     gridtolerance="10"
     guidetolerance="10"
     inkscape:pageopacity="0"
     inkscape:pageshadow="2"
     inkscape:window-width="2189"
     inkscape:window-height="921"
     id="namedview111"
     showgrid="false"
     inkscape:zoom="3.0708637"
     inkscape:cx="98.07749"
     inkscape:cy="46.30782"
     inkscape:window-x="0"
     inkscape:window-y="0"
     inkscape:window-maximized="0"
     inkscape:current-layer="svg109"
     fit-margin-top="0"
     fit-margin-left="0"
     fit-margin-right="0"
     fit-margin-bottom="0" />
  <defs
     id="defs5">
    <clipPath
       id="clip0">
      <rect
         x="73"
         y="586"
         width="350"
         height="123"
         id="rect2" />
    </clipPath>
  </defs>
  <path
     style="fill-rule:evenodd"
     d="m 75.894531,0 c -3.235,0.5620004 -5.544641,2.4864844 -6.931641,5.7714844 -1.387,3.286 -2.080078,8.1740156 -2.080078,14.6660156 v 5.421875 3.964843 11.960938 c 0,3.586 -0.444937,6.280937 -1.335937,8.085937 -0.891,1.805 -2.112969,2.737782 -3.667969,2.800782 v 1.40625 c 1.586,0.063 2.814453,0.992062 3.689453,2.789062 0.875,1.797 1.314453,4.461188 1.314453,7.992188 v 11.919921 4.00586 5.380859 c 0,6.491999 0.693078,11.381019 2.080078,14.666015 1.387,3.285 3.696641,5.20948 6.931641,5.77148 v -1.11328 c -2.289,-0.539 -3.955141,-2.3515 -4.994141,-5.4375 -1.039,-3.085996 -1.55664,-7.847156 -1.55664,-14.285152 v -4.982422 -4.00586 -9.880859 c -0.125,-4.563 -0.718344,-7.824156 -1.777344,-9.785156 -1.058,-1.961 -2.138234,-3.175531 -3.240234,-3.644531 v -0.292969 c 1.117,-0.461 2.234656,-1.726875 3.347656,-3.796875 1.113,-2.07 1.669922,-5.280813 1.669922,-9.632813 v -9.921875 -3.964843 -5.023438 c 0,-6.438 0.51764,-11.1991556 1.55664,-14.2851556 1.039,-3.086 2.705141,-4.8985 4.994141,-5.4375 z m 79.019529,3.7343754 c -0.758,0 -1.45666,0.164187 -2.09766,0.492187 -0.64,0.328 -1.18948,0.833578 -1.64648,1.517578 -0.457,0.683 -0.81241,1.549703 -1.06641,2.595703 -0.254,1.047 -0.38086,2.2885626 -0.38086,3.7265626 0,2.703 0.41233,4.718875 1.23633,6.046875 0.824,1.328 2.08058,1.992187 3.76758,1.992187 1.719,0 3.02592,-0.708953 3.91992,-2.126953 0.895,-1.418 1.3418,-3.51039 1.3418,-6.27539 0,-2.6719996 -0.41791,-4.6672816 -1.25391,-5.9882816 -0.836,-1.32 -2.10931,-1.980468 -3.82031,-1.980468 z m 154.80664,0 c -0.758,0 -1.45666,0.164187 -2.09766,0.492187 -0.641,0.328 -1.18948,0.833578 -1.64648,1.517578 -0.457,0.683 -0.81241,1.549703 -1.06641,2.595703 -0.254,1.047 -0.38086,2.2885626 -0.38086,3.7265626 0,2.703 0.41133,4.718875 1.23633,6.046875 0.824,1.328 2.08058,1.992187 3.76758,1.992187 1.719,0 3.02492,-0.708953 3.91992,-2.126953 0.895,-1.418 1.3418,-3.51039 1.3418,-6.27539 0,-2.6719996 -0.41791,-4.6672816 -1.25391,-5.9882816 -0.836,-1.32 -2.10931,-1.980468 -3.82031,-1.980468 z m -154.86524,0.996093 c 0.594,0 1.09958,0.241563 1.51758,0.726563 0.418,0.484 0.74452,1.283484 0.97852,2.396484 0.235,1.113 0.35156,2.5682346 0.35156,4.3652346 0,2.352 -0.22855,4.087984 -0.68555,5.208984 -0.457,1.121 -1.15851,1.681641 -2.10351,1.681641 -0.992,0 -1.72527,-0.59611 -2.19727,-1.78711 -0.473,-1.192 -0.70898,-3.060422 -0.70898,-5.607422 0,-1.086 0.0476,-2.0608276 0.14062,-2.9238276 0.094,-0.864 0.25161,-1.595265 0.47461,-2.197265 0.223,-0.601 0.51591,-1.062813 0.87891,-1.382813 0.363,-0.321 0.81451,-0.480469 1.35351,-0.480469 z m 154.80664,0 c 0.594,0 1.09958,0.241563 1.51758,0.726563 0.418,0.484 0.74452,1.283484 0.97852,2.396484 0.234,1.113 0.35156,2.5682346 0.35156,4.3652346 0,2.352 -0.22855,4.087984 -0.68555,5.208984 -0.457,1.121 -1.15851,1.681641 -2.10351,1.681641 -0.993,0 -1.72427,-0.59611 -2.19727,-1.78711 -0.472,-1.192 -0.70898,-3.060422 -0.70898,-5.607422 0,-1.086 0.0466,-2.0608276 0.14062,-2.9238276 0.094,-0.864 0.25161,-1.595265 0.47461,-2.197265 0.222,-0.601 0.51591,-1.062813 0.87891,-1.382813 0.364,-0.321 0.81452,-0.480469 1.35351,-0.480469 z m -48.5332,3.785157 c -0.602,0 -1.14119,0.157609 -1.61719,0.474609 -0.477,0.316 -1.07496,0.849609 -1.79296,1.5996086 l 0.66796,0.65625 c 0.468,-0.524 0.83843,-0.884984 1.10743,-1.083984 0.27,-0.1999996 0.52557,-0.2988276 0.76757,-0.2988276 0.218,0 0.37947,0.06994 0.48047,0.2109366 0.102,0.14 0.15235,0.367688 0.15235,0.679688 0,0.407 -0.0858,0.984375 -0.25782,1.734375 l -1.71093,7.429687 h 2.02734 l 1.11328,-5.074218 c 0.164,-0.726 0.37481,-1.337985 0.63281,-1.833985 0.258,-0.496 0.5994,-1.007156 1.02539,-1.535156 0.425,-0.527 0.82804,-0.922594 1.20704,-1.183594 0.379,-0.262 0.73254,-0.3925776 1.06054,-0.3925776 0.406,0 0.69891,0.1194216 0.87891,0.3574216 0.18,0.239 0.26953,0.627016 0.26953,1.166016 0,0.219 -0.0299,0.503468 -0.0879,0.855468 -0.059,0.351 -0.18214,0.893907 -0.36914,1.628907 l -0.51563,2.027343 c -0.258,0.985 -0.38671,1.731282 -0.38671,2.238282 0,0.563 0.15303,1.025672 0.45703,1.388671 0.305,0.363001 0.71075,0.544922 1.21875,0.544922 0.641,0 1.21093,-0.166046 1.71093,-0.498046 0.5,-0.332001 1.08582,-0.857172 1.75782,-1.576172 L 270.2578,17.375 c -0.485,0.539 -0.86,0.904703 -1.125,1.095703 -0.266,0.192 -0.516,0.287109 -0.75,0.287109 -0.219,0 -0.37847,-0.06994 -0.48047,-0.210937 -0.101,-0.14 -0.15234,-0.367688 -0.15234,-0.679688 0,-0.352 0.1054,-0.952687 0.3164,-1.804687 l 0.76172,-3.070313 c 0.227,-0.906 0.33984,-1.605656 0.33984,-2.097656 0,-0.742 -0.19493,-1.3222346 -0.58593,-1.7402346 -0.391,-0.417999 -0.94878,-0.626953 -1.67578,-0.626953 -0.734,0 -1.44768,0.260297 -2.13868,0.779297 -0.692,0.52 -1.41954,1.3184846 -2.18554,2.3964846 l -0.14063,-0.04687 c 0.188,-0.508 0.28125,-0.968813 0.28125,-1.382813 0,-0.5229996 -0.14273,-0.9474836 -0.42773,-1.2714836 -0.285,-0.325 -0.67402,-0.486328 -1.16602,-0.486328 z m 18.96875,1.335937 V 11.410156 H 294.5332 V 9.8515624 Z m 0,4.8632806 v 1.558594 H 294.5332 V 14.714843 Z M 89.609374,27.517578 c -0.24,0 -0.46855,0.03266 -0.68555,0.09766 -0.216,0.064 -0.43529,0.164734 -0.65429,0.302734 -0.22,0.138 -0.45132,0.313344 -0.69532,0.527344 -0.243,0.213 -0.50973,0.470531 -0.80273,0.769531 l 0.60742,0.570313 c 0.175,-0.182 0.33266,-0.33961 0.47266,-0.47461 0.141,-0.135 0.27062,-0.245984 0.39062,-0.333984 0.12,-0.088 0.23575,-0.154266 0.34375,-0.197266 0.108,-0.044 0.21432,-0.06641 0.32032,-0.06641 0.346,0 0.51953,0.214578 0.51953,0.642578 0,0.153 -0.0177,0.347891 -0.0527,0.587891 -0.035,0.24 -0.092,0.512406 -0.16797,0.816406 l -1.31836,5.732422 h 1.72266 l 0.98438,-4.412109 c 0.059,-0.27 0.15134,-0.5405 0.27734,-0.8125 0.126,-0.273 0.27155,-0.534203 0.43555,-0.783203 0.164,-0.249 0.34501,-0.483125 0.54101,-0.703125 0.196,-0.219 0.39656,-0.411266 0.60156,-0.572266 0.205,-0.161 0.40933,-0.285953 0.61133,-0.376953 0.202,-0.091 0.39041,-0.136719 0.56641,-0.136719 0.304,0 0.52411,0.08586 0.66211,0.25586 0.138,0.169999 0.20703,0.434828 0.20703,0.798828 0,0.152 -0.0186,0.345171 -0.0566,0.576172 -0.038,0.231999 -0.0902,0.495015 -0.1582,0.791015 -0.067,0.296 -0.14533,0.618797 -0.23633,0.966797 -0.091,0.349 -0.18992,0.71375 -0.29492,1.09375 -0.1,0.375 -0.17561,0.720203 -0.22461,1.033203 -0.05,0.314 -0.0742,0.588266 -0.0742,0.822266 0,0.234 0.0355,0.450484 0.10547,0.646484 0.071,0.196 0.16982,0.365766 0.29882,0.509766 0.129,0.143 0.28194,0.25589 0.46094,0.33789 0.178,0.082 0.37299,0.123047 0.58399,0.123047 0.252,0 0.48989,-0.03456 0.71289,-0.101562 0.223,-0.067 0.44687,-0.170594 0.67187,-0.308594 0.226,-0.137 0.45922,-0.312438 0.69922,-0.523438 0.24,-0.21 0.50402,-0.460906 0.79102,-0.753906 l -0.60547,-0.580078 c -0.176,0.193 -0.33556,0.358094 -0.47656,0.496094 -0.14101,0.138 -0.26972,0.25089 -0.38672,0.33789 -0.117,0.088 -0.22989,0.15236 -0.33789,0.19336 -0.108,0.041 -0.21808,0.0625 -0.33008,0.0625 -0.181,0 -0.31253,-0.05039 -0.39453,-0.150391 -0.082,-0.1 -0.12305,-0.260422 -0.12305,-0.482422 0,-0.059 0.0251,-0.208218 0.0781,-0.449218 0.053,-0.24 0.12113,-0.529141 0.20313,-0.869141 0.082,-0.34 0.16967,-0.711281 0.26367,-1.113281 0.093,-0.401 0.18167,-0.790875 0.26367,-1.171875 0.082,-0.381 0.15013,-0.731688 0.20313,-1.054688 0.052,-0.322 0.0781,-0.575812 0.0781,-0.757812 0,-0.603 -0.15489,-1.070297 -0.46289,-1.404297 -0.307,-0.334 -0.77158,-0.501953 -1.39258,-0.501953 -0.592,0 -1.16279,0.194078 -1.71679,0.580078 -0.554,0.387 -1.1156,0.971 -1.6836,1.75 l -0.1231,-0.04492 c 0.052,-0.117 0.0884,-0.240141 0.10937,-0.369141 0.02,-0.129 0.0312,-0.25214 0.0312,-0.36914 0,-0.463 -0.11942,-0.835141 -0.35742,-1.119141 -0.237,-0.285 -0.57186,-0.427734 -1.00586,-0.427734 z m 67.191406,10.25 -5.48438,3.269531 0.51563,0.902344 c 0.68,-0.453 1.24993,-0.808406 1.71093,-1.066407 0.461,-0.258 0.81641,-0.386718 1.06641,-0.386718 0.211,0 0.37147,0.0718 0.48047,0.216797 0.11,0.144 0.16406,0.373547 0.16406,0.685547 v 9.503906 c 0,0.547 -0.0448,0.941594 -0.13476,1.183594 -0.089,0.241999 -0.23274,0.4305 -0.42774,0.5625 -0.196,0.132999 -0.47861,0.232828 -0.84961,0.298828 -0.371,0.067 -0.99042,0.119203 -1.85742,0.158203 v 0.855469 h 8.66016 v -0.855469 c -0.602,-0.015 -1.08613,-0.04589 -1.45313,-0.08789 -0.367,-0.043 -0.67206,-0.1055 -0.91406,-0.1875 -0.243,-0.082 -0.42764,-0.194844 -0.55664,-0.339844 -0.129,-0.144 -0.21953,-0.3325 -0.26953,-0.5625 -0.051,-0.231 -0.0762,-0.57239 -0.0762,-1.02539 V 40.884765 c 0,-1.328 0.0233,-2.367187 0.0703,-3.117187 z m 42.75,0 c -1.062,0 -2.0005,0.192219 -2.8125,0.574218 -0.813,0.383 -1.44172,0.925907 -1.88672,1.628907 -0.445,0.704 -0.66797,1.5155 -0.66797,2.4375 0,0.578 0.11284,1.101312 0.33984,1.570312 0.226,0.469 0.53107,0.892485 0.91407,1.271485 0.383,0.379 0.8634,0.763297 1.4414,1.154296 0.641,0.430001 1.1307,0.810579 1.4707,1.142579 0.34,0.332 0.59372,0.678968 0.76172,1.042968 0.168,0.363 0.25196,0.783766 0.25196,1.259766 0,1.032 -0.30507,1.836062 -0.91407,2.414063 -0.61,0.578 -1.44581,0.867187 -2.50781,0.867187 -0.922,0 -1.60392,-0.232266 -2.04492,-0.697266 -0.442,-0.465 -0.66211,-1.173953 -0.66211,-2.126953 h -1.125 l -0.70312,3.222656 c 0.656,0.180001 1.40042,0.328313 2.23242,0.445313 0.832,0.117 1.60717,0.175781 2.32617,0.175781 1.063,0 2.0098,-0.201515 2.8418,-0.603515 0.832,-0.403 1.47659,-0.972938 1.93359,-1.710938 0.457,-0.739 0.68555,-1.584109 0.68555,-2.537109 0,-0.618 -0.0961,-1.160906 -0.28711,-1.628906 -0.191,-0.469001 -0.48763,-0.912079 -0.89063,-1.330079 -0.402,-0.418 -0.98595,-0.892828 -1.75195,-1.423828 -0.875,-0.602 -1.46639,-1.122453 -1.77539,-1.564453 -0.309,-0.441 -0.46289,-0.955016 -0.46289,-1.541016 0,-0.561999 0.12872,-1.072296 0.38672,-1.529296 0.258,-0.457 0.633,-0.817985 1.125,-1.083985 0.492,-0.266 1.06193,-0.398437 1.71093,-0.398437 0.531,0 0.95735,0.08209 1.27735,0.246094 0.32,0.163999 0.56728,0.435453 0.73828,0.814453 0.172,0.379 0.27369,0.899453 0.30469,1.564453 h 1.125 l 0.65625,-3.011719 c -0.742,-0.235 -1.42021,-0.401047 -2.03321,-0.498047 -0.613,-0.098 -1.27904,-0.146484 -1.99804,-0.146484 z m -82.86719,0.386718 -0.53906,2.273438 h 2.07422 l 0.54101,-2.273438 z m -39.574215,4.205079 v 1.113281 L 93.046874,64.765625 76.628906,87.019531 v 1.160156 h 28.816404 l 0.59765,-8.589844 h -1.73437 c -0.344,2.195 -0.75347,3.609188 -1.23047,4.242188 -0.477,0.633 -1.1645,0.949219 -2.0625,0.949219 H 80.683593 L 95.777344,64.296875 V 62.878906 L 81.796875,43.894531 h 18.492185 c 1.109,0 1.93737,0.484125 2.48437,1.453125 0.547,0.969 0.91085,2.285219 1.08985,3.949219 h 1.54687 v -6.9375 z m 39.892575,0.283203 -2.86133,0.105468 -0.12891,0.621094 c 0.493,0.015 0.82419,0.08594 0.99219,0.210938 0.168,0.125 0.25196,0.362844 0.25196,0.714844 0,0.389999 -0.0915,0.976812 -0.27149,1.757812 l -0.87891,3.832031 c -0.219,0.922 -0.32812,1.679438 -0.32812,2.273438 0,0.578 0.15203,1.052828 0.45703,1.423828 0.305,0.371 0.71075,0.556641 1.21875,0.556641 0.594,-10e-7 1.12947,-0.144594 1.60547,-0.433594 0.477,-0.289 1.09923,-0.835625 1.86523,-1.640625 l -0.66796,-0.65625 c -0.48501,0.539 -0.86001,0.903703 -1.125,1.095703 -0.266,0.191 -0.516,0.287109 -0.75,0.287109 -0.219,0 -0.38043,-0.07094 -0.48243,-0.210937 -0.101,-0.141 -0.15234,-0.366688 -0.15234,-0.679688 0,-0.391 0.0878,-0.969375 0.25977,-1.734375 l 1.68554,-7.523437 z M 8.144531,43.966796 c -1.0625,0 -2,0.193172 -2.8125,0.576172 -0.8125,0.382 -1.441419,0.923953 -1.886719,1.626954 -0.4453,0.704 -0.667969,1.517453 -0.667969,2.439453 0,0.578 0.113244,1.101312 0.339844,1.570312 0.2266,0.469 0.531263,0.892485 0.914063,1.271485 0.3828,0.378999 0.863206,0.763296 1.441406,1.154296 0.6406,0.43 1.130803,0.810579 1.470703,1.142578 0.3398,0.332001 0.593719,0.678969 0.761719,1.042969 0.168,0.363 0.251953,0.781813 0.251953,1.257813 0,1.032 -0.304663,1.836062 -0.914063,2.414062 -0.6094,0.579 -1.445312,0.869141 -2.507812,0.869141 -0.9219,0 -1.603522,-0.234219 -2.044922,-0.699219 -0.4415,-0.465 -0.662109,-1.173953 -0.662109,-2.126953 h -1.125 L 0,59.730468 c 0.6563,0.18 1.400421,0.32636 2.232422,0.44336 0.8321,0.118 1.607471,0.177734 2.326171,0.177734 1.0625,0 2.009797,-0.201515 2.841797,-0.603516 0.832,-0.402999 1.476594,-0.972937 1.933594,-1.710937 0.457,-0.739 0.685547,-1.584109 0.685547,-2.537109 0,-0.618 -0.09571,-1.160907 -0.287109,-1.628907 -0.1914,-0.469 -0.488224,-0.912078 -0.890626,-1.330078 -0.402299,-0.418 -0.986353,-0.892828 -1.751953,-1.423828 -0.875,-0.602 -1.46679,-1.124406 -1.77539,-1.566406 -0.3086,-0.441 -0.462891,-0.955016 -0.462891,-1.541016 0,-0.562 0.128919,-1.070343 0.386719,-1.527343 0.2578,-0.457001 0.6328,-0.817985 1.125,-1.083985 C 6.855481,45.132437 7.425818,45 8.074218,45 c 0.5313,0 0.957044,0.08209 1.277344,0.246093 0.3203,0.164 0.566381,0.435455 0.738281,0.814453 0.1718,0.379 0.273688,0.899454 0.304688,1.564454 h 1.125 l 0.65625,-3.011719 c -0.742,-0.235 -1.419703,-0.401047 -2.033203,-0.498047 -0.6133,-0.098 -1.279247,-0.148438 -1.998047,-0.148438 z m 119.499999,2.34375 v 1.558594 h 14.43554 v -1.558594 z m 42,0 v 1.558594 h 14.43554 v -1.558594 z m 36.9082,0.113282 -0.41211,1.890625 h 1.74024 l 0.42968,-1.890625 z m 21.6582,1.107422 c -0.732,0.392 -1.45401,0.78564 -2.16601,1.18164 -0.712,0.395 -1.43221,0.792406 -2.15821,1.191406 0.07,0.14 0.13718,0.279063 0.20118,0.414063 0.064,0.134 0.13493,0.269297 0.21093,0.404297 0.568,-0.369 1.03068,-0.647938 1.38868,-0.835938 0.357,-0.187 0.62759,-0.28125 0.80859,-0.28125 0.164,0 0.28895,0.04762 0.37695,0.140625 0.088,0.094 0.13282,0.255375 0.13282,0.484375 v 6.300782 c 0,0.199 -0.0103,0.366953 -0.0313,0.501953 -0.02,0.134 -0.047,0.248797 -0.082,0.341797 -0.035,0.094 -0.0816,0.171421 -0.14062,0.232422 -0.058,0.062 -0.13089,0.118875 -0.21289,0.171874 -0.076,0.046 -0.16458,0.08714 -0.26758,0.119141 -0.102,0.033 -0.2382,0.06189 -0.4082,0.08789 -0.17,0.027 -0.37524,0.04555 -0.61524,0.06055 -0.24,0.014 -0.5329,0.02806 -0.8789,0.03906 v 0.765625 h 6.9707 v -0.765625 c -0.357,-0.006 -0.66397,-0.0143 -0.91797,-0.0293 -0.255,-0.014 -0.47525,-0.0365 -0.65625,-0.0625 -0.182,-0.026 -0.33027,-0.0577 -0.44726,-0.0957 -0.11801,-0.038 -0.21221,-0.09211 -0.28321,-0.162109 -0.058,-0.047 -0.10834,-0.103969 -0.15234,-0.167969 -0.043,-0.065 -0.0795,-0.141422 -0.10547,-0.232422 -0.026,-0.091 -0.0446,-0.201984 -0.0566,-0.333984 -0.012,-0.132 -0.0195,-0.289703 -0.0195,-0.470703 v -6.679688 c 0,-0.234 0.003,-0.470937 0.006,-0.710937 0.003,-0.24 0.008,-0.489141 0.0137,-0.744141 0.006,-0.255 0.0144,-0.543234 0.0254,-0.865234 z M 33.894531,48.703125 c -0.399,0 -0.734813,0.140781 -1.007813,0.425781 -0.273,0.286 -0.410156,0.646984 -0.410156,1.083984 0,0.438 0.137156,0.798985 0.410156,1.083985 0.273,0.286 0.608813,0.429687 1.007813,0.429687 0.406,0 0.746531,-0.143687 1.019531,-0.429687 0.274,-0.285 0.410156,-0.645985 0.410156,-1.083985 0,-0.437 -0.136156,-0.797984 -0.410156,-1.083984 -0.273,-0.285 -0.613531,-0.425781 -1.019531,-0.425781 z m 173.167969,1.261718 -2.54883,0.09766 -0.10547,0.597656 c 0.38,0.012 0.64592,0.07078 0.79492,0.175781 0.149,0.106 0.23019,0.272 0.24219,0.5 v 0.119141 c 0,0.044 -0.006,0.08972 -0.0176,0.136718 -0.029,0.276001 -0.0775,0.580969 -0.14453,0.917969 -0.067,0.336 -0.14352,0.687782 -0.22852,1.050781 -0.085,0.363001 -0.17176,0.72961 -0.25976,1.09961 -0.088,0.369 -0.16724,0.721594 -0.24024,1.058594 -0.074,0.337 -0.13464,0.648546 -0.18164,0.935546 -0.046,0.287001 -0.0703,0.527704 -0.0703,0.720704 0,0.241 0.0345,0.460156 0.10547,0.660156 0.07,0.199 0.17083,0.369672 0.29883,0.513672 0.129,0.143 0.28389,0.25589 0.46289,0.33789 0.179,0.082 0.37856,0.123047 0.60156,0.123047 0.24,0 0.46569,-0.02889 0.67969,-0.08789 0.214,-0.058 0.43325,-0.156016 0.65625,-0.291016 0.222,-0.135 0.45803,-0.307484 0.70703,-0.521484 0.249,-0.214 0.52508,-0.47711 0.83008,-0.78711 l -0.59766,-0.580078 c -0.176,0.193 -0.33451,0.358094 -0.47851,0.496094 -0.14301,0.138 -0.27454,0.25089 -0.39454,0.337891 -0.12,0.088 -0.23384,0.154312 -0.33984,0.195312 -0.105,0.041 -0.21141,0.06055 -0.31641,0.06055 -0.182,0 -0.3172,-0.04844 -0.4082,-0.148438 -0.091,-0.1 -0.13672,-0.262375 -0.13672,-0.484375 0,-0.165 0.0168,-0.347734 0.0488,-0.552734 0.033,-0.205 0.0899,-0.481172 0.17188,-0.826172 l 1.30078,-5.855469 z M 36.988281,50.083984 v 1.560547 h 14.4375 V 50.083984 Z M 211.0957,53.033203 v 1.34375 h 10.125 v -1.34375 z M 33.894531,54.855468 c -0.399,0 -0.734813,0.142735 -1.007813,0.427735 -0.273,0.285 -0.410156,0.645984 -0.410156,1.083984 0,0.437 0.137156,0.798984 0.410156,1.083985 0.273,0.284999 0.608813,0.425781 1.007813,0.425781 0.406,0 0.746531,-0.140783 1.019531,-0.425781 0.274,-0.285 0.410156,-0.646985 0.410156,-1.083985 0,-0.438 -0.136156,-0.798984 -0.410156,-1.083984 -0.273,-0.285 -0.613531,-0.427735 -1.019531,-0.427735 z m 3.09375,0.09375 v 1.556641 h 14.4375 V 54.949218 Z M 309.7207,55.935546 c -0.758,0 -1.45666,0.162235 -2.09766,0.490235 -0.641,0.328 -1.18948,0.835531 -1.64648,1.519531 -0.457,0.683 -0.81241,1.54775 -1.06641,2.59375 -0.254,1.047 -0.38086,2.290516 -0.38086,3.728516 0,2.703 0.41133,4.718875 1.23633,6.046875 0.824,1.328 2.08058,1.992187 3.76758,1.992187 1.719,0 3.02492,-0.708953 3.91992,-2.126953 0.895,-1.418 1.3418,-3.51039 1.3418,-6.275391 0,-2.672 -0.41791,-4.669234 -1.25391,-5.990234 -0.836,-1.32 -2.10931,-1.978516 -3.82031,-1.978516 z M 14.636718,56.078125 c -0.241,0 -0.468547,0.0307 -0.685546,0.0957 -0.217001,0.064 -0.434297,0.166687 -0.654297,0.304687 -0.219,0.138 -0.452313,0.313344 -0.695313,0.527344 -0.243,0.213 -0.509734,0.470531 -0.802734,0.769531 l 0.605468,0.570313 c 0.176,-0.182 0.33361,-0.33961 0.47461,-0.47461 0.14,-0.135 0.270625,-0.245984 0.390625,-0.333984 0.12,-0.088 0.23475,-0.155219 0.34375,-0.199219 0.108,-0.043 0.214312,-0.06445 0.320312,-0.06445 0.345,0 0.517579,0.212625 0.517579,0.640625 -10e-7,0.153 -0.01673,0.349844 -0.05273,0.589844 -0.035,0.24 -0.08901,0.512406 -0.166015,0.816406 l -1.31836,5.730469 h 1.722656 l 0.984375,-4.410156 c 0.059,-0.27 0.151344,-0.542453 0.277344,-0.814453 0.126,-0.273 0.269594,-0.532252 0.433594,-0.78125 0.164,-0.249001 0.345016,-0.485079 0.541015,-0.705079 0.197,-0.219 0.397516,-0.409312 0.603516,-0.570312 0.205,-0.161 0.407375,-0.285953 0.609375,-0.376953 0.203,-0.091 0.391406,-0.136719 0.566406,-0.136719 0.305,0 0.526063,0.08391 0.664063,0.253906 0.138,0.17 0.207031,0.436781 0.207031,0.800781 0,0.152001 -0.01864,0.343219 -0.05664,0.574219 -0.038,0.232 -0.0912,0.495016 -0.158203,0.791016 -0.067,0.296 -0.147281,0.62075 -0.238281,0.96875 -0.091,0.349 -0.188922,0.71375 -0.294922,1.09375 -0.099,0.375 -0.172656,0.720203 -0.222656,1.033203 -0.05,0.314 -0.07422,0.586314 -0.07422,0.820312 0,0.234 0.03352,0.450485 0.103516,0.646485 0.07,0.196 0.171781,0.365766 0.300781,0.509765 0.129,0.143001 0.282938,0.255891 0.460938,0.337891 0.179,0.082 0.372984,0.123047 0.583984,0.123047 0.252,0 0.489891,-0.03261 0.712891,-0.09961 0.222,-0.067 0.445875,-0.170594 0.671875,-0.308594 0.226,-0.137 0.458218,-0.312438 0.699218,-0.523438 0.24,-0.21 0.504016,-0.460906 0.791016,-0.753906 l -0.607422,-0.580078 c -0.176,0.193 -0.334609,0.358094 -0.474609,0.496094 -0.141,0.138 -0.269719,0.25089 -0.386719,0.33789 -0.117,0.088 -0.229891,0.15236 -0.337891,0.19336 -0.109,0.041 -0.219078,0.06055 -0.330078,0.06055 -0.182,0 -0.313484,-0.04844 -0.396484,-0.148438 -0.082,-0.1 -0.123047,-0.260422 -0.123047,-0.482422 0,-0.059 0.02708,-0.208219 0.08008,-0.449218 0.052,-0.240001 0.121125,-0.531094 0.203125,-0.871094 0.082,-0.34 0.168719,-0.709328 0.261719,-1.111328 0.094,-0.401 0.181672,-0.792829 0.263672,-1.173828 0.082,-0.381001 0.150125,-0.731688 0.203125,-1.054688 0.053,-0.322 0.07813,-0.573859 0.07813,-0.755859 0,-0.603 -0.153938,-1.07225 -0.460938,-1.40625 -0.308,-0.334 -0.771578,-0.5 -1.392578,-0.5 -0.592,0 -1.16575,0.194078 -1.71875,0.580078 -0.554,0.387 -1.114594,0.969047 -1.683594,1.748047 l -0.123046,-0.04297 c 0.053,-0.117 0.09133,-0.240141 0.111328,-0.369141 0.021,-0.129 0.0293,-0.25214 0.0293,-0.36914 0,-0.463 -0.118468,-0.837094 -0.355468,-1.121094 -0.237,-0.285 -0.57286,-0.425781 -1.00586,-0.425781 z M 309.6621,56.93164 c 0.594,0 1.09958,0.241563 1.51758,0.726563 0.418,0.484 0.74452,1.283484 0.97852,2.396484 0.234,1.113 0.35156,2.566281 0.35156,4.363281 0,2.352 -0.22855,4.087985 -0.68555,5.208985 -0.457,1.121 -1.15851,1.683593 -2.10351,1.683593 -0.993,0 -1.72427,-0.596109 -2.19727,-1.787109 -0.472,-1.192 -0.70898,-3.062375 -0.70898,-5.609375 0,-1.086 0.0466,-2.058875 0.14062,-2.921875 0.094,-0.864 0.25161,-1.597219 0.47461,-2.199219 0.222,-0.601 0.51591,-1.060859 0.87891,-1.380859 0.364,-0.321 0.81452,-0.480469 1.35351,-0.480469 z m -29.56445,1.054688 v 1.757812 l 12.72461,5.519532 -12.72461,5.519531 v 1.755859 l 14.48242,-6.457031 v -1.638672 z m -18.96875,2.728515 c -0.602,0 -1.14119,0.159563 -1.61719,0.476563 -0.477,0.316 -1.07496,0.847656 -1.79296,1.597656 l 0.66796,0.658203 c 0.468,-0.524 0.83843,-0.884984 1.10743,-1.083984 0.27,-0.2 0.52557,-0.298828 0.76757,-0.298828 0.218,0 0.37947,0.06994 0.48047,0.210937 0.102,0.14 0.15235,0.365735 0.15235,0.677735 0,0.407 -0.0858,0.986328 -0.25782,1.736328 l -1.71093,7.429687 h 2.02734 l 1.11328,-5.076172 c 0.164,-0.726 0.37481,-1.337984 0.63281,-1.833984 0.258,-0.496 0.5994,-1.007156 1.02539,-1.535156 0.425,-0.527 0.82804,-0.920641 1.20704,-1.181641 0.379,-0.262 0.73254,-0.392578 1.06054,-0.392578 0.406,0 0.69891,0.117469 0.87891,0.355469 0.18,0.239 0.26953,0.627015 0.26953,1.166015 0,0.219 -0.0299,0.505422 -0.0879,0.857422 -0.059,0.351 -0.18214,0.893907 -0.36914,1.628907 l -0.51563,2.02539 c -0.258,0.985 -0.38671,1.731281 -0.38671,2.238281 0,0.563 0.15303,1.025672 0.45703,1.388672 0.305,0.363 0.71075,0.546875 1.21875,0.546875 0.641,0 1.21093,-0.166047 1.71093,-0.498047 0.5,-0.332 1.08582,-0.857172 1.75782,-1.576171 l -0.66797,-0.65625 c -0.485,0.539 -0.86,0.902749 -1.125,1.09375 -0.266,0.192 -0.516,0.287109 -0.75,0.287109 -0.219,0 -0.37847,-0.06994 -0.48047,-0.210938 -0.101,-0.14 -0.15234,-0.365734 -0.15234,-0.677734 0,-0.352 0.1054,-0.952687 0.3164,-1.804687 l 0.76172,-3.070313 c 0.227,-0.906 0.33984,-1.605656 0.33984,-2.097656 0,-0.742 -0.19493,-1.322235 -0.58593,-1.740235 -0.391,-0.418 -0.94878,-0.626953 -1.67578,-0.626953 -0.734,0 -1.44768,0.258344 -2.13868,0.777344 -0.692,0.52 -1.41954,1.320437 -2.18554,2.398437 l -0.14063,-0.04687 c 0.188,-0.508 0.28125,-0.968813 0.28125,-1.382813 0,-0.523 -0.14273,-0.947484 -0.42773,-1.271484 -0.285,-0.325 -0.67402,-0.488282 -1.16602,-0.488282 z m -149.45703,3.4375 v 2 h 60.5 60.5 v -2 h -60.5 z m 54.51758,12.617188 c -0.594,0 -1.13877,0.166047 -1.63477,0.498047 -0.496,0.332 -1.08839,0.857172 -1.77539,1.576172 L 163.44726,79.5 c 0.468,-0.523 0.83842,-0.884985 1.10742,-1.083985 0.27,-0.199 0.52458,-0.298828 0.76758,-0.298828 0.218,0 0.37947,0.07094 0.48047,0.210938 0.102,0.141 0.15039,0.366687 0.15039,0.679687 0,0.406 -0.0839,0.984375 -0.25586,1.734375 l -1.71094,7.429688 h 2.02735 l 1.11328,-5.074219 c 0.164,-0.719 0.36737,-1.328125 0.60937,-1.828125 0.242,-0.5 0.57782,-1.021453 1.00782,-1.564453 0.429,-0.543 0.83293,-0.937594 1.21093,-1.183594 0.379,-0.247 0.71863,-0.369141 1.01563,-0.369141 0.422,0 0.73264,0.119422 0.93164,0.357422 0.199,0.238 0.29883,0.638172 0.29883,1.201172 0,0.25 -0.0299,0.549485 -0.0879,0.896485 -0.059,0.348 -0.16999,0.884328 -0.33399,1.611328 l -1.34765,5.953125 h 2.02539 l 1.06836,-5.121094 c 0.156,-0.727 0.36495,-1.341703 0.62695,-1.845703 0.261,-0.504 0.59772,-1.016156 1.01172,-1.535156 0.414,-0.52 0.81054,-0.902438 1.18554,-1.148438 0.375,-0.247 0.72669,-0.369141 1.05469,-0.369141 0.406,0 0.69891,0.119422 0.87891,0.357422 0.179,0.238 0.26953,0.627016 0.26953,1.166016 0,0.219 -0.0289,0.504469 -0.0879,0.855469 -0.058,0.352 -0.18114,0.894906 -0.36914,1.628906 L 177.5781,84.1875 c -0.257,0.984 -0.38476,1.730281 -0.38476,2.238281 -1e-5,0.562 0.15203,1.025672 0.45703,1.388672 0.304,0.364 0.71075,0.544922 1.21875,0.544922 0.64,0 1.20898,-0.167907 1.70898,-0.503907 0.5,-0.335 1.08777,-0.859312 1.75977,-1.570312 l -0.66797,-0.65625 c -0.484,0.539 -0.859,0.903703 -1.125,1.095703 -0.265,0.191 -0.515,0.287109 -0.75,0.287109 -0.218,0 -0.37947,-0.07094 -0.48047,-0.210937 -0.102,-0.141 -0.15235,-0.366688 -0.15235,-0.679688 0,-0.351 0.10541,-0.952687 0.31641,-1.804687 l 0.76172,-3.070313 c 0.226,-0.906 0.33789,-1.604656 0.33789,-2.097656 0,-0.75 -0.19398,-1.332094 -0.58398,-1.746094 -0.391,-0.414 -0.94702,-0.621093 -1.66602,-0.621093 -0.718,0 -1.41208,0.232265 -2.08008,0.697265 -0.668,0.464 -1.33581,1.173953 -2.00781,2.126953 0.007,-0.062 0.0117,-0.121781 0.0117,-0.175781 v -0.164062 c 0,-0.805 -0.19689,-1.419703 -0.58789,-1.845703 -0.39,-0.426001 -0.96094,-0.638672 -1.71094,-0.638672 -0.726,0 -1.4433,0.259297 -2.1543,0.779296 -0.711,0.519 -1.42653,1.314766 -2.14453,2.384766 l -0.14062,-0.04687 c 0.18,-0.484 0.26953,-0.941094 0.26953,-1.371094 0,-0.523 -0.14274,-0.947484 -0.42774,-1.271484 -0.285,-0.324 -0.67401,-0.486328 -1.16601,-0.486328 z m -85.048825,13.513672 -0.414063,1.890621 h 1.740234 l 0.431641,-1.890621 z m 21.656245,1.109371 c -0.733,0.392 -1.45402,0.78564 -2.16601,1.18164 -0.712006,0.395 -1.432206,0.79241 -2.158206,1.19141 0.07,0.14 0.13813,0.27711 0.20313,0.41211 0.064,0.134 0.13393,0.2693 0.21093,0.4043 0.568,-0.369 1.02972,-0.64794 1.386716,-0.83594 0.358,-0.187 0.6266,-0.28125 0.8086,-0.28125 0.164,0 0.2909,0.0476 0.3789,0.14062 0.088,0.094 0.13282,0.25538 0.13282,0.48438 v 6.302726 c 0,0.199 -0.0113,0.365 -0.0312,0.5 -0.021,0.134 -0.048,0.2488 -0.084,0.3418 -0.035,0.094 -0.0826,0.17142 -0.14062,0.23242 -0.059,0.062 -0.12894,0.12083 -0.21094,0.17383 -0.076,0.046 -0.16558,0.0852 -0.26758,0.11719 -0.103,0.032 -0.24016,0.0619 -0.41016,0.0879 -0.17,0.027 -0.37328,0.0475 -0.613276,0.0625 -0.24,0.014 -0.53486,0.0281 -0.88086,0.0391 v 0.76367 h 6.970706 v -0.76367 c -0.358,-0.006 -0.66297,-0.0162 -0.91797,-0.0312 -0.255,-0.014 -0.47425,-0.0346 -0.65625,-0.0606 -0.181,-0.026 -0.33027,-0.0596 -0.44727,-0.0977 -0.117,-0.038 -0.21125,-0.0921 -0.28125,-0.16211 -0.059,-0.047 -0.11029,-0.10202 -0.15429,-0.16602 -0.044,-0.065 -0.0795,-0.14337 -0.10547,-0.23437 -0.027,-0.091 -0.0456,-0.20199 -0.0566,-0.33399 -0.012,-0.132 -0.0176,-0.28775 -0.0176,-0.46875 v -6.681636 c 0,-0.235 9e-4,-0.47093 0.004,-0.71093 0.003,-0.24 0.008,-0.48914 0.0137,-0.74415 0.005,-0.25498 0.0134,-0.54128 0.0254,-0.86328 z m -21.14648,2.4336 -2.548828,0.0957 -0.107422,0.59766 c 0.381,0.012 0.646875,0.0708 0.796875,0.17578 0.149,0.106 0.229235,0.27395 0.240235,0.50195 v 0.11914 c 0,0.044 -0.0036,0.0878 -0.01563,0.13477 -0.03,0.275 -0.07949,0.58292 -0.146485,0.91992 -0.068,0.336 -0.143515,0.68583 -0.228515,1.04883 -0.085,0.363 -0.169813,0.73061 -0.257813,1.09961 -0.088,0.37 -0.168187,0.72159 -0.242187,1.05859 -0.073,0.336 -0.132688,0.649496 -0.179688,0.937496 -0.047,0.287 -0.07031,0.52575 -0.07031,0.71875 0,0.241 0.03351,0.46116 0.103515,0.66016 0.071,0.2 0.17178,0.36967 0.300782,0.51367 0.129,0.143 0.281937,0.25589 0.460937,0.33789 0.178,0.082 0.378563,0.12305 0.601563,0.12305 0.239998,0 0.46764,-0.0289 0.68164,-0.0879 0.214,-0.058 0.432297,-0.15407 0.654297,-0.28907 0.223,-0.135 0.458031,-0.30943 0.707031,-0.52343 0.249,-0.214 0.52703,-0.47516 0.832032,-0.78516 l -0.597657,-0.58203 c -0.176,0.194 -0.337468,0.36003 -0.480469,0.49805 -0.143999,0.13799 -0.273531,0.25089 -0.394531,0.33789 -0.12,0.088 -0.23189,0.15236 -0.33789,0.19335 -0.105,0.041 -0.211407,0.0606 -0.316407,0.0606 -0.182,0 -0.319156,-0.0484 -0.410156,-0.14844 -0.091,-0.1 -0.134766,-0.26042 -0.134766,-0.48242 0,-0.165 0.01488,-0.34969 0.04688,-0.55469 0.032,-0.20498 0.08988,-0.48117 0.171874,-0.826166 l 1.300782,-5.85351 z m 4.033204,1.16015 v 1.34375 h 10.125 v -1.34375 z m 0,3.82422 v 1.343746 h 10.125 v -1.343746 z"
     id="path7"
     inkscape:connector-curvature="0" />
  <text
     style="font-size:45.82030106px;font-family:Arial, Arial_MSFontService, sans-serif;fill:#000000;fill-opacity:0"
     id="text39"
     y="82.451721"
     x="76.628983"
     font-size="45.8203">เท</text>
</svg>
