<?xml version="1.0" encoding="UTF-8" standalone="no"?>
<svg
   xmlns:dc="http://purl.org/dc/elements/1.1/"
   xmlns:cc="http://creativecommons.org/ns#"
   xmlns:rdf="http://www.w3.org/1999/02/22-rdf-syntax-ns#"
   xmlns:svg="http://www.w3.org/2000/svg"
   xmlns="http://www.w3.org/2000/svg"
   xmlns:sodipodi="http://sodipodi.sourceforge.net/DTD/sodipodi-0.dtd"
   xmlns:inkscape="http://www.inkscape.org/namespaces/inkscape"
   width="398.22266"
   height="52.066406"
   overflow="hidden"
   version="1.1"
   id="svg45"
   sodipodi:docname="S-formula6.svg"
   inkscape:version="0.92.4 (5da689c313, 2019-01-14)"
   style="overflow:hidden">
  <metadata
     id="metadata49">
    <rdf:RDF>
      <cc:Work
         rdf:about="">
        <dc:format>image/svg+xml</dc:format>
        <dc:type
           rdf:resource="http://purl.org/dc/dcmitype/StillImage" />
        <dc:title></dc:title>
      </cc:Work>
    </rdf:RDF>
  </metadata>
  <sodipodi:namedview
     pagecolor="#ffffff"
     bordercolor="#666666"
     borderopacity="1"
     objecttolerance="10"
     gridtolerance="10"
     guidetolerance="10"
     inkscape:pageopacity="0"
     inkscape:pageshadow="2"
     inkscape:window-width="1953"
     inkscape:window-height="1124"
     id="namedview47"
     showgrid="false"
     inkscape:zoom="1.7882353"
     inkscape:cx="195.92848"
     inkscape:cy="58.704593"
     inkscape:window-x="0"
     inkscape:window-y="0"
     inkscape:window-maximized="0"
     inkscape:current-layer="svg45"
     fit-margin-top="0"
     fit-margin-left="0"
     fit-margin-right="0"
     fit-margin-bottom="0" />
  <defs
     id="defs5">
    <clipPath
       id="clip0">
      <rect
         x="58"
         y="515"
         width="425"
         height="67"
         id="rect2" />
    </clipPath>
  </defs>
  <path
     style="font-weight:400;font-size:24px;font-family:'Cambria Math', 'Cambria Math_MSFontService', sans-serif"
     d="m 109.26563,0 c -1.33594,0 -2.43749,0.3554689 -3.30469,1.066406 -0.85937,0.703126 -1.49609,1.757813 -1.91015,3.164063 -0.14063,0.46875 -0.25782,0.792969 -0.35157,0.972656 -0.0859,0.171875 -0.19531,0.3125 -0.32812,0.421875 -0.125,0.109376 -0.30469,0.191407 -0.53906,0.246094 -0.22657,0.05469 -0.60157,0.09766 -1.125,0.128906 l -0.17578,0.808594 h 1.98045 l -2.51952,11.144531 c -0.17968,0.789063 -0.37891,1.40625 -0.59765,1.851562 -0.21094,0.445313 -0.441415,0.757813 -0.691415,0.9375 -0.25,0.179688 -0.55078,0.269532 -0.90234,0.269532 -0.28907,0 -0.47266,-0.01172 -0.55079,-0.03516 l -0.19921,1.03125 c 0.1875,0.03906 0.44531,0.05859 0.77343,0.05859 1.125,0 2.058605,-0.417969 2.800785,-1.253906 0.74219,-0.828125 1.29298,-2.089844 1.65235,-3.785156 l 2.17969,-10.21875 h 3.02343 l 0.25782,-1.183594 h -3.01172 l 0.29297,-1.277344 c 0.1875,-0.820312 0.39062,-1.472656 0.60937,-1.957031 0.21875,-0.484375 0.48047,-0.847656 0.78516,-1.089844 0.3125,-0.25 0.6914,-0.375 1.13672,-0.375 0.34374,0 0.60155,0.09766 0.77343,0.292969 0.17969,0.195313 0.32422,0.515625 0.4336,0.960937 h 1.03125 l 0.45703,-1.992187 c -0.55469,-0.125 -1.21484,-0.1875 -1.98047,-0.1875 z m 61.98632,0.070312 -2.96485,0.1054687 -0.14062,0.609375 c 0.51563,0.015625 0.87109,0.089844 1.06641,0.2226568 0.20312,0.132812 0.30468,0.36328 0.30468,0.691406 0,0.359374 -0.0898,0.937499 -0.26953,1.734375 l -3.03515,13.3945315 0.75,0.1875 1.07813,-0.761719 c 0.80468,0.507813 1.72656,0.761719 2.76562,0.761719 1.14063,0 2.17188,-0.363281 3.09375,-1.089844 0.92188,-0.734374 1.64063,-1.722655 2.15625,-2.964844 0.52343,-1.25 0.78515,-2.519531 0.78515,-3.808593 0,-1.179688 -0.23828,-2.09375 -0.71484,-2.742188 -0.46876,-0.648437 -1.12891,-0.972656 -1.98047,-0.972656 -0.66406,0 -1.32812,0.226562 -1.99219,0.679687 -0.66406,0.453125 -1.375,1.187501 -2.13281,2.203126 l -0.15234,-0.04688 2.0625,-8.2031245 z M 74.513672,2.730469 c -0.25,0.789062 -0.4375,1.34375 -0.5625,1.664062 -0.125,0.3125 -0.253907,0.570312 -0.386719,0.773438 -0.132813,0.203124 -0.28125,0.359374 -0.445312,0.46875 -0.15625,0.109374 -0.355469,0.195312 -0.597657,0.257812 C 72.287109,5.957031 71.939453,5.992191 71.478516,6 l -0.175782,0.808594 h 1.96875 l -1.382812,6.082031 c -0.132812,0.578125 -0.199219,1.128906 -0.199219,1.652344 0,1.648437 0.816407,2.472656 2.449219,2.472656 0.6875,0 1.34375,-0.195312 1.96875,-0.585938 0.632813,-0.390624 1.289063,-0.996093 1.96875,-1.816406 l -0.679688,-0.703125 c -0.53125,0.632813 -0.992187,1.082032 -1.382812,1.347657 -0.382812,0.257812 -0.746094,0.386718 -1.089844,0.386718 -0.804688,0 -1.207031,-0.484375 -1.207031,-1.453125 0,-0.234374 0.02734,-0.542968 0.08203,-0.925781 0.05469,-0.390625 0.183594,-1.027344 0.386719,-1.910156 l 1.042969,-4.546875 h 3.5625 L 79.048827,5.625 h -3.5625 L 76.130858,2.730469 Z M 46.154297,5.425781 c -0.382812,0 -0.730469,0.05469 -1.042969,0.164063 -0.304688,0.101562 -0.625,0.277343 -0.960937,0.527343 -0.335938,0.25 -0.835938,0.710938 -1.5,1.382813 l 0.667968,0.65625 c 0.46875,-0.523437 0.835938,-0.882812 1.101563,-1.078125 0.273438,-0.203125 0.53125,-0.304688 0.773437,-0.304688 0.21875,0 0.378906,0.07031 0.480469,0.210938 0.101562,0.140625 0.152344,0.367188 0.152344,0.679688 0,0.351562 -0.105469,0.953124 -0.316406,1.804687 l -0.761719,3.070313 c -0.226562,0.906249 -0.339844,1.605468 -0.339844,2.097656 0,0.742187 0.195313,1.324219 0.585938,1.746094 0.390625,0.414062 0.949219,0.621093 1.675781,0.621093 0.726563,0 1.433594,-0.257813 2.121094,-0.773437 0.695312,-0.515626 1.429687,-1.316407 2.203125,-2.402344 l 0.140625,0.04687 c -0.1875,0.5 -0.28125,0.960938 -0.28125,1.382813 0,0.53125 0.144531,0.957031 0.433593,1.277343 0.289063,0.320313 0.675782,0.480469 1.160157,0.480469 0.5625,0 1.09375,-0.15625 1.59375,-0.46875 0.5,-0.3125 1.105469,-0.847656 1.816406,-1.605469 l -0.667969,-0.65625 c -0.484375,0.539063 -0.859375,0.90625 -1.125,1.101563 -0.265625,0.1875 -0.515625,0.28125 -0.75,0.28125 -0.21875,0 -0.378906,-0.07031 -0.480469,-0.210938 -0.101562,-0.140624 -0.152343,-0.367187 -0.152343,-0.679687 0,-0.40625 0.08594,-0.984375 0.257812,-1.734375 l 1.710938,-7.429688 h -2.027344 l -1.113281,5.074219 c -0.164063,0.726563 -0.375001,1.339844 -0.632813,1.839844 -0.257813,0.492187 -0.601563,1.003906 -1.03125,1.535156 -0.421875,0.523437 -0.824218,0.917968 -1.207031,1.183594 -0.375,0.257812 -0.726563,0.386719 -1.054688,0.386719 -0.40625,0 -0.699219,-0.117188 -0.878906,-0.351563 -0.179688,-0.242187 -0.269531,-0.632812 -0.269531,-1.171875 0,-0.140625 0.01172,-0.316406 0.03516,-0.527344 0.03125,-0.210937 0.07422,-0.460937 0.128906,-0.75 0.0625,-0.289062 0.160156,-0.691406 0.292969,-1.207031 l 0.515625,-2.027344 c 0.242187,-0.921874 0.363281,-1.691405 0.363281,-2.308593 0,-0.570313 -0.144531,-1.023438 -0.433593,-1.359376 C 47.048832,5.593745 46.654301,5.425776 46.154301,5.425776 Z m 13.6875,0 c -0.601562,0 -1.140625,0.160156 -1.617188,0.480469 C 57.748047,6.21875 57.150391,6.75 56.431641,7.5 l 0.667968,0.65625 c 0.46875,-0.523437 0.835938,-0.882812 1.101563,-1.078125 0.273438,-0.203125 0.53125,-0.304688 0.773437,-0.304688 0.21875,0 0.378906,0.07031 0.480469,0.210938 0.101562,0.140625 0.152344,0.367188 0.152344,0.679688 0,0.40625 -0.08594,0.984374 -0.257813,1.734374 l -1.710937,7.429688 h 2.027344 l 1.113281,-5.074219 c 0.164063,-0.726562 0.375,-1.335937 0.632812,-1.828125 0.257813,-0.5 0.597657,-1.011719 1.019532,-1.535156 0.429687,-0.53125 0.832031,-0.925781 1.207031,-1.183594 0.382813,-0.265624 0.738281,-0.398437 1.066406,-0.398437 0.40625,0 0.699219,0.121094 0.878906,0.363281 0.179688,0.234375 0.269532,0.621094 0.269532,1.160156 0,0.21875 -0.03125,0.503906 -0.09375,0.855469 -0.05469,0.351563 -0.175782,0.894532 -0.363282,1.628906 l -0.515625,2.027344 c -0.257812,0.984375 -0.386718,1.730469 -0.386718,2.238281 0,0.5625 0.152344,1.027344 0.457031,1.394532 0.304688,0.359375 0.710938,0.539062 1.21875,0.539062 0.640625,0 1.210937,-0.164062 1.710937,-0.492188 0.5,-0.335937 1.085938,-0.863281 1.757813,-1.582031 l -0.667969,-0.65625 c -0.484375,0.539063 -0.859375,0.90625 -1.125,1.101563 -0.265625,0.1875 -0.515625,0.28125 -0.75,0.28125 -0.21875,0 -0.378906,-0.07031 -0.480469,-0.210938 -0.101562,-0.140624 -0.152343,-0.367187 -0.152343,-0.679687 0,-0.351563 0.105469,-0.953125 0.316406,-1.804688 l 0.761719,-3.070312 c 0.226562,-0.90625 0.339843,-1.605468 0.339843,-2.097657 0,-0.742187 -0.195312,-1.320313 -0.585937,-1.734374 C 66.904297,5.648437 66.345703,5.4375 65.619141,5.4375 c -0.734375,0 -1.449219,0.261719 -2.144532,0.785156 -0.6875,0.515626 -1.414062,1.312501 -2.179687,2.390625 l -0.140625,-0.04687 c 0.1875,-0.507812 0.28125,-0.96875 0.28125,-1.382812 0,-0.523438 -0.144532,-0.945313 -0.433594,-1.265625 -0.28125,-0.328126 -0.667968,-0.492188 -1.160156,-0.492188 z m 61.312493,0 c -0.60156,0 -1.14062,0.160156 -1.61719,0.480469 C 119.06054,6.21875 118.46289,6.75 117.74415,7.5 l 0.66795,0.65625 c 0.46875,-0.523437 0.83594,-0.882812 1.10158,-1.078125 0.27342,-0.203125 0.53124,-0.304688 0.77342,-0.304688 0.21875,0 0.37891,0.07031 0.48047,0.210938 0.10158,0.140625 0.15236,0.367188 0.15236,0.679688 0,0.40625 -0.0859,0.984374 -0.25783,1.734374 l -1.71092,7.429688 h 2.02734 l 1.11328,-5.074219 c 0.16407,-0.726562 0.375,-1.335937 0.63281,-1.828125 0.25781,-0.5 0.59766,-1.011719 1.01954,-1.535156 0.42968,-0.53125 0.83203,-0.925781 1.20703,-1.183594 0.38281,-0.265624 0.73828,-0.398437 1.0664,-0.398437 0.40626,0 0.69922,0.121094 0.87891,0.363281 0.17969,0.234375 0.26953,0.621094 0.26953,1.160156 0,0.21875 -0.0313,0.503906 -0.0937,0.855469 -0.0547,0.351563 -0.17578,0.894532 -0.36328,1.628906 l -0.51563,2.027344 c -0.25781,0.984375 -0.38671,1.730469 -0.38671,2.238281 0,0.5625 0.15234,1.027344 0.45703,1.394532 0.30468,0.359375 0.71093,0.539062 1.21875,0.539062 0.64062,0 1.21093,-0.164062 1.71093,-0.492188 0.5,-0.335937 1.08593,-0.863281 1.75782,-1.582031 l -0.66797,-0.65625 c -0.48438,0.539063 -0.85938,0.90625 -1.125,1.101563 -0.26563,0.1875 -0.51563,0.28125 -0.75,0.28125 -0.21876,0 -0.37891,-0.07031 -0.48047,-0.210938 -0.10156,-0.140624 -0.15234,-0.367187 -0.15234,-0.679687 0,-0.351563 0.10547,-0.953125 0.31639,-1.804688 l 0.76172,-3.070312 c 0.22658,-0.90625 0.33985,-1.605468 0.33985,-2.097657 0,-0.742187 -0.19532,-1.320313 -0.58593,-1.734374 C 128.21685,5.648437 127.65826,5.4375 126.9317,5.4375 c -0.73438,0 -1.44923,0.261719 -2.14454,0.785156 -0.6875,0.515626 -1.41406,1.312501 -2.17968,2.390625 l -0.14063,-0.04687 c 0.1875,-0.507812 0.28125,-0.96875 0.28125,-1.382812 0,-0.523438 -0.14453,-0.945313 -0.43359,-1.265625 -0.28126,-0.328126 -0.66797,-0.492188 -1.16016,-0.492188 z m 13.875,0 c -0.38281,0 -0.73047,0.05469 -1.04297,0.164063 -0.30468,0.101562 -0.625,0.277343 -0.96093,0.527343 -0.33594,0.25 -0.83594,0.710938 -1.5,1.382813 l 0.66796,0.65625 c 0.46875,-0.523437 0.83594,-0.882812 1.10157,-1.078125 0.27343,-0.203125 0.53124,-0.304688 0.77343,-0.304688 0.21875,0 0.37891,0.07031 0.48047,0.210938 0.10157,0.140625 0.15235,0.367188 0.15235,0.679688 0,0.351562 -0.10547,0.953124 -0.3164,1.804687 l -0.76172,3.070313 c -0.22656,0.906249 -0.33985,1.605468 -0.33985,2.097656 0,0.742187 0.19532,1.324219 0.58594,1.746094 0.39063,0.414062 0.94921,0.621093 1.67578,0.621093 0.72657,0 1.4336,-0.257813 2.1211,-0.773437 0.69531,-0.515626 1.42968,-1.316407 2.20312,-2.402344 l 0.14063,0.04687 c -0.1875,0.5 -0.28125,0.960938 -0.28125,1.382813 0,0.53125 0.14453,0.957031 0.43359,1.277343 0.28906,0.320313 0.67579,0.480469 1.16016,0.480469 0.5625,0 1.09375,-0.15625 1.59375,-0.46875 0.5,-0.3125 1.10547,-0.847656 1.8164,-1.605469 l -0.66797,-0.65625 c -0.48437,0.539063 -0.85937,0.90625 -1.125,1.101563 -0.26562,0.1875 -0.51562,0.28125 -0.75,0.28125 -0.21876,0 -0.3789,-0.07031 -0.48046,-0.210938 -0.10157,-0.140624 -0.15235,-0.367187 -0.15235,-0.679687 0,-0.40625 0.0859,-0.984375 0.25781,-1.734375 l 1.71094,-7.429688 h -2.02735 l -1.11328,5.074219 c -0.16406,0.726563 -0.375,1.339844 -0.63281,1.839844 -0.25782,0.492187 -0.60157,1.003906 -1.03125,1.535156 -0.42188,0.523437 -0.82422,0.917968 -1.20703,1.183594 -0.375,0.257812 -0.72656,0.386719 -1.05469,0.386719 -0.40625,0 -0.69921,-0.117188 -0.87891,-0.351563 -0.17968,-0.242187 -0.26953,-0.632812 -0.26953,-1.171875 0,-0.140625 0.0117,-0.316406 0.0352,-0.527344 0.0313,-0.210937 0.0742,-0.460937 0.1289,-0.75 0.0625,-0.289062 0.16017,-0.691406 0.29297,-1.207031 l 0.51563,-2.027344 c 0.24218,-0.921874 0.36328,-1.691405 0.36328,-2.308593 0,-0.570313 -0.14453,-1.023438 -0.43359,-1.359376 -0.28907,-0.335937 -0.6836,-0.503906 -1.1836,-0.503906 z m 13.6875,0 c -0.59374,0 -1.14062,0.167968 -1.64062,0.503906 C 146.58398,6.257812 145.99414,6.78125 145.30664,7.5 l 0.66796,0.65625 c 0.46875,-0.523437 0.83594,-0.882812 1.10157,-1.078125 0.27343,-0.203125 0.53124,-0.304688 0.77343,-0.304688 0.21875,0 0.37891,0.07031 0.48047,0.210938 0.10157,0.140625 0.15235,0.367188 0.15235,0.679688 0,0.40625 -0.0859,0.984374 -0.25782,1.734374 l -1.71093,7.429688 h 2.02735 l 1.11328,-5.074219 c 0.16407,-0.71875 0.36719,-1.328125 0.60937,-1.828125 0.24218,-0.5 0.57813,-1.019531 1.00782,-1.558594 0.42968,-0.546874 0.83203,-0.941406 1.20703,-1.183593 0.38281,-0.25 0.72265,-0.375 1.01953,-0.375 0.42187,0 0.73048,0.121094 0.92578,0.363281 0.20312,0.234375 0.30469,0.632812 0.30469,1.195312 0,0.25 -0.0313,0.550782 -0.0937,0.902344 -0.0547,0.34375 -0.16406,0.878906 -0.32812,1.605469 l -1.3477,5.953125 h 2.02734 l 1.06641,-5.121094 c 0.15625,-0.726562 0.36329,-1.339844 0.62109,-1.839844 0.26562,-0.507812 0.60547,-1.01953 1.01953,-1.535156 0.41406,-0.523437 0.8086,-0.90625 1.1836,-1.148437 0.375,-0.25 0.72656,-0.375 1.05469,-0.375 0.40624,0 0.69922,0.121094 0.8789,0.363281 0.17969,0.234375 0.26953,0.621094 0.26953,1.160156 0,0.21875 -0.0313,0.503906 -0.0937,0.855469 -0.0547,0.351563 -0.17578,0.894532 -0.36328,1.628906 l -0.51562,2.027344 c -0.25782,0.984375 -0.38672,1.730469 -0.38672,2.238281 0,0.5625 0.15234,1.027344 0.45703,1.394532 0.30469,0.359375 0.71094,0.539062 1.21875,0.539062 0.64063,0 1.21094,-0.167969 1.71094,-0.503906 0.5,-0.335938 1.08594,-0.859375 1.75781,-1.570313 l -0.66797,-0.65625 c -0.48437,0.539063 -0.85937,0.90625 -1.125,1.101563 -0.26562,0.1875 -0.51562,0.28125 -0.75,0.28125 -0.21875,0 -0.37889,-0.07031 -0.48047,-0.210938 -0.10156,-0.140624 -0.15234,-0.367187 -0.15234,-0.679687 0,-0.351563 0.10546,-0.953125 0.3164,-1.804688 l 0.76172,-3.070312 c 0.22657,-0.90625 0.33985,-1.605468 0.33985,-2.097657 0,-0.749999 -0.19531,-1.332031 -0.58594,-1.746093 -0.39062,-0.414063 -0.94532,-0.621094 -1.66406,-0.621094 -0.71876,0 -1.41407,0.234375 -2.08594,0.703125 -0.66406,0.460937 -1.33203,1.167968 -2.00391,2.121094 0.008,-0.0625 0.0117,-0.121095 0.0117,-0.175782 V 7.921875 c 0,-0.804687 -0.19532,-1.417968 -0.58594,-1.839844 -0.39062,-0.429687 -0.96092,-0.644531 -1.71092,-0.644531 -0.72658,0 -1.44533,0.261719 -2.15625,0.785156 -0.71094,0.515626 -1.4258,1.308595 -2.14453,2.378907 l -0.14063,-0.04688 c 0.17969,-0.484374 0.26953,-0.941406 0.26953,-1.371093 0,-0.523438 -0.14453,-0.945313 -0.43359,-1.265625 -0.28126,-0.328126 -0.66797,-0.492188 -1.16016,-0.492188 z m 37.3125,0 c -0.96093,0 -1.86718,0.210937 -2.71875,0.632813 -0.85156,0.414062 -1.58203,1.003906 -2.1914,1.769531 -0.60937,0.757813 -1.0664,1.617188 -1.3711,2.578125 -0.29687,0.953125 -0.44531,1.847656 -0.44531,2.683594 0,1.234374 0.30859,2.199218 0.92578,2.894531 0.625,0.6875 1.50391,1.03125 2.63672,1.03125 1.03125,0 1.9336,-0.210937 2.70703,-0.632812 0.78125,-0.421875 1.55078,-1.050782 2.30859,-1.886719 l -0.72656,-0.761719 c -0.64843,0.648437 -1.26562,1.128906 -1.85156,1.441406 -0.57813,0.3125 -1.22657,0.46875 -1.94531,0.46875 -0.72657,0 -1.25001,-0.183594 -1.57032,-0.550781 -0.32031,-0.375 -0.48046,-0.972656 -0.48046,-1.792969 0,-0.546874 0.0469,-1.054687 0.14062,-1.523437 2.45313,0 4.30078,-0.332031 5.54297,-0.996094 1.25,-0.664063 1.875,-1.660157 1.875,-2.988281 0,-0.8125 -0.23828,-1.410156 -0.71484,-1.792969 -0.46876,-0.382813 -1.17578,-0.574219 -2.1211,-0.574219 z m 7.62891,0 c -0.58594,0 -1.1211,0.160156 -1.60547,0.480469 C 191.56836,6.21875 190.9668,6.75 190.24804,7.5 l 0.66797,0.65625 c 0.46875,-0.523437 0.83594,-0.882812 1.10156,-1.078125 0.27344,-0.203125 0.53125,-0.304688 0.77344,-0.304688 0.21875,0 0.37891,0.07031 0.48047,0.210938 0.10156,0.140625 0.15234,0.367188 0.15234,0.679688 0,0.171875 -0.0156,0.386718 -0.0469,0.644531 -0.0313,0.257812 -0.10157,0.621093 -0.21094,1.089843 l -1.69919,7.429688 h 2.02735 l 1.11328,-5.074219 c 0.16407,-0.734374 0.36719,-1.339843 0.60938,-1.816406 0.25,-0.476563 0.58203,-0.972657 0.9961,-1.488281 0.41406,-0.515626 0.78515,-0.894532 1.11328,-1.136719 0.33593,-0.242187 0.64452,-0.363281 0.92578,-0.363281 0.17968,0 0.32812,0.03516 0.44531,0.105468 0.11719,0.07031 0.21875,0.195313 0.30469,0.375 0.0859,0.179688 0.15235,0.433595 0.19922,0.761719 h 1.20703 l 0.5625,-2.625 C 200.58789,5.480466 200.11133,5.4375 199.54102,5.4375 c -0.72656,0 -1.44531,0.242187 -2.15625,0.726563 -0.70313,0.484374 -1.4375,1.246093 -2.20312,2.285156 l -0.15235,-0.05859 c 0.14844,-0.414063 0.22265,-0.816407 0.22265,-1.207031 0,-0.523438 -0.14454,-0.945313 -0.4336,-1.265625 C 194.5371,5.589847 194.15038,5.425785 193.6582,5.425785 Z M 26.267578,5.437501 c -0.914063,0 -1.773438,0.1875 -2.578125,0.5625 -0.804688,0.375 -1.507813,0.941406 -2.109375,1.699219 -0.601563,0.757812 -1.058594,1.636718 -1.371094,2.636718 -0.3125,1 -0.46875,1.917969 -0.46875,2.753907 0,1.28125 0.292969,2.257813 0.878907,2.929687 0.585937,0.671876 1.445312,1.007813 2.578125,1.007813 0.859375,0 1.660156,-0.1875 2.402343,-0.5625 0.75,-0.375 1.492188,-0.96875 2.226563,-1.78125 l -0.714844,-0.714844 c -0.578125,0.578125 -1.128906,1.003906 -1.652344,1.277344 -0.515625,0.265624 -1.128906,0.398437 -1.839843,0.398437 -0.625,0 -1.09375,-0.191406 -1.40625,-0.574218 -0.3125,-0.390625 -0.46875,-0.984375 -0.46875,-1.78125 0,-1.0625 0.199219,-2.167969 0.597656,-3.316407 0.398438,-1.15625 0.910156,-2.046875 1.535156,-2.671875 0.632812,-0.632812 1.34375,-0.949219 2.132813,-0.949218 0.335937,0 0.593749,0.06641 0.773437,0.199218 0.1875,0.132813 0.320313,0.332032 0.398438,0.597656 0.08594,0.265626 0.136717,0.695313 0.152343,1.289063 h 1.230469 L 29.138672,5.789064 C 28.263672,5.554688 27.30664,5.437501 26.267578,5.437501 Z m 10.957031,0 c -1,0 -1.917969,0.222656 -2.753906,0.667969 -0.835938,0.4375 -1.539063,1.070313 -2.109375,1.898437 -0.570313,0.828126 -0.976563,1.796876 -1.21875,2.90625 -0.1875,0.820313 -0.28125,1.542969 -0.28125,2.167969 0,1.273437 0.332032,2.25 0.996094,2.929688 0.671875,0.679687 1.613281,1.019531 2.824219,1.019531 0.992187,0 1.871093,-0.175781 2.636718,-0.527344 0.765625,-0.359375 1.421875,-0.890625 1.96875,-1.59375 0.554688,-0.703125 0.988282,-1.570313 1.300782,-2.601563 0.320312,-1.03125 0.480468,-2 0.480468,-2.90625 0,-1.273437 -0.328125,-2.25 -0.984375,-2.929687 -0.65625,-0.6875 -1.609375,-1.03125 -2.859375,-1.03125 z m 55.857426,0 c -1,0 -1.91797,0.222656 -2.75391,0.667969 -0.83593,0.4375 -1.53906,1.070313 -2.10937,1.898437 -0.57032,0.828126 -0.976566,1.796876 -1.218755,2.90625 -0.1875,0.820313 -0.28125,1.542969 -0.28125,2.167969 0,1.273437 0.332032,2.25 0.996095,2.929688 0.67187,0.679687 1.61328,1.019531 2.82422,1.019531 0.99218,0 1.87109,-0.175781 2.63672,-0.527344 0.76562,-0.359375 1.42187,-0.890625 1.96875,-1.59375 0.55468,-0.703125 0.98828,-1.570313 1.30078,-2.601563 0.32031,-1.03125 0.48047,-2 0.48047,-2.90625 0,-1.273437 -0.32813,-2.25 -0.98438,-2.929687 -0.65625,-0.6875 -1.60937,-1.03125 -2.85937,-1.03125 z m 114.873035,0 c -0.8203,0 -1.53905,0.125 -2.15625,0.375 -0.61718,0.25 -1.09375,0.609375 -1.42968,1.078125 -0.32812,0.460937 -0.49219,1 -0.49219,1.617188 0,0.453125 0.0859,0.855468 0.25782,1.207031 0.17187,0.34375 0.42578,0.664063 0.76172,0.960937 0.34375,0.296876 0.82031,0.628907 1.42968,0.996094 0.57813,0.351563 1,0.644532 1.26563,0.878906 0.26562,0.234376 0.45703,0.48047 0.57422,0.738282 0.11718,0.25 0.17578,0.550781 0.17578,0.902343 0,0.609376 -0.21094,1.082032 -0.63281,1.417969 -0.41407,0.328125 -0.99219,0.492188 -1.73438,0.492188 -0.85156,0 -1.47265,-0.191407 -1.86328,-0.574219 -0.39061,-0.382814 -0.60155,-0.94922 -0.63282,-1.69922 h -0.91406 l -0.5625,2.554688 c 0.76562,0.234375 1.46094,0.398437 2.08594,0.492187 0.625,0.101563 1.26172,0.152344 1.91015,0.152344 0.8125,0 1.53516,-0.121093 2.16797,-0.363281 0.64063,-0.242188 1.14453,-0.609376 1.51172,-1.101563 0.375,-0.5 0.5625,-1.097656 0.5625,-1.792969 0,-0.382812 -0.0391,-0.707031 -0.11719,-0.972656 -0.0781,-0.273437 -0.20312,-0.531249 -0.375,-0.773438 -0.17187,-0.242187 -0.40625,-0.484375 -0.70312,-0.726562 -0.29688,-0.25 -0.6914,-0.523437 -1.1836,-0.820312 -0.625,-0.375 -1.08594,-0.691407 -1.38281,-0.949219 -0.29687,-0.257813 -0.4961,-0.492188 -0.59766,-0.703125 -0.0937,-0.21875 -0.14062,-0.46875 -0.14062,-0.75 0,-0.515626 0.1914,-0.929688 0.57422,-1.242188 0.38281,-0.320312 0.88281,-0.480469 1.5,-0.480468 0.79687,0 1.37891,0.179687 1.74609,0.539062 0.375,0.359375 0.60547,0.886719 0.69141,1.582031 h 0.94922 l 0.52734,-2.460937 c -0.59375,-0.210938 -1.1914,-0.359375 -1.79297,-0.445313 -0.59374,-0.08594 -1.2539,-0.128906 -1.98047,-0.128905 z m -22.34765,0.914063 c 0.4375,0 0.76563,0.136718 0.98437,0.410156 0.22657,0.265624 0.33985,0.636718 0.33985,1.113281 0,0.710937 -0.21094,1.277343 -0.63282,1.699219 -0.42187,0.414062 -1.02734,0.71875 -1.8164,0.914062 -0.78907,0.1875 -1.73437,0.285156 -2.83593,0.292969 0.39062,-1.359375 0.94921,-2.4375 1.67578,-3.234375 0.73437,-0.796875 1.49609,-1.195312 2.28515,-1.195312 z M 36.990234,6.375004 c 0.695313,0 1.207032,0.214844 1.535157,0.644531 0.328125,0.421876 0.492187,1.054688 0.492187,1.898438 0,0.9375 -0.171875,2.027344 -0.515625,3.269531 -0.34375,1.234375 -0.8125,2.195313 -1.40625,2.882813 -0.59375,0.6875 -1.273437,1.03125 -2.039062,1.03125 -0.71875,0 -1.257813,-0.203126 -1.617188,-0.609376 -0.351563,-0.414062 -0.527344,-1.05078 -0.527344,-1.910156 0,-0.914062 0.171875,-2.003906 0.515625,-3.269531 0.351563,-1.265625 0.828126,-2.238281 1.429688,-2.917969 0.609375,-0.679687 1.320312,-1.019531 2.132812,-1.019531 z m 55.857421,0 c 0.69531,0 1.20703,0.214844 1.53516,0.644531 0.32812,0.421876 0.49218,1.054688 0.49218,1.898438 0,0.9375 -0.17187,2.027344 -0.51562,3.269531 -0.34375,1.234375 -0.8125,2.195313 -1.40625,2.882813 -0.59375,0.6875 -1.27344,1.03125 -2.03906,1.03125 -0.71876,0 -1.25782,-0.203126 -1.61719,-0.609376 -0.35156,-0.414062 -0.52734,-1.05078 -0.52734,-1.910156 0,-0.914062 0.17187,-2.003906 0.51562,-3.269531 0.35157,-1.265625 0.82813,-2.238281 1.42969,-2.917969 0.60937,-0.679687 1.32031,-1.019531 2.13281,-1.019531 z m 80.455075,0.433594 c 0.50781,0 0.875,0.203125 1.10156,0.609375 0.23438,0.40625 0.35156,1.015625 0.35156,1.828125 0,0.601562 -0.0625,1.234375 -0.1875,1.898437 -0.125,0.65625 -0.30077,1.273437 -0.52734,1.851563 -0.22656,0.578124 -0.47656,1.066406 -0.75,1.464843 -0.26563,0.390626 -0.55078,0.707032 -0.85547,0.949219 -0.29687,0.242188 -0.58984,0.417969 -0.8789,0.527344 -0.28907,0.101563 -0.59375,0.152344 -0.91407,0.152344 -0.625,0 -1.07422,-0.136719 -1.34765,-0.410157 -0.26562,-0.273437 -0.39843,-0.71875 -0.39843,-1.335937 0,-0.515625 0.0586,-1.046875 0.17578,-1.59375 l 0.10547,-0.492187 c 0.19531,-0.898438 0.4336,-1.63672 0.71484,-2.214844 0.28126,-0.578126 0.64453,-1.140626 1.08985,-1.6875 0.44531,-0.554688 0.84765,-0.949219 1.20703,-1.183594 0.36718,-0.242187 0.73828,-0.363281 1.11327,-0.363281 z m 146.01758,9.835937 -5.48438,3.269532 0.51563,0.902343 c 0.67969,-0.453124 1.25,-0.808593 1.71094,-1.066406 0.46095,-0.257813 0.81641,-0.386719 1.06641,-0.386719 0.21093,0 0.3711,0.07422 0.48047,0.222656 0.10938,0.140626 0.16406,0.367188 0.16406,0.679688 v 9.503906 c 0,0.546876 -0.0469,0.941407 -0.14062,1.183594 -0.0859,0.242187 -0.22656,0.429687 -0.42188,0.5625 -0.19531,0.132813 -0.48047,0.234375 -0.85547,0.304688 -0.36718,0.0625 -0.98437,0.113283 -1.85156,0.152343 v 0.855465 h 8.66016 v -0.855469 c -0.60156,-0.01563 -1.08594,-0.04297 -1.45313,-0.08203 -0.36718,-0.04687 -0.67187,-0.109375 -0.91406,-0.1875 -0.24219,-0.08594 -0.42969,-0.199218 -0.5625,-0.339844 -0.12502,-0.148437 -0.21486,-0.335937 -0.26953,-0.5625 -0.0469,-0.234374 -0.0703,-0.578124 -0.0703,-1.03125 V 19.761719 c 0,-1.328126 0.0234,-2.367188 0.0703,-3.117188 z m 42.75,0 c -1.0625,0 -2,0.191406 -2.8125,0.574219 -0.8125,0.382813 -1.44141,0.925782 -1.88672,1.628906 -0.44531,0.703126 -0.66797,1.515626 -0.66797,2.4375 0,0.578126 0.11328,1.101563 0.33984,1.570313 0.22656,0.46875 0.53125,0.894531 0.91407,1.277344 0.38281,0.375 0.86328,0.757812 1.4414,1.148437 0.64062,0.429687 1.12891,0.8125 1.46485,1.148437 0.34375,0.328126 0.59765,0.675782 0.76171,1.042969 0.17188,0.359376 0.25782,0.777344 0.25782,1.253907 0,1.03125 -0.30469,1.835937 -0.91406,2.414062 -0.60938,0.578125 -1.44532,0.867188 -2.50782,0.867188 -0.92188,0 -1.60547,-0.230469 -2.05078,-0.691407 -0.4375,-0.46875 -0.65625,-1.179688 -0.65625,-2.132812 h -1.125 l -0.70312,3.222656 c 0.65625,0.179687 1.39844,0.328125 2.22656,0.445313 0.83594,0.117187 1.61328,0.175781 2.33203,0.175781 1.0625,0 2.00781,-0.199219 2.83594,-0.597657 0.83594,-0.40625 1.48046,-0.976562 1.93359,-1.710937 0.46093,-0.742187 0.69141,-1.589843 0.69141,-2.542969 0,-0.617187 -0.0977,-1.160156 -0.29297,-1.628906 -0.1875,-0.46875 -0.48438,-0.910156 -0.89063,-1.324219 -0.39844,-0.421874 -0.98046,-0.898437 -1.74609,-1.429687 -0.875,-0.601563 -1.46875,-1.121094 -1.78125,-1.558594 -0.30469,-0.445313 -0.45703,-0.960938 -0.45703,-1.546875 0,-0.5625 0.1289,-1.070312 0.38672,-1.523437 0.25781,-0.460938 0.63281,-0.82422 1.125,-1.089844 0.49218,-0.265626 1.0625,-0.398438 1.71093,-0.398438 0.53125,0 0.95704,0.08203 1.27735,0.246094 0.32031,0.164063 0.56641,0.4375 0.73828,0.820312 0.17186,0.375 0.27342,0.894532 0.30469,1.558594 h 1.125 l 0.65625,-3.011718 c -0.74219,-0.234375 -1.42188,-0.398438 -2.03907,-0.492188 -0.60937,-0.101563 -1.27343,-0.152344 -1.99218,-0.152344 z M 242.83398,21.37891 c -0.39844,0 -0.73438,0.144531 -1.00781,0.433594 -0.27344,0.28125 -0.41016,0.640625 -0.41016,1.078125 0,0.4375 0.13672,0.800781 0.41016,1.089844 0.27343,0.28125 0.60937,0.421875 1.00781,0.421875 0.40625,0 0.7461,-0.140625 1.01953,-0.421875 0.27344,-0.289063 0.41016,-0.652344 0.41016,-1.089844 0,-0.4375 -0.13672,-0.796875 -0.41016,-1.078125 -0.27343,-0.289063 -0.61328,-0.433594 -1.01953,-0.433594 z m 29.69336,0.04687 c -0.60156,0 -1.14062,0.160156 -1.61719,0.480469 -0.47656,0.3125 -1.07421,0.84375 -1.79297,1.59375 l 0.66797,0.65625 c 0.46875,-0.523437 0.83594,-0.882812 1.10156,-1.078125 0.27344,-0.203125 0.53125,-0.304688 0.77344,-0.304688 0.21875,0 0.37891,0.07031 0.48047,0.210938 0.10157,0.140625 0.15234,0.367188 0.15234,0.679688 0,0.40625 -0.0859,0.984374 -0.25781,1.734374 l -1.71094,7.429689 h 2.02735 l 1.11328,-5.074219 c 0.16406,-0.726562 0.375,-1.335937 0.63281,-1.828125 0.25781,-0.5 0.59766,-1.011719 1.01953,-1.535156 0.4297,-0.53125 0.83203,-0.925781 1.20703,-1.183594 0.38281,-0.265624 0.73828,-0.398437 1.06641,-0.398437 0.40625,0 0.69922,0.121094 0.87891,0.363281 0.17968,0.234375 0.26953,0.621094 0.26953,1.160156 0,0.21875 -0.0313,0.503906 -0.0937,0.855469 -0.0547,0.351563 -0.17578,0.894532 -0.36328,1.628906 l -0.51563,2.027344 c -0.25781,0.984375 -0.38672,1.730469 -0.38672,2.238281 0,0.5625 0.15234,1.027344 0.45703,1.394532 0.30469,0.359375 0.71094,0.539062 1.21875,0.539062 0.64062,0 1.21094,-0.164062 1.71094,-0.492188 0.5,-0.335937 1.08593,-0.863281 1.75781,-1.582031 l -0.66796,-0.65625 c -0.48438,0.539063 -0.85938,0.90625 -1.125,1.101563 -0.26563,0.1875 -0.51563,0.28125 -0.75,0.28125 -0.21876,0 -0.37891,-0.07031 -0.48047,-0.210938 -0.10157,-0.140624 -0.15235,-0.367187 -0.15235,-0.679687 0,-0.351563 0.10547,-0.953125 0.31641,-1.804688 l 0.76172,-3.070312 c 0.22656,-0.90625 0.33984,-1.605469 0.33984,-2.097657 0,-0.742187 -0.19532,-1.320312 -0.58594,-1.734374 -0.39062,-0.421875 -0.94921,-0.632813 -1.67578,-0.632813 -0.73437,0 -1.44922,0.261719 -2.14453,0.785156 -0.6875,0.515626 -1.41407,1.312501 -2.17969,2.390625 l -0.14062,-0.04687 c 0.1875,-0.507812 0.28125,-0.96875 0.28125,-1.382812 0,-0.523438 -0.14453,-0.945313 -0.4336,-1.265625 -0.28125,-0.328126 -0.66796,-0.492188 -1.16015,-0.492188 z m -26.59961,1.335938 v 1.558594 h 14.4375 v -1.558594 z m 44.23437,2.425781 v 1.558594 h 14.4375 v -1.558594 z m 42,0 v 1.558594 h 14.4375 v -1.558594 z m 63.17774,0.503906 -4.11328,2.451172 0.38673,0.677735 c 0.50976,-0.339845 0.93749,-0.607422 1.2832,-0.800782 0.3457,-0.193359 0.61133,-0.291015 0.79883,-0.291015 0.1582,0 0.27929,0.05664 0.36133,0.167968 0.082,0.105469 0.12304,0.275391 0.12304,0.509766 v 7.128906 c 0,0.410156 -0.0351,0.705078 -0.10547,0.886719 -0.0644,0.181641 -0.16992,0.322266 -0.3164,0.421875 -0.14649,0.09961 -0.36133,0.175782 -0.64258,0.228516 -0.27539,0.04687 -0.73828,0.08398 -1.38867,0.113281 v 0.642579 h 6.49609 v -0.642578 c -0.45117,-0.01171 -0.81446,-0.03125 -1.08984,-0.06055 -0.2754,-0.03516 -0.50391,-0.08203 -0.68555,-0.140625 -0.18164,-0.06445 -0.32227,-0.150391 -0.42187,-0.255859 -0.0938,-0.111328 -0.16213,-0.251953 -0.20313,-0.421875 -0.0351,-0.175782 -0.0527,-0.431641 -0.0527,-0.771485 v -7.507812 c 0,-0.996094 0.0176,-1.773438 0.0527,-2.335938 z m -152.50586,1.839844 c -0.39844,0 -0.73438,0.144531 -1.00781,0.433594 -0.27344,0.28125 -0.41016,0.640625 -0.41016,1.078125 0,0.4375 0.13672,0.800781 0.41016,1.089844 0.27343,0.28125 0.60937,0.421874 1.00781,0.421874 0.40625,0 0.7461,-0.140624 1.01953,-0.421874 0.27344,-0.289063 0.41016,-0.652344 0.41016,-1.089844 0,-0.4375 -0.13672,-0.796875 -0.41016,-1.078125 -0.27343,-0.289063 -0.61328,-0.433594 -1.01953,-0.433594 z m 3.09375,0.09375 v 1.558594 h 14.4375 v -1.558594 z m 122.20312,1.650391 c -0.45117,0 -0.85547,0.121093 -1.21289,0.361328 -0.35742,0.234374 -0.80663,0.632812 -1.3457,1.195312 l 0.50195,0.492188 c 0.35156,-0.392578 0.62696,-0.662109 0.82618,-0.808594 0.20509,-0.152344 0.39844,-0.228516 0.58007,-0.228516 0.16406,0 0.28321,0.05273 0.35938,0.158204 0.0762,0.105469 0.11523,0.27539 0.11523,0.509765 0,0.304687 -0.0645,0.738281 -0.19336,1.300781 l -1.28319,5.572267 h 1.51952 l 0.83594,-3.804688 c 0.12305,-0.544921 0.28126,-1.001953 0.47461,-1.371093 0.19336,-0.375 0.44726,-0.759766 0.76367,-1.152344 0.32227,-0.398437 0.625,-0.693359 0.90625,-0.886719 0.28711,-0.199218 0.55274,-0.298828 0.79883,-0.298828 0.30469,0 0.52539,0.08984 0.66015,0.271484 0.13477,0.175782 0.20118,0.466797 0.20118,0.871094 0,0.164062 -0.0234,0.376953 -0.0703,0.640625 -0.041,0.263672 -0.13085,0.671875 -0.27148,1.222657 l -0.38672,1.519531 c -0.19336,0.738281 -0.29101,1.298828 -0.29101,1.679687 0,0.421875 0.11523,0.769531 0.34375,1.044922 0.22851,0.269531 0.5332,0.404297 0.91406,0.404297 0.48047,0 0.9082,-0.123047 1.2832,-0.369141 0.375,-0.251952 0.81445,-0.646484 1.31836,-1.185546 l -0.50195,-0.492188 c -0.36328,0.404297 -0.64453,0.679688 -0.84375,0.826172 -0.19922,0.140625 -0.38672,0.210937 -0.5625,0.210937 -0.16406,0 -0.2832,-0.05273 -0.35938,-0.158203 -0.0762,-0.105468 -0.11523,-0.27539 -0.11523,-0.509765 0,-0.263672 0.0801,-0.714844 0.23828,-1.353516 l 0.57031,-2.302734 c 0.16993,-0.679688 0.25586,-1.205078 0.25586,-1.574219 0,-0.556641 -0.14648,-0.990235 -0.43945,-1.300781 -0.29297,-0.316407 -0.71289,-0.47461 -1.25781,-0.47461 -0.55078,0 -1.08594,0.197266 -1.60743,0.589844 -0.51562,0.386719 -1.06054,0.984375 -1.63476,1.792969 l -0.10547,-0.03516 c 0.14062,-0.38086 0.21094,-0.726563 0.21094,-1.03711 0,-0.392579 -0.10938,-0.708985 -0.32618,-0.949219 -0.21093,-0.246094 -0.5,-0.371093 -0.86914,-0.371093 z m -175.33007,0.724609 c -1.33594,0 -2.4375,0.355469 -3.30469,1.066406 -0.85937,0.703126 -1.49609,1.757813 -1.91016,3.164063 -0.14062,0.46875 -0.25781,0.792969 -0.35156,0.972656 -0.0859,0.171875 -0.19532,0.3125 -0.32812,0.421875 -0.125,0.109376 -0.30469,0.191407 -0.53907,0.246094 -0.22656,0.05469 -0.60156,0.09766 -1.125,0.128906 l -0.17578,0.808594 h 1.98047 l -2.51953,11.144532 c -0.17969,0.789063 -0.3789,1.406251 -0.59766,1.851562 -0.21092,0.445313 -0.44139,0.757813 -0.69139,0.9375 -0.25,0.179688 -0.55078,0.269532 -0.90236,0.269532 -0.28906,0 -0.47264,-0.01172 -0.55078,-0.03516 l -0.19922,1.03125 c 0.1875,0.03906 0.44532,0.05859 0.77344,0.05859 1.125,0 2.05859,-0.417969 2.80078,-1.253906 0.74219,-0.828125 1.29297,-2.089844 1.65235,-3.785156 l 2.17968,-10.21875 h 3.02344 l 0.25781,-1.183594 h -3.01172 l 0.29297,-1.277344 c 0.1875,-0.820312 0.39063,-1.472656 0.60938,-1.957031 0.21874,-0.484375 0.48047,-0.847656 0.78515,-1.089844 0.3125,-0.25 0.69141,-0.375 1.13672,-0.375 0.34376,0 0.60157,0.09766 0.77344,0.292969 0.17969,0.195313 0.32422,0.515625 0.43359,0.960937 h 1.03125 l 0.45704,-1.992187 c -0.5547,-0.125 -1.21485,-0.1875 -1.98047,-0.1875 z m -178.597655,0.07031 -2.964844,0.105468 -0.140625,0.609375 c 0.515626,0.01563 0.871095,0.08984 1.066407,0.222657 0.203125,0.132812 0.304687,0.36328 0.304687,0.691406 0,0.320312 -0.09375,0.898437 -0.28125,1.734375 L 9.175781,46.828125 h 2.027344 l 1.066406,-5.074219 c 0.148438,-0.6875 0.347656,-1.277344 0.597656,-1.769531 0.257813,-0.5 0.601563,-1.019531 1.03125,-1.558594 0.429688,-0.546874 0.839845,-0.953124 1.230469,-1.21875 0.390626,-0.265624 0.746095,-0.398437 1.066407,-0.398437 0.40625,0 0.699218,0.117188 0.878906,0.351562 0.179687,0.226563 0.269531,0.617188 0.269531,1.171875 0,0.203126 -0.03125,0.488282 -0.09375,0.855469 -0.0625,0.359375 -0.183594,0.902344 -0.363281,1.628906 l -0.503906,2.027344 c -0.257813,0.984375 -0.386719,1.730469 -0.386719,2.238281 0,0.570313 0.148438,1.035157 0.445312,1.394532 0.304688,0.359375 0.710938,0.539062 1.21875,0.539062 0.601563,0 1.140625,-0.148437 1.617188,-0.445312 0.484374,-0.296875 1.101562,-0.839844 1.851562,-1.628907 l -0.667969,-0.65625 c -0.484374,0.539063 -0.859374,0.90625 -1.125,1.101563 -0.265624,0.1875 -0.515624,0.28125 -0.75,0.28125 -0.218749,0 -0.378906,-0.07031 -0.480468,-0.210938 -0.101563,-0.140624 -0.152344,-0.367187 -0.152344,-0.679687 0,-0.351563 0.105469,-0.953125 0.316406,-1.804688 l 0.761719,-3.070312 c 0.226563,-0.90625 0.339844,-1.605468 0.339844,-2.097657 0,-0.742187 -0.195312,-1.320312 -0.585938,-1.734374 -0.390624,-0.421875 -0.949218,-0.632813 -1.675781,-0.632813 -0.671875,0 -1.339844,0.222656 -2.003906,0.667969 -0.65625,0.4375 -1.355469,1.148438 -2.097656,2.132812 l -0.140626,-0.04687 2.015626,-8.121093 z m 137.191405,0 -2.94141,0.105468 -0.14062,0.609375 c 0.41407,0.02344 0.69923,0.0625 0.85546,0.117188 0.16408,0.05469 0.28908,0.144531 0.375,0.269531 0.0859,0.117187 0.12891,0.292968 0.12891,0.527344 0,0.234374 -0.0234,0.507812 -0.0703,0.820312 -0.0469,0.3125 -0.1016,0.597656 -0.16407,0.855469 l -0.60937,2.707031 c -0.42187,-0.242187 -0.83593,-0.410156 -1.24219,-0.503906 -0.39843,-0.101563 -0.83593,-0.152344 -1.3125,-0.152344 -1.13281,0 -2.16016,0.359375 -3.08203,1.078125 -0.92187,0.710938 -1.64843,1.6875 -2.17969,2.929688 -0.52343,1.234374 -0.78515,2.523437 -0.78515,3.867187 0,1.171876 0.23438,2.082032 0.70312,2.730469 0.47658,0.648437 1.14455,0.972656 2.00391,0.972656 0.75,0 1.46094,-0.253906 2.13281,-0.761719 0.67188,-0.507812 1.38282,-1.308593 2.13282,-2.402343 l 0.15235,0.04687 c -0.17971,0.484383 -0.26955,0.941415 -0.26955,1.371103 0,0.53125 0.14453,0.957031 0.43359,1.277343 0.28906,0.320313 0.67578,0.480469 1.16016,0.480469 0.57031,0 1.10156,-0.15625 1.59375,-0.46875 0.49218,-0.3125 1.09766,-0.847656 1.8164,-1.605469 l -0.66797,-0.65625 c -0.48437,0.539063 -0.85937,0.90625 -1.125,1.101563 -0.26562,0.1875 -0.51562,0.28125 -0.75,0.28125 -0.21874,0 -0.3789,-0.07031 -0.48047,-0.210938 -0.10156,-0.140624 -0.15234,-0.367187 -0.15234,-0.679687 0,-0.390626 0.0859,-0.968751 0.25781,-1.734375 l 2.91797,-12.972656 z m 11.64062,0 -2.96484,0.105468 -0.14063,0.609375 c 0.51563,0.01563 0.87111,0.08984 1.06641,0.222657 0.20313,0.132812 0.30469,0.36328 0.30469,0.691406 0,0.359374 -0.0898,0.937499 -0.26953,1.734375 l -3.03516,13.394535 0.75,0.1875 1.07812,-0.761719 c 0.8047,0.507813 1.72658,0.761719 2.76563,0.761719 1.14063,0 2.17188,-0.363281 3.09375,-1.089844 0.92187,-0.734374 1.64062,-1.722655 2.15625,-2.964844 0.52344,-1.249999 0.78515,-2.519531 0.78515,-3.808593 0,-1.179688 -0.23827,-2.09375 -0.71484,-2.742188 -0.46875,-0.648437 -1.1289,-0.972656 -1.98047,-0.972656 -0.66406,0 -1.32812,0.226563 -1.99219,0.679687 -0.66406,0.453126 -1.37499,1.187501 -2.13281,2.203126 l -0.15234,-0.04688 2.0625,-8.203124 z m 215.26953,2.027343 v 1.169922 h 10.82813 V 32.097656 Z M 3.210937,32.730469 c -0.25,0.789062 -0.4375,1.34375 -0.5625,1.664062 -0.124999,0.3125 -0.253906,0.570312 -0.386718,0.773438 -0.132813,0.203124 -0.28125,0.359374 -0.445313,0.46875 C 1.660156,35.746093 1.460937,35.832031 1.21875,35.894531 0.984375,35.957031 0.636719,35.992191 0.175781,36 L 0,36.808594 h 1.96875 l -1.382813,6.082031 c -0.132812,0.578125 -0.199218,1.128906 -0.199218,1.652344 0,1.648437 0.816406,2.472656 2.449218,2.472656 0.6875,0 1.34375,-0.195312 1.96875,-0.585938 C 5.4375,46.039063 6.09375,45.433594 6.773437,44.613281 L 6.09375,43.910156 c -0.53125,0.632813 -0.992187,1.082032 -1.382813,1.347657 -0.382811,0.257812 -0.746093,0.386718 -1.089843,0.386718 -0.804688,0 -1.207031,-0.484375 -1.207031,-1.453125 -1e-6,-0.234374 0.02734,-0.542968 0.08203,-0.925781 C 2.550783,42.875 2.679687,42.238281 2.882812,41.355469 L 3.92578,36.808594 h 3.5625 L 7.746093,35.625 h -3.5625 l 0.644531,-2.894531 z m 36.140626,0 c -0.25,0.789062 -0.4375,1.34375 -0.5625,1.664062 -0.125,0.3125 -0.253907,0.570312 -0.386719,0.773438 -0.132813,0.203124 -0.28125,0.359374 -0.445313,0.46875 -0.15625,0.109374 -0.355469,0.195312 -0.597656,0.257812 C 37.125,35.957031 36.777344,35.992191 36.316406,36 l -0.175781,0.808594 h 1.96875 l -1.382812,6.082031 c -0.132813,0.578125 -0.199219,1.128906 -0.199219,1.652344 0,1.648437 0.816406,2.472656 2.449219,2.472656 0.6875,0 1.34375,-0.195312 1.96875,-0.585938 0.632812,-0.390624 1.289062,-0.996093 1.96875,-1.816406 l -0.679688,-0.703125 c -0.53125,0.632813 -0.992187,1.082032 -1.382812,1.347657 -0.382813,0.257812 -0.746094,0.386718 -1.089844,0.386718 -0.804688,0 -1.207032,-0.484375 -1.207032,-1.453125 0,-0.234374 0.02734,-0.542968 0.08203,-0.925781 0.05469,-0.390625 0.183594,-1.027344 0.386718,-1.910156 l 1.042969,-4.546875 h 3.5625 L 43.886717,35.625 h -3.5625 l 0.644531,-2.894531 z M 28.6875,35.425781 c -1.132813,0 -2.160157,0.359375 -3.082031,1.078125 -0.921876,0.710938 -1.648438,1.6875 -2.179688,2.929688 -0.523437,1.234374 -0.785156,2.523437 -0.785156,3.867187 0,1.171876 0.234375,2.082032 0.703125,2.730469 0.476563,0.648437 1.144532,0.972656 2.003906,0.972656 0.75,0 1.460937,-0.253906 2.132813,-0.761719 0.671874,-0.507812 1.382812,-1.308593 2.132812,-2.402343 l 0.152344,0.04687 c -0.179687,0.484379 -0.269531,0.941411 -0.269531,1.371099 0,0.53125 0.144531,0.957031 0.433593,1.277343 0.289063,0.320313 0.675781,0.480469 1.160157,0.480469 0.578124,0 1.113281,-0.15625 1.605469,-0.46875 0.5,-0.320313 1.101562,-0.855469 1.804687,-1.605469 l -0.667969,-0.65625 c -0.484374,0.539063 -0.859374,0.90625 -1.125,1.101563 -0.265624,0.1875 -0.515624,0.28125 -0.75,0.28125 -0.21875,0 -0.378906,-0.07031 -0.480468,-0.210938 -0.101563,-0.140624 -0.152344,-0.367187 -0.152344,-0.679687 0,-0.414063 0.08594,-0.992188 0.257812,-1.734375 l 1.722656,-7.429688 -0.75,-0.1875 -1.078124,0.773438 c -0.46875,-0.289063 -0.925782,-0.488281 -1.371094,-0.597656 -0.4375,-0.117188 -0.910156,-0.175782 -1.417969,-0.175782 z m 28.804687,0 c -1.132812,0 -2.160155,0.359375 -3.082031,1.078125 -0.921874,0.710938 -1.648437,1.6875 -2.179687,2.929688 -0.523438,1.234374 -0.785156,2.523437 -0.785156,3.867187 0,1.171876 0.234374,2.082032 0.703124,2.730469 0.476563,0.648437 1.144531,0.972656 2.003907,0.972656 0.75,0 1.460938,-0.253906 2.132812,-0.761719 0.671876,-0.507812 1.382813,-1.308593 2.132813,-2.402343 l 0.152344,0.04687 c -0.179688,0.484379 -0.269532,0.941411 -0.269532,1.371099 0,0.53125 0.144531,0.957031 0.433594,1.277343 0.289063,0.320313 0.675782,0.480469 1.160156,0.480469 0.578126,0 1.113282,-0.15625 1.605469,-0.46875 0.5,-0.320313 1.101563,-0.855469 1.804687,-1.605469 l -0.667968,-0.65625 c -0.484376,0.539063 -0.859376,0.90625 -1.125,1.101563 -0.265626,0.1875 -0.515626,0.28125 -0.75,0.28125 -0.21875,0 -0.378906,-0.07031 -0.480469,-0.210938 -0.101563,-0.140624 -0.152344,-0.367187 -0.152344,-0.679687 0,-0.414063 0.08594,-0.992188 0.257813,-1.734375 l 1.722656,-7.429688 -0.75,-0.1875 -1.078125,0.773438 C 59.8125,35.910156 59.355469,35.710938 58.910156,35.601563 58.472656,35.484375 58,35.425781 57.492187,35.425781 Z m 9.773438,0 c -0.59375,0 -1.136719,0.164062 -1.628906,0.492188 -0.484376,0.320312 -1.078126,0.847656 -1.78125,1.582031 l 0.667968,0.65625 c 0.46875,-0.523437 0.835938,-0.882812 1.101563,-1.078125 0.273437,-0.203125 0.53125,-0.304688 0.773437,-0.304688 0.21875,0 0.378907,0.07031 0.480469,0.210938 0.101563,0.140625 0.152344,0.367188 0.152344,0.679688 0,0.460937 -0.08203,1.050781 -0.246094,1.769531 l -2.824219,12.433593 h 3.621094 l 0.09375,-0.574218 C 67.167969,51.246089 66.824219,51.148437 66.644531,51 c -0.171874,-0.140625 -0.257812,-0.382813 -0.257812,-0.726563 0,-0.359374 0.05859,-0.816406 0.175781,-1.371093 l 0.539063,-2.566407 c 0.687499,0.453126 1.550781,0.679688 2.589843,0.679688 1.140626,0 2.171876,-0.363281 3.09375,-1.089844 0.921876,-0.734374 1.640626,-1.722655 2.15625,-2.964844 0.523438,-1.249999 0.785156,-2.519531 0.785157,-3.808593 -10e-7,-1.179688 -0.238282,-2.09375 -0.714844,-2.742188 -0.46875,-0.648437 -1.128906,-0.972656 -1.980469,-0.972656 -1.429687,0 -2.867187,1.058594 -4.3125,3.175781 l -0.140625,-0.04687 c 0.179687,-0.484374 0.269531,-0.945312 0.269531,-1.382812 0,-0.53125 -0.144531,-0.957031 -0.433593,-1.277344 C 68.132813,35.585942 67.75,35.425786 67.265625,35.425786 Z m 13.40625,0 c -0.59375,0 -1.136719,0.164062 -1.628906,0.492188 -0.484376,0.320312 -1.078126,0.847656 -1.78125,1.582031 l 0.667968,0.65625 c 0.46875,-0.523437 0.835938,-0.882812 1.101563,-1.078125 0.273437,-0.203125 0.53125,-0.304688 0.773437,-0.304688 0.218751,0 0.378907,0.07031 0.480469,0.210938 0.101563,0.140625 0.152344,0.367188 0.152344,0.679688 0,0.460937 -0.08203,1.050781 -0.246094,1.769531 l -2.824219,12.433593 h 3.621094 l 0.09375,-0.574218 C 80.574219,51.246089 80.230469,51.148437 80.050781,51 c -0.171874,-0.140625 -0.257812,-0.382813 -0.257812,-0.726563 0,-0.359374 0.05859,-0.816406 0.175781,-1.371093 l 0.539063,-2.566407 c 0.6875,0.453126 1.550781,0.679688 2.589843,0.679688 1.140626,0 2.171876,-0.363281 3.09375,-1.089844 0.921872,-0.734374 1.640619,-1.722655 2.156249,-2.964844 0.52344,-1.249999 0.78516,-2.519531 0.78516,-3.808593 0,-1.179688 -0.23828,-2.09375 -0.71485,-2.742188 C 87.949225,35.761719 87.289063,35.4375 86.4375,35.4375 c -1.429687,0 -2.867187,1.058594 -4.3125,3.175781 l -0.140625,-0.04687 c 0.179687,-0.484374 0.269531,-0.945312 0.269531,-1.382812 0,-0.53125 -0.144531,-0.957031 -0.433593,-1.277344 -0.28125,-0.320313 -0.664063,-0.480469 -1.148438,-0.480469 z m 17.67188,0 c -0.96095,0 -1.8672,0.210937 -2.71876,0.632813 -0.85156,0.414062 -1.58203,1.003906 -2.1914,1.769531 -0.60937,0.757813 -1.06641,1.617188 -1.3711,2.578125 -0.29687,0.953125 -0.44531,1.847656 -0.44531,2.683594 0,1.234374 0.3086,2.199218 0.92578,2.894531 0.625,0.6875 1.50391,1.03125 2.63672,1.03125 1.03126,0 1.9336,-0.210937 2.70703,-0.632812 0.78126,-0.421875 1.55078,-1.050782 2.308595,-1.886719 l -0.726555,-0.761719 c -0.64844,0.648437 -1.26563,1.128906 -1.85157,1.441406 -0.57812,0.3125 -1.22656,0.46875 -1.94531,0.46875 -0.72656,0 -1.25,-0.183594 -1.57031,-0.550781 -0.32032,-0.375 -0.48047,-0.972656 -0.48047,-1.792969 0,-0.546874 0.0469,-1.054687 0.14062,-1.523437 2.45313,0 4.30079,-0.332031 5.54297,-0.996094 1.249995,-0.664063 1.874995,-1.660157 1.874995,-2.988281 0,-0.8125 -0.23828,-1.410156 -0.71484,-1.792969 -0.468745,-0.382813 -1.175785,-0.574219 -2.121085,-0.574219 z m 11.226555,0 c -1.13281,0 -2.16016,0.359375 -3.08203,1.078125 -0.92188,0.710938 -1.64844,1.6875 -2.17969,2.929688 -0.52343,1.234374 -0.78516,2.523437 -0.78516,3.867187 0,1.171876 0.23437,2.082032 0.70313,2.730469 0.47657,0.648437 1.14453,0.972656 2.0039,0.972656 0.75,0 1.46094,-0.253906 2.13282,-0.761719 0.67187,-0.507812 1.38281,-1.308593 2.13281,-2.402343 l 0.15234,0.04687 c -0.17968,0.484374 -0.26953,0.941406 -0.26953,1.371094 0,0.53125 0.14453,0.957031 0.43359,1.277343 0.28907,0.320313 0.67579,0.480469 1.16016,0.480469 0.57813,0 1.11328,-0.15625 1.60547,-0.46875 0.5,-0.320313 1.10156,-0.855469 1.80469,-1.605469 l -0.66797,-0.65625 c -0.48436,0.539063 -0.85936,0.90625 -1.125,1.101563 -0.26563,0.1875 -0.51563,0.28125 -0.75,0.28125 -0.21875,0 -0.37891,-0.07031 -0.48046,-0.210938 -0.10157,-0.140624 -0.15234,-0.367187 -0.15234,-0.679687 0,-0.414063 0.0859,-0.992188 0.25781,-1.734375 l 1.72265,-7.429688 -0.75,-0.1875 -1.07812,0.773438 c -0.46875,-0.289063 -0.92578,-0.488281 -1.37109,-0.597656 -0.4375,-0.117188 -0.91016,-0.175782 -1.41797,-0.175782 z m 9.76172,0 c -0.58594,0 -1.1211,0.160156 -1.60547,0.480469 -0.48437,0.3125 -1.08593,0.84375 -1.80468,1.59375 l 0.66796,0.65625 c 0.46875,-0.523437 0.83593,-0.882812 1.10157,-1.078125 0.27343,-0.203125 0.53125,-0.304688 0.77343,-0.304688 0.21875,0 0.3789,0.07031 0.48047,0.210938 0.10157,0.140625 0.15235,0.367188 0.15235,0.679688 0,0.171875 -0.0156,0.386718 -0.0469,0.644531 -0.0313,0.257812 -0.10157,0.621093 -0.21094,1.089843 l -1.69919,7.429688 h 2.02734 l 1.11329,-5.074219 c 0.16406,-0.734374 0.36718,-1.339843 0.60937,-1.816406 0.25,-0.476563 0.58203,-0.972657 0.99609,-1.488281 0.41407,-0.515626 0.78516,-0.894532 1.11328,-1.136719 0.33594,-0.242187 0.64453,-0.363281 0.92579,-0.363281 0.17968,0 0.32812,0.03516 0.44531,0.105468 0.11719,0.07031 0.21875,0.195313 0.30469,0.375 0.0859,0.179688 0.15235,0.433595 0.19921,0.761719 h 1.20704 l 0.5625,-2.625 c -0.38282,-0.08594 -0.85938,-0.128906 -1.42969,-0.128906 -0.72656,0 -1.44531,0.242188 -2.15625,0.726563 -0.70313,0.484375 -1.4375,1.246093 -2.20313,2.285156 l -0.15234,-0.05859 c 0.14844,-0.414063 0.22266,-0.816407 0.22266,-1.207031 0,-0.523438 -0.14453,-0.945313 -0.4336,-1.265625 -0.28124,-0.328126 -0.66797,-0.492188 -1.16015,-0.492188 z m 15.71484,0 c -0.96094,0 -1.86719,0.210937 -2.71875,0.632813 -0.85156,0.414062 -1.58203,1.003906 -2.19141,1.769531 -0.60937,0.757813 -1.06639,1.617188 -1.37109,2.578125 -0.29687,0.953125 -0.44531,1.847656 -0.44531,2.683594 0,1.234374 0.30859,2.199218 0.92578,2.894531 0.625,0.6875 1.5039,1.03125 2.63672,1.03125 1.03124,0 1.93359,-0.210937 2.70703,-0.632812 0.78125,-0.421875 1.55078,-1.050782 2.30859,-1.886719 l -0.72656,-0.761719 c -0.64844,0.648437 -1.26562,1.128906 -1.85156,1.441406 -0.57813,0.3125 -1.22657,0.46875 -1.94532,0.46875 -0.72656,0 -1.24999,-0.183594 -1.57031,-0.550781 -0.32031,-0.375 -0.48047,-0.972656 -0.48047,-1.792969 0,-0.546874 0.0469,-1.054687 0.14063,-1.523437 2.45313,0 4.30078,-0.332031 5.54297,-0.996094 1.25,-0.664063 1.875,-1.660157 1.875,-2.988281 0,-0.8125 -0.23828,-1.410156 -0.71485,-1.792969 -0.46874,-0.382813 -1.17578,-0.574219 -2.12109,-0.574219 z m 42.76563,0 c -0.96094,0 -1.86718,0.210937 -2.71874,0.632813 -0.85158,0.414062 -1.58205,1.003906 -2.19141,1.769531 -0.60937,0.757813 -1.06641,1.617188 -1.37109,2.578125 -0.29688,0.953125 -0.44533,1.847656 -0.44533,2.683594 0,1.234374 0.30861,2.199218 0.92578,2.894531 0.625,0.6875 1.50391,1.03125 2.63672,1.03125 1.03126,0 1.93361,-0.210937 2.70703,-0.632812 0.78127,-0.421875 1.55079,-1.050782 2.30861,-1.886719 l -0.72657,-0.761719 c -0.64843,0.648437 -1.26563,1.128906 -1.85157,1.441406 -0.57812,0.3125 -1.22656,0.46875 -1.94531,0.46875 -0.72656,0 -1.25,-0.183594 -1.57031,-0.550781 -0.32032,-0.375 -0.48047,-0.972656 -0.48047,-1.792969 0,-0.546874 0.0469,-1.054687 0.14062,-1.523437 2.45313,0 4.3008,-0.332031 5.54297,-0.996094 1.25,-0.664063 1.875,-1.660157 1.875,-2.988281 0,-0.8125 -0.23828,-1.410156 -0.71484,-1.792969 -0.46875,-0.382813 -1.17579,-0.574219 -2.12109,-0.574219 z m 33.64454,0 c -0.58594,0 -1.12111,0.160156 -1.60547,0.480469 -0.48438,0.3125 -1.08594,0.84375 -1.80469,1.59375 l 0.66797,0.65625 c 0.46875,-0.523437 0.83593,-0.882812 1.10156,-1.078125 0.27344,-0.203125 0.53125,-0.304688 0.77344,-0.304688 0.21875,0 0.3789,0.07031 0.48047,0.210938 0.10156,0.140625 0.15234,0.367188 0.15234,0.679688 0,0.171875 -0.0156,0.386718 -0.0469,0.644531 -0.0313,0.257812 -0.10157,0.621093 -0.21094,1.089843 l -1.6992,7.429688 h 2.02734 l 1.1133,-5.074219 c 0.16406,-0.734374 0.36717,-1.339843 0.60937,-1.816406 0.25,-0.476563 0.58203,-0.972657 0.99609,-1.488281 0.41407,-0.515626 0.78516,-0.894532 1.11328,-1.136719 0.33594,-0.242187 0.64453,-0.363281 0.92579,-0.363281 0.17968,0 0.32812,0.03516 0.44531,0.105468 0.11719,0.07031 0.21875,0.195313 0.30469,0.375 0.0859,0.179688 0.15235,0.433595 0.19921,0.761719 h 0.99805 c -0.47554,0.667354 -0.84976,1.402232 -1.10742,2.214844 -0.29687,0.953125 -0.44531,1.847656 -0.44531,2.683594 0,1.234374 0.30859,2.199218 0.92578,2.894531 0.625,0.6875 1.5039,1.03125 2.63672,1.03125 1.03124,0 1.93359,-0.210937 2.70703,-0.632812 0.78125,-0.421875 1.55078,-1.050782 2.30859,-1.886719 l -0.72657,-0.761719 c -0.64844,0.648437 -1.26562,1.128906 -1.85156,1.441406 -0.57813,0.3125 -1.22657,0.46875 -1.94532,0.46875 -0.72656,0 -1.24999,-0.183594 -1.57031,-0.550781 -0.32031,-0.375 -0.48047,-0.972656 -0.48047,-1.792969 0,-0.546874 0.0469,-1.054687 0.14063,-1.523437 2.45313,0 4.30078,-0.332031 5.54297,-0.996094 1.25,-0.664063 1.875,-1.660157 1.875,-2.988281 0,-0.8125 -0.23828,-1.410156 -0.71485,-1.792969 -0.46874,-0.382813 -1.17578,-0.574219 -2.12109,-0.574219 -0.96094,0 -1.86719,0.210937 -2.71875,0.632813 -0.83772,0.407332 -1.55681,0.986813 -2.16016,1.734375 l 0.47657,-2.226563 c -0.38282,-0.08594 -0.85938,-0.128906 -1.42969,-0.128906 -0.72656,0 -1.44531,0.242188 -2.15625,0.726563 -0.70313,0.484375 -1.4375,1.246093 -2.20313,2.285156 l -0.15234,-0.05859 c 0.14844,-0.414063 0.22266,-0.816407 0.22266,-1.207031 0,-0.523438 -0.14453,-0.945313 -0.4336,-1.265625 -0.28124,-0.328126 -0.66797,-0.492188 -1.16015,-0.492188 z m -8.82422,0.01172 c -1,0 -1.91797,0.222656 -2.75391,0.667969 -0.83593,0.4375 -1.53906,1.070313 -2.10937,1.898437 -0.57033,0.828126 -0.97658,1.796876 -1.21875,2.90625 -0.1875,0.820313 -0.28125,1.542969 -0.28125,2.167969 0,1.273437 0.33203,2.25 0.99609,2.929688 0.67187,0.679687 1.61328,1.019531 2.82422,1.019531 0.99219,0 1.87109,-0.175781 2.63672,-0.527344 0.76562,-0.359375 1.42187,-0.890625 1.96875,-1.59375 0.55468,-0.703125 0.98828,-1.570313 1.30078,-2.601563 0.32031,-1.03125 0.48047,-2 0.48047,-2.90625 0,-1.273437 -0.32813,-2.25 -0.98438,-2.929687 -0.65624,-0.6875 -1.60937,-1.03125 -2.85937,-1.03125 z M 28.921875,36.351563 c 0.617187,0 1.054687,0.140624 1.3125,0.421874 0.257813,0.28125 0.386719,0.722657 0.386719,1.324219 0,0.273438 -0.01172,0.527344 -0.03516,0.761719 -0.02344,0.234375 -0.07031,0.511719 -0.140624,0.832031 l -0.105469,0.503907 c -0.21875,1.078125 -0.59375,2.03125 -1.125,2.859374 -0.523438,0.820313 -1.035157,1.453125 -1.535157,1.898438 -0.492187,0.445313 -0.996094,0.667969 -1.511718,0.667969 -0.523438,0 -0.898438,-0.199219 -1.125,-0.597657 -0.21875,-0.40625 -0.328125,-1.015624 -0.328125,-1.828124 0,-1.085938 0.179688,-2.171876 0.539062,-3.257813 0.359376,-1.09375 0.859376,-1.964844 1.5,-2.613281 0.640626,-0.648438 1.363282,-0.972656 2.167969,-0.972656 z m 28.804688,0 c 0.617187,0 1.054687,0.140624 1.3125,0.421874 0.257812,0.28125 0.386718,0.722657 0.386718,1.324219 0,0.273438 -0.01172,0.527344 -0.03516,0.761719 -0.02344,0.234375 -0.07031,0.511719 -0.140625,0.832031 l -0.105469,0.503907 c -0.21875,1.078125 -0.59375,2.03125 -1.125,2.859374 -0.523437,0.820313 -1.035156,1.453125 -1.535156,1.898438 -0.492187,0.445313 -0.996093,0.667969 -1.511719,0.667969 -0.523437,0 -0.898437,-0.199219 -1.125,-0.597657 -0.21875,-0.40625 -0.328125,-1.015624 -0.328125,-1.828124 0,-1.085938 0.179687,-2.171876 0.539063,-3.257813 0.359374,-1.09375 0.859374,-1.964844 1.5,-2.613281 0.640624,-0.648438 1.363281,-0.972656 2.167969,-0.972656 z m 40.195312,0 c 0.4375,0 0.76562,0.136718 0.98438,0.410156 0.22656,0.265624 0.33984,0.636718 0.33984,1.113281 0,0.710937 -0.21094,1.277343 -0.63281,1.699219 -0.42188,0.414062 -1.02735,0.71875 -1.81641,0.914062 -0.78906,0.1875 -1.73437,0.285156 -2.83594,0.292969 0.39063,-1.359375 0.94922,-2.4375 1.67578,-3.234375 0.73438,-0.796875 1.4961,-1.195312 2.28516,-1.195312 z m 11.884775,0 c 0.61718,0 1.05468,0.140624 1.3125,0.421874 0.25781,0.28125 0.3867,0.722657 0.3867,1.324219 0,0.273438 -0.0136,0.527344 -0.0371,0.761719 -0.0234,0.234375 -0.0703,0.511719 -0.14063,0.832031 l -0.10353,0.503907 c -0.21873,1.078125 -0.59373,2.03125 -1.125,2.859374 -0.52343,0.820313 -1.03515,1.453125 -1.53515,1.898438 -0.4922,0.445313 -0.9961,0.667969 -1.51171,0.667969 -0.52344,0 -0.89844,-0.199219 -1.125,-0.597657 -0.21875,-0.40625 -0.32814,-1.015624 -0.32814,-1.828124 0,-1.085938 0.17774,-2.171876 0.53711,-3.257813 0.35938,-1.09375 0.85938,-1.964844 1.5,-2.613281 0.64063,-0.648438 1.36524,-0.972656 2.16994,-0.972656 z m 24.81835,0 c 0.4375,0 0.76562,0.136718 0.98437,0.410156 0.22656,0.265624 0.33984,0.636718 0.33984,1.113281 0,0.710937 -0.21093,1.277343 -0.63281,1.699219 -0.42187,0.414062 -1.02734,0.71875 -1.8164,0.914062 -0.78907,0.1875 -1.73438,0.285156 -2.83593,0.292969 0.39062,-1.359375 0.94922,-2.4375 1.67578,-3.234375 0.73437,-0.796875 1.49609,-1.195312 2.28515,-1.195312 z m 11.85937,0 c 0.60156,0 1.03125,0.140624 1.28906,0.421874 0.25783,0.273438 0.38672,0.714845 0.38672,1.324219 0,0.5 -0.0586,1.03125 -0.17578,1.59375 l -0.10547,0.503907 c -0.13281,0.65625 -0.29297,1.21875 -0.48047,1.6875 -0.1875,0.460937 -0.39062,0.863281 -0.60937,1.207031 -0.21876,0.335937 -0.46095,0.671875 -0.72657,1.007812 -0.25781,0.335938 -0.52343,0.621094 -0.79687,0.855469 -0.26563,0.234375 -0.52344,0.40625 -0.77344,0.515625 -0.25,0.101563 -0.49609,0.152344 -0.73828,0.152344 -0.52343,0 -0.89843,-0.199219 -1.125,-0.597657 -0.21875,-0.40625 -0.32812,-1.015624 -0.32812,-1.828124 0,-1.085938 0.17969,-2.175782 0.53906,-3.269532 0.36719,-1.09375 0.86719,-1.960938 1.5,-2.601562 0.63281,-0.648438 1.34766,-0.972656 2.14453,-0.972656 z m 30.90625,0 c 0.4375,0 0.76563,0.136718 0.98438,0.410156 0.22656,0.265624 0.33985,0.636718 0.33985,1.113281 0,0.710937 -0.21094,1.277343 -0.63281,1.699219 -0.42188,0.414062 -1.02736,0.71875 -1.81641,0.914062 -0.78906,0.1875 -1.73437,0.285156 -2.83594,0.292969 0.39063,-1.359375 0.94922,-2.4375 1.67578,-3.234375 0.73438,-0.796875 1.4961,-1.195312 2.28515,-1.195312 z m 45.35938,0 c 0.4375,0 0.76562,0.136718 0.98437,0.410156 0.22656,0.265624 0.33984,0.636718 0.33984,1.113281 0,0.710937 -0.21093,1.277343 -0.63281,1.699219 -0.42187,0.414062 -1.02734,0.71875 -1.8164,0.914062 -0.78907,0.1875 -1.73438,0.285156 -2.83593,0.292969 0.39062,-1.359375 0.94922,-2.4375 1.67578,-3.234375 0.73437,-0.796875 1.49609,-1.195312 2.28515,-1.195312 z m -20.35157,0.02344 c 0.69533,0 1.20703,0.214844 1.53516,0.644531 0.32813,0.421876 0.49219,1.054688 0.49219,1.898438 0,0.9375 -0.17188,2.027344 -0.51563,3.269531 -0.34375,1.234375 -0.8125,2.195313 -1.40625,2.882813 -0.59375,0.6875 -1.27342,1.03125 -2.03906,1.03125 -0.71875,0 -1.25782,-0.203126 -1.61719,-0.609376 -0.35156,-0.414062 -0.52734,-1.05078 -0.52734,-1.910156 0,-0.914062 0.17188,-2.003906 0.51562,-3.269531 0.35158,-1.265625 0.82813,-2.238281 1.42969,-2.917969 0.60938,-0.679687 1.32031,-1.019531 2.13281,-1.019531 z M 72.199219,36.808594 c 0.5,0 0.863281,0.203125 1.089844,0.609375 0.234375,0.398437 0.351562,1.007812 0.351562,1.828125 0,0.515624 -0.05078,1.070312 -0.152344,1.664062 -0.09375,0.585938 -0.238281,1.160157 -0.433594,1.722657 -0.1875,0.554687 -0.402343,1.042969 -0.644531,1.464843 -0.242187,0.421876 -0.515625,0.781251 -0.820312,1.078125 -0.296876,0.296876 -0.613282,0.523438 -0.949219,0.679688 -0.335937,0.15625 -0.703125,0.234375 -1.101562,0.234375 -0.640625,0 -1.09375,-0.136719 -1.359376,-0.410157 -0.257812,-0.28125 -0.386718,-0.726562 -0.386718,-1.335937 0,-0.210937 0.0078,-0.425781 0.02344,-0.644531 0.02344,-0.21875 0.07422,-0.535156 0.152344,-0.949219 l 0.09375,-0.492187 c 0.148437,-0.75 0.351562,-1.414063 0.609375,-1.992188 0.257813,-0.578125 0.617188,-1.164062 1.078125,-1.757812 0.460937,-0.59375 0.882812,-1.023438 1.265625,-1.289063 0.390625,-0.273437 0.785156,-0.410156 1.183594,-0.410156 z m 13.40625,0 c 0.5,0 0.863281,0.203125 1.089844,0.609375 0.234375,0.398437 0.351562,1.007812 0.351562,1.828125 0,0.515624 -0.05078,1.070312 -0.152344,1.664062 -0.09375,0.585938 -0.238281,1.160157 -0.433594,1.722657 -0.187499,0.554687 -0.402343,1.042969 -0.644531,1.464843 -0.242187,0.421876 -0.515625,0.781251 -0.820312,1.078125 -0.296876,0.296876 -0.613282,0.523438 -0.949219,0.679688 -0.335937,0.15625 -0.703125,0.234375 -1.101562,0.234375 -0.640625,0 -1.09375,-0.136719 -1.359376,-0.410157 -0.257812,-0.28125 -0.386718,-0.726562 -0.386718,-1.335937 0,-0.210937 0.0078,-0.425781 0.02344,-0.644531 0.02344,-0.21875 0.07422,-0.535156 0.152344,-0.949219 l 0.09375,-0.492187 c 0.148437,-0.75 0.351562,-1.414063 0.609375,-1.992188 0.257813,-0.578125 0.617188,-1.164062 1.078125,-1.757812 0.460937,-0.59375 0.882812,-1.023438 1.265625,-1.289063 0.390625,-0.273437 0.785156,-0.410156 1.183594,-0.410156 z m 79.480461,0 c 0.50783,0 0.875,0.203125 1.10157,0.609375 0.23437,0.40625 0.35157,1.015625 0.35157,1.828125 0,0.601562 -0.0625,1.234375 -0.1875,1.898437 -0.125,0.65625 -0.30078,1.273437 -0.52736,1.851563 -0.22656,0.578124 -0.47656,1.066406 -0.75,1.464843 -0.26562,0.390626 -0.55078,0.707032 -0.85545,0.949219 -0.29688,0.242188 -0.58986,0.417969 -0.87891,0.527344 -0.28906,0.101563 -0.59375,0.152344 -0.91406,0.152344 -0.625,0 -1.07422,-0.136719 -1.34766,-0.410157 -0.26563,-0.273437 -0.39844,-0.71875 -0.39844,-1.335937 0,-0.515625 0.0586,-1.046875 0.17578,-1.59375 l 0.10547,-0.492187 c 0.19532,-0.898438 0.43359,-1.63672 0.71485,-2.214844 0.28124,-0.578126 0.64453,-1.140626 1.08984,-1.6875 0.44531,-0.554688 0.84766,-0.949219 1.20703,-1.183594 0.36719,-0.242187 0.73828,-0.363281 1.11327,-0.363281 z"
     id="path4577"
     inkscape:connector-curvature="0" />
</svg>
