<?xml version="1.0" encoding="UTF-8" standalone="no"?>
<!-- Created with Inkscape (http://www.inkscape.org/) -->

<svg
   xmlns:dc="http://purl.org/dc/elements/1.1/"
   xmlns:cc="http://creativecommons.org/ns#"
   xmlns:rdf="http://www.w3.org/1999/02/22-rdf-syntax-ns#"
   xmlns:svg="http://www.w3.org/2000/svg"
   xmlns="http://www.w3.org/2000/svg"
   xmlns:sodipodi="http://sodipodi.sourceforge.net/DTD/sodipodi-0.dtd"
   xmlns:inkscape="http://www.inkscape.org/namespaces/inkscape"
   width="3.227942mm"
   height="2.42044mm"
   viewBox="0 0 3.227942 2.4204399"
   version="1.1"
   id="svg8"
   inkscape:version="0.92.4 (5da689c313, 2019-01-14)"
   sodipodi:docname="usuk-banner-mini.svg">
  <defs
     id="defs2" />
  <sodipodi:namedview
     id="base"
     pagecolor="#ffffff"
     bordercolor="#666666"
     borderopacity="1.0"
     inkscape:pageopacity="0.0"
     inkscape:pageshadow="2"
     inkscape:zoom="1.4"
     inkscape:cx="-4.8566221"
     inkscape:cy="192.62593"
     inkscape:document-units="mm"
     inkscape:current-layer="layer1"
     showgrid="false"
     showguides="true"
     inkscape:guide-bbox="true"
     fit-margin-top="0"
     fit-margin-left="0"
     fit-margin-right="0"
     fit-margin-bottom="0"
     inkscape:window-width="2560"
     inkscape:window-height="1377"
     inkscape:window-x="-8"
     inkscape:window-y="-8"
     inkscape:window-maximized="1" />
  <metadata
     id="metadata5">
    <rdf:RDF>
      <cc:Work
         rdf:about="">
        <dc:format>image/svg+xml</dc:format>
        <dc:type
           rdf:resource="http://purl.org/dc/dcmitype/StillImage" />
        <dc:title></dc:title>
      </cc:Work>
    </rdf:RDF>
  </metadata>
  <g
     inkscape:label="Ebene 1"
     inkscape:groupmode="layer"
     id="layer1"
     transform="translate(-12.854915,-141.82993)">
    <path
       style="fill:#ffffff;fill-opacity:1;stroke-width:0.00472594"
       d="m 16.081157,144.25011 0.0017,-2.40659 -3.219488,2.40659 z"
       id="rect4621-0"
       inkscape:connector-curvature="0"
       sodipodi:nodetypes="cccc" />
    <path
       style="fill:#ffffff;fill-opacity:1;stroke-width:0.00472594"
       d="m 12.854918,141.83043 3.183738,0.007 -3.183737,2.38785 z"
       id="rect4621"
       inkscape:connector-curvature="0"
       sodipodi:nodetypes="cccc" />
    <path
       style="fill:#bf1f2f;stroke-width:0.005041"
       d="m 14.69569,141.83056 c 0,0 -0.01271,0.0793 -9e-4,0.18392 l 0.552917,0.002 h 0.552814 l 0.118897,-0.0889 c 0.06539,-0.0489 0.12111,-0.094 0.123744,-0.0964 0.0024,-0.002 -0.573636,-10e-4 -1.348288,-10e-4 -0.08355,0.081 8e-4,1.3e-4 8e-4,1.3e-4 z m 1.387145,0.22731 c 0,0 -0.201255,0.0967 -0.438995,0.21568 l -0.432248,0.21629 -0.0979,0.0736 -0.09789,0.0736 h 0.134449 0.134449 l 0.398234,-0.19913 0.399895,-0.20023 z m -1.388036,0.14518 c -0.03376,0.0481 -0.03291,0.14956 0,0.18753 l 0.304205,-6e-4 h 0.304112 l 0.122745,-0.092 0.122736,-0.092 -0.426848,-0.001 z m 0,0.37356 c 0,0 -0.02954,0.14592 0,0.18558 0.03704,8e-4 0.07408,8e-4 0.111128,8e-4 0.08283,-0.0622 0.165671,-0.12434 0.248508,-0.18651 -0.119879,-4e-5 -0.239758,4e-5 -0.359636,1.1e-4 -0.03798,0.0236 0,0 0,0 z m 0.106358,0.2217 -0.325609,0.24323 -0.32561,0.24323 0.03807,0.001 0.03808,10e-4 v 0.4812 0.48121 h 0.244484 0.244493 v -0.48142 -0.48141 h 0.683055 l 0.684724,1.7e-4 v -0.48862 l -0.641675,-6e-4 z m -1.946238,0.51921 v 0.0933 0.0933 h 0.480569 0.480559 l 0.118057,-0.0885 c 0.06493,-0.0487 0.120212,-0.0906 0.122846,-0.0932 0.003,-0.003 -0.220216,-0.005 -0.598615,-0.005 z m 2.782423,0.12591 -0.180112,0.001 -0.180111,10e-4 0.398243,0.20009 v 1e-5 c 0.219031,0.11006 0.407473,0.20249 0.407473,0.20249 v -0.18313 l -0.223577,-0.11114 z m -1.698549,1.2e-4 -0.09203,0.0687 c -0.05061,0.0378 -0.09316,0.0698 -0.09455,0.0712 -0.0049,0.005 0.249664,-0.12442 0.259612,-0.13195 0.0093,-0.007 0.0067,-0.008 -0.03148,-0.008 z m -1.083874,0.24701 v 0.0933 0.0933 h 0.231959 0.231949 l 0.12425,-0.0933 0.12425,-0.0933 h -0.356199 z m 0,0.37303 v 0.0808 0.0807 l 0.102088,-0.0764 c 0.05614,-0.042 0.104235,-0.0784 0.106869,-0.0807 0.0027,-0.002 -0.04191,-0.004 -0.102088,-0.004 z"
       id="path4566"
       inkscape:connector-curvature="0"
       sodipodi:nodetypes="scccccccscccccccccccccccccccccccccccccccccccccccccccccscccccccsccccccccccccccccccccccsccc" />
    <path
       inkscape:connector-curvature="0"
       id="path4564"
       d="m 13.128701,144.05106 0.265354,-0.19905 0.332816,-0.16642 c 0.183049,-0.0915 0.333957,-0.16642 0.335351,-0.16642 0.0014,0 0.0025,0.16446 0.0025,0.36547 v 0.36547 h -0.600705 -0.600706 z m 1.747658,-0.16642 c 0,-0.20101 0.0011,-0.36547 0.0025,-0.36547 0.0014,0 0.27247,0.13497 0.602399,0.29994 l 0.601548,0.3013 v 0.12996 l -0.604077,-2e-4 H 14.87633 Z m 1.078773,-0.3711 c -0.06516,-0.0335 -0.119408,-0.0618 -0.120564,-0.0629 -0.0012,-0.001 0.05385,-0.002 0.122244,-0.002 l 0.126023,6e-5 v 0.12743 c 0,0 -0.06255,-0.029 -0.127703,-0.0625 z m -3.100214,-1.0303 v -0.65281 h 0.919982 0.919983 v 0.50807 0.50806 l -0.05381,0.0401 c -0.0296,0.0221 -0.06249,0.0466 -0.0731,0.0545 l -0.01928,0.0143 -0.0043,-0.0116 c -0.004,-0.0108 -0.0047,-0.0103 -0.01081,0.008 -0.008,0.0246 -0.012,0.0274 -0.03965,0.0275 -0.02165,8e-5 -0.02182,2e-4 -0.0113,0.009 0.01055,0.009 0.0095,0.01 -0.08281,0.0781 l -0.09349,0.0693 h -0.725709 -0.725709 z m 0.175611,0.56263 0.02071,0.0152 -0.0074,-0.0243 -0.0074,-0.0243 0.01635,-0.0137 c 0.009,-0.008 0.01862,-0.0142 0.02139,-0.0147 0.0028,-6e-4 -0.0073,-0.002 -0.02229,-0.004 -0.02713,-0.003 -0.02739,-0.003 -0.03495,-0.0256 l -0.0076,-0.0227 -0.0075,0.0239 -0.0075,0.0239 -0.02558,1.7e-4 -0.02558,1.7e-4 0.01215,0.0101 c 0.0067,0.006 0.01569,0.0121 0.02001,0.0145 0.0071,0.004 0.0071,0.007 -3.2e-4,0.0299 l -0.0082,0.0256 0.02151,-0.0148 0.02151,-0.0148 0.02071,0.0152 z m 0.306196,-2e-4 0.02171,0.0149 -0.0081,-0.0236 -0.0081,-0.0236 0.01969,-0.0167 0.01969,-0.0167 -0.02558,-8e-5 -0.02558,-7e-5 -0.0075,-0.024 -0.0075,-0.0239 -0.0076,0.0227 -0.0076,0.0227 -0.02644,0.002 -0.02644,0.002 0.02054,0.0149 c 0.0113,0.008 0.02054,0.0157 0.02054,0.0167 0,0.001 -0.0034,0.0115 -0.0076,0.0233 -0.0042,0.0118 -0.0076,0.0225 -0.0076,0.0238 0,0.001 0.0094,-0.005 0.02085,-0.013 l 0.02085,-0.0153 z m 0.30317,-0.002 c 0.0095,0.007 0.01802,0.0123 0.01902,0.0113 10e-4,-0.001 -7.6e-4,-0.0115 -0.0039,-0.0232 -0.0051,-0.0192 -0.0047,-0.0222 0.0042,-0.0285 0.03232,-0.0233 0.03223,-0.0227 0.0038,-0.0229 -0.02623,-1.7e-4 -0.02627,-1.9e-4 -0.0323,-0.0203 -0.0033,-0.0111 -0.0076,-0.0202 -0.0095,-0.0202 -0.0019,0 -0.0062,0.009 -0.0095,0.0202 -0.006,0.0201 -0.0061,0.0202 -0.03204,0.0202 h -0.026 l 0.02116,0.0156 c 0.01164,0.009 0.02116,0.0162 0.02116,0.017 0,8e-4 -0.0034,0.0111 -0.0076,0.0229 -0.0042,0.0118 -0.0076,0.0223 -0.0076,0.0233 0,0.001 0.0094,-0.005 0.02094,-0.0132 l 0.02093,-0.0152 z m 0.62887,-0.008 -0.0078,-0.0222 0.01659,-0.0138 c 0.0091,-0.008 0.01886,-0.0142 0.02163,-0.0147 0.0028,-6e-4 -0.0073,-0.002 -0.02229,-0.004 -0.02713,-0.003 -0.02739,-0.003 -0.03495,-0.0256 l -0.0076,-0.0227 -0.0075,0.0239 -0.0075,0.0239 -0.02558,1.7e-4 -0.02558,1.7e-4 0.01215,0.0101 c 0.0067,0.006 0.01562,0.0121 0.01986,0.0144 0.0066,0.004 0.0068,0.007 0.0014,0.0255 -0.0035,0.0116 -0.0055,0.022 -0.0045,0.0231 0.001,0.001 0.01,-0.004 0.01992,-0.0103 l 0.01802,-0.0122 0.01947,0.0145 c 0.01071,0.008 0.02007,0.0139 0.02082,0.0132 7.4e-4,-8e-4 -0.0022,-0.0113 -0.0065,-0.0235 z m -0.357645,0.008 0.01708,-0.013 0.01708,0.013 c 0.0094,0.007 0.01847,0.013 0.02016,0.013 0.0017,0 -3.2e-4,-0.01 -0.0045,-0.0214 -0.0083,-0.0235 -0.0086,-0.0229 0.02341,-0.0451 0.01231,-0.009 0.01229,-0.009 -0.01375,-0.009 -0.02562,-2e-4 -0.02618,-6e-4 -0.03211,-0.0192 -0.0091,-0.0284 -0.01282,-0.0292 -0.0198,-0.004 l -0.0064,0.0227 -0.02551,0.002 -0.02551,0.002 0.02069,0.0143 0.02069,0.0143 -0.0072,0.0204 c -0.01054,0.0299 -0.0097,0.0304 0.01561,0.0111 z m -0.727644,-0.12741 0.01978,0.0157 -0.0035,-0.0145 c -0.0019,-0.008 -0.0053,-0.0194 -0.0075,-0.0254 -0.0033,-0.009 -5.6e-4,-0.0132 0.01676,-0.0252 l 0.02075,-0.0143 -0.02598,-0.002 c -0.02546,-0.001 -0.02609,-0.002 -0.03194,-0.0214 -0.0033,-0.0109 -0.0075,-0.0199 -0.0094,-0.0199 -0.0019,0 -0.0061,0.009 -0.0094,0.0199 -0.0059,0.0196 -0.0064,0.0199 -0.03231,0.0214 l -0.02634,0.002 0.02105,0.0143 0.02105,0.0143 -0.0072,0.0204 c -0.01046,0.0297 -0.0093,0.0308 0.01362,0.0142 l 0.0208,-0.0151 0.01978,0.0157 z m 0.319264,-0.0106 c -0.0042,-0.0119 -0.0076,-0.0224 -0.0076,-0.0234 0,-0.001 0.0095,-0.008 0.02114,-0.0158 l 0.02114,-0.0139 -0.02705,-0.003 c -0.02691,-0.002 -0.02709,-0.003 -0.03467,-0.0252 l -0.0076,-0.0227 -0.0075,0.0239 -0.0075,0.0239 h -0.0276 -0.0276 l 0.02092,0.0152 c 0.02212,0.016 0.02405,0.0213 0.01574,0.0432 -0.0072,0.0191 -0.0032,0.0203 0.01661,0.005 l 0.01713,-0.0131 0.01971,0.0147 c 0.01084,0.008 0.02032,0.0141 0.02106,0.0133 7.4e-4,-8e-4 -0.0021,-0.0111 -0.0063,-0.0229 z m 0.284996,0.005 c 0.0068,0.005 0.01625,0.012 0.02099,0.0147 0.008,0.005 0.0081,0.004 0.0013,-0.0159 -0.0041,-0.0115 -0.0074,-0.0226 -0.0074,-0.0248 0,-0.002 0.0095,-0.011 0.02116,-0.0195 l 0.02116,-0.0156 H 13.81682 13.7887 l -0.0063,-0.0239 -0.0063,-0.0239 -0.0067,0.0151 c -0.0037,0.008 -0.0068,0.0191 -0.0069,0.0239 -1.89e-4,0.007 -0.005,0.009 -0.02895,0.009 h -0.02872 l 0.02116,0.0156 c 0.01164,0.009 0.02116,0.0173 0.02116,0.0195 0,0.002 -0.0033,0.0134 -0.0074,0.0249 l -0.0074,0.0209 0.02148,-0.0148 0.02148,-0.0148 0.01237,0.01 z m 0.310584,0.003 c 0.0094,0.007 0.01816,0.012 0.01942,0.0108 0.0013,-0.001 6.8e-5,-0.0101 -0.0027,-0.0196 -0.0069,-0.0241 -0.0073,-0.0232 0.01597,-0.04 l 0.02092,-0.0152 h -0.0276 -0.0276 l -0.0075,-0.024 -0.0075,-0.0239 -0.0076,0.0227 c -0.0076,0.0226 -0.0078,0.0227 -0.03467,0.0252 l -0.02705,0.003 0.02114,0.0139 c 0.01163,0.008 0.02114,0.0148 0.02114,0.0158 0,0.001 -0.0034,0.0115 -0.0076,0.0232 -0.0042,0.0118 -0.0076,0.0225 -0.0076,0.0238 0,0.001 0.0094,-0.005 0.02082,-0.013 l 0.02082,-0.0153 0.01712,0.0131 z m 0.289062,-0.009 c 0.0036,0 0.01429,0.006 0.02367,0.013 l 0.01706,0.013 -0.0035,-0.0143 c -0.0019,-0.008 -0.0053,-0.0192 -0.0075,-0.0251 -0.0033,-0.009 -5.8e-4,-0.0132 0.01712,-0.0252 l 0.02112,-0.0143 -0.02634,-0.002 c -0.02589,-0.001 -0.02644,-0.002 -0.0323,-0.0214 -0.0033,-0.0109 -0.0075,-0.0199 -0.0094,-0.0199 -0.0019,0 -0.0061,0.009 -0.0094,0.0199 -0.0058,0.0195 -0.0065,0.0199 -0.03194,0.0214 l -0.02598,0.002 0.02069,0.0143 0.02069,0.0143 -0.0072,0.0204 c -0.01032,0.0292 -0.0092,0.0312 0.0097,0.0168 0.0093,-0.007 0.01983,-0.0129 0.02347,-0.0129 z m -1.34365,-0.12665 c -0.004,-0.0114 -0.0073,-0.0225 -0.0073,-0.0245 0,-0.002 0.0095,-0.0103 0.02107,-0.0183 l 0.02107,-0.0145 -0.02698,-0.003 c -0.02683,-0.002 -0.02703,-0.003 -0.0346,-0.0252 l -0.0076,-0.0227 -0.0075,0.0239 -0.0075,0.024 -0.0281,2e-4 c -0.02794,2e-4 -0.02803,4e-4 -0.01577,0.009 0.03205,0.0222 0.03241,0.0229 0.02567,0.0433 -0.0034,0.0104 -0.0049,0.0202 -0.0033,0.0218 0.0016,0.002 0.01042,-0.003 0.01964,-0.01 l 0.01675,-0.0128 0.01957,0.0146 c 0.01076,0.008 0.0202,0.0146 0.02097,0.0146 7.6e-4,0 -0.0019,-0.009 -0.0059,-0.0208 z m 0.256248,0.004 c 0.01501,-0.0109 0.01351,-0.0113 0.04756,0.0108 l 0.0112,0.007 -0.0082,-0.024 c -0.009,-0.0264 -0.0096,-0.0253 0.02386,-0.0485 0.01226,-0.008 0.01217,-0.009 -0.01577,-0.009 l -0.0281,-2e-4 -0.0075,-0.0239 -0.0075,-0.0239 -0.0076,0.0227 c -0.0076,0.0226 -0.0078,0.0227 -0.0346,0.0252 l -0.02698,0.003 0.02107,0.0145 c 0.01159,0.008 0.02107,0.0162 0.02107,0.0183 0,0.002 -0.0033,0.0132 -0.0074,0.0247 -0.0079,0.0225 -0.0073,0.0226 0.01895,0.003 z m 0.32117,-0.008 c 0.0031,0 0.01382,0.006 0.02372,0.0137 0.01578,0.012 0.01764,0.0125 0.01503,0.004 -0.01118,-0.0374 -0.01094,-0.0388 0.0096,-0.0562 l 0.01968,-0.0166 -0.02626,-7e-5 c -0.02625,-8e-5 -0.02627,-9e-5 -0.0323,-0.0202 -0.0033,-0.0111 -0.0076,-0.0202 -0.0095,-0.0202 -0.0019,0 -0.0061,0.009 -0.0094,0.0199 -0.0059,0.0196 -0.0064,0.0199 -0.03222,0.0214 l -0.02626,0.002 0.02064,0.0151 0.02064,0.0151 -0.0068,0.0227 c -0.0037,0.0125 -0.0068,0.0235 -0.0069,0.0245 -4.2e-5,0.001 0.0077,-0.004 0.01723,-0.0113 0.0095,-0.007 0.01988,-0.0132 0.02302,-0.0132 z m 0.307053,0 c 0.0034,0 0.01395,0.006 0.02347,0.0132 0.01989,0.0152 0.0198,0.0153 0.0097,-0.0134 -0.0042,-0.0119 -0.007,-0.022 -0.0063,-0.0225 7.2e-4,-4e-4 0.01024,-0.007 0.02116,-0.0156 l 0.01984,-0.0147 -0.0274,-0.003 c -0.0268,-0.002 -0.0275,-0.003 -0.03207,-0.0214 -0.0026,-0.0104 -0.0062,-0.0189 -0.008,-0.0189 -0.0018,0 -0.0061,0.009 -0.0094,0.0202 -0.006,0.0202 -0.0061,0.0202 -0.0323,0.0202 l -0.02626,8e-5 0.01992,0.0168 c 0.0198,0.0168 0.01988,0.017 0.01386,0.037 -0.0085,0.0282 -0.0081,0.0287 0.0108,0.0143 0.0093,-0.007 0.01963,-0.0129 0.02302,-0.0129 z m 0.340491,0.004 c -0.004,-0.0114 -0.0073,-0.0225 -0.0073,-0.0245 0,-0.002 0.0095,-0.0103 0.02107,-0.0183 l 0.02107,-0.0145 -0.02698,-0.003 c -0.02683,-0.002 -0.02703,-0.003 -0.0346,-0.0252 l -0.0076,-0.0227 -0.0075,0.0239 -0.0075,0.024 -0.02558,1.8e-4 -0.02558,1.9e-4 0.01954,0.0167 c 0.01921,0.0164 0.01943,0.017 0.01336,0.0354 -0.0034,0.0103 -0.0049,0.02 -0.0033,0.0216 0.0016,0.002 0.01042,-0.003 0.01964,-0.01 l 0.01675,-0.0128 0.01957,0.0146 c 0.01076,0.008 0.0202,0.0146 0.02097,0.0146 7.6e-4,0 -0.0019,-0.009 -0.0059,-0.0208 z m 0.257893,0.002 c 0.01238,-0.009 0.01683,-0.0104 0.02104,-0.005 0.0029,0.004 0.0122,0.0104 0.02058,0.0153 l 0.01525,0.009 -0.0081,-0.0237 c -0.0089,-0.026 -0.0094,-0.025 0.02398,-0.0482 0.01226,-0.008 0.01217,-0.009 -0.01577,-0.009 l -0.0281,-2e-4 -0.0078,-0.024 -0.0078,-0.0239 -0.0067,0.0239 -0.0067,0.024 -0.02794,1.5e-4 -0.02794,1.6e-4 0.0126,0.01 c 0.0069,0.005 0.01691,0.0128 0.02217,0.0167 0.0091,0.007 0.0092,0.008 0.0015,0.0308 -0.0086,0.0253 -0.0079,0.0254 0.01974,0.005 z m -1.344004,-0.12565 c 0.01109,0.007 0.02016,0.0125 0.02016,0.0114 0,-0.001 -0.0033,-0.0112 -0.0073,-0.0225 l -0.0073,-0.0206 0.01859,-0.0152 0.0186,-0.0152 -0.02387,-1.7e-4 -0.02387,-1.7e-4 -0.0057,-0.0227 c -0.0031,-0.0125 -0.0074,-0.0227 -0.0094,-0.0227 -0.002,0 -0.0064,0.009 -0.0097,0.0202 -0.006,0.0201 -0.0061,0.0202 -0.0323,0.0204 l -0.02626,1.9e-4 0.01966,0.0168 c 0.02023,0.0173 0.02172,0.0254 0.01018,0.0552 -0.003,0.008 -1.57e-4,0.007 0.01729,-0.004 l 0.02092,-0.0138 z m 0.294092,-0.008 c 0.006,0.003 0.01594,0.009 0.02211,0.0137 l 0.01122,0.008 -0.008,-0.0236 c -0.0076,-0.0223 -0.0075,-0.0239 0.0014,-0.0304 0.03163,-0.0228 0.03152,-0.0224 0.006,-0.0226 l -0.02354,-1.6e-4 -0.0087,-0.0263 -0.0087,-0.0263 -0.0069,0.0238 -0.0069,0.0238 h -0.02505 c -0.01378,0 -0.02502,0.002 -0.02499,0.004 3.5e-5,0.002 0.0082,0.009 0.01819,0.0155 0.01903,0.0123 0.01926,0.0137 0.0087,0.0513 l -0.0035,0.0126 0.019,-0.0145 c 0.01593,-0.0121 0.02076,-0.0136 0.02989,-0.009 z m 0.277613,0.008 c 0.0091,-0.007 0.01836,-0.0126 0.02061,-0.0126 0.0023,0 0.01152,0.006 0.02061,0.0126 0.0091,0.007 0.01771,0.0126 0.01916,0.0126 0.0014,0 -6.6e-4,-0.009 -0.0047,-0.0208 -0.0098,-0.0278 -0.01001,-0.0271 0.01157,-0.0405 l 0.0189,-0.0118 -0.0248,-0.003 c -0.02461,-0.002 -0.02486,-0.003 -0.0331,-0.0274 l -0.0083,-0.0249 -0.0066,0.0236 -0.0066,0.0237 -0.02833,1.6e-4 -0.02833,1.6e-4 0.0126,0.01 c 0.0069,0.005 0.01691,0.0128 0.02217,0.0167 0.0091,0.007 0.0092,0.008 0.0016,0.0306 -0.0044,0.0129 -0.0069,0.0235 -0.0054,0.0235 0.0014,0 0.01,-0.006 0.01907,-0.0126 z m 0.318838,-0.008 c 0.0091,-0.005 0.01396,-0.003 0.02989,0.009 l 0.019,0.0145 -0.0035,-0.0126 c -0.01027,-0.0365 -0.01003,-0.0379 0.0088,-0.0507 l 0.01804,-0.0123 -0.02379,-0.003 c -0.02285,-0.002 -0.02412,-0.003 -0.03227,-0.0252 -0.0054,-0.0145 -0.0095,-0.02 -0.01131,-0.0151 -0.0016,0.004 -0.0051,0.0138 -0.0079,0.0214 -0.0046,0.0127 -0.0073,0.0139 -0.03165,0.014 l -0.02659,1.7e-4 0.0126,0.0105 c 0.0069,0.006 0.01657,0.0133 0.02142,0.0167 0.0081,0.006 0.0082,0.008 0.0016,0.03 l -0.0072,0.0238 0.01096,-0.008 c 0.006,-0.004 0.01586,-0.0105 0.02185,-0.0136 z m 0.33442,0.008 c 0.01109,0.007 0.02016,0.0125 0.02016,0.0114 0,-0.001 -0.0033,-0.0112 -0.0073,-0.0225 l -0.0073,-0.0206 0.01859,-0.0152 0.01859,-0.0152 -0.02329,-1.7e-4 c -0.02326,-1.7e-4 -0.0233,-2e-4 -0.02964,-0.0229 -0.0035,-0.0125 -0.008,-0.0227 -0.0099,-0.0227 -0.002,0 -0.0063,0.009 -0.0096,0.0202 -0.006,0.0201 -0.0061,0.0202 -0.0323,0.0204 l -0.02626,1.9e-4 0.01966,0.0168 c 0.02023,0.0173 0.02172,0.0254 0.01018,0.0552 -0.003,0.008 -1.57e-4,0.007 0.01729,-0.004 l 0.02092,-0.0138 0.02016,0.0133 z m -1.363537,-0.13787 c -0.0042,-0.0119 -0.0076,-0.023 -0.0076,-0.0247 2e-5,-0.002 0.0084,-0.009 0.01861,-0.0157 l 0.01858,-0.0126 -0.02451,-0.003 c -0.02431,-0.002 -0.02458,-0.003 -0.03292,-0.0277 l -0.0084,-0.0252 -0.0063,0.0262 -0.0063,0.0262 -0.02572,0.002 -0.02572,0.002 0.01885,0.0126 c 0.01967,0.0132 0.02001,0.0149 0.01001,0.0504 l -0.0035,0.0126 0.01821,-0.0139 c 0.01002,-0.008 0.02006,-0.0138 0.02233,-0.0137 0.0023,7e-5 0.01204,0.007 0.02173,0.0147 0.0097,0.008 0.01822,0.014 0.01896,0.0133 7.4e-4,-8e-4 -0.0021,-0.0111 -0.0063,-0.0229 z m 0.252383,0.007 0.01736,-0.0132 0.02085,0.0138 0.02085,0.0138 -0.0034,-0.0119 c -0.01034,-0.0364 -0.0101,-0.0376 0.01024,-0.0503 l 0.01939,-0.0121 -0.0252,-0.003 c -0.02477,-0.002 -0.02533,-0.003 -0.03233,-0.025 -0.0076,-0.024 -0.0077,-0.0239 -0.0204,0.0112 -0.0045,0.0125 -0.0074,0.0139 -0.02907,0.014 l -0.02407,1.7e-4 0.01215,0.0101 c 0.0067,0.006 0.0155,0.012 0.0196,0.0143 0.0066,0.004 0.0065,0.007 -5e-4,0.0275 -0.0044,0.0128 -0.0068,0.0233 -0.0054,0.0233 0.0014,0 0.01036,-0.006 0.01991,-0.0132 z m 0.310779,-0.003 c 0.01366,-0.009 0.01386,-0.009 0.03248,0.003 0.0103,0.007 0.01945,0.012 0.02033,0.0111 8.8e-4,-8e-4 -0.0017,-0.0109 -0.0057,-0.0223 l -0.0073,-0.0207 0.02086,-0.0153 0.02086,-0.0153 h -0.02554 -0.02554 l -0.0064,-0.023 c -0.007,-0.0252 -0.01077,-0.0244 -0.01987,0.004 -0.0059,0.0186 -0.0065,0.0189 -0.03185,0.0189 h -0.02581 l 0.02086,0.0153 0.02086,0.0153 -0.0073,0.0206 c -0.01028,0.0291 -0.01086,0.0289 0.01909,0.008 z m 0.307384,-6e-4 0.01363,-0.01 0.01821,0.0139 c 0.01001,0.008 0.01922,0.0129 0.02045,0.0116 0.0012,-0.001 -10e-4,-0.0116 -0.0051,-0.023 l -0.0073,-0.0207 0.01859,-0.0152 0.01859,-0.0152 -0.02355,-1.7e-4 c -0.02273,-1.7e-4 -0.02376,-8e-4 -0.0296,-0.0191 -0.0091,-0.0285 -0.01282,-0.0292 -0.01987,-0.004 l -0.0064,0.023 h -0.02554 -0.02554 l 0.02086,0.0153 0.02086,0.0153 -0.0073,0.0206 c -0.01029,0.0292 -0.01061,0.0291 0.01897,0.008 z m 0.319076,-0.008 c 0.0018,0 0.01063,0.006 0.01972,0.0126 0.0091,0.007 0.01791,0.0126 0.0196,0.0126 0.0017,0 -2.2e-4,-0.009 -0.0043,-0.0208 -0.0096,-0.0271 -0.01011,-0.0252 0.01131,-0.0397 l 0.01858,-0.0126 -0.02451,-0.003 c -0.0242,-0.002 -0.02461,-0.003 -0.03268,-0.027 l -0.0082,-0.0245 -0.0076,0.0245 c -0.0076,0.0244 -0.0077,0.0245 -0.03256,0.027 l -0.02498,0.003 0.01939,0.0121 c 0.02041,0.0127 0.02058,0.0136 0.01007,0.051 l -0.0035,0.0126 0.01821,-0.0139 c 0.01002,-0.008 0.01965,-0.0139 0.0214,-0.0139 z m 0.288412,0.0121 0.01715,-0.0131 0.02061,0.0136 0.02061,0.0136 -0.0034,-0.0119 c -0.01034,-0.0364 -0.0101,-0.0376 0.01024,-0.0503 l 0.01939,-0.0121 -0.0248,-0.003 c -0.02455,-0.002 -0.02488,-0.003 -0.03297,-0.027 l -0.0082,-0.0245 -0.0076,0.0245 c -0.0075,0.0243 -0.0077,0.0245 -0.03228,0.027 l -0.02469,0.003 0.01858,0.0126 c 0.02142,0.0145 0.02087,0.0126 0.01131,0.0397 -0.004,0.0114 -0.006,0.0208 -0.0043,0.0208 0.0017,0 0.0108,-0.006 0.02023,-0.0131 z M 13.80862,142.3854 c -0.0074,-0.0232 -0.0074,-0.0261 -3.4e-4,-0.03 0.0043,-0.002 0.01333,-0.009 0.02001,-0.0145 l 0.01215,-0.0101 -0.02407,-1.7e-4 c -0.02162,-1.5e-4 -0.02458,-0.002 -0.02907,-0.014 -0.01271,-0.0353 -0.01281,-0.0353 -0.02081,-0.0112 -0.0073,0.022 -0.0081,0.0226 -0.03231,0.0251 l -0.02481,0.003 0.01903,0.0126 c 0.0144,0.01 0.01836,0.0151 0.01626,0.0227 -0.0015,0.006 -0.0042,0.0166 -0.0059,0.0245 l -0.0031,0.0144 0.02078,-0.0138 0.02078,-0.0138 0.01903,0.0155 c 0.01046,0.009 0.01939,0.0156 0.01982,0.0157 4.4e-4,1e-4 -0.0029,-0.0114 -0.0074,-0.0255 z m -0.659891,0.004 0.01404,-0.01 0.0178,0.0136 c 0.0098,0.007 0.01881,0.0126 0.02004,0.0113 0.0012,-0.001 -10e-4,-0.0116 -0.0051,-0.023 l -0.0073,-0.0207 0.02086,-0.0153 0.02086,-0.0153 h -0.026 c -0.02596,0 -0.026,-2e-5 -0.03204,-0.0202 -0.0033,-0.0111 -0.0076,-0.0202 -0.0095,-0.0202 -0.0019,0 -0.0062,0.009 -0.0095,0.0202 -0.006,0.0201 -0.0061,0.0202 -0.03204,0.0202 h -0.026 l 0.02086,0.0153 0.02086,0.0153 -0.0073,0.0206 c -0.01029,0.0292 -0.0109,0.0289 0.01938,0.008 z m 0.306868,-2e-4 0.0134,-0.01 0.01732,0.0132 c 0.0095,0.007 0.01871,0.0132 0.0204,0.0132 0.0017,0 -2.2e-4,-0.009 -0.0043,-0.0208 -0.004,-0.0114 -0.0073,-0.0216 -0.0073,-0.0227 0,-0.001 0.0094,-0.009 0.02092,-0.017 l 0.02092,-0.0152 h -0.02557 c -0.02511,0 -0.02568,-4e-4 -0.03161,-0.0189 -0.0091,-0.0284 -0.01282,-0.0292 -0.0198,-0.004 l -0.0064,0.0227 -0.02588,0.002 -0.02588,0.002 0.01939,0.0121 c 0.02036,0.0127 0.02059,0.0138 0.01018,0.0505 -0.0037,0.0132 -0.0017,0.0127 0.02416,-0.006 z m 0.607117,0.003 0.01745,-0.0133 0.01849,0.0132 c 0.01017,0.007 0.01934,0.0123 0.02037,0.0113 0.001,-0.001 -9.2e-4,-0.0113 -0.0044,-0.0227 -0.0057,-0.0189 -0.0053,-0.0215 0.0034,-0.0278 0.03206,-0.0231 0.03197,-0.0226 0.004,-0.0228 l -0.02581,-1.6e-4 -0.0064,-0.0228 c -0.0071,-0.0255 -0.01019,-0.0251 -0.01774,0.002 -0.005,0.018 -0.0059,0.0185 -0.03188,0.02 l -0.0267,0.002 0.02054,0.0149 c 0.0113,0.008 0.02054,0.0157 0.02054,0.0167 0,0.001 -0.0033,0.0112 -0.0073,0.0226 -0.004,0.0114 -0.0062,0.0208 -0.0047,0.0208 0.0014,0 0.01048,-0.006 0.02008,-0.0133 z m 0.310978,-0.003 0.01404,-0.01 0.0178,0.0136 c 0.0098,0.007 0.01881,0.0126 0.02004,0.0113 0.0012,-0.001 -0.001,-0.0116 -0.0051,-0.023 l -0.0073,-0.0207 0.02086,-0.0153 0.02086,-0.0153 h -0.02605 -0.02604 l -0.0069,-0.0236 c -0.0073,-0.0252 -0.0089,-0.0248 -0.01837,0.005 -0.006,0.0186 -0.0065,0.0189 -0.0319,0.0189 h -0.02581 l 0.02086,0.0153 0.02086,0.0153 -0.0073,0.0206 c -0.01029,0.0292 -0.0109,0.0289 0.01938,0.008 z m -1.379773,-0.12808 0.0155,-0.0116 0.02059,0.0151 0.02058,0.0151 -0.0072,-0.024 -0.0072,-0.024 0.01653,-0.0137 c 0.0091,-0.008 0.0188,-0.0142 0.02157,-0.0147 0.0028,-6e-4 -0.0073,-0.002 -0.02229,-0.004 -0.02713,-0.003 -0.02739,-0.003 -0.03495,-0.0256 l -0.0076,-0.0227 -0.0075,0.024 -0.0075,0.0239 h -0.0276 -0.0276 l 0.02092,0.0152 c 0.02372,0.0172 0.02352,0.0165 0.01351,0.0449 -0.008,0.0227 -0.0072,0.0228 0.02039,0.002 z m 0.317717,-0.008 c 0.0031,-0.002 0.0131,0.002 0.02232,0.009 0.0092,0.007 0.01773,0.0114 0.0189,0.0103 0.0012,-0.001 -7e-4,-0.0107 -0.0041,-0.0211 -0.0062,-0.0187 -0.006,-0.0192 0.01336,-0.0356 l 0.01962,-0.0166 -0.02558,-7e-5 -0.02558,-8e-5 -0.0075,-0.0239 -0.0075,-0.024 -0.0076,0.0227 -0.0076,0.0227 -0.02644,0.002 -0.02644,0.002 0.02054,0.0149 c 0.0113,0.008 0.02054,0.0157 0.02054,0.0167 0,0.001 -0.0034,0.0115 -0.0076,0.0233 -0.0042,0.0118 -0.0076,0.0224 -0.0076,0.0236 0,0.001 0.0074,-0.003 0.01638,-0.01 0.009,-0.007 0.01888,-0.0135 0.02193,-0.0152 z m 0.957072,0.003 -0.0073,-0.0239 0.01635,-0.0137 c 0.009,-0.008 0.01862,-0.0142 0.02139,-0.0147 0.0028,-6e-4 -0.0073,-0.002 -0.02229,-0.004 -0.02713,-0.003 -0.02739,-0.003 -0.03495,-0.0256 l -0.0076,-0.0227 -0.0074,0.0237 -0.0074,0.0237 -0.02565,0.001 -0.02565,0.001 0.01913,0.0126 c 0.01991,0.0131 0.02033,0.0151 0.0105,0.0497 -0.003,0.0106 -0.0023,0.0113 0.0062,0.006 0.0053,-0.003 0.01425,-0.009 0.01999,-0.0132 0.0096,-0.007 0.01204,-0.006 0.03025,0.007 0.0109,0.008 0.02027,0.0151 0.02083,0.0151 5.6e-4,7e-5 -0.0023,-0.0106 -0.0063,-0.0238 z m 0.276835,-0.003 c 0.0031,0.002 0.01298,0.009 0.02192,0.0155 l 0.01625,0.0122 -0.0082,-0.0241 -0.0082,-0.0241 0.01969,-0.0167 0.01969,-0.0167 -0.02558,-7e-5 -0.02558,-8e-5 -0.0075,-0.0239 -0.0075,-0.024 -0.0076,0.0227 -0.0076,0.0227 -0.02644,0.002 -0.02644,0.002 0.02054,0.0149 c 0.0113,0.008 0.02054,0.0157 0.02054,0.0167 0,0.001 -0.0034,0.0115 -0.0076,0.0233 -0.0042,0.0118 -0.0076,0.0223 -0.0076,0.0233 0,0.001 0.0094,-0.005 0.02079,-0.0131 0.01144,-0.008 0.02335,-0.0136 0.02646,-0.0117 z m -0.9417,0.008 0.01731,-0.0132 0.01797,0.0137 c 0.0099,0.008 0.01898,0.0127 0.02022,0.0115 0.0012,-0.001 -10e-4,-0.0115 -0.005,-0.0228 l -0.0072,-0.0205 0.02069,-0.0143 0.02069,-0.0143 -0.02602,-0.002 -0.02602,-0.002 -0.0068,-0.0233 c -0.0072,-0.0248 -0.0088,-0.0245 -0.01821,0.005 -0.0058,0.018 -0.0069,0.0187 -0.03187,0.0202 l -0.02586,0.002 0.02092,0.0138 0.02092,0.0138 -0.0074,0.0209 c -0.01075,0.0305 -0.01001,0.031 0.01566,0.0114 z m 0.307277,1.7e-4 0.01708,-0.013 0.01708,0.013 c 0.0094,0.007 0.01847,0.013 0.02016,0.013 0.0017,0 -3.2e-4,-0.01 -0.0045,-0.0214 -0.0083,-0.0235 -0.0086,-0.0229 0.02341,-0.0451 0.01231,-0.009 0.01229,-0.009 -0.01375,-0.009 -0.02562,-2e-4 -0.02618,-6e-4 -0.03211,-0.0192 -0.0091,-0.0284 -0.01282,-0.0292 -0.0198,-0.004 l -0.0064,0.0227 -0.02551,0.002 -0.02551,0.002 0.02069,0.0143 0.02069,0.0143 -0.0072,0.0204 c -0.01054,0.0299 -0.0097,0.0305 0.01561,0.0111 z m -0.727782,-0.12752 c 0.01067,0.008 0.01938,0.0146 0.01935,0.0137 -3e-5,-0.001 -0.0033,-0.0123 -0.0072,-0.0252 l -0.0071,-0.0235 0.02106,-0.0143 0.02106,-0.0143 -0.02634,-0.002 c -0.02589,-0.001 -0.02644,-0.002 -0.0323,-0.0214 -0.0033,-0.0109 -0.0075,-0.0199 -0.0094,-0.0199 -0.0019,0 -0.0062,0.009 -0.0095,0.0202 -0.006,0.0202 -0.0061,0.0202 -0.0323,0.0202 l -0.02626,7e-5 0.01968,0.0167 c 0.02055,0.0174 0.0208,0.0188 0.0097,0.0559 -0.0024,0.008 9e-4,0.007 0.01864,-0.006 l 0.02154,-0.0158 z m 0.319402,-0.0105 c -0.0042,-0.0119 -0.0076,-0.0221 -0.0076,-0.0228 0,-6e-4 0.0095,-0.008 0.02107,-0.0157 l 0.02107,-0.0145 -0.02698,-0.003 c -0.02683,-0.002 -0.02703,-0.003 -0.0346,-0.0252 l -0.0076,-0.0227 -0.0075,0.0239 -0.0075,0.0239 -0.02558,8e-5 -0.02558,7e-5 0.01996,0.0169 c 0.01968,0.0166 0.01988,0.0172 0.01403,0.0362 -0.0033,0.0106 -0.0049,0.0203 -0.0037,0.0216 0.0012,0.001 0.0099,-0.004 0.01939,-0.0109 l 0.01717,-0.0131 0.01948,0.0145 c 0.01072,0.008 0.02009,0.0139 0.02083,0.0132 7.4e-4,-8e-4 -0.0021,-0.0111 -0.0063,-0.0229 z m 0.259508,0.005 c 0.01253,-0.01 0.01258,-0.01 0.02773,0.001 0.02705,0.0203 0.0278,0.0201 0.01925,-0.005 l -0.008,-0.0235 0.01961,-0.0168 0.01961,-0.0168 -0.02587,-1.9e-4 -0.02587,-1.9e-4 -0.0063,-0.024 -0.0063,-0.0239 -0.0078,0.0239 -0.0078,0.024 -0.02558,1.9e-4 -0.02558,1.9e-4 0.01961,0.0168 0.01961,0.0168 -0.008,0.0234 c -0.0088,0.0258 -0.0069,0.0262 0.02163,0.004 z m 0.336072,0.003 c 0.0094,0.007 0.01812,0.0121 0.01934,0.0108 0.0012,-10e-4 -4.6e-4,-0.0109 -0.0037,-0.0216 -0.0059,-0.0191 -0.0057,-0.0196 0.01403,-0.0362 l 0.01996,-0.0169 -0.02558,-7e-5 -0.02558,-8e-5 -0.0075,-0.0239 -0.0075,-0.0239 -0.0076,0.0227 c -0.0076,0.0226 -0.0078,0.0227 -0.0346,0.0252 l -0.02698,0.003 0.02107,0.0146 c 0.01159,0.008 0.02107,0.0151 0.02107,0.0157 0,6e-4 -0.0034,0.0108 -0.0076,0.0226 -0.0042,0.0118 -0.0076,0.0225 -0.0076,0.0237 0,0.001 0.0094,-0.005 0.02082,-0.013 l 0.02082,-0.0153 z m 0.289062,-0.009 c 0.0036,0 0.01429,0.006 0.02367,0.013 l 0.01706,0.013 -0.0035,-0.0143 c -0.0019,-0.008 -0.0053,-0.0192 -0.0075,-0.0251 -0.0033,-0.009 -5.8e-4,-0.0132 0.01712,-0.0252 l 0.02112,-0.0143 -0.02634,-0.002 c -0.02589,-0.001 -0.02644,-0.002 -0.0323,-0.0214 -0.0033,-0.0109 -0.0075,-0.0199 -0.0094,-0.0199 -0.0019,0 -0.0061,0.009 -0.0094,0.0199 -0.0059,0.0196 -0.0064,0.0199 -0.03231,0.0214 l -0.02634,0.002 0.02105,0.0143 0.02105,0.0143 -0.0072,0.0204 c -0.01032,0.0292 -0.0092,0.0312 0.0097,0.0168 0.0093,-0.007 0.01983,-0.0129 0.02347,-0.0129 z m -1.34365,-0.12666 c -0.004,-0.0114 -0.0073,-0.0225 -0.0073,-0.0245 0,-0.002 0.0095,-0.0103 0.02107,-0.0183 l 0.02107,-0.0145 -0.02698,-0.003 c -0.02683,-0.002 -0.02703,-0.003 -0.0346,-0.0252 l -0.0076,-0.0227 -0.0075,0.0239 -0.0075,0.0239 -0.0281,2e-4 c -0.02794,2e-4 -0.02803,4e-4 -0.01577,0.009 0.03205,0.0223 0.03241,0.0229 0.02567,0.0433 -0.0079,0.0239 -0.0046,0.0271 0.01416,0.0137 0.01881,-0.0134 0.02038,-0.0133 0.0411,0.002 0.0094,0.007 0.01767,0.0126 0.0184,0.0126 7.2e-4,0 -0.002,-0.009 -0.006,-0.0208 z m 0.263443,-1.7e-4 c 0.0095,-0.005 0.01402,-0.004 0.0298,0.009 l 0.01863,0.0142 -0.0035,-0.0122 c -0.01048,-0.037 -0.01022,-0.0386 0.0088,-0.0509 0.01,-0.006 0.01816,-0.0135 0.01819,-0.0155 3.4e-5,-0.002 -0.01088,-0.004 -0.02426,-0.004 h -0.02432 l -0.0075,-0.0239 -0.0075,-0.0239 -0.0076,0.0227 c -0.0076,0.0225 -0.0078,0.0227 -0.0346,0.0252 l -0.02698,0.003 0.02101,0.0145 c 0.02215,0.0153 0.02281,0.0187 0.01017,0.053 -0.0043,0.0118 -0.0042,0.0119 0.007,0.004 0.0063,-0.005 0.01651,-0.0109 0.02266,-0.014 z m 0.313975,-0.004 c 0.0031,0 0.01382,0.006 0.02372,0.0137 0.01578,0.012 0.01764,0.0125 0.01503,0.004 -0.01118,-0.0374 -0.01094,-0.0388 0.0096,-0.0562 l 0.01968,-0.0167 -0.02626,-7e-5 c -0.02625,-8e-5 -0.02627,-8e-5 -0.0323,-0.0202 -0.0033,-0.0111 -0.0076,-0.0202 -0.0095,-0.0202 -0.0019,0 -0.0062,0.009 -0.0095,0.0202 -0.006,0.0201 -0.0061,0.0202 -0.0323,0.0203 l -0.02626,1.7e-4 0.0126,0.0105 c 0.0069,0.006 0.01659,0.0133 0.02147,0.0167 0.0082,0.006 0.0083,0.008 0.0013,0.0278 -0.0101,0.0286 -0.01019,0.0285 0.0097,0.0133 0.0095,-0.007 0.01988,-0.0132 0.02302,-0.0132 z m 0.305546,0 c 0.0026,0 0.01312,0.006 0.02347,0.0128 0.01035,0.007 0.01881,0.0119 0.01881,0.0107 0,-0.001 -0.0034,-0.0117 -0.0076,-0.0235 -0.0042,-0.0118 -0.0076,-0.022 -0.0076,-0.0226 0,-6e-4 0.0096,-0.008 0.02142,-0.0157 l 0.02142,-0.0145 -0.02773,-0.003 c -0.02718,-0.002 -0.02782,-0.003 -0.03239,-0.0214 -0.0026,-0.0104 -0.0062,-0.0189 -0.008,-0.0189 -0.0018,0 -0.0061,0.009 -0.0094,0.0202 -0.006,0.0202 -0.0061,0.0202 -0.0323,0.0202 l -0.02626,7e-5 0.01992,0.0169 c 0.0198,0.0167 0.01988,0.017 0.01386,0.0371 -0.0085,0.0282 -0.0081,0.0287 0.0108,0.0143 0.0093,-0.007 0.01895,-0.0129 0.02151,-0.0129 z m 0.341998,0.004 c -0.004,-0.0114 -0.0073,-0.0225 -0.0073,-0.0245 0,-0.002 0.0095,-0.0103 0.02107,-0.0183 l 0.02107,-0.0145 -0.02698,-0.003 c -0.02683,-0.002 -0.02703,-0.003 -0.0346,-0.0252 l -0.0076,-0.0227 -0.0075,0.0239 -0.0075,0.0239 -0.02558,1.9e-4 -0.02558,1.9e-4 0.01954,0.0167 c 0.01921,0.0164 0.01943,0.017 0.01336,0.0354 -0.0078,0.0237 -0.0045,0.0269 0.01422,0.0135 0.01881,-0.0134 0.02038,-0.0133 0.0411,0.002 0.0094,0.007 0.01767,0.0126 0.0184,0.0126 7.2e-4,0 -0.002,-0.009 -0.006,-0.0208 z m 0.263443,-1.7e-4 c 0.0094,-0.005 0.01392,-0.004 0.02865,0.008 0.0096,0.007 0.01867,0.0133 0.02011,0.0133 0.0014,0 -6.6e-4,-0.009 -0.0047,-0.0208 -0.0098,-0.0279 -0.0099,-0.0279 0.01024,-0.0409 0.0097,-0.006 0.01761,-0.0131 0.01764,-0.0152 3.6e-5,-0.002 -0.01088,-0.004 -0.02426,-0.004 h -0.02432 l -0.0078,-0.0239 -0.0078,-0.0239 -0.0067,0.0239 -0.0067,0.0239 -0.02794,1.6e-4 -0.02794,1.6e-4 0.0126,0.01 c 0.0069,0.005 0.01691,0.0128 0.02217,0.0167 0.0091,0.007 0.0092,0.008 0.0014,0.0311 l -0.0082,0.024 0.01122,-0.008 c 0.0062,-0.005 0.01624,-0.0107 0.02239,-0.0139 z m 1.417954,0.578 c 0.04369,-0.0218 0.132744,-0.0646 0.132744,-0.0646 v 0.12659 l -0.128963,8e-4 -0.127285,-2e-4 c 0,0 0.08221,-0.0419 0.123504,-0.0625 z m -0.370513,-0.35928 c 0.006,-0.006 0.494177,-0.36569 0.503257,-0.37119 v 0.12322 l -0.254988,0.12631 c -0.139321,0.0696 -0.251042,0.12434 -0.248269,0.12166 z"
       style="fill:#0f275f;stroke-width:0.005041"
       sodipodi:nodetypes="ccsssccccsssccccsccscccccccccccccccssccccccccsccsccccccccccccccccccccccccccccscscccccccccscsccsssscccccccccccccsccsccscccccssccccccccccsccccccsccsssccccsccccccccscccccccsccccccccssscccccccscsscccccccsccccccccsccsssccccsccccccccscscccscsccscssccccccccccscccccscccccsscsscccccsscccscccccsccccccccscscscsccscccccccsccccccccccccscccccccccccccccccccccccsccccccsscccsccccccscccccccsccscccccccscscsscccccsccscccccsccsscccccccccccccccccccscccccccccccscsscccccsscscsccccccccscssscccccscccccccccccsssccccccsccccccccsccccccccscssscssccscsscsscccccccscccscccsccscccscsccsccccccccsccsccccscscscccssccssssscscccccssccccscsscccccccscscccsccccccccscsccccccscccccscsscccccsssccscsccccccccccscssccccccsccccccsccsscccccccccccccccccccscsccccscccccccccsccccsccscssccccscccccsscccccccsscscscsccccccsccccccsccscccccccscccccccccccccccccscsccccccsccssssccsccccccccscccccscscsscsscccccscssccsccsccscccsscssssccsscccscccccccccccscsscscscscscscccccscccccccssssccccscccsccccccccccccaccccccaccccccc" />
  </g>
</svg>
